G04 (created by PCBNEW-RS274X (2010-05-05 BZR 2356)-stable) date 4/07/2011 8:20:50 p.m.*
G01*
G70*
G90*
%MOIN*%
G04 Gerber Fmt 3.4, Leading zero omitted, Abs format*
%FSLAX34Y34*%
G04 APERTURE LIST*
%ADD10C,0.006000*%
%ADD11C,0.015000*%
%ADD12C,0.005000*%
%ADD13C,0.012000*%
%ADD14C,0.003900*%
G04 APERTURE END LIST*
G54D10*
G54D11*
X39291Y-32323D02*
X39291Y-19764D01*
X19685Y-32362D02*
X39291Y-32362D01*
X19685Y-19763D02*
X19685Y-32362D01*
X39291Y-19763D02*
X19685Y-19763D01*
G54D12*
X22086Y-20354D02*
X22086Y-21929D01*
X20118Y-21929D02*
X20118Y-20354D01*
X22086Y-22716D02*
X22086Y-21928D01*
X20118Y-22716D02*
X20118Y-21928D01*
X22086Y-22716D02*
X22086Y-27440D01*
X22086Y-27440D02*
X20118Y-27440D01*
X20118Y-27440D02*
X20118Y-22716D01*
X20118Y-20353D02*
X22086Y-20353D01*
G54D11*
X28917Y-31885D02*
X28917Y-20359D01*
X28917Y-20359D02*
X40158Y-20359D01*
X40158Y-20359D02*
X40158Y-31865D01*
X40158Y-31865D02*
X28917Y-31865D01*
G54D12*
X24054Y-20550D02*
X23050Y-20550D01*
X23030Y-21022D02*
X24054Y-21022D01*
X24054Y-21022D02*
X24054Y-20550D01*
X23041Y-21018D02*
X23041Y-20558D01*
X26732Y-23503D02*
X27736Y-23503D01*
X27756Y-23031D02*
X26732Y-23031D01*
X26732Y-23031D02*
X26732Y-23503D01*
X27745Y-23035D02*
X27745Y-23495D01*
X25472Y-24763D02*
X26476Y-24763D01*
X26496Y-24291D02*
X25472Y-24291D01*
X25472Y-24291D02*
X25472Y-24763D01*
X26485Y-24295D02*
X26485Y-24755D01*
X25472Y-27716D02*
X26476Y-27716D01*
X26496Y-27244D02*
X25472Y-27244D01*
X25472Y-27244D02*
X25472Y-27716D01*
X26485Y-27248D02*
X26485Y-27708D01*
X23267Y-23109D02*
X23267Y-22105D01*
X22795Y-22085D02*
X22795Y-23109D01*
X22795Y-23109D02*
X23267Y-23109D01*
X22799Y-22096D02*
X23259Y-22096D01*
X26102Y-28700D02*
X27106Y-28700D01*
X27126Y-28228D02*
X26102Y-28228D01*
X26102Y-28228D02*
X26102Y-28700D01*
X27115Y-28232D02*
X27115Y-28692D01*
X26102Y-25472D02*
X27106Y-25472D01*
X27126Y-25000D02*
X26102Y-25000D01*
X26102Y-25000D02*
X26102Y-25472D01*
X27115Y-25004D02*
X27115Y-25464D01*
X26614Y-20866D02*
X27618Y-20866D01*
X27638Y-20394D02*
X26614Y-20394D01*
X26614Y-20394D02*
X26614Y-20866D01*
X27627Y-20398D02*
X27627Y-20858D01*
X26830Y-30350D02*
X27834Y-30350D01*
X27854Y-29878D02*
X26830Y-29878D01*
X26830Y-29878D02*
X26830Y-30350D01*
X27843Y-29882D02*
X27843Y-30342D01*
X27622Y-26685D02*
X27622Y-25681D01*
X27150Y-25661D02*
X27150Y-26685D01*
X27150Y-26685D02*
X27622Y-26685D01*
X27154Y-25672D02*
X27614Y-25672D01*
X27756Y-23779D02*
X26752Y-23779D01*
X26732Y-24251D02*
X27756Y-24251D01*
X27756Y-24251D02*
X27756Y-23779D01*
X26743Y-24247D02*
X26743Y-23787D01*
X24290Y-21022D02*
X25294Y-21022D01*
X25314Y-20550D02*
X24290Y-20550D01*
X24290Y-20550D02*
X24290Y-21022D01*
X25303Y-20554D02*
X25303Y-21014D01*
X27033Y-21121D02*
X27032Y-21130D01*
X27029Y-21140D01*
X27024Y-21148D01*
X27018Y-21156D01*
X27010Y-21162D01*
X27002Y-21167D01*
X26993Y-21169D01*
X26983Y-21170D01*
X26974Y-21170D01*
X26965Y-21167D01*
X26956Y-21162D01*
X26949Y-21156D01*
X26942Y-21149D01*
X26938Y-21140D01*
X26935Y-21131D01*
X26934Y-21121D01*
X26934Y-21112D01*
X26937Y-21103D01*
X26941Y-21094D01*
X26948Y-21087D01*
X26955Y-21080D01*
X26963Y-21076D01*
X26973Y-21073D01*
X26982Y-21072D01*
X26991Y-21072D01*
X27001Y-21075D01*
X27009Y-21079D01*
X27017Y-21085D01*
X27023Y-21093D01*
X27028Y-21101D01*
X27031Y-21110D01*
X27032Y-21120D01*
X27033Y-21121D01*
X26983Y-21571D02*
X26983Y-21171D01*
X26983Y-21171D02*
X27583Y-21171D01*
X27583Y-21171D02*
X27583Y-21571D01*
X27583Y-21971D02*
X27583Y-22371D01*
X27583Y-22371D02*
X26983Y-22371D01*
X26983Y-22371D02*
X26983Y-21971D01*
X25542Y-23372D02*
X25592Y-23372D01*
X25592Y-23372D02*
X25592Y-21272D01*
X24092Y-21272D02*
X24092Y-23372D01*
X24092Y-23372D02*
X25542Y-23372D01*
X24642Y-23372D02*
X24642Y-23172D01*
X24642Y-23172D02*
X25042Y-23172D01*
X25042Y-23172D02*
X25042Y-23372D01*
X24092Y-21272D02*
X25592Y-21272D01*
G54D10*
X20807Y-25343D02*
X21397Y-25343D01*
X20807Y-24813D02*
X21397Y-24813D01*
X21397Y-25343D02*
X21420Y-25341D01*
X21443Y-25338D01*
X21465Y-25333D01*
X21487Y-25327D01*
X21508Y-25318D01*
X21529Y-25307D01*
X21548Y-25295D01*
X21567Y-25281D01*
X21584Y-25265D01*
X21600Y-25248D01*
X21614Y-25229D01*
X21626Y-25210D01*
X21637Y-25189D01*
X21646Y-25168D01*
X21652Y-25146D01*
X21657Y-25124D01*
X21660Y-25101D01*
X21662Y-25078D01*
X21660Y-25055D01*
X21657Y-25032D01*
X21652Y-25010D01*
X21646Y-24988D01*
X21637Y-24967D01*
X21626Y-24946D01*
X21614Y-24927D01*
X21600Y-24908D01*
X21584Y-24891D01*
X21567Y-24875D01*
X21548Y-24861D01*
X21529Y-24849D01*
X21508Y-24838D01*
X21487Y-24829D01*
X21465Y-24823D01*
X21443Y-24818D01*
X21420Y-24815D01*
X21397Y-24813D01*
X20807Y-24813D02*
X20784Y-24815D01*
X20761Y-24818D01*
X20739Y-24823D01*
X20717Y-24829D01*
X20696Y-24838D01*
X20675Y-24849D01*
X20656Y-24861D01*
X20637Y-24875D01*
X20620Y-24891D01*
X20604Y-24908D01*
X20590Y-24927D01*
X20578Y-24946D01*
X20567Y-24967D01*
X20558Y-24988D01*
X20552Y-25010D01*
X20547Y-25032D01*
X20544Y-25055D01*
X20542Y-25078D01*
X20544Y-25101D01*
X20547Y-25124D01*
X20552Y-25146D01*
X20558Y-25168D01*
X20567Y-25189D01*
X20578Y-25210D01*
X20590Y-25229D01*
X20604Y-25248D01*
X20620Y-25265D01*
X20637Y-25281D01*
X20656Y-25295D01*
X20675Y-25307D01*
X20696Y-25318D01*
X20717Y-25327D01*
X20739Y-25333D01*
X20761Y-25338D01*
X20784Y-25341D01*
X20807Y-25343D01*
X20807Y-26130D02*
X21397Y-26130D01*
X20807Y-25600D02*
X21397Y-25600D01*
X21397Y-26130D02*
X21420Y-26128D01*
X21443Y-26125D01*
X21465Y-26120D01*
X21487Y-26114D01*
X21508Y-26105D01*
X21529Y-26094D01*
X21548Y-26082D01*
X21567Y-26068D01*
X21584Y-26052D01*
X21600Y-26035D01*
X21614Y-26016D01*
X21626Y-25997D01*
X21637Y-25976D01*
X21646Y-25955D01*
X21652Y-25933D01*
X21657Y-25911D01*
X21660Y-25888D01*
X21662Y-25865D01*
X21660Y-25842D01*
X21657Y-25819D01*
X21652Y-25797D01*
X21646Y-25775D01*
X21637Y-25754D01*
X21626Y-25733D01*
X21614Y-25714D01*
X21600Y-25695D01*
X21584Y-25678D01*
X21567Y-25662D01*
X21548Y-25648D01*
X21529Y-25636D01*
X21508Y-25625D01*
X21487Y-25616D01*
X21465Y-25610D01*
X21443Y-25605D01*
X21420Y-25602D01*
X21397Y-25600D01*
X20807Y-25600D02*
X20784Y-25602D01*
X20761Y-25605D01*
X20739Y-25610D01*
X20717Y-25616D01*
X20696Y-25625D01*
X20675Y-25636D01*
X20656Y-25648D01*
X20637Y-25662D01*
X20620Y-25678D01*
X20604Y-25695D01*
X20590Y-25714D01*
X20578Y-25733D01*
X20567Y-25754D01*
X20558Y-25775D01*
X20552Y-25797D01*
X20547Y-25819D01*
X20544Y-25842D01*
X20542Y-25865D01*
X20544Y-25888D01*
X20547Y-25911D01*
X20552Y-25933D01*
X20558Y-25955D01*
X20567Y-25976D01*
X20578Y-25997D01*
X20590Y-26016D01*
X20604Y-26035D01*
X20620Y-26052D01*
X20637Y-26068D01*
X20656Y-26082D01*
X20675Y-26094D01*
X20696Y-26105D01*
X20717Y-26114D01*
X20739Y-26120D01*
X20761Y-26125D01*
X20784Y-26128D01*
X20807Y-26130D01*
X20542Y-26388D02*
X20542Y-26918D01*
X21662Y-26918D01*
X21662Y-26388D01*
X20542Y-26388D01*
X20807Y-24556D02*
X21397Y-24556D01*
X20807Y-24026D02*
X21397Y-24026D01*
X21397Y-24556D02*
X21420Y-24554D01*
X21443Y-24551D01*
X21465Y-24546D01*
X21487Y-24540D01*
X21508Y-24531D01*
X21529Y-24520D01*
X21548Y-24508D01*
X21567Y-24494D01*
X21584Y-24478D01*
X21600Y-24461D01*
X21614Y-24442D01*
X21626Y-24423D01*
X21637Y-24402D01*
X21646Y-24381D01*
X21652Y-24359D01*
X21657Y-24337D01*
X21660Y-24314D01*
X21662Y-24291D01*
X21660Y-24268D01*
X21657Y-24245D01*
X21652Y-24223D01*
X21646Y-24201D01*
X21637Y-24180D01*
X21626Y-24159D01*
X21614Y-24140D01*
X21600Y-24121D01*
X21584Y-24104D01*
X21567Y-24088D01*
X21548Y-24074D01*
X21529Y-24062D01*
X21508Y-24051D01*
X21487Y-24042D01*
X21465Y-24036D01*
X21443Y-24031D01*
X21420Y-24028D01*
X21397Y-24026D01*
X20807Y-24026D02*
X20784Y-24028D01*
X20761Y-24031D01*
X20739Y-24036D01*
X20717Y-24042D01*
X20696Y-24051D01*
X20675Y-24062D01*
X20656Y-24074D01*
X20637Y-24088D01*
X20620Y-24104D01*
X20604Y-24121D01*
X20590Y-24140D01*
X20578Y-24159D01*
X20567Y-24180D01*
X20558Y-24201D01*
X20552Y-24223D01*
X20547Y-24245D01*
X20544Y-24268D01*
X20542Y-24291D01*
X20544Y-24314D01*
X20547Y-24337D01*
X20552Y-24359D01*
X20558Y-24381D01*
X20567Y-24402D01*
X20578Y-24423D01*
X20590Y-24442D01*
X20604Y-24461D01*
X20620Y-24478D01*
X20637Y-24494D01*
X20656Y-24508D01*
X20675Y-24520D01*
X20696Y-24531D01*
X20717Y-24540D01*
X20739Y-24546D01*
X20761Y-24551D01*
X20784Y-24554D01*
X20807Y-24556D01*
X20807Y-23768D02*
X21397Y-23768D01*
X20807Y-23238D02*
X21397Y-23238D01*
X21397Y-23768D02*
X21420Y-23766D01*
X21443Y-23763D01*
X21465Y-23758D01*
X21487Y-23752D01*
X21508Y-23743D01*
X21529Y-23732D01*
X21548Y-23720D01*
X21567Y-23706D01*
X21584Y-23690D01*
X21600Y-23673D01*
X21614Y-23654D01*
X21626Y-23635D01*
X21637Y-23614D01*
X21646Y-23593D01*
X21652Y-23571D01*
X21657Y-23549D01*
X21660Y-23526D01*
X21662Y-23503D01*
X21660Y-23480D01*
X21657Y-23457D01*
X21652Y-23435D01*
X21646Y-23413D01*
X21637Y-23392D01*
X21626Y-23371D01*
X21614Y-23352D01*
X21600Y-23333D01*
X21584Y-23316D01*
X21567Y-23300D01*
X21548Y-23286D01*
X21529Y-23274D01*
X21508Y-23263D01*
X21487Y-23254D01*
X21465Y-23248D01*
X21443Y-23243D01*
X21420Y-23240D01*
X21397Y-23238D01*
X20807Y-23238D02*
X20784Y-23240D01*
X20761Y-23243D01*
X20739Y-23248D01*
X20717Y-23254D01*
X20696Y-23263D01*
X20675Y-23274D01*
X20656Y-23286D01*
X20637Y-23300D01*
X20620Y-23316D01*
X20604Y-23333D01*
X20590Y-23352D01*
X20578Y-23371D01*
X20567Y-23392D01*
X20558Y-23413D01*
X20552Y-23435D01*
X20547Y-23457D01*
X20544Y-23480D01*
X20542Y-23503D01*
X20544Y-23526D01*
X20547Y-23549D01*
X20552Y-23571D01*
X20558Y-23593D01*
X20567Y-23614D01*
X20578Y-23635D01*
X20590Y-23654D01*
X20604Y-23673D01*
X20620Y-23690D01*
X20637Y-23706D01*
X20656Y-23720D01*
X20675Y-23732D01*
X20696Y-23743D01*
X20717Y-23752D01*
X20739Y-23758D01*
X20761Y-23763D01*
X20784Y-23766D01*
X20807Y-23768D01*
X20807Y-22981D02*
X21397Y-22981D01*
X20807Y-22451D02*
X21397Y-22451D01*
X21397Y-22981D02*
X21420Y-22979D01*
X21443Y-22976D01*
X21465Y-22971D01*
X21487Y-22965D01*
X21508Y-22956D01*
X21529Y-22945D01*
X21548Y-22933D01*
X21567Y-22919D01*
X21584Y-22903D01*
X21600Y-22886D01*
X21614Y-22867D01*
X21626Y-22848D01*
X21637Y-22827D01*
X21646Y-22806D01*
X21652Y-22784D01*
X21657Y-22762D01*
X21660Y-22739D01*
X21662Y-22716D01*
X21660Y-22693D01*
X21657Y-22670D01*
X21652Y-22648D01*
X21646Y-22626D01*
X21637Y-22605D01*
X21626Y-22584D01*
X21614Y-22565D01*
X21600Y-22546D01*
X21584Y-22529D01*
X21567Y-22513D01*
X21548Y-22499D01*
X21529Y-22487D01*
X21508Y-22476D01*
X21487Y-22467D01*
X21465Y-22461D01*
X21443Y-22456D01*
X21420Y-22453D01*
X21397Y-22451D01*
X20807Y-22451D02*
X20784Y-22453D01*
X20761Y-22456D01*
X20739Y-22461D01*
X20717Y-22467D01*
X20696Y-22476D01*
X20675Y-22487D01*
X20656Y-22499D01*
X20637Y-22513D01*
X20620Y-22529D01*
X20604Y-22546D01*
X20590Y-22565D01*
X20578Y-22584D01*
X20567Y-22605D01*
X20558Y-22626D01*
X20552Y-22648D01*
X20547Y-22670D01*
X20544Y-22693D01*
X20542Y-22716D01*
X20544Y-22739D01*
X20547Y-22762D01*
X20552Y-22784D01*
X20558Y-22806D01*
X20567Y-22827D01*
X20578Y-22848D01*
X20590Y-22867D01*
X20604Y-22886D01*
X20620Y-22903D01*
X20637Y-22919D01*
X20656Y-22933D01*
X20675Y-22945D01*
X20696Y-22956D01*
X20717Y-22965D01*
X20739Y-22971D01*
X20761Y-22976D01*
X20784Y-22979D01*
X20807Y-22981D01*
X20807Y-22194D02*
X21397Y-22194D01*
X20807Y-21664D02*
X21397Y-21664D01*
X21397Y-22194D02*
X21420Y-22192D01*
X21443Y-22189D01*
X21465Y-22184D01*
X21487Y-22178D01*
X21508Y-22169D01*
X21529Y-22158D01*
X21548Y-22146D01*
X21567Y-22132D01*
X21584Y-22116D01*
X21600Y-22099D01*
X21614Y-22080D01*
X21626Y-22061D01*
X21637Y-22040D01*
X21646Y-22019D01*
X21652Y-21997D01*
X21657Y-21975D01*
X21660Y-21952D01*
X21662Y-21929D01*
X21660Y-21906D01*
X21657Y-21883D01*
X21652Y-21861D01*
X21646Y-21839D01*
X21637Y-21818D01*
X21626Y-21797D01*
X21614Y-21778D01*
X21600Y-21759D01*
X21584Y-21742D01*
X21567Y-21726D01*
X21548Y-21712D01*
X21529Y-21700D01*
X21508Y-21689D01*
X21487Y-21680D01*
X21465Y-21674D01*
X21443Y-21669D01*
X21420Y-21666D01*
X21397Y-21664D01*
X20807Y-21664D02*
X20784Y-21666D01*
X20761Y-21669D01*
X20739Y-21674D01*
X20717Y-21680D01*
X20696Y-21689D01*
X20675Y-21700D01*
X20656Y-21712D01*
X20637Y-21726D01*
X20620Y-21742D01*
X20604Y-21759D01*
X20590Y-21778D01*
X20578Y-21797D01*
X20567Y-21818D01*
X20558Y-21839D01*
X20552Y-21861D01*
X20547Y-21883D01*
X20544Y-21906D01*
X20542Y-21929D01*
X20544Y-21952D01*
X20547Y-21975D01*
X20552Y-21997D01*
X20558Y-22019D01*
X20567Y-22040D01*
X20578Y-22061D01*
X20590Y-22080D01*
X20604Y-22099D01*
X20620Y-22116D01*
X20637Y-22132D01*
X20656Y-22146D01*
X20675Y-22158D01*
X20696Y-22169D01*
X20717Y-22178D01*
X20739Y-22184D01*
X20761Y-22189D01*
X20784Y-22192D01*
X20807Y-22194D01*
X20807Y-21407D02*
X21397Y-21407D01*
X20807Y-20877D02*
X21397Y-20877D01*
X21397Y-21407D02*
X21420Y-21405D01*
X21443Y-21402D01*
X21465Y-21397D01*
X21487Y-21391D01*
X21508Y-21382D01*
X21529Y-21371D01*
X21548Y-21359D01*
X21567Y-21345D01*
X21584Y-21329D01*
X21600Y-21312D01*
X21614Y-21293D01*
X21626Y-21274D01*
X21637Y-21253D01*
X21646Y-21232D01*
X21652Y-21210D01*
X21657Y-21188D01*
X21660Y-21165D01*
X21662Y-21142D01*
X21660Y-21119D01*
X21657Y-21096D01*
X21652Y-21074D01*
X21646Y-21052D01*
X21637Y-21031D01*
X21626Y-21010D01*
X21614Y-20991D01*
X21600Y-20972D01*
X21584Y-20955D01*
X21567Y-20939D01*
X21548Y-20925D01*
X21529Y-20913D01*
X21508Y-20902D01*
X21487Y-20893D01*
X21465Y-20887D01*
X21443Y-20882D01*
X21420Y-20879D01*
X21397Y-20877D01*
X20807Y-20877D02*
X20784Y-20879D01*
X20761Y-20882D01*
X20739Y-20887D01*
X20717Y-20893D01*
X20696Y-20902D01*
X20675Y-20913D01*
X20656Y-20925D01*
X20637Y-20939D01*
X20620Y-20955D01*
X20604Y-20972D01*
X20590Y-20991D01*
X20578Y-21010D01*
X20567Y-21031D01*
X20558Y-21052D01*
X20552Y-21074D01*
X20547Y-21096D01*
X20544Y-21119D01*
X20542Y-21142D01*
X20544Y-21165D01*
X20547Y-21188D01*
X20552Y-21210D01*
X20558Y-21232D01*
X20567Y-21253D01*
X20578Y-21274D01*
X20590Y-21293D01*
X20604Y-21312D01*
X20620Y-21329D01*
X20637Y-21345D01*
X20656Y-21359D01*
X20675Y-21371D01*
X20696Y-21382D01*
X20717Y-21391D01*
X20739Y-21397D01*
X20761Y-21402D01*
X20784Y-21405D01*
X20807Y-21407D01*
X38395Y-31019D02*
X38388Y-31089D01*
X38367Y-31157D01*
X38334Y-31219D01*
X38289Y-31274D01*
X38234Y-31319D01*
X38172Y-31353D01*
X38104Y-31374D01*
X38034Y-31381D01*
X37964Y-31375D01*
X37897Y-31355D01*
X37834Y-31322D01*
X37779Y-31278D01*
X37733Y-31224D01*
X37699Y-31162D01*
X37677Y-31094D01*
X37670Y-31024D01*
X37675Y-30954D01*
X37695Y-30886D01*
X37727Y-30823D01*
X37771Y-30767D01*
X37825Y-30721D01*
X37887Y-30687D01*
X37955Y-30665D01*
X38025Y-30657D01*
X38095Y-30662D01*
X38163Y-30681D01*
X38226Y-30713D01*
X38282Y-30757D01*
X38328Y-30810D01*
X38363Y-30872D01*
X38385Y-30939D01*
X38394Y-31009D01*
X38395Y-31019D01*
X38395Y-21491D02*
X38388Y-21561D01*
X38367Y-21629D01*
X38334Y-21691D01*
X38289Y-21746D01*
X38234Y-21791D01*
X38172Y-21825D01*
X38104Y-21846D01*
X38034Y-21853D01*
X37964Y-21847D01*
X37897Y-21827D01*
X37834Y-21794D01*
X37779Y-21750D01*
X37733Y-21696D01*
X37699Y-21634D01*
X37677Y-21566D01*
X37670Y-21496D01*
X37675Y-21426D01*
X37695Y-21358D01*
X37727Y-21295D01*
X37771Y-21239D01*
X37825Y-21193D01*
X37887Y-21159D01*
X37955Y-21137D01*
X38025Y-21129D01*
X38095Y-21134D01*
X38163Y-21153D01*
X38226Y-21185D01*
X38282Y-21229D01*
X38328Y-21282D01*
X38363Y-21344D01*
X38385Y-21411D01*
X38394Y-21481D01*
X38395Y-21491D01*
G54D13*
X20620Y-28432D02*
X20620Y-27832D01*
X20848Y-27832D01*
X20906Y-27860D01*
X20934Y-27889D01*
X20963Y-27946D01*
X20963Y-28032D01*
X20934Y-28089D01*
X20906Y-28118D01*
X20848Y-28146D01*
X20620Y-28146D01*
X21191Y-27889D02*
X21220Y-27860D01*
X21277Y-27832D01*
X21420Y-27832D01*
X21477Y-27860D01*
X21506Y-27889D01*
X21534Y-27946D01*
X21534Y-28003D01*
X21506Y-28089D01*
X21163Y-28432D01*
X21534Y-28432D01*
X34633Y-26520D02*
X34033Y-26520D01*
X34033Y-26292D01*
X34061Y-26234D01*
X34090Y-26206D01*
X34147Y-26177D01*
X34233Y-26177D01*
X34290Y-26206D01*
X34319Y-26234D01*
X34347Y-26292D01*
X34347Y-26520D01*
X34633Y-25606D02*
X34633Y-25949D01*
X34633Y-25777D02*
X34033Y-25777D01*
X34119Y-25834D01*
X34176Y-25892D01*
X34204Y-25949D01*
X36454Y-30169D02*
X36483Y-30083D01*
X36483Y-29940D01*
X36454Y-29883D01*
X36426Y-29854D01*
X36369Y-29826D01*
X36311Y-29826D01*
X36254Y-29854D01*
X36226Y-29883D01*
X36197Y-29940D01*
X36169Y-30054D01*
X36140Y-30112D01*
X36111Y-30140D01*
X36054Y-30169D01*
X35997Y-30169D01*
X35940Y-30140D01*
X35911Y-30112D01*
X35883Y-30054D01*
X35883Y-29912D01*
X35911Y-29826D01*
X36483Y-29569D02*
X35883Y-29569D01*
X35883Y-29426D01*
X35911Y-29341D01*
X35969Y-29283D01*
X36026Y-29255D01*
X36140Y-29226D01*
X36226Y-29226D01*
X36340Y-29255D01*
X36397Y-29283D01*
X36454Y-29341D01*
X36483Y-29426D01*
X36483Y-29569D01*
X36426Y-28626D02*
X36454Y-28655D01*
X36483Y-28741D01*
X36483Y-28798D01*
X36454Y-28883D01*
X36397Y-28941D01*
X36340Y-28969D01*
X36226Y-28998D01*
X36140Y-28998D01*
X36026Y-28969D01*
X35969Y-28941D01*
X35911Y-28883D01*
X35883Y-28798D01*
X35883Y-28741D01*
X35911Y-28655D01*
X35940Y-28626D01*
X36540Y-28512D02*
X36540Y-28055D01*
X36483Y-27912D02*
X35883Y-27912D01*
X36311Y-27712D01*
X35883Y-27512D01*
X36483Y-27512D01*
X36483Y-27226D02*
X35883Y-27226D01*
X36311Y-27026D01*
X35883Y-26826D01*
X36483Y-26826D01*
X36426Y-26197D02*
X36454Y-26226D01*
X36483Y-26312D01*
X36483Y-26369D01*
X36454Y-26454D01*
X36397Y-26512D01*
X36340Y-26540D01*
X36226Y-26569D01*
X36140Y-26569D01*
X36026Y-26540D01*
X35969Y-26512D01*
X35911Y-26454D01*
X35883Y-26369D01*
X35883Y-26312D01*
X35911Y-26226D01*
X35940Y-26197D01*
X36540Y-26083D02*
X36540Y-25626D01*
X36454Y-25512D02*
X36483Y-25426D01*
X36483Y-25283D01*
X36454Y-25226D01*
X36426Y-25197D01*
X36369Y-25169D01*
X36311Y-25169D01*
X36254Y-25197D01*
X36226Y-25226D01*
X36197Y-25283D01*
X36169Y-25397D01*
X36140Y-25455D01*
X36111Y-25483D01*
X36054Y-25512D01*
X35997Y-25512D01*
X35940Y-25483D01*
X35911Y-25455D01*
X35883Y-25397D01*
X35883Y-25255D01*
X35911Y-25169D01*
X35883Y-24798D02*
X35883Y-24684D01*
X35911Y-24626D01*
X35969Y-24569D01*
X36083Y-24541D01*
X36283Y-24541D01*
X36397Y-24569D01*
X36454Y-24626D01*
X36483Y-24684D01*
X36483Y-24798D01*
X36454Y-24855D01*
X36397Y-24912D01*
X36283Y-24941D01*
X36083Y-24941D01*
X35969Y-24912D01*
X35911Y-24855D01*
X35883Y-24798D01*
X36426Y-23940D02*
X36454Y-23969D01*
X36483Y-24055D01*
X36483Y-24112D01*
X36454Y-24197D01*
X36397Y-24255D01*
X36340Y-24283D01*
X36226Y-24312D01*
X36140Y-24312D01*
X36026Y-24283D01*
X35969Y-24255D01*
X35911Y-24197D01*
X35883Y-24112D01*
X35883Y-24055D01*
X35911Y-23969D01*
X35940Y-23940D01*
X36483Y-23683D02*
X35883Y-23683D01*
X36483Y-23340D02*
X36140Y-23597D01*
X35883Y-23340D02*
X36226Y-23683D01*
X36169Y-23083D02*
X36169Y-22883D01*
X36483Y-22797D02*
X36483Y-23083D01*
X35883Y-23083D01*
X35883Y-22797D01*
X35883Y-22626D02*
X35883Y-22283D01*
X36483Y-22454D02*
X35883Y-22454D01*
G54D14*
X23536Y-20883D02*
X23484Y-20768D01*
X23446Y-20883D02*
X23446Y-20642D01*
X23506Y-20642D01*
X23521Y-20654D01*
X23529Y-20665D01*
X23536Y-20688D01*
X23536Y-20722D01*
X23529Y-20745D01*
X23521Y-20757D01*
X23506Y-20768D01*
X23446Y-20768D01*
X23611Y-20883D02*
X23641Y-20883D01*
X23656Y-20872D01*
X23663Y-20860D01*
X23678Y-20826D01*
X23686Y-20780D01*
X23686Y-20688D01*
X23678Y-20665D01*
X23671Y-20654D01*
X23656Y-20642D01*
X23626Y-20642D01*
X23611Y-20654D01*
X23603Y-20665D01*
X23596Y-20688D01*
X23596Y-20745D01*
X23603Y-20768D01*
X23611Y-20780D01*
X23626Y-20791D01*
X23656Y-20791D01*
X23671Y-20780D01*
X23678Y-20768D01*
X23686Y-20745D01*
X27198Y-23364D02*
X27146Y-23249D01*
X27108Y-23364D02*
X27108Y-23123D01*
X27168Y-23123D01*
X27183Y-23135D01*
X27191Y-23146D01*
X27198Y-23169D01*
X27198Y-23203D01*
X27191Y-23226D01*
X27183Y-23238D01*
X27168Y-23249D01*
X27108Y-23249D01*
X27288Y-23226D02*
X27273Y-23215D01*
X27265Y-23203D01*
X27258Y-23180D01*
X27258Y-23169D01*
X27265Y-23146D01*
X27273Y-23135D01*
X27288Y-23123D01*
X27318Y-23123D01*
X27333Y-23135D01*
X27340Y-23146D01*
X27348Y-23169D01*
X27348Y-23180D01*
X27340Y-23203D01*
X27333Y-23215D01*
X27318Y-23226D01*
X27288Y-23226D01*
X27273Y-23238D01*
X27265Y-23249D01*
X27258Y-23272D01*
X27258Y-23318D01*
X27265Y-23341D01*
X27273Y-23353D01*
X27288Y-23364D01*
X27318Y-23364D01*
X27333Y-23353D01*
X27340Y-23341D01*
X27348Y-23318D01*
X27348Y-23272D01*
X27340Y-23249D01*
X27333Y-23238D01*
X27318Y-23226D01*
X25938Y-24624D02*
X25886Y-24509D01*
X25848Y-24624D02*
X25848Y-24383D01*
X25908Y-24383D01*
X25923Y-24395D01*
X25931Y-24406D01*
X25938Y-24429D01*
X25938Y-24463D01*
X25931Y-24486D01*
X25923Y-24498D01*
X25908Y-24509D01*
X25848Y-24509D01*
X25990Y-24383D02*
X26095Y-24383D01*
X26028Y-24624D01*
X25938Y-27577D02*
X25886Y-27462D01*
X25848Y-27577D02*
X25848Y-27336D01*
X25908Y-27336D01*
X25923Y-27348D01*
X25931Y-27359D01*
X25938Y-27382D01*
X25938Y-27416D01*
X25931Y-27439D01*
X25923Y-27451D01*
X25908Y-27462D01*
X25848Y-27462D01*
X26073Y-27336D02*
X26043Y-27336D01*
X26028Y-27348D01*
X26020Y-27359D01*
X26005Y-27393D01*
X25998Y-27439D01*
X25998Y-27531D01*
X26005Y-27554D01*
X26013Y-27566D01*
X26028Y-27577D01*
X26058Y-27577D01*
X26073Y-27566D01*
X26080Y-27554D01*
X26088Y-27531D01*
X26088Y-27474D01*
X26080Y-27451D01*
X26073Y-27439D01*
X26058Y-27428D01*
X26028Y-27428D01*
X26013Y-27439D01*
X26005Y-27451D01*
X25998Y-27474D01*
X23128Y-22718D02*
X23013Y-22770D01*
X23128Y-22808D02*
X22887Y-22808D01*
X22887Y-22748D01*
X22899Y-22733D01*
X22910Y-22725D01*
X22933Y-22718D01*
X22967Y-22718D01*
X22990Y-22725D01*
X23002Y-22733D01*
X23013Y-22748D01*
X23013Y-22808D01*
X23128Y-22568D02*
X23128Y-22658D01*
X23128Y-22613D02*
X22887Y-22613D01*
X22921Y-22628D01*
X22944Y-22643D01*
X22956Y-22658D01*
X22887Y-22471D02*
X22887Y-22456D01*
X22899Y-22441D01*
X22910Y-22433D01*
X22933Y-22426D01*
X22979Y-22418D01*
X23036Y-22418D01*
X23082Y-22426D01*
X23105Y-22433D01*
X23117Y-22441D01*
X23128Y-22456D01*
X23128Y-22471D01*
X23117Y-22486D01*
X23105Y-22493D01*
X23082Y-22501D01*
X23036Y-22508D01*
X22979Y-22508D01*
X22933Y-22501D01*
X22910Y-22493D01*
X22899Y-22486D01*
X22887Y-22471D01*
X26568Y-28561D02*
X26516Y-28446D01*
X26478Y-28561D02*
X26478Y-28320D01*
X26538Y-28320D01*
X26553Y-28332D01*
X26561Y-28343D01*
X26568Y-28366D01*
X26568Y-28400D01*
X26561Y-28423D01*
X26553Y-28435D01*
X26538Y-28446D01*
X26478Y-28446D01*
X26703Y-28400D02*
X26703Y-28561D01*
X26665Y-28309D02*
X26628Y-28481D01*
X26725Y-28481D01*
X26568Y-25333D02*
X26516Y-25218D01*
X26478Y-25333D02*
X26478Y-25092D01*
X26538Y-25092D01*
X26553Y-25104D01*
X26561Y-25115D01*
X26568Y-25138D01*
X26568Y-25172D01*
X26561Y-25195D01*
X26553Y-25207D01*
X26538Y-25218D01*
X26478Y-25218D01*
X26620Y-25092D02*
X26718Y-25092D01*
X26665Y-25184D01*
X26688Y-25184D01*
X26703Y-25195D01*
X26710Y-25207D01*
X26718Y-25230D01*
X26718Y-25287D01*
X26710Y-25310D01*
X26703Y-25322D01*
X26688Y-25333D01*
X26643Y-25333D01*
X26628Y-25322D01*
X26620Y-25310D01*
X27080Y-20727D02*
X27028Y-20612D01*
X26990Y-20727D02*
X26990Y-20486D01*
X27050Y-20486D01*
X27065Y-20498D01*
X27073Y-20509D01*
X27080Y-20532D01*
X27080Y-20566D01*
X27073Y-20589D01*
X27065Y-20601D01*
X27050Y-20612D01*
X26990Y-20612D01*
X27140Y-20509D02*
X27147Y-20498D01*
X27162Y-20486D01*
X27200Y-20486D01*
X27215Y-20498D01*
X27222Y-20509D01*
X27230Y-20532D01*
X27230Y-20555D01*
X27222Y-20589D01*
X27132Y-20727D01*
X27230Y-20727D01*
X27296Y-30211D02*
X27244Y-30096D01*
X27206Y-30211D02*
X27206Y-29970D01*
X27266Y-29970D01*
X27281Y-29982D01*
X27289Y-29993D01*
X27296Y-30016D01*
X27296Y-30050D01*
X27289Y-30073D01*
X27281Y-30085D01*
X27266Y-30096D01*
X27206Y-30096D01*
X27446Y-30211D02*
X27356Y-30211D01*
X27401Y-30211D02*
X27401Y-29970D01*
X27386Y-30004D01*
X27371Y-30027D01*
X27356Y-30039D01*
X27460Y-26219D02*
X27472Y-26226D01*
X27483Y-26249D01*
X27483Y-26264D01*
X27472Y-26286D01*
X27449Y-26301D01*
X27426Y-26309D01*
X27380Y-26316D01*
X27345Y-26316D01*
X27299Y-26309D01*
X27276Y-26301D01*
X27254Y-26286D01*
X27242Y-26264D01*
X27242Y-26249D01*
X27254Y-26226D01*
X27265Y-26219D01*
X27483Y-26069D02*
X27483Y-26159D01*
X27483Y-26114D02*
X27242Y-26114D01*
X27276Y-26129D01*
X27299Y-26144D01*
X27311Y-26159D01*
X27238Y-24112D02*
X27186Y-23997D01*
X27148Y-24112D02*
X27148Y-23871D01*
X27208Y-23871D01*
X27223Y-23883D01*
X27231Y-23894D01*
X27238Y-23917D01*
X27238Y-23951D01*
X27231Y-23974D01*
X27223Y-23986D01*
X27208Y-23997D01*
X27148Y-23997D01*
X27380Y-23871D02*
X27305Y-23871D01*
X27298Y-23986D01*
X27305Y-23974D01*
X27320Y-23963D01*
X27358Y-23963D01*
X27373Y-23974D01*
X27380Y-23986D01*
X27388Y-24009D01*
X27388Y-24066D01*
X27380Y-24089D01*
X27373Y-24101D01*
X27358Y-24112D01*
X27320Y-24112D01*
X27305Y-24101D01*
X27298Y-24089D01*
X24756Y-20860D02*
X24749Y-20872D01*
X24726Y-20883D01*
X24711Y-20883D01*
X24689Y-20872D01*
X24674Y-20849D01*
X24666Y-20826D01*
X24659Y-20780D01*
X24659Y-20745D01*
X24666Y-20699D01*
X24674Y-20676D01*
X24689Y-20654D01*
X24711Y-20642D01*
X24726Y-20642D01*
X24749Y-20654D01*
X24756Y-20665D01*
X24816Y-20665D02*
X24823Y-20654D01*
X24838Y-20642D01*
X24876Y-20642D01*
X24891Y-20654D01*
X24898Y-20665D01*
X24906Y-20688D01*
X24906Y-20711D01*
X24898Y-20745D01*
X24808Y-20883D01*
X24906Y-20883D01*
G54D12*
X27134Y-21973D02*
X27384Y-21807D01*
X27134Y-21807D02*
X27384Y-21973D01*
X27384Y-21581D02*
X27384Y-21723D01*
X27384Y-21652D02*
X27134Y-21652D01*
X27170Y-21676D01*
X27194Y-21700D01*
X27206Y-21723D01*
G54D10*
X24224Y-22665D02*
X24588Y-22665D01*
X24631Y-22643D01*
X24653Y-22622D01*
X24674Y-22579D01*
X24674Y-22493D01*
X24653Y-22451D01*
X24631Y-22429D01*
X24588Y-22408D01*
X24224Y-22408D01*
X24674Y-21958D02*
X24674Y-22215D01*
X24674Y-22087D02*
X24224Y-22087D01*
X24288Y-22130D01*
X24331Y-22172D01*
X24353Y-22215D01*
X25384Y-23796D02*
X25034Y-23796D01*
X25034Y-23712D01*
X25050Y-23662D01*
X25084Y-23629D01*
X25117Y-23612D01*
X25184Y-23596D01*
X25234Y-23596D01*
X25300Y-23612D01*
X25334Y-23629D01*
X25367Y-23662D01*
X25384Y-23712D01*
X25384Y-23796D01*
X25367Y-23462D02*
X25384Y-23412D01*
X25384Y-23329D01*
X25367Y-23296D01*
X25350Y-23279D01*
X25317Y-23262D01*
X25284Y-23262D01*
X25250Y-23279D01*
X25234Y-23296D01*
X25217Y-23329D01*
X25200Y-23396D01*
X25184Y-23429D01*
X25167Y-23446D01*
X25134Y-23462D01*
X25100Y-23462D01*
X25067Y-23446D01*
X25050Y-23429D01*
X25034Y-23396D01*
X25034Y-23312D01*
X25050Y-23262D01*
X25384Y-22929D02*
X25384Y-23129D01*
X25384Y-23029D02*
X25034Y-23029D01*
X25084Y-23063D01*
X25117Y-23096D01*
X25134Y-23129D01*
X25034Y-22813D02*
X25034Y-22596D01*
X25167Y-22713D01*
X25167Y-22663D01*
X25184Y-22630D01*
X25200Y-22613D01*
X25234Y-22596D01*
X25317Y-22596D01*
X25350Y-22613D01*
X25367Y-22630D01*
X25384Y-22663D01*
X25384Y-22763D01*
X25367Y-22796D01*
X25350Y-22813D01*
X25034Y-22480D02*
X25034Y-22263D01*
X25167Y-22380D01*
X25167Y-22330D01*
X25184Y-22297D01*
X25200Y-22280D01*
X25234Y-22263D01*
X25317Y-22263D01*
X25350Y-22280D01*
X25367Y-22297D01*
X25384Y-22330D01*
X25384Y-22430D01*
X25367Y-22463D01*
X25350Y-22480D01*
X25184Y-22064D02*
X25167Y-22097D01*
X25150Y-22114D01*
X25117Y-22130D01*
X25100Y-22130D01*
X25067Y-22114D01*
X25050Y-22097D01*
X25034Y-22064D01*
X25034Y-21997D01*
X25050Y-21964D01*
X25067Y-21947D01*
X25100Y-21930D01*
X25117Y-21930D01*
X25150Y-21947D01*
X25167Y-21964D01*
X25184Y-21997D01*
X25184Y-22064D01*
X25200Y-22097D01*
X25217Y-22114D01*
X25250Y-22130D01*
X25317Y-22130D01*
X25350Y-22114D01*
X25367Y-22097D01*
X25384Y-22064D01*
X25384Y-21997D01*
X25367Y-21964D01*
X25350Y-21947D01*
X25317Y-21930D01*
X25250Y-21930D01*
X25217Y-21947D01*
X25200Y-21964D01*
X25184Y-21997D01*
X25250Y-21781D02*
X25250Y-21514D01*
X25034Y-21381D02*
X25034Y-21164D01*
X25167Y-21281D01*
X25167Y-21231D01*
X25184Y-21198D01*
X25200Y-21181D01*
X25234Y-21164D01*
X25317Y-21164D01*
X25350Y-21181D01*
X25367Y-21198D01*
X25384Y-21231D01*
X25384Y-21331D01*
X25367Y-21364D01*
X25350Y-21381D01*
X25034Y-21048D02*
X25034Y-20831D01*
X25167Y-20948D01*
X25167Y-20898D01*
X25184Y-20865D01*
X25200Y-20848D01*
X25234Y-20831D01*
X25317Y-20831D01*
X25350Y-20848D01*
X25367Y-20865D01*
X25384Y-20898D01*
X25384Y-20998D01*
X25367Y-21031D01*
X25350Y-21048D01*
M02*
