M48
;DRILL file {PCBnew (2010-05-05 BZR 2356)-stable} date 4/07/2011 8:20:48 p.m.
;FORMAT={-.-/ absolute / inch / decimal}
R,T
VER,1
FMAT,2
INCH,TZ
TCST,OFF
ICI,OFF
ATC,ON
T1C0.025
T2C0.031
T3C0.059
%
M47
G05
M72
T1
X2.012Y-2.866
X2.012Y-3.012
X2.012Y-3.150
X2.098Y-3.149
X2.256Y-3.149
X2.264Y-2.024
X2.311Y-2.547
X2.370Y-2.024
X2.405Y-2.464
X2.405Y-2.634
X2.504Y-2.213
X2.571Y-2.075
X2.626Y-2.063
X2.933Y-2.587
X2.941Y-2.846
X2.964Y-3.149
X2.976Y-2.024
X2.976Y-2.114
X3.126Y-3.149
X3.142Y-2.024
X3.543Y-2.063
X3.567Y-3.149
X3.799Y-2.401
X3.799Y-2.602
X3.799Y-2.819
T2
X2.110Y-2.114
X2.110Y-2.193
X2.110Y-2.272
X2.110Y-2.350
X2.110Y-2.429
X2.110Y-2.508
X2.110Y-2.586
X2.110Y-2.665
T3
X3.803Y-2.149
X3.803Y-3.102
T0
M30
