G04 (created by PCBNEW-RS274X (2011-07-08 BZR 3044)-stable) date 03/08/2011 00:28:50*
G01*
G70*
G90*
%MOIN*%
G04 Gerber Fmt 3.4, Leading zero omitted, Abs format*
%FSLAX34Y34*%
G04 APERTURE LIST*
%ADD10C,0.006000*%
%ADD11R,0.035000X0.055000*%
%ADD12R,0.080000X0.060000*%
%ADD13R,0.025000X0.031500*%
%ADD14R,0.031500X0.025000*%
%ADD15R,0.060000X0.080000*%
%ADD16C,0.088600*%
%ADD17R,0.036000X0.036000*%
%ADD18R,0.040000X0.010000*%
%ADD19R,0.010000X0.040000*%
%ADD20R,0.010000X0.080000*%
%ADD21R,0.100000X0.130000*%
%ADD22R,0.027600X0.047200*%
%ADD23R,0.027600X0.078700*%
%ADD24R,0.086600X0.110300*%
%ADD25R,0.020000X0.045000*%
%ADD26R,0.050000X0.100000*%
%ADD27R,0.039400X0.039400*%
%ADD28R,0.047200X0.027600*%
%ADD29R,0.078700X0.027600*%
%ADD30R,0.110300X0.086600*%
%ADD31C,0.059100*%
%ADD32R,0.031500X0.023600*%
G04 APERTURE END LIST*
G54D10*
G54D11*
X34342Y-27756D03*
X33592Y-27756D03*
G54D12*
X31197Y-15590D03*
X31197Y-16890D03*
X35902Y-15472D03*
X35902Y-16772D03*
G54D11*
X38505Y-19065D03*
X37755Y-19065D03*
G54D13*
X36510Y-27450D03*
X35910Y-27450D03*
X36510Y-26800D03*
X35910Y-26800D03*
X36510Y-24832D03*
X35910Y-24832D03*
X36510Y-23523D03*
X35910Y-23523D03*
G54D14*
X35039Y-15713D03*
X35039Y-16313D03*
G54D13*
X36510Y-26151D03*
X35910Y-26151D03*
X36510Y-25491D03*
X35910Y-25491D03*
X36510Y-24173D03*
X35910Y-24173D03*
X36509Y-22815D03*
X35909Y-22815D03*
X50133Y-27392D03*
X49533Y-27392D03*
X51897Y-27539D03*
X52497Y-27539D03*
G54D14*
X32293Y-15753D03*
X32293Y-16353D03*
X34951Y-27476D03*
X34951Y-28076D03*
G54D13*
X49533Y-27933D03*
X50133Y-27933D03*
X38518Y-28090D03*
X37918Y-28090D03*
X35644Y-17953D03*
X35044Y-17953D03*
X15064Y-19144D03*
X15664Y-19144D03*
X59228Y-22740D03*
X59828Y-22740D03*
G54D14*
X37972Y-32231D03*
X37972Y-32831D03*
G54D13*
X51964Y-29085D03*
X52564Y-29085D03*
X14956Y-16535D03*
X15556Y-16535D03*
X53529Y-17795D03*
X54129Y-17795D03*
G54D14*
X38602Y-32231D03*
X38602Y-32831D03*
X39224Y-32231D03*
X39224Y-32831D03*
X46033Y-16629D03*
X46033Y-17229D03*
X44281Y-16619D03*
X44281Y-17219D03*
X43021Y-16620D03*
X43021Y-17220D03*
X41918Y-16620D03*
X41918Y-17220D03*
X43572Y-16620D03*
X43572Y-17220D03*
X42470Y-16620D03*
X42470Y-17220D03*
X41367Y-16620D03*
X41367Y-17220D03*
X45413Y-17219D03*
X45413Y-16619D03*
X44852Y-16629D03*
X44852Y-17229D03*
X35508Y-21294D03*
X35508Y-21894D03*
G54D13*
X37918Y-22224D03*
X38518Y-22224D03*
X38508Y-27450D03*
X37908Y-27450D03*
X38518Y-26151D03*
X37918Y-26151D03*
X38518Y-24832D03*
X37918Y-24832D03*
X38518Y-23523D03*
X37918Y-23523D03*
G54D14*
X38594Y-30743D03*
X38594Y-31343D03*
G54D13*
X38518Y-26800D03*
X37918Y-26800D03*
X38519Y-25491D03*
X37919Y-25491D03*
X38518Y-24173D03*
X37918Y-24173D03*
X38518Y-22873D03*
X37918Y-22873D03*
X57516Y-22736D03*
X58131Y-22736D03*
G54D14*
X37969Y-30747D03*
X37969Y-31347D03*
X39217Y-30747D03*
X39217Y-31347D03*
G54D13*
X50517Y-28484D03*
X51117Y-28484D03*
X50527Y-29085D03*
X51127Y-29085D03*
X52919Y-16466D03*
X53519Y-16466D03*
G54D14*
X50728Y-16796D03*
X50728Y-16196D03*
X49321Y-15576D03*
X49321Y-16176D03*
X40816Y-15478D03*
X40816Y-16078D03*
X40816Y-17220D03*
X40816Y-16620D03*
X40226Y-17219D03*
X40226Y-16619D03*
X40217Y-15487D03*
X40217Y-16087D03*
X40216Y-19661D03*
X40216Y-20261D03*
X41476Y-19661D03*
X41476Y-20261D03*
X42736Y-19661D03*
X42736Y-20261D03*
X43996Y-19661D03*
X43996Y-20261D03*
X40216Y-18146D03*
X40216Y-18746D03*
X41476Y-18145D03*
X41476Y-18745D03*
X42736Y-18145D03*
X42736Y-18745D03*
X43996Y-18145D03*
X43996Y-18745D03*
X40846Y-19661D03*
X40846Y-20261D03*
X42106Y-19661D03*
X42106Y-20261D03*
X43366Y-19661D03*
X43366Y-20261D03*
X44626Y-19661D03*
X44626Y-20261D03*
X40846Y-18145D03*
X40846Y-18745D03*
X42106Y-18145D03*
X42106Y-18745D03*
X43366Y-18145D03*
X43366Y-18745D03*
X44626Y-18145D03*
X44626Y-18745D03*
X47145Y-19661D03*
X47145Y-20261D03*
X45885Y-19661D03*
X45885Y-20261D03*
X47776Y-19661D03*
X47776Y-20261D03*
X46515Y-19661D03*
X46515Y-20261D03*
X45256Y-19661D03*
X45256Y-20261D03*
X47775Y-18145D03*
X47775Y-18745D03*
X46515Y-18145D03*
X46515Y-18745D03*
X45256Y-18145D03*
X45256Y-18745D03*
X47145Y-18145D03*
X47145Y-18745D03*
X45885Y-18145D03*
X45885Y-18745D03*
G54D13*
X52338Y-17805D03*
X52938Y-17805D03*
G54D15*
X52527Y-18701D03*
X53827Y-18701D03*
G54D13*
X14966Y-15965D03*
X15566Y-15965D03*
X15615Y-18228D03*
X15015Y-18228D03*
X67623Y-30039D03*
X67023Y-30039D03*
X68745Y-31742D03*
X69345Y-31742D03*
G54D14*
X66101Y-31629D03*
X66101Y-32229D03*
G54D13*
X66747Y-32756D03*
X67347Y-32756D03*
X68755Y-32323D03*
X69355Y-32323D03*
G54D16*
X53807Y-27764D03*
G54D13*
X68755Y-32874D03*
X69355Y-32874D03*
G54D17*
X69336Y-30666D03*
X68636Y-30666D03*
X68986Y-29866D03*
X67396Y-31542D03*
X66696Y-31542D03*
X67046Y-30742D03*
X51500Y-16806D03*
X51500Y-16106D03*
X52300Y-16456D03*
G54D13*
X19997Y-28150D03*
X19397Y-28150D03*
X19405Y-28772D03*
X20005Y-28772D03*
G54D17*
X20812Y-28618D03*
X20812Y-27918D03*
X21612Y-28268D03*
G54D13*
X57298Y-18278D03*
X57898Y-18278D03*
X57294Y-18898D03*
X57894Y-18898D03*
X54591Y-15201D03*
X53991Y-15201D03*
X52574Y-28484D03*
X51974Y-28484D03*
G54D14*
X73750Y-18145D03*
X73750Y-18745D03*
G54D18*
X41527Y-27134D03*
X41527Y-22414D03*
X41527Y-22614D03*
X41527Y-22804D03*
X41527Y-23004D03*
X41527Y-23204D03*
X41527Y-23394D03*
X41527Y-23594D03*
X41527Y-23794D03*
X41527Y-23984D03*
X41527Y-24184D03*
X41527Y-24384D03*
X41527Y-24584D03*
X41527Y-24774D03*
X41527Y-24974D03*
X41527Y-25174D03*
X41527Y-25364D03*
X41527Y-25564D03*
X41527Y-25764D03*
X41527Y-25954D03*
X41527Y-26154D03*
X41527Y-26354D03*
X41527Y-26544D03*
X41527Y-26744D03*
X41527Y-26944D03*
G54D19*
X42217Y-21724D03*
X46937Y-21724D03*
X46737Y-21724D03*
X46547Y-21724D03*
X46347Y-21724D03*
X46147Y-21724D03*
X45957Y-21724D03*
X45757Y-21724D03*
X45557Y-21724D03*
X45367Y-21724D03*
X45167Y-21724D03*
X44967Y-21724D03*
X44767Y-21724D03*
X44577Y-21724D03*
X44377Y-21724D03*
X44177Y-21724D03*
X43987Y-21724D03*
X43787Y-21724D03*
X43587Y-21724D03*
X43397Y-21724D03*
X43197Y-21724D03*
X42997Y-21724D03*
X42807Y-21724D03*
X42607Y-21724D03*
X42407Y-21724D03*
X42217Y-27824D03*
X42417Y-27824D03*
X42607Y-27824D03*
X42807Y-27824D03*
X43007Y-27824D03*
X43197Y-27824D03*
X43397Y-27824D03*
X43597Y-27824D03*
X43787Y-27824D03*
X43987Y-27824D03*
X44187Y-27824D03*
X44387Y-27824D03*
X44577Y-27824D03*
X44777Y-27824D03*
X44977Y-27824D03*
X45167Y-27824D03*
X45367Y-27824D03*
X45567Y-27824D03*
X45757Y-27824D03*
X45957Y-27824D03*
X46157Y-27824D03*
X46347Y-27824D03*
X46547Y-27824D03*
X46747Y-27824D03*
X46937Y-27824D03*
G54D18*
X47627Y-27134D03*
X47627Y-26934D03*
X47627Y-26744D03*
X47627Y-26544D03*
X47627Y-26344D03*
X47627Y-26154D03*
X47627Y-25954D03*
X47627Y-25754D03*
X47627Y-25564D03*
X47627Y-25364D03*
X47627Y-25164D03*
X47627Y-24964D03*
X47627Y-24774D03*
X47627Y-24574D03*
X47627Y-24374D03*
X47627Y-24184D03*
X47627Y-23984D03*
X47627Y-23784D03*
X47627Y-23594D03*
X47627Y-23394D03*
X47627Y-23194D03*
X47627Y-23004D03*
X47627Y-22804D03*
X47627Y-22604D03*
X47627Y-22414D03*
G54D20*
X43878Y-14548D03*
X44078Y-14548D03*
X44273Y-14548D03*
X44468Y-14548D03*
X44668Y-14548D03*
X44863Y-14548D03*
X45058Y-14548D03*
X45258Y-14548D03*
X45453Y-14548D03*
X45648Y-14548D03*
X43681Y-14548D03*
X45848Y-14548D03*
X46043Y-14548D03*
X43484Y-14548D03*
X47618Y-14548D03*
X46238Y-14548D03*
X46438Y-14548D03*
X46633Y-14548D03*
X46828Y-14548D03*
X47028Y-14548D03*
X47223Y-14548D03*
X47418Y-14548D03*
X43287Y-14548D03*
X43091Y-14548D03*
X42894Y-14548D03*
X42697Y-14548D03*
X42500Y-14548D03*
X42303Y-14548D03*
X42106Y-14548D03*
X41909Y-14548D03*
G54D21*
X48588Y-13668D03*
X40958Y-13668D03*
G54D22*
X33078Y-16854D03*
G54D23*
X33669Y-16697D03*
G54D22*
X34260Y-16854D03*
G54D24*
X33669Y-15752D03*
G54D22*
X33110Y-19537D03*
G54D23*
X33701Y-19380D03*
G54D22*
X34292Y-19537D03*
G54D24*
X33701Y-18435D03*
G54D16*
X49732Y-21909D03*
X51547Y-22205D03*
G54D13*
X16088Y-22972D03*
X16688Y-22972D03*
X16117Y-23750D03*
X16717Y-23750D03*
G54D14*
X72156Y-18125D03*
X72156Y-18725D03*
G54D13*
X16088Y-22175D03*
X16688Y-22175D03*
G54D14*
X72972Y-18135D03*
X72972Y-18735D03*
G54D13*
X17604Y-22943D03*
X18204Y-22943D03*
X17613Y-23750D03*
X18213Y-23750D03*
G54D14*
X72165Y-19611D03*
X72165Y-20211D03*
G54D13*
X17604Y-22175D03*
X18204Y-22175D03*
G54D14*
X72972Y-19611D03*
X72972Y-20211D03*
X73750Y-19611D03*
X73750Y-20211D03*
G54D13*
X40343Y-22154D03*
X39743Y-22154D03*
G54D14*
X15894Y-27483D03*
X15894Y-28083D03*
X15890Y-26247D03*
X15890Y-26847D03*
G54D25*
X16919Y-26296D03*
X16919Y-28396D03*
X17419Y-26296D03*
X17919Y-26296D03*
X18419Y-26296D03*
X17419Y-28396D03*
X17919Y-28396D03*
X18419Y-28396D03*
G54D15*
X16669Y-25358D03*
X17969Y-25358D03*
G54D13*
X16602Y-30488D03*
X17202Y-30488D03*
G54D14*
X15161Y-26885D03*
X15161Y-27485D03*
G54D26*
X16337Y-29571D03*
X17537Y-29571D03*
G54D14*
X24130Y-29859D03*
X24130Y-29259D03*
X20579Y-32540D03*
X20579Y-31940D03*
G54D13*
X23119Y-32551D03*
X22519Y-32551D03*
X21342Y-32551D03*
X21942Y-32551D03*
X25106Y-32020D03*
X25706Y-32020D03*
G54D14*
X24421Y-31976D03*
X24421Y-32576D03*
G54D17*
X24651Y-31240D03*
X24651Y-30540D03*
X25451Y-30890D03*
X22239Y-31189D03*
X22239Y-31889D03*
X21439Y-31539D03*
G54D12*
X20591Y-30839D03*
X20591Y-29539D03*
X19429Y-30839D03*
X19429Y-29539D03*
G54D13*
X36401Y-31421D03*
X37001Y-31421D03*
G54D14*
X37339Y-32831D03*
X37339Y-32231D03*
X36189Y-30583D03*
X36189Y-29983D03*
X35630Y-30580D03*
X35630Y-29980D03*
X34902Y-31320D03*
X34902Y-30720D03*
X34283Y-31312D03*
X34283Y-30712D03*
X50039Y-16192D03*
X50039Y-16792D03*
G54D16*
X56618Y-31114D03*
X56689Y-32244D03*
G54D27*
X17205Y-32173D03*
X17205Y-32813D03*
X17205Y-31533D03*
G54D14*
X58571Y-17027D03*
X58571Y-17627D03*
G54D13*
X54366Y-21153D03*
X54966Y-21153D03*
X54362Y-22291D03*
X54962Y-22291D03*
X58232Y-26480D03*
X58832Y-26480D03*
X58221Y-27586D03*
X58821Y-27586D03*
X54378Y-20582D03*
X54978Y-20582D03*
X54362Y-21724D03*
X54962Y-21724D03*
X58228Y-25917D03*
X58828Y-25917D03*
X58225Y-27031D03*
X58825Y-27031D03*
G54D14*
X20146Y-17150D03*
X20146Y-16550D03*
X21756Y-17146D03*
X21756Y-16546D03*
G54D13*
X21658Y-26598D03*
X21058Y-26598D03*
G54D14*
X18563Y-17158D03*
X18563Y-16558D03*
X20921Y-17139D03*
X20921Y-16539D03*
G54D13*
X21658Y-20835D03*
X21058Y-20835D03*
G54D14*
X18559Y-15434D03*
X18559Y-14834D03*
X20921Y-15434D03*
X20921Y-14834D03*
G54D13*
X21650Y-20205D03*
X21050Y-20205D03*
X56054Y-20578D03*
X56654Y-20578D03*
X56051Y-21728D03*
X56651Y-21728D03*
X59921Y-25916D03*
X60521Y-25916D03*
X59924Y-27035D03*
X60524Y-27035D03*
G54D14*
X20142Y-15434D03*
X20142Y-14834D03*
X21752Y-15454D03*
X21752Y-14854D03*
G54D13*
X21639Y-25933D03*
X21039Y-25933D03*
X56051Y-21149D03*
X56651Y-21149D03*
X56051Y-22287D03*
X56651Y-22287D03*
X59924Y-26476D03*
X60524Y-26476D03*
X59909Y-27590D03*
X60509Y-27590D03*
G54D28*
X62539Y-17296D03*
G54D29*
X62382Y-16705D03*
G54D28*
X62539Y-16114D03*
G54D30*
X61437Y-16705D03*
G54D14*
X63264Y-16107D03*
X63264Y-15507D03*
G54D13*
X63231Y-16665D03*
X63831Y-16665D03*
X58995Y-16272D03*
X59595Y-16272D03*
G54D17*
X59352Y-17673D03*
X59352Y-16973D03*
X60152Y-17323D03*
G54D27*
X49827Y-19980D03*
X49187Y-19980D03*
X50467Y-19980D03*
G54D13*
X65798Y-14969D03*
X66398Y-14969D03*
X63271Y-14988D03*
X63871Y-14988D03*
G54D31*
X49929Y-23933D03*
X50835Y-23937D03*
G54D14*
X43323Y-29928D03*
X43323Y-30528D03*
G54D13*
X41875Y-29260D03*
X41275Y-29260D03*
G54D14*
X41929Y-29917D03*
X41929Y-30517D03*
X27732Y-30304D03*
X27732Y-29704D03*
G54D13*
X69186Y-21894D03*
X68586Y-21894D03*
X28831Y-28598D03*
X28231Y-28598D03*
X68753Y-22780D03*
X68153Y-22780D03*
X67346Y-32205D03*
X66746Y-32205D03*
X58339Y-16276D03*
X57739Y-16276D03*
G54D32*
X42650Y-29893D03*
X42650Y-30563D03*
X41236Y-29893D03*
X41236Y-30563D03*
G54D14*
X14421Y-26885D03*
X14421Y-27485D03*
X22524Y-30367D03*
X22524Y-29767D03*
G54D13*
X32798Y-32295D03*
X33398Y-32295D03*
G54D17*
X32678Y-30887D03*
X33378Y-30887D03*
X33028Y-31687D03*
G54D13*
X34854Y-28874D03*
X35454Y-28874D03*
M02*
