G04 (created by PCBNEW-RS274X (2012-01-19 BZR 3256)-stable) date Fri 23 Nov 2012 05:25:31 PM NZDT*
G01*
G70*
G90*
%MOIN*%
G04 Gerber Fmt 3.4, Leading zero omitted, Abs format*
%FSLAX34Y34*%
G04 APERTURE LIST*
%ADD10C,0.020000*%
%ADD11C,0.015000*%
%ADD12C,0.005000*%
%ADD13C,0.004300*%
G04 APERTURE END LIST*
G54D10*
G54D11*
X29220Y-15571D02*
X29224Y-15575D01*
X60268Y-15571D02*
X29220Y-15571D01*
X60268Y-30374D02*
X60268Y-15571D01*
X29228Y-30374D02*
X60268Y-30374D01*
X29228Y-15543D02*
X29228Y-30374D01*
G54D12*
X66536Y-27244D02*
X69606Y-27244D01*
X69606Y-24882D02*
X66536Y-24882D01*
X69606Y-24882D02*
X69606Y-27244D01*
X66536Y-27244D02*
X66536Y-24882D01*
X69071Y-26063D02*
X69051Y-26257D01*
X68995Y-26444D01*
X68903Y-26616D01*
X68780Y-26767D01*
X68630Y-26892D01*
X68458Y-26984D01*
X68272Y-27042D01*
X68077Y-27062D01*
X67884Y-27045D01*
X67697Y-26990D01*
X67524Y-26899D01*
X67372Y-26777D01*
X67246Y-26627D01*
X67152Y-26456D01*
X67093Y-26270D01*
X67072Y-26076D01*
X67088Y-25883D01*
X67142Y-25695D01*
X67231Y-25522D01*
X67352Y-25369D01*
X67501Y-25242D01*
X67671Y-25147D01*
X67857Y-25087D01*
X68051Y-25064D01*
X68244Y-25079D01*
X68432Y-25131D01*
X68606Y-25219D01*
X68760Y-25339D01*
X68888Y-25487D01*
X68984Y-25657D01*
X69046Y-25842D01*
X69070Y-26036D01*
X69071Y-26063D01*
X73149Y-21299D02*
X70079Y-21299D01*
X70079Y-23661D02*
X73149Y-23661D01*
X70079Y-23661D02*
X70079Y-21299D01*
X73149Y-21299D02*
X73149Y-23661D01*
X72614Y-22480D02*
X72594Y-22674D01*
X72538Y-22861D01*
X72446Y-23033D01*
X72323Y-23184D01*
X72173Y-23309D01*
X72001Y-23401D01*
X71815Y-23459D01*
X71620Y-23479D01*
X71427Y-23462D01*
X71240Y-23407D01*
X71067Y-23316D01*
X70915Y-23194D01*
X70789Y-23044D01*
X70695Y-22873D01*
X70636Y-22687D01*
X70615Y-22493D01*
X70631Y-22300D01*
X70685Y-22112D01*
X70774Y-21939D01*
X70895Y-21786D01*
X71044Y-21659D01*
X71214Y-21564D01*
X71400Y-21504D01*
X71594Y-21481D01*
X71787Y-21496D01*
X71975Y-21548D01*
X72149Y-21636D01*
X72303Y-21756D01*
X72431Y-21904D01*
X72527Y-22074D01*
X72589Y-22259D01*
X72613Y-22453D01*
X72614Y-22480D01*
X19843Y-27441D02*
X22913Y-27441D01*
X22913Y-25079D02*
X19843Y-25079D01*
X22913Y-25079D02*
X22913Y-27441D01*
X19843Y-27441D02*
X19843Y-25079D01*
X22378Y-26260D02*
X22358Y-26454D01*
X22302Y-26641D01*
X22210Y-26813D01*
X22087Y-26964D01*
X21937Y-27089D01*
X21765Y-27181D01*
X21579Y-27239D01*
X21384Y-27259D01*
X21191Y-27242D01*
X21004Y-27187D01*
X20831Y-27096D01*
X20679Y-26974D01*
X20553Y-26824D01*
X20459Y-26653D01*
X20400Y-26467D01*
X20379Y-26273D01*
X20395Y-26080D01*
X20449Y-25892D01*
X20538Y-25719D01*
X20659Y-25566D01*
X20808Y-25439D01*
X20978Y-25344D01*
X21164Y-25284D01*
X21358Y-25261D01*
X21551Y-25276D01*
X21739Y-25328D01*
X21913Y-25416D01*
X22067Y-25536D01*
X22195Y-25684D01*
X22291Y-25854D01*
X22353Y-26039D01*
X22377Y-26233D01*
X22378Y-26260D01*
X19843Y-21653D02*
X22913Y-21653D01*
X22913Y-19291D02*
X19843Y-19291D01*
X22913Y-19291D02*
X22913Y-21653D01*
X19843Y-21653D02*
X19843Y-19291D01*
X22378Y-20472D02*
X22358Y-20666D01*
X22302Y-20853D01*
X22210Y-21025D01*
X22087Y-21176D01*
X21937Y-21301D01*
X21765Y-21393D01*
X21579Y-21451D01*
X21384Y-21471D01*
X21191Y-21454D01*
X21004Y-21399D01*
X20831Y-21308D01*
X20679Y-21186D01*
X20553Y-21036D01*
X20459Y-20865D01*
X20400Y-20679D01*
X20379Y-20485D01*
X20395Y-20292D01*
X20449Y-20104D01*
X20538Y-19931D01*
X20659Y-19778D01*
X20808Y-19651D01*
X20978Y-19556D01*
X21164Y-19496D01*
X21358Y-19473D01*
X21551Y-19488D01*
X21739Y-19540D01*
X21913Y-19628D01*
X22067Y-19748D01*
X22195Y-19896D01*
X22291Y-20066D01*
X22353Y-20251D01*
X22377Y-20445D01*
X22378Y-20472D01*
X69606Y-17795D02*
X66536Y-17795D01*
X66536Y-20157D02*
X69606Y-20157D01*
X66536Y-20157D02*
X66536Y-17795D01*
X69606Y-17795D02*
X69606Y-20157D01*
X69071Y-18976D02*
X69051Y-19170D01*
X68995Y-19357D01*
X68903Y-19529D01*
X68780Y-19680D01*
X68630Y-19805D01*
X68458Y-19897D01*
X68272Y-19955D01*
X68077Y-19975D01*
X67884Y-19958D01*
X67697Y-19903D01*
X67524Y-19812D01*
X67372Y-19690D01*
X67246Y-19540D01*
X67152Y-19369D01*
X67093Y-19183D01*
X67072Y-18989D01*
X67088Y-18796D01*
X67142Y-18608D01*
X67231Y-18435D01*
X67352Y-18282D01*
X67501Y-18155D01*
X67671Y-18060D01*
X67857Y-18000D01*
X68051Y-17977D01*
X68244Y-17992D01*
X68432Y-18044D01*
X68606Y-18132D01*
X68760Y-18252D01*
X68888Y-18400D01*
X68984Y-18570D01*
X69046Y-18755D01*
X69070Y-18949D01*
X69071Y-18976D01*
X66063Y-21299D02*
X62993Y-21299D01*
X62993Y-23661D02*
X66063Y-23661D01*
X62993Y-23661D02*
X62993Y-21299D01*
X66063Y-21299D02*
X66063Y-23661D01*
X65528Y-22480D02*
X65508Y-22674D01*
X65452Y-22861D01*
X65360Y-23033D01*
X65237Y-23184D01*
X65087Y-23309D01*
X64915Y-23401D01*
X64729Y-23459D01*
X64534Y-23479D01*
X64341Y-23462D01*
X64154Y-23407D01*
X63981Y-23316D01*
X63829Y-23194D01*
X63703Y-23044D01*
X63609Y-22873D01*
X63550Y-22687D01*
X63529Y-22493D01*
X63545Y-22300D01*
X63599Y-22112D01*
X63688Y-21939D01*
X63809Y-21786D01*
X63958Y-21659D01*
X64128Y-21564D01*
X64314Y-21504D01*
X64508Y-21481D01*
X64701Y-21496D01*
X64889Y-21548D01*
X65063Y-21636D01*
X65217Y-21756D01*
X65345Y-21904D01*
X65441Y-22074D01*
X65503Y-22259D01*
X65527Y-22453D01*
X65528Y-22480D01*
G54D13*
X67089Y-24703D02*
X67058Y-24713D01*
X67006Y-24713D01*
X66985Y-24703D01*
X66975Y-24693D01*
X66965Y-24672D01*
X66965Y-24651D01*
X66975Y-24631D01*
X66985Y-24620D01*
X67006Y-24610D01*
X67047Y-24600D01*
X67068Y-24589D01*
X67078Y-24579D01*
X67089Y-24558D01*
X67089Y-24538D01*
X67078Y-24517D01*
X67068Y-24507D01*
X67047Y-24496D01*
X66996Y-24496D01*
X66965Y-24507D01*
X66892Y-24496D02*
X66840Y-24713D01*
X66799Y-24558D01*
X66758Y-24713D01*
X66706Y-24496D01*
X66634Y-24517D02*
X66623Y-24507D01*
X66603Y-24496D01*
X66551Y-24496D01*
X66530Y-24507D01*
X66520Y-24517D01*
X66510Y-24538D01*
X66510Y-24558D01*
X66520Y-24589D01*
X66644Y-24713D01*
X66510Y-24713D01*
X73136Y-24026D02*
X73105Y-24036D01*
X73053Y-24036D01*
X73032Y-24026D01*
X73022Y-24016D01*
X73012Y-23995D01*
X73012Y-23974D01*
X73022Y-23954D01*
X73032Y-23943D01*
X73053Y-23933D01*
X73094Y-23923D01*
X73115Y-23912D01*
X73125Y-23902D01*
X73136Y-23881D01*
X73136Y-23861D01*
X73125Y-23840D01*
X73115Y-23830D01*
X73094Y-23819D01*
X73043Y-23819D01*
X73012Y-23830D01*
X72939Y-23819D02*
X72887Y-24036D01*
X72846Y-23881D01*
X72805Y-24036D01*
X72753Y-23819D01*
X72577Y-23819D02*
X72619Y-23819D01*
X72639Y-23830D01*
X72650Y-23840D01*
X72670Y-23871D01*
X72681Y-23912D01*
X72681Y-23995D01*
X72670Y-24016D01*
X72660Y-24026D01*
X72639Y-24036D01*
X72598Y-24036D01*
X72577Y-24026D01*
X72567Y-24016D01*
X72557Y-23995D01*
X72557Y-23943D01*
X72567Y-23923D01*
X72577Y-23912D01*
X72598Y-23902D01*
X72639Y-23902D01*
X72660Y-23912D01*
X72670Y-23923D01*
X72681Y-23943D01*
X22971Y-27747D02*
X22940Y-27757D01*
X22888Y-27757D01*
X22867Y-27747D01*
X22857Y-27737D01*
X22847Y-27716D01*
X22847Y-27695D01*
X22857Y-27675D01*
X22867Y-27664D01*
X22888Y-27654D01*
X22929Y-27644D01*
X22950Y-27633D01*
X22960Y-27623D01*
X22971Y-27602D01*
X22971Y-27582D01*
X22960Y-27561D01*
X22950Y-27551D01*
X22929Y-27540D01*
X22878Y-27540D01*
X22847Y-27551D01*
X22774Y-27540D02*
X22722Y-27757D01*
X22681Y-27602D01*
X22640Y-27757D01*
X22588Y-27540D01*
X22412Y-27613D02*
X22412Y-27757D01*
X22464Y-27530D02*
X22516Y-27685D01*
X22381Y-27685D01*
X22940Y-21978D02*
X22909Y-21988D01*
X22857Y-21988D01*
X22836Y-21978D01*
X22826Y-21968D01*
X22816Y-21947D01*
X22816Y-21926D01*
X22826Y-21906D01*
X22836Y-21895D01*
X22857Y-21885D01*
X22898Y-21875D01*
X22919Y-21864D01*
X22929Y-21854D01*
X22940Y-21833D01*
X22940Y-21813D01*
X22929Y-21792D01*
X22919Y-21782D01*
X22898Y-21771D01*
X22847Y-21771D01*
X22816Y-21782D01*
X22743Y-21771D02*
X22691Y-21988D01*
X22650Y-21833D01*
X22609Y-21988D01*
X22557Y-21771D01*
X22361Y-21988D02*
X22485Y-21988D01*
X22423Y-21988D02*
X22423Y-21771D01*
X22443Y-21802D01*
X22464Y-21823D01*
X22485Y-21833D01*
X69633Y-20506D02*
X69602Y-20516D01*
X69550Y-20516D01*
X69529Y-20506D01*
X69519Y-20496D01*
X69509Y-20475D01*
X69509Y-20454D01*
X69519Y-20434D01*
X69529Y-20423D01*
X69550Y-20413D01*
X69591Y-20403D01*
X69612Y-20392D01*
X69622Y-20382D01*
X69633Y-20361D01*
X69633Y-20341D01*
X69622Y-20320D01*
X69612Y-20310D01*
X69591Y-20299D01*
X69540Y-20299D01*
X69509Y-20310D01*
X69436Y-20299D02*
X69384Y-20516D01*
X69343Y-20361D01*
X69302Y-20516D01*
X69250Y-20299D01*
X69064Y-20299D02*
X69167Y-20299D01*
X69178Y-20403D01*
X69167Y-20392D01*
X69147Y-20382D01*
X69095Y-20382D01*
X69074Y-20392D01*
X69064Y-20403D01*
X69054Y-20423D01*
X69054Y-20475D01*
X69064Y-20496D01*
X69074Y-20506D01*
X69095Y-20516D01*
X69147Y-20516D01*
X69167Y-20506D01*
X69178Y-20496D01*
X66094Y-24006D02*
X66063Y-24016D01*
X66011Y-24016D01*
X65990Y-24006D01*
X65980Y-23996D01*
X65970Y-23975D01*
X65970Y-23954D01*
X65980Y-23934D01*
X65990Y-23923D01*
X66011Y-23913D01*
X66052Y-23903D01*
X66073Y-23892D01*
X66083Y-23882D01*
X66094Y-23861D01*
X66094Y-23841D01*
X66083Y-23820D01*
X66073Y-23810D01*
X66052Y-23799D01*
X66001Y-23799D01*
X65970Y-23810D01*
X65897Y-23799D02*
X65845Y-24016D01*
X65804Y-23861D01*
X65763Y-24016D01*
X65711Y-23799D01*
X65649Y-23799D02*
X65515Y-23799D01*
X65587Y-23882D01*
X65556Y-23882D01*
X65535Y-23892D01*
X65525Y-23903D01*
X65515Y-23923D01*
X65515Y-23975D01*
X65525Y-23996D01*
X65535Y-24006D01*
X65556Y-24016D01*
X65618Y-24016D01*
X65639Y-24006D01*
X65649Y-23996D01*
M02*
