G04 (created by PCBNEW-RS274X (2012-01-19 BZR 3256)-stable) date Wed 26 Sep 2012 01:17:41 PM NZST*
G01*
G70*
G90*
%MOIN*%
G04 Gerber Fmt 3.4, Leading zero omitted, Abs format*
%FSLAX34Y34*%
G04 APERTURE LIST*
%ADD10C,0.020000*%
%ADD11C,0.106600*%
%ADD12O,0.079100X0.138100*%
%ADD13R,0.079100X0.138100*%
%ADD14R,0.094800X0.086900*%
%ADD15O,0.098700X0.086900*%
%ADD16C,0.086900*%
%ADD17C,0.197200*%
%ADD18C,0.216900*%
%ADD19O,0.138100X0.079100*%
%ADD20R,0.138100X0.079100*%
%ADD21C,0.079100*%
%ADD22R,0.098700X0.098700*%
%ADD23C,0.098700*%
%ADD24R,0.086900X0.094800*%
%ADD25O,0.086900X0.098700*%
G04 APERTURE END LIST*
G54D10*
G54D11*
X66890Y-25276D03*
X66890Y-26850D03*
X69252Y-25276D03*
X69252Y-26850D03*
X72795Y-23267D03*
X72795Y-21693D03*
X70433Y-23267D03*
X70433Y-21693D03*
X20197Y-25473D03*
X20197Y-27047D03*
X22559Y-25473D03*
X22559Y-27047D03*
X20197Y-19685D03*
X20197Y-21259D03*
X22559Y-19685D03*
X22559Y-21259D03*
X69252Y-19763D03*
X69252Y-18189D03*
X66890Y-19763D03*
X66890Y-18189D03*
X65709Y-23267D03*
X65709Y-21693D03*
X63347Y-23267D03*
X63347Y-21693D03*
G54D12*
X20162Y-13260D03*
X19375Y-13260D03*
G54D13*
X18587Y-13260D03*
G54D12*
X20949Y-13260D03*
X21737Y-13260D03*
X22524Y-13260D03*
X23311Y-13260D03*
X24098Y-13260D03*
X24886Y-13260D03*
G54D14*
X75736Y-25671D03*
G54D15*
X74736Y-25671D03*
X75736Y-24671D03*
X74736Y-24671D03*
G54D16*
X75736Y-23671D03*
X74736Y-23671D03*
G54D15*
X75736Y-22671D03*
X74736Y-22671D03*
X75736Y-21671D03*
X74736Y-21671D03*
G54D14*
X74697Y-27553D03*
G54D15*
X75697Y-27553D03*
X74697Y-28553D03*
X75697Y-28553D03*
X74697Y-29553D03*
X75697Y-29553D03*
G54D17*
X62362Y-13780D03*
G54D18*
X76575Y-13425D03*
G54D17*
X61811Y-31969D03*
G54D18*
X74370Y-31654D03*
G54D17*
X27480Y-31969D03*
G54D18*
X15709Y-31535D03*
G54D17*
X21417Y-23425D03*
G54D18*
X13504Y-13425D03*
G54D17*
X27480Y-13780D03*
G54D12*
X51925Y-13216D03*
X51138Y-13216D03*
G54D13*
X50350Y-13216D03*
G54D12*
X52712Y-13216D03*
X53500Y-13216D03*
X54287Y-13216D03*
X69454Y-13331D03*
X68667Y-13331D03*
G54D13*
X67879Y-13331D03*
G54D12*
X70241Y-13331D03*
X71029Y-13331D03*
X71816Y-13331D03*
X72603Y-13331D03*
X73390Y-13331D03*
X74178Y-13331D03*
G54D19*
X76795Y-17055D03*
X76795Y-16268D03*
G54D20*
X76795Y-15480D03*
G54D19*
X76795Y-17842D03*
X76795Y-18630D03*
X76795Y-19417D03*
G54D12*
X31114Y-13520D03*
X30326Y-13520D03*
G54D13*
X29539Y-13520D03*
G54D12*
X31901Y-13520D03*
X32689Y-13520D03*
X33476Y-13520D03*
X34263Y-13520D03*
X35051Y-13520D03*
X35838Y-13520D03*
X36626Y-13520D03*
X37413Y-13520D03*
X38200Y-13520D03*
G54D19*
X13142Y-17504D03*
X13142Y-18291D03*
G54D20*
X13142Y-19079D03*
G54D19*
X13142Y-16717D03*
X13142Y-15929D03*
X14399Y-29654D03*
G54D20*
X14399Y-28866D03*
G54D19*
X71252Y-30611D03*
X71252Y-31398D03*
G54D20*
X71252Y-32186D03*
G54D19*
X64413Y-30626D03*
X64413Y-31413D03*
G54D20*
X64413Y-32201D03*
G54D12*
X72945Y-16882D03*
X73732Y-16882D03*
G54D13*
X74520Y-16882D03*
G54D12*
X72158Y-16882D03*
X53326Y-32201D03*
X54113Y-32201D03*
G54D13*
X54901Y-32201D03*
G54D12*
X52539Y-32201D03*
X51751Y-32201D03*
X50964Y-32201D03*
X50177Y-32201D03*
X49390Y-32201D03*
X56107Y-17912D03*
G54D13*
X55319Y-17912D03*
G54D21*
X50133Y-26035D03*
X52055Y-26035D03*
G54D12*
X64374Y-13721D03*
X65161Y-13721D03*
G54D13*
X65949Y-13721D03*
G54D19*
X14342Y-22945D03*
X14342Y-23732D03*
G54D20*
X14342Y-24520D03*
G54D19*
X14342Y-22158D03*
G54D12*
X40429Y-32177D03*
X39642Y-32177D03*
G54D13*
X38854Y-32177D03*
G54D22*
X26965Y-16150D03*
G54D23*
X28441Y-16150D03*
X29917Y-16150D03*
G54D24*
X34579Y-32358D03*
G54D25*
X33579Y-32358D03*
X32579Y-32358D03*
G54D12*
X58728Y-13236D03*
X57941Y-13236D03*
G54D13*
X57153Y-13236D03*
G54D12*
X59515Y-13236D03*
X60303Y-13236D03*
G54D24*
X42898Y-32433D03*
G54D25*
X42898Y-31433D03*
X43898Y-32433D03*
X43898Y-31433D03*
G54D16*
X44898Y-32433D03*
X44898Y-31433D03*
G54D25*
X45898Y-32433D03*
X45898Y-31433D03*
X46898Y-32433D03*
X46898Y-31433D03*
M02*
