M48
;DRILL file {Pcbnew (2012-01-19 BZR 3256)-stable} date Wed 26 Sep 2012 01:17:52 PM NZST
;FORMAT={-:-/ absolute / metric / decimal}
FMAT,2
METRIC,TZ
T1C0.399
T2C0.500
T3C0.701
T4C0.800
T5C1.001
T6C1.016
T7C1.100
T8C2.499
T9C3.000
%
G90
G05
M71
T1
X100.681Y-47.800
X102.131Y-47.790
X103.690Y-47.790
X105.260Y-47.770
X106.550Y-33.510
X106.970Y-47.790
X107.780Y-35.049
X108.590Y-47.770
X108.725Y-34.501
X109.825Y-34.651
X110.129Y-47.760
X110.876Y-34.775
X111.689Y-47.790
X111.900Y-35.151
X115.019Y-47.770
X116.510Y-47.749
X116.929Y-33.081
X117.150Y-38.801
X117.701Y-39.751
X118.039Y-33.619
X118.120Y-47.760
X118.176Y-40.851
X118.925Y-32.926
X119.731Y-47.831
X120.526Y-33.876
X121.026Y-34.925
X121.300Y-47.800
X121.476Y-33.076
T2
X36.449Y-41.951
X38.699Y-34.420
X38.999Y-53.650
X41.176Y-50.500
X41.450Y-40.724
X43.551Y-56.325
X43.599Y-58.349
X43.599Y-60.300
X44.889Y-70.561
X45.212Y-78.486
X45.380Y-80.361
X45.761Y-83.241
X47.140Y-40.670
X48.844Y-67.666
X49.050Y-46.850
X49.870Y-57.211
X50.980Y-62.690
X51.171Y-40.719
X51.181Y-45.301
X53.139Y-40.630
X55.260Y-40.630
X55.301Y-46.309
X55.621Y-74.120
X56.799Y-71.801
X58.080Y-72.880
X58.631Y-77.729
X59.360Y-80.998
X59.939Y-54.341
X60.361Y-82.710
X60.841Y-77.269
X61.069Y-42.111
X61.260Y-68.999
X62.560Y-42.159
X62.725Y-49.875
X63.221Y-59.540
X63.241Y-74.160
X64.211Y-75.131
X64.651Y-52.301
X65.461Y-50.930
X65.461Y-75.791
X65.750Y-48.600
X66.924Y-55.700
X67.424Y-67.501
X67.424Y-75.100
X67.874Y-58.125
X67.950Y-51.575
X68.951Y-50.401
X69.261Y-69.789
X69.799Y-60.650
X70.000Y-51.549
X70.099Y-66.401
X70.376Y-74.176
X70.675Y-59.500
X70.950Y-50.226
X71.760Y-69.121
X71.951Y-74.910
X71.999Y-51.374
X72.850Y-66.375
X73.000Y-49.975
X73.350Y-78.209
X73.749Y-63.025
X73.924Y-51.176
X74.925Y-50.076
X75.390Y-76.251
X75.776Y-61.300
X75.801Y-51.275
X76.540Y-67.671
X77.201Y-51.575
X78.400Y-52.281
X78.524Y-49.875
X78.524Y-68.326
X79.771Y-51.770
X80.226Y-53.675
X86.830Y-56.159
X86.919Y-60.109
X89.931Y-48.801
X89.980Y-53.119
X90.350Y-71.524
X90.531Y-44.300
X91.201Y-53.119
X92.481Y-80.521
X93.950Y-69.726
X94.089Y-80.500
X94.425Y-59.751
X94.501Y-64.724
X94.526Y-61.374
X94.549Y-63.025
X94.600Y-66.426
X94.940Y-68.080
X95.174Y-71.326
X95.651Y-80.472
X97.770Y-79.159
X98.750Y-76.609
X99.639Y-78.321
X99.819Y-76.050
X100.810Y-78.750
X101.031Y-75.529
X102.649Y-71.161
X103.551Y-69.375
X103.624Y-64.574
X103.924Y-68.250
X104.620Y-71.130
X105.451Y-79.139
X106.091Y-54.950
X107.000Y-60.670
X107.076Y-66.276
X107.351Y-61.874
X107.376Y-63.149
X107.551Y-58.359
X108.161Y-66.840
X109.009Y-58.420
X109.261Y-73.309
X110.340Y-72.649
X111.290Y-60.190
X112.121Y-61.280
X112.959Y-58.669
X112.989Y-59.939
X113.469Y-61.290
X113.924Y-66.324
X114.691Y-62.319
X115.512Y-57.061
X115.771Y-62.860
X116.350Y-66.375
X116.660Y-56.759
X116.975Y-65.275
X117.119Y-59.329
X117.150Y-64.000
X118.031Y-62.669
X118.189Y-58.791
X119.019Y-57.889
X119.499Y-68.250
X119.591Y-72.319
X119.799Y-76.299
X120.871Y-72.789
X122.250Y-55.900
X122.499Y-69.400
X122.601Y-68.224
X122.926Y-70.574
X123.850Y-75.451
X124.000Y-76.751
X124.440Y-54.491
X124.800Y-38.130
X125.219Y-47.909
X126.271Y-48.369
X126.360Y-54.201
X127.249Y-75.451
X127.330Y-53.449
X128.389Y-52.720
X129.360Y-37.381
X129.540Y-46.911
X129.540Y-52.319
X130.048Y-75.260
X130.109Y-58.771
X130.251Y-51.130
X130.571Y-53.139
X130.924Y-72.349
X130.980Y-57.810
X132.329Y-57.739
X133.101Y-39.875
X133.581Y-50.841
X134.160Y-53.609
X134.521Y-67.429
X135.689Y-53.711
X136.030Y-54.971
X136.469Y-73.929
X136.761Y-56.540
X137.290Y-58.130
X137.841Y-73.391
X137.899Y-77.600
X138.750Y-50.820
X139.639Y-58.110
X140.119Y-41.359
X140.970Y-55.179
X140.970Y-56.619
X141.011Y-53.729
X141.100Y-52.278
X141.321Y-67.010
X142.230Y-76.010
X142.639Y-65.740
X144.089Y-75.730
X144.691Y-58.039
X146.431Y-43.282
X147.109Y-50.681
X148.961Y-57.770
X150.769Y-68.669
X150.790Y-70.079
X150.810Y-65.809
X150.820Y-67.249
X155.359Y-67.231
X155.461Y-70.061
X155.491Y-68.651
X156.421Y-48.849
X156.639Y-59.980
X157.770Y-60.551
X158.890Y-61.171
X159.499Y-51.501
X159.710Y-66.330
X160.099Y-46.490
X160.449Y-52.479
X162.009Y-46.929
X162.131Y-52.189
X164.079Y-51.981
X167.521Y-76.279
X167.759Y-47.000
X167.790Y-50.531
X171.021Y-55.621
X171.874Y-78.100
X173.025Y-81.900
X174.630Y-53.650
X177.449Y-79.276
X177.950Y-80.825
X181.099Y-74.750
X181.826Y-47.574
X183.500Y-38.001
X183.639Y-62.141
X183.650Y-71.801
X184.399Y-75.270
X184.564Y-64.412
X184.950Y-69.489
X185.301Y-48.651
X185.600Y-38.001
X186.225Y-66.375
X186.281Y-70.881
X187.300Y-48.725
X190.299Y-37.600
T3
X34.559Y-65.189
X35.199Y-51.610
X35.999Y-80.081
X37.851Y-33.170
X38.039Y-65.141
X38.529Y-31.720
X39.881Y-36.375
X39.980Y-51.839
X41.151Y-34.671
X41.651Y-52.601
X41.768Y-37.843
X41.880Y-83.350
X42.720Y-49.139
X43.251Y-70.269
X43.401Y-41.374
X43.640Y-51.750
X44.150Y-65.080
X44.219Y-34.239
X45.766Y-53.304
X46.050Y-62.151
X46.330Y-70.381
X47.221Y-81.821
X47.371Y-76.403
X47.381Y-82.979
X47.701Y-45.301
X48.001Y-57.221
X49.030Y-40.810
X49.159Y-69.421
X49.169Y-37.650
X49.299Y-80.541
X49.441Y-82.870
X50.670Y-58.710
X50.790Y-80.470
X51.859Y-46.551
X54.790Y-77.150
X57.280Y-61.049
X57.341Y-43.731
X58.120Y-79.350
X58.699Y-76.261
X59.820Y-70.330
X60.350Y-58.331
X60.350Y-64.389
X62.329Y-70.231
X62.761Y-55.941
X63.091Y-38.451
X65.090Y-64.389
X65.151Y-68.130
X65.161Y-55.801
X65.189Y-60.160
X65.189Y-70.340
X66.101Y-78.580
X66.220Y-35.791
X67.409Y-59.680
X67.460Y-63.370
X69.019Y-71.100
X69.060Y-74.419
X70.381Y-64.389
X70.429Y-62.809
X72.339Y-46.490
X72.520Y-33.109
X73.510Y-71.001
X74.089Y-64.841
X74.171Y-75.060
X74.480Y-82.339
X75.291Y-81.171
X77.061Y-83.530
X77.480Y-37.290
X78.669Y-81.239
X78.829Y-70.940
X79.670Y-45.601
X79.840Y-64.841
X79.901Y-56.769
X79.959Y-67.970
X79.959Y-82.311
X81.140Y-48.141
X81.290Y-44.750
X83.769Y-70.940
X83.800Y-51.580
X83.800Y-56.820
X83.800Y-64.841
X83.800Y-67.889
X85.296Y-75.616
X85.451Y-44.379
X85.621Y-51.539
X86.769Y-37.290
X87.180Y-72.311
X87.920Y-46.111
X88.499Y-64.841
X88.621Y-67.841
X89.309Y-47.450
X89.830Y-37.290
X89.840Y-82.890
X91.971Y-37.290
X94.031Y-43.289
X97.439Y-40.010
X98.661Y-36.391
X99.230Y-51.171
X100.180Y-32.250
X100.739Y-41.511
X102.019Y-37.701
X102.080Y-64.320
X105.560Y-82.410
X106.319Y-34.930
X106.660Y-73.851
X106.741Y-78.989
X108.549Y-67.991
X109.670Y-60.160
X109.850Y-68.349
X110.239Y-74.552
X110.500Y-61.074
X110.749Y-67.274
X112.019Y-42.710
X113.076Y-35.174
X113.741Y-51.151
X113.840Y-68.770
X114.351Y-35.199
X119.276Y-66.949
X119.324Y-65.700
X123.899Y-42.878
X125.293Y-36.596
X126.070Y-67.521
X126.860Y-46.591
X127.338Y-66.129
X127.798Y-39.101
X128.349Y-47.640
X129.520Y-70.320
X129.819Y-66.279
X130.810Y-48.679
X132.169Y-51.250
X132.220Y-66.129
X134.249Y-66.149
X134.729Y-36.119
X134.729Y-39.670
X135.131Y-43.609
X140.510Y-76.309
X140.691Y-32.761
X141.219Y-42.799
X142.390Y-39.990
X143.330Y-42.560
X143.619Y-70.930
X143.891Y-67.221
X145.440Y-83.950
X145.519Y-51.730
X146.080Y-77.201
X146.101Y-39.929
X146.431Y-81.270
X146.449Y-65.689
X148.839Y-46.619
X149.101Y-49.469
X149.530Y-77.290
X149.530Y-81.140
X150.701Y-47.559
X153.060Y-48.760
X153.530Y-51.481
X154.079Y-46.060
X154.150Y-83.480
X154.389Y-35.809
X154.579Y-78.011
X156.101Y-32.421
X157.061Y-66.840
X157.350Y-49.789
X157.589Y-70.950
X159.441Y-38.369
X159.870Y-83.571
X160.429Y-68.570
X161.280Y-37.879
X163.650Y-66.990
X163.751Y-59.070
X164.579Y-70.800
X164.760Y-37.701
X165.250Y-41.290
X166.070Y-65.819
X166.319Y-69.611
X166.400Y-62.829
X169.931Y-34.630
X170.411Y-60.739
X170.561Y-38.710
X171.630Y-52.009
X172.524Y-83.876
X172.761Y-40.259
X173.759Y-59.400
X174.269Y-38.931
X174.739Y-41.260
X176.230Y-61.250
X176.390Y-39.911
X176.799Y-57.330
X177.419Y-36.081
X177.599Y-76.871
X180.619Y-64.219
X180.721Y-67.810
X181.371Y-38.550
X181.889Y-61.229
X183.340Y-52.969
X185.999Y-83.210
X186.281Y-40.470
X189.299Y-49.080
X190.619Y-31.811
X190.630Y-35.281
X192.481Y-80.721
X192.631Y-78.590
X193.401Y-52.225
X196.652Y-51.572
T4
X33.381Y-40.460
X33.381Y-42.461
X33.381Y-44.460
X33.381Y-46.459
X33.381Y-48.461
X36.429Y-56.281
X36.429Y-58.280
X36.429Y-60.279
X36.429Y-62.281
X36.573Y-73.320
X36.573Y-75.321
X47.211Y-33.680
X49.213Y-33.680
X51.211Y-33.680
X53.210Y-33.680
X55.212Y-33.680
X57.211Y-33.680
X59.210Y-33.680
X61.209Y-33.680
X63.210Y-33.680
X75.029Y-34.341
X77.028Y-34.341
X79.030Y-34.341
X81.029Y-34.341
X83.030Y-34.341
X85.029Y-34.341
X87.028Y-34.341
X89.030Y-34.341
X91.029Y-34.341
X93.030Y-34.341
X95.029Y-34.341
X97.028Y-34.341
X98.689Y-81.730
X100.691Y-81.730
X102.690Y-81.730
X125.451Y-81.791
X127.450Y-81.791
X127.889Y-33.569
X129.449Y-81.791
X129.891Y-33.569
X131.448Y-81.791
X131.889Y-33.569
X133.449Y-81.791
X133.888Y-33.569
X135.448Y-81.791
X135.890Y-33.569
X137.447Y-81.791
X137.889Y-33.569
X139.449Y-81.791
X140.510Y-45.496
X142.512Y-45.496
X145.169Y-33.619
X147.170Y-33.619
X149.169Y-33.619
X151.168Y-33.619
X153.170Y-33.619
X163.510Y-34.851
X163.609Y-77.790
X163.609Y-79.789
X163.609Y-81.791
X165.509Y-34.851
X167.510Y-34.851
X172.413Y-33.861
X174.414Y-33.861
X176.413Y-33.861
X178.412Y-33.861
X180.414Y-33.861
X180.980Y-77.752
X180.980Y-79.751
X180.980Y-81.752
X182.413Y-33.861
X183.281Y-42.880
X184.412Y-33.861
X185.280Y-42.880
X186.411Y-33.861
X187.279Y-42.880
X188.412Y-33.861
X189.281Y-42.880
X195.059Y-39.319
X195.059Y-41.321
X195.059Y-43.320
X195.059Y-45.319
X195.059Y-47.320
X195.059Y-49.319
T5
X178.900Y-59.098
T6
X68.491Y-41.021
X72.240Y-41.021
X75.989Y-41.021
X82.751Y-82.189
X85.291Y-82.189
X87.831Y-82.189
X108.961Y-79.840
X108.961Y-82.380
X111.501Y-79.840
X111.501Y-82.380
X114.041Y-79.840
X114.041Y-82.380
X116.581Y-79.840
X116.581Y-82.380
X119.121Y-79.840
X119.121Y-82.380
X189.730Y-69.985
X189.730Y-72.525
X189.730Y-75.065
X189.829Y-55.044
X189.829Y-57.584
X189.829Y-60.124
X189.829Y-62.664
X189.829Y-65.204
X192.270Y-69.985
X192.270Y-72.525
X192.270Y-75.065
X192.369Y-55.044
X192.369Y-57.584
X192.369Y-60.124
X192.369Y-62.664
X192.369Y-65.204
T7
X51.300Y-50.000
X51.300Y-53.998
X51.300Y-64.701
X51.300Y-68.699
X57.300Y-50.000
X57.300Y-53.998
X57.300Y-64.701
X57.300Y-68.699
X160.901Y-55.100
X160.901Y-59.098
X166.901Y-55.100
X166.901Y-59.098
X169.901Y-46.200
X169.901Y-50.198
X169.901Y-64.201
X169.901Y-68.199
X175.900Y-46.200
X175.900Y-50.198
X175.900Y-64.201
X175.900Y-68.199
X178.900Y-55.100
X184.899Y-55.100
X184.899Y-59.098
T8
X54.399Y-59.500
X69.799Y-35.001
X69.799Y-81.201
X157.000Y-81.201
X158.399Y-35.001
T9
X34.300Y-34.099
X39.901Y-80.099
X188.900Y-80.401
X194.501Y-34.099
T0
M30
