G04 (created by PCBNEW-RS274X (2012-01-19 BZR 3256)-stable) date Wed 26 Sep 2012 01:10:11 PM NZST*
G01*
G70*
G90*
%MOIN*%
G04 Gerber Fmt 3.4, Leading zero omitted, Abs format*
%FSLAX34Y34*%
G04 APERTURE LIST*
%ADD10C,0.006000*%
%ADD11C,0.118100*%
%ADD12R,0.060000X0.060000*%
%ADD13C,0.060000*%
%ADD14R,0.051200X0.051200*%
%ADD15C,0.051200*%
%ADD16C,0.035000*%
%ADD17C,0.019700*%
%ADD18C,0.008000*%
%ADD19C,0.010000*%
G04 APERTURE END LIST*
G54D10*
G54D11*
X32047Y-07677D03*
X31988Y-19764D03*
X24606Y-19764D03*
G54D12*
X33800Y-14814D03*
G54D13*
X33800Y-13814D03*
X33800Y-12814D03*
X33800Y-11814D03*
X33800Y-10814D03*
G54D12*
X23228Y-15650D03*
G54D13*
X23228Y-14650D03*
X23228Y-13650D03*
X23228Y-12650D03*
X23228Y-11650D03*
X23228Y-10650D03*
G54D14*
X28347Y-07480D03*
G54D15*
X28347Y-08268D03*
X27559Y-07480D03*
X27559Y-08268D03*
X26772Y-07480D03*
X26772Y-08268D03*
X25984Y-07480D03*
X25984Y-08268D03*
X25197Y-07480D03*
X25197Y-08268D03*
X24409Y-07480D03*
X24409Y-08268D03*
G54D16*
X32914Y-10236D03*
X31457Y-10275D03*
X30551Y-09330D03*
X25945Y-12559D03*
X24606Y-12165D03*
X23858Y-09449D03*
X31378Y-12795D03*
X31417Y-11968D03*
X32874Y-12283D03*
X28543Y-11319D03*
X24646Y-11535D03*
X28347Y-09645D03*
X27638Y-08897D03*
X30906Y-16771D03*
X30118Y-14291D03*
X22441Y-16693D03*
X23937Y-13149D03*
X30020Y-07480D03*
X23347Y-08976D03*
X34764Y-14330D03*
X34764Y-07559D03*
X34764Y-09134D03*
X34764Y-11260D03*
X34725Y-16693D03*
X29036Y-09350D03*
X24567Y-16693D03*
X23465Y-07480D03*
X22441Y-07559D03*
X22441Y-09842D03*
X22441Y-12126D03*
X26575Y-11417D03*
X26221Y-16693D03*
X22441Y-14173D03*
X24488Y-09055D03*
X25295Y-14665D03*
X26772Y-15649D03*
X29449Y-12756D03*
X31063Y-15315D03*
G54D17*
X31457Y-10275D02*
X30551Y-09369D01*
X30551Y-09369D02*
X30551Y-09330D01*
G54D18*
X32421Y-12814D02*
X33800Y-12814D01*
X32008Y-12401D02*
X32421Y-12814D01*
X26772Y-12401D02*
X32008Y-12401D01*
X25945Y-12559D02*
X25945Y-12558D01*
X26614Y-12559D02*
X26772Y-12401D01*
X25945Y-12559D02*
X26614Y-12559D01*
X25945Y-11535D02*
X25945Y-11259D01*
X25945Y-11259D02*
X26390Y-10814D01*
X26390Y-10814D02*
X33800Y-10814D01*
X24213Y-11536D02*
X24213Y-12323D01*
X24213Y-12323D02*
X24528Y-12638D01*
X24528Y-12638D02*
X24842Y-12638D01*
X23228Y-10650D02*
X23327Y-10650D01*
X23327Y-10650D02*
X24213Y-11536D01*
X24842Y-12638D02*
X25945Y-11535D01*
X26178Y-11814D02*
X28974Y-11814D01*
X23898Y-12008D02*
X23898Y-12481D01*
X25000Y-12992D02*
X26178Y-11814D01*
X24409Y-12992D02*
X25000Y-12992D01*
X23898Y-12481D02*
X24409Y-12992D01*
X23228Y-11650D02*
X23540Y-11650D01*
X23540Y-11650D02*
X23898Y-12008D01*
X33074Y-11814D02*
X33800Y-11814D01*
X32796Y-11536D02*
X33074Y-11814D01*
X29252Y-11536D02*
X32796Y-11536D01*
X28974Y-11814D02*
X29252Y-11536D01*
X23858Y-08031D02*
X24409Y-07480D01*
X23858Y-08031D02*
X23858Y-08071D01*
X23858Y-09449D02*
X23858Y-08031D01*
G54D17*
X31378Y-13819D02*
X31378Y-12795D01*
X31417Y-11968D02*
X32480Y-11968D01*
X32480Y-11968D02*
X32795Y-12283D01*
X32795Y-12283D02*
X32874Y-12283D01*
X30118Y-14291D02*
X30906Y-14291D01*
X24646Y-08897D02*
X27638Y-08897D01*
X23228Y-15650D02*
X23720Y-15650D01*
X33898Y-16693D02*
X33898Y-14912D01*
X30984Y-16693D02*
X33898Y-16693D01*
X33898Y-16693D02*
X34725Y-16693D01*
X30906Y-16771D02*
X30984Y-16693D01*
G54D18*
X30020Y-07480D02*
X29036Y-08464D01*
X30118Y-14291D02*
X30630Y-14803D01*
X30630Y-14803D02*
X30641Y-14814D01*
X28543Y-11319D02*
X28445Y-11417D01*
G54D17*
X24567Y-16693D02*
X26221Y-16693D01*
G54D18*
X29036Y-08464D02*
X29036Y-09350D01*
X28445Y-11417D02*
X26575Y-11417D01*
G54D17*
X30906Y-14291D02*
X31378Y-13819D01*
X23937Y-15433D02*
X23937Y-13149D01*
X23720Y-15650D02*
X23937Y-15433D01*
X33898Y-14912D02*
X33800Y-14814D01*
X34764Y-14330D02*
X34764Y-11260D01*
X34764Y-09134D02*
X34764Y-07559D01*
X22520Y-07480D02*
X23465Y-07480D01*
X22441Y-07559D02*
X22520Y-07480D01*
X22441Y-12126D02*
X22441Y-09842D01*
X30630Y-14803D02*
X33789Y-14803D01*
X33789Y-14803D02*
X33800Y-14814D01*
X30020Y-07480D02*
X28347Y-07480D01*
X22441Y-16693D02*
X22441Y-14173D01*
X24488Y-09055D02*
X24646Y-08897D01*
G54D18*
X25295Y-14665D02*
X26279Y-15649D01*
X26279Y-15649D02*
X26772Y-15649D01*
X29449Y-12756D02*
X29449Y-14764D01*
X29449Y-14764D02*
X30000Y-15315D01*
X30000Y-15315D02*
X31063Y-15315D01*
G54D10*
G36*
X33573Y-11314D02*
X33489Y-11349D01*
X33335Y-11503D01*
X33326Y-11524D01*
X33194Y-11524D01*
X33001Y-11331D01*
X32907Y-11268D01*
X32796Y-11246D01*
X29252Y-11246D01*
X29141Y-11268D01*
X29047Y-11331D01*
X28854Y-11524D01*
X26235Y-11524D01*
X26235Y-11379D01*
X26510Y-11104D01*
X33326Y-11104D01*
X33335Y-11125D01*
X33489Y-11279D01*
X33573Y-11314D01*
X33573Y-11314D01*
G37*
G54D19*
X33573Y-11314D02*
X33489Y-11349D01*
X33335Y-11503D01*
X33326Y-11524D01*
X33194Y-11524D01*
X33001Y-11331D01*
X32907Y-11268D01*
X32796Y-11246D01*
X29252Y-11246D01*
X29141Y-11268D01*
X29047Y-11331D01*
X28854Y-11524D01*
X26235Y-11524D01*
X26235Y-11379D01*
X26510Y-11104D01*
X33326Y-11104D01*
X33335Y-11125D01*
X33489Y-11279D01*
X33573Y-11314D01*
G54D10*
G36*
X33573Y-12314D02*
X33489Y-12349D01*
X33335Y-12503D01*
X33326Y-12524D01*
X32541Y-12524D01*
X32213Y-12196D01*
X32119Y-12133D01*
X32008Y-12111D01*
X26772Y-12111D01*
X26661Y-12133D01*
X26567Y-12196D01*
X26494Y-12269D01*
X26256Y-12269D01*
X26194Y-12207D01*
X26298Y-12104D01*
X28974Y-12104D01*
X29085Y-12082D01*
X29179Y-12019D01*
X29372Y-11826D01*
X32676Y-11826D01*
X32869Y-12019D01*
X32963Y-12082D01*
X33074Y-12104D01*
X33326Y-12104D01*
X33335Y-12125D01*
X33489Y-12279D01*
X33573Y-12314D01*
X33573Y-12314D01*
G37*
G54D19*
X33573Y-12314D02*
X33489Y-12349D01*
X33335Y-12503D01*
X33326Y-12524D01*
X32541Y-12524D01*
X32213Y-12196D01*
X32119Y-12133D01*
X32008Y-12111D01*
X26772Y-12111D01*
X26661Y-12133D01*
X26567Y-12196D01*
X26494Y-12269D01*
X26256Y-12269D01*
X26194Y-12207D01*
X26298Y-12104D01*
X28974Y-12104D01*
X29085Y-12082D01*
X29179Y-12019D01*
X29372Y-11826D01*
X32676Y-11826D01*
X32869Y-12019D01*
X32963Y-12082D01*
X33074Y-12104D01*
X33326Y-12104D01*
X33335Y-12125D01*
X33489Y-12279D01*
X33573Y-12314D01*
G54D10*
G36*
X34911Y-20521D02*
X34350Y-20521D01*
X34350Y-14926D01*
X34350Y-14702D01*
X34349Y-14465D01*
X34311Y-14373D01*
X34241Y-14303D01*
X34150Y-14265D01*
X34125Y-14265D01*
X34265Y-14125D01*
X34349Y-13923D01*
X34349Y-13705D01*
X34265Y-13503D01*
X34111Y-13349D01*
X34026Y-13314D01*
X34111Y-13279D01*
X34265Y-13125D01*
X34349Y-12923D01*
X34349Y-12705D01*
X34265Y-12503D01*
X34111Y-12349D01*
X34026Y-12314D01*
X34111Y-12279D01*
X34265Y-12125D01*
X34349Y-11923D01*
X34349Y-11705D01*
X34265Y-11503D01*
X34111Y-11349D01*
X34026Y-11314D01*
X34111Y-11279D01*
X34265Y-11125D01*
X34349Y-10923D01*
X34349Y-10705D01*
X34265Y-10503D01*
X34111Y-10349D01*
X33909Y-10265D01*
X33691Y-10265D01*
X33489Y-10349D01*
X33335Y-10503D01*
X33326Y-10524D01*
X33227Y-10524D01*
X33274Y-10477D01*
X33339Y-10321D01*
X33339Y-10152D01*
X33275Y-09996D01*
X33155Y-09876D01*
X32999Y-09811D01*
X32830Y-09811D01*
X32674Y-09875D01*
X32554Y-09995D01*
X32489Y-10151D01*
X32489Y-10320D01*
X32553Y-10476D01*
X32601Y-10524D01*
X31809Y-10524D01*
X31817Y-10516D01*
X31882Y-10360D01*
X31882Y-10191D01*
X31818Y-10035D01*
X31698Y-09915D01*
X31542Y-09850D01*
X31524Y-09850D01*
X30976Y-09302D01*
X30976Y-09246D01*
X30912Y-09090D01*
X30792Y-08970D01*
X30636Y-08905D01*
X30467Y-08905D01*
X30311Y-08969D01*
X30191Y-09089D01*
X30126Y-09245D01*
X30126Y-09414D01*
X30190Y-09570D01*
X30310Y-09690D01*
X30430Y-09740D01*
X31032Y-10342D01*
X31032Y-10359D01*
X31096Y-10515D01*
X31105Y-10524D01*
X26390Y-10524D01*
X26279Y-10546D01*
X26185Y-10609D01*
X25740Y-11054D01*
X25677Y-11148D01*
X25655Y-11259D01*
X25655Y-11415D01*
X25018Y-12051D01*
X24967Y-11925D01*
X24847Y-11805D01*
X24691Y-11740D01*
X24522Y-11740D01*
X24503Y-11747D01*
X24503Y-11536D01*
X24502Y-11535D01*
X24481Y-11425D01*
X24480Y-11424D01*
X24418Y-11331D01*
X24417Y-11330D01*
X23777Y-10690D01*
X23777Y-10541D01*
X23693Y-10339D01*
X23539Y-10185D01*
X23337Y-10101D01*
X23119Y-10101D01*
X22917Y-10185D01*
X22763Y-10339D01*
X22679Y-10541D01*
X22679Y-10759D01*
X22763Y-10961D01*
X22917Y-11115D01*
X23001Y-11150D01*
X22917Y-11185D01*
X22763Y-11339D01*
X22679Y-11541D01*
X22679Y-11759D01*
X22763Y-11961D01*
X22917Y-12115D01*
X23001Y-12150D01*
X22917Y-12185D01*
X22763Y-12339D01*
X22679Y-12541D01*
X22679Y-12759D01*
X22763Y-12961D01*
X22917Y-13115D01*
X23001Y-13150D01*
X22917Y-13185D01*
X22763Y-13339D01*
X22679Y-13541D01*
X22679Y-13759D01*
X22763Y-13961D01*
X22917Y-14115D01*
X23001Y-14150D01*
X22917Y-14185D01*
X22763Y-14339D01*
X22679Y-14541D01*
X22679Y-14759D01*
X22763Y-14961D01*
X22903Y-15101D01*
X22878Y-15101D01*
X22787Y-15139D01*
X22717Y-15209D01*
X22679Y-15301D01*
X22678Y-15538D01*
X22740Y-15600D01*
X23128Y-15600D01*
X23178Y-15600D01*
X23278Y-15600D01*
X23328Y-15600D01*
X23716Y-15600D01*
X23778Y-15538D01*
X23777Y-15301D01*
X23739Y-15209D01*
X23669Y-15139D01*
X23578Y-15101D01*
X23553Y-15101D01*
X23693Y-14961D01*
X23777Y-14759D01*
X23777Y-14541D01*
X23693Y-14339D01*
X23539Y-14185D01*
X23454Y-14150D01*
X23539Y-14115D01*
X23693Y-13961D01*
X23777Y-13759D01*
X23777Y-13541D01*
X23693Y-13339D01*
X23539Y-13185D01*
X23454Y-13150D01*
X23539Y-13115D01*
X23693Y-12961D01*
X23773Y-12766D01*
X24203Y-13197D01*
X24204Y-13197D01*
X24298Y-13260D01*
X24409Y-13282D01*
X25000Y-13282D01*
X25111Y-13260D01*
X25205Y-13197D01*
X25593Y-12808D01*
X25704Y-12919D01*
X25860Y-12984D01*
X26029Y-12984D01*
X26185Y-12920D01*
X26256Y-12849D01*
X26614Y-12849D01*
X26725Y-12827D01*
X26819Y-12764D01*
X26892Y-12691D01*
X29024Y-12691D01*
X29024Y-12840D01*
X29088Y-12996D01*
X29159Y-13067D01*
X29159Y-14764D01*
X29181Y-14875D01*
X29244Y-14969D01*
X29795Y-15520D01*
X29889Y-15583D01*
X30000Y-15605D01*
X30752Y-15605D01*
X30822Y-15675D01*
X30978Y-15740D01*
X31147Y-15740D01*
X31303Y-15676D01*
X31423Y-15556D01*
X31488Y-15400D01*
X31488Y-15231D01*
X31424Y-15075D01*
X31304Y-14955D01*
X31148Y-14890D01*
X30979Y-14890D01*
X30823Y-14954D01*
X30752Y-15025D01*
X30120Y-15025D01*
X29739Y-14644D01*
X29739Y-13067D01*
X29809Y-12997D01*
X29874Y-12841D01*
X29874Y-12691D01*
X31888Y-12691D01*
X32216Y-13019D01*
X32310Y-13082D01*
X32421Y-13104D01*
X33326Y-13104D01*
X33335Y-13125D01*
X33489Y-13279D01*
X33573Y-13314D01*
X33489Y-13349D01*
X33335Y-13503D01*
X33251Y-13705D01*
X33251Y-13923D01*
X33335Y-14125D01*
X33475Y-14265D01*
X33450Y-14265D01*
X33359Y-14303D01*
X33289Y-14373D01*
X33251Y-14465D01*
X33250Y-14702D01*
X33312Y-14764D01*
X33700Y-14764D01*
X33750Y-14764D01*
X33850Y-14764D01*
X33900Y-14764D01*
X34288Y-14764D01*
X34350Y-14702D01*
X34350Y-14926D01*
X34288Y-14864D01*
X33850Y-14864D01*
X33850Y-15302D01*
X33912Y-15364D01*
X34051Y-15363D01*
X34150Y-15363D01*
X34241Y-15325D01*
X34311Y-15255D01*
X34349Y-15163D01*
X34350Y-14926D01*
X34350Y-20521D01*
X33750Y-20521D01*
X33750Y-15302D01*
X33750Y-14864D01*
X33312Y-14864D01*
X33250Y-14926D01*
X33251Y-15163D01*
X33289Y-15255D01*
X33359Y-15325D01*
X33450Y-15363D01*
X33549Y-15363D01*
X33688Y-15364D01*
X33750Y-15302D01*
X33750Y-20521D01*
X32355Y-20521D01*
X32463Y-20477D01*
X32699Y-20241D01*
X32828Y-19932D01*
X32828Y-19598D01*
X32701Y-19289D01*
X32465Y-19053D01*
X32156Y-18924D01*
X31822Y-18924D01*
X31513Y-19051D01*
X31277Y-19287D01*
X31148Y-19596D01*
X31148Y-19930D01*
X31275Y-20239D01*
X31511Y-20475D01*
X31621Y-20521D01*
X27197Y-20521D01*
X27197Y-15734D01*
X27197Y-15565D01*
X27133Y-15409D01*
X27013Y-15289D01*
X26857Y-15224D01*
X26688Y-15224D01*
X26532Y-15288D01*
X26461Y-15359D01*
X26399Y-15359D01*
X25720Y-14680D01*
X25720Y-14581D01*
X25656Y-14425D01*
X25536Y-14305D01*
X25380Y-14240D01*
X25211Y-14240D01*
X25055Y-14304D01*
X24935Y-14424D01*
X24870Y-14580D01*
X24870Y-14749D01*
X24934Y-14905D01*
X25054Y-15025D01*
X25210Y-15090D01*
X25310Y-15090D01*
X26074Y-15854D01*
X26168Y-15917D01*
X26279Y-15939D01*
X26461Y-15939D01*
X26531Y-16009D01*
X26687Y-16074D01*
X26856Y-16074D01*
X27012Y-16010D01*
X27132Y-15890D01*
X27197Y-15734D01*
X27197Y-20521D01*
X24973Y-20521D01*
X25081Y-20477D01*
X25317Y-20241D01*
X25446Y-19932D01*
X25446Y-19598D01*
X25319Y-19289D01*
X25083Y-19053D01*
X24774Y-18924D01*
X24440Y-18924D01*
X24131Y-19051D01*
X23895Y-19287D01*
X23778Y-19567D01*
X23778Y-15762D01*
X23716Y-15700D01*
X23278Y-15700D01*
X23278Y-16138D01*
X23340Y-16200D01*
X23479Y-16199D01*
X23578Y-16199D01*
X23669Y-16161D01*
X23739Y-16091D01*
X23777Y-15999D01*
X23778Y-15762D01*
X23778Y-19567D01*
X23766Y-19596D01*
X23766Y-19930D01*
X23893Y-20239D01*
X24129Y-20475D01*
X24239Y-20521D01*
X23178Y-20521D01*
X23178Y-16138D01*
X23178Y-15700D01*
X22740Y-15700D01*
X22678Y-15762D01*
X22679Y-15999D01*
X22717Y-16091D01*
X22787Y-16161D01*
X22878Y-16199D01*
X22977Y-16199D01*
X23116Y-16200D01*
X23178Y-16138D01*
X23178Y-20521D01*
X22175Y-20521D01*
X22175Y-07057D01*
X24118Y-07057D01*
X23981Y-07194D01*
X23904Y-07379D01*
X23904Y-07575D01*
X23653Y-07826D01*
X23590Y-07920D01*
X23568Y-08031D01*
X23568Y-08071D01*
X23568Y-09138D01*
X23498Y-09208D01*
X23433Y-09364D01*
X23433Y-09533D01*
X23497Y-09689D01*
X23617Y-09809D01*
X23773Y-09874D01*
X23942Y-09874D01*
X24098Y-09810D01*
X24218Y-09690D01*
X24283Y-09534D01*
X24283Y-09365D01*
X24219Y-09209D01*
X24148Y-09138D01*
X24148Y-08706D01*
X24308Y-08773D01*
X24509Y-08773D01*
X24695Y-08696D01*
X24803Y-08588D01*
X24911Y-08696D01*
X25096Y-08773D01*
X25297Y-08773D01*
X25483Y-08696D01*
X25590Y-08588D01*
X25698Y-08696D01*
X25883Y-08773D01*
X26084Y-08773D01*
X26270Y-08696D01*
X26378Y-08588D01*
X26486Y-08696D01*
X26671Y-08773D01*
X26872Y-08773D01*
X27058Y-08696D01*
X27165Y-08588D01*
X27273Y-08696D01*
X27458Y-08773D01*
X27659Y-08773D01*
X27845Y-08696D01*
X27953Y-08588D01*
X28061Y-08696D01*
X28246Y-08773D01*
X28447Y-08773D01*
X28633Y-08696D01*
X28775Y-08554D01*
X28852Y-08369D01*
X28852Y-08168D01*
X28775Y-07982D01*
X28741Y-07948D01*
X28744Y-07947D01*
X28814Y-07877D01*
X28852Y-07786D01*
X28852Y-07687D01*
X28853Y-07592D01*
X28791Y-07530D01*
X28447Y-07530D01*
X28397Y-07530D01*
X28297Y-07530D01*
X28297Y-07430D01*
X28397Y-07430D01*
X28447Y-07430D01*
X28791Y-07430D01*
X28853Y-07368D01*
X28852Y-07273D01*
X28852Y-07174D01*
X28814Y-07083D01*
X28788Y-07057D01*
X31479Y-07057D01*
X31336Y-07200D01*
X31207Y-07509D01*
X31207Y-07843D01*
X31334Y-08152D01*
X31570Y-08388D01*
X31879Y-08517D01*
X32213Y-08517D01*
X32522Y-08390D01*
X32758Y-08154D01*
X32887Y-07845D01*
X32887Y-07511D01*
X32760Y-07202D01*
X32615Y-07057D01*
X34911Y-07057D01*
X34911Y-20521D01*
X34911Y-20521D01*
G37*
G54D19*
X34911Y-20521D02*
X34350Y-20521D01*
X34350Y-14926D01*
X34350Y-14702D01*
X34349Y-14465D01*
X34311Y-14373D01*
X34241Y-14303D01*
X34150Y-14265D01*
X34125Y-14265D01*
X34265Y-14125D01*
X34349Y-13923D01*
X34349Y-13705D01*
X34265Y-13503D01*
X34111Y-13349D01*
X34026Y-13314D01*
X34111Y-13279D01*
X34265Y-13125D01*
X34349Y-12923D01*
X34349Y-12705D01*
X34265Y-12503D01*
X34111Y-12349D01*
X34026Y-12314D01*
X34111Y-12279D01*
X34265Y-12125D01*
X34349Y-11923D01*
X34349Y-11705D01*
X34265Y-11503D01*
X34111Y-11349D01*
X34026Y-11314D01*
X34111Y-11279D01*
X34265Y-11125D01*
X34349Y-10923D01*
X34349Y-10705D01*
X34265Y-10503D01*
X34111Y-10349D01*
X33909Y-10265D01*
X33691Y-10265D01*
X33489Y-10349D01*
X33335Y-10503D01*
X33326Y-10524D01*
X33227Y-10524D01*
X33274Y-10477D01*
X33339Y-10321D01*
X33339Y-10152D01*
X33275Y-09996D01*
X33155Y-09876D01*
X32999Y-09811D01*
X32830Y-09811D01*
X32674Y-09875D01*
X32554Y-09995D01*
X32489Y-10151D01*
X32489Y-10320D01*
X32553Y-10476D01*
X32601Y-10524D01*
X31809Y-10524D01*
X31817Y-10516D01*
X31882Y-10360D01*
X31882Y-10191D01*
X31818Y-10035D01*
X31698Y-09915D01*
X31542Y-09850D01*
X31524Y-09850D01*
X30976Y-09302D01*
X30976Y-09246D01*
X30912Y-09090D01*
X30792Y-08970D01*
X30636Y-08905D01*
X30467Y-08905D01*
X30311Y-08969D01*
X30191Y-09089D01*
X30126Y-09245D01*
X30126Y-09414D01*
X30190Y-09570D01*
X30310Y-09690D01*
X30430Y-09740D01*
X31032Y-10342D01*
X31032Y-10359D01*
X31096Y-10515D01*
X31105Y-10524D01*
X26390Y-10524D01*
X26279Y-10546D01*
X26185Y-10609D01*
X25740Y-11054D01*
X25677Y-11148D01*
X25655Y-11259D01*
X25655Y-11415D01*
X25018Y-12051D01*
X24967Y-11925D01*
X24847Y-11805D01*
X24691Y-11740D01*
X24522Y-11740D01*
X24503Y-11747D01*
X24503Y-11536D01*
X24502Y-11535D01*
X24481Y-11425D01*
X24480Y-11424D01*
X24418Y-11331D01*
X24417Y-11330D01*
X23777Y-10690D01*
X23777Y-10541D01*
X23693Y-10339D01*
X23539Y-10185D01*
X23337Y-10101D01*
X23119Y-10101D01*
X22917Y-10185D01*
X22763Y-10339D01*
X22679Y-10541D01*
X22679Y-10759D01*
X22763Y-10961D01*
X22917Y-11115D01*
X23001Y-11150D01*
X22917Y-11185D01*
X22763Y-11339D01*
X22679Y-11541D01*
X22679Y-11759D01*
X22763Y-11961D01*
X22917Y-12115D01*
X23001Y-12150D01*
X22917Y-12185D01*
X22763Y-12339D01*
X22679Y-12541D01*
X22679Y-12759D01*
X22763Y-12961D01*
X22917Y-13115D01*
X23001Y-13150D01*
X22917Y-13185D01*
X22763Y-13339D01*
X22679Y-13541D01*
X22679Y-13759D01*
X22763Y-13961D01*
X22917Y-14115D01*
X23001Y-14150D01*
X22917Y-14185D01*
X22763Y-14339D01*
X22679Y-14541D01*
X22679Y-14759D01*
X22763Y-14961D01*
X22903Y-15101D01*
X22878Y-15101D01*
X22787Y-15139D01*
X22717Y-15209D01*
X22679Y-15301D01*
X22678Y-15538D01*
X22740Y-15600D01*
X23128Y-15600D01*
X23178Y-15600D01*
X23278Y-15600D01*
X23328Y-15600D01*
X23716Y-15600D01*
X23778Y-15538D01*
X23777Y-15301D01*
X23739Y-15209D01*
X23669Y-15139D01*
X23578Y-15101D01*
X23553Y-15101D01*
X23693Y-14961D01*
X23777Y-14759D01*
X23777Y-14541D01*
X23693Y-14339D01*
X23539Y-14185D01*
X23454Y-14150D01*
X23539Y-14115D01*
X23693Y-13961D01*
X23777Y-13759D01*
X23777Y-13541D01*
X23693Y-13339D01*
X23539Y-13185D01*
X23454Y-13150D01*
X23539Y-13115D01*
X23693Y-12961D01*
X23773Y-12766D01*
X24203Y-13197D01*
X24204Y-13197D01*
X24298Y-13260D01*
X24409Y-13282D01*
X25000Y-13282D01*
X25111Y-13260D01*
X25205Y-13197D01*
X25593Y-12808D01*
X25704Y-12919D01*
X25860Y-12984D01*
X26029Y-12984D01*
X26185Y-12920D01*
X26256Y-12849D01*
X26614Y-12849D01*
X26725Y-12827D01*
X26819Y-12764D01*
X26892Y-12691D01*
X29024Y-12691D01*
X29024Y-12840D01*
X29088Y-12996D01*
X29159Y-13067D01*
X29159Y-14764D01*
X29181Y-14875D01*
X29244Y-14969D01*
X29795Y-15520D01*
X29889Y-15583D01*
X30000Y-15605D01*
X30752Y-15605D01*
X30822Y-15675D01*
X30978Y-15740D01*
X31147Y-15740D01*
X31303Y-15676D01*
X31423Y-15556D01*
X31488Y-15400D01*
X31488Y-15231D01*
X31424Y-15075D01*
X31304Y-14955D01*
X31148Y-14890D01*
X30979Y-14890D01*
X30823Y-14954D01*
X30752Y-15025D01*
X30120Y-15025D01*
X29739Y-14644D01*
X29739Y-13067D01*
X29809Y-12997D01*
X29874Y-12841D01*
X29874Y-12691D01*
X31888Y-12691D01*
X32216Y-13019D01*
X32310Y-13082D01*
X32421Y-13104D01*
X33326Y-13104D01*
X33335Y-13125D01*
X33489Y-13279D01*
X33573Y-13314D01*
X33489Y-13349D01*
X33335Y-13503D01*
X33251Y-13705D01*
X33251Y-13923D01*
X33335Y-14125D01*
X33475Y-14265D01*
X33450Y-14265D01*
X33359Y-14303D01*
X33289Y-14373D01*
X33251Y-14465D01*
X33250Y-14702D01*
X33312Y-14764D01*
X33700Y-14764D01*
X33750Y-14764D01*
X33850Y-14764D01*
X33900Y-14764D01*
X34288Y-14764D01*
X34350Y-14702D01*
X34350Y-14926D01*
X34288Y-14864D01*
X33850Y-14864D01*
X33850Y-15302D01*
X33912Y-15364D01*
X34051Y-15363D01*
X34150Y-15363D01*
X34241Y-15325D01*
X34311Y-15255D01*
X34349Y-15163D01*
X34350Y-14926D01*
X34350Y-20521D01*
X33750Y-20521D01*
X33750Y-15302D01*
X33750Y-14864D01*
X33312Y-14864D01*
X33250Y-14926D01*
X33251Y-15163D01*
X33289Y-15255D01*
X33359Y-15325D01*
X33450Y-15363D01*
X33549Y-15363D01*
X33688Y-15364D01*
X33750Y-15302D01*
X33750Y-20521D01*
X32355Y-20521D01*
X32463Y-20477D01*
X32699Y-20241D01*
X32828Y-19932D01*
X32828Y-19598D01*
X32701Y-19289D01*
X32465Y-19053D01*
X32156Y-18924D01*
X31822Y-18924D01*
X31513Y-19051D01*
X31277Y-19287D01*
X31148Y-19596D01*
X31148Y-19930D01*
X31275Y-20239D01*
X31511Y-20475D01*
X31621Y-20521D01*
X27197Y-20521D01*
X27197Y-15734D01*
X27197Y-15565D01*
X27133Y-15409D01*
X27013Y-15289D01*
X26857Y-15224D01*
X26688Y-15224D01*
X26532Y-15288D01*
X26461Y-15359D01*
X26399Y-15359D01*
X25720Y-14680D01*
X25720Y-14581D01*
X25656Y-14425D01*
X25536Y-14305D01*
X25380Y-14240D01*
X25211Y-14240D01*
X25055Y-14304D01*
X24935Y-14424D01*
X24870Y-14580D01*
X24870Y-14749D01*
X24934Y-14905D01*
X25054Y-15025D01*
X25210Y-15090D01*
X25310Y-15090D01*
X26074Y-15854D01*
X26168Y-15917D01*
X26279Y-15939D01*
X26461Y-15939D01*
X26531Y-16009D01*
X26687Y-16074D01*
X26856Y-16074D01*
X27012Y-16010D01*
X27132Y-15890D01*
X27197Y-15734D01*
X27197Y-20521D01*
X24973Y-20521D01*
X25081Y-20477D01*
X25317Y-20241D01*
X25446Y-19932D01*
X25446Y-19598D01*
X25319Y-19289D01*
X25083Y-19053D01*
X24774Y-18924D01*
X24440Y-18924D01*
X24131Y-19051D01*
X23895Y-19287D01*
X23778Y-19567D01*
X23778Y-15762D01*
X23716Y-15700D01*
X23278Y-15700D01*
X23278Y-16138D01*
X23340Y-16200D01*
X23479Y-16199D01*
X23578Y-16199D01*
X23669Y-16161D01*
X23739Y-16091D01*
X23777Y-15999D01*
X23778Y-15762D01*
X23778Y-19567D01*
X23766Y-19596D01*
X23766Y-19930D01*
X23893Y-20239D01*
X24129Y-20475D01*
X24239Y-20521D01*
X23178Y-20521D01*
X23178Y-16138D01*
X23178Y-15700D01*
X22740Y-15700D01*
X22678Y-15762D01*
X22679Y-15999D01*
X22717Y-16091D01*
X22787Y-16161D01*
X22878Y-16199D01*
X22977Y-16199D01*
X23116Y-16200D01*
X23178Y-16138D01*
X23178Y-20521D01*
X22175Y-20521D01*
X22175Y-07057D01*
X24118Y-07057D01*
X23981Y-07194D01*
X23904Y-07379D01*
X23904Y-07575D01*
X23653Y-07826D01*
X23590Y-07920D01*
X23568Y-08031D01*
X23568Y-08071D01*
X23568Y-09138D01*
X23498Y-09208D01*
X23433Y-09364D01*
X23433Y-09533D01*
X23497Y-09689D01*
X23617Y-09809D01*
X23773Y-09874D01*
X23942Y-09874D01*
X24098Y-09810D01*
X24218Y-09690D01*
X24283Y-09534D01*
X24283Y-09365D01*
X24219Y-09209D01*
X24148Y-09138D01*
X24148Y-08706D01*
X24308Y-08773D01*
X24509Y-08773D01*
X24695Y-08696D01*
X24803Y-08588D01*
X24911Y-08696D01*
X25096Y-08773D01*
X25297Y-08773D01*
X25483Y-08696D01*
X25590Y-08588D01*
X25698Y-08696D01*
X25883Y-08773D01*
X26084Y-08773D01*
X26270Y-08696D01*
X26378Y-08588D01*
X26486Y-08696D01*
X26671Y-08773D01*
X26872Y-08773D01*
X27058Y-08696D01*
X27165Y-08588D01*
X27273Y-08696D01*
X27458Y-08773D01*
X27659Y-08773D01*
X27845Y-08696D01*
X27953Y-08588D01*
X28061Y-08696D01*
X28246Y-08773D01*
X28447Y-08773D01*
X28633Y-08696D01*
X28775Y-08554D01*
X28852Y-08369D01*
X28852Y-08168D01*
X28775Y-07982D01*
X28741Y-07948D01*
X28744Y-07947D01*
X28814Y-07877D01*
X28852Y-07786D01*
X28852Y-07687D01*
X28853Y-07592D01*
X28791Y-07530D01*
X28447Y-07530D01*
X28397Y-07530D01*
X28297Y-07530D01*
X28297Y-07430D01*
X28397Y-07430D01*
X28447Y-07430D01*
X28791Y-07430D01*
X28853Y-07368D01*
X28852Y-07273D01*
X28852Y-07174D01*
X28814Y-07083D01*
X28788Y-07057D01*
X31479Y-07057D01*
X31336Y-07200D01*
X31207Y-07509D01*
X31207Y-07843D01*
X31334Y-08152D01*
X31570Y-08388D01*
X31879Y-08517D01*
X32213Y-08517D01*
X32522Y-08390D01*
X32758Y-08154D01*
X32887Y-07845D01*
X32887Y-07511D01*
X32760Y-07202D01*
X32615Y-07057D01*
X34911Y-07057D01*
X34911Y-20521D01*
M02*
