G04 (created by PCBNEW-RS274X (2012-01-19 BZR 3256)-stable) date Wed 26 Sep 2012 04:40:45 PM NZST*
G01*
G70*
G90*
%MOIN*%
G04 Gerber Fmt 3.4, Leading zero omitted, Abs format*
%FSLAX34Y34*%
G04 APERTURE LIST*
%ADD10C,0.006000*%
%ADD11C,0.138100*%
%ADD12R,0.067200X0.047600*%
%ADD13R,0.098700X0.047600*%
%ADD14R,0.130300X0.106600*%
%ADD15R,0.056000X0.056000*%
%ADD16R,0.080000X0.100000*%
%ADD17R,0.100000X0.080000*%
%ADD18R,0.045000X0.051500*%
%ADD19R,0.051500X0.045000*%
%ADD20R,0.071200X0.071200*%
%ADD21C,0.071200*%
%ADD22R,0.045000X0.065000*%
%ADD23R,0.080000X0.080000*%
%ADD24C,0.080000*%
G04 APERTURE END LIST*
G54D10*
G54D11*
X32047Y-07677D03*
X31988Y-19764D03*
X24606Y-19764D03*
G54D12*
X29233Y-10216D03*
G54D13*
X29390Y-10807D03*
G54D12*
X29233Y-11398D03*
G54D14*
X30335Y-10807D03*
G54D12*
X27618Y-10807D03*
G54D13*
X27461Y-10216D03*
G54D12*
X27618Y-09625D03*
G54D14*
X26516Y-10216D03*
G54D15*
X28085Y-12535D03*
X28085Y-11835D03*
X28885Y-12185D03*
X29770Y-15241D03*
X29770Y-15941D03*
X28970Y-15591D03*
X27474Y-16610D03*
X27474Y-15910D03*
X28274Y-16260D03*
G54D16*
X30119Y-13484D03*
X28819Y-13484D03*
G54D17*
X25217Y-10905D03*
X25217Y-09605D03*
G54D18*
X29591Y-14409D03*
X28991Y-14409D03*
G54D19*
X26614Y-12505D03*
X26614Y-11905D03*
X27264Y-11885D03*
X27264Y-12485D03*
G54D18*
X29188Y-16574D03*
X29788Y-16574D03*
G54D19*
X30433Y-15930D03*
X30433Y-15330D03*
G54D18*
X26580Y-14567D03*
X25980Y-14567D03*
G54D19*
X24646Y-12850D03*
X24646Y-13450D03*
G54D18*
X30281Y-12185D03*
X29681Y-12185D03*
G54D19*
X28445Y-10792D03*
X28445Y-10192D03*
X24272Y-10555D03*
X24272Y-09955D03*
X26614Y-13243D03*
X26614Y-13843D03*
G54D18*
X25812Y-11772D03*
X25212Y-11772D03*
X25212Y-13465D03*
X25812Y-13465D03*
G54D20*
X28347Y-07480D03*
G54D21*
X28347Y-08268D03*
X27559Y-07480D03*
X27559Y-08268D03*
X26772Y-07480D03*
X26772Y-08268D03*
X25984Y-07480D03*
X25984Y-08268D03*
X25197Y-07480D03*
X25197Y-08268D03*
X24409Y-07480D03*
X24409Y-08268D03*
G54D17*
X27697Y-15157D03*
X27697Y-13857D03*
G54D15*
X27474Y-18578D03*
X27474Y-17878D03*
X28274Y-18228D03*
G54D22*
X25803Y-17874D03*
X26403Y-17874D03*
X29788Y-17480D03*
X29188Y-17480D03*
X29188Y-18228D03*
X29788Y-18228D03*
G54D23*
X33819Y-15807D03*
G54D24*
X33819Y-14807D03*
X33819Y-13807D03*
X33819Y-12807D03*
X33819Y-11807D03*
X33819Y-10807D03*
G54D23*
X23189Y-16634D03*
G54D24*
X23189Y-15634D03*
X23189Y-14634D03*
X23189Y-13634D03*
X23189Y-12634D03*
X23189Y-11634D03*
X23189Y-10634D03*
M02*
