M48
;DRILL file {Pcbnew (2011-11-27 BZR 3249)-stable} date 10/09/2012 4:17:38 p.m.
;FORMAT={-:-/ absolute / metric / decimal}
FMAT,2
METRIC,TZ
T1C0.635
T2C0.813
T3C1.016
%
G90
G05
M71
T1
X57.000Y-18.999
X57.000Y-25.499
X57.000Y-38.499
X57.000Y-42.499
X59.751Y-18.999
X61.001Y-33.500
X61.001Y-38.499
X62.001Y-42.499
X62.250Y-22.748
X62.499Y-30.899
X64.249Y-37.249
X65.001Y-22.499
X65.900Y-31.900
X67.000Y-42.499
X67.501Y-28.999
X68.001Y-39.748
X69.002Y-22.499
X72.001Y-24.498
X72.499Y-28.750
X73.751Y-23.749
X74.800Y-32.400
X76.251Y-18.999
X76.500Y-36.299
X78.501Y-32.748
X78.900Y-38.900
X79.499Y-28.750
X83.500Y-19.251
X83.500Y-25.499
X83.500Y-33.749
X83.500Y-42.250
T2
X61.951Y-19.047
X61.951Y-21.049
X63.952Y-19.047
X63.952Y-21.049
X65.951Y-19.047
X65.951Y-21.049
X67.953Y-19.047
X67.953Y-21.049
X69.952Y-19.047
X69.952Y-21.049
X71.953Y-19.047
X71.953Y-21.049
T3
X58.999Y-27.051
X58.999Y-29.591
X58.999Y-32.131
X58.999Y-34.671
X58.999Y-37.211
X58.999Y-39.751
X81.252Y-27.468
X81.252Y-30.008
X81.252Y-32.548
X81.252Y-35.088
X81.252Y-37.628
T0
M30
