G04 (created by PCBNEW-RS274X (2012-01-19 BZR 3256)-stable) date Wed 26 Sep 2012 01:10:11 PM NZST*
G01*
G70*
G90*
%MOIN*%
G04 Gerber Fmt 3.4, Leading zero omitted, Abs format*
%FSLAX34Y34*%
G04 APERTURE LIST*
%ADD10C,0.006000*%
%ADD11C,0.118100*%
%ADD12R,0.047200X0.027600*%
%ADD13R,0.078700X0.027600*%
%ADD14R,0.110300X0.086600*%
%ADD15R,0.036000X0.036000*%
%ADD16R,0.060000X0.080000*%
%ADD17R,0.080000X0.060000*%
%ADD18R,0.025000X0.031500*%
%ADD19R,0.031500X0.025000*%
%ADD20R,0.060000X0.060000*%
%ADD21C,0.060000*%
%ADD22R,0.051200X0.051200*%
%ADD23C,0.051200*%
%ADD24C,0.035000*%
%ADD25C,0.019700*%
%ADD26C,0.008000*%
%ADD27C,0.010000*%
G04 APERTURE END LIST*
G54D10*
G54D11*
X32047Y-07677D03*
X31988Y-19764D03*
X24606Y-19764D03*
G54D12*
X29233Y-10216D03*
G54D13*
X29390Y-10807D03*
G54D12*
X29233Y-11398D03*
G54D14*
X30335Y-10807D03*
G54D12*
X27618Y-10807D03*
G54D13*
X27461Y-10216D03*
G54D12*
X27618Y-09625D03*
G54D14*
X26516Y-10216D03*
G54D15*
X28085Y-12535D03*
X28085Y-11835D03*
X28885Y-12185D03*
X29770Y-15241D03*
X29770Y-15941D03*
X28970Y-15591D03*
X27474Y-16610D03*
X27474Y-15910D03*
X28274Y-16260D03*
G54D16*
X30119Y-13484D03*
X28819Y-13484D03*
G54D17*
X25217Y-10905D03*
X25217Y-09605D03*
G54D18*
X29591Y-14409D03*
X28991Y-14409D03*
G54D19*
X26614Y-12505D03*
X26614Y-11905D03*
X27264Y-11885D03*
X27264Y-12485D03*
G54D18*
X29188Y-16574D03*
X29788Y-16574D03*
G54D19*
X30433Y-15930D03*
X30433Y-15330D03*
G54D18*
X26580Y-14567D03*
X25980Y-14567D03*
G54D19*
X24646Y-12850D03*
X24646Y-13450D03*
G54D18*
X30281Y-12185D03*
X29681Y-12185D03*
G54D19*
X28445Y-10792D03*
X28445Y-10192D03*
X24272Y-10555D03*
X24272Y-09955D03*
X26614Y-13243D03*
X26614Y-13843D03*
G54D18*
X25812Y-11772D03*
X25212Y-11772D03*
X25212Y-13465D03*
X25812Y-13465D03*
G54D20*
X33800Y-14814D03*
G54D21*
X33800Y-13814D03*
X33800Y-12814D03*
X33800Y-11814D03*
X33800Y-10814D03*
G54D20*
X23228Y-15650D03*
G54D21*
X23228Y-14650D03*
X23228Y-13650D03*
X23228Y-12650D03*
X23228Y-11650D03*
X23228Y-10650D03*
G54D22*
X28347Y-07480D03*
G54D23*
X28347Y-08268D03*
X27559Y-07480D03*
X27559Y-08268D03*
X26772Y-07480D03*
X26772Y-08268D03*
X25984Y-07480D03*
X25984Y-08268D03*
X25197Y-07480D03*
X25197Y-08268D03*
X24409Y-07480D03*
X24409Y-08268D03*
G54D17*
X27697Y-15157D03*
X27697Y-13857D03*
G54D24*
X32914Y-10236D03*
X31457Y-10275D03*
X30551Y-09330D03*
X25945Y-12559D03*
X24606Y-12165D03*
X23858Y-09449D03*
X31378Y-12795D03*
X31417Y-11968D03*
X32874Y-12283D03*
X28543Y-11319D03*
X24646Y-11535D03*
X28347Y-09645D03*
X27638Y-08897D03*
X30906Y-16771D03*
X30118Y-14291D03*
X22441Y-16693D03*
X23937Y-13149D03*
X30020Y-07480D03*
X23347Y-08976D03*
X34764Y-14330D03*
X34764Y-07559D03*
X34764Y-09134D03*
X34764Y-11260D03*
X34725Y-16693D03*
X29036Y-09350D03*
X24567Y-16693D03*
X23465Y-07480D03*
X22441Y-07559D03*
X22441Y-09842D03*
X22441Y-12126D03*
X26575Y-11417D03*
X26221Y-16693D03*
X22441Y-14173D03*
X24488Y-09055D03*
X25295Y-14665D03*
X26772Y-15649D03*
X29449Y-12756D03*
X31063Y-15315D03*
G54D25*
X32914Y-10236D02*
X32875Y-10275D01*
X32875Y-10275D02*
X31457Y-10275D01*
G54D26*
X24867Y-09955D02*
X25217Y-09605D01*
G54D25*
X27618Y-09625D02*
X27619Y-09625D01*
X27619Y-09625D02*
X28347Y-08897D01*
X28347Y-08897D02*
X28819Y-08897D01*
X28819Y-08897D02*
X29055Y-08661D01*
G54D26*
X24272Y-09955D02*
X24867Y-09955D01*
G54D25*
X25531Y-09291D02*
X25217Y-09605D01*
X27401Y-09291D02*
X27166Y-09291D01*
X27166Y-09291D02*
X25531Y-09291D01*
X27618Y-09625D02*
X27618Y-09508D01*
X27618Y-09508D02*
X27401Y-09291D01*
X29055Y-08661D02*
X29055Y-07244D01*
X29055Y-07244D02*
X28819Y-07008D01*
X28819Y-07008D02*
X27716Y-07008D01*
X27716Y-07008D02*
X27559Y-07165D01*
X27559Y-07165D02*
X27559Y-07480D01*
X28970Y-14803D02*
X28970Y-14430D01*
X28970Y-15591D02*
X28970Y-14803D01*
G54D26*
X28970Y-14430D02*
X28991Y-14409D01*
X29009Y-14427D02*
X28991Y-14409D01*
G54D25*
X31260Y-14803D02*
X32249Y-13814D01*
X32249Y-13814D02*
X33800Y-13814D01*
X28970Y-14803D02*
X30274Y-14803D01*
X30274Y-14803D02*
X31260Y-14803D01*
X24099Y-14650D02*
X24606Y-15157D01*
X24606Y-15157D02*
X27697Y-15157D01*
X23228Y-14650D02*
X24099Y-14650D01*
G54D26*
X25812Y-12426D02*
X25945Y-12559D01*
X25812Y-11772D02*
X25812Y-12426D01*
X25212Y-12140D02*
X25212Y-11772D01*
X25512Y-12559D02*
X25512Y-12440D01*
X25512Y-12440D02*
X25212Y-12140D01*
X25812Y-13253D02*
X25512Y-12953D01*
X23228Y-13650D02*
X23886Y-13650D01*
X25812Y-13716D02*
X25812Y-13465D01*
X25670Y-13858D02*
X25812Y-13716D01*
X25512Y-12953D02*
X25512Y-12559D01*
X24094Y-13858D02*
X25670Y-13858D01*
X23886Y-13650D02*
X24094Y-13858D01*
X25812Y-13465D02*
X25812Y-13253D01*
X24528Y-12165D02*
X23858Y-11495D01*
X23858Y-11495D02*
X23858Y-09449D01*
X24646Y-12850D02*
X24646Y-12205D01*
X24646Y-12205D02*
X24606Y-12165D01*
X24606Y-12165D02*
X24528Y-12165D01*
X26216Y-13843D02*
X26614Y-13843D01*
X22953Y-14134D02*
X25925Y-14134D01*
X22953Y-14134D02*
X22717Y-13898D01*
X23228Y-12650D02*
X23019Y-12650D01*
X22717Y-12952D02*
X22717Y-13898D01*
X25925Y-14134D02*
X26216Y-13843D01*
X23019Y-12650D02*
X22717Y-12952D01*
X26614Y-14533D02*
X26580Y-14567D01*
X26614Y-13843D02*
X26614Y-14533D01*
G54D25*
X31378Y-12795D02*
X31378Y-11968D01*
X31378Y-11968D02*
X31417Y-11968D01*
X24646Y-11142D02*
X24646Y-11535D01*
G54D26*
X29591Y-14012D02*
X30119Y-13484D01*
X30000Y-14409D02*
X30118Y-14291D01*
X27795Y-16968D02*
X27796Y-16969D01*
X27474Y-16647D02*
X27795Y-16968D01*
X25217Y-10905D02*
X24622Y-10905D01*
X29591Y-14409D02*
X30000Y-14409D01*
G54D25*
X30709Y-16968D02*
X30906Y-16771D01*
X30281Y-12632D02*
X30281Y-12185D01*
X27579Y-10807D02*
X27284Y-11102D01*
X30119Y-12794D02*
X30281Y-12632D01*
X27284Y-11102D02*
X25414Y-11102D01*
X28445Y-10792D02*
X29375Y-10792D01*
X27618Y-10807D02*
X27579Y-10807D01*
G54D26*
X27540Y-10807D02*
X27442Y-10905D01*
X28445Y-11221D02*
X28543Y-11319D01*
X27474Y-16610D02*
X27474Y-16647D01*
X29591Y-14409D02*
X29591Y-14012D01*
X28642Y-09350D02*
X28347Y-09645D01*
X26768Y-16610D02*
X25808Y-15650D01*
G54D25*
X30119Y-13484D02*
X30119Y-12794D01*
G54D26*
X29036Y-09350D02*
X28642Y-09350D01*
G54D25*
X27633Y-10792D02*
X27618Y-10807D01*
G54D26*
X27618Y-10807D02*
X27540Y-10807D01*
G54D25*
X30281Y-10861D02*
X30335Y-10807D01*
X23228Y-15650D02*
X23524Y-15650D01*
X23228Y-15906D02*
X22441Y-16693D01*
G54D26*
X25808Y-15650D02*
X23228Y-15650D01*
G54D25*
X28445Y-10792D02*
X27633Y-10792D01*
G54D26*
X29390Y-10807D02*
X30335Y-10807D01*
G54D25*
X25414Y-11102D02*
X25217Y-10905D01*
G54D26*
X30335Y-10807D02*
X30787Y-10807D01*
X27474Y-16610D02*
X26768Y-16610D01*
G54D25*
X25217Y-10905D02*
X24883Y-10905D01*
X23228Y-15650D02*
X23228Y-15906D01*
X23504Y-08819D02*
X23347Y-08976D01*
X24883Y-10905D02*
X24646Y-11142D01*
G54D26*
X24622Y-10905D02*
X24272Y-10555D01*
G54D25*
X27795Y-16968D02*
X30709Y-16968D01*
X34725Y-14369D02*
X34764Y-14330D01*
X34764Y-07559D02*
X34724Y-07519D01*
X34725Y-16693D02*
X34725Y-14369D01*
X34764Y-11260D02*
X34764Y-09134D01*
X23544Y-08819D02*
X23504Y-08819D01*
X30281Y-12185D02*
X30281Y-10861D01*
X23524Y-15650D02*
X24567Y-16693D01*
X23465Y-07480D02*
X23543Y-07558D01*
X22441Y-09842D02*
X22441Y-07559D01*
X29375Y-10792D02*
X29390Y-10807D01*
X23780Y-09055D02*
X24488Y-09055D01*
X23543Y-08818D02*
X23544Y-08819D01*
X23544Y-08819D02*
X23780Y-09055D01*
X23543Y-07558D02*
X23543Y-08818D01*
X22441Y-14173D02*
X22441Y-12126D01*
G54D26*
X28445Y-10792D02*
X28445Y-11221D01*
X28885Y-12185D02*
X28885Y-11746D01*
X28885Y-11746D02*
X29233Y-11398D01*
X28885Y-12185D02*
X29681Y-12185D01*
X25212Y-13465D02*
X24661Y-13465D01*
X24661Y-13465D02*
X24646Y-13450D01*
X25393Y-14567D02*
X25295Y-14665D01*
X26772Y-15649D02*
X27033Y-15910D01*
X27033Y-15910D02*
X27474Y-15910D01*
X25980Y-14567D02*
X25393Y-14567D01*
X29149Y-16535D02*
X29188Y-16574D01*
X28588Y-16574D02*
X28274Y-16260D01*
X29188Y-16574D02*
X28588Y-16574D01*
X27461Y-10216D02*
X26516Y-10216D01*
G54D25*
X28469Y-10216D02*
X28445Y-10192D01*
X29233Y-10216D02*
X28469Y-10216D01*
X27485Y-10192D02*
X27461Y-10216D01*
X28445Y-10192D02*
X27485Y-10192D01*
G54D26*
X29788Y-16574D02*
X29788Y-15959D01*
X29817Y-15930D02*
X30433Y-15930D01*
X29788Y-15959D02*
X29817Y-15930D01*
X29859Y-15330D02*
X29770Y-15241D01*
X30433Y-15330D02*
X29859Y-15330D01*
X27314Y-12535D02*
X27264Y-12485D01*
X28085Y-12535D02*
X27314Y-12535D01*
G54D25*
X28819Y-13269D02*
X28085Y-12535D01*
X28819Y-13484D02*
X28819Y-13269D01*
G54D26*
X28819Y-13386D02*
X29449Y-12756D01*
X31063Y-15315D02*
X31048Y-15330D01*
X31048Y-15330D02*
X30433Y-15330D01*
X28819Y-13484D02*
X28819Y-13386D01*
G54D25*
X28446Y-13857D02*
X28819Y-13484D01*
X27697Y-13857D02*
X28446Y-13857D01*
G54D26*
X26614Y-13243D02*
X26614Y-12505D01*
X27264Y-11885D02*
X28035Y-11885D01*
X28035Y-11885D02*
X28085Y-11835D01*
X26614Y-11905D02*
X27244Y-11905D01*
X27244Y-11905D02*
X27264Y-11885D01*
X28035Y-11885D02*
X28085Y-11835D01*
X26634Y-11885D02*
X26614Y-11905D01*
G54D10*
G36*
X24352Y-12512D02*
X24348Y-12514D01*
X24278Y-12584D01*
X24240Y-12675D01*
X24240Y-12774D01*
X24240Y-13024D01*
X24278Y-13116D01*
X24312Y-13150D01*
X24278Y-13184D01*
X24240Y-13275D01*
X24240Y-13374D01*
X24240Y-13568D01*
X24214Y-13568D01*
X24091Y-13445D01*
X23997Y-13382D01*
X23886Y-13360D01*
X23701Y-13360D01*
X23693Y-13339D01*
X23539Y-13185D01*
X23454Y-13150D01*
X23539Y-13115D01*
X23693Y-12961D01*
X23777Y-12759D01*
X23777Y-12541D01*
X23693Y-12339D01*
X23539Y-12185D01*
X23454Y-12150D01*
X23539Y-12115D01*
X23693Y-11961D01*
X23757Y-11804D01*
X24181Y-12228D01*
X24181Y-12249D01*
X24245Y-12405D01*
X24352Y-12512D01*
X24352Y-12512D01*
G37*
G54D27*
X24352Y-12512D02*
X24348Y-12514D01*
X24278Y-12584D01*
X24240Y-12675D01*
X24240Y-12774D01*
X24240Y-13024D01*
X24278Y-13116D01*
X24312Y-13150D01*
X24278Y-13184D01*
X24240Y-13275D01*
X24240Y-13374D01*
X24240Y-13568D01*
X24214Y-13568D01*
X24091Y-13445D01*
X23997Y-13382D01*
X23886Y-13360D01*
X23701Y-13360D01*
X23693Y-13339D01*
X23539Y-13185D01*
X23454Y-13150D01*
X23539Y-13115D01*
X23693Y-12961D01*
X23777Y-12759D01*
X23777Y-12541D01*
X23693Y-12339D01*
X23539Y-12185D01*
X23454Y-12150D01*
X23539Y-12115D01*
X23693Y-11961D01*
X23757Y-11804D01*
X24181Y-12228D01*
X24181Y-12249D01*
X24245Y-12405D01*
X24352Y-12512D01*
G54D10*
G36*
X28397Y-07530D02*
X28297Y-07530D01*
X28297Y-07430D01*
X28397Y-07430D01*
X28397Y-07530D01*
X28397Y-07530D01*
G37*
G54D27*
X28397Y-07530D02*
X28297Y-07530D01*
X28297Y-07430D01*
X28397Y-07430D01*
X28397Y-07530D01*
G54D10*
G36*
X34911Y-20521D02*
X34350Y-20521D01*
X34350Y-14926D01*
X34288Y-14864D01*
X33850Y-14864D01*
X33850Y-15302D01*
X33912Y-15364D01*
X34051Y-15363D01*
X34150Y-15363D01*
X34241Y-15325D01*
X34311Y-15255D01*
X34349Y-15163D01*
X34350Y-14926D01*
X34350Y-20521D01*
X33750Y-20521D01*
X33750Y-15302D01*
X33750Y-14864D01*
X33312Y-14864D01*
X33250Y-14926D01*
X33251Y-15163D01*
X33289Y-15255D01*
X33359Y-15325D01*
X33450Y-15363D01*
X33549Y-15363D01*
X33688Y-15364D01*
X33750Y-15302D01*
X33750Y-20521D01*
X32355Y-20521D01*
X32463Y-20477D01*
X32699Y-20241D01*
X32828Y-19932D01*
X32828Y-19598D01*
X32701Y-19289D01*
X32465Y-19053D01*
X32156Y-18924D01*
X31822Y-18924D01*
X31513Y-19051D01*
X31277Y-19287D01*
X31148Y-19596D01*
X31148Y-19930D01*
X31275Y-20239D01*
X31511Y-20475D01*
X31621Y-20521D01*
X27904Y-20521D01*
X27904Y-16722D01*
X27842Y-16660D01*
X27524Y-16660D01*
X27524Y-16978D01*
X27586Y-17040D01*
X27605Y-17039D01*
X27704Y-17039D01*
X27795Y-17001D01*
X27865Y-16931D01*
X27903Y-16839D01*
X27904Y-16722D01*
X27904Y-20521D01*
X27424Y-20521D01*
X27424Y-16978D01*
X27424Y-16660D01*
X27106Y-16660D01*
X27044Y-16722D01*
X27045Y-16839D01*
X27083Y-16931D01*
X27153Y-17001D01*
X27244Y-17039D01*
X27343Y-17039D01*
X27362Y-17040D01*
X27424Y-16978D01*
X27424Y-20521D01*
X24973Y-20521D01*
X25081Y-20477D01*
X25317Y-20241D01*
X25446Y-19932D01*
X25446Y-19598D01*
X25319Y-19289D01*
X25083Y-19053D01*
X24774Y-18924D01*
X24440Y-18924D01*
X24131Y-19051D01*
X23895Y-19287D01*
X23778Y-19567D01*
X23778Y-15762D01*
X23716Y-15700D01*
X23278Y-15700D01*
X23278Y-16138D01*
X23340Y-16200D01*
X23479Y-16199D01*
X23578Y-16199D01*
X23669Y-16161D01*
X23739Y-16091D01*
X23777Y-15999D01*
X23778Y-15762D01*
X23778Y-19567D01*
X23766Y-19596D01*
X23766Y-19930D01*
X23893Y-20239D01*
X24129Y-20475D01*
X24239Y-20521D01*
X23178Y-20521D01*
X23178Y-16138D01*
X23178Y-15700D01*
X22740Y-15700D01*
X22678Y-15762D01*
X22679Y-15999D01*
X22717Y-16091D01*
X22787Y-16161D01*
X22878Y-16199D01*
X22977Y-16199D01*
X23116Y-16200D01*
X23178Y-16138D01*
X23178Y-20521D01*
X22175Y-20521D01*
X22175Y-07057D01*
X24118Y-07057D01*
X23981Y-07194D01*
X23904Y-07379D01*
X23904Y-07580D01*
X23981Y-07766D01*
X24089Y-07874D01*
X23981Y-07982D01*
X23904Y-08167D01*
X23904Y-08368D01*
X23981Y-08554D01*
X24123Y-08696D01*
X24308Y-08773D01*
X24509Y-08773D01*
X24695Y-08696D01*
X24803Y-08588D01*
X24911Y-08696D01*
X25096Y-08773D01*
X25297Y-08773D01*
X25483Y-08696D01*
X25590Y-08588D01*
X25698Y-08696D01*
X25883Y-08773D01*
X26084Y-08773D01*
X26270Y-08696D01*
X26378Y-08588D01*
X26486Y-08696D01*
X26671Y-08773D01*
X26872Y-08773D01*
X27058Y-08696D01*
X27165Y-08588D01*
X27273Y-08696D01*
X27458Y-08773D01*
X27659Y-08773D01*
X27845Y-08696D01*
X27953Y-08588D01*
X28058Y-08693D01*
X27677Y-09075D01*
X27647Y-09045D01*
X27535Y-08969D01*
X27401Y-08943D01*
X27166Y-08943D01*
X25531Y-08943D01*
X25397Y-08969D01*
X25285Y-09045D01*
X25274Y-09056D01*
X24768Y-09056D01*
X24676Y-09094D01*
X24606Y-09164D01*
X24568Y-09255D01*
X24568Y-09354D01*
X24568Y-09618D01*
X24479Y-09581D01*
X24380Y-09581D01*
X24263Y-09581D01*
X24283Y-09534D01*
X24283Y-09365D01*
X24219Y-09209D01*
X24099Y-09089D01*
X23943Y-09024D01*
X23774Y-09024D01*
X23618Y-09088D01*
X23498Y-09208D01*
X23433Y-09364D01*
X23433Y-09533D01*
X23497Y-09689D01*
X23568Y-09760D01*
X23568Y-10214D01*
X23539Y-10185D01*
X23337Y-10101D01*
X23119Y-10101D01*
X22917Y-10185D01*
X22763Y-10339D01*
X22679Y-10541D01*
X22679Y-10759D01*
X22763Y-10961D01*
X22917Y-11115D01*
X23001Y-11150D01*
X22917Y-11185D01*
X22763Y-11339D01*
X22679Y-11541D01*
X22679Y-11759D01*
X22763Y-11961D01*
X22917Y-12115D01*
X23001Y-12150D01*
X22917Y-12185D01*
X22763Y-12339D01*
X22679Y-12541D01*
X22679Y-12580D01*
X22512Y-12747D01*
X22449Y-12841D01*
X22427Y-12952D01*
X22427Y-13898D01*
X22449Y-14009D01*
X22512Y-14103D01*
X22747Y-14339D01*
X22748Y-14339D01*
X22759Y-14346D01*
X22759Y-14347D01*
X22679Y-14541D01*
X22679Y-14759D01*
X22763Y-14961D01*
X22903Y-15101D01*
X22878Y-15101D01*
X22787Y-15139D01*
X22717Y-15209D01*
X22679Y-15301D01*
X22678Y-15538D01*
X22740Y-15600D01*
X23128Y-15600D01*
X23178Y-15600D01*
X23278Y-15600D01*
X23328Y-15600D01*
X23716Y-15600D01*
X23778Y-15538D01*
X23777Y-15301D01*
X23739Y-15209D01*
X23669Y-15139D01*
X23578Y-15101D01*
X23553Y-15101D01*
X23656Y-14998D01*
X23955Y-14998D01*
X24360Y-15403D01*
X24472Y-15479D01*
X24473Y-15479D01*
X24606Y-15505D01*
X26371Y-15505D01*
X26347Y-15564D01*
X26347Y-15733D01*
X26411Y-15889D01*
X26531Y-16009D01*
X26687Y-16074D01*
X26787Y-16074D01*
X26828Y-16115D01*
X26922Y-16178D01*
X27033Y-16200D01*
X27070Y-16200D01*
X27083Y-16231D01*
X27112Y-16260D01*
X27083Y-16289D01*
X27045Y-16381D01*
X27044Y-16498D01*
X27106Y-16560D01*
X27374Y-16560D01*
X27424Y-16560D01*
X27524Y-16560D01*
X27574Y-16560D01*
X27842Y-16560D01*
X27864Y-16537D01*
X27883Y-16581D01*
X27953Y-16651D01*
X28044Y-16689D01*
X28143Y-16689D01*
X28293Y-16689D01*
X28383Y-16779D01*
X28477Y-16842D01*
X28588Y-16864D01*
X28848Y-16864D01*
X28852Y-16872D01*
X28922Y-16942D01*
X29013Y-16980D01*
X29112Y-16980D01*
X29362Y-16980D01*
X29454Y-16942D01*
X29488Y-16908D01*
X29522Y-16942D01*
X29613Y-16980D01*
X29712Y-16980D01*
X29962Y-16980D01*
X30054Y-16942D01*
X30124Y-16872D01*
X30162Y-16781D01*
X30162Y-16682D01*
X30162Y-16368D01*
X30130Y-16292D01*
X30150Y-16272D01*
X30226Y-16304D01*
X30325Y-16304D01*
X30639Y-16304D01*
X30731Y-16266D01*
X30801Y-16196D01*
X30839Y-16105D01*
X30839Y-16006D01*
X30839Y-15756D01*
X30801Y-15664D01*
X30767Y-15630D01*
X30772Y-15625D01*
X30822Y-15675D01*
X30978Y-15740D01*
X31147Y-15740D01*
X31303Y-15676D01*
X31423Y-15556D01*
X31488Y-15400D01*
X31488Y-15231D01*
X31433Y-15098D01*
X31433Y-15097D01*
X31506Y-15049D01*
X32393Y-14162D01*
X33372Y-14162D01*
X33475Y-14265D01*
X33450Y-14265D01*
X33359Y-14303D01*
X33289Y-14373D01*
X33251Y-14465D01*
X33250Y-14702D01*
X33312Y-14764D01*
X33700Y-14764D01*
X33750Y-14764D01*
X33850Y-14764D01*
X33900Y-14764D01*
X34288Y-14764D01*
X34350Y-14702D01*
X34349Y-14465D01*
X34311Y-14373D01*
X34241Y-14303D01*
X34150Y-14265D01*
X34125Y-14265D01*
X34265Y-14125D01*
X34349Y-13923D01*
X34349Y-13705D01*
X34265Y-13503D01*
X34111Y-13349D01*
X34026Y-13314D01*
X34111Y-13279D01*
X34265Y-13125D01*
X34349Y-12923D01*
X34349Y-12705D01*
X34265Y-12503D01*
X34111Y-12349D01*
X34026Y-12314D01*
X34111Y-12279D01*
X34265Y-12125D01*
X34349Y-11923D01*
X34349Y-11705D01*
X34265Y-11503D01*
X34111Y-11349D01*
X34026Y-11314D01*
X34111Y-11279D01*
X34265Y-11125D01*
X34349Y-10923D01*
X34349Y-10705D01*
X34265Y-10503D01*
X34111Y-10349D01*
X33909Y-10265D01*
X33691Y-10265D01*
X33489Y-10349D01*
X33339Y-10499D01*
X33339Y-10321D01*
X33339Y-10152D01*
X33275Y-09996D01*
X33155Y-09876D01*
X32999Y-09811D01*
X32830Y-09811D01*
X32674Y-09875D01*
X32622Y-09927D01*
X31710Y-09927D01*
X31698Y-09915D01*
X31542Y-09850D01*
X31373Y-09850D01*
X31217Y-09914D01*
X31097Y-10034D01*
X31038Y-10174D01*
X31027Y-10163D01*
X30976Y-10141D01*
X30976Y-09415D01*
X30976Y-09246D01*
X30912Y-09090D01*
X30792Y-08970D01*
X30636Y-08905D01*
X30467Y-08905D01*
X30311Y-08969D01*
X30191Y-09089D01*
X30126Y-09245D01*
X30126Y-09414D01*
X30190Y-09570D01*
X30310Y-09690D01*
X30466Y-09755D01*
X30635Y-09755D01*
X30791Y-09691D01*
X30911Y-09571D01*
X30976Y-09415D01*
X30976Y-10141D01*
X30936Y-10125D01*
X30837Y-10125D01*
X30447Y-10124D01*
X30385Y-10186D01*
X30385Y-10757D01*
X31074Y-10757D01*
X31136Y-10695D01*
X31135Y-10554D01*
X31216Y-10635D01*
X31372Y-10700D01*
X31541Y-10700D01*
X31697Y-10636D01*
X31710Y-10623D01*
X32737Y-10623D01*
X32829Y-10661D01*
X32998Y-10661D01*
X33154Y-10597D01*
X33274Y-10477D01*
X33339Y-10321D01*
X33339Y-10499D01*
X33335Y-10503D01*
X33251Y-10705D01*
X33251Y-10923D01*
X33335Y-11125D01*
X33489Y-11279D01*
X33573Y-11314D01*
X33489Y-11349D01*
X33335Y-11503D01*
X33251Y-11705D01*
X33251Y-11923D01*
X33335Y-12125D01*
X33489Y-12279D01*
X33573Y-12314D01*
X33489Y-12349D01*
X33335Y-12503D01*
X33251Y-12705D01*
X33251Y-12923D01*
X33335Y-13125D01*
X33489Y-13279D01*
X33573Y-13314D01*
X33489Y-13349D01*
X33372Y-13466D01*
X32249Y-13466D01*
X32116Y-13492D01*
X32078Y-13517D01*
X32002Y-13568D01*
X31136Y-14434D01*
X31136Y-10919D01*
X31074Y-10857D01*
X30385Y-10857D01*
X30385Y-11428D01*
X30447Y-11490D01*
X30837Y-11489D01*
X30936Y-11489D01*
X31027Y-11451D01*
X31097Y-11381D01*
X31135Y-11289D01*
X31136Y-10919D01*
X31136Y-14434D01*
X31115Y-14455D01*
X30669Y-14455D01*
X30669Y-13596D01*
X30669Y-13372D01*
X30668Y-13133D01*
X30668Y-13034D01*
X30655Y-13002D01*
X30655Y-12392D01*
X30655Y-12296D01*
X30655Y-12074D01*
X30655Y-11978D01*
X30617Y-11887D01*
X30547Y-11817D01*
X30455Y-11779D01*
X30393Y-11778D01*
X30331Y-11840D01*
X30331Y-12135D01*
X30594Y-12135D01*
X30655Y-12074D01*
X30655Y-12296D01*
X30594Y-12235D01*
X30331Y-12235D01*
X30331Y-12530D01*
X30393Y-12592D01*
X30455Y-12591D01*
X30547Y-12553D01*
X30617Y-12483D01*
X30655Y-12392D01*
X30655Y-13002D01*
X30630Y-12943D01*
X30560Y-12873D01*
X30468Y-12835D01*
X30231Y-12834D01*
X30169Y-12896D01*
X30169Y-13434D01*
X30607Y-13434D01*
X30669Y-13372D01*
X30669Y-13596D01*
X30607Y-13534D01*
X30169Y-13534D01*
X30169Y-14072D01*
X30231Y-14134D01*
X30468Y-14133D01*
X30560Y-14095D01*
X30630Y-14025D01*
X30668Y-13934D01*
X30668Y-13835D01*
X30669Y-13596D01*
X30669Y-14455D01*
X30274Y-14455D01*
X30069Y-14455D01*
X30069Y-14072D01*
X30069Y-13534D01*
X29631Y-13534D01*
X29569Y-13596D01*
X29570Y-13835D01*
X29570Y-13934D01*
X29608Y-14025D01*
X29644Y-14061D01*
X29641Y-14064D01*
X29641Y-14359D01*
X29904Y-14359D01*
X29965Y-14298D01*
X29965Y-14202D01*
X29936Y-14133D01*
X30007Y-14134D01*
X30069Y-14072D01*
X30069Y-14455D01*
X29541Y-14455D01*
X29541Y-14359D01*
X29541Y-14309D01*
X29541Y-14064D01*
X29479Y-14002D01*
X29417Y-14003D01*
X29325Y-14041D01*
X29291Y-14075D01*
X29285Y-14069D01*
X29330Y-14025D01*
X29368Y-13934D01*
X29368Y-13835D01*
X29368Y-13247D01*
X29434Y-13181D01*
X29533Y-13181D01*
X29569Y-13165D01*
X29569Y-13372D01*
X29631Y-13434D01*
X30069Y-13434D01*
X30069Y-12896D01*
X30007Y-12834D01*
X29874Y-12834D01*
X29874Y-12672D01*
X29840Y-12591D01*
X29855Y-12591D01*
X29947Y-12553D01*
X29981Y-12519D01*
X30015Y-12553D01*
X30107Y-12591D01*
X30169Y-12592D01*
X30231Y-12530D01*
X30231Y-12285D01*
X30231Y-12235D01*
X30231Y-12135D01*
X30231Y-12085D01*
X30231Y-11840D01*
X30169Y-11778D01*
X30107Y-11779D01*
X30015Y-11817D01*
X29981Y-11851D01*
X29947Y-11817D01*
X29856Y-11779D01*
X29757Y-11779D01*
X29532Y-11779D01*
X29610Y-11747D01*
X29680Y-11677D01*
X29718Y-11586D01*
X29718Y-11487D01*
X29718Y-11482D01*
X29734Y-11489D01*
X29833Y-11489D01*
X30223Y-11490D01*
X30285Y-11428D01*
X30285Y-10857D01*
X29971Y-10857D01*
X29596Y-10857D01*
X29490Y-10857D01*
X29440Y-10857D01*
X29340Y-10857D01*
X29290Y-10857D01*
X28809Y-10857D01*
X28807Y-10859D01*
X28790Y-10842D01*
X28495Y-10842D01*
X28495Y-11105D01*
X28556Y-11166D01*
X28652Y-11166D01*
X28743Y-11128D01*
X28785Y-11085D01*
X28786Y-11086D01*
X28802Y-11102D01*
X28786Y-11119D01*
X28748Y-11210D01*
X28748Y-11309D01*
X28748Y-11473D01*
X28680Y-11541D01*
X28617Y-11635D01*
X28595Y-11746D01*
X28595Y-11781D01*
X28564Y-11794D01*
X28514Y-11844D01*
X28514Y-11606D01*
X28476Y-11514D01*
X28406Y-11444D01*
X28395Y-11439D01*
X28395Y-11105D01*
X28395Y-10842D01*
X28100Y-10842D01*
X28063Y-10878D01*
X28042Y-10857D01*
X27668Y-10857D01*
X27668Y-11133D01*
X27730Y-11195D01*
X27805Y-11194D01*
X27904Y-11194D01*
X27995Y-11156D01*
X28065Y-11086D01*
X28076Y-11057D01*
X28077Y-11058D01*
X28147Y-11128D01*
X28238Y-11166D01*
X28334Y-11166D01*
X28395Y-11105D01*
X28395Y-11439D01*
X28315Y-11406D01*
X28216Y-11406D01*
X27856Y-11406D01*
X27764Y-11444D01*
X27694Y-11514D01*
X27660Y-11595D01*
X27608Y-11595D01*
X27562Y-11549D01*
X27471Y-11511D01*
X27372Y-11511D01*
X27058Y-11511D01*
X26966Y-11549D01*
X26929Y-11586D01*
X26912Y-11569D01*
X26821Y-11531D01*
X26722Y-11531D01*
X26408Y-11531D01*
X26316Y-11569D01*
X26246Y-11639D01*
X26208Y-11730D01*
X26208Y-11829D01*
X26208Y-12079D01*
X26246Y-12171D01*
X26280Y-12205D01*
X26246Y-12239D01*
X26240Y-12253D01*
X26186Y-12199D01*
X26102Y-12164D01*
X26102Y-12116D01*
X26148Y-12070D01*
X26186Y-11979D01*
X26186Y-11880D01*
X26186Y-11566D01*
X26148Y-11474D01*
X26078Y-11404D01*
X25987Y-11366D01*
X25888Y-11366D01*
X25808Y-11366D01*
X25828Y-11346D01*
X25866Y-11254D01*
X25867Y-11017D01*
X25805Y-10955D01*
X25317Y-10955D01*
X25267Y-10955D01*
X25167Y-10955D01*
X25117Y-10955D01*
X24629Y-10955D01*
X24567Y-11017D01*
X24568Y-11254D01*
X24606Y-11346D01*
X24676Y-11416D01*
X24767Y-11454D01*
X24866Y-11454D01*
X24895Y-11454D01*
X24876Y-11474D01*
X24838Y-11565D01*
X24838Y-11664D01*
X24838Y-11801D01*
X24691Y-11740D01*
X24522Y-11740D01*
X24515Y-11742D01*
X24148Y-11375D01*
X24148Y-10929D01*
X24161Y-10929D01*
X24222Y-10868D01*
X24222Y-10655D01*
X24222Y-10605D01*
X24222Y-10505D01*
X24322Y-10505D01*
X24322Y-10605D01*
X24322Y-10655D01*
X24322Y-10868D01*
X24383Y-10929D01*
X24479Y-10929D01*
X24570Y-10891D01*
X24617Y-10843D01*
X24629Y-10855D01*
X25167Y-10855D01*
X25167Y-10417D01*
X25105Y-10355D01*
X24866Y-10356D01*
X24767Y-10356D01*
X24678Y-10393D01*
X24678Y-10381D01*
X24640Y-10289D01*
X24606Y-10255D01*
X24616Y-10245D01*
X24867Y-10245D01*
X24978Y-10223D01*
X25072Y-10160D01*
X25078Y-10154D01*
X25666Y-10154D01*
X25716Y-10133D01*
X25716Y-10376D01*
X25667Y-10356D01*
X25568Y-10356D01*
X25329Y-10355D01*
X25267Y-10417D01*
X25267Y-10855D01*
X25805Y-10855D01*
X25812Y-10848D01*
X25824Y-10860D01*
X25915Y-10898D01*
X26014Y-10898D01*
X27116Y-10898D01*
X27132Y-10891D01*
X27132Y-10907D01*
X27143Y-10907D01*
X27132Y-10919D01*
X27133Y-10994D01*
X27171Y-11086D01*
X27241Y-11156D01*
X27332Y-11194D01*
X27431Y-11194D01*
X27506Y-11195D01*
X27568Y-11133D01*
X27568Y-10907D01*
X27568Y-10857D01*
X27568Y-10757D01*
X27668Y-10757D01*
X27718Y-10757D01*
X28042Y-10757D01*
X28078Y-10720D01*
X28100Y-10742D01*
X28345Y-10742D01*
X28395Y-10742D01*
X28495Y-10742D01*
X28545Y-10742D01*
X28790Y-10742D01*
X28792Y-10740D01*
X28809Y-10757D01*
X29290Y-10757D01*
X29340Y-10757D01*
X29440Y-10757D01*
X29490Y-10757D01*
X29596Y-10757D01*
X29971Y-10757D01*
X30285Y-10757D01*
X30285Y-10186D01*
X30223Y-10124D01*
X29833Y-10125D01*
X29734Y-10125D01*
X29718Y-10131D01*
X29718Y-10029D01*
X29680Y-09937D01*
X29610Y-09867D01*
X29519Y-09829D01*
X29420Y-09829D01*
X28948Y-09829D01*
X28856Y-09867D01*
X28855Y-09868D01*
X28755Y-09868D01*
X28743Y-09856D01*
X28652Y-09818D01*
X28553Y-09818D01*
X28239Y-09818D01*
X28176Y-09844D01*
X28090Y-09844D01*
X28103Y-09813D01*
X28103Y-09714D01*
X28103Y-09633D01*
X28491Y-09245D01*
X28819Y-09245D01*
X28952Y-09219D01*
X28953Y-09219D01*
X29065Y-09143D01*
X29301Y-08908D01*
X29301Y-08907D01*
X29351Y-08832D01*
X29376Y-08795D01*
X29377Y-08794D01*
X29402Y-08662D01*
X29403Y-08661D01*
X29403Y-07244D01*
X29402Y-07243D01*
X29377Y-07111D01*
X29376Y-07110D01*
X29351Y-07073D01*
X29340Y-07057D01*
X31479Y-07057D01*
X31336Y-07200D01*
X31207Y-07509D01*
X31207Y-07843D01*
X31334Y-08152D01*
X31570Y-08388D01*
X31879Y-08517D01*
X32213Y-08517D01*
X32522Y-08390D01*
X32758Y-08154D01*
X32887Y-07845D01*
X32887Y-07511D01*
X32760Y-07202D01*
X32615Y-07057D01*
X34911Y-07057D01*
X34911Y-20521D01*
X34911Y-20521D01*
G37*
G54D27*
X34911Y-20521D02*
X34350Y-20521D01*
X34350Y-14926D01*
X34288Y-14864D01*
X33850Y-14864D01*
X33850Y-15302D01*
X33912Y-15364D01*
X34051Y-15363D01*
X34150Y-15363D01*
X34241Y-15325D01*
X34311Y-15255D01*
X34349Y-15163D01*
X34350Y-14926D01*
X34350Y-20521D01*
X33750Y-20521D01*
X33750Y-15302D01*
X33750Y-14864D01*
X33312Y-14864D01*
X33250Y-14926D01*
X33251Y-15163D01*
X33289Y-15255D01*
X33359Y-15325D01*
X33450Y-15363D01*
X33549Y-15363D01*
X33688Y-15364D01*
X33750Y-15302D01*
X33750Y-20521D01*
X32355Y-20521D01*
X32463Y-20477D01*
X32699Y-20241D01*
X32828Y-19932D01*
X32828Y-19598D01*
X32701Y-19289D01*
X32465Y-19053D01*
X32156Y-18924D01*
X31822Y-18924D01*
X31513Y-19051D01*
X31277Y-19287D01*
X31148Y-19596D01*
X31148Y-19930D01*
X31275Y-20239D01*
X31511Y-20475D01*
X31621Y-20521D01*
X27904Y-20521D01*
X27904Y-16722D01*
X27842Y-16660D01*
X27524Y-16660D01*
X27524Y-16978D01*
X27586Y-17040D01*
X27605Y-17039D01*
X27704Y-17039D01*
X27795Y-17001D01*
X27865Y-16931D01*
X27903Y-16839D01*
X27904Y-16722D01*
X27904Y-20521D01*
X27424Y-20521D01*
X27424Y-16978D01*
X27424Y-16660D01*
X27106Y-16660D01*
X27044Y-16722D01*
X27045Y-16839D01*
X27083Y-16931D01*
X27153Y-17001D01*
X27244Y-17039D01*
X27343Y-17039D01*
X27362Y-17040D01*
X27424Y-16978D01*
X27424Y-20521D01*
X24973Y-20521D01*
X25081Y-20477D01*
X25317Y-20241D01*
X25446Y-19932D01*
X25446Y-19598D01*
X25319Y-19289D01*
X25083Y-19053D01*
X24774Y-18924D01*
X24440Y-18924D01*
X24131Y-19051D01*
X23895Y-19287D01*
X23778Y-19567D01*
X23778Y-15762D01*
X23716Y-15700D01*
X23278Y-15700D01*
X23278Y-16138D01*
X23340Y-16200D01*
X23479Y-16199D01*
X23578Y-16199D01*
X23669Y-16161D01*
X23739Y-16091D01*
X23777Y-15999D01*
X23778Y-15762D01*
X23778Y-19567D01*
X23766Y-19596D01*
X23766Y-19930D01*
X23893Y-20239D01*
X24129Y-20475D01*
X24239Y-20521D01*
X23178Y-20521D01*
X23178Y-16138D01*
X23178Y-15700D01*
X22740Y-15700D01*
X22678Y-15762D01*
X22679Y-15999D01*
X22717Y-16091D01*
X22787Y-16161D01*
X22878Y-16199D01*
X22977Y-16199D01*
X23116Y-16200D01*
X23178Y-16138D01*
X23178Y-20521D01*
X22175Y-20521D01*
X22175Y-07057D01*
X24118Y-07057D01*
X23981Y-07194D01*
X23904Y-07379D01*
X23904Y-07580D01*
X23981Y-07766D01*
X24089Y-07874D01*
X23981Y-07982D01*
X23904Y-08167D01*
X23904Y-08368D01*
X23981Y-08554D01*
X24123Y-08696D01*
X24308Y-08773D01*
X24509Y-08773D01*
X24695Y-08696D01*
X24803Y-08588D01*
X24911Y-08696D01*
X25096Y-08773D01*
X25297Y-08773D01*
X25483Y-08696D01*
X25590Y-08588D01*
X25698Y-08696D01*
X25883Y-08773D01*
X26084Y-08773D01*
X26270Y-08696D01*
X26378Y-08588D01*
X26486Y-08696D01*
X26671Y-08773D01*
X26872Y-08773D01*
X27058Y-08696D01*
X27165Y-08588D01*
X27273Y-08696D01*
X27458Y-08773D01*
X27659Y-08773D01*
X27845Y-08696D01*
X27953Y-08588D01*
X28058Y-08693D01*
X27677Y-09075D01*
X27647Y-09045D01*
X27535Y-08969D01*
X27401Y-08943D01*
X27166Y-08943D01*
X25531Y-08943D01*
X25397Y-08969D01*
X25285Y-09045D01*
X25274Y-09056D01*
X24768Y-09056D01*
X24676Y-09094D01*
X24606Y-09164D01*
X24568Y-09255D01*
X24568Y-09354D01*
X24568Y-09618D01*
X24479Y-09581D01*
X24380Y-09581D01*
X24263Y-09581D01*
X24283Y-09534D01*
X24283Y-09365D01*
X24219Y-09209D01*
X24099Y-09089D01*
X23943Y-09024D01*
X23774Y-09024D01*
X23618Y-09088D01*
X23498Y-09208D01*
X23433Y-09364D01*
X23433Y-09533D01*
X23497Y-09689D01*
X23568Y-09760D01*
X23568Y-10214D01*
X23539Y-10185D01*
X23337Y-10101D01*
X23119Y-10101D01*
X22917Y-10185D01*
X22763Y-10339D01*
X22679Y-10541D01*
X22679Y-10759D01*
X22763Y-10961D01*
X22917Y-11115D01*
X23001Y-11150D01*
X22917Y-11185D01*
X22763Y-11339D01*
X22679Y-11541D01*
X22679Y-11759D01*
X22763Y-11961D01*
X22917Y-12115D01*
X23001Y-12150D01*
X22917Y-12185D01*
X22763Y-12339D01*
X22679Y-12541D01*
X22679Y-12580D01*
X22512Y-12747D01*
X22449Y-12841D01*
X22427Y-12952D01*
X22427Y-13898D01*
X22449Y-14009D01*
X22512Y-14103D01*
X22747Y-14339D01*
X22748Y-14339D01*
X22759Y-14346D01*
X22759Y-14347D01*
X22679Y-14541D01*
X22679Y-14759D01*
X22763Y-14961D01*
X22903Y-15101D01*
X22878Y-15101D01*
X22787Y-15139D01*
X22717Y-15209D01*
X22679Y-15301D01*
X22678Y-15538D01*
X22740Y-15600D01*
X23128Y-15600D01*
X23178Y-15600D01*
X23278Y-15600D01*
X23328Y-15600D01*
X23716Y-15600D01*
X23778Y-15538D01*
X23777Y-15301D01*
X23739Y-15209D01*
X23669Y-15139D01*
X23578Y-15101D01*
X23553Y-15101D01*
X23656Y-14998D01*
X23955Y-14998D01*
X24360Y-15403D01*
X24472Y-15479D01*
X24473Y-15479D01*
X24606Y-15505D01*
X26371Y-15505D01*
X26347Y-15564D01*
X26347Y-15733D01*
X26411Y-15889D01*
X26531Y-16009D01*
X26687Y-16074D01*
X26787Y-16074D01*
X26828Y-16115D01*
X26922Y-16178D01*
X27033Y-16200D01*
X27070Y-16200D01*
X27083Y-16231D01*
X27112Y-16260D01*
X27083Y-16289D01*
X27045Y-16381D01*
X27044Y-16498D01*
X27106Y-16560D01*
X27374Y-16560D01*
X27424Y-16560D01*
X27524Y-16560D01*
X27574Y-16560D01*
X27842Y-16560D01*
X27864Y-16537D01*
X27883Y-16581D01*
X27953Y-16651D01*
X28044Y-16689D01*
X28143Y-16689D01*
X28293Y-16689D01*
X28383Y-16779D01*
X28477Y-16842D01*
X28588Y-16864D01*
X28848Y-16864D01*
X28852Y-16872D01*
X28922Y-16942D01*
X29013Y-16980D01*
X29112Y-16980D01*
X29362Y-16980D01*
X29454Y-16942D01*
X29488Y-16908D01*
X29522Y-16942D01*
X29613Y-16980D01*
X29712Y-16980D01*
X29962Y-16980D01*
X30054Y-16942D01*
X30124Y-16872D01*
X30162Y-16781D01*
X30162Y-16682D01*
X30162Y-16368D01*
X30130Y-16292D01*
X30150Y-16272D01*
X30226Y-16304D01*
X30325Y-16304D01*
X30639Y-16304D01*
X30731Y-16266D01*
X30801Y-16196D01*
X30839Y-16105D01*
X30839Y-16006D01*
X30839Y-15756D01*
X30801Y-15664D01*
X30767Y-15630D01*
X30772Y-15625D01*
X30822Y-15675D01*
X30978Y-15740D01*
X31147Y-15740D01*
X31303Y-15676D01*
X31423Y-15556D01*
X31488Y-15400D01*
X31488Y-15231D01*
X31433Y-15098D01*
X31433Y-15097D01*
X31506Y-15049D01*
X32393Y-14162D01*
X33372Y-14162D01*
X33475Y-14265D01*
X33450Y-14265D01*
X33359Y-14303D01*
X33289Y-14373D01*
X33251Y-14465D01*
X33250Y-14702D01*
X33312Y-14764D01*
X33700Y-14764D01*
X33750Y-14764D01*
X33850Y-14764D01*
X33900Y-14764D01*
X34288Y-14764D01*
X34350Y-14702D01*
X34349Y-14465D01*
X34311Y-14373D01*
X34241Y-14303D01*
X34150Y-14265D01*
X34125Y-14265D01*
X34265Y-14125D01*
X34349Y-13923D01*
X34349Y-13705D01*
X34265Y-13503D01*
X34111Y-13349D01*
X34026Y-13314D01*
X34111Y-13279D01*
X34265Y-13125D01*
X34349Y-12923D01*
X34349Y-12705D01*
X34265Y-12503D01*
X34111Y-12349D01*
X34026Y-12314D01*
X34111Y-12279D01*
X34265Y-12125D01*
X34349Y-11923D01*
X34349Y-11705D01*
X34265Y-11503D01*
X34111Y-11349D01*
X34026Y-11314D01*
X34111Y-11279D01*
X34265Y-11125D01*
X34349Y-10923D01*
X34349Y-10705D01*
X34265Y-10503D01*
X34111Y-10349D01*
X33909Y-10265D01*
X33691Y-10265D01*
X33489Y-10349D01*
X33339Y-10499D01*
X33339Y-10321D01*
X33339Y-10152D01*
X33275Y-09996D01*
X33155Y-09876D01*
X32999Y-09811D01*
X32830Y-09811D01*
X32674Y-09875D01*
X32622Y-09927D01*
X31710Y-09927D01*
X31698Y-09915D01*
X31542Y-09850D01*
X31373Y-09850D01*
X31217Y-09914D01*
X31097Y-10034D01*
X31038Y-10174D01*
X31027Y-10163D01*
X30976Y-10141D01*
X30976Y-09415D01*
X30976Y-09246D01*
X30912Y-09090D01*
X30792Y-08970D01*
X30636Y-08905D01*
X30467Y-08905D01*
X30311Y-08969D01*
X30191Y-09089D01*
X30126Y-09245D01*
X30126Y-09414D01*
X30190Y-09570D01*
X30310Y-09690D01*
X30466Y-09755D01*
X30635Y-09755D01*
X30791Y-09691D01*
X30911Y-09571D01*
X30976Y-09415D01*
X30976Y-10141D01*
X30936Y-10125D01*
X30837Y-10125D01*
X30447Y-10124D01*
X30385Y-10186D01*
X30385Y-10757D01*
X31074Y-10757D01*
X31136Y-10695D01*
X31135Y-10554D01*
X31216Y-10635D01*
X31372Y-10700D01*
X31541Y-10700D01*
X31697Y-10636D01*
X31710Y-10623D01*
X32737Y-10623D01*
X32829Y-10661D01*
X32998Y-10661D01*
X33154Y-10597D01*
X33274Y-10477D01*
X33339Y-10321D01*
X33339Y-10499D01*
X33335Y-10503D01*
X33251Y-10705D01*
X33251Y-10923D01*
X33335Y-11125D01*
X33489Y-11279D01*
X33573Y-11314D01*
X33489Y-11349D01*
X33335Y-11503D01*
X33251Y-11705D01*
X33251Y-11923D01*
X33335Y-12125D01*
X33489Y-12279D01*
X33573Y-12314D01*
X33489Y-12349D01*
X33335Y-12503D01*
X33251Y-12705D01*
X33251Y-12923D01*
X33335Y-13125D01*
X33489Y-13279D01*
X33573Y-13314D01*
X33489Y-13349D01*
X33372Y-13466D01*
X32249Y-13466D01*
X32116Y-13492D01*
X32078Y-13517D01*
X32002Y-13568D01*
X31136Y-14434D01*
X31136Y-10919D01*
X31074Y-10857D01*
X30385Y-10857D01*
X30385Y-11428D01*
X30447Y-11490D01*
X30837Y-11489D01*
X30936Y-11489D01*
X31027Y-11451D01*
X31097Y-11381D01*
X31135Y-11289D01*
X31136Y-10919D01*
X31136Y-14434D01*
X31115Y-14455D01*
X30669Y-14455D01*
X30669Y-13596D01*
X30669Y-13372D01*
X30668Y-13133D01*
X30668Y-13034D01*
X30655Y-13002D01*
X30655Y-12392D01*
X30655Y-12296D01*
X30655Y-12074D01*
X30655Y-11978D01*
X30617Y-11887D01*
X30547Y-11817D01*
X30455Y-11779D01*
X30393Y-11778D01*
X30331Y-11840D01*
X30331Y-12135D01*
X30594Y-12135D01*
X30655Y-12074D01*
X30655Y-12296D01*
X30594Y-12235D01*
X30331Y-12235D01*
X30331Y-12530D01*
X30393Y-12592D01*
X30455Y-12591D01*
X30547Y-12553D01*
X30617Y-12483D01*
X30655Y-12392D01*
X30655Y-13002D01*
X30630Y-12943D01*
X30560Y-12873D01*
X30468Y-12835D01*
X30231Y-12834D01*
X30169Y-12896D01*
X30169Y-13434D01*
X30607Y-13434D01*
X30669Y-13372D01*
X30669Y-13596D01*
X30607Y-13534D01*
X30169Y-13534D01*
X30169Y-14072D01*
X30231Y-14134D01*
X30468Y-14133D01*
X30560Y-14095D01*
X30630Y-14025D01*
X30668Y-13934D01*
X30668Y-13835D01*
X30669Y-13596D01*
X30669Y-14455D01*
X30274Y-14455D01*
X30069Y-14455D01*
X30069Y-14072D01*
X30069Y-13534D01*
X29631Y-13534D01*
X29569Y-13596D01*
X29570Y-13835D01*
X29570Y-13934D01*
X29608Y-14025D01*
X29644Y-14061D01*
X29641Y-14064D01*
X29641Y-14359D01*
X29904Y-14359D01*
X29965Y-14298D01*
X29965Y-14202D01*
X29936Y-14133D01*
X30007Y-14134D01*
X30069Y-14072D01*
X30069Y-14455D01*
X29541Y-14455D01*
X29541Y-14359D01*
X29541Y-14309D01*
X29541Y-14064D01*
X29479Y-14002D01*
X29417Y-14003D01*
X29325Y-14041D01*
X29291Y-14075D01*
X29285Y-14069D01*
X29330Y-14025D01*
X29368Y-13934D01*
X29368Y-13835D01*
X29368Y-13247D01*
X29434Y-13181D01*
X29533Y-13181D01*
X29569Y-13165D01*
X29569Y-13372D01*
X29631Y-13434D01*
X30069Y-13434D01*
X30069Y-12896D01*
X30007Y-12834D01*
X29874Y-12834D01*
X29874Y-12672D01*
X29840Y-12591D01*
X29855Y-12591D01*
X29947Y-12553D01*
X29981Y-12519D01*
X30015Y-12553D01*
X30107Y-12591D01*
X30169Y-12592D01*
X30231Y-12530D01*
X30231Y-12285D01*
X30231Y-12235D01*
X30231Y-12135D01*
X30231Y-12085D01*
X30231Y-11840D01*
X30169Y-11778D01*
X30107Y-11779D01*
X30015Y-11817D01*
X29981Y-11851D01*
X29947Y-11817D01*
X29856Y-11779D01*
X29757Y-11779D01*
X29532Y-11779D01*
X29610Y-11747D01*
X29680Y-11677D01*
X29718Y-11586D01*
X29718Y-11487D01*
X29718Y-11482D01*
X29734Y-11489D01*
X29833Y-11489D01*
X30223Y-11490D01*
X30285Y-11428D01*
X30285Y-10857D01*
X29971Y-10857D01*
X29596Y-10857D01*
X29490Y-10857D01*
X29440Y-10857D01*
X29340Y-10857D01*
X29290Y-10857D01*
X28809Y-10857D01*
X28807Y-10859D01*
X28790Y-10842D01*
X28495Y-10842D01*
X28495Y-11105D01*
X28556Y-11166D01*
X28652Y-11166D01*
X28743Y-11128D01*
X28785Y-11085D01*
X28786Y-11086D01*
X28802Y-11102D01*
X28786Y-11119D01*
X28748Y-11210D01*
X28748Y-11309D01*
X28748Y-11473D01*
X28680Y-11541D01*
X28617Y-11635D01*
X28595Y-11746D01*
X28595Y-11781D01*
X28564Y-11794D01*
X28514Y-11844D01*
X28514Y-11606D01*
X28476Y-11514D01*
X28406Y-11444D01*
X28395Y-11439D01*
X28395Y-11105D01*
X28395Y-10842D01*
X28100Y-10842D01*
X28063Y-10878D01*
X28042Y-10857D01*
X27668Y-10857D01*
X27668Y-11133D01*
X27730Y-11195D01*
X27805Y-11194D01*
X27904Y-11194D01*
X27995Y-11156D01*
X28065Y-11086D01*
X28076Y-11057D01*
X28077Y-11058D01*
X28147Y-11128D01*
X28238Y-11166D01*
X28334Y-11166D01*
X28395Y-11105D01*
X28395Y-11439D01*
X28315Y-11406D01*
X28216Y-11406D01*
X27856Y-11406D01*
X27764Y-11444D01*
X27694Y-11514D01*
X27660Y-11595D01*
X27608Y-11595D01*
X27562Y-11549D01*
X27471Y-11511D01*
X27372Y-11511D01*
X27058Y-11511D01*
X26966Y-11549D01*
X26929Y-11586D01*
X26912Y-11569D01*
X26821Y-11531D01*
X26722Y-11531D01*
X26408Y-11531D01*
X26316Y-11569D01*
X26246Y-11639D01*
X26208Y-11730D01*
X26208Y-11829D01*
X26208Y-12079D01*
X26246Y-12171D01*
X26280Y-12205D01*
X26246Y-12239D01*
X26240Y-12253D01*
X26186Y-12199D01*
X26102Y-12164D01*
X26102Y-12116D01*
X26148Y-12070D01*
X26186Y-11979D01*
X26186Y-11880D01*
X26186Y-11566D01*
X26148Y-11474D01*
X26078Y-11404D01*
X25987Y-11366D01*
X25888Y-11366D01*
X25808Y-11366D01*
X25828Y-11346D01*
X25866Y-11254D01*
X25867Y-11017D01*
X25805Y-10955D01*
X25317Y-10955D01*
X25267Y-10955D01*
X25167Y-10955D01*
X25117Y-10955D01*
X24629Y-10955D01*
X24567Y-11017D01*
X24568Y-11254D01*
X24606Y-11346D01*
X24676Y-11416D01*
X24767Y-11454D01*
X24866Y-11454D01*
X24895Y-11454D01*
X24876Y-11474D01*
X24838Y-11565D01*
X24838Y-11664D01*
X24838Y-11801D01*
X24691Y-11740D01*
X24522Y-11740D01*
X24515Y-11742D01*
X24148Y-11375D01*
X24148Y-10929D01*
X24161Y-10929D01*
X24222Y-10868D01*
X24222Y-10655D01*
X24222Y-10605D01*
X24222Y-10505D01*
X24322Y-10505D01*
X24322Y-10605D01*
X24322Y-10655D01*
X24322Y-10868D01*
X24383Y-10929D01*
X24479Y-10929D01*
X24570Y-10891D01*
X24617Y-10843D01*
X24629Y-10855D01*
X25167Y-10855D01*
X25167Y-10417D01*
X25105Y-10355D01*
X24866Y-10356D01*
X24767Y-10356D01*
X24678Y-10393D01*
X24678Y-10381D01*
X24640Y-10289D01*
X24606Y-10255D01*
X24616Y-10245D01*
X24867Y-10245D01*
X24978Y-10223D01*
X25072Y-10160D01*
X25078Y-10154D01*
X25666Y-10154D01*
X25716Y-10133D01*
X25716Y-10376D01*
X25667Y-10356D01*
X25568Y-10356D01*
X25329Y-10355D01*
X25267Y-10417D01*
X25267Y-10855D01*
X25805Y-10855D01*
X25812Y-10848D01*
X25824Y-10860D01*
X25915Y-10898D01*
X26014Y-10898D01*
X27116Y-10898D01*
X27132Y-10891D01*
X27132Y-10907D01*
X27143Y-10907D01*
X27132Y-10919D01*
X27133Y-10994D01*
X27171Y-11086D01*
X27241Y-11156D01*
X27332Y-11194D01*
X27431Y-11194D01*
X27506Y-11195D01*
X27568Y-11133D01*
X27568Y-10907D01*
X27568Y-10857D01*
X27568Y-10757D01*
X27668Y-10757D01*
X27718Y-10757D01*
X28042Y-10757D01*
X28078Y-10720D01*
X28100Y-10742D01*
X28345Y-10742D01*
X28395Y-10742D01*
X28495Y-10742D01*
X28545Y-10742D01*
X28790Y-10742D01*
X28792Y-10740D01*
X28809Y-10757D01*
X29290Y-10757D01*
X29340Y-10757D01*
X29440Y-10757D01*
X29490Y-10757D01*
X29596Y-10757D01*
X29971Y-10757D01*
X30285Y-10757D01*
X30285Y-10186D01*
X30223Y-10124D01*
X29833Y-10125D01*
X29734Y-10125D01*
X29718Y-10131D01*
X29718Y-10029D01*
X29680Y-09937D01*
X29610Y-09867D01*
X29519Y-09829D01*
X29420Y-09829D01*
X28948Y-09829D01*
X28856Y-09867D01*
X28855Y-09868D01*
X28755Y-09868D01*
X28743Y-09856D01*
X28652Y-09818D01*
X28553Y-09818D01*
X28239Y-09818D01*
X28176Y-09844D01*
X28090Y-09844D01*
X28103Y-09813D01*
X28103Y-09714D01*
X28103Y-09633D01*
X28491Y-09245D01*
X28819Y-09245D01*
X28952Y-09219D01*
X28953Y-09219D01*
X29065Y-09143D01*
X29301Y-08908D01*
X29301Y-08907D01*
X29351Y-08832D01*
X29376Y-08795D01*
X29377Y-08794D01*
X29402Y-08662D01*
X29403Y-08661D01*
X29403Y-07244D01*
X29402Y-07243D01*
X29377Y-07111D01*
X29376Y-07110D01*
X29351Y-07073D01*
X29340Y-07057D01*
X31479Y-07057D01*
X31336Y-07200D01*
X31207Y-07509D01*
X31207Y-07843D01*
X31334Y-08152D01*
X31570Y-08388D01*
X31879Y-08517D01*
X32213Y-08517D01*
X32522Y-08390D01*
X32758Y-08154D01*
X32887Y-07845D01*
X32887Y-07511D01*
X32760Y-07202D01*
X32615Y-07057D01*
X34911Y-07057D01*
X34911Y-20521D01*
M02*
