G04 (created by PCBNEW-RS274X (2012-01-19 BZR 3256)-stable) date Wed 26 Sep 2012 04:40:45 PM NZST*
G01*
G70*
G90*
%MOIN*%
G04 Gerber Fmt 3.4, Leading zero omitted, Abs format*
%FSLAX34Y34*%
G04 APERTURE LIST*
%ADD10C,0.006000*%
%ADD11C,0.118100*%
%ADD12R,0.047200X0.027600*%
%ADD13R,0.078700X0.027600*%
%ADD14R,0.110300X0.086600*%
%ADD15R,0.036000X0.036000*%
%ADD16R,0.060000X0.080000*%
%ADD17R,0.080000X0.060000*%
%ADD18R,0.025000X0.031500*%
%ADD19R,0.031500X0.025000*%
%ADD20R,0.051200X0.051200*%
%ADD21C,0.051200*%
%ADD22R,0.025000X0.045000*%
%ADD23R,0.060000X0.060000*%
%ADD24C,0.060000*%
%ADD25C,0.035000*%
%ADD26C,0.019700*%
%ADD27C,0.008000*%
%ADD28C,0.010000*%
G04 APERTURE END LIST*
G54D10*
G54D11*
X32047Y-07677D03*
X31988Y-19764D03*
X24606Y-19764D03*
G54D12*
X29233Y-10216D03*
G54D13*
X29390Y-10807D03*
G54D12*
X29233Y-11398D03*
G54D14*
X30335Y-10807D03*
G54D12*
X27618Y-10807D03*
G54D13*
X27461Y-10216D03*
G54D12*
X27618Y-09625D03*
G54D14*
X26516Y-10216D03*
G54D15*
X28085Y-12535D03*
X28085Y-11835D03*
X28885Y-12185D03*
X29770Y-15241D03*
X29770Y-15941D03*
X28970Y-15591D03*
X27474Y-16610D03*
X27474Y-15910D03*
X28274Y-16260D03*
G54D16*
X30119Y-13484D03*
X28819Y-13484D03*
G54D17*
X25217Y-10905D03*
X25217Y-09605D03*
G54D18*
X29591Y-14409D03*
X28991Y-14409D03*
G54D19*
X26614Y-12505D03*
X26614Y-11905D03*
X27264Y-11885D03*
X27264Y-12485D03*
G54D18*
X29188Y-16574D03*
X29788Y-16574D03*
G54D19*
X30433Y-15930D03*
X30433Y-15330D03*
G54D18*
X26580Y-14567D03*
X25980Y-14567D03*
G54D19*
X24646Y-12850D03*
X24646Y-13450D03*
G54D18*
X30281Y-12185D03*
X29681Y-12185D03*
G54D19*
X28445Y-10792D03*
X28445Y-10192D03*
X24272Y-10555D03*
X24272Y-09955D03*
X26614Y-13243D03*
X26614Y-13843D03*
G54D18*
X25812Y-11772D03*
X25212Y-11772D03*
X25212Y-13465D03*
X25812Y-13465D03*
G54D20*
X28347Y-07480D03*
G54D21*
X28347Y-08268D03*
X27559Y-07480D03*
X27559Y-08268D03*
X26772Y-07480D03*
X26772Y-08268D03*
X25984Y-07480D03*
X25984Y-08268D03*
X25197Y-07480D03*
X25197Y-08268D03*
X24409Y-07480D03*
X24409Y-08268D03*
G54D17*
X27697Y-15157D03*
X27697Y-13857D03*
G54D15*
X27474Y-18578D03*
X27474Y-17878D03*
X28274Y-18228D03*
G54D22*
X25803Y-17874D03*
X26403Y-17874D03*
X29788Y-17480D03*
X29188Y-17480D03*
X29188Y-18228D03*
X29788Y-18228D03*
G54D23*
X33819Y-15807D03*
G54D24*
X33819Y-14807D03*
X33819Y-13807D03*
X33819Y-12807D03*
X33819Y-11807D03*
X33819Y-10807D03*
G54D23*
X23189Y-16634D03*
G54D24*
X23189Y-15634D03*
X23189Y-14634D03*
X23189Y-13634D03*
X23189Y-12634D03*
X23189Y-11634D03*
X23189Y-10634D03*
G54D25*
X32914Y-10236D03*
X30551Y-09330D03*
X31457Y-10275D03*
X25945Y-12559D03*
X23858Y-09449D03*
X24606Y-12165D03*
X30118Y-14291D03*
X24646Y-11535D03*
X28347Y-09645D03*
X27638Y-08897D03*
X34764Y-09134D03*
X34764Y-07559D03*
X34764Y-14330D03*
X34764Y-11260D03*
X26575Y-11417D03*
X29036Y-09350D03*
X22441Y-09842D03*
X22441Y-07559D03*
X30020Y-07480D03*
X23347Y-08976D03*
X30906Y-16771D03*
X34725Y-16693D03*
X22441Y-17401D03*
X22441Y-20039D03*
X24055Y-13268D03*
X24567Y-16693D03*
X34449Y-20039D03*
X30473Y-20039D03*
X26260Y-20039D03*
X31378Y-12795D03*
X22441Y-12126D03*
X22441Y-14173D03*
X23465Y-07480D03*
X32874Y-12283D03*
X28543Y-11319D03*
X24488Y-09055D03*
X26221Y-16693D03*
X31417Y-11968D03*
X26772Y-15649D03*
X25295Y-14665D03*
X31063Y-15315D03*
X29449Y-12756D03*
G54D26*
X32914Y-10236D02*
X32875Y-10275D01*
X32875Y-10275D02*
X31457Y-10275D01*
X27559Y-07165D02*
X27559Y-07480D01*
X27716Y-07008D02*
X27559Y-07165D01*
X28819Y-07008D02*
X27716Y-07008D01*
X29055Y-07244D02*
X28819Y-07008D01*
X27619Y-09625D02*
X28347Y-08897D01*
X28347Y-08897D02*
X28819Y-08897D01*
X28819Y-08897D02*
X29055Y-08661D01*
G54D27*
X24272Y-09955D02*
X24867Y-09955D01*
G54D26*
X25531Y-09291D02*
X25217Y-09605D01*
X27401Y-09291D02*
X27166Y-09291D01*
X27618Y-09625D02*
X27619Y-09625D01*
X27166Y-09291D02*
X25531Y-09291D01*
X27618Y-09625D02*
X27618Y-09508D01*
G54D27*
X24867Y-09955D02*
X25217Y-09605D01*
G54D26*
X27618Y-09508D02*
X27401Y-09291D01*
X29055Y-08661D02*
X29055Y-07244D01*
G54D27*
X33819Y-14807D02*
X32673Y-14807D01*
X30866Y-18228D02*
X32166Y-16928D01*
X32166Y-16928D02*
X32166Y-15314D01*
X32166Y-15314D02*
X32673Y-14807D01*
X30866Y-18228D02*
X29788Y-18228D01*
X25803Y-17874D02*
X25803Y-17141D01*
X24296Y-15634D02*
X23189Y-15634D01*
X25803Y-17141D02*
X24296Y-15634D01*
X29009Y-14427D02*
X28991Y-14409D01*
X28970Y-14430D02*
X28991Y-14409D01*
G54D26*
X28970Y-15591D02*
X28970Y-14803D01*
X28970Y-14803D02*
X28970Y-14430D01*
X33812Y-13814D02*
X33819Y-13807D01*
X31260Y-14803D02*
X32249Y-13814D01*
X28970Y-14803D02*
X30274Y-14803D01*
X30274Y-14803D02*
X31260Y-14803D01*
X32249Y-13814D02*
X33812Y-13814D01*
X24099Y-14650D02*
X23205Y-14650D01*
X27697Y-15157D02*
X24606Y-15157D01*
X24099Y-14650D02*
X24606Y-15157D01*
X23205Y-14650D02*
X23189Y-14634D01*
G54D27*
X25812Y-11772D02*
X25812Y-12426D01*
X25812Y-12426D02*
X25945Y-12559D01*
X25512Y-12559D02*
X25512Y-12440D01*
X25212Y-12140D02*
X25212Y-11772D01*
X25512Y-12440D02*
X25212Y-12140D01*
X25812Y-13253D02*
X25512Y-12953D01*
X25512Y-12953D02*
X25512Y-12559D01*
X25812Y-13465D02*
X25812Y-13253D01*
X23205Y-13650D02*
X23189Y-13634D01*
X25670Y-13858D02*
X25812Y-13716D01*
X24094Y-13858D02*
X25670Y-13858D01*
X23886Y-13650D02*
X24094Y-13858D01*
X25812Y-13465D02*
X25812Y-13716D01*
X23886Y-13650D02*
X23205Y-13650D01*
X24646Y-12850D02*
X24646Y-12205D01*
X23858Y-11495D02*
X23858Y-09449D01*
X24528Y-12165D02*
X23858Y-11495D01*
X24646Y-12205D02*
X24606Y-12165D01*
X24606Y-12165D02*
X24528Y-12165D01*
X26614Y-14533D02*
X26580Y-14567D01*
X26614Y-13843D02*
X26614Y-14533D01*
X23035Y-12634D02*
X22717Y-12952D01*
X26216Y-13843D02*
X26614Y-13843D01*
X22953Y-14134D02*
X22717Y-13898D01*
X22717Y-12952D02*
X22717Y-13898D01*
X22953Y-14134D02*
X25925Y-14134D01*
X25925Y-14134D02*
X26216Y-13843D01*
X23189Y-12634D02*
X23035Y-12634D01*
G54D26*
X27618Y-10807D02*
X27579Y-10807D01*
X28445Y-10792D02*
X29375Y-10792D01*
X27284Y-11102D02*
X25414Y-11102D01*
G54D27*
X28445Y-10792D02*
X28445Y-11221D01*
G54D26*
X30281Y-10861D02*
X30335Y-10807D01*
G54D27*
X27618Y-10807D02*
X27540Y-10807D01*
G54D26*
X27633Y-10792D02*
X27618Y-10807D01*
G54D27*
X29036Y-09350D02*
X28642Y-09350D01*
G54D26*
X30119Y-13484D02*
X30119Y-12794D01*
G54D27*
X28642Y-09350D02*
X28347Y-09645D01*
G54D26*
X30281Y-12632D02*
X30281Y-12185D01*
X25414Y-11102D02*
X25217Y-10905D01*
G54D27*
X29390Y-10807D02*
X30335Y-10807D01*
G54D26*
X28445Y-10792D02*
X27633Y-10792D01*
G54D27*
X29591Y-14012D02*
X30119Y-13484D01*
X30000Y-14409D02*
X30118Y-14291D01*
X27795Y-16968D02*
X27796Y-16969D01*
X27474Y-16647D02*
X27795Y-16968D01*
X25217Y-10905D02*
X24622Y-10905D01*
X29591Y-14409D02*
X30000Y-14409D01*
X29591Y-14409D02*
X29591Y-14012D01*
X27474Y-16610D02*
X27474Y-16647D01*
X28445Y-11221D02*
X28543Y-11319D01*
G54D26*
X34725Y-16693D02*
X34725Y-14369D01*
G54D27*
X27540Y-10807D02*
X27442Y-10905D01*
G54D26*
X34764Y-07559D02*
X34724Y-07519D01*
X34725Y-14369D02*
X34764Y-14330D01*
X34764Y-11260D02*
X34764Y-09134D01*
X29375Y-10792D02*
X29390Y-10807D01*
X30281Y-12185D02*
X30281Y-10861D01*
X29803Y-16968D02*
X30709Y-16968D01*
X27795Y-16968D02*
X29803Y-16968D01*
X27579Y-10807D02*
X27284Y-11102D01*
X30119Y-12794D02*
X30281Y-12632D01*
X22441Y-09842D02*
X22441Y-07559D01*
X25217Y-10905D02*
X24883Y-10905D01*
X23504Y-08819D02*
X23347Y-08976D01*
X23544Y-08819D02*
X23504Y-08819D01*
X24883Y-10905D02*
X24646Y-11142D01*
G54D27*
X24622Y-10905D02*
X24272Y-10555D01*
G54D26*
X30709Y-16968D02*
X30906Y-16771D01*
X22441Y-17401D02*
X22441Y-18464D01*
X29788Y-16968D02*
X29803Y-16983D01*
X29803Y-16983D02*
X29803Y-17008D01*
X29803Y-17008D02*
X29803Y-16968D01*
X27474Y-18578D02*
X27474Y-18825D01*
X29788Y-17480D02*
X29788Y-16968D01*
X27474Y-18825D02*
X26260Y-20039D01*
X22441Y-18464D02*
X25394Y-18464D01*
X34449Y-19961D02*
X34449Y-20039D01*
X32716Y-18228D02*
X34449Y-19961D01*
X31693Y-18228D02*
X32716Y-18228D01*
X30788Y-19133D02*
X31693Y-18228D01*
X30788Y-19724D02*
X30788Y-19133D01*
X30473Y-20039D02*
X30788Y-19724D01*
X26260Y-19330D02*
X26260Y-20039D01*
X25394Y-18464D02*
X26260Y-19330D01*
X22441Y-18464D02*
X22441Y-20039D01*
X31378Y-12795D02*
X31378Y-11968D01*
X23543Y-08818D02*
X23544Y-08819D01*
X23543Y-07558D02*
X23543Y-08818D01*
X22441Y-14173D02*
X22441Y-12126D01*
X24646Y-11142D02*
X24646Y-11535D01*
G54D27*
X30335Y-10807D02*
X30787Y-10807D01*
G54D26*
X27474Y-16610D02*
X26304Y-16610D01*
X23544Y-08819D02*
X23780Y-09055D01*
X23780Y-09055D02*
X24488Y-09055D01*
X26304Y-16610D02*
X26221Y-16693D01*
X23465Y-07480D02*
X23543Y-07558D01*
X31378Y-11968D02*
X31417Y-11968D01*
G54D27*
X28885Y-12185D02*
X29681Y-12185D01*
X28885Y-11746D02*
X29233Y-11398D01*
X28885Y-12185D02*
X28885Y-11746D01*
X25212Y-13465D02*
X24661Y-13465D01*
X24661Y-13465D02*
X24646Y-13450D01*
X25980Y-14567D02*
X25393Y-14567D01*
X27033Y-15910D02*
X27474Y-15910D01*
X26772Y-15649D02*
X27033Y-15910D01*
X25393Y-14567D02*
X25295Y-14665D01*
X29149Y-16535D02*
X29188Y-16574D01*
X28588Y-16574D02*
X28274Y-16260D01*
X29188Y-16574D02*
X28588Y-16574D01*
G54D26*
X28445Y-10192D02*
X27485Y-10192D01*
X27485Y-10192D02*
X27461Y-10216D01*
X29233Y-10216D02*
X28469Y-10216D01*
X28469Y-10216D02*
X28445Y-10192D01*
G54D27*
X27461Y-10216D02*
X26516Y-10216D01*
X29788Y-16574D02*
X29788Y-15959D01*
X29817Y-15930D02*
X30433Y-15930D01*
X29788Y-15959D02*
X29817Y-15930D01*
G54D26*
X27697Y-13857D02*
X28446Y-13857D01*
X28446Y-13857D02*
X28819Y-13484D01*
G54D27*
X28819Y-13484D02*
X28819Y-13386D01*
X31048Y-15330D02*
X30433Y-15330D01*
X31063Y-15315D02*
X31048Y-15330D01*
X28819Y-13386D02*
X29449Y-12756D01*
G54D26*
X28819Y-13484D02*
X28819Y-13269D01*
X28819Y-13269D02*
X28085Y-12535D01*
G54D27*
X28085Y-12535D02*
X27314Y-12535D01*
X27314Y-12535D02*
X27264Y-12485D01*
X30433Y-15330D02*
X29859Y-15330D01*
X29859Y-15330D02*
X29770Y-15241D01*
X27264Y-11885D02*
X28035Y-11885D01*
X28035Y-11885D02*
X28085Y-11835D01*
X26614Y-11905D02*
X27244Y-11905D01*
X27244Y-11905D02*
X27264Y-11885D01*
X28035Y-11885D02*
X28085Y-11835D01*
X26634Y-11885D02*
X26614Y-11905D01*
X26614Y-13243D02*
X26614Y-12505D01*
X29188Y-17480D02*
X27872Y-17480D01*
X27872Y-17480D02*
X27474Y-17878D01*
X26403Y-17874D02*
X27470Y-17874D01*
X27470Y-17874D02*
X27474Y-17878D01*
X28274Y-18228D02*
X29188Y-18228D01*
G54D10*
G36*
X24352Y-12512D02*
X24348Y-12514D01*
X24278Y-12584D01*
X24240Y-12675D01*
X24240Y-12774D01*
X24240Y-13024D01*
X24278Y-13116D01*
X24312Y-13150D01*
X24278Y-13184D01*
X24240Y-13275D01*
X24240Y-13374D01*
X24240Y-13568D01*
X24214Y-13568D01*
X24091Y-13445D01*
X23997Y-13382D01*
X23886Y-13360D01*
X23669Y-13360D01*
X23654Y-13323D01*
X23500Y-13169D01*
X23415Y-13134D01*
X23500Y-13099D01*
X23654Y-12945D01*
X23738Y-12743D01*
X23738Y-12525D01*
X23654Y-12323D01*
X23500Y-12169D01*
X23415Y-12134D01*
X23500Y-12099D01*
X23654Y-11945D01*
X23725Y-11772D01*
X24181Y-12228D01*
X24181Y-12249D01*
X24245Y-12405D01*
X24352Y-12512D01*
X24352Y-12512D01*
G37*
G54D28*
X24352Y-12512D02*
X24348Y-12514D01*
X24278Y-12584D01*
X24240Y-12675D01*
X24240Y-12774D01*
X24240Y-13024D01*
X24278Y-13116D01*
X24312Y-13150D01*
X24278Y-13184D01*
X24240Y-13275D01*
X24240Y-13374D01*
X24240Y-13568D01*
X24214Y-13568D01*
X24091Y-13445D01*
X23997Y-13382D01*
X23886Y-13360D01*
X23669Y-13360D01*
X23654Y-13323D01*
X23500Y-13169D01*
X23415Y-13134D01*
X23500Y-13099D01*
X23654Y-12945D01*
X23738Y-12743D01*
X23738Y-12525D01*
X23654Y-12323D01*
X23500Y-12169D01*
X23415Y-12134D01*
X23500Y-12099D01*
X23654Y-11945D01*
X23725Y-11772D01*
X24181Y-12228D01*
X24181Y-12249D01*
X24245Y-12405D01*
X24352Y-12512D01*
G54D10*
G36*
X28397Y-07530D02*
X28297Y-07530D01*
X28297Y-07430D01*
X28397Y-07430D01*
X28397Y-07530D01*
X28397Y-07530D01*
G37*
G54D28*
X28397Y-07530D02*
X28297Y-07530D01*
X28297Y-07430D01*
X28397Y-07430D01*
X28397Y-07530D01*
G54D10*
G36*
X33592Y-14307D02*
X33508Y-14342D01*
X33354Y-14496D01*
X33345Y-14517D01*
X32673Y-14517D01*
X32562Y-14539D01*
X32468Y-14602D01*
X31961Y-15109D01*
X31898Y-15203D01*
X31876Y-15314D01*
X31876Y-16808D01*
X30746Y-17938D01*
X30155Y-17938D01*
X30124Y-17862D01*
X30116Y-17854D01*
X30124Y-17846D01*
X30162Y-17755D01*
X30162Y-17656D01*
X30163Y-17592D01*
X30163Y-17368D01*
X30162Y-17304D01*
X30162Y-17205D01*
X30124Y-17114D01*
X30054Y-17044D01*
X29962Y-17006D01*
X29900Y-17005D01*
X29838Y-17067D01*
X29838Y-17430D01*
X30101Y-17430D01*
X30163Y-17368D01*
X30163Y-17592D01*
X30101Y-17530D01*
X29888Y-17530D01*
X29838Y-17530D01*
X29738Y-17530D01*
X29738Y-17430D01*
X29738Y-17380D01*
X29738Y-17067D01*
X29676Y-17005D01*
X29614Y-17006D01*
X29522Y-17044D01*
X29488Y-17078D01*
X29454Y-17044D01*
X29363Y-17006D01*
X29264Y-17006D01*
X29014Y-17006D01*
X28922Y-17044D01*
X28852Y-17114D01*
X28820Y-17190D01*
X27904Y-17190D01*
X27904Y-16722D01*
X27842Y-16660D01*
X27524Y-16660D01*
X27524Y-16978D01*
X27586Y-17040D01*
X27605Y-17039D01*
X27704Y-17039D01*
X27795Y-17001D01*
X27865Y-16931D01*
X27903Y-16839D01*
X27904Y-16722D01*
X27904Y-17190D01*
X27872Y-17190D01*
X27761Y-17212D01*
X27667Y-17275D01*
X27666Y-17275D01*
X27666Y-17276D01*
X27493Y-17449D01*
X27424Y-17449D01*
X27424Y-16978D01*
X27424Y-16660D01*
X27106Y-16660D01*
X27044Y-16722D01*
X27045Y-16839D01*
X27083Y-16931D01*
X27153Y-17001D01*
X27244Y-17039D01*
X27343Y-17039D01*
X27362Y-17040D01*
X27424Y-16978D01*
X27424Y-17449D01*
X27245Y-17449D01*
X27153Y-17487D01*
X27083Y-17557D01*
X27071Y-17584D01*
X26770Y-17584D01*
X26739Y-17508D01*
X26669Y-17438D01*
X26578Y-17400D01*
X26479Y-17400D01*
X26229Y-17400D01*
X26137Y-17438D01*
X26103Y-17472D01*
X26093Y-17462D01*
X26093Y-17141D01*
X26071Y-17030D01*
X26008Y-16936D01*
X24570Y-15498D01*
X24606Y-15505D01*
X26371Y-15505D01*
X26347Y-15564D01*
X26347Y-15733D01*
X26411Y-15889D01*
X26531Y-16009D01*
X26687Y-16074D01*
X26787Y-16074D01*
X26828Y-16115D01*
X26922Y-16178D01*
X27033Y-16200D01*
X27070Y-16200D01*
X27083Y-16231D01*
X27112Y-16260D01*
X27083Y-16289D01*
X27045Y-16381D01*
X27044Y-16498D01*
X27106Y-16560D01*
X27374Y-16560D01*
X27424Y-16560D01*
X27524Y-16560D01*
X27574Y-16560D01*
X27842Y-16560D01*
X27864Y-16537D01*
X27883Y-16581D01*
X27953Y-16651D01*
X28044Y-16689D01*
X28143Y-16689D01*
X28293Y-16689D01*
X28383Y-16779D01*
X28477Y-16842D01*
X28588Y-16864D01*
X28848Y-16864D01*
X28852Y-16872D01*
X28922Y-16942D01*
X29013Y-16980D01*
X29112Y-16980D01*
X29362Y-16980D01*
X29454Y-16942D01*
X29488Y-16908D01*
X29522Y-16942D01*
X29613Y-16980D01*
X29712Y-16980D01*
X29962Y-16980D01*
X30054Y-16942D01*
X30124Y-16872D01*
X30162Y-16781D01*
X30162Y-16682D01*
X30162Y-16368D01*
X30130Y-16292D01*
X30150Y-16272D01*
X30226Y-16304D01*
X30325Y-16304D01*
X30639Y-16304D01*
X30731Y-16266D01*
X30801Y-16196D01*
X30839Y-16105D01*
X30839Y-16006D01*
X30839Y-15756D01*
X30801Y-15664D01*
X30767Y-15630D01*
X30772Y-15625D01*
X30822Y-15675D01*
X30978Y-15740D01*
X31147Y-15740D01*
X31303Y-15676D01*
X31423Y-15556D01*
X31488Y-15400D01*
X31488Y-15231D01*
X31433Y-15098D01*
X31433Y-15097D01*
X31506Y-15049D01*
X32393Y-14162D01*
X33398Y-14162D01*
X33508Y-14272D01*
X33592Y-14307D01*
X33592Y-14307D01*
G37*
G54D28*
X33592Y-14307D02*
X33508Y-14342D01*
X33354Y-14496D01*
X33345Y-14517D01*
X32673Y-14517D01*
X32562Y-14539D01*
X32468Y-14602D01*
X31961Y-15109D01*
X31898Y-15203D01*
X31876Y-15314D01*
X31876Y-16808D01*
X30746Y-17938D01*
X30155Y-17938D01*
X30124Y-17862D01*
X30116Y-17854D01*
X30124Y-17846D01*
X30162Y-17755D01*
X30162Y-17656D01*
X30163Y-17592D01*
X30163Y-17368D01*
X30162Y-17304D01*
X30162Y-17205D01*
X30124Y-17114D01*
X30054Y-17044D01*
X29962Y-17006D01*
X29900Y-17005D01*
X29838Y-17067D01*
X29838Y-17430D01*
X30101Y-17430D01*
X30163Y-17368D01*
X30163Y-17592D01*
X30101Y-17530D01*
X29888Y-17530D01*
X29838Y-17530D01*
X29738Y-17530D01*
X29738Y-17430D01*
X29738Y-17380D01*
X29738Y-17067D01*
X29676Y-17005D01*
X29614Y-17006D01*
X29522Y-17044D01*
X29488Y-17078D01*
X29454Y-17044D01*
X29363Y-17006D01*
X29264Y-17006D01*
X29014Y-17006D01*
X28922Y-17044D01*
X28852Y-17114D01*
X28820Y-17190D01*
X27904Y-17190D01*
X27904Y-16722D01*
X27842Y-16660D01*
X27524Y-16660D01*
X27524Y-16978D01*
X27586Y-17040D01*
X27605Y-17039D01*
X27704Y-17039D01*
X27795Y-17001D01*
X27865Y-16931D01*
X27903Y-16839D01*
X27904Y-16722D01*
X27904Y-17190D01*
X27872Y-17190D01*
X27761Y-17212D01*
X27667Y-17275D01*
X27666Y-17275D01*
X27666Y-17276D01*
X27493Y-17449D01*
X27424Y-17449D01*
X27424Y-16978D01*
X27424Y-16660D01*
X27106Y-16660D01*
X27044Y-16722D01*
X27045Y-16839D01*
X27083Y-16931D01*
X27153Y-17001D01*
X27244Y-17039D01*
X27343Y-17039D01*
X27362Y-17040D01*
X27424Y-16978D01*
X27424Y-17449D01*
X27245Y-17449D01*
X27153Y-17487D01*
X27083Y-17557D01*
X27071Y-17584D01*
X26770Y-17584D01*
X26739Y-17508D01*
X26669Y-17438D01*
X26578Y-17400D01*
X26479Y-17400D01*
X26229Y-17400D01*
X26137Y-17438D01*
X26103Y-17472D01*
X26093Y-17462D01*
X26093Y-17141D01*
X26071Y-17030D01*
X26008Y-16936D01*
X24570Y-15498D01*
X24606Y-15505D01*
X26371Y-15505D01*
X26347Y-15564D01*
X26347Y-15733D01*
X26411Y-15889D01*
X26531Y-16009D01*
X26687Y-16074D01*
X26787Y-16074D01*
X26828Y-16115D01*
X26922Y-16178D01*
X27033Y-16200D01*
X27070Y-16200D01*
X27083Y-16231D01*
X27112Y-16260D01*
X27083Y-16289D01*
X27045Y-16381D01*
X27044Y-16498D01*
X27106Y-16560D01*
X27374Y-16560D01*
X27424Y-16560D01*
X27524Y-16560D01*
X27574Y-16560D01*
X27842Y-16560D01*
X27864Y-16537D01*
X27883Y-16581D01*
X27953Y-16651D01*
X28044Y-16689D01*
X28143Y-16689D01*
X28293Y-16689D01*
X28383Y-16779D01*
X28477Y-16842D01*
X28588Y-16864D01*
X28848Y-16864D01*
X28852Y-16872D01*
X28922Y-16942D01*
X29013Y-16980D01*
X29112Y-16980D01*
X29362Y-16980D01*
X29454Y-16942D01*
X29488Y-16908D01*
X29522Y-16942D01*
X29613Y-16980D01*
X29712Y-16980D01*
X29962Y-16980D01*
X30054Y-16942D01*
X30124Y-16872D01*
X30162Y-16781D01*
X30162Y-16682D01*
X30162Y-16368D01*
X30130Y-16292D01*
X30150Y-16272D01*
X30226Y-16304D01*
X30325Y-16304D01*
X30639Y-16304D01*
X30731Y-16266D01*
X30801Y-16196D01*
X30839Y-16105D01*
X30839Y-16006D01*
X30839Y-15756D01*
X30801Y-15664D01*
X30767Y-15630D01*
X30772Y-15625D01*
X30822Y-15675D01*
X30978Y-15740D01*
X31147Y-15740D01*
X31303Y-15676D01*
X31423Y-15556D01*
X31488Y-15400D01*
X31488Y-15231D01*
X31433Y-15098D01*
X31433Y-15097D01*
X31506Y-15049D01*
X32393Y-14162D01*
X33398Y-14162D01*
X33508Y-14272D01*
X33592Y-14307D01*
G54D10*
G36*
X34911Y-20521D02*
X34369Y-20521D01*
X34369Y-15919D01*
X34307Y-15857D01*
X33869Y-15857D01*
X33869Y-16295D01*
X33931Y-16357D01*
X34070Y-16356D01*
X34169Y-16356D01*
X34260Y-16318D01*
X34330Y-16248D01*
X34368Y-16156D01*
X34369Y-15919D01*
X34369Y-20521D01*
X33769Y-20521D01*
X33769Y-16295D01*
X33769Y-15857D01*
X33331Y-15857D01*
X33269Y-15919D01*
X33270Y-16156D01*
X33308Y-16248D01*
X33378Y-16318D01*
X33469Y-16356D01*
X33568Y-16356D01*
X33707Y-16357D01*
X33769Y-16295D01*
X33769Y-20521D01*
X32355Y-20521D01*
X32463Y-20477D01*
X32699Y-20241D01*
X32828Y-19932D01*
X32828Y-19598D01*
X32701Y-19289D01*
X32465Y-19053D01*
X32156Y-18924D01*
X31822Y-18924D01*
X31513Y-19051D01*
X31277Y-19287D01*
X31148Y-19596D01*
X31148Y-19930D01*
X31275Y-20239D01*
X31511Y-20475D01*
X31621Y-20521D01*
X27904Y-20521D01*
X27904Y-18690D01*
X27842Y-18628D01*
X27524Y-18628D01*
X27524Y-18946D01*
X27586Y-19008D01*
X27605Y-19007D01*
X27704Y-19007D01*
X27795Y-18969D01*
X27865Y-18899D01*
X27903Y-18807D01*
X27904Y-18690D01*
X27904Y-20521D01*
X27424Y-20521D01*
X27424Y-18946D01*
X27424Y-18628D01*
X27106Y-18628D01*
X27044Y-18690D01*
X27045Y-18807D01*
X27083Y-18899D01*
X27153Y-18969D01*
X27244Y-19007D01*
X27343Y-19007D01*
X27362Y-19008D01*
X27424Y-18946D01*
X27424Y-20521D01*
X24973Y-20521D01*
X25081Y-20477D01*
X25317Y-20241D01*
X25446Y-19932D01*
X25446Y-19598D01*
X25319Y-19289D01*
X25083Y-19053D01*
X24774Y-18924D01*
X24440Y-18924D01*
X24131Y-19051D01*
X23895Y-19287D01*
X23766Y-19596D01*
X23766Y-19930D01*
X23893Y-20239D01*
X24129Y-20475D01*
X24239Y-20521D01*
X23739Y-20521D01*
X23739Y-16746D01*
X23677Y-16684D01*
X23239Y-16684D01*
X23239Y-17122D01*
X23301Y-17184D01*
X23440Y-17183D01*
X23539Y-17183D01*
X23630Y-17145D01*
X23700Y-17075D01*
X23738Y-16983D01*
X23739Y-16746D01*
X23739Y-20521D01*
X23139Y-20521D01*
X23139Y-17122D01*
X23139Y-16684D01*
X22701Y-16684D01*
X22639Y-16746D01*
X22640Y-16983D01*
X22678Y-17075D01*
X22748Y-17145D01*
X22839Y-17183D01*
X22938Y-17183D01*
X23077Y-17184D01*
X23139Y-17122D01*
X23139Y-20521D01*
X22175Y-20521D01*
X22175Y-07057D01*
X24118Y-07057D01*
X23981Y-07194D01*
X23904Y-07379D01*
X23904Y-07580D01*
X23981Y-07766D01*
X24089Y-07874D01*
X23981Y-07982D01*
X23904Y-08167D01*
X23904Y-08368D01*
X23981Y-08554D01*
X24123Y-08696D01*
X24308Y-08773D01*
X24509Y-08773D01*
X24695Y-08696D01*
X24803Y-08588D01*
X24911Y-08696D01*
X25096Y-08773D01*
X25297Y-08773D01*
X25483Y-08696D01*
X25590Y-08588D01*
X25698Y-08696D01*
X25883Y-08773D01*
X26084Y-08773D01*
X26270Y-08696D01*
X26378Y-08588D01*
X26486Y-08696D01*
X26671Y-08773D01*
X26872Y-08773D01*
X27058Y-08696D01*
X27165Y-08588D01*
X27273Y-08696D01*
X27458Y-08773D01*
X27659Y-08773D01*
X27845Y-08696D01*
X27953Y-08588D01*
X28058Y-08693D01*
X27677Y-09075D01*
X27647Y-09045D01*
X27535Y-08969D01*
X27401Y-08943D01*
X27166Y-08943D01*
X25531Y-08943D01*
X25397Y-08969D01*
X25285Y-09045D01*
X25274Y-09056D01*
X24768Y-09056D01*
X24676Y-09094D01*
X24606Y-09164D01*
X24568Y-09255D01*
X24568Y-09354D01*
X24568Y-09618D01*
X24479Y-09581D01*
X24380Y-09581D01*
X24263Y-09581D01*
X24283Y-09534D01*
X24283Y-09365D01*
X24219Y-09209D01*
X24099Y-09089D01*
X23943Y-09024D01*
X23774Y-09024D01*
X23618Y-09088D01*
X23498Y-09208D01*
X23433Y-09364D01*
X23433Y-09533D01*
X23497Y-09689D01*
X23568Y-09760D01*
X23568Y-10237D01*
X23500Y-10169D01*
X23298Y-10085D01*
X23080Y-10085D01*
X22878Y-10169D01*
X22724Y-10323D01*
X22640Y-10525D01*
X22640Y-10743D01*
X22724Y-10945D01*
X22878Y-11099D01*
X22962Y-11134D01*
X22878Y-11169D01*
X22724Y-11323D01*
X22640Y-11525D01*
X22640Y-11743D01*
X22724Y-11945D01*
X22878Y-12099D01*
X22962Y-12134D01*
X22878Y-12169D01*
X22724Y-12323D01*
X22640Y-12525D01*
X22640Y-12618D01*
X22512Y-12747D01*
X22449Y-12841D01*
X22427Y-12952D01*
X22427Y-13898D01*
X22449Y-14009D01*
X22512Y-14103D01*
X22727Y-14319D01*
X22724Y-14323D01*
X22640Y-14525D01*
X22640Y-14743D01*
X22724Y-14945D01*
X22878Y-15099D01*
X22962Y-15134D01*
X22878Y-15169D01*
X22724Y-15323D01*
X22640Y-15525D01*
X22640Y-15743D01*
X22724Y-15945D01*
X22864Y-16085D01*
X22839Y-16085D01*
X22748Y-16123D01*
X22678Y-16193D01*
X22640Y-16285D01*
X22639Y-16522D01*
X22701Y-16584D01*
X23089Y-16584D01*
X23139Y-16584D01*
X23239Y-16584D01*
X23289Y-16584D01*
X23677Y-16584D01*
X23739Y-16522D01*
X23738Y-16285D01*
X23700Y-16193D01*
X23630Y-16123D01*
X23539Y-16085D01*
X23514Y-16085D01*
X23654Y-15945D01*
X23662Y-15924D01*
X24176Y-15924D01*
X25513Y-17261D01*
X25513Y-17462D01*
X25467Y-17508D01*
X25429Y-17599D01*
X25429Y-17698D01*
X25429Y-18148D01*
X25467Y-18240D01*
X25537Y-18310D01*
X25628Y-18348D01*
X25727Y-18348D01*
X25977Y-18348D01*
X26069Y-18310D01*
X26103Y-18276D01*
X26137Y-18310D01*
X26228Y-18348D01*
X26327Y-18348D01*
X26577Y-18348D01*
X26669Y-18310D01*
X26739Y-18240D01*
X26770Y-18164D01*
X27068Y-18164D01*
X27083Y-18199D01*
X27112Y-18228D01*
X27083Y-18257D01*
X27045Y-18349D01*
X27044Y-18466D01*
X27106Y-18528D01*
X27374Y-18528D01*
X27424Y-18528D01*
X27524Y-18528D01*
X27574Y-18528D01*
X27842Y-18528D01*
X27864Y-18505D01*
X27883Y-18549D01*
X27953Y-18619D01*
X28044Y-18657D01*
X28143Y-18657D01*
X28503Y-18657D01*
X28595Y-18619D01*
X28665Y-18549D01*
X28677Y-18518D01*
X28820Y-18518D01*
X28852Y-18594D01*
X28922Y-18664D01*
X29013Y-18702D01*
X29112Y-18702D01*
X29362Y-18702D01*
X29454Y-18664D01*
X29488Y-18630D01*
X29522Y-18664D01*
X29613Y-18702D01*
X29712Y-18702D01*
X29962Y-18702D01*
X30054Y-18664D01*
X30124Y-18594D01*
X30155Y-18518D01*
X30866Y-18518D01*
X30977Y-18496D01*
X31071Y-18433D01*
X32371Y-17133D01*
X32434Y-17039D01*
X32456Y-16928D01*
X32456Y-15434D01*
X32793Y-15097D01*
X33345Y-15097D01*
X33354Y-15118D01*
X33494Y-15258D01*
X33469Y-15258D01*
X33378Y-15296D01*
X33308Y-15366D01*
X33270Y-15458D01*
X33269Y-15695D01*
X33331Y-15757D01*
X33719Y-15757D01*
X33769Y-15757D01*
X33869Y-15757D01*
X33919Y-15757D01*
X34307Y-15757D01*
X34369Y-15695D01*
X34368Y-15458D01*
X34330Y-15366D01*
X34260Y-15296D01*
X34169Y-15258D01*
X34144Y-15258D01*
X34284Y-15118D01*
X34368Y-14916D01*
X34368Y-14698D01*
X34284Y-14496D01*
X34130Y-14342D01*
X34045Y-14307D01*
X34130Y-14272D01*
X34284Y-14118D01*
X34368Y-13916D01*
X34368Y-13698D01*
X34284Y-13496D01*
X34130Y-13342D01*
X34045Y-13307D01*
X34130Y-13272D01*
X34284Y-13118D01*
X34368Y-12916D01*
X34368Y-12698D01*
X34284Y-12496D01*
X34130Y-12342D01*
X34045Y-12307D01*
X34130Y-12272D01*
X34284Y-12118D01*
X34368Y-11916D01*
X34368Y-11698D01*
X34284Y-11496D01*
X34130Y-11342D01*
X34045Y-11307D01*
X34130Y-11272D01*
X34284Y-11118D01*
X34368Y-10916D01*
X34368Y-10698D01*
X34284Y-10496D01*
X34130Y-10342D01*
X33928Y-10258D01*
X33710Y-10258D01*
X33508Y-10342D01*
X33354Y-10496D01*
X33339Y-10532D01*
X33339Y-10321D01*
X33339Y-10152D01*
X33275Y-09996D01*
X33155Y-09876D01*
X32999Y-09811D01*
X32830Y-09811D01*
X32674Y-09875D01*
X32622Y-09927D01*
X31710Y-09927D01*
X31698Y-09915D01*
X31542Y-09850D01*
X31373Y-09850D01*
X31217Y-09914D01*
X31097Y-10034D01*
X31038Y-10174D01*
X31027Y-10163D01*
X30976Y-10141D01*
X30976Y-09415D01*
X30976Y-09246D01*
X30912Y-09090D01*
X30792Y-08970D01*
X30636Y-08905D01*
X30467Y-08905D01*
X30311Y-08969D01*
X30191Y-09089D01*
X30126Y-09245D01*
X30126Y-09414D01*
X30190Y-09570D01*
X30310Y-09690D01*
X30466Y-09755D01*
X30635Y-09755D01*
X30791Y-09691D01*
X30911Y-09571D01*
X30976Y-09415D01*
X30976Y-10141D01*
X30936Y-10125D01*
X30837Y-10125D01*
X30447Y-10124D01*
X30385Y-10186D01*
X30385Y-10757D01*
X31074Y-10757D01*
X31136Y-10695D01*
X31135Y-10554D01*
X31216Y-10635D01*
X31372Y-10700D01*
X31541Y-10700D01*
X31697Y-10636D01*
X31710Y-10623D01*
X32737Y-10623D01*
X32829Y-10661D01*
X32998Y-10661D01*
X33154Y-10597D01*
X33274Y-10477D01*
X33339Y-10321D01*
X33339Y-10532D01*
X33270Y-10698D01*
X33270Y-10916D01*
X33354Y-11118D01*
X33508Y-11272D01*
X33592Y-11307D01*
X33508Y-11342D01*
X33354Y-11496D01*
X33270Y-11698D01*
X33270Y-11916D01*
X33354Y-12118D01*
X33508Y-12272D01*
X33592Y-12307D01*
X33508Y-12342D01*
X33354Y-12496D01*
X33270Y-12698D01*
X33270Y-12916D01*
X33354Y-13118D01*
X33508Y-13272D01*
X33592Y-13307D01*
X33508Y-13342D01*
X33384Y-13466D01*
X32249Y-13466D01*
X32116Y-13492D01*
X32078Y-13517D01*
X32002Y-13568D01*
X31136Y-14434D01*
X31136Y-10919D01*
X31074Y-10857D01*
X30385Y-10857D01*
X30385Y-11428D01*
X30447Y-11490D01*
X30837Y-11489D01*
X30936Y-11489D01*
X31027Y-11451D01*
X31097Y-11381D01*
X31135Y-11289D01*
X31136Y-10919D01*
X31136Y-14434D01*
X31115Y-14455D01*
X30669Y-14455D01*
X30669Y-13596D01*
X30669Y-13372D01*
X30668Y-13133D01*
X30668Y-13034D01*
X30655Y-13002D01*
X30655Y-12392D01*
X30655Y-12296D01*
X30655Y-12074D01*
X30655Y-11978D01*
X30617Y-11887D01*
X30547Y-11817D01*
X30455Y-11779D01*
X30393Y-11778D01*
X30331Y-11840D01*
X30331Y-12135D01*
X30594Y-12135D01*
X30655Y-12074D01*
X30655Y-12296D01*
X30594Y-12235D01*
X30331Y-12235D01*
X30331Y-12530D01*
X30393Y-12592D01*
X30455Y-12591D01*
X30547Y-12553D01*
X30617Y-12483D01*
X30655Y-12392D01*
X30655Y-13002D01*
X30630Y-12943D01*
X30560Y-12873D01*
X30468Y-12835D01*
X30231Y-12834D01*
X30169Y-12896D01*
X30169Y-13434D01*
X30607Y-13434D01*
X30669Y-13372D01*
X30669Y-13596D01*
X30607Y-13534D01*
X30169Y-13534D01*
X30169Y-14072D01*
X30231Y-14134D01*
X30468Y-14133D01*
X30560Y-14095D01*
X30630Y-14025D01*
X30668Y-13934D01*
X30668Y-13835D01*
X30669Y-13596D01*
X30669Y-14455D01*
X30274Y-14455D01*
X30069Y-14455D01*
X30069Y-14072D01*
X30069Y-13534D01*
X29631Y-13534D01*
X29569Y-13596D01*
X29570Y-13835D01*
X29570Y-13934D01*
X29608Y-14025D01*
X29644Y-14061D01*
X29641Y-14064D01*
X29641Y-14359D01*
X29904Y-14359D01*
X29965Y-14298D01*
X29965Y-14202D01*
X29936Y-14133D01*
X30007Y-14134D01*
X30069Y-14072D01*
X30069Y-14455D01*
X29541Y-14455D01*
X29541Y-14359D01*
X29541Y-14309D01*
X29541Y-14064D01*
X29479Y-14002D01*
X29417Y-14003D01*
X29325Y-14041D01*
X29291Y-14075D01*
X29285Y-14069D01*
X29330Y-14025D01*
X29368Y-13934D01*
X29368Y-13835D01*
X29368Y-13247D01*
X29434Y-13181D01*
X29533Y-13181D01*
X29569Y-13165D01*
X29569Y-13372D01*
X29631Y-13434D01*
X30069Y-13434D01*
X30069Y-12896D01*
X30007Y-12834D01*
X29874Y-12834D01*
X29874Y-12672D01*
X29840Y-12591D01*
X29855Y-12591D01*
X29947Y-12553D01*
X29981Y-12519D01*
X30015Y-12553D01*
X30107Y-12591D01*
X30169Y-12592D01*
X30231Y-12530D01*
X30231Y-12285D01*
X30231Y-12235D01*
X30231Y-12135D01*
X30231Y-12085D01*
X30231Y-11840D01*
X30169Y-11778D01*
X30107Y-11779D01*
X30015Y-11817D01*
X29981Y-11851D01*
X29947Y-11817D01*
X29856Y-11779D01*
X29757Y-11779D01*
X29532Y-11779D01*
X29610Y-11747D01*
X29680Y-11677D01*
X29718Y-11586D01*
X29718Y-11487D01*
X29718Y-11482D01*
X29734Y-11489D01*
X29833Y-11489D01*
X30223Y-11490D01*
X30285Y-11428D01*
X30285Y-10857D01*
X29971Y-10857D01*
X29596Y-10857D01*
X29490Y-10857D01*
X29440Y-10857D01*
X29340Y-10857D01*
X29290Y-10857D01*
X28809Y-10857D01*
X28807Y-10859D01*
X28790Y-10842D01*
X28495Y-10842D01*
X28495Y-11105D01*
X28556Y-11166D01*
X28652Y-11166D01*
X28743Y-11128D01*
X28785Y-11085D01*
X28786Y-11086D01*
X28802Y-11102D01*
X28786Y-11119D01*
X28748Y-11210D01*
X28748Y-11309D01*
X28748Y-11473D01*
X28680Y-11541D01*
X28617Y-11635D01*
X28595Y-11746D01*
X28595Y-11781D01*
X28564Y-11794D01*
X28514Y-11844D01*
X28514Y-11606D01*
X28476Y-11514D01*
X28406Y-11444D01*
X28395Y-11439D01*
X28395Y-11105D01*
X28395Y-10842D01*
X28100Y-10842D01*
X28063Y-10878D01*
X28042Y-10857D01*
X27668Y-10857D01*
X27668Y-11133D01*
X27730Y-11195D01*
X27805Y-11194D01*
X27904Y-11194D01*
X27995Y-11156D01*
X28065Y-11086D01*
X28076Y-11057D01*
X28077Y-11058D01*
X28147Y-11128D01*
X28238Y-11166D01*
X28334Y-11166D01*
X28395Y-11105D01*
X28395Y-11439D01*
X28315Y-11406D01*
X28216Y-11406D01*
X27856Y-11406D01*
X27764Y-11444D01*
X27694Y-11514D01*
X27660Y-11595D01*
X27608Y-11595D01*
X27562Y-11549D01*
X27471Y-11511D01*
X27372Y-11511D01*
X27058Y-11511D01*
X26966Y-11549D01*
X26929Y-11586D01*
X26912Y-11569D01*
X26821Y-11531D01*
X26722Y-11531D01*
X26408Y-11531D01*
X26316Y-11569D01*
X26246Y-11639D01*
X26208Y-11730D01*
X26208Y-11829D01*
X26208Y-12079D01*
X26246Y-12171D01*
X26280Y-12205D01*
X26246Y-12239D01*
X26240Y-12253D01*
X26186Y-12199D01*
X26102Y-12164D01*
X26102Y-12116D01*
X26148Y-12070D01*
X26186Y-11979D01*
X26186Y-11880D01*
X26186Y-11566D01*
X26148Y-11474D01*
X26078Y-11404D01*
X25987Y-11366D01*
X25888Y-11366D01*
X25808Y-11366D01*
X25828Y-11346D01*
X25866Y-11254D01*
X25867Y-11017D01*
X25805Y-10955D01*
X25317Y-10955D01*
X25267Y-10955D01*
X25167Y-10955D01*
X25117Y-10955D01*
X24629Y-10955D01*
X24567Y-11017D01*
X24568Y-11254D01*
X24606Y-11346D01*
X24676Y-11416D01*
X24767Y-11454D01*
X24866Y-11454D01*
X24895Y-11454D01*
X24876Y-11474D01*
X24838Y-11565D01*
X24838Y-11664D01*
X24838Y-11801D01*
X24691Y-11740D01*
X24522Y-11740D01*
X24515Y-11742D01*
X24148Y-11375D01*
X24148Y-10929D01*
X24161Y-10929D01*
X24222Y-10868D01*
X24222Y-10655D01*
X24222Y-10605D01*
X24222Y-10505D01*
X24322Y-10505D01*
X24322Y-10605D01*
X24322Y-10655D01*
X24322Y-10868D01*
X24383Y-10929D01*
X24479Y-10929D01*
X24570Y-10891D01*
X24617Y-10843D01*
X24629Y-10855D01*
X25167Y-10855D01*
X25167Y-10417D01*
X25105Y-10355D01*
X24866Y-10356D01*
X24767Y-10356D01*
X24678Y-10393D01*
X24678Y-10381D01*
X24640Y-10289D01*
X24606Y-10255D01*
X24616Y-10245D01*
X24867Y-10245D01*
X24978Y-10223D01*
X25072Y-10160D01*
X25078Y-10154D01*
X25666Y-10154D01*
X25716Y-10133D01*
X25716Y-10376D01*
X25667Y-10356D01*
X25568Y-10356D01*
X25329Y-10355D01*
X25267Y-10417D01*
X25267Y-10855D01*
X25805Y-10855D01*
X25812Y-10848D01*
X25824Y-10860D01*
X25915Y-10898D01*
X26014Y-10898D01*
X27116Y-10898D01*
X27132Y-10891D01*
X27132Y-10907D01*
X27143Y-10907D01*
X27132Y-10919D01*
X27133Y-10994D01*
X27171Y-11086D01*
X27241Y-11156D01*
X27332Y-11194D01*
X27431Y-11194D01*
X27506Y-11195D01*
X27568Y-11133D01*
X27568Y-10907D01*
X27568Y-10857D01*
X27568Y-10757D01*
X27668Y-10757D01*
X27718Y-10757D01*
X28042Y-10757D01*
X28078Y-10720D01*
X28100Y-10742D01*
X28345Y-10742D01*
X28395Y-10742D01*
X28495Y-10742D01*
X28545Y-10742D01*
X28790Y-10742D01*
X28792Y-10740D01*
X28809Y-10757D01*
X29290Y-10757D01*
X29340Y-10757D01*
X29440Y-10757D01*
X29490Y-10757D01*
X29596Y-10757D01*
X29971Y-10757D01*
X30285Y-10757D01*
X30285Y-10186D01*
X30223Y-10124D01*
X29833Y-10125D01*
X29734Y-10125D01*
X29718Y-10131D01*
X29718Y-10029D01*
X29680Y-09937D01*
X29610Y-09867D01*
X29519Y-09829D01*
X29420Y-09829D01*
X28948Y-09829D01*
X28856Y-09867D01*
X28855Y-09868D01*
X28755Y-09868D01*
X28743Y-09856D01*
X28652Y-09818D01*
X28553Y-09818D01*
X28239Y-09818D01*
X28176Y-09844D01*
X28090Y-09844D01*
X28103Y-09813D01*
X28103Y-09714D01*
X28103Y-09633D01*
X28491Y-09245D01*
X28819Y-09245D01*
X28952Y-09219D01*
X28953Y-09219D01*
X29065Y-09143D01*
X29301Y-08908D01*
X29301Y-08907D01*
X29351Y-08832D01*
X29376Y-08795D01*
X29377Y-08794D01*
X29402Y-08662D01*
X29403Y-08661D01*
X29403Y-07244D01*
X29402Y-07243D01*
X29377Y-07111D01*
X29376Y-07110D01*
X29351Y-07073D01*
X29340Y-07057D01*
X31479Y-07057D01*
X31336Y-07200D01*
X31207Y-07509D01*
X31207Y-07843D01*
X31334Y-08152D01*
X31570Y-08388D01*
X31879Y-08517D01*
X32213Y-08517D01*
X32522Y-08390D01*
X32758Y-08154D01*
X32887Y-07845D01*
X32887Y-07511D01*
X32760Y-07202D01*
X32615Y-07057D01*
X34911Y-07057D01*
X34911Y-20521D01*
X34911Y-20521D01*
G37*
G54D28*
X34911Y-20521D02*
X34369Y-20521D01*
X34369Y-15919D01*
X34307Y-15857D01*
X33869Y-15857D01*
X33869Y-16295D01*
X33931Y-16357D01*
X34070Y-16356D01*
X34169Y-16356D01*
X34260Y-16318D01*
X34330Y-16248D01*
X34368Y-16156D01*
X34369Y-15919D01*
X34369Y-20521D01*
X33769Y-20521D01*
X33769Y-16295D01*
X33769Y-15857D01*
X33331Y-15857D01*
X33269Y-15919D01*
X33270Y-16156D01*
X33308Y-16248D01*
X33378Y-16318D01*
X33469Y-16356D01*
X33568Y-16356D01*
X33707Y-16357D01*
X33769Y-16295D01*
X33769Y-20521D01*
X32355Y-20521D01*
X32463Y-20477D01*
X32699Y-20241D01*
X32828Y-19932D01*
X32828Y-19598D01*
X32701Y-19289D01*
X32465Y-19053D01*
X32156Y-18924D01*
X31822Y-18924D01*
X31513Y-19051D01*
X31277Y-19287D01*
X31148Y-19596D01*
X31148Y-19930D01*
X31275Y-20239D01*
X31511Y-20475D01*
X31621Y-20521D01*
X27904Y-20521D01*
X27904Y-18690D01*
X27842Y-18628D01*
X27524Y-18628D01*
X27524Y-18946D01*
X27586Y-19008D01*
X27605Y-19007D01*
X27704Y-19007D01*
X27795Y-18969D01*
X27865Y-18899D01*
X27903Y-18807D01*
X27904Y-18690D01*
X27904Y-20521D01*
X27424Y-20521D01*
X27424Y-18946D01*
X27424Y-18628D01*
X27106Y-18628D01*
X27044Y-18690D01*
X27045Y-18807D01*
X27083Y-18899D01*
X27153Y-18969D01*
X27244Y-19007D01*
X27343Y-19007D01*
X27362Y-19008D01*
X27424Y-18946D01*
X27424Y-20521D01*
X24973Y-20521D01*
X25081Y-20477D01*
X25317Y-20241D01*
X25446Y-19932D01*
X25446Y-19598D01*
X25319Y-19289D01*
X25083Y-19053D01*
X24774Y-18924D01*
X24440Y-18924D01*
X24131Y-19051D01*
X23895Y-19287D01*
X23766Y-19596D01*
X23766Y-19930D01*
X23893Y-20239D01*
X24129Y-20475D01*
X24239Y-20521D01*
X23739Y-20521D01*
X23739Y-16746D01*
X23677Y-16684D01*
X23239Y-16684D01*
X23239Y-17122D01*
X23301Y-17184D01*
X23440Y-17183D01*
X23539Y-17183D01*
X23630Y-17145D01*
X23700Y-17075D01*
X23738Y-16983D01*
X23739Y-16746D01*
X23739Y-20521D01*
X23139Y-20521D01*
X23139Y-17122D01*
X23139Y-16684D01*
X22701Y-16684D01*
X22639Y-16746D01*
X22640Y-16983D01*
X22678Y-17075D01*
X22748Y-17145D01*
X22839Y-17183D01*
X22938Y-17183D01*
X23077Y-17184D01*
X23139Y-17122D01*
X23139Y-20521D01*
X22175Y-20521D01*
X22175Y-07057D01*
X24118Y-07057D01*
X23981Y-07194D01*
X23904Y-07379D01*
X23904Y-07580D01*
X23981Y-07766D01*
X24089Y-07874D01*
X23981Y-07982D01*
X23904Y-08167D01*
X23904Y-08368D01*
X23981Y-08554D01*
X24123Y-08696D01*
X24308Y-08773D01*
X24509Y-08773D01*
X24695Y-08696D01*
X24803Y-08588D01*
X24911Y-08696D01*
X25096Y-08773D01*
X25297Y-08773D01*
X25483Y-08696D01*
X25590Y-08588D01*
X25698Y-08696D01*
X25883Y-08773D01*
X26084Y-08773D01*
X26270Y-08696D01*
X26378Y-08588D01*
X26486Y-08696D01*
X26671Y-08773D01*
X26872Y-08773D01*
X27058Y-08696D01*
X27165Y-08588D01*
X27273Y-08696D01*
X27458Y-08773D01*
X27659Y-08773D01*
X27845Y-08696D01*
X27953Y-08588D01*
X28058Y-08693D01*
X27677Y-09075D01*
X27647Y-09045D01*
X27535Y-08969D01*
X27401Y-08943D01*
X27166Y-08943D01*
X25531Y-08943D01*
X25397Y-08969D01*
X25285Y-09045D01*
X25274Y-09056D01*
X24768Y-09056D01*
X24676Y-09094D01*
X24606Y-09164D01*
X24568Y-09255D01*
X24568Y-09354D01*
X24568Y-09618D01*
X24479Y-09581D01*
X24380Y-09581D01*
X24263Y-09581D01*
X24283Y-09534D01*
X24283Y-09365D01*
X24219Y-09209D01*
X24099Y-09089D01*
X23943Y-09024D01*
X23774Y-09024D01*
X23618Y-09088D01*
X23498Y-09208D01*
X23433Y-09364D01*
X23433Y-09533D01*
X23497Y-09689D01*
X23568Y-09760D01*
X23568Y-10237D01*
X23500Y-10169D01*
X23298Y-10085D01*
X23080Y-10085D01*
X22878Y-10169D01*
X22724Y-10323D01*
X22640Y-10525D01*
X22640Y-10743D01*
X22724Y-10945D01*
X22878Y-11099D01*
X22962Y-11134D01*
X22878Y-11169D01*
X22724Y-11323D01*
X22640Y-11525D01*
X22640Y-11743D01*
X22724Y-11945D01*
X22878Y-12099D01*
X22962Y-12134D01*
X22878Y-12169D01*
X22724Y-12323D01*
X22640Y-12525D01*
X22640Y-12618D01*
X22512Y-12747D01*
X22449Y-12841D01*
X22427Y-12952D01*
X22427Y-13898D01*
X22449Y-14009D01*
X22512Y-14103D01*
X22727Y-14319D01*
X22724Y-14323D01*
X22640Y-14525D01*
X22640Y-14743D01*
X22724Y-14945D01*
X22878Y-15099D01*
X22962Y-15134D01*
X22878Y-15169D01*
X22724Y-15323D01*
X22640Y-15525D01*
X22640Y-15743D01*
X22724Y-15945D01*
X22864Y-16085D01*
X22839Y-16085D01*
X22748Y-16123D01*
X22678Y-16193D01*
X22640Y-16285D01*
X22639Y-16522D01*
X22701Y-16584D01*
X23089Y-16584D01*
X23139Y-16584D01*
X23239Y-16584D01*
X23289Y-16584D01*
X23677Y-16584D01*
X23739Y-16522D01*
X23738Y-16285D01*
X23700Y-16193D01*
X23630Y-16123D01*
X23539Y-16085D01*
X23514Y-16085D01*
X23654Y-15945D01*
X23662Y-15924D01*
X24176Y-15924D01*
X25513Y-17261D01*
X25513Y-17462D01*
X25467Y-17508D01*
X25429Y-17599D01*
X25429Y-17698D01*
X25429Y-18148D01*
X25467Y-18240D01*
X25537Y-18310D01*
X25628Y-18348D01*
X25727Y-18348D01*
X25977Y-18348D01*
X26069Y-18310D01*
X26103Y-18276D01*
X26137Y-18310D01*
X26228Y-18348D01*
X26327Y-18348D01*
X26577Y-18348D01*
X26669Y-18310D01*
X26739Y-18240D01*
X26770Y-18164D01*
X27068Y-18164D01*
X27083Y-18199D01*
X27112Y-18228D01*
X27083Y-18257D01*
X27045Y-18349D01*
X27044Y-18466D01*
X27106Y-18528D01*
X27374Y-18528D01*
X27424Y-18528D01*
X27524Y-18528D01*
X27574Y-18528D01*
X27842Y-18528D01*
X27864Y-18505D01*
X27883Y-18549D01*
X27953Y-18619D01*
X28044Y-18657D01*
X28143Y-18657D01*
X28503Y-18657D01*
X28595Y-18619D01*
X28665Y-18549D01*
X28677Y-18518D01*
X28820Y-18518D01*
X28852Y-18594D01*
X28922Y-18664D01*
X29013Y-18702D01*
X29112Y-18702D01*
X29362Y-18702D01*
X29454Y-18664D01*
X29488Y-18630D01*
X29522Y-18664D01*
X29613Y-18702D01*
X29712Y-18702D01*
X29962Y-18702D01*
X30054Y-18664D01*
X30124Y-18594D01*
X30155Y-18518D01*
X30866Y-18518D01*
X30977Y-18496D01*
X31071Y-18433D01*
X32371Y-17133D01*
X32434Y-17039D01*
X32456Y-16928D01*
X32456Y-15434D01*
X32793Y-15097D01*
X33345Y-15097D01*
X33354Y-15118D01*
X33494Y-15258D01*
X33469Y-15258D01*
X33378Y-15296D01*
X33308Y-15366D01*
X33270Y-15458D01*
X33269Y-15695D01*
X33331Y-15757D01*
X33719Y-15757D01*
X33769Y-15757D01*
X33869Y-15757D01*
X33919Y-15757D01*
X34307Y-15757D01*
X34369Y-15695D01*
X34368Y-15458D01*
X34330Y-15366D01*
X34260Y-15296D01*
X34169Y-15258D01*
X34144Y-15258D01*
X34284Y-15118D01*
X34368Y-14916D01*
X34368Y-14698D01*
X34284Y-14496D01*
X34130Y-14342D01*
X34045Y-14307D01*
X34130Y-14272D01*
X34284Y-14118D01*
X34368Y-13916D01*
X34368Y-13698D01*
X34284Y-13496D01*
X34130Y-13342D01*
X34045Y-13307D01*
X34130Y-13272D01*
X34284Y-13118D01*
X34368Y-12916D01*
X34368Y-12698D01*
X34284Y-12496D01*
X34130Y-12342D01*
X34045Y-12307D01*
X34130Y-12272D01*
X34284Y-12118D01*
X34368Y-11916D01*
X34368Y-11698D01*
X34284Y-11496D01*
X34130Y-11342D01*
X34045Y-11307D01*
X34130Y-11272D01*
X34284Y-11118D01*
X34368Y-10916D01*
X34368Y-10698D01*
X34284Y-10496D01*
X34130Y-10342D01*
X33928Y-10258D01*
X33710Y-10258D01*
X33508Y-10342D01*
X33354Y-10496D01*
X33339Y-10532D01*
X33339Y-10321D01*
X33339Y-10152D01*
X33275Y-09996D01*
X33155Y-09876D01*
X32999Y-09811D01*
X32830Y-09811D01*
X32674Y-09875D01*
X32622Y-09927D01*
X31710Y-09927D01*
X31698Y-09915D01*
X31542Y-09850D01*
X31373Y-09850D01*
X31217Y-09914D01*
X31097Y-10034D01*
X31038Y-10174D01*
X31027Y-10163D01*
X30976Y-10141D01*
X30976Y-09415D01*
X30976Y-09246D01*
X30912Y-09090D01*
X30792Y-08970D01*
X30636Y-08905D01*
X30467Y-08905D01*
X30311Y-08969D01*
X30191Y-09089D01*
X30126Y-09245D01*
X30126Y-09414D01*
X30190Y-09570D01*
X30310Y-09690D01*
X30466Y-09755D01*
X30635Y-09755D01*
X30791Y-09691D01*
X30911Y-09571D01*
X30976Y-09415D01*
X30976Y-10141D01*
X30936Y-10125D01*
X30837Y-10125D01*
X30447Y-10124D01*
X30385Y-10186D01*
X30385Y-10757D01*
X31074Y-10757D01*
X31136Y-10695D01*
X31135Y-10554D01*
X31216Y-10635D01*
X31372Y-10700D01*
X31541Y-10700D01*
X31697Y-10636D01*
X31710Y-10623D01*
X32737Y-10623D01*
X32829Y-10661D01*
X32998Y-10661D01*
X33154Y-10597D01*
X33274Y-10477D01*
X33339Y-10321D01*
X33339Y-10532D01*
X33270Y-10698D01*
X33270Y-10916D01*
X33354Y-11118D01*
X33508Y-11272D01*
X33592Y-11307D01*
X33508Y-11342D01*
X33354Y-11496D01*
X33270Y-11698D01*
X33270Y-11916D01*
X33354Y-12118D01*
X33508Y-12272D01*
X33592Y-12307D01*
X33508Y-12342D01*
X33354Y-12496D01*
X33270Y-12698D01*
X33270Y-12916D01*
X33354Y-13118D01*
X33508Y-13272D01*
X33592Y-13307D01*
X33508Y-13342D01*
X33384Y-13466D01*
X32249Y-13466D01*
X32116Y-13492D01*
X32078Y-13517D01*
X32002Y-13568D01*
X31136Y-14434D01*
X31136Y-10919D01*
X31074Y-10857D01*
X30385Y-10857D01*
X30385Y-11428D01*
X30447Y-11490D01*
X30837Y-11489D01*
X30936Y-11489D01*
X31027Y-11451D01*
X31097Y-11381D01*
X31135Y-11289D01*
X31136Y-10919D01*
X31136Y-14434D01*
X31115Y-14455D01*
X30669Y-14455D01*
X30669Y-13596D01*
X30669Y-13372D01*
X30668Y-13133D01*
X30668Y-13034D01*
X30655Y-13002D01*
X30655Y-12392D01*
X30655Y-12296D01*
X30655Y-12074D01*
X30655Y-11978D01*
X30617Y-11887D01*
X30547Y-11817D01*
X30455Y-11779D01*
X30393Y-11778D01*
X30331Y-11840D01*
X30331Y-12135D01*
X30594Y-12135D01*
X30655Y-12074D01*
X30655Y-12296D01*
X30594Y-12235D01*
X30331Y-12235D01*
X30331Y-12530D01*
X30393Y-12592D01*
X30455Y-12591D01*
X30547Y-12553D01*
X30617Y-12483D01*
X30655Y-12392D01*
X30655Y-13002D01*
X30630Y-12943D01*
X30560Y-12873D01*
X30468Y-12835D01*
X30231Y-12834D01*
X30169Y-12896D01*
X30169Y-13434D01*
X30607Y-13434D01*
X30669Y-13372D01*
X30669Y-13596D01*
X30607Y-13534D01*
X30169Y-13534D01*
X30169Y-14072D01*
X30231Y-14134D01*
X30468Y-14133D01*
X30560Y-14095D01*
X30630Y-14025D01*
X30668Y-13934D01*
X30668Y-13835D01*
X30669Y-13596D01*
X30669Y-14455D01*
X30274Y-14455D01*
X30069Y-14455D01*
X30069Y-14072D01*
X30069Y-13534D01*
X29631Y-13534D01*
X29569Y-13596D01*
X29570Y-13835D01*
X29570Y-13934D01*
X29608Y-14025D01*
X29644Y-14061D01*
X29641Y-14064D01*
X29641Y-14359D01*
X29904Y-14359D01*
X29965Y-14298D01*
X29965Y-14202D01*
X29936Y-14133D01*
X30007Y-14134D01*
X30069Y-14072D01*
X30069Y-14455D01*
X29541Y-14455D01*
X29541Y-14359D01*
X29541Y-14309D01*
X29541Y-14064D01*
X29479Y-14002D01*
X29417Y-14003D01*
X29325Y-14041D01*
X29291Y-14075D01*
X29285Y-14069D01*
X29330Y-14025D01*
X29368Y-13934D01*
X29368Y-13835D01*
X29368Y-13247D01*
X29434Y-13181D01*
X29533Y-13181D01*
X29569Y-13165D01*
X29569Y-13372D01*
X29631Y-13434D01*
X30069Y-13434D01*
X30069Y-12896D01*
X30007Y-12834D01*
X29874Y-12834D01*
X29874Y-12672D01*
X29840Y-12591D01*
X29855Y-12591D01*
X29947Y-12553D01*
X29981Y-12519D01*
X30015Y-12553D01*
X30107Y-12591D01*
X30169Y-12592D01*
X30231Y-12530D01*
X30231Y-12285D01*
X30231Y-12235D01*
X30231Y-12135D01*
X30231Y-12085D01*
X30231Y-11840D01*
X30169Y-11778D01*
X30107Y-11779D01*
X30015Y-11817D01*
X29981Y-11851D01*
X29947Y-11817D01*
X29856Y-11779D01*
X29757Y-11779D01*
X29532Y-11779D01*
X29610Y-11747D01*
X29680Y-11677D01*
X29718Y-11586D01*
X29718Y-11487D01*
X29718Y-11482D01*
X29734Y-11489D01*
X29833Y-11489D01*
X30223Y-11490D01*
X30285Y-11428D01*
X30285Y-10857D01*
X29971Y-10857D01*
X29596Y-10857D01*
X29490Y-10857D01*
X29440Y-10857D01*
X29340Y-10857D01*
X29290Y-10857D01*
X28809Y-10857D01*
X28807Y-10859D01*
X28790Y-10842D01*
X28495Y-10842D01*
X28495Y-11105D01*
X28556Y-11166D01*
X28652Y-11166D01*
X28743Y-11128D01*
X28785Y-11085D01*
X28786Y-11086D01*
X28802Y-11102D01*
X28786Y-11119D01*
X28748Y-11210D01*
X28748Y-11309D01*
X28748Y-11473D01*
X28680Y-11541D01*
X28617Y-11635D01*
X28595Y-11746D01*
X28595Y-11781D01*
X28564Y-11794D01*
X28514Y-11844D01*
X28514Y-11606D01*
X28476Y-11514D01*
X28406Y-11444D01*
X28395Y-11439D01*
X28395Y-11105D01*
X28395Y-10842D01*
X28100Y-10842D01*
X28063Y-10878D01*
X28042Y-10857D01*
X27668Y-10857D01*
X27668Y-11133D01*
X27730Y-11195D01*
X27805Y-11194D01*
X27904Y-11194D01*
X27995Y-11156D01*
X28065Y-11086D01*
X28076Y-11057D01*
X28077Y-11058D01*
X28147Y-11128D01*
X28238Y-11166D01*
X28334Y-11166D01*
X28395Y-11105D01*
X28395Y-11439D01*
X28315Y-11406D01*
X28216Y-11406D01*
X27856Y-11406D01*
X27764Y-11444D01*
X27694Y-11514D01*
X27660Y-11595D01*
X27608Y-11595D01*
X27562Y-11549D01*
X27471Y-11511D01*
X27372Y-11511D01*
X27058Y-11511D01*
X26966Y-11549D01*
X26929Y-11586D01*
X26912Y-11569D01*
X26821Y-11531D01*
X26722Y-11531D01*
X26408Y-11531D01*
X26316Y-11569D01*
X26246Y-11639D01*
X26208Y-11730D01*
X26208Y-11829D01*
X26208Y-12079D01*
X26246Y-12171D01*
X26280Y-12205D01*
X26246Y-12239D01*
X26240Y-12253D01*
X26186Y-12199D01*
X26102Y-12164D01*
X26102Y-12116D01*
X26148Y-12070D01*
X26186Y-11979D01*
X26186Y-11880D01*
X26186Y-11566D01*
X26148Y-11474D01*
X26078Y-11404D01*
X25987Y-11366D01*
X25888Y-11366D01*
X25808Y-11366D01*
X25828Y-11346D01*
X25866Y-11254D01*
X25867Y-11017D01*
X25805Y-10955D01*
X25317Y-10955D01*
X25267Y-10955D01*
X25167Y-10955D01*
X25117Y-10955D01*
X24629Y-10955D01*
X24567Y-11017D01*
X24568Y-11254D01*
X24606Y-11346D01*
X24676Y-11416D01*
X24767Y-11454D01*
X24866Y-11454D01*
X24895Y-11454D01*
X24876Y-11474D01*
X24838Y-11565D01*
X24838Y-11664D01*
X24838Y-11801D01*
X24691Y-11740D01*
X24522Y-11740D01*
X24515Y-11742D01*
X24148Y-11375D01*
X24148Y-10929D01*
X24161Y-10929D01*
X24222Y-10868D01*
X24222Y-10655D01*
X24222Y-10605D01*
X24222Y-10505D01*
X24322Y-10505D01*
X24322Y-10605D01*
X24322Y-10655D01*
X24322Y-10868D01*
X24383Y-10929D01*
X24479Y-10929D01*
X24570Y-10891D01*
X24617Y-10843D01*
X24629Y-10855D01*
X25167Y-10855D01*
X25167Y-10417D01*
X25105Y-10355D01*
X24866Y-10356D01*
X24767Y-10356D01*
X24678Y-10393D01*
X24678Y-10381D01*
X24640Y-10289D01*
X24606Y-10255D01*
X24616Y-10245D01*
X24867Y-10245D01*
X24978Y-10223D01*
X25072Y-10160D01*
X25078Y-10154D01*
X25666Y-10154D01*
X25716Y-10133D01*
X25716Y-10376D01*
X25667Y-10356D01*
X25568Y-10356D01*
X25329Y-10355D01*
X25267Y-10417D01*
X25267Y-10855D01*
X25805Y-10855D01*
X25812Y-10848D01*
X25824Y-10860D01*
X25915Y-10898D01*
X26014Y-10898D01*
X27116Y-10898D01*
X27132Y-10891D01*
X27132Y-10907D01*
X27143Y-10907D01*
X27132Y-10919D01*
X27133Y-10994D01*
X27171Y-11086D01*
X27241Y-11156D01*
X27332Y-11194D01*
X27431Y-11194D01*
X27506Y-11195D01*
X27568Y-11133D01*
X27568Y-10907D01*
X27568Y-10857D01*
X27568Y-10757D01*
X27668Y-10757D01*
X27718Y-10757D01*
X28042Y-10757D01*
X28078Y-10720D01*
X28100Y-10742D01*
X28345Y-10742D01*
X28395Y-10742D01*
X28495Y-10742D01*
X28545Y-10742D01*
X28790Y-10742D01*
X28792Y-10740D01*
X28809Y-10757D01*
X29290Y-10757D01*
X29340Y-10757D01*
X29440Y-10757D01*
X29490Y-10757D01*
X29596Y-10757D01*
X29971Y-10757D01*
X30285Y-10757D01*
X30285Y-10186D01*
X30223Y-10124D01*
X29833Y-10125D01*
X29734Y-10125D01*
X29718Y-10131D01*
X29718Y-10029D01*
X29680Y-09937D01*
X29610Y-09867D01*
X29519Y-09829D01*
X29420Y-09829D01*
X28948Y-09829D01*
X28856Y-09867D01*
X28855Y-09868D01*
X28755Y-09868D01*
X28743Y-09856D01*
X28652Y-09818D01*
X28553Y-09818D01*
X28239Y-09818D01*
X28176Y-09844D01*
X28090Y-09844D01*
X28103Y-09813D01*
X28103Y-09714D01*
X28103Y-09633D01*
X28491Y-09245D01*
X28819Y-09245D01*
X28952Y-09219D01*
X28953Y-09219D01*
X29065Y-09143D01*
X29301Y-08908D01*
X29301Y-08907D01*
X29351Y-08832D01*
X29376Y-08795D01*
X29377Y-08794D01*
X29402Y-08662D01*
X29403Y-08661D01*
X29403Y-07244D01*
X29402Y-07243D01*
X29377Y-07111D01*
X29376Y-07110D01*
X29351Y-07073D01*
X29340Y-07057D01*
X31479Y-07057D01*
X31336Y-07200D01*
X31207Y-07509D01*
X31207Y-07843D01*
X31334Y-08152D01*
X31570Y-08388D01*
X31879Y-08517D01*
X32213Y-08517D01*
X32522Y-08390D01*
X32758Y-08154D01*
X32887Y-07845D01*
X32887Y-07511D01*
X32760Y-07202D01*
X32615Y-07057D01*
X34911Y-07057D01*
X34911Y-20521D01*
M02*
