G04 (created by PCBNEW-RS274X (2011-11-27 BZR 3249)-stable) date 10/09/2012 4:54:59 p.m.*
G01*
G70*
G90*
%MOIN*%
G04 Gerber Fmt 3.4, Leading zero omitted, Abs format*
%FSLAX34Y34*%
G04 APERTURE LIST*
%ADD10C,0.006000*%
%ADD11C,0.009800*%
%ADD12C,0.005900*%
G04 APERTURE END LIST*
G54D10*
G54D11*
X30642Y-12821D02*
X30350Y-12821D01*
X30496Y-13372D02*
X30496Y-12821D01*
X30228Y-12821D02*
X29887Y-13372D01*
X29887Y-12821D02*
X30228Y-13372D01*
X28619Y-13319D02*
X28643Y-13345D01*
X28716Y-13372D01*
X28765Y-13372D01*
X28838Y-13345D01*
X28887Y-13293D01*
X28911Y-13240D01*
X28935Y-13135D01*
X28935Y-13057D01*
X28911Y-12952D01*
X28887Y-12899D01*
X28838Y-12847D01*
X28765Y-12821D01*
X28716Y-12821D01*
X28643Y-12847D01*
X28619Y-12873D01*
X28180Y-13372D02*
X28180Y-13083D01*
X28204Y-13030D01*
X28253Y-13004D01*
X28350Y-13004D01*
X28399Y-13030D01*
X28180Y-13345D02*
X28228Y-13372D01*
X28350Y-13372D01*
X28399Y-13345D01*
X28423Y-13293D01*
X28423Y-13240D01*
X28399Y-13188D01*
X28350Y-13162D01*
X28228Y-13162D01*
X28180Y-13135D01*
X27717Y-13372D02*
X27717Y-12821D01*
X27717Y-13345D02*
X27765Y-13372D01*
X27863Y-13372D01*
X27912Y-13345D01*
X27936Y-13319D01*
X27960Y-13267D01*
X27960Y-13109D01*
X27936Y-13057D01*
X27912Y-13030D01*
X27863Y-13004D01*
X27765Y-13004D01*
X27717Y-13030D01*
X27254Y-13372D02*
X27254Y-12821D01*
X27254Y-13345D02*
X27302Y-13372D01*
X27400Y-13372D01*
X27449Y-13345D01*
X27473Y-13319D01*
X27497Y-13267D01*
X27497Y-13109D01*
X27473Y-13057D01*
X27449Y-13030D01*
X27400Y-13004D01*
X27302Y-13004D01*
X27254Y-13030D01*
X27059Y-13004D02*
X26937Y-13372D01*
X26815Y-13004D02*
X26937Y-13372D01*
X26986Y-13503D01*
X27010Y-13529D01*
X27059Y-13555D01*
X26279Y-13004D02*
X26157Y-13372D01*
X26035Y-13004D01*
X25572Y-13372D02*
X25864Y-13372D01*
X25718Y-13372D02*
X25718Y-12821D01*
X25767Y-12899D01*
X25816Y-12952D01*
X25864Y-12978D01*
X25352Y-13319D02*
X25328Y-13345D01*
X25352Y-13372D01*
X25376Y-13345D01*
X25352Y-13319D01*
X25352Y-13372D01*
X25011Y-12821D02*
X24962Y-12821D01*
X24913Y-12847D01*
X24889Y-12873D01*
X24864Y-12925D01*
X24840Y-13030D01*
X24840Y-13162D01*
X24864Y-13267D01*
X24889Y-13319D01*
X24913Y-13345D01*
X24962Y-13372D01*
X25011Y-13372D01*
X25059Y-13345D01*
X25084Y-13319D01*
X25108Y-13267D01*
X25132Y-13162D01*
X25132Y-13030D01*
X25108Y-12925D01*
X25084Y-12873D01*
X25059Y-12847D01*
X25011Y-12821D01*
G54D12*
X30630Y-14016D02*
X30630Y-13721D01*
X30512Y-14016D02*
X30512Y-13861D01*
X30525Y-13833D01*
X30551Y-13819D01*
X30591Y-13819D01*
X30617Y-13833D01*
X30630Y-13847D01*
X30420Y-13819D02*
X30315Y-13819D01*
X30380Y-13721D02*
X30380Y-13974D01*
X30367Y-14002D01*
X30341Y-14016D01*
X30315Y-14016D01*
X30262Y-13819D02*
X30157Y-13819D01*
X30222Y-13721D02*
X30222Y-13974D01*
X30209Y-14002D01*
X30183Y-14016D01*
X30157Y-14016D01*
X30064Y-13819D02*
X30064Y-14114D01*
X30064Y-13833D02*
X30038Y-13819D01*
X29985Y-13819D01*
X29959Y-13833D01*
X29946Y-13847D01*
X29933Y-13875D01*
X29933Y-13960D01*
X29946Y-13988D01*
X29959Y-14002D01*
X29985Y-14016D01*
X30038Y-14016D01*
X30064Y-14002D01*
X29814Y-13988D02*
X29801Y-14002D01*
X29814Y-14016D01*
X29827Y-14002D01*
X29814Y-13988D01*
X29814Y-14016D01*
X29814Y-13833D02*
X29801Y-13847D01*
X29814Y-13861D01*
X29827Y-13847D01*
X29814Y-13833D01*
X29814Y-13861D01*
X29486Y-13707D02*
X29723Y-14086D01*
X29197Y-13707D02*
X29434Y-14086D01*
X28987Y-13819D02*
X28987Y-14058D01*
X29000Y-14086D01*
X29013Y-14100D01*
X29040Y-14114D01*
X29079Y-14114D01*
X29105Y-14100D01*
X28987Y-14002D02*
X29013Y-14016D01*
X29066Y-14016D01*
X29092Y-14002D01*
X29105Y-13988D01*
X29118Y-13960D01*
X29118Y-13875D01*
X29105Y-13847D01*
X29092Y-13833D01*
X29066Y-13819D01*
X29013Y-13819D01*
X28987Y-13833D01*
X28855Y-14016D02*
X28855Y-13819D01*
X28855Y-13875D02*
X28842Y-13847D01*
X28829Y-13833D01*
X28803Y-13819D01*
X28776Y-13819D01*
X28566Y-13819D02*
X28566Y-14016D01*
X28684Y-13819D02*
X28684Y-13974D01*
X28671Y-14002D01*
X28645Y-14016D01*
X28605Y-14016D01*
X28579Y-14002D01*
X28566Y-13988D01*
X28461Y-13819D02*
X28395Y-14016D01*
X28329Y-13819D01*
X28224Y-14016D02*
X28224Y-13819D01*
X28224Y-13721D02*
X28237Y-13735D01*
X28224Y-13749D01*
X28211Y-13735D01*
X28224Y-13721D01*
X28224Y-13749D01*
X28093Y-13819D02*
X28093Y-14016D01*
X28093Y-13847D02*
X28080Y-13833D01*
X28054Y-13819D01*
X28014Y-13819D01*
X27988Y-13833D01*
X27975Y-13861D01*
X27975Y-14016D01*
X27830Y-14016D02*
X27778Y-14016D01*
X27751Y-14002D01*
X27738Y-13988D01*
X27712Y-13946D01*
X27699Y-13889D01*
X27699Y-13777D01*
X27712Y-13749D01*
X27725Y-13735D01*
X27751Y-13721D01*
X27804Y-13721D01*
X27830Y-13735D01*
X27843Y-13749D01*
X27856Y-13777D01*
X27856Y-13847D01*
X27843Y-13875D01*
X27830Y-13889D01*
X27804Y-13904D01*
X27751Y-13904D01*
X27725Y-13889D01*
X27712Y-13875D01*
X27699Y-13847D01*
X27607Y-14016D02*
X27462Y-13819D01*
X27607Y-13819D02*
X27462Y-14016D01*
X27357Y-13988D02*
X27344Y-14002D01*
X27357Y-14016D01*
X27370Y-14002D01*
X27357Y-13988D01*
X27357Y-14016D01*
X27108Y-13819D02*
X27108Y-14058D01*
X27121Y-14086D01*
X27134Y-14100D01*
X27161Y-14114D01*
X27200Y-14114D01*
X27226Y-14100D01*
X27108Y-14002D02*
X27134Y-14016D01*
X27187Y-14016D01*
X27213Y-14002D01*
X27226Y-13988D01*
X27239Y-13960D01*
X27239Y-13875D01*
X27226Y-13847D01*
X27213Y-13833D01*
X27187Y-13819D01*
X27134Y-13819D01*
X27108Y-13833D01*
X26937Y-14016D02*
X26963Y-14002D01*
X26976Y-13988D01*
X26989Y-13960D01*
X26989Y-13875D01*
X26976Y-13847D01*
X26963Y-13833D01*
X26937Y-13819D01*
X26897Y-13819D01*
X26871Y-13833D01*
X26858Y-13847D01*
X26845Y-13875D01*
X26845Y-13960D01*
X26858Y-13988D01*
X26871Y-14002D01*
X26897Y-14016D01*
X26937Y-14016D01*
X26687Y-14016D02*
X26713Y-14002D01*
X26726Y-13988D01*
X26739Y-13960D01*
X26739Y-13875D01*
X26726Y-13847D01*
X26713Y-13833D01*
X26687Y-13819D01*
X26647Y-13819D01*
X26621Y-13833D01*
X26608Y-13847D01*
X26595Y-13875D01*
X26595Y-13960D01*
X26608Y-13988D01*
X26621Y-14002D01*
X26647Y-14016D01*
X26687Y-14016D01*
X26358Y-13819D02*
X26358Y-14058D01*
X26371Y-14086D01*
X26384Y-14100D01*
X26411Y-14114D01*
X26450Y-14114D01*
X26476Y-14100D01*
X26358Y-14002D02*
X26384Y-14016D01*
X26437Y-14016D01*
X26463Y-14002D01*
X26476Y-13988D01*
X26489Y-13960D01*
X26489Y-13875D01*
X26476Y-13847D01*
X26463Y-13833D01*
X26437Y-13819D01*
X26384Y-13819D01*
X26358Y-13833D01*
X26187Y-14016D02*
X26213Y-14002D01*
X26226Y-13974D01*
X26226Y-13721D01*
X25976Y-14002D02*
X26002Y-14016D01*
X26055Y-14016D01*
X26081Y-14002D01*
X26094Y-13974D01*
X26094Y-13861D01*
X26081Y-13833D01*
X26055Y-13819D01*
X26002Y-13819D01*
X25976Y-13833D01*
X25963Y-13861D01*
X25963Y-13889D01*
X26094Y-13918D01*
X25726Y-14002D02*
X25752Y-14016D01*
X25805Y-14016D01*
X25831Y-14002D01*
X25844Y-13988D01*
X25857Y-13960D01*
X25857Y-13875D01*
X25844Y-13847D01*
X25831Y-13833D01*
X25805Y-13819D01*
X25752Y-13819D01*
X25726Y-13833D01*
X25568Y-14016D02*
X25594Y-14002D01*
X25607Y-13988D01*
X25620Y-13960D01*
X25620Y-13875D01*
X25607Y-13847D01*
X25594Y-13833D01*
X25568Y-13819D01*
X25528Y-13819D01*
X25502Y-13833D01*
X25489Y-13847D01*
X25476Y-13875D01*
X25476Y-13960D01*
X25489Y-13988D01*
X25502Y-14002D01*
X25528Y-14016D01*
X25568Y-14016D01*
X25239Y-14016D02*
X25239Y-13721D01*
X25239Y-14002D02*
X25265Y-14016D01*
X25318Y-14016D01*
X25344Y-14002D01*
X25357Y-13988D01*
X25370Y-13960D01*
X25370Y-13875D01*
X25357Y-13847D01*
X25344Y-13833D01*
X25318Y-13819D01*
X25265Y-13819D01*
X25239Y-13833D01*
X25002Y-14002D02*
X25028Y-14016D01*
X25081Y-14016D01*
X25107Y-14002D01*
X25120Y-13974D01*
X25120Y-13861D01*
X25107Y-13833D01*
X25081Y-13819D01*
X25028Y-13819D01*
X25002Y-13833D01*
X24989Y-13861D01*
X24989Y-13889D01*
X25120Y-13918D01*
X24870Y-13988D02*
X24857Y-14002D01*
X24870Y-14016D01*
X24883Y-14002D01*
X24870Y-13988D01*
X24870Y-14016D01*
X24621Y-14002D02*
X24647Y-14016D01*
X24700Y-14016D01*
X24726Y-14002D01*
X24739Y-13988D01*
X24752Y-13960D01*
X24752Y-13875D01*
X24739Y-13847D01*
X24726Y-13833D01*
X24700Y-13819D01*
X24647Y-13819D01*
X24621Y-13833D01*
X24463Y-14016D02*
X24489Y-14002D01*
X24502Y-13988D01*
X24515Y-13960D01*
X24515Y-13875D01*
X24502Y-13847D01*
X24489Y-13833D01*
X24463Y-13819D01*
X24423Y-13819D01*
X24397Y-13833D01*
X24384Y-13847D01*
X24371Y-13875D01*
X24371Y-13960D01*
X24384Y-13988D01*
X24397Y-14002D01*
X24423Y-14016D01*
X24463Y-14016D01*
X24252Y-14016D02*
X24252Y-13819D01*
X24252Y-13847D02*
X24239Y-13833D01*
X24213Y-13819D01*
X24173Y-13819D01*
X24147Y-13833D01*
X24134Y-13861D01*
X24134Y-14016D01*
X24134Y-13861D02*
X24121Y-13833D01*
X24095Y-13819D01*
X24055Y-13819D01*
X24029Y-13833D01*
X24016Y-13861D01*
X24016Y-14016D01*
M02*
