M48
;DRILL file {Pcbnew (2012-01-19 BZR 3256)-stable} date Wed 26 Sep 2012 04:39:13 PM NZST
;FORMAT={-:-/ absolute / metric / decimal}
FMAT,2
METRIC,TZ
T1C0.635
T2C0.813
T3C1.016
T4C3.000
%
G90
G05
M71
T1
X57.000Y-19.200
X57.000Y-24.999
X57.000Y-30.800
X57.000Y-35.999
X57.000Y-44.199
X57.000Y-50.899
X59.301Y-22.799
X59.601Y-18.999
X60.599Y-24.000
X61.100Y-33.701
X62.200Y-23.000
X62.400Y-42.400
X62.499Y-30.899
X62.601Y-29.299
X64.249Y-37.249
X65.900Y-31.900
X66.601Y-42.400
X66.700Y-50.899
X67.501Y-28.999
X68.001Y-39.748
X70.201Y-22.598
X72.001Y-24.498
X72.499Y-28.750
X73.751Y-23.749
X74.800Y-32.400
X76.251Y-18.999
X76.500Y-36.299
X77.401Y-50.899
X77.600Y-23.698
X78.501Y-42.598
X78.900Y-38.900
X79.700Y-32.499
X79.799Y-30.399
X79.901Y-26.099
X83.500Y-31.199
X83.602Y-25.999
X87.500Y-50.899
X88.202Y-42.400
X88.301Y-19.200
X88.301Y-23.200
X88.301Y-28.600
X88.301Y-36.398
T2
X58.900Y-27.010
X61.999Y-18.999
X61.999Y-21.001
X64.000Y-18.999
X64.000Y-21.001
X65.999Y-18.999
X65.999Y-21.001
X68.001Y-18.999
X68.001Y-21.001
X70.000Y-18.999
X70.000Y-21.001
X72.001Y-18.999
X72.001Y-21.001
T3
X58.900Y-29.550
X58.900Y-32.090
X58.900Y-34.630
X58.900Y-37.170
X58.900Y-39.710
X58.900Y-42.250
X85.900Y-27.450
X85.900Y-29.990
X85.900Y-32.530
X85.900Y-35.070
X85.900Y-37.610
X85.900Y-40.150
T4
X62.499Y-50.201
X81.250Y-50.201
X81.399Y-19.500
T0
M30
