G04 (created by PCBNEW-RS274X (2011-11-27 BZR 3249)-stable) date 10/09/2012 4:21:53 p.m.*
G01*
G70*
G90*
%MOIN*%
G04 Gerber Fmt 3.4, Leading zero omitted, Abs format*
%FSLAX34Y34*%
G04 APERTURE LIST*
%ADD10C,0.006000*%
%ADD11R,0.067200X0.047600*%
%ADD12R,0.098700X0.047600*%
%ADD13R,0.130300X0.106600*%
%ADD14R,0.056000X0.056000*%
%ADD15R,0.080000X0.100000*%
%ADD16R,0.100000X0.080000*%
%ADD17R,0.045000X0.051500*%
%ADD18R,0.051500X0.045000*%
%ADD19R,0.080000X0.080000*%
%ADD20C,0.080000*%
%ADD21R,0.071200X0.071200*%
%ADD22C,0.071200*%
G04 APERTURE END LIST*
G54D10*
G54D11*
X29233Y-10216D03*
G54D12*
X29390Y-10807D03*
G54D11*
X29233Y-11398D03*
G54D13*
X30335Y-10807D03*
G54D11*
X27618Y-10807D03*
G54D12*
X27461Y-10216D03*
G54D11*
X27618Y-09625D03*
G54D13*
X26516Y-10216D03*
G54D14*
X28085Y-12535D03*
X28085Y-11835D03*
X28885Y-12185D03*
X29770Y-15241D03*
X29770Y-15941D03*
X28970Y-15591D03*
X27474Y-16610D03*
X27474Y-15910D03*
X28274Y-16260D03*
G54D15*
X30119Y-13484D03*
X28819Y-13484D03*
G54D16*
X25217Y-10905D03*
X25217Y-09605D03*
G54D17*
X29591Y-14409D03*
X28991Y-14409D03*
G54D18*
X26614Y-12505D03*
X26614Y-11905D03*
X27264Y-11885D03*
X27264Y-12485D03*
G54D17*
X29188Y-16574D03*
X29788Y-16574D03*
G54D18*
X30433Y-15930D03*
X30433Y-15330D03*
G54D17*
X26580Y-14567D03*
X25980Y-14567D03*
G54D18*
X24646Y-12850D03*
X24646Y-13450D03*
G54D17*
X30281Y-12185D03*
X29681Y-12185D03*
G54D18*
X28445Y-10792D03*
X28445Y-10192D03*
X24272Y-10555D03*
X24272Y-09955D03*
X26614Y-13243D03*
X26614Y-13843D03*
G54D17*
X25812Y-11772D03*
X25212Y-11772D03*
X25212Y-13465D03*
X25812Y-13465D03*
G54D19*
X31989Y-14814D03*
G54D20*
X31989Y-13814D03*
X31989Y-12814D03*
X31989Y-11814D03*
X31989Y-10814D03*
G54D19*
X23228Y-15650D03*
G54D20*
X23228Y-14650D03*
X23228Y-13650D03*
X23228Y-12650D03*
X23228Y-11650D03*
X23228Y-10650D03*
G54D21*
X24390Y-08287D03*
G54D22*
X24390Y-07499D03*
X25178Y-08287D03*
X25178Y-07499D03*
X25965Y-08287D03*
X25965Y-07499D03*
X26753Y-08287D03*
X26753Y-07499D03*
X27540Y-08287D03*
X27540Y-07499D03*
X28328Y-08287D03*
X28328Y-07499D03*
G54D16*
X27697Y-15157D03*
X27697Y-13857D03*
M02*
