G04 (created by PCBNEW-RS274X (2012-01-19 BZR 3256)-stable) date Wed 26 Sep 2012 04:40:45 PM NZST*
G01*
G70*
G90*
%MOIN*%
G04 Gerber Fmt 3.4, Leading zero omitted, Abs format*
%FSLAX34Y34*%
G04 APERTURE LIST*
%ADD10C,0.006000*%
%ADD11C,0.118100*%
%ADD12R,0.051200X0.051200*%
%ADD13C,0.051200*%
%ADD14R,0.060000X0.060000*%
%ADD15C,0.060000*%
%ADD16C,0.035000*%
%ADD17C,0.019700*%
%ADD18C,0.008000*%
%ADD19C,0.010000*%
G04 APERTURE END LIST*
G54D10*
G54D11*
X32047Y-07677D03*
X31988Y-19764D03*
X24606Y-19764D03*
G54D12*
X28347Y-07480D03*
G54D13*
X28347Y-08268D03*
X27559Y-07480D03*
X27559Y-08268D03*
X26772Y-07480D03*
X26772Y-08268D03*
X25984Y-07480D03*
X25984Y-08268D03*
X25197Y-07480D03*
X25197Y-08268D03*
X24409Y-07480D03*
X24409Y-08268D03*
G54D14*
X33819Y-15807D03*
G54D15*
X33819Y-14807D03*
X33819Y-13807D03*
X33819Y-12807D03*
X33819Y-11807D03*
X33819Y-10807D03*
G54D14*
X23189Y-16634D03*
G54D15*
X23189Y-15634D03*
X23189Y-14634D03*
X23189Y-13634D03*
X23189Y-12634D03*
X23189Y-11634D03*
X23189Y-10634D03*
G54D16*
X32914Y-10236D03*
X30551Y-09330D03*
X31457Y-10275D03*
X25945Y-12559D03*
X23858Y-09449D03*
X24606Y-12165D03*
X30118Y-14291D03*
X24646Y-11535D03*
X28347Y-09645D03*
X27638Y-08897D03*
X34764Y-09134D03*
X34764Y-07559D03*
X34764Y-14330D03*
X34764Y-11260D03*
X26575Y-11417D03*
X29036Y-09350D03*
X22441Y-09842D03*
X22441Y-07559D03*
X30020Y-07480D03*
X23347Y-08976D03*
X30906Y-16771D03*
X34725Y-16693D03*
X22441Y-17401D03*
X22441Y-20039D03*
X24055Y-13268D03*
X24567Y-16693D03*
X34449Y-20039D03*
X30473Y-20039D03*
X26260Y-20039D03*
X31378Y-12795D03*
X22441Y-12126D03*
X22441Y-14173D03*
X23465Y-07480D03*
X32874Y-12283D03*
X28543Y-11319D03*
X24488Y-09055D03*
X26221Y-16693D03*
X31417Y-11968D03*
X26772Y-15649D03*
X25295Y-14665D03*
X31063Y-15315D03*
X29449Y-12756D03*
G54D17*
X30551Y-09369D02*
X30551Y-09330D01*
X31457Y-10275D02*
X30551Y-09369D01*
G54D18*
X25945Y-12559D02*
X25945Y-12558D01*
X33812Y-12814D02*
X33819Y-12807D01*
X26772Y-12401D02*
X32008Y-12401D01*
X26614Y-12559D02*
X26772Y-12401D01*
X32008Y-12401D02*
X32421Y-12814D01*
X25945Y-12559D02*
X26614Y-12559D01*
X32421Y-12814D02*
X33812Y-12814D01*
X30477Y-10634D02*
X30650Y-10807D01*
X30650Y-10807D02*
X33819Y-10807D01*
X23189Y-10634D02*
X30477Y-10634D01*
X23445Y-11634D02*
X23898Y-12087D01*
X23898Y-12087D02*
X23898Y-12244D01*
X23898Y-12244D02*
X24370Y-12716D01*
X24370Y-12716D02*
X25116Y-12716D01*
X25116Y-12716D02*
X25942Y-11890D01*
X25942Y-11890D02*
X30747Y-11890D01*
X30747Y-11890D02*
X31181Y-11456D01*
X31181Y-11456D02*
X32874Y-11456D01*
X32874Y-11456D02*
X33225Y-11807D01*
X33225Y-11807D02*
X33819Y-11807D01*
X23189Y-11634D02*
X23445Y-11634D01*
X23858Y-09449D02*
X23858Y-08031D01*
X23858Y-08031D02*
X23858Y-08071D01*
X23858Y-08031D02*
X24409Y-07480D01*
G54D17*
X30906Y-14291D02*
X31378Y-13819D01*
X22441Y-12126D02*
X22441Y-09842D01*
G54D18*
X28445Y-11417D02*
X26575Y-11417D01*
X29036Y-08464D02*
X29036Y-09350D01*
G54D17*
X24646Y-08897D02*
X27638Y-08897D01*
G54D18*
X28543Y-11319D02*
X28445Y-11417D01*
G54D17*
X34764Y-09134D02*
X34764Y-07559D01*
X34764Y-14330D02*
X34764Y-11260D01*
X30020Y-07480D02*
X28347Y-07480D01*
X30984Y-16693D02*
X33898Y-16693D01*
G54D18*
X30020Y-07480D02*
X29036Y-08464D01*
G54D17*
X30906Y-16771D02*
X30984Y-16693D01*
X33898Y-16693D02*
X34725Y-16693D01*
X24055Y-14684D02*
X24055Y-13268D01*
X24567Y-16693D02*
X24567Y-15196D01*
G54D18*
X30118Y-14291D02*
X30630Y-14803D01*
X30630Y-14803D02*
X30641Y-14814D01*
G54D17*
X32973Y-15807D02*
X33819Y-15807D01*
X31980Y-14814D02*
X32973Y-15807D01*
X30641Y-14814D02*
X31980Y-14814D01*
X33898Y-15886D02*
X33819Y-15807D01*
X33898Y-16693D02*
X33898Y-15886D01*
X34410Y-17008D02*
X34725Y-16693D01*
X34410Y-20000D02*
X34410Y-17008D01*
X34449Y-20039D02*
X34410Y-20000D01*
X26260Y-20039D02*
X30473Y-20039D01*
X31378Y-13819D02*
X31378Y-12795D01*
X22441Y-17401D02*
X22441Y-14173D01*
X22441Y-07559D02*
X22520Y-07480D01*
X22520Y-07480D02*
X23465Y-07480D01*
X32795Y-12283D02*
X32874Y-12283D01*
X30118Y-14291D02*
X30906Y-14291D01*
X24567Y-15196D02*
X24055Y-14684D01*
X24488Y-09055D02*
X24646Y-08897D01*
X24508Y-16634D02*
X24567Y-16693D01*
X24567Y-16693D02*
X26221Y-16693D01*
X24508Y-16634D02*
X23189Y-16634D01*
X23189Y-16634D02*
X22500Y-16634D01*
X22500Y-16634D02*
X22441Y-17401D01*
X32480Y-11968D02*
X32795Y-12283D01*
X31417Y-11968D02*
X32480Y-11968D01*
G54D18*
X26279Y-15649D02*
X26772Y-15649D01*
X25295Y-14665D02*
X26279Y-15649D01*
X30000Y-15315D02*
X31063Y-15315D01*
X29449Y-14764D02*
X30000Y-15315D01*
X29449Y-12756D02*
X29449Y-14764D01*
G54D10*
G36*
X33592Y-11307D02*
X33508Y-11342D01*
X33354Y-11496D01*
X33345Y-11517D01*
X33079Y-11251D01*
X32985Y-11188D01*
X32874Y-11166D01*
X31181Y-11166D01*
X31070Y-11188D01*
X31038Y-11209D01*
X30975Y-11251D01*
X30626Y-11600D01*
X25942Y-11600D01*
X25831Y-11622D01*
X25737Y-11685D01*
X24996Y-12426D01*
X24946Y-12426D01*
X24966Y-12406D01*
X25031Y-12250D01*
X25031Y-12081D01*
X24967Y-11925D01*
X24847Y-11805D01*
X24691Y-11740D01*
X24522Y-11740D01*
X24366Y-11804D01*
X24246Y-11924D01*
X24184Y-12070D01*
X24166Y-11976D01*
X24103Y-11882D01*
X24103Y-11881D01*
X23732Y-11510D01*
X23654Y-11323D01*
X23500Y-11169D01*
X23415Y-11134D01*
X23500Y-11099D01*
X23654Y-10945D01*
X23662Y-10924D01*
X30356Y-10924D01*
X30444Y-11012D01*
X30445Y-11012D01*
X30539Y-11075D01*
X30650Y-11097D01*
X33345Y-11097D01*
X33354Y-11118D01*
X33508Y-11272D01*
X33592Y-11307D01*
X33592Y-11307D01*
G37*
G54D19*
X33592Y-11307D02*
X33508Y-11342D01*
X33354Y-11496D01*
X33345Y-11517D01*
X33079Y-11251D01*
X32985Y-11188D01*
X32874Y-11166D01*
X31181Y-11166D01*
X31070Y-11188D01*
X31038Y-11209D01*
X30975Y-11251D01*
X30626Y-11600D01*
X25942Y-11600D01*
X25831Y-11622D01*
X25737Y-11685D01*
X24996Y-12426D01*
X24946Y-12426D01*
X24966Y-12406D01*
X25031Y-12250D01*
X25031Y-12081D01*
X24967Y-11925D01*
X24847Y-11805D01*
X24691Y-11740D01*
X24522Y-11740D01*
X24366Y-11804D01*
X24246Y-11924D01*
X24184Y-12070D01*
X24166Y-11976D01*
X24103Y-11882D01*
X24103Y-11881D01*
X23732Y-11510D01*
X23654Y-11323D01*
X23500Y-11169D01*
X23415Y-11134D01*
X23500Y-11099D01*
X23654Y-10945D01*
X23662Y-10924D01*
X30356Y-10924D01*
X30444Y-11012D01*
X30445Y-11012D01*
X30539Y-11075D01*
X30650Y-11097D01*
X33345Y-11097D01*
X33354Y-11118D01*
X33508Y-11272D01*
X33592Y-11307D01*
G54D10*
G36*
X33592Y-12307D02*
X33508Y-12342D01*
X33354Y-12496D01*
X33342Y-12524D01*
X32541Y-12524D01*
X32213Y-12196D01*
X32119Y-12133D01*
X32008Y-12111D01*
X30928Y-12111D01*
X30952Y-12095D01*
X31301Y-11746D01*
X32754Y-11746D01*
X33020Y-12012D01*
X33114Y-12075D01*
X33225Y-12097D01*
X33345Y-12097D01*
X33354Y-12118D01*
X33508Y-12272D01*
X33592Y-12307D01*
X33592Y-12307D01*
G37*
G54D19*
X33592Y-12307D02*
X33508Y-12342D01*
X33354Y-12496D01*
X33342Y-12524D01*
X32541Y-12524D01*
X32213Y-12196D01*
X32119Y-12133D01*
X32008Y-12111D01*
X30928Y-12111D01*
X30952Y-12095D01*
X31301Y-11746D01*
X32754Y-11746D01*
X33020Y-12012D01*
X33114Y-12075D01*
X33225Y-12097D01*
X33345Y-12097D01*
X33354Y-12118D01*
X33508Y-12272D01*
X33592Y-12307D01*
G54D10*
G36*
X34911Y-20521D02*
X34369Y-20521D01*
X34369Y-15919D01*
X34369Y-15695D01*
X34368Y-15458D01*
X34330Y-15366D01*
X34260Y-15296D01*
X34169Y-15258D01*
X34144Y-15258D01*
X34284Y-15118D01*
X34368Y-14916D01*
X34368Y-14698D01*
X34284Y-14496D01*
X34130Y-14342D01*
X34045Y-14307D01*
X34130Y-14272D01*
X34284Y-14118D01*
X34368Y-13916D01*
X34368Y-13698D01*
X34284Y-13496D01*
X34130Y-13342D01*
X34045Y-13307D01*
X34130Y-13272D01*
X34284Y-13118D01*
X34368Y-12916D01*
X34368Y-12698D01*
X34284Y-12496D01*
X34130Y-12342D01*
X34045Y-12307D01*
X34130Y-12272D01*
X34284Y-12118D01*
X34368Y-11916D01*
X34368Y-11698D01*
X34284Y-11496D01*
X34130Y-11342D01*
X34045Y-11307D01*
X34130Y-11272D01*
X34284Y-11118D01*
X34368Y-10916D01*
X34368Y-10698D01*
X34284Y-10496D01*
X34130Y-10342D01*
X33928Y-10258D01*
X33710Y-10258D01*
X33508Y-10342D01*
X33354Y-10496D01*
X33345Y-10517D01*
X33234Y-10517D01*
X33274Y-10477D01*
X33339Y-10321D01*
X33339Y-10152D01*
X33275Y-09996D01*
X33155Y-09876D01*
X32999Y-09811D01*
X32830Y-09811D01*
X32674Y-09875D01*
X32554Y-09995D01*
X32489Y-10151D01*
X32489Y-10320D01*
X32553Y-10476D01*
X32594Y-10517D01*
X31816Y-10517D01*
X31817Y-10516D01*
X31882Y-10360D01*
X31882Y-10191D01*
X31818Y-10035D01*
X31698Y-09915D01*
X31542Y-09850D01*
X31524Y-09850D01*
X30976Y-09302D01*
X30976Y-09246D01*
X30912Y-09090D01*
X30792Y-08970D01*
X30636Y-08905D01*
X30467Y-08905D01*
X30311Y-08969D01*
X30191Y-09089D01*
X30126Y-09245D01*
X30126Y-09414D01*
X30190Y-09570D01*
X30310Y-09690D01*
X30430Y-09740D01*
X31032Y-10342D01*
X31032Y-10359D01*
X31096Y-10515D01*
X31098Y-10517D01*
X30770Y-10517D01*
X30682Y-10429D01*
X30588Y-10366D01*
X30477Y-10344D01*
X23662Y-10344D01*
X23654Y-10323D01*
X23500Y-10169D01*
X23298Y-10085D01*
X23080Y-10085D01*
X22878Y-10169D01*
X22724Y-10323D01*
X22640Y-10525D01*
X22640Y-10743D01*
X22724Y-10945D01*
X22878Y-11099D01*
X22962Y-11134D01*
X22878Y-11169D01*
X22724Y-11323D01*
X22640Y-11525D01*
X22640Y-11743D01*
X22724Y-11945D01*
X22878Y-12099D01*
X22962Y-12134D01*
X22878Y-12169D01*
X22724Y-12323D01*
X22640Y-12525D01*
X22640Y-12743D01*
X22724Y-12945D01*
X22878Y-13099D01*
X22962Y-13134D01*
X22878Y-13169D01*
X22724Y-13323D01*
X22640Y-13525D01*
X22640Y-13743D01*
X22724Y-13945D01*
X22878Y-14099D01*
X22962Y-14134D01*
X22878Y-14169D01*
X22724Y-14323D01*
X22640Y-14525D01*
X22640Y-14743D01*
X22724Y-14945D01*
X22878Y-15099D01*
X22962Y-15134D01*
X22878Y-15169D01*
X22724Y-15323D01*
X22640Y-15525D01*
X22640Y-15743D01*
X22724Y-15945D01*
X22864Y-16085D01*
X22839Y-16085D01*
X22748Y-16123D01*
X22678Y-16193D01*
X22640Y-16285D01*
X22639Y-16522D01*
X22701Y-16584D01*
X23089Y-16584D01*
X23139Y-16584D01*
X23239Y-16584D01*
X23289Y-16584D01*
X23677Y-16584D01*
X23739Y-16522D01*
X23738Y-16285D01*
X23700Y-16193D01*
X23630Y-16123D01*
X23539Y-16085D01*
X23514Y-16085D01*
X23654Y-15945D01*
X23738Y-15743D01*
X23738Y-15525D01*
X23654Y-15323D01*
X23500Y-15169D01*
X23415Y-15134D01*
X23500Y-15099D01*
X23654Y-14945D01*
X23738Y-14743D01*
X23738Y-14525D01*
X23654Y-14323D01*
X23500Y-14169D01*
X23415Y-14134D01*
X23500Y-14099D01*
X23654Y-13945D01*
X23738Y-13743D01*
X23738Y-13525D01*
X23654Y-13323D01*
X23500Y-13169D01*
X23415Y-13134D01*
X23500Y-13099D01*
X23654Y-12945D01*
X23738Y-12743D01*
X23738Y-12525D01*
X23715Y-12471D01*
X24165Y-12921D01*
X24259Y-12984D01*
X24370Y-13006D01*
X25116Y-13006D01*
X25227Y-12984D01*
X25321Y-12921D01*
X25542Y-12699D01*
X25584Y-12799D01*
X25704Y-12919D01*
X25860Y-12984D01*
X26029Y-12984D01*
X26185Y-12920D01*
X26256Y-12849D01*
X26614Y-12849D01*
X26725Y-12827D01*
X26819Y-12764D01*
X26892Y-12691D01*
X29024Y-12691D01*
X29024Y-12840D01*
X29088Y-12996D01*
X29159Y-13067D01*
X29159Y-14764D01*
X29181Y-14875D01*
X29244Y-14969D01*
X29795Y-15520D01*
X29889Y-15583D01*
X30000Y-15605D01*
X30752Y-15605D01*
X30822Y-15675D01*
X30978Y-15740D01*
X31147Y-15740D01*
X31303Y-15676D01*
X31423Y-15556D01*
X31488Y-15400D01*
X31488Y-15231D01*
X31424Y-15075D01*
X31304Y-14955D01*
X31148Y-14890D01*
X30979Y-14890D01*
X30823Y-14954D01*
X30752Y-15025D01*
X30120Y-15025D01*
X29739Y-14644D01*
X29739Y-13067D01*
X29809Y-12997D01*
X29874Y-12841D01*
X29874Y-12691D01*
X31888Y-12691D01*
X32216Y-13019D01*
X32310Y-13082D01*
X32421Y-13104D01*
X33348Y-13104D01*
X33354Y-13118D01*
X33508Y-13272D01*
X33592Y-13307D01*
X33508Y-13342D01*
X33354Y-13496D01*
X33270Y-13698D01*
X33270Y-13916D01*
X33354Y-14118D01*
X33508Y-14272D01*
X33592Y-14307D01*
X33508Y-14342D01*
X33354Y-14496D01*
X33270Y-14698D01*
X33270Y-14916D01*
X33354Y-15118D01*
X33494Y-15258D01*
X33469Y-15258D01*
X33378Y-15296D01*
X33308Y-15366D01*
X33270Y-15458D01*
X33269Y-15695D01*
X33331Y-15757D01*
X33719Y-15757D01*
X33769Y-15757D01*
X33869Y-15757D01*
X33919Y-15757D01*
X34307Y-15757D01*
X34369Y-15695D01*
X34369Y-15919D01*
X34307Y-15857D01*
X33869Y-15857D01*
X33869Y-16295D01*
X33931Y-16357D01*
X34070Y-16356D01*
X34169Y-16356D01*
X34260Y-16318D01*
X34330Y-16248D01*
X34368Y-16156D01*
X34369Y-15919D01*
X34369Y-20521D01*
X33769Y-20521D01*
X33769Y-16295D01*
X33769Y-15857D01*
X33331Y-15857D01*
X33269Y-15919D01*
X33270Y-16156D01*
X33308Y-16248D01*
X33378Y-16318D01*
X33469Y-16356D01*
X33568Y-16356D01*
X33707Y-16357D01*
X33769Y-16295D01*
X33769Y-20521D01*
X32355Y-20521D01*
X32463Y-20477D01*
X32699Y-20241D01*
X32828Y-19932D01*
X32828Y-19598D01*
X32701Y-19289D01*
X32465Y-19053D01*
X32156Y-18924D01*
X31822Y-18924D01*
X31513Y-19051D01*
X31277Y-19287D01*
X31148Y-19596D01*
X31148Y-19930D01*
X31275Y-20239D01*
X31511Y-20475D01*
X31621Y-20521D01*
X27197Y-20521D01*
X27197Y-15734D01*
X27197Y-15565D01*
X27133Y-15409D01*
X27013Y-15289D01*
X26857Y-15224D01*
X26688Y-15224D01*
X26532Y-15288D01*
X26461Y-15359D01*
X26399Y-15359D01*
X25720Y-14680D01*
X25720Y-14581D01*
X25656Y-14425D01*
X25536Y-14305D01*
X25380Y-14240D01*
X25211Y-14240D01*
X25055Y-14304D01*
X24935Y-14424D01*
X24870Y-14580D01*
X24870Y-14749D01*
X24934Y-14905D01*
X25054Y-15025D01*
X25210Y-15090D01*
X25310Y-15090D01*
X26074Y-15854D01*
X26168Y-15917D01*
X26279Y-15939D01*
X26461Y-15939D01*
X26531Y-16009D01*
X26687Y-16074D01*
X26856Y-16074D01*
X27012Y-16010D01*
X27132Y-15890D01*
X27197Y-15734D01*
X27197Y-20521D01*
X24973Y-20521D01*
X25081Y-20477D01*
X25317Y-20241D01*
X25446Y-19932D01*
X25446Y-19598D01*
X25319Y-19289D01*
X25083Y-19053D01*
X24774Y-18924D01*
X24440Y-18924D01*
X24131Y-19051D01*
X23895Y-19287D01*
X23766Y-19596D01*
X23766Y-19930D01*
X23893Y-20239D01*
X24129Y-20475D01*
X24239Y-20521D01*
X23739Y-20521D01*
X23739Y-16746D01*
X23677Y-16684D01*
X23239Y-16684D01*
X23239Y-17122D01*
X23301Y-17184D01*
X23440Y-17183D01*
X23539Y-17183D01*
X23630Y-17145D01*
X23700Y-17075D01*
X23738Y-16983D01*
X23739Y-16746D01*
X23739Y-20521D01*
X23139Y-20521D01*
X23139Y-17122D01*
X23139Y-16684D01*
X22701Y-16684D01*
X22639Y-16746D01*
X22640Y-16983D01*
X22678Y-17075D01*
X22748Y-17145D01*
X22839Y-17183D01*
X22938Y-17183D01*
X23077Y-17184D01*
X23139Y-17122D01*
X23139Y-20521D01*
X22175Y-20521D01*
X22175Y-07057D01*
X24118Y-07057D01*
X23981Y-07194D01*
X23904Y-07379D01*
X23904Y-07575D01*
X23653Y-07826D01*
X23590Y-07920D01*
X23568Y-08031D01*
X23568Y-08071D01*
X23568Y-09138D01*
X23498Y-09208D01*
X23433Y-09364D01*
X23433Y-09533D01*
X23497Y-09689D01*
X23617Y-09809D01*
X23773Y-09874D01*
X23942Y-09874D01*
X24098Y-09810D01*
X24218Y-09690D01*
X24283Y-09534D01*
X24283Y-09365D01*
X24219Y-09209D01*
X24148Y-09138D01*
X24148Y-08706D01*
X24308Y-08773D01*
X24509Y-08773D01*
X24695Y-08696D01*
X24803Y-08588D01*
X24911Y-08696D01*
X25096Y-08773D01*
X25297Y-08773D01*
X25483Y-08696D01*
X25590Y-08588D01*
X25698Y-08696D01*
X25883Y-08773D01*
X26084Y-08773D01*
X26270Y-08696D01*
X26378Y-08588D01*
X26486Y-08696D01*
X26671Y-08773D01*
X26872Y-08773D01*
X27058Y-08696D01*
X27165Y-08588D01*
X27273Y-08696D01*
X27458Y-08773D01*
X27659Y-08773D01*
X27845Y-08696D01*
X27953Y-08588D01*
X28061Y-08696D01*
X28246Y-08773D01*
X28447Y-08773D01*
X28633Y-08696D01*
X28775Y-08554D01*
X28852Y-08369D01*
X28852Y-08168D01*
X28775Y-07982D01*
X28741Y-07948D01*
X28744Y-07947D01*
X28814Y-07877D01*
X28852Y-07786D01*
X28852Y-07687D01*
X28853Y-07592D01*
X28791Y-07530D01*
X28447Y-07530D01*
X28397Y-07530D01*
X28297Y-07530D01*
X28297Y-07430D01*
X28397Y-07430D01*
X28447Y-07430D01*
X28791Y-07430D01*
X28853Y-07368D01*
X28852Y-07273D01*
X28852Y-07174D01*
X28814Y-07083D01*
X28788Y-07057D01*
X31479Y-07057D01*
X31336Y-07200D01*
X31207Y-07509D01*
X31207Y-07843D01*
X31334Y-08152D01*
X31570Y-08388D01*
X31879Y-08517D01*
X32213Y-08517D01*
X32522Y-08390D01*
X32758Y-08154D01*
X32887Y-07845D01*
X32887Y-07511D01*
X32760Y-07202D01*
X32615Y-07057D01*
X34911Y-07057D01*
X34911Y-20521D01*
X34911Y-20521D01*
G37*
G54D19*
X34911Y-20521D02*
X34369Y-20521D01*
X34369Y-15919D01*
X34369Y-15695D01*
X34368Y-15458D01*
X34330Y-15366D01*
X34260Y-15296D01*
X34169Y-15258D01*
X34144Y-15258D01*
X34284Y-15118D01*
X34368Y-14916D01*
X34368Y-14698D01*
X34284Y-14496D01*
X34130Y-14342D01*
X34045Y-14307D01*
X34130Y-14272D01*
X34284Y-14118D01*
X34368Y-13916D01*
X34368Y-13698D01*
X34284Y-13496D01*
X34130Y-13342D01*
X34045Y-13307D01*
X34130Y-13272D01*
X34284Y-13118D01*
X34368Y-12916D01*
X34368Y-12698D01*
X34284Y-12496D01*
X34130Y-12342D01*
X34045Y-12307D01*
X34130Y-12272D01*
X34284Y-12118D01*
X34368Y-11916D01*
X34368Y-11698D01*
X34284Y-11496D01*
X34130Y-11342D01*
X34045Y-11307D01*
X34130Y-11272D01*
X34284Y-11118D01*
X34368Y-10916D01*
X34368Y-10698D01*
X34284Y-10496D01*
X34130Y-10342D01*
X33928Y-10258D01*
X33710Y-10258D01*
X33508Y-10342D01*
X33354Y-10496D01*
X33345Y-10517D01*
X33234Y-10517D01*
X33274Y-10477D01*
X33339Y-10321D01*
X33339Y-10152D01*
X33275Y-09996D01*
X33155Y-09876D01*
X32999Y-09811D01*
X32830Y-09811D01*
X32674Y-09875D01*
X32554Y-09995D01*
X32489Y-10151D01*
X32489Y-10320D01*
X32553Y-10476D01*
X32594Y-10517D01*
X31816Y-10517D01*
X31817Y-10516D01*
X31882Y-10360D01*
X31882Y-10191D01*
X31818Y-10035D01*
X31698Y-09915D01*
X31542Y-09850D01*
X31524Y-09850D01*
X30976Y-09302D01*
X30976Y-09246D01*
X30912Y-09090D01*
X30792Y-08970D01*
X30636Y-08905D01*
X30467Y-08905D01*
X30311Y-08969D01*
X30191Y-09089D01*
X30126Y-09245D01*
X30126Y-09414D01*
X30190Y-09570D01*
X30310Y-09690D01*
X30430Y-09740D01*
X31032Y-10342D01*
X31032Y-10359D01*
X31096Y-10515D01*
X31098Y-10517D01*
X30770Y-10517D01*
X30682Y-10429D01*
X30588Y-10366D01*
X30477Y-10344D01*
X23662Y-10344D01*
X23654Y-10323D01*
X23500Y-10169D01*
X23298Y-10085D01*
X23080Y-10085D01*
X22878Y-10169D01*
X22724Y-10323D01*
X22640Y-10525D01*
X22640Y-10743D01*
X22724Y-10945D01*
X22878Y-11099D01*
X22962Y-11134D01*
X22878Y-11169D01*
X22724Y-11323D01*
X22640Y-11525D01*
X22640Y-11743D01*
X22724Y-11945D01*
X22878Y-12099D01*
X22962Y-12134D01*
X22878Y-12169D01*
X22724Y-12323D01*
X22640Y-12525D01*
X22640Y-12743D01*
X22724Y-12945D01*
X22878Y-13099D01*
X22962Y-13134D01*
X22878Y-13169D01*
X22724Y-13323D01*
X22640Y-13525D01*
X22640Y-13743D01*
X22724Y-13945D01*
X22878Y-14099D01*
X22962Y-14134D01*
X22878Y-14169D01*
X22724Y-14323D01*
X22640Y-14525D01*
X22640Y-14743D01*
X22724Y-14945D01*
X22878Y-15099D01*
X22962Y-15134D01*
X22878Y-15169D01*
X22724Y-15323D01*
X22640Y-15525D01*
X22640Y-15743D01*
X22724Y-15945D01*
X22864Y-16085D01*
X22839Y-16085D01*
X22748Y-16123D01*
X22678Y-16193D01*
X22640Y-16285D01*
X22639Y-16522D01*
X22701Y-16584D01*
X23089Y-16584D01*
X23139Y-16584D01*
X23239Y-16584D01*
X23289Y-16584D01*
X23677Y-16584D01*
X23739Y-16522D01*
X23738Y-16285D01*
X23700Y-16193D01*
X23630Y-16123D01*
X23539Y-16085D01*
X23514Y-16085D01*
X23654Y-15945D01*
X23738Y-15743D01*
X23738Y-15525D01*
X23654Y-15323D01*
X23500Y-15169D01*
X23415Y-15134D01*
X23500Y-15099D01*
X23654Y-14945D01*
X23738Y-14743D01*
X23738Y-14525D01*
X23654Y-14323D01*
X23500Y-14169D01*
X23415Y-14134D01*
X23500Y-14099D01*
X23654Y-13945D01*
X23738Y-13743D01*
X23738Y-13525D01*
X23654Y-13323D01*
X23500Y-13169D01*
X23415Y-13134D01*
X23500Y-13099D01*
X23654Y-12945D01*
X23738Y-12743D01*
X23738Y-12525D01*
X23715Y-12471D01*
X24165Y-12921D01*
X24259Y-12984D01*
X24370Y-13006D01*
X25116Y-13006D01*
X25227Y-12984D01*
X25321Y-12921D01*
X25542Y-12699D01*
X25584Y-12799D01*
X25704Y-12919D01*
X25860Y-12984D01*
X26029Y-12984D01*
X26185Y-12920D01*
X26256Y-12849D01*
X26614Y-12849D01*
X26725Y-12827D01*
X26819Y-12764D01*
X26892Y-12691D01*
X29024Y-12691D01*
X29024Y-12840D01*
X29088Y-12996D01*
X29159Y-13067D01*
X29159Y-14764D01*
X29181Y-14875D01*
X29244Y-14969D01*
X29795Y-15520D01*
X29889Y-15583D01*
X30000Y-15605D01*
X30752Y-15605D01*
X30822Y-15675D01*
X30978Y-15740D01*
X31147Y-15740D01*
X31303Y-15676D01*
X31423Y-15556D01*
X31488Y-15400D01*
X31488Y-15231D01*
X31424Y-15075D01*
X31304Y-14955D01*
X31148Y-14890D01*
X30979Y-14890D01*
X30823Y-14954D01*
X30752Y-15025D01*
X30120Y-15025D01*
X29739Y-14644D01*
X29739Y-13067D01*
X29809Y-12997D01*
X29874Y-12841D01*
X29874Y-12691D01*
X31888Y-12691D01*
X32216Y-13019D01*
X32310Y-13082D01*
X32421Y-13104D01*
X33348Y-13104D01*
X33354Y-13118D01*
X33508Y-13272D01*
X33592Y-13307D01*
X33508Y-13342D01*
X33354Y-13496D01*
X33270Y-13698D01*
X33270Y-13916D01*
X33354Y-14118D01*
X33508Y-14272D01*
X33592Y-14307D01*
X33508Y-14342D01*
X33354Y-14496D01*
X33270Y-14698D01*
X33270Y-14916D01*
X33354Y-15118D01*
X33494Y-15258D01*
X33469Y-15258D01*
X33378Y-15296D01*
X33308Y-15366D01*
X33270Y-15458D01*
X33269Y-15695D01*
X33331Y-15757D01*
X33719Y-15757D01*
X33769Y-15757D01*
X33869Y-15757D01*
X33919Y-15757D01*
X34307Y-15757D01*
X34369Y-15695D01*
X34369Y-15919D01*
X34307Y-15857D01*
X33869Y-15857D01*
X33869Y-16295D01*
X33931Y-16357D01*
X34070Y-16356D01*
X34169Y-16356D01*
X34260Y-16318D01*
X34330Y-16248D01*
X34368Y-16156D01*
X34369Y-15919D01*
X34369Y-20521D01*
X33769Y-20521D01*
X33769Y-16295D01*
X33769Y-15857D01*
X33331Y-15857D01*
X33269Y-15919D01*
X33270Y-16156D01*
X33308Y-16248D01*
X33378Y-16318D01*
X33469Y-16356D01*
X33568Y-16356D01*
X33707Y-16357D01*
X33769Y-16295D01*
X33769Y-20521D01*
X32355Y-20521D01*
X32463Y-20477D01*
X32699Y-20241D01*
X32828Y-19932D01*
X32828Y-19598D01*
X32701Y-19289D01*
X32465Y-19053D01*
X32156Y-18924D01*
X31822Y-18924D01*
X31513Y-19051D01*
X31277Y-19287D01*
X31148Y-19596D01*
X31148Y-19930D01*
X31275Y-20239D01*
X31511Y-20475D01*
X31621Y-20521D01*
X27197Y-20521D01*
X27197Y-15734D01*
X27197Y-15565D01*
X27133Y-15409D01*
X27013Y-15289D01*
X26857Y-15224D01*
X26688Y-15224D01*
X26532Y-15288D01*
X26461Y-15359D01*
X26399Y-15359D01*
X25720Y-14680D01*
X25720Y-14581D01*
X25656Y-14425D01*
X25536Y-14305D01*
X25380Y-14240D01*
X25211Y-14240D01*
X25055Y-14304D01*
X24935Y-14424D01*
X24870Y-14580D01*
X24870Y-14749D01*
X24934Y-14905D01*
X25054Y-15025D01*
X25210Y-15090D01*
X25310Y-15090D01*
X26074Y-15854D01*
X26168Y-15917D01*
X26279Y-15939D01*
X26461Y-15939D01*
X26531Y-16009D01*
X26687Y-16074D01*
X26856Y-16074D01*
X27012Y-16010D01*
X27132Y-15890D01*
X27197Y-15734D01*
X27197Y-20521D01*
X24973Y-20521D01*
X25081Y-20477D01*
X25317Y-20241D01*
X25446Y-19932D01*
X25446Y-19598D01*
X25319Y-19289D01*
X25083Y-19053D01*
X24774Y-18924D01*
X24440Y-18924D01*
X24131Y-19051D01*
X23895Y-19287D01*
X23766Y-19596D01*
X23766Y-19930D01*
X23893Y-20239D01*
X24129Y-20475D01*
X24239Y-20521D01*
X23739Y-20521D01*
X23739Y-16746D01*
X23677Y-16684D01*
X23239Y-16684D01*
X23239Y-17122D01*
X23301Y-17184D01*
X23440Y-17183D01*
X23539Y-17183D01*
X23630Y-17145D01*
X23700Y-17075D01*
X23738Y-16983D01*
X23739Y-16746D01*
X23739Y-20521D01*
X23139Y-20521D01*
X23139Y-17122D01*
X23139Y-16684D01*
X22701Y-16684D01*
X22639Y-16746D01*
X22640Y-16983D01*
X22678Y-17075D01*
X22748Y-17145D01*
X22839Y-17183D01*
X22938Y-17183D01*
X23077Y-17184D01*
X23139Y-17122D01*
X23139Y-20521D01*
X22175Y-20521D01*
X22175Y-07057D01*
X24118Y-07057D01*
X23981Y-07194D01*
X23904Y-07379D01*
X23904Y-07575D01*
X23653Y-07826D01*
X23590Y-07920D01*
X23568Y-08031D01*
X23568Y-08071D01*
X23568Y-09138D01*
X23498Y-09208D01*
X23433Y-09364D01*
X23433Y-09533D01*
X23497Y-09689D01*
X23617Y-09809D01*
X23773Y-09874D01*
X23942Y-09874D01*
X24098Y-09810D01*
X24218Y-09690D01*
X24283Y-09534D01*
X24283Y-09365D01*
X24219Y-09209D01*
X24148Y-09138D01*
X24148Y-08706D01*
X24308Y-08773D01*
X24509Y-08773D01*
X24695Y-08696D01*
X24803Y-08588D01*
X24911Y-08696D01*
X25096Y-08773D01*
X25297Y-08773D01*
X25483Y-08696D01*
X25590Y-08588D01*
X25698Y-08696D01*
X25883Y-08773D01*
X26084Y-08773D01*
X26270Y-08696D01*
X26378Y-08588D01*
X26486Y-08696D01*
X26671Y-08773D01*
X26872Y-08773D01*
X27058Y-08696D01*
X27165Y-08588D01*
X27273Y-08696D01*
X27458Y-08773D01*
X27659Y-08773D01*
X27845Y-08696D01*
X27953Y-08588D01*
X28061Y-08696D01*
X28246Y-08773D01*
X28447Y-08773D01*
X28633Y-08696D01*
X28775Y-08554D01*
X28852Y-08369D01*
X28852Y-08168D01*
X28775Y-07982D01*
X28741Y-07948D01*
X28744Y-07947D01*
X28814Y-07877D01*
X28852Y-07786D01*
X28852Y-07687D01*
X28853Y-07592D01*
X28791Y-07530D01*
X28447Y-07530D01*
X28397Y-07530D01*
X28297Y-07530D01*
X28297Y-07430D01*
X28397Y-07430D01*
X28447Y-07430D01*
X28791Y-07430D01*
X28853Y-07368D01*
X28852Y-07273D01*
X28852Y-07174D01*
X28814Y-07083D01*
X28788Y-07057D01*
X31479Y-07057D01*
X31336Y-07200D01*
X31207Y-07509D01*
X31207Y-07843D01*
X31334Y-08152D01*
X31570Y-08388D01*
X31879Y-08517D01*
X32213Y-08517D01*
X32522Y-08390D01*
X32758Y-08154D01*
X32887Y-07845D01*
X32887Y-07511D01*
X32760Y-07202D01*
X32615Y-07057D01*
X34911Y-07057D01*
X34911Y-20521D01*
M02*
