G04 (created by PCBNEW-RS274X (2012-01-19 BZR 3256)-stable) date Wed 26 Sep 2012 01:10:11 PM NZST*
G01*
G70*
G90*
%MOIN*%
G04 Gerber Fmt 3.4, Leading zero omitted, Abs format*
%FSLAX34Y34*%
G04 APERTURE LIST*
%ADD10C,0.006000*%
%ADD11R,0.047200X0.027600*%
%ADD12R,0.078700X0.027600*%
%ADD13R,0.110300X0.086600*%
%ADD14R,0.036000X0.036000*%
%ADD15R,0.060000X0.080000*%
%ADD16R,0.080000X0.060000*%
%ADD17R,0.025000X0.031500*%
%ADD18R,0.031500X0.025000*%
G04 APERTURE END LIST*
G54D10*
G54D11*
X29233Y-10216D03*
G54D12*
X29390Y-10807D03*
G54D11*
X29233Y-11398D03*
G54D13*
X30335Y-10807D03*
G54D11*
X27618Y-10807D03*
G54D12*
X27461Y-10216D03*
G54D11*
X27618Y-09625D03*
G54D13*
X26516Y-10216D03*
G54D14*
X28085Y-12535D03*
X28085Y-11835D03*
X28885Y-12185D03*
X29770Y-15241D03*
X29770Y-15941D03*
X28970Y-15591D03*
X27474Y-16610D03*
X27474Y-15910D03*
X28274Y-16260D03*
G54D15*
X30119Y-13484D03*
X28819Y-13484D03*
G54D16*
X25217Y-10905D03*
X25217Y-09605D03*
G54D17*
X29591Y-14409D03*
X28991Y-14409D03*
G54D18*
X26614Y-12505D03*
X26614Y-11905D03*
X27264Y-11885D03*
X27264Y-12485D03*
G54D17*
X29188Y-16574D03*
X29788Y-16574D03*
G54D18*
X30433Y-15930D03*
X30433Y-15330D03*
G54D17*
X26580Y-14567D03*
X25980Y-14567D03*
G54D18*
X24646Y-12850D03*
X24646Y-13450D03*
G54D17*
X30281Y-12185D03*
X29681Y-12185D03*
G54D18*
X28445Y-10792D03*
X28445Y-10192D03*
X24272Y-10555D03*
X24272Y-09955D03*
X26614Y-13243D03*
X26614Y-13843D03*
G54D17*
X25812Y-11772D03*
X25212Y-11772D03*
X25212Y-13465D03*
X25812Y-13465D03*
G54D16*
X27697Y-15157D03*
X27697Y-13857D03*
M02*
