G04 (created by PCBNEW-RS274X (2011-11-27 BZR 3249)-stable) date 10/09/2012 4:54:58 p.m.*
G01*
G70*
G90*
%MOIN*%
G04 Gerber Fmt 3.4, Leading zero omitted, Abs format*
%FSLAX34Y34*%
G04 APERTURE LIST*
%ADD10C,0.006000*%
%ADD11R,0.060000X0.060000*%
%ADD12C,0.060000*%
%ADD13R,0.051200X0.051200*%
%ADD14C,0.051200*%
%ADD15C,0.035000*%
%ADD16C,0.008000*%
%ADD17C,0.010000*%
G04 APERTURE END LIST*
G54D10*
G54D11*
X31989Y-14814D03*
G54D12*
X31989Y-13814D03*
X31989Y-12814D03*
X31989Y-11814D03*
X31989Y-10814D03*
G54D11*
X23228Y-15650D03*
G54D12*
X23228Y-14650D03*
X23228Y-13650D03*
X23228Y-12650D03*
X23228Y-11650D03*
X23228Y-10650D03*
G54D13*
X24390Y-08287D03*
G54D14*
X24390Y-07499D03*
X25178Y-08287D03*
X25178Y-07499D03*
X25965Y-08287D03*
X25965Y-07499D03*
X26753Y-08287D03*
X26753Y-07499D03*
X27540Y-08287D03*
X27540Y-07499D03*
X28328Y-08287D03*
X28328Y-07499D03*
G54D15*
X25945Y-12559D03*
X24606Y-12165D03*
X29036Y-09350D03*
X25591Y-08858D03*
X32874Y-07579D03*
X31299Y-11319D03*
X32874Y-10039D03*
X32874Y-13287D03*
X27166Y-08858D03*
X24508Y-08956D03*
X28347Y-09645D03*
X22441Y-15157D03*
X24016Y-15157D03*
X22441Y-16732D03*
X24016Y-13189D03*
X30118Y-14291D03*
X28543Y-11319D03*
X26575Y-11417D03*
X22441Y-10039D03*
X30906Y-12893D03*
X26378Y-16732D03*
X32874Y-16634D03*
X23524Y-07480D03*
X22441Y-07480D03*
X30020Y-07480D03*
X24410Y-16732D03*
X26772Y-15649D03*
X25295Y-14665D03*
X31063Y-15315D03*
X29449Y-12756D03*
G54D16*
X25945Y-12559D02*
X26496Y-12008D01*
X26496Y-12008D02*
X31183Y-12008D01*
X31183Y-12008D02*
X31989Y-12814D01*
X23228Y-10650D02*
X23327Y-10650D01*
X24842Y-12638D02*
X26666Y-10814D01*
X26666Y-10814D02*
X31989Y-10814D01*
X23327Y-10650D02*
X24213Y-11536D01*
X24528Y-12638D02*
X24842Y-12638D01*
X24213Y-12323D02*
X24528Y-12638D01*
X24213Y-11536D02*
X24213Y-12323D01*
X23540Y-11650D02*
X23898Y-12008D01*
X23228Y-11650D02*
X23540Y-11650D01*
X23898Y-12008D02*
X23898Y-12481D01*
X25079Y-12913D02*
X26178Y-11814D01*
X24330Y-12913D02*
X25079Y-12913D01*
X23898Y-12481D02*
X24330Y-12913D01*
X26178Y-11814D02*
X31989Y-11814D01*
X24606Y-12165D02*
X28328Y-08443D01*
X28328Y-08443D02*
X28328Y-08287D01*
X24508Y-08956D02*
X24606Y-08858D01*
X30020Y-07480D02*
X29036Y-08464D01*
X30118Y-14291D02*
X30641Y-14814D01*
X28543Y-11319D02*
X28445Y-11417D01*
X24606Y-08858D02*
X25591Y-08858D01*
X27166Y-08858D02*
X25591Y-08858D01*
X30641Y-14814D02*
X31989Y-14814D01*
X32874Y-10039D02*
X32874Y-07579D01*
X28445Y-11417D02*
X26575Y-11417D01*
X32874Y-16634D02*
X32874Y-13287D01*
X23524Y-07480D02*
X22441Y-07480D01*
X24410Y-15551D02*
X24016Y-15157D01*
X22441Y-10039D02*
X22441Y-15157D01*
X24016Y-15157D02*
X24016Y-13189D01*
X22441Y-16732D02*
X24410Y-16732D01*
X24410Y-16732D02*
X24410Y-15551D01*
X29036Y-08464D02*
X29036Y-09350D01*
X26279Y-15649D02*
X26772Y-15649D01*
X25295Y-14665D02*
X26279Y-15649D01*
X30000Y-15315D02*
X31063Y-15315D01*
X29449Y-14764D02*
X30000Y-15315D01*
X29449Y-12756D02*
X29449Y-14764D01*
G54D10*
G36*
X31762Y-11314D02*
X31678Y-11349D01*
X31524Y-11503D01*
X31515Y-11524D01*
X26366Y-11524D01*
X26786Y-11104D01*
X31515Y-11104D01*
X31524Y-11125D01*
X31678Y-11279D01*
X31762Y-11314D01*
X31762Y-11314D01*
G37*
G54D17*
X31762Y-11314D02*
X31678Y-11349D01*
X31524Y-11503D01*
X31515Y-11524D01*
X26366Y-11524D01*
X26786Y-11104D01*
X31515Y-11104D01*
X31524Y-11125D01*
X31678Y-11279D01*
X31762Y-11314D01*
G54D10*
G36*
X33179Y-16998D02*
X32539Y-16998D01*
X32539Y-14926D01*
X32477Y-14864D01*
X32039Y-14864D01*
X32039Y-15302D01*
X32101Y-15364D01*
X32240Y-15363D01*
X32339Y-15363D01*
X32430Y-15325D01*
X32500Y-15255D01*
X32538Y-15163D01*
X32539Y-14926D01*
X32539Y-16998D01*
X31939Y-16998D01*
X31939Y-15302D01*
X31939Y-14864D01*
X31501Y-14864D01*
X31439Y-14926D01*
X31439Y-15113D01*
X31424Y-15075D01*
X31304Y-14955D01*
X31148Y-14890D01*
X30979Y-14890D01*
X30823Y-14954D01*
X30752Y-15025D01*
X30120Y-15025D01*
X29739Y-14644D01*
X29739Y-13067D01*
X29809Y-12997D01*
X29874Y-12841D01*
X29874Y-12672D01*
X29810Y-12516D01*
X29690Y-12396D01*
X29534Y-12331D01*
X29365Y-12331D01*
X29209Y-12395D01*
X29089Y-12515D01*
X29024Y-12671D01*
X29024Y-12840D01*
X29088Y-12996D01*
X29159Y-13067D01*
X29159Y-14764D01*
X29181Y-14875D01*
X29244Y-14969D01*
X29795Y-15520D01*
X29889Y-15583D01*
X30000Y-15605D01*
X30752Y-15605D01*
X30822Y-15675D01*
X30978Y-15740D01*
X31147Y-15740D01*
X31303Y-15676D01*
X31423Y-15556D01*
X31488Y-15400D01*
X31488Y-15265D01*
X31548Y-15325D01*
X31639Y-15363D01*
X31738Y-15363D01*
X31877Y-15364D01*
X31939Y-15302D01*
X31939Y-16998D01*
X27197Y-16998D01*
X27197Y-15734D01*
X27197Y-15565D01*
X27133Y-15409D01*
X27013Y-15289D01*
X26857Y-15224D01*
X26688Y-15224D01*
X26532Y-15288D01*
X26461Y-15359D01*
X26399Y-15359D01*
X25720Y-14680D01*
X25720Y-14581D01*
X25656Y-14425D01*
X25536Y-14305D01*
X25380Y-14240D01*
X25211Y-14240D01*
X25055Y-14304D01*
X24935Y-14424D01*
X24870Y-14580D01*
X24870Y-14749D01*
X24934Y-14905D01*
X25054Y-15025D01*
X25210Y-15090D01*
X25310Y-15090D01*
X26074Y-15854D01*
X26168Y-15917D01*
X26279Y-15939D01*
X26461Y-15939D01*
X26531Y-16009D01*
X26687Y-16074D01*
X26856Y-16074D01*
X27012Y-16010D01*
X27132Y-15890D01*
X27197Y-15734D01*
X27197Y-16998D01*
X23778Y-16998D01*
X23778Y-15762D01*
X23716Y-15700D01*
X23278Y-15700D01*
X23278Y-16138D01*
X23340Y-16200D01*
X23479Y-16199D01*
X23578Y-16199D01*
X23669Y-16161D01*
X23739Y-16091D01*
X23777Y-15999D01*
X23778Y-15762D01*
X23778Y-16998D01*
X23178Y-16998D01*
X23178Y-16138D01*
X23178Y-15700D01*
X22740Y-15700D01*
X22678Y-15762D01*
X22679Y-15999D01*
X22717Y-16091D01*
X22787Y-16161D01*
X22878Y-16199D01*
X22977Y-16199D01*
X23116Y-16200D01*
X23178Y-16138D01*
X23178Y-16998D01*
X22175Y-16998D01*
X22175Y-07215D01*
X23961Y-07215D01*
X23885Y-07398D01*
X23885Y-07599D01*
X23962Y-07785D01*
X23995Y-07818D01*
X23993Y-07820D01*
X23923Y-07890D01*
X23885Y-07981D01*
X23885Y-08080D01*
X23884Y-08175D01*
X23946Y-08237D01*
X24290Y-08237D01*
X24340Y-08237D01*
X24440Y-08237D01*
X24440Y-08337D01*
X24440Y-08387D01*
X24440Y-08731D01*
X24502Y-08793D01*
X24695Y-08792D01*
X24787Y-08754D01*
X24857Y-08684D01*
X24858Y-08681D01*
X24892Y-08715D01*
X25077Y-08792D01*
X25278Y-08792D01*
X25464Y-08715D01*
X25571Y-08607D01*
X25679Y-08715D01*
X25864Y-08792D01*
X26065Y-08792D01*
X26251Y-08715D01*
X26359Y-08607D01*
X26467Y-08715D01*
X26652Y-08792D01*
X26853Y-08792D01*
X27039Y-08715D01*
X27146Y-08607D01*
X27254Y-08715D01*
X27439Y-08792D01*
X27568Y-08792D01*
X24620Y-11740D01*
X24522Y-11740D01*
X24503Y-11747D01*
X24503Y-11536D01*
X24502Y-11535D01*
X24481Y-11425D01*
X24480Y-11424D01*
X24418Y-11331D01*
X24417Y-11330D01*
X24340Y-11253D01*
X24340Y-08731D01*
X24340Y-08337D01*
X23946Y-08337D01*
X23884Y-08399D01*
X23885Y-08494D01*
X23885Y-08593D01*
X23923Y-08684D01*
X23993Y-08754D01*
X24085Y-08792D01*
X24278Y-08793D01*
X24340Y-08731D01*
X24340Y-11253D01*
X23777Y-10690D01*
X23777Y-10541D01*
X23693Y-10339D01*
X23539Y-10185D01*
X23337Y-10101D01*
X23119Y-10101D01*
X22917Y-10185D01*
X22763Y-10339D01*
X22679Y-10541D01*
X22679Y-10759D01*
X22763Y-10961D01*
X22917Y-11115D01*
X23001Y-11150D01*
X22917Y-11185D01*
X22763Y-11339D01*
X22679Y-11541D01*
X22679Y-11759D01*
X22763Y-11961D01*
X22917Y-12115D01*
X23001Y-12150D01*
X22917Y-12185D01*
X22763Y-12339D01*
X22679Y-12541D01*
X22679Y-12759D01*
X22763Y-12961D01*
X22917Y-13115D01*
X23001Y-13150D01*
X22917Y-13185D01*
X22763Y-13339D01*
X22679Y-13541D01*
X22679Y-13759D01*
X22763Y-13961D01*
X22917Y-14115D01*
X23001Y-14150D01*
X22917Y-14185D01*
X22763Y-14339D01*
X22679Y-14541D01*
X22679Y-14759D01*
X22763Y-14961D01*
X22903Y-15101D01*
X22878Y-15101D01*
X22787Y-15139D01*
X22717Y-15209D01*
X22679Y-15301D01*
X22678Y-15538D01*
X22740Y-15600D01*
X23128Y-15600D01*
X23178Y-15600D01*
X23278Y-15600D01*
X23328Y-15600D01*
X23716Y-15600D01*
X23778Y-15538D01*
X23777Y-15301D01*
X23739Y-15209D01*
X23669Y-15139D01*
X23578Y-15101D01*
X23553Y-15101D01*
X23693Y-14961D01*
X23777Y-14759D01*
X23777Y-14541D01*
X23693Y-14339D01*
X23539Y-14185D01*
X23454Y-14150D01*
X23539Y-14115D01*
X23693Y-13961D01*
X23777Y-13759D01*
X23777Y-13541D01*
X23693Y-13339D01*
X23539Y-13185D01*
X23454Y-13150D01*
X23539Y-13115D01*
X23693Y-12961D01*
X23773Y-12766D01*
X24124Y-13117D01*
X24125Y-13118D01*
X24218Y-13180D01*
X24219Y-13181D01*
X24329Y-13202D01*
X24330Y-13203D01*
X25079Y-13203D01*
X25190Y-13181D01*
X25284Y-13118D01*
X25593Y-12808D01*
X25704Y-12919D01*
X25860Y-12984D01*
X26029Y-12984D01*
X26185Y-12920D01*
X26305Y-12800D01*
X26370Y-12644D01*
X26370Y-12544D01*
X26616Y-12298D01*
X31063Y-12298D01*
X31448Y-12683D01*
X31440Y-12705D01*
X31440Y-12923D01*
X31524Y-13125D01*
X31678Y-13279D01*
X31762Y-13314D01*
X31678Y-13349D01*
X31524Y-13503D01*
X31440Y-13705D01*
X31440Y-13923D01*
X31524Y-14125D01*
X31664Y-14265D01*
X31639Y-14265D01*
X31548Y-14303D01*
X31478Y-14373D01*
X31440Y-14465D01*
X31439Y-14702D01*
X31501Y-14764D01*
X31889Y-14764D01*
X31939Y-14764D01*
X32039Y-14764D01*
X32089Y-14764D01*
X32477Y-14764D01*
X32539Y-14702D01*
X32538Y-14465D01*
X32500Y-14373D01*
X32430Y-14303D01*
X32339Y-14265D01*
X32314Y-14265D01*
X32454Y-14125D01*
X32538Y-13923D01*
X32538Y-13705D01*
X32454Y-13503D01*
X32300Y-13349D01*
X32215Y-13314D01*
X32300Y-13279D01*
X32454Y-13125D01*
X32538Y-12923D01*
X32538Y-12705D01*
X32454Y-12503D01*
X32300Y-12349D01*
X32215Y-12314D01*
X32300Y-12279D01*
X32454Y-12125D01*
X32538Y-11923D01*
X32538Y-11705D01*
X32454Y-11503D01*
X32300Y-11349D01*
X32215Y-11314D01*
X32300Y-11279D01*
X32454Y-11125D01*
X32538Y-10923D01*
X32538Y-10705D01*
X32454Y-10503D01*
X32300Y-10349D01*
X32098Y-10265D01*
X31880Y-10265D01*
X31678Y-10349D01*
X31524Y-10503D01*
X31515Y-10524D01*
X26666Y-10524D01*
X26655Y-10526D01*
X28389Y-08792D01*
X28428Y-08792D01*
X28614Y-08715D01*
X28756Y-08573D01*
X28833Y-08388D01*
X28833Y-08187D01*
X28756Y-08001D01*
X28648Y-07893D01*
X28756Y-07785D01*
X28833Y-07600D01*
X28833Y-07399D01*
X28756Y-07215D01*
X33179Y-07215D01*
X33179Y-16998D01*
X33179Y-16998D01*
G37*
G54D17*
X33179Y-16998D02*
X32539Y-16998D01*
X32539Y-14926D01*
X32477Y-14864D01*
X32039Y-14864D01*
X32039Y-15302D01*
X32101Y-15364D01*
X32240Y-15363D01*
X32339Y-15363D01*
X32430Y-15325D01*
X32500Y-15255D01*
X32538Y-15163D01*
X32539Y-14926D01*
X32539Y-16998D01*
X31939Y-16998D01*
X31939Y-15302D01*
X31939Y-14864D01*
X31501Y-14864D01*
X31439Y-14926D01*
X31439Y-15113D01*
X31424Y-15075D01*
X31304Y-14955D01*
X31148Y-14890D01*
X30979Y-14890D01*
X30823Y-14954D01*
X30752Y-15025D01*
X30120Y-15025D01*
X29739Y-14644D01*
X29739Y-13067D01*
X29809Y-12997D01*
X29874Y-12841D01*
X29874Y-12672D01*
X29810Y-12516D01*
X29690Y-12396D01*
X29534Y-12331D01*
X29365Y-12331D01*
X29209Y-12395D01*
X29089Y-12515D01*
X29024Y-12671D01*
X29024Y-12840D01*
X29088Y-12996D01*
X29159Y-13067D01*
X29159Y-14764D01*
X29181Y-14875D01*
X29244Y-14969D01*
X29795Y-15520D01*
X29889Y-15583D01*
X30000Y-15605D01*
X30752Y-15605D01*
X30822Y-15675D01*
X30978Y-15740D01*
X31147Y-15740D01*
X31303Y-15676D01*
X31423Y-15556D01*
X31488Y-15400D01*
X31488Y-15265D01*
X31548Y-15325D01*
X31639Y-15363D01*
X31738Y-15363D01*
X31877Y-15364D01*
X31939Y-15302D01*
X31939Y-16998D01*
X27197Y-16998D01*
X27197Y-15734D01*
X27197Y-15565D01*
X27133Y-15409D01*
X27013Y-15289D01*
X26857Y-15224D01*
X26688Y-15224D01*
X26532Y-15288D01*
X26461Y-15359D01*
X26399Y-15359D01*
X25720Y-14680D01*
X25720Y-14581D01*
X25656Y-14425D01*
X25536Y-14305D01*
X25380Y-14240D01*
X25211Y-14240D01*
X25055Y-14304D01*
X24935Y-14424D01*
X24870Y-14580D01*
X24870Y-14749D01*
X24934Y-14905D01*
X25054Y-15025D01*
X25210Y-15090D01*
X25310Y-15090D01*
X26074Y-15854D01*
X26168Y-15917D01*
X26279Y-15939D01*
X26461Y-15939D01*
X26531Y-16009D01*
X26687Y-16074D01*
X26856Y-16074D01*
X27012Y-16010D01*
X27132Y-15890D01*
X27197Y-15734D01*
X27197Y-16998D01*
X23778Y-16998D01*
X23778Y-15762D01*
X23716Y-15700D01*
X23278Y-15700D01*
X23278Y-16138D01*
X23340Y-16200D01*
X23479Y-16199D01*
X23578Y-16199D01*
X23669Y-16161D01*
X23739Y-16091D01*
X23777Y-15999D01*
X23778Y-15762D01*
X23778Y-16998D01*
X23178Y-16998D01*
X23178Y-16138D01*
X23178Y-15700D01*
X22740Y-15700D01*
X22678Y-15762D01*
X22679Y-15999D01*
X22717Y-16091D01*
X22787Y-16161D01*
X22878Y-16199D01*
X22977Y-16199D01*
X23116Y-16200D01*
X23178Y-16138D01*
X23178Y-16998D01*
X22175Y-16998D01*
X22175Y-07215D01*
X23961Y-07215D01*
X23885Y-07398D01*
X23885Y-07599D01*
X23962Y-07785D01*
X23995Y-07818D01*
X23993Y-07820D01*
X23923Y-07890D01*
X23885Y-07981D01*
X23885Y-08080D01*
X23884Y-08175D01*
X23946Y-08237D01*
X24290Y-08237D01*
X24340Y-08237D01*
X24440Y-08237D01*
X24440Y-08337D01*
X24440Y-08387D01*
X24440Y-08731D01*
X24502Y-08793D01*
X24695Y-08792D01*
X24787Y-08754D01*
X24857Y-08684D01*
X24858Y-08681D01*
X24892Y-08715D01*
X25077Y-08792D01*
X25278Y-08792D01*
X25464Y-08715D01*
X25571Y-08607D01*
X25679Y-08715D01*
X25864Y-08792D01*
X26065Y-08792D01*
X26251Y-08715D01*
X26359Y-08607D01*
X26467Y-08715D01*
X26652Y-08792D01*
X26853Y-08792D01*
X27039Y-08715D01*
X27146Y-08607D01*
X27254Y-08715D01*
X27439Y-08792D01*
X27568Y-08792D01*
X24620Y-11740D01*
X24522Y-11740D01*
X24503Y-11747D01*
X24503Y-11536D01*
X24502Y-11535D01*
X24481Y-11425D01*
X24480Y-11424D01*
X24418Y-11331D01*
X24417Y-11330D01*
X24340Y-11253D01*
X24340Y-08731D01*
X24340Y-08337D01*
X23946Y-08337D01*
X23884Y-08399D01*
X23885Y-08494D01*
X23885Y-08593D01*
X23923Y-08684D01*
X23993Y-08754D01*
X24085Y-08792D01*
X24278Y-08793D01*
X24340Y-08731D01*
X24340Y-11253D01*
X23777Y-10690D01*
X23777Y-10541D01*
X23693Y-10339D01*
X23539Y-10185D01*
X23337Y-10101D01*
X23119Y-10101D01*
X22917Y-10185D01*
X22763Y-10339D01*
X22679Y-10541D01*
X22679Y-10759D01*
X22763Y-10961D01*
X22917Y-11115D01*
X23001Y-11150D01*
X22917Y-11185D01*
X22763Y-11339D01*
X22679Y-11541D01*
X22679Y-11759D01*
X22763Y-11961D01*
X22917Y-12115D01*
X23001Y-12150D01*
X22917Y-12185D01*
X22763Y-12339D01*
X22679Y-12541D01*
X22679Y-12759D01*
X22763Y-12961D01*
X22917Y-13115D01*
X23001Y-13150D01*
X22917Y-13185D01*
X22763Y-13339D01*
X22679Y-13541D01*
X22679Y-13759D01*
X22763Y-13961D01*
X22917Y-14115D01*
X23001Y-14150D01*
X22917Y-14185D01*
X22763Y-14339D01*
X22679Y-14541D01*
X22679Y-14759D01*
X22763Y-14961D01*
X22903Y-15101D01*
X22878Y-15101D01*
X22787Y-15139D01*
X22717Y-15209D01*
X22679Y-15301D01*
X22678Y-15538D01*
X22740Y-15600D01*
X23128Y-15600D01*
X23178Y-15600D01*
X23278Y-15600D01*
X23328Y-15600D01*
X23716Y-15600D01*
X23778Y-15538D01*
X23777Y-15301D01*
X23739Y-15209D01*
X23669Y-15139D01*
X23578Y-15101D01*
X23553Y-15101D01*
X23693Y-14961D01*
X23777Y-14759D01*
X23777Y-14541D01*
X23693Y-14339D01*
X23539Y-14185D01*
X23454Y-14150D01*
X23539Y-14115D01*
X23693Y-13961D01*
X23777Y-13759D01*
X23777Y-13541D01*
X23693Y-13339D01*
X23539Y-13185D01*
X23454Y-13150D01*
X23539Y-13115D01*
X23693Y-12961D01*
X23773Y-12766D01*
X24124Y-13117D01*
X24125Y-13118D01*
X24218Y-13180D01*
X24219Y-13181D01*
X24329Y-13202D01*
X24330Y-13203D01*
X25079Y-13203D01*
X25190Y-13181D01*
X25284Y-13118D01*
X25593Y-12808D01*
X25704Y-12919D01*
X25860Y-12984D01*
X26029Y-12984D01*
X26185Y-12920D01*
X26305Y-12800D01*
X26370Y-12644D01*
X26370Y-12544D01*
X26616Y-12298D01*
X31063Y-12298D01*
X31448Y-12683D01*
X31440Y-12705D01*
X31440Y-12923D01*
X31524Y-13125D01*
X31678Y-13279D01*
X31762Y-13314D01*
X31678Y-13349D01*
X31524Y-13503D01*
X31440Y-13705D01*
X31440Y-13923D01*
X31524Y-14125D01*
X31664Y-14265D01*
X31639Y-14265D01*
X31548Y-14303D01*
X31478Y-14373D01*
X31440Y-14465D01*
X31439Y-14702D01*
X31501Y-14764D01*
X31889Y-14764D01*
X31939Y-14764D01*
X32039Y-14764D01*
X32089Y-14764D01*
X32477Y-14764D01*
X32539Y-14702D01*
X32538Y-14465D01*
X32500Y-14373D01*
X32430Y-14303D01*
X32339Y-14265D01*
X32314Y-14265D01*
X32454Y-14125D01*
X32538Y-13923D01*
X32538Y-13705D01*
X32454Y-13503D01*
X32300Y-13349D01*
X32215Y-13314D01*
X32300Y-13279D01*
X32454Y-13125D01*
X32538Y-12923D01*
X32538Y-12705D01*
X32454Y-12503D01*
X32300Y-12349D01*
X32215Y-12314D01*
X32300Y-12279D01*
X32454Y-12125D01*
X32538Y-11923D01*
X32538Y-11705D01*
X32454Y-11503D01*
X32300Y-11349D01*
X32215Y-11314D01*
X32300Y-11279D01*
X32454Y-11125D01*
X32538Y-10923D01*
X32538Y-10705D01*
X32454Y-10503D01*
X32300Y-10349D01*
X32098Y-10265D01*
X31880Y-10265D01*
X31678Y-10349D01*
X31524Y-10503D01*
X31515Y-10524D01*
X26666Y-10524D01*
X26655Y-10526D01*
X28389Y-08792D01*
X28428Y-08792D01*
X28614Y-08715D01*
X28756Y-08573D01*
X28833Y-08388D01*
X28833Y-08187D01*
X28756Y-08001D01*
X28648Y-07893D01*
X28756Y-07785D01*
X28833Y-07600D01*
X28833Y-07399D01*
X28756Y-07215D01*
X33179Y-07215D01*
X33179Y-16998D01*
M02*
