G04 (created by PCBNEW-RS274X (2012-01-19 BZR 3256)-stable) date Wed 26 Sep 2012 04:40:45 PM NZST*
G01*
G70*
G90*
%MOIN*%
G04 Gerber Fmt 3.4, Leading zero omitted, Abs format*
%FSLAX34Y34*%
G04 APERTURE LIST*
%ADD10C,0.006000*%
%ADD11C,0.009800*%
%ADD12C,0.005900*%
%ADD13C,0.007500*%
%ADD14C,0.005000*%
%ADD15C,0.015000*%
%ADD16C,0.012000*%
%ADD17C,0.004300*%
%ADD18C,0.003900*%
%ADD19C,0.007900*%
%ADD20C,0.004500*%
%ADD21C,0.008000*%
G04 APERTURE END LIST*
G54D10*
G54D11*
X35066Y-14657D02*
X35066Y-14949D01*
X35066Y-14803D02*
X34515Y-14803D01*
X34593Y-14852D01*
X34646Y-14901D01*
X34672Y-14949D01*
X22021Y-15815D02*
X22021Y-15523D01*
X22021Y-15669D02*
X22572Y-15669D01*
X22494Y-15620D01*
X22441Y-15571D01*
X22415Y-15523D01*
G54D12*
X33078Y-15987D02*
X32907Y-15987D01*
X32992Y-15987D02*
X32992Y-15688D01*
X32964Y-15730D01*
X32935Y-15759D01*
X32907Y-15773D01*
X24181Y-16774D02*
X24010Y-16774D01*
X24095Y-16774D02*
X24095Y-16475D01*
X24067Y-16517D01*
X24038Y-16546D01*
X24010Y-16560D01*
X23787Y-08743D02*
X23616Y-08743D01*
X23701Y-08743D02*
X23701Y-08444D01*
X23673Y-08486D01*
X23644Y-08515D01*
X23616Y-08529D01*
G54D11*
X24504Y-08950D02*
X24455Y-08924D01*
X24382Y-08924D01*
X24309Y-08950D01*
X24260Y-09002D01*
X24236Y-09055D01*
X24212Y-09160D01*
X24212Y-09238D01*
X24236Y-09343D01*
X24260Y-09396D01*
X24309Y-09448D01*
X24382Y-09475D01*
X24431Y-09475D01*
X24504Y-09448D01*
X24528Y-09422D01*
X24528Y-09238D01*
X24431Y-09238D01*
X22009Y-12531D02*
X21982Y-12604D01*
X21982Y-12726D01*
X22009Y-12774D01*
X22035Y-12799D01*
X22087Y-12823D01*
X22140Y-12823D01*
X22192Y-12799D01*
X22219Y-12774D01*
X22245Y-12726D01*
X22271Y-12628D01*
X22297Y-12579D01*
X22324Y-12555D01*
X22376Y-12531D01*
X22429Y-12531D01*
X22481Y-12555D01*
X22507Y-12579D01*
X22533Y-12628D01*
X22533Y-12750D01*
X22507Y-12823D01*
X21982Y-13527D02*
X22533Y-13527D01*
X22533Y-13722D01*
X22507Y-13771D01*
X22481Y-13795D01*
X22429Y-13819D01*
X22350Y-13819D01*
X22297Y-13795D01*
X22271Y-13771D01*
X22245Y-13722D01*
X22245Y-13527D01*
X21982Y-11812D02*
X22245Y-11642D01*
X21982Y-11520D02*
X22533Y-11520D01*
X22533Y-11715D01*
X22507Y-11764D01*
X22481Y-11788D01*
X22429Y-11812D01*
X22350Y-11812D01*
X22297Y-11788D01*
X22271Y-11764D01*
X22245Y-11715D01*
X22245Y-11520D01*
X22533Y-10484D02*
X22533Y-10776D01*
X21982Y-10630D02*
X22533Y-10630D01*
X22010Y-14698D02*
X22400Y-14698D01*
X22205Y-14908D02*
X22205Y-14488D01*
X22507Y-16748D02*
X22533Y-16699D01*
X22533Y-16626D01*
X22507Y-16553D01*
X22455Y-16504D01*
X22402Y-16480D01*
X22297Y-16456D01*
X22219Y-16456D01*
X22114Y-16480D01*
X22061Y-16504D01*
X22009Y-16553D01*
X21982Y-16626D01*
X21982Y-16675D01*
X22009Y-16748D01*
X22035Y-16772D01*
X22219Y-16772D01*
X22219Y-16675D01*
X34514Y-10973D02*
X34514Y-10681D01*
X35065Y-10827D02*
X34514Y-10827D01*
X35065Y-11653D02*
X34802Y-11823D01*
X35065Y-11945D02*
X34514Y-11945D01*
X34514Y-11750D01*
X34540Y-11701D01*
X34566Y-11677D01*
X34618Y-11653D01*
X34697Y-11653D01*
X34750Y-11677D01*
X34776Y-11701D01*
X34802Y-11750D01*
X34802Y-11945D01*
X35065Y-12929D02*
X34514Y-12929D01*
X34514Y-12734D01*
X34540Y-12685D01*
X34566Y-12661D01*
X34618Y-12637D01*
X34697Y-12637D01*
X34750Y-12661D01*
X34776Y-12685D01*
X34802Y-12734D01*
X34802Y-12929D01*
X34776Y-13782D02*
X34802Y-13709D01*
X34828Y-13685D01*
X34881Y-13661D01*
X34960Y-13661D01*
X35012Y-13685D01*
X35038Y-13709D01*
X35065Y-13758D01*
X35065Y-13953D01*
X34514Y-13953D01*
X34514Y-13782D01*
X34540Y-13734D01*
X34566Y-13709D01*
X34618Y-13685D01*
X34671Y-13685D01*
X34723Y-13709D01*
X34750Y-13734D01*
X34776Y-13782D01*
X34776Y-13953D01*
X34501Y-15693D02*
X34475Y-15742D01*
X34475Y-15815D01*
X34501Y-15888D01*
X34553Y-15937D01*
X34606Y-15961D01*
X34711Y-15985D01*
X34789Y-15985D01*
X34894Y-15961D01*
X34947Y-15937D01*
X34999Y-15888D01*
X35026Y-15815D01*
X35026Y-15766D01*
X34999Y-15693D01*
X34973Y-15669D01*
X34789Y-15669D01*
X34789Y-15766D01*
G54D13*
X29469Y-11594D02*
X29469Y-11713D01*
X29469Y-10964D02*
X29469Y-11201D01*
X29469Y-10413D02*
X29469Y-10610D01*
X29469Y-09901D02*
X29469Y-10020D01*
X30493Y-10335D02*
X30493Y-09901D01*
X30493Y-11279D02*
X30493Y-11713D01*
X29469Y-11713D02*
X30493Y-11713D01*
X30493Y-09901D02*
X29469Y-09901D01*
X27382Y-09429D02*
X27382Y-09310D01*
X27382Y-10059D02*
X27382Y-09822D01*
X27382Y-10610D02*
X27382Y-10413D01*
X27382Y-11122D02*
X27382Y-11003D01*
X26358Y-10688D02*
X26358Y-11122D01*
X26358Y-09744D02*
X26358Y-09310D01*
X27382Y-09310D02*
X26358Y-09310D01*
X26358Y-11122D02*
X27382Y-11122D01*
G54D14*
X28335Y-12785D02*
X28335Y-11585D01*
X28335Y-11585D02*
X28635Y-11585D01*
X28635Y-11585D02*
X28635Y-12785D01*
X28635Y-12785D02*
X28335Y-12785D01*
X29520Y-14991D02*
X29520Y-16191D01*
X29520Y-16191D02*
X29220Y-16191D01*
X29220Y-16191D02*
X29220Y-14991D01*
X29220Y-14991D02*
X29520Y-14991D01*
X27724Y-16860D02*
X27724Y-15660D01*
X27724Y-15660D02*
X28024Y-15660D01*
X28024Y-15660D02*
X28024Y-16860D01*
X28024Y-16860D02*
X27724Y-16860D01*
X30469Y-13934D02*
X30469Y-13034D01*
X30469Y-13034D02*
X29819Y-13034D01*
X29119Y-13934D02*
X28469Y-13934D01*
X28469Y-13934D02*
X28469Y-13034D01*
X28469Y-13034D02*
X29119Y-13034D01*
X29819Y-13934D02*
X30469Y-13934D01*
X24767Y-11255D02*
X25667Y-11255D01*
X25667Y-11255D02*
X25667Y-10605D01*
X24767Y-09905D02*
X24767Y-09255D01*
X24767Y-09255D02*
X25667Y-09255D01*
X25667Y-09255D02*
X25667Y-09905D01*
X24767Y-10605D02*
X24767Y-11255D01*
X29803Y-14173D02*
X28799Y-14173D01*
X28779Y-14645D02*
X29803Y-14645D01*
X29803Y-14645D02*
X29803Y-14173D01*
X28790Y-14641D02*
X28790Y-14181D01*
X26850Y-12717D02*
X26850Y-11713D01*
X26378Y-11693D02*
X26378Y-12717D01*
X26378Y-12717D02*
X26850Y-12717D01*
X26382Y-11704D02*
X26842Y-11704D01*
X27028Y-11673D02*
X27028Y-12677D01*
X27500Y-12697D02*
X27500Y-11673D01*
X27500Y-11673D02*
X27028Y-11673D01*
X27496Y-12686D02*
X27036Y-12686D01*
X28976Y-16810D02*
X29980Y-16810D01*
X30000Y-16338D02*
X28976Y-16338D01*
X28976Y-16338D02*
X28976Y-16810D01*
X29989Y-16342D02*
X29989Y-16802D01*
X30669Y-16142D02*
X30669Y-15138D01*
X30197Y-15118D02*
X30197Y-16142D01*
X30197Y-16142D02*
X30669Y-16142D01*
X30201Y-15129D02*
X30661Y-15129D01*
X26792Y-14331D02*
X25788Y-14331D01*
X25768Y-14803D02*
X26792Y-14803D01*
X26792Y-14803D02*
X26792Y-14331D01*
X25779Y-14799D02*
X25779Y-14339D01*
X24410Y-12638D02*
X24410Y-13642D01*
X24882Y-13662D02*
X24882Y-12638D01*
X24882Y-12638D02*
X24410Y-12638D01*
X24878Y-13651D02*
X24418Y-13651D01*
X30493Y-11949D02*
X29489Y-11949D01*
X29469Y-12421D02*
X30493Y-12421D01*
X30493Y-12421D02*
X30493Y-11949D01*
X29480Y-12417D02*
X29480Y-11957D01*
X28681Y-11004D02*
X28681Y-10000D01*
X28209Y-09980D02*
X28209Y-11004D01*
X28209Y-11004D02*
X28681Y-11004D01*
X28213Y-09991D02*
X28673Y-09991D01*
X24508Y-10767D02*
X24508Y-09763D01*
X24036Y-09743D02*
X24036Y-10767D01*
X24036Y-10767D02*
X24508Y-10767D01*
X24040Y-09754D02*
X24500Y-09754D01*
X26378Y-13031D02*
X26378Y-14035D01*
X26850Y-14055D02*
X26850Y-13031D01*
X26850Y-13031D02*
X26378Y-13031D01*
X26846Y-14044D02*
X26386Y-14044D01*
X26024Y-11536D02*
X25020Y-11536D01*
X25000Y-12008D02*
X26024Y-12008D01*
X26024Y-12008D02*
X26024Y-11536D01*
X25011Y-12004D02*
X25011Y-11544D01*
X25000Y-13701D02*
X26004Y-13701D01*
X26024Y-13229D02*
X25000Y-13229D01*
X25000Y-13229D02*
X25000Y-13701D01*
X26013Y-13233D02*
X26013Y-13693D01*
G54D15*
X28740Y-08661D02*
X24016Y-08661D01*
X24016Y-08661D02*
X24016Y-07087D01*
X24016Y-07087D02*
X28740Y-07087D01*
X28740Y-07087D02*
X28740Y-08661D01*
G54D14*
X27247Y-15507D02*
X28147Y-15507D01*
X28147Y-15507D02*
X28147Y-14857D01*
X27247Y-14157D02*
X27247Y-13507D01*
X27247Y-13507D02*
X28147Y-13507D01*
X28147Y-13507D02*
X28147Y-14157D01*
X27247Y-14857D02*
X27247Y-15507D01*
X27724Y-18828D02*
X27724Y-17628D01*
X27724Y-17628D02*
X28024Y-17628D01*
X28024Y-17628D02*
X28024Y-18828D01*
X28024Y-18828D02*
X27724Y-18828D01*
X25653Y-17624D02*
X26553Y-17624D01*
X26553Y-17624D02*
X26553Y-18124D01*
X26553Y-18124D02*
X25653Y-18124D01*
X25653Y-18124D02*
X25653Y-17624D01*
X29938Y-17730D02*
X29038Y-17730D01*
X29038Y-17730D02*
X29038Y-17230D01*
X29038Y-17230D02*
X29938Y-17230D01*
X29938Y-17230D02*
X29938Y-17730D01*
X29038Y-17978D02*
X29938Y-17978D01*
X29938Y-17978D02*
X29938Y-18478D01*
X29938Y-18478D02*
X29038Y-18478D01*
X29038Y-18478D02*
X29038Y-17978D01*
G54D16*
X34319Y-16307D02*
X33319Y-16307D01*
X33319Y-16307D02*
X33319Y-10307D01*
X33319Y-10307D02*
X34319Y-10307D01*
X34319Y-10307D02*
X34319Y-16307D01*
X34319Y-15307D02*
X33319Y-15307D01*
G54D15*
X23689Y-17134D02*
X23689Y-10134D01*
X22689Y-10134D02*
X22689Y-17134D01*
G54D16*
X23689Y-17134D02*
X22689Y-17134D01*
X22689Y-10134D02*
X23689Y-10134D01*
X23689Y-16134D02*
X22689Y-16134D01*
G54D17*
X30587Y-10212D02*
X30763Y-10212D01*
X30784Y-10202D01*
X30794Y-10192D01*
X30804Y-10171D01*
X30804Y-10130D01*
X30794Y-10109D01*
X30784Y-10099D01*
X30763Y-10088D01*
X30587Y-10088D01*
X30804Y-09872D02*
X30804Y-09996D01*
X30804Y-09934D02*
X30587Y-09934D01*
X30618Y-09954D01*
X30639Y-09975D01*
X30649Y-09996D01*
X25898Y-10854D02*
X25898Y-11030D01*
X25908Y-11051D01*
X25918Y-11061D01*
X25939Y-11071D01*
X25980Y-11071D01*
X26001Y-11061D01*
X26011Y-11051D01*
X26022Y-11030D01*
X26022Y-10854D01*
X26114Y-10875D02*
X26125Y-10865D01*
X26145Y-10854D01*
X26197Y-10854D01*
X26218Y-10865D01*
X26228Y-10875D01*
X26238Y-10896D01*
X26238Y-10916D01*
X26228Y-10947D01*
X26104Y-11071D01*
X26238Y-11071D01*
G54D13*
X28948Y-12906D02*
X28920Y-12892D01*
X28891Y-12863D01*
X28848Y-12820D01*
X28820Y-12806D01*
X28791Y-12806D01*
X28806Y-12877D02*
X28777Y-12863D01*
X28748Y-12835D01*
X28734Y-12777D01*
X28734Y-12677D01*
X28748Y-12620D01*
X28777Y-12592D01*
X28806Y-12577D01*
X28863Y-12577D01*
X28891Y-12592D01*
X28920Y-12620D01*
X28934Y-12677D01*
X28934Y-12777D01*
X28920Y-12835D01*
X28891Y-12863D01*
X28863Y-12877D01*
X28806Y-12877D01*
X29034Y-12577D02*
X29220Y-12577D01*
X29120Y-12692D01*
X29162Y-12692D01*
X29191Y-12706D01*
X29205Y-12720D01*
X29220Y-12749D01*
X29220Y-12820D01*
X29205Y-12849D01*
X29191Y-12863D01*
X29162Y-12877D01*
X29077Y-12877D01*
X29048Y-12863D01*
X29034Y-12849D01*
X28633Y-15150D02*
X28605Y-15136D01*
X28576Y-15107D01*
X28533Y-15064D01*
X28505Y-15050D01*
X28476Y-15050D01*
X28491Y-15121D02*
X28462Y-15107D01*
X28433Y-15079D01*
X28419Y-15021D01*
X28419Y-14921D01*
X28433Y-14864D01*
X28462Y-14836D01*
X28491Y-14821D01*
X28548Y-14821D01*
X28576Y-14836D01*
X28605Y-14864D01*
X28619Y-14921D01*
X28619Y-15021D01*
X28605Y-15079D01*
X28576Y-15107D01*
X28548Y-15121D01*
X28491Y-15121D01*
X28733Y-14850D02*
X28747Y-14836D01*
X28776Y-14821D01*
X28847Y-14821D01*
X28876Y-14836D01*
X28890Y-14850D01*
X28905Y-14879D01*
X28905Y-14907D01*
X28890Y-14950D01*
X28719Y-15121D01*
X28905Y-15121D01*
X26743Y-16370D02*
X26715Y-16356D01*
X26686Y-16327D01*
X26643Y-16284D01*
X26615Y-16270D01*
X26586Y-16270D01*
X26601Y-16341D02*
X26572Y-16327D01*
X26543Y-16299D01*
X26529Y-16241D01*
X26529Y-16141D01*
X26543Y-16084D01*
X26572Y-16056D01*
X26601Y-16041D01*
X26658Y-16041D01*
X26686Y-16056D01*
X26715Y-16084D01*
X26729Y-16141D01*
X26729Y-16241D01*
X26715Y-16299D01*
X26686Y-16327D01*
X26658Y-16341D01*
X26601Y-16341D01*
X27015Y-16341D02*
X26843Y-16341D01*
X26929Y-16341D02*
X26929Y-16041D01*
X26900Y-16084D01*
X26872Y-16113D01*
X26843Y-16127D01*
G54D14*
X30777Y-13636D02*
X30763Y-13650D01*
X30720Y-13664D01*
X30691Y-13664D01*
X30648Y-13650D01*
X30620Y-13622D01*
X30605Y-13593D01*
X30591Y-13536D01*
X30591Y-13493D01*
X30605Y-13436D01*
X30620Y-13407D01*
X30648Y-13379D01*
X30691Y-13364D01*
X30720Y-13364D01*
X30763Y-13379D01*
X30777Y-13393D01*
X31063Y-13664D02*
X30891Y-13664D01*
X30977Y-13664D02*
X30977Y-13364D01*
X30948Y-13407D01*
X30920Y-13436D01*
X30891Y-13450D01*
X25068Y-09109D02*
X25054Y-09123D01*
X25011Y-09137D01*
X24982Y-09137D01*
X24939Y-09123D01*
X24911Y-09095D01*
X24896Y-09066D01*
X24882Y-09009D01*
X24882Y-08966D01*
X24896Y-08909D01*
X24911Y-08880D01*
X24939Y-08852D01*
X24982Y-08837D01*
X25011Y-08837D01*
X25054Y-08852D01*
X25068Y-08866D01*
X25339Y-08837D02*
X25196Y-08837D01*
X25182Y-08980D01*
X25196Y-08966D01*
X25225Y-08952D01*
X25296Y-08952D01*
X25325Y-08966D01*
X25339Y-08980D01*
X25354Y-09009D01*
X25354Y-09080D01*
X25339Y-09109D01*
X25325Y-09123D01*
X25296Y-09137D01*
X25225Y-09137D01*
X25196Y-09123D01*
X25182Y-09109D01*
G54D18*
X29994Y-14739D02*
X29987Y-14751D01*
X29964Y-14762D01*
X29949Y-14762D01*
X29927Y-14751D01*
X29912Y-14728D01*
X29904Y-14705D01*
X29897Y-14659D01*
X29897Y-14624D01*
X29904Y-14578D01*
X29912Y-14555D01*
X29927Y-14533D01*
X29949Y-14521D01*
X29964Y-14521D01*
X29987Y-14533D01*
X29994Y-14544D01*
X30054Y-14544D02*
X30061Y-14533D01*
X30076Y-14521D01*
X30114Y-14521D01*
X30129Y-14533D01*
X30136Y-14544D01*
X30144Y-14567D01*
X30144Y-14590D01*
X30136Y-14624D01*
X30046Y-14762D01*
X30144Y-14762D01*
X26155Y-12302D02*
X26103Y-12187D01*
X26065Y-12302D02*
X26065Y-12061D01*
X26125Y-12061D01*
X26140Y-12073D01*
X26148Y-12084D01*
X26155Y-12107D01*
X26155Y-12141D01*
X26148Y-12164D01*
X26140Y-12176D01*
X26125Y-12187D01*
X26065Y-12187D01*
X26290Y-12061D02*
X26260Y-12061D01*
X26245Y-12073D01*
X26237Y-12084D01*
X26222Y-12118D01*
X26215Y-12164D01*
X26215Y-12256D01*
X26222Y-12279D01*
X26230Y-12291D01*
X26245Y-12302D01*
X26275Y-12302D01*
X26290Y-12291D01*
X26297Y-12279D01*
X26305Y-12256D01*
X26305Y-12199D01*
X26297Y-12176D01*
X26290Y-12164D01*
X26275Y-12153D01*
X26245Y-12153D01*
X26230Y-12164D01*
X26222Y-12176D01*
X26215Y-12199D01*
X27140Y-11514D02*
X27088Y-11399D01*
X27050Y-11514D02*
X27050Y-11273D01*
X27110Y-11273D01*
X27125Y-11285D01*
X27133Y-11296D01*
X27140Y-11319D01*
X27140Y-11353D01*
X27133Y-11376D01*
X27125Y-11388D01*
X27110Y-11399D01*
X27050Y-11399D01*
X27282Y-11273D02*
X27207Y-11273D01*
X27200Y-11388D01*
X27207Y-11376D01*
X27222Y-11365D01*
X27260Y-11365D01*
X27275Y-11376D01*
X27282Y-11388D01*
X27290Y-11411D01*
X27290Y-11468D01*
X27282Y-11491D01*
X27275Y-11503D01*
X27260Y-11514D01*
X27222Y-11514D01*
X27207Y-11503D01*
X27200Y-11491D01*
X30191Y-16731D02*
X30139Y-16616D01*
X30101Y-16731D02*
X30101Y-16490D01*
X30161Y-16490D01*
X30176Y-16502D01*
X30184Y-16513D01*
X30191Y-16536D01*
X30191Y-16570D01*
X30184Y-16593D01*
X30176Y-16605D01*
X30161Y-16616D01*
X30101Y-16616D01*
X30326Y-16570D02*
X30326Y-16731D01*
X30288Y-16479D02*
X30251Y-16651D01*
X30348Y-16651D01*
X30880Y-16042D02*
X30828Y-15927D01*
X30790Y-16042D02*
X30790Y-15801D01*
X30850Y-15801D01*
X30865Y-15813D01*
X30873Y-15824D01*
X30880Y-15847D01*
X30880Y-15881D01*
X30873Y-15904D01*
X30865Y-15916D01*
X30850Y-15927D01*
X30790Y-15927D01*
X30932Y-15801D02*
X31030Y-15801D01*
X30977Y-15893D01*
X31000Y-15893D01*
X31015Y-15904D01*
X31022Y-15916D01*
X31030Y-15939D01*
X31030Y-15996D01*
X31022Y-16019D01*
X31015Y-16031D01*
X31000Y-16042D01*
X30955Y-16042D01*
X30940Y-16031D01*
X30932Y-16019D01*
X25565Y-14349D02*
X25513Y-14234D01*
X25475Y-14349D02*
X25475Y-14108D01*
X25535Y-14108D01*
X25550Y-14120D01*
X25558Y-14131D01*
X25565Y-14154D01*
X25565Y-14188D01*
X25558Y-14211D01*
X25550Y-14223D01*
X25535Y-14234D01*
X25475Y-14234D01*
X25625Y-14131D02*
X25632Y-14120D01*
X25647Y-14108D01*
X25685Y-14108D01*
X25700Y-14120D01*
X25707Y-14131D01*
X25715Y-14154D01*
X25715Y-14177D01*
X25707Y-14211D01*
X25617Y-14349D01*
X25715Y-14349D01*
X25092Y-12971D02*
X25040Y-12856D01*
X25002Y-12971D02*
X25002Y-12730D01*
X25062Y-12730D01*
X25077Y-12742D01*
X25085Y-12753D01*
X25092Y-12776D01*
X25092Y-12810D01*
X25085Y-12833D01*
X25077Y-12845D01*
X25062Y-12856D01*
X25002Y-12856D01*
X25242Y-12971D02*
X25152Y-12971D01*
X25197Y-12971D02*
X25197Y-12730D01*
X25182Y-12764D01*
X25167Y-12787D01*
X25152Y-12799D01*
X30683Y-12279D02*
X30676Y-12291D01*
X30653Y-12302D01*
X30638Y-12302D01*
X30616Y-12291D01*
X30601Y-12268D01*
X30593Y-12245D01*
X30586Y-12199D01*
X30586Y-12164D01*
X30593Y-12118D01*
X30601Y-12095D01*
X30616Y-12073D01*
X30638Y-12061D01*
X30653Y-12061D01*
X30676Y-12073D01*
X30683Y-12084D01*
X30735Y-12061D02*
X30833Y-12061D01*
X30780Y-12153D01*
X30803Y-12153D01*
X30818Y-12164D01*
X30825Y-12176D01*
X30833Y-12199D01*
X30833Y-12256D01*
X30825Y-12279D01*
X30818Y-12291D01*
X30803Y-12302D01*
X30758Y-12302D01*
X30743Y-12291D01*
X30735Y-12279D01*
X28793Y-09838D02*
X28786Y-09850D01*
X28763Y-09861D01*
X28748Y-09861D01*
X28726Y-09850D01*
X28711Y-09827D01*
X28703Y-09804D01*
X28696Y-09758D01*
X28696Y-09723D01*
X28703Y-09677D01*
X28711Y-09654D01*
X28726Y-09632D01*
X28748Y-09620D01*
X28763Y-09620D01*
X28786Y-09632D01*
X28793Y-09643D01*
X28928Y-09700D02*
X28928Y-09861D01*
X28890Y-09609D02*
X28853Y-09781D01*
X28950Y-09781D01*
X24265Y-11097D02*
X24258Y-11109D01*
X24235Y-11120D01*
X24220Y-11120D01*
X24198Y-11109D01*
X24183Y-11086D01*
X24175Y-11063D01*
X24168Y-11017D01*
X24168Y-10982D01*
X24175Y-10936D01*
X24183Y-10913D01*
X24198Y-10891D01*
X24220Y-10879D01*
X24235Y-10879D01*
X24258Y-10891D01*
X24265Y-10902D01*
X24400Y-10879D02*
X24370Y-10879D01*
X24355Y-10891D01*
X24347Y-10902D01*
X24332Y-10936D01*
X24325Y-10982D01*
X24325Y-11074D01*
X24332Y-11097D01*
X24340Y-11109D01*
X24355Y-11120D01*
X24385Y-11120D01*
X24400Y-11109D01*
X24407Y-11097D01*
X24415Y-11074D01*
X24415Y-11017D01*
X24407Y-10994D01*
X24400Y-10982D01*
X24385Y-10971D01*
X24355Y-10971D01*
X24340Y-10982D01*
X24332Y-10994D01*
X24325Y-11017D01*
X26065Y-14073D02*
X26065Y-13832D01*
X26103Y-13832D01*
X26125Y-13844D01*
X26140Y-13866D01*
X26148Y-13889D01*
X26155Y-13935D01*
X26155Y-13970D01*
X26148Y-14016D01*
X26140Y-14039D01*
X26125Y-14062D01*
X26103Y-14073D01*
X26065Y-14073D01*
X26207Y-13832D02*
X26305Y-13832D01*
X26252Y-13924D01*
X26275Y-13924D01*
X26290Y-13935D01*
X26297Y-13947D01*
X26305Y-13970D01*
X26305Y-14027D01*
X26297Y-14050D01*
X26290Y-14062D01*
X26275Y-14073D01*
X26230Y-14073D01*
X26215Y-14062D01*
X26207Y-14050D01*
X25120Y-12341D02*
X25120Y-12100D01*
X25158Y-12100D01*
X25180Y-12112D01*
X25195Y-12134D01*
X25203Y-12157D01*
X25210Y-12203D01*
X25210Y-12238D01*
X25203Y-12284D01*
X25195Y-12307D01*
X25180Y-12330D01*
X25158Y-12341D01*
X25120Y-12341D01*
X25270Y-12123D02*
X25277Y-12112D01*
X25292Y-12100D01*
X25330Y-12100D01*
X25345Y-12112D01*
X25352Y-12123D01*
X25360Y-12146D01*
X25360Y-12169D01*
X25352Y-12203D01*
X25262Y-12341D01*
X25360Y-12341D01*
X25711Y-13128D02*
X25711Y-12887D01*
X25749Y-12887D01*
X25771Y-12899D01*
X25786Y-12921D01*
X25794Y-12944D01*
X25801Y-12990D01*
X25801Y-13025D01*
X25794Y-13071D01*
X25786Y-13094D01*
X25771Y-13117D01*
X25749Y-13128D01*
X25711Y-13128D01*
X25951Y-13128D02*
X25861Y-13128D01*
X25906Y-13128D02*
X25906Y-12887D01*
X25891Y-12921D01*
X25876Y-12944D01*
X25861Y-12956D01*
G54D19*
X23017Y-08230D02*
X23017Y-07836D01*
X23167Y-07836D01*
X23204Y-07855D01*
X23223Y-07874D01*
X23242Y-07912D01*
X23242Y-07968D01*
X23223Y-08005D01*
X23204Y-08024D01*
X23167Y-08043D01*
X23017Y-08043D01*
X23373Y-07836D02*
X23617Y-07836D01*
X23486Y-07987D01*
X23542Y-07987D01*
X23580Y-08005D01*
X23598Y-08024D01*
X23617Y-08062D01*
X23617Y-08155D01*
X23598Y-08193D01*
X23580Y-08212D01*
X23542Y-08230D01*
X23430Y-08230D01*
X23392Y-08212D01*
X23373Y-08193D01*
X29640Y-08804D02*
X29168Y-08804D01*
X29168Y-08701D01*
X29191Y-08639D01*
X29235Y-08598D01*
X29280Y-08577D01*
X29370Y-08556D01*
X29438Y-08556D01*
X29528Y-08577D01*
X29573Y-08598D01*
X29618Y-08639D01*
X29640Y-08701D01*
X29640Y-08804D01*
X29618Y-08392D02*
X29640Y-08330D01*
X29640Y-08227D01*
X29618Y-08185D01*
X29595Y-08165D01*
X29550Y-08144D01*
X29505Y-08144D01*
X29460Y-08165D01*
X29438Y-08185D01*
X29415Y-08227D01*
X29393Y-08309D01*
X29370Y-08350D01*
X29348Y-08371D01*
X29303Y-08392D01*
X29258Y-08392D01*
X29213Y-08371D01*
X29191Y-08350D01*
X29168Y-08309D01*
X29168Y-08206D01*
X29191Y-08144D01*
X29640Y-07959D02*
X29168Y-07959D01*
X29505Y-07815D01*
X29168Y-07670D01*
X29640Y-07670D01*
X29168Y-07505D02*
X29640Y-07216D01*
X29168Y-07216D02*
X29640Y-07505D01*
G54D14*
X27617Y-13232D02*
X27517Y-13232D01*
X27517Y-13389D02*
X27517Y-13089D01*
X27660Y-13089D01*
X27932Y-13389D02*
X27760Y-13389D01*
X27846Y-13389D02*
X27846Y-13089D01*
X27817Y-13132D01*
X27789Y-13161D01*
X27760Y-13175D01*
X25639Y-15007D02*
X25653Y-14993D01*
X25682Y-14978D01*
X25753Y-14978D01*
X25782Y-14993D01*
X25796Y-15007D01*
X25811Y-15036D01*
X25811Y-15064D01*
X25796Y-15107D01*
X25625Y-15278D01*
X25811Y-15278D01*
X26082Y-14978D02*
X25939Y-14978D01*
X25925Y-15121D01*
X25939Y-15107D01*
X25968Y-15093D01*
X26039Y-15093D01*
X26068Y-15107D01*
X26082Y-15121D01*
X26097Y-15150D01*
X26097Y-15221D01*
X26082Y-15250D01*
X26068Y-15264D01*
X26039Y-15278D01*
X25968Y-15278D01*
X25939Y-15264D01*
X25925Y-15250D01*
X26283Y-14978D02*
X26311Y-14978D01*
X26340Y-14993D01*
X26354Y-15007D01*
X26368Y-15036D01*
X26383Y-15093D01*
X26383Y-15164D01*
X26368Y-15221D01*
X26354Y-15250D01*
X26340Y-15264D01*
X26311Y-15278D01*
X26283Y-15278D01*
X26254Y-15264D01*
X26240Y-15250D01*
X26225Y-15221D01*
X26211Y-15164D01*
X26211Y-15093D01*
X26225Y-15036D01*
X26240Y-15007D01*
X26254Y-14993D01*
X26283Y-14978D01*
X26511Y-15278D02*
X26511Y-15078D01*
X26511Y-15107D02*
X26526Y-15093D01*
X26554Y-15078D01*
X26597Y-15078D01*
X26626Y-15093D01*
X26640Y-15121D01*
X26640Y-15278D01*
X26640Y-15121D02*
X26654Y-15093D01*
X26683Y-15078D01*
X26726Y-15078D01*
X26754Y-15093D01*
X26769Y-15121D01*
X26769Y-15278D01*
X26897Y-15193D02*
X27040Y-15193D01*
X26869Y-15278D02*
X26969Y-14978D01*
X27069Y-15278D01*
G54D13*
X26961Y-18572D02*
X26947Y-18600D01*
X26918Y-18629D01*
X26875Y-18672D01*
X26861Y-18700D01*
X26861Y-18729D01*
X26932Y-18714D02*
X26918Y-18743D01*
X26890Y-18772D01*
X26832Y-18786D01*
X26732Y-18786D01*
X26675Y-18772D01*
X26647Y-18743D01*
X26632Y-18714D01*
X26632Y-18657D01*
X26647Y-18629D01*
X26675Y-18600D01*
X26732Y-18586D01*
X26832Y-18586D01*
X26890Y-18600D01*
X26918Y-18629D01*
X26932Y-18657D01*
X26932Y-18714D01*
X26732Y-18329D02*
X26932Y-18329D01*
X26618Y-18400D02*
X26832Y-18472D01*
X26832Y-18286D01*
G54D20*
X26074Y-17443D02*
X26014Y-17348D01*
X25971Y-17443D02*
X25971Y-17243D01*
X26039Y-17243D01*
X26057Y-17252D01*
X26065Y-17262D01*
X26074Y-17281D01*
X26074Y-17310D01*
X26065Y-17329D01*
X26057Y-17338D01*
X26039Y-17348D01*
X25971Y-17348D01*
X26134Y-17243D02*
X26254Y-17243D01*
X26177Y-17443D01*
X30207Y-17561D02*
X30147Y-17466D01*
X30104Y-17561D02*
X30104Y-17361D01*
X30172Y-17361D01*
X30190Y-17370D01*
X30198Y-17380D01*
X30207Y-17399D01*
X30207Y-17428D01*
X30198Y-17447D01*
X30190Y-17456D01*
X30172Y-17466D01*
X30104Y-17466D01*
X30310Y-17447D02*
X30292Y-17437D01*
X30284Y-17428D01*
X30275Y-17409D01*
X30275Y-17399D01*
X30284Y-17380D01*
X30292Y-17370D01*
X30310Y-17361D01*
X30344Y-17361D01*
X30361Y-17370D01*
X30370Y-17380D01*
X30378Y-17399D01*
X30378Y-17409D01*
X30370Y-17428D01*
X30361Y-17437D01*
X30344Y-17447D01*
X30310Y-17447D01*
X30292Y-17456D01*
X30284Y-17466D01*
X30275Y-17485D01*
X30275Y-17523D01*
X30284Y-17542D01*
X30292Y-17551D01*
X30310Y-17561D01*
X30344Y-17561D01*
X30361Y-17551D01*
X30370Y-17542D01*
X30378Y-17523D01*
X30378Y-17485D01*
X30370Y-17466D01*
X30361Y-17456D01*
X30344Y-17447D01*
X30207Y-18309D02*
X30147Y-18214D01*
X30104Y-18309D02*
X30104Y-18109D01*
X30172Y-18109D01*
X30190Y-18118D01*
X30198Y-18128D01*
X30207Y-18147D01*
X30207Y-18176D01*
X30198Y-18195D01*
X30190Y-18204D01*
X30172Y-18214D01*
X30104Y-18214D01*
X30292Y-18309D02*
X30327Y-18309D01*
X30344Y-18299D01*
X30352Y-18290D01*
X30370Y-18261D01*
X30378Y-18223D01*
X30378Y-18147D01*
X30370Y-18128D01*
X30361Y-18118D01*
X30344Y-18109D01*
X30310Y-18109D01*
X30292Y-18118D01*
X30284Y-18128D01*
X30275Y-18147D01*
X30275Y-18195D01*
X30284Y-18214D01*
X30292Y-18223D01*
X30310Y-18233D01*
X30344Y-18233D01*
X30361Y-18223D01*
X30370Y-18214D01*
X30378Y-18195D01*
G54D21*
X33563Y-17130D02*
X33563Y-16730D01*
X33716Y-16730D01*
X33754Y-16749D01*
X33773Y-16768D01*
X33792Y-16806D01*
X33792Y-16863D01*
X33773Y-16901D01*
X33754Y-16920D01*
X33716Y-16939D01*
X33563Y-16939D01*
X33944Y-16768D02*
X33963Y-16749D01*
X34001Y-16730D01*
X34097Y-16730D01*
X34135Y-16749D01*
X34154Y-16768D01*
X34173Y-16806D01*
X34173Y-16844D01*
X34154Y-16901D01*
X33925Y-17130D01*
X34173Y-17130D01*
X33810Y-09810D02*
X33810Y-09927D01*
X34020Y-09927D02*
X33620Y-09927D01*
X33620Y-09760D01*
X34020Y-09627D02*
X33753Y-09627D01*
X33829Y-09627D02*
X33791Y-09610D01*
X33772Y-09593D01*
X33753Y-09560D01*
X33753Y-09527D01*
X33868Y-09410D02*
X33868Y-09143D01*
X34001Y-08993D02*
X34020Y-08943D01*
X34020Y-08860D01*
X34001Y-08827D01*
X33982Y-08810D01*
X33944Y-08793D01*
X33906Y-08793D01*
X33868Y-08810D01*
X33848Y-08827D01*
X33829Y-08860D01*
X33810Y-08927D01*
X33791Y-08960D01*
X33772Y-08977D01*
X33734Y-08993D01*
X33696Y-08993D01*
X33658Y-08977D01*
X33639Y-08960D01*
X33620Y-08927D01*
X33620Y-08843D01*
X33639Y-08793D01*
X34020Y-08644D02*
X33620Y-08644D01*
X33868Y-08610D02*
X34020Y-08510D01*
X33753Y-08510D02*
X33906Y-08644D01*
X33753Y-08394D02*
X34020Y-08311D01*
X33753Y-08227D02*
X34020Y-08311D01*
X34115Y-08344D01*
X34134Y-08361D01*
X34153Y-08394D01*
X22934Y-17878D02*
X22934Y-17478D01*
X23087Y-17478D01*
X23125Y-17497D01*
X23144Y-17516D01*
X23163Y-17554D01*
X23163Y-17611D01*
X23144Y-17649D01*
X23125Y-17668D01*
X23087Y-17687D01*
X22934Y-17687D01*
X23544Y-17878D02*
X23315Y-17878D01*
X23429Y-17878D02*
X23429Y-17478D01*
X23391Y-17535D01*
X23353Y-17573D01*
X23315Y-17592D01*
M02*
