G04 (created by PCBNEW-RS274X (2012-01-19 BZR 3256)-stable) date Wed 26 Sep 2012 04:40:45 PM NZST*
G01*
G70*
G90*
%MOIN*%
G04 Gerber Fmt 3.4, Leading zero omitted, Abs format*
%FSLAX34Y34*%
G04 APERTURE LIST*
%ADD10C,0.006000*%
%ADD11C,0.012000*%
G04 APERTURE END LIST*
G54D10*
G54D11*
X26030Y-22722D02*
X26401Y-22722D01*
X26201Y-23027D01*
X26287Y-23027D01*
X26344Y-23065D01*
X26373Y-23103D01*
X26401Y-23179D01*
X26401Y-23369D01*
X26373Y-23446D01*
X26344Y-23484D01*
X26287Y-23522D01*
X26115Y-23522D01*
X26058Y-23484D01*
X26030Y-23446D01*
X26915Y-22988D02*
X26915Y-23522D01*
X26772Y-22684D02*
X26629Y-23255D01*
X27001Y-23255D01*
X27229Y-23446D02*
X27257Y-23484D01*
X27229Y-23522D01*
X27200Y-23484D01*
X27229Y-23446D01*
X27229Y-23522D01*
X27458Y-22722D02*
X27829Y-22722D01*
X27629Y-23027D01*
X27715Y-23027D01*
X27772Y-23065D01*
X27801Y-23103D01*
X27829Y-23179D01*
X27829Y-23369D01*
X27801Y-23446D01*
X27772Y-23484D01*
X27715Y-23522D01*
X27543Y-23522D01*
X27486Y-23484D01*
X27458Y-23446D01*
X28114Y-23522D02*
X28229Y-23522D01*
X28286Y-23484D01*
X28314Y-23446D01*
X28372Y-23331D01*
X28400Y-23179D01*
X28400Y-22874D01*
X28372Y-22798D01*
X28343Y-22760D01*
X28286Y-22722D01*
X28172Y-22722D01*
X28114Y-22760D01*
X28086Y-22798D01*
X28057Y-22874D01*
X28057Y-23065D01*
X28086Y-23141D01*
X28114Y-23179D01*
X28172Y-23217D01*
X28286Y-23217D01*
X28343Y-23179D01*
X28372Y-23141D01*
X28400Y-23065D01*
X28685Y-23522D02*
X28800Y-23522D01*
X28857Y-23484D01*
X28885Y-23446D01*
X28943Y-23331D01*
X28971Y-23179D01*
X28971Y-22874D01*
X28943Y-22798D01*
X28914Y-22760D01*
X28857Y-22722D01*
X28743Y-22722D01*
X28685Y-22760D01*
X28657Y-22798D01*
X28628Y-22874D01*
X28628Y-23065D01*
X28657Y-23141D01*
X28685Y-23179D01*
X28743Y-23217D01*
X28857Y-23217D01*
X28914Y-23179D01*
X28943Y-23141D01*
X28971Y-23065D01*
X29685Y-23522D02*
X29685Y-22988D01*
X29685Y-23065D02*
X29713Y-23027D01*
X29771Y-22988D01*
X29856Y-22988D01*
X29913Y-23027D01*
X29942Y-23103D01*
X29942Y-23522D01*
X29942Y-23103D02*
X29971Y-23027D01*
X30028Y-22988D01*
X30113Y-22988D01*
X30171Y-23027D01*
X30199Y-23103D01*
X30199Y-23522D01*
X30485Y-23522D02*
X30485Y-22988D01*
X30485Y-23065D02*
X30513Y-23027D01*
X30571Y-22988D01*
X30656Y-22988D01*
X30713Y-23027D01*
X30742Y-23103D01*
X30742Y-23522D01*
X30742Y-23103D02*
X30771Y-23027D01*
X30828Y-22988D01*
X30913Y-22988D01*
X30971Y-23027D01*
X30999Y-23103D01*
X30999Y-23522D01*
X21772Y-22558D02*
X35315Y-22558D01*
X21772Y-21732D02*
X21772Y-23838D01*
X35315Y-21732D02*
X35315Y-23838D01*
X35315Y-22558D02*
X34872Y-22788D01*
X35315Y-22558D02*
X34872Y-22328D01*
X21772Y-22558D02*
X22215Y-22788D01*
X21772Y-22558D02*
X22215Y-22328D01*
X37434Y-11286D02*
X37434Y-11657D01*
X37129Y-11457D01*
X37129Y-11543D01*
X37091Y-11600D01*
X37053Y-11629D01*
X36977Y-11657D01*
X36787Y-11657D01*
X36710Y-11629D01*
X36672Y-11600D01*
X36634Y-11543D01*
X36634Y-11371D01*
X36672Y-11314D01*
X36710Y-11286D01*
X37434Y-12171D02*
X37434Y-12057D01*
X37396Y-12000D01*
X37358Y-11971D01*
X37244Y-11914D01*
X37091Y-11885D01*
X36787Y-11885D01*
X36710Y-11914D01*
X36672Y-11942D01*
X36634Y-12000D01*
X36634Y-12114D01*
X36672Y-12171D01*
X36710Y-12200D01*
X36787Y-12228D01*
X36977Y-12228D01*
X37053Y-12200D01*
X37091Y-12171D01*
X37129Y-12114D01*
X37129Y-12000D01*
X37091Y-11942D01*
X37053Y-11914D01*
X36977Y-11885D01*
X36710Y-12485D02*
X36672Y-12513D01*
X36634Y-12485D01*
X36672Y-12456D01*
X36710Y-12485D01*
X36634Y-12485D01*
X37358Y-12742D02*
X37396Y-12771D01*
X37434Y-12828D01*
X37434Y-12971D01*
X37396Y-13028D01*
X37358Y-13057D01*
X37282Y-13085D01*
X37206Y-13085D01*
X37091Y-13057D01*
X36634Y-12714D01*
X36634Y-13085D01*
X37434Y-13456D02*
X37434Y-13513D01*
X37396Y-13570D01*
X37358Y-13599D01*
X37282Y-13628D01*
X37129Y-13656D01*
X36939Y-13656D01*
X36787Y-13628D01*
X36710Y-13599D01*
X36672Y-13570D01*
X36634Y-13513D01*
X36634Y-13456D01*
X36672Y-13399D01*
X36710Y-13370D01*
X36787Y-13342D01*
X36939Y-13313D01*
X37129Y-13313D01*
X37282Y-13342D01*
X37358Y-13370D01*
X37396Y-13399D01*
X37434Y-13456D01*
X37434Y-14027D02*
X37434Y-14084D01*
X37396Y-14141D01*
X37358Y-14170D01*
X37282Y-14199D01*
X37129Y-14227D01*
X36939Y-14227D01*
X36787Y-14199D01*
X36710Y-14170D01*
X36672Y-14141D01*
X36634Y-14084D01*
X36634Y-14027D01*
X36672Y-13970D01*
X36710Y-13941D01*
X36787Y-13913D01*
X36939Y-13884D01*
X37129Y-13884D01*
X37282Y-13913D01*
X37358Y-13941D01*
X37396Y-13970D01*
X37434Y-14027D01*
X36634Y-14941D02*
X37168Y-14941D01*
X37091Y-14941D02*
X37129Y-14969D01*
X37168Y-15027D01*
X37168Y-15112D01*
X37129Y-15169D01*
X37053Y-15198D01*
X36634Y-15198D01*
X37053Y-15198D02*
X37129Y-15227D01*
X37168Y-15284D01*
X37168Y-15369D01*
X37129Y-15427D01*
X37053Y-15455D01*
X36634Y-15455D01*
X36634Y-15741D02*
X37168Y-15741D01*
X37091Y-15741D02*
X37129Y-15769D01*
X37168Y-15827D01*
X37168Y-15912D01*
X37129Y-15969D01*
X37053Y-15998D01*
X36634Y-15998D01*
X37053Y-15998D02*
X37129Y-16027D01*
X37168Y-16084D01*
X37168Y-16169D01*
X37129Y-16227D01*
X37053Y-16255D01*
X36634Y-16255D01*
X36318Y-06673D02*
X36318Y-20925D01*
X35551Y-06673D02*
X37598Y-06673D01*
X35551Y-20925D02*
X37598Y-20925D01*
X36318Y-20925D02*
X36088Y-20482D01*
X36318Y-20925D02*
X36548Y-20482D01*
X36318Y-06673D02*
X36088Y-07116D01*
X36318Y-06673D02*
X36548Y-07116D01*
M02*
