G04 (created by PCBNEW-RS274X (2012-01-19 BZR 3256)-stable) date 15/03/2012 11:31:39*
G01*
G70*
G90*
%MOIN*%
G04 Gerber Fmt 3.4, Leading zero omitted, Abs format*
%FSLAX34Y34*%
G04 APERTURE LIST*
%ADD10C,0.006000*%
%ADD11R,0.047200X0.027600*%
%ADD12R,0.078700X0.027600*%
%ADD13R,0.110300X0.086600*%
%ADD14R,0.020000X0.045000*%
%ADD15R,0.031500X0.025000*%
%ADD16R,0.025000X0.031500*%
%ADD17R,0.017700X0.078700*%
%ADD18R,0.078700X0.017700*%
%ADD19R,0.060000X0.080000*%
%ADD20R,0.080000X0.060000*%
%ADD21C,0.088600*%
%ADD22O,0.104000X0.052000*%
%ADD23C,0.066000*%
G04 APERTURE END LIST*
G54D10*
G54D11*
X18862Y-27717D03*
G54D12*
X18705Y-27126D03*
G54D11*
X18862Y-26535D03*
G54D13*
X17760Y-27126D03*
G54D14*
X24253Y-17671D03*
X23753Y-17671D03*
X23253Y-17671D03*
X22753Y-17671D03*
X22253Y-17671D03*
X21753Y-17671D03*
X21253Y-17671D03*
X20753Y-17671D03*
X20753Y-19671D03*
X21253Y-19671D03*
X21753Y-19671D03*
X22253Y-19671D03*
X22753Y-19671D03*
X23253Y-19671D03*
X23753Y-19671D03*
X24253Y-19671D03*
G54D15*
X26819Y-19913D03*
X26819Y-20513D03*
G54D16*
X26180Y-26646D03*
X26780Y-26646D03*
X27379Y-27276D03*
X26779Y-27276D03*
G54D15*
X25079Y-18883D03*
X25079Y-18283D03*
G54D17*
X25876Y-21443D03*
X26191Y-21443D03*
X26506Y-21443D03*
X26821Y-21443D03*
X27136Y-21443D03*
X27451Y-21443D03*
X27766Y-21443D03*
X28081Y-21443D03*
X28079Y-25209D03*
X25869Y-25209D03*
X26189Y-25209D03*
X26509Y-25209D03*
X26819Y-25209D03*
X27139Y-25209D03*
X27449Y-25209D03*
X27769Y-25209D03*
G54D18*
X28869Y-22227D03*
X28869Y-22541D03*
X28869Y-22857D03*
X28869Y-23171D03*
X28869Y-23487D03*
X28869Y-23801D03*
X28869Y-24117D03*
X28869Y-24431D03*
X25089Y-22229D03*
X25089Y-22539D03*
X25089Y-22859D03*
X25089Y-23169D03*
X25089Y-23479D03*
X25089Y-23799D03*
X25089Y-24119D03*
X25089Y-24439D03*
G54D19*
X17244Y-23610D03*
X18544Y-23610D03*
X17137Y-28728D03*
X18437Y-28728D03*
G54D15*
X20429Y-25102D03*
X20429Y-25702D03*
X19315Y-28503D03*
X19315Y-29103D03*
X24201Y-16287D03*
X24201Y-16887D03*
X23630Y-16275D03*
X23630Y-16875D03*
X22850Y-16275D03*
X22850Y-16875D03*
X22299Y-16287D03*
X22299Y-16887D03*
X21752Y-16287D03*
X21752Y-16887D03*
X21196Y-16292D03*
X21196Y-16892D03*
X20461Y-16082D03*
X20461Y-16682D03*
X19839Y-16074D03*
X19839Y-16674D03*
X30728Y-24887D03*
X30728Y-24287D03*
X23882Y-25023D03*
X23882Y-25623D03*
X31591Y-24302D03*
X31591Y-24902D03*
G54D20*
X17232Y-16989D03*
X17232Y-15689D03*
X35340Y-12730D03*
X35340Y-14030D03*
G54D21*
X29040Y-25620D03*
X30050Y-26150D03*
G54D16*
X32011Y-19854D03*
X32611Y-19854D03*
G54D15*
X21709Y-24135D03*
X21709Y-23535D03*
G54D22*
X17689Y-21039D03*
X17689Y-22039D03*
X20689Y-22039D03*
X20689Y-21039D03*
G54D23*
X22531Y-24661D03*
X22531Y-25661D03*
G54D11*
X19500Y-25741D03*
G54D12*
X19343Y-25150D03*
G54D11*
X19500Y-24559D03*
G54D13*
X18398Y-25150D03*
M02*
