M48
;DRILL file {Pcbnew (2012-01-19 BZR 3256)-stable} date 15/03/2012 11:32:10
;FORMAT={-:-/ absolute / inch / decimal}
FMAT,2
INCH,TZ
T1C0.020
T2C0.032
T3C0.035
T4C0.040
%
G90
G05
M72
T1
X1.700Y-1.354
X1.717Y-2.783
X1.719Y-1.952
X1.790Y-1.931
X1.798Y-1.775
X1.816Y-1.581
X1.834Y-1.905
X1.906Y-1.706
X1.970Y-1.847
X1.972Y-1.991
X1.982Y-2.623
X1.987Y-1.729
X1.989Y-2.395
X2.019Y-2.790
X2.024Y-2.855
X2.104Y-1.891
X2.155Y-2.303
X2.196Y-2.167
X2.198Y-1.861
X2.232Y-2.079
X2.235Y-2.205
X2.235Y-2.371
X2.283Y-2.048
X2.286Y-2.171
X2.369Y-2.228
X2.378Y-2.718
X2.393Y-2.114
X2.409Y-2.037
X2.436Y-2.675
X2.446Y-3.009
X2.479Y-2.867
X2.509Y-2.652
X2.527Y-1.705
X2.542Y-2.118
X2.569Y-2.606
X2.597Y-2.228
X2.604Y-2.068
X2.623Y-1.218
X2.650Y-2.305
X2.661Y-2.609
X2.678Y-2.872
X2.718Y-2.258
X2.751Y-2.438
X2.764Y-2.393
X2.764Y-2.633
X2.777Y-1.997
X2.805Y-2.351
X2.812Y-2.890
X2.818Y-1.639
X2.829Y-2.604
X2.861Y-2.780
X2.869Y-2.098
X2.915Y-1.639
X2.920Y-2.727
X2.965Y-2.140
X3.016Y-1.639
X3.065Y-1.909
X3.073Y-2.561
X3.075Y-2.290
X3.109Y-1.639
X3.118Y-2.125
X3.144Y-2.169
X3.147Y-2.610
X3.156Y-2.031
X3.157Y-2.224
X3.172Y-2.659
X3.199Y-2.271
X3.204Y-2.543
X3.224Y-2.834
X3.260Y-2.263
X3.276Y-2.385
X3.324Y-2.333
X3.329Y-2.789
X3.430Y-1.911
X3.434Y-2.781
X3.452Y-1.639
X3.526Y-2.923
X3.526Y-1.612
X3.548Y-2.858
T2
X1.769Y-2.104
X1.769Y-2.204
X2.069Y-2.104
X2.069Y-2.204
X2.253Y-2.466
X2.253Y-2.566
X2.667Y-1.497
X2.667Y-1.797
X2.767Y-1.497
X2.767Y-1.797
X2.867Y-1.497
X2.867Y-1.797
X2.967Y-1.497
X2.967Y-1.797
X3.067Y-1.497
X3.067Y-1.797
X3.167Y-1.497
X3.167Y-1.797
X3.267Y-1.497
X3.267Y-1.797
X3.367Y-1.497
X3.367Y-1.797
X3.467Y-1.497
X3.467Y-1.797
T3
X2.117Y-2.807
X2.117Y-3.007
X2.217Y-2.807
X2.317Y-2.807
X2.317Y-3.007
X2.944Y-2.807
X2.944Y-3.007
X3.044Y-2.807
X3.144Y-2.807
X3.144Y-3.007
T4
X1.730Y-3.006
X1.813Y-1.216
X1.813Y-1.316
X1.813Y-1.416
X1.830Y-3.006
X1.913Y-1.216
X1.913Y-1.316
X1.913Y-1.416
X1.930Y-3.006
X2.013Y-1.216
X2.013Y-1.316
X2.013Y-1.416
X2.113Y-1.216
X2.113Y-1.316
X2.113Y-1.416
X2.213Y-1.216
X2.213Y-1.316
X2.213Y-1.416
X2.313Y-1.216
X2.313Y-1.316
X2.313Y-1.416
X2.413Y-1.216
X2.413Y-1.316
X2.413Y-1.416
X2.513Y-1.216
X2.513Y-1.316
X2.513Y-1.416
X2.550Y-3.009
X2.650Y-3.009
X2.722Y-1.218
X2.722Y-1.318
X2.750Y-3.009
X2.822Y-1.218
X2.822Y-1.318
X2.922Y-1.218
X2.922Y-1.318
X3.022Y-1.218
X3.022Y-1.318
X3.122Y-1.218
X3.122Y-1.318
X3.222Y-1.218
X3.222Y-1.318
X3.322Y-1.218
X3.322Y-1.318
X3.327Y-3.006
X3.349Y-2.476
X3.349Y-2.576
X3.349Y-2.676
X3.422Y-1.218
X3.422Y-1.318
X3.427Y-3.006
X3.449Y-2.476
X3.449Y-2.576
X3.449Y-2.676
X3.449Y-2.007
X3.449Y-2.107
X3.449Y-2.207
X3.449Y-2.307
X3.527Y-3.006
T0
M30
