G04 (created by PCBNEW-RS274X (2012-01-19 BZR 3256)-stable) date 15/03/2012 11:31:39*
G01*
G70*
G90*
%MOIN*%
G04 Gerber Fmt 3.4, Leading zero omitted, Abs format*
%FSLAX34Y34*%
G04 APERTURE LIST*
%ADD10C,0.006000*%
%ADD11C,0.009800*%
%ADD12C,0.007500*%
%ADD13C,0.008000*%
%ADD14C,0.005000*%
%ADD15C,0.015000*%
%ADD16C,0.007900*%
%ADD17C,0.012000*%
%ADD18C,0.010000*%
%ADD19C,0.011800*%
%ADD20C,0.015700*%
%ADD21C,0.002600*%
%ADD22C,0.003900*%
%ADD23C,0.003500*%
G04 APERTURE END LIST*
G54D10*
G54D11*
X33609Y-23483D02*
X33609Y-23123D01*
X33789Y-22269D02*
X33564Y-22426D01*
X33789Y-22539D02*
X33317Y-22539D01*
X33317Y-22359D01*
X33340Y-22314D01*
X33362Y-22291D01*
X33407Y-22269D01*
X33474Y-22269D01*
X33519Y-22291D01*
X33542Y-22314D01*
X33564Y-22359D01*
X33564Y-22539D01*
X33789Y-22112D02*
X33474Y-21864D01*
X33474Y-22112D02*
X33789Y-21864D01*
X33317Y-21392D02*
X33317Y-21122D01*
X33789Y-21257D02*
X33317Y-21257D01*
X33789Y-21010D02*
X33474Y-20762D01*
X33474Y-21010D02*
X33789Y-20762D01*
X33609Y-20223D02*
X33609Y-19863D01*
X33789Y-20043D02*
X33429Y-20043D01*
X33155Y-29224D02*
X33515Y-29224D01*
X34099Y-29224D02*
X34459Y-29224D01*
X34279Y-29404D02*
X34279Y-29044D01*
X17128Y-29228D02*
X17488Y-29228D01*
X18072Y-29228D02*
X18432Y-29228D01*
X18252Y-29408D02*
X18252Y-29048D01*
X25172Y-29125D02*
X25532Y-29125D01*
X26116Y-29125D02*
X26476Y-29125D01*
X26296Y-29305D02*
X26296Y-28945D01*
X27038Y-29283D02*
X27105Y-29305D01*
X27218Y-29305D01*
X27263Y-29283D01*
X27285Y-29260D01*
X27308Y-29215D01*
X27308Y-29170D01*
X27285Y-29125D01*
X27263Y-29103D01*
X27218Y-29080D01*
X27128Y-29058D01*
X27083Y-29035D01*
X27060Y-29013D01*
X27038Y-28968D01*
X27038Y-28923D01*
X27060Y-28878D01*
X27083Y-28856D01*
X27128Y-28833D01*
X27240Y-28833D01*
X27308Y-28856D01*
X27510Y-29305D02*
X27510Y-28990D01*
X27510Y-28833D02*
X27488Y-28856D01*
X27510Y-28878D01*
X27533Y-28856D01*
X27510Y-28833D01*
X27510Y-28878D01*
X27938Y-28990D02*
X27938Y-29372D01*
X27915Y-29417D01*
X27893Y-29440D01*
X27848Y-29462D01*
X27780Y-29462D01*
X27735Y-29440D01*
X27938Y-29283D02*
X27893Y-29305D01*
X27803Y-29305D01*
X27758Y-29283D01*
X27735Y-29260D01*
X27713Y-29215D01*
X27713Y-29080D01*
X27735Y-29035D01*
X27758Y-29013D01*
X27803Y-28990D01*
X27893Y-28990D01*
X27938Y-29013D01*
X25433Y-28317D02*
X25276Y-28092D01*
X25163Y-28317D02*
X25163Y-27845D01*
X25343Y-27845D01*
X25388Y-27868D01*
X25411Y-27890D01*
X25433Y-27935D01*
X25433Y-28002D01*
X25411Y-28047D01*
X25388Y-28070D01*
X25343Y-28092D01*
X25163Y-28092D01*
X25815Y-28295D02*
X25770Y-28317D01*
X25680Y-28317D01*
X25635Y-28295D01*
X25613Y-28250D01*
X25613Y-28070D01*
X25635Y-28025D01*
X25680Y-28002D01*
X25770Y-28002D01*
X25815Y-28025D01*
X25838Y-28070D01*
X25838Y-28115D01*
X25613Y-28160D01*
X26243Y-28295D02*
X26198Y-28317D01*
X26108Y-28317D01*
X26063Y-28295D01*
X26040Y-28272D01*
X26018Y-28227D01*
X26018Y-28092D01*
X26040Y-28047D01*
X26063Y-28025D01*
X26108Y-28002D01*
X26198Y-28002D01*
X26243Y-28025D01*
X26625Y-28295D02*
X26580Y-28317D01*
X26490Y-28317D01*
X26445Y-28295D01*
X26423Y-28250D01*
X26423Y-28070D01*
X26445Y-28025D01*
X26490Y-28002D01*
X26580Y-28002D01*
X26625Y-28025D01*
X26648Y-28070D01*
X26648Y-28115D01*
X26423Y-28160D01*
X26850Y-28317D02*
X26850Y-28002D01*
X26850Y-27845D02*
X26828Y-27868D01*
X26850Y-27890D01*
X26873Y-27868D01*
X26850Y-27845D01*
X26850Y-27890D01*
X27030Y-28002D02*
X27143Y-28317D01*
X27255Y-28002D01*
X27615Y-28295D02*
X27570Y-28317D01*
X27480Y-28317D01*
X27435Y-28295D01*
X27413Y-28250D01*
X27413Y-28070D01*
X27435Y-28025D01*
X27480Y-28002D01*
X27570Y-28002D01*
X27615Y-28025D01*
X27638Y-28070D01*
X27638Y-28115D01*
X27413Y-28160D01*
X27840Y-28317D02*
X27840Y-28002D01*
X27840Y-28092D02*
X27863Y-28047D01*
X27885Y-28025D01*
X27930Y-28002D01*
X27975Y-28002D01*
X33039Y-22346D02*
X33061Y-22279D01*
X33061Y-22166D01*
X33039Y-22121D01*
X33016Y-22099D01*
X32971Y-22076D01*
X32926Y-22076D01*
X32881Y-22099D01*
X32859Y-22121D01*
X32836Y-22166D01*
X32814Y-22256D01*
X32791Y-22301D01*
X32769Y-22324D01*
X32724Y-22346D01*
X32679Y-22346D01*
X32634Y-22324D01*
X32612Y-22301D01*
X32589Y-22256D01*
X32589Y-22144D01*
X32612Y-22076D01*
X33039Y-21694D02*
X33061Y-21739D01*
X33061Y-21829D01*
X33039Y-21874D01*
X32994Y-21896D01*
X32814Y-21896D01*
X32769Y-21874D01*
X32746Y-21829D01*
X32746Y-21739D01*
X32769Y-21694D01*
X32814Y-21671D01*
X32859Y-21671D01*
X32904Y-21896D01*
X33061Y-21469D02*
X32746Y-21469D01*
X32836Y-21469D02*
X32791Y-21446D01*
X32769Y-21424D01*
X32746Y-21379D01*
X32746Y-21334D01*
X33061Y-21177D02*
X32746Y-21177D01*
X32589Y-21177D02*
X32612Y-21199D01*
X32634Y-21177D01*
X32612Y-21154D01*
X32589Y-21177D01*
X32634Y-21177D01*
X33061Y-20749D02*
X32814Y-20749D01*
X32769Y-20772D01*
X32746Y-20817D01*
X32746Y-20907D01*
X32769Y-20952D01*
X33039Y-20749D02*
X33061Y-20794D01*
X33061Y-20907D01*
X33039Y-20952D01*
X32994Y-20974D01*
X32949Y-20974D01*
X32904Y-20952D01*
X32881Y-20907D01*
X32881Y-20794D01*
X32859Y-20749D01*
X33061Y-20457D02*
X33039Y-20502D01*
X32994Y-20525D01*
X32589Y-20525D01*
X32837Y-26681D02*
X32365Y-26681D01*
X32815Y-26478D02*
X32837Y-26411D01*
X32837Y-26298D01*
X32815Y-26253D01*
X32792Y-26231D01*
X32747Y-26208D01*
X32702Y-26208D01*
X32657Y-26231D01*
X32635Y-26253D01*
X32612Y-26298D01*
X32590Y-26388D01*
X32567Y-26433D01*
X32545Y-26456D01*
X32500Y-26478D01*
X32455Y-26478D01*
X32410Y-26456D01*
X32388Y-26433D01*
X32365Y-26388D01*
X32365Y-26276D01*
X32388Y-26208D01*
X32837Y-26006D02*
X32365Y-26006D01*
X32365Y-25826D01*
X32388Y-25781D01*
X32410Y-25758D01*
X32455Y-25736D01*
X32522Y-25736D01*
X32567Y-25758D01*
X32590Y-25781D01*
X32612Y-25826D01*
X32612Y-26006D01*
X35084Y-27789D02*
X34814Y-27789D01*
X34949Y-27789D02*
X34949Y-27317D01*
X34904Y-27384D01*
X34859Y-27429D01*
X34814Y-27452D01*
X35119Y-13035D02*
X35479Y-13035D01*
X35100Y-12035D02*
X35460Y-12035D01*
X35280Y-12215D02*
X35280Y-11855D01*
X16708Y-12216D02*
X16775Y-12238D01*
X16888Y-12238D01*
X16933Y-12216D01*
X16955Y-12193D01*
X16978Y-12148D01*
X16978Y-12103D01*
X16955Y-12058D01*
X16933Y-12036D01*
X16888Y-12013D01*
X16798Y-11991D01*
X16753Y-11968D01*
X16730Y-11946D01*
X16708Y-11901D01*
X16708Y-11856D01*
X16730Y-11811D01*
X16753Y-11789D01*
X16798Y-11766D01*
X16910Y-11766D01*
X16978Y-11789D01*
X17180Y-12238D02*
X17180Y-11923D01*
X17180Y-11766D02*
X17158Y-11789D01*
X17180Y-11811D01*
X17203Y-11789D01*
X17180Y-11766D01*
X17180Y-11811D01*
X17608Y-11923D02*
X17608Y-12305D01*
X17585Y-12350D01*
X17563Y-12373D01*
X17518Y-12395D01*
X17450Y-12395D01*
X17405Y-12373D01*
X17608Y-12216D02*
X17563Y-12238D01*
X17473Y-12238D01*
X17428Y-12216D01*
X17405Y-12193D01*
X17383Y-12148D01*
X17383Y-12013D01*
X17405Y-11968D01*
X17428Y-11946D01*
X17473Y-11923D01*
X17563Y-11923D01*
X17608Y-11946D01*
X17192Y-13007D02*
X16832Y-13007D01*
X17012Y-13187D02*
X17012Y-12827D01*
X17259Y-14208D02*
X16899Y-14208D01*
G54D12*
X18626Y-26339D02*
X18626Y-26220D01*
X18626Y-26969D02*
X18626Y-26732D01*
X18626Y-27520D02*
X18626Y-27323D01*
X18626Y-28032D02*
X18626Y-27913D01*
X17602Y-27598D02*
X17602Y-28032D01*
X17602Y-26654D02*
X17602Y-26220D01*
X18626Y-26220D02*
X17602Y-26220D01*
X17602Y-28032D02*
X18626Y-28032D01*
G54D13*
X24653Y-19371D02*
X20353Y-19371D01*
X20353Y-19371D02*
X20353Y-17971D01*
X20353Y-17971D02*
X24653Y-17971D01*
X24653Y-17971D02*
X24653Y-19371D01*
X24653Y-18871D02*
X24353Y-18871D01*
X24353Y-18871D02*
X24353Y-18471D01*
X24353Y-18471D02*
X24653Y-18471D01*
G54D14*
X26583Y-19701D02*
X26583Y-20705D01*
X27055Y-20725D02*
X27055Y-19701D01*
X27055Y-19701D02*
X26583Y-19701D01*
X27051Y-20714D02*
X26591Y-20714D01*
X25968Y-26882D02*
X26972Y-26882D01*
X26992Y-26410D02*
X25968Y-26410D01*
X25968Y-26410D02*
X25968Y-26882D01*
X26981Y-26414D02*
X26981Y-26874D01*
X27591Y-27040D02*
X26587Y-27040D01*
X26567Y-27512D02*
X27591Y-27512D01*
X27591Y-27512D02*
X27591Y-27040D01*
X26578Y-27508D02*
X26578Y-27048D01*
X25315Y-19095D02*
X25315Y-18091D01*
X24843Y-18071D02*
X24843Y-19095D01*
X24843Y-19095D02*
X25315Y-19095D01*
X24847Y-18082D02*
X25307Y-18082D01*
G54D15*
X25665Y-15969D02*
X26165Y-15969D01*
X26165Y-15969D02*
X26165Y-16969D01*
X26165Y-16969D02*
X25665Y-16969D01*
X25665Y-15469D02*
X35665Y-15469D01*
X35665Y-15469D02*
X35665Y-17469D01*
X35665Y-17469D02*
X25665Y-17469D01*
X25665Y-17469D02*
X25665Y-15469D01*
G54D10*
X25879Y-25319D02*
X25879Y-24869D01*
X28059Y-25319D02*
X28059Y-24879D01*
X25879Y-25319D02*
X28059Y-25319D01*
X25409Y-24439D02*
X24979Y-24439D01*
X25399Y-22229D02*
X24979Y-22229D01*
X24979Y-22219D02*
X24969Y-24439D01*
X28949Y-22239D02*
X28959Y-24409D01*
X28259Y-21809D02*
X25429Y-21809D01*
X28949Y-24419D02*
X28539Y-24419D01*
X28499Y-22059D02*
X28499Y-24839D01*
X25419Y-24859D02*
X28459Y-24859D01*
X25419Y-21809D02*
X25419Y-24809D01*
X28089Y-21359D02*
X25869Y-21359D01*
X25869Y-21359D02*
X25869Y-21809D01*
X28269Y-21813D02*
X28499Y-22043D01*
X28089Y-21361D02*
X28089Y-21813D01*
X28499Y-22239D02*
X28951Y-22239D01*
X28283Y-22221D02*
X28279Y-22257D01*
X28268Y-22292D01*
X28251Y-22325D01*
X28228Y-22353D01*
X28200Y-22376D01*
X28167Y-22394D01*
X28132Y-22405D01*
X28096Y-22408D01*
X28060Y-22405D01*
X28025Y-22395D01*
X27993Y-22378D01*
X27964Y-22355D01*
X27940Y-22327D01*
X27923Y-22295D01*
X27912Y-22260D01*
X27908Y-22223D01*
X27911Y-22188D01*
X27921Y-22152D01*
X27937Y-22120D01*
X27960Y-22091D01*
X27988Y-22067D01*
X28020Y-22049D01*
X28055Y-22038D01*
X28092Y-22034D01*
X28127Y-22036D01*
X28162Y-22046D01*
X28195Y-22063D01*
X28224Y-22085D01*
X28248Y-22113D01*
X28266Y-22145D01*
X28278Y-22180D01*
X28282Y-22216D01*
X28283Y-22221D01*
G54D14*
X18964Y-22970D02*
X18964Y-23210D01*
X19084Y-23090D02*
X18834Y-23090D01*
X16894Y-23160D02*
X16894Y-24060D01*
X16894Y-24060D02*
X17544Y-24060D01*
X18244Y-23160D02*
X18894Y-23160D01*
X18894Y-23160D02*
X18894Y-24060D01*
X18894Y-24060D02*
X18244Y-24060D01*
X17544Y-23160D02*
X16894Y-23160D01*
X18857Y-28088D02*
X18857Y-28328D01*
X18977Y-28208D02*
X18727Y-28208D01*
X16787Y-28278D02*
X16787Y-29178D01*
X16787Y-29178D02*
X17437Y-29178D01*
X18137Y-28278D02*
X18787Y-28278D01*
X18787Y-28278D02*
X18787Y-29178D01*
X18787Y-29178D02*
X18137Y-29178D01*
X17437Y-28278D02*
X16787Y-28278D01*
X20193Y-24890D02*
X20193Y-25894D01*
X20665Y-25914D02*
X20665Y-24890D01*
X20665Y-24890D02*
X20193Y-24890D01*
X20661Y-25903D02*
X20201Y-25903D01*
X19079Y-28291D02*
X19079Y-29295D01*
X19551Y-29315D02*
X19551Y-28291D01*
X19551Y-28291D02*
X19079Y-28291D01*
X19547Y-29304D02*
X19087Y-29304D01*
X23965Y-16075D02*
X23965Y-17079D01*
X24437Y-17099D02*
X24437Y-16075D01*
X24437Y-16075D02*
X23965Y-16075D01*
X24433Y-17088D02*
X23973Y-17088D01*
X23394Y-16063D02*
X23394Y-17067D01*
X23866Y-17087D02*
X23866Y-16063D01*
X23866Y-16063D02*
X23394Y-16063D01*
X23862Y-17076D02*
X23402Y-17076D01*
X22614Y-16063D02*
X22614Y-17067D01*
X23086Y-17087D02*
X23086Y-16063D01*
X23086Y-16063D02*
X22614Y-16063D01*
X23082Y-17076D02*
X22622Y-17076D01*
X22063Y-16075D02*
X22063Y-17079D01*
X22535Y-17099D02*
X22535Y-16075D01*
X22535Y-16075D02*
X22063Y-16075D01*
X22531Y-17088D02*
X22071Y-17088D01*
X21516Y-16075D02*
X21516Y-17079D01*
X21988Y-17099D02*
X21988Y-16075D01*
X21988Y-16075D02*
X21516Y-16075D01*
X21984Y-17088D02*
X21524Y-17088D01*
X20960Y-16080D02*
X20960Y-17084D01*
X21432Y-17104D02*
X21432Y-16080D01*
X21432Y-16080D02*
X20960Y-16080D01*
X21428Y-17093D02*
X20968Y-17093D01*
X20225Y-15870D02*
X20225Y-16874D01*
X20697Y-16894D02*
X20697Y-15870D01*
X20697Y-15870D02*
X20225Y-15870D01*
X20693Y-16883D02*
X20233Y-16883D01*
X19603Y-15862D02*
X19603Y-16866D01*
X20075Y-16886D02*
X20075Y-15862D01*
X20075Y-15862D02*
X19603Y-15862D01*
X20071Y-16875D02*
X19611Y-16875D01*
X30964Y-25099D02*
X30964Y-24095D01*
X30492Y-24075D02*
X30492Y-25099D01*
X30492Y-25099D02*
X30964Y-25099D01*
X30496Y-24086D02*
X30956Y-24086D01*
X23646Y-24811D02*
X23646Y-25815D01*
X24118Y-25835D02*
X24118Y-24811D01*
X24118Y-24811D02*
X23646Y-24811D01*
X24114Y-25824D02*
X23654Y-25824D01*
X31355Y-24090D02*
X31355Y-25094D01*
X31827Y-25114D02*
X31827Y-24090D01*
X31827Y-24090D02*
X31355Y-24090D01*
X31823Y-25103D02*
X31363Y-25103D01*
G54D13*
X34988Y-24256D02*
X34988Y-27256D01*
X32988Y-27256D02*
X32988Y-24256D01*
X32988Y-24256D02*
X34988Y-24256D01*
X34988Y-27256D02*
X32988Y-27256D01*
G54D16*
X32772Y-29555D02*
X32772Y-30555D01*
X35772Y-30555D02*
X35772Y-29555D01*
G54D13*
X35772Y-30555D02*
X32772Y-30555D01*
X32772Y-29555D02*
X35772Y-29555D01*
G54D16*
X16803Y-29555D02*
X16803Y-30555D01*
X19803Y-30555D02*
X19803Y-29555D01*
G54D13*
X19803Y-30555D02*
X16803Y-30555D01*
X16803Y-29555D02*
X19803Y-29555D01*
G54D16*
X25000Y-29591D02*
X25000Y-30591D01*
X28000Y-30591D02*
X28000Y-29591D01*
G54D13*
X28000Y-30591D02*
X25000Y-30591D01*
X25000Y-29591D02*
X28000Y-29591D01*
G54D17*
X25530Y-14561D02*
X17730Y-14561D01*
X25530Y-12761D02*
X25530Y-14561D01*
X17730Y-14561D02*
X17730Y-12761D01*
X17730Y-13561D02*
X17730Y-11761D01*
X17730Y-11761D02*
X25530Y-11761D01*
X25530Y-11761D02*
X25530Y-13561D01*
X26820Y-13581D02*
X26820Y-11781D01*
X26820Y-11781D02*
X34620Y-11781D01*
X34620Y-11781D02*
X34620Y-13581D01*
X34620Y-13581D02*
X26820Y-13581D01*
G54D14*
X16782Y-17339D02*
X17682Y-17339D01*
X17682Y-17339D02*
X17682Y-16689D01*
X16782Y-15989D02*
X16782Y-15339D01*
X16782Y-15339D02*
X17682Y-15339D01*
X17682Y-15339D02*
X17682Y-15989D01*
X16782Y-16689D02*
X16782Y-17339D01*
X35790Y-12380D02*
X34890Y-12380D01*
X34890Y-12380D02*
X34890Y-13030D01*
X35790Y-13730D02*
X35790Y-14380D01*
X35790Y-14380D02*
X34890Y-14380D01*
X34890Y-14380D02*
X34890Y-13730D01*
X35790Y-13030D02*
X35790Y-12380D01*
G54D18*
X33990Y-23570D02*
X33990Y-19570D01*
X34990Y-23570D02*
X34990Y-19570D01*
X34990Y-19570D02*
X33990Y-19570D01*
X33990Y-23570D02*
X34990Y-23570D01*
G54D14*
X29569Y-25620D02*
X29558Y-25722D01*
X29529Y-25821D01*
X29480Y-25912D01*
X29415Y-25992D01*
X29335Y-26058D01*
X29244Y-26107D01*
X29146Y-26138D01*
X29043Y-26148D01*
X28941Y-26139D01*
X28842Y-26110D01*
X28751Y-26062D01*
X28670Y-25997D01*
X28604Y-25918D01*
X28554Y-25828D01*
X28523Y-25729D01*
X28512Y-25627D01*
X28520Y-25525D01*
X28549Y-25426D01*
X28596Y-25334D01*
X28660Y-25253D01*
X28739Y-25186D01*
X28829Y-25136D01*
X28927Y-25104D01*
X29029Y-25092D01*
X29131Y-25100D01*
X29231Y-25127D01*
X29323Y-25174D01*
X29404Y-25237D01*
X29472Y-25316D01*
X29523Y-25405D01*
X29555Y-25503D01*
X29568Y-25606D01*
X29569Y-25620D01*
X30579Y-26150D02*
X30568Y-26252D01*
X30539Y-26351D01*
X30490Y-26442D01*
X30425Y-26522D01*
X30345Y-26588D01*
X30254Y-26637D01*
X30156Y-26668D01*
X30053Y-26678D01*
X29951Y-26669D01*
X29852Y-26640D01*
X29761Y-26592D01*
X29680Y-26527D01*
X29614Y-26448D01*
X29564Y-26358D01*
X29533Y-26259D01*
X29522Y-26157D01*
X29530Y-26055D01*
X29559Y-25956D01*
X29606Y-25864D01*
X29670Y-25783D01*
X29749Y-25716D01*
X29839Y-25666D01*
X29937Y-25634D01*
X30039Y-25622D01*
X30141Y-25630D01*
X30241Y-25657D01*
X30333Y-25704D01*
X30414Y-25767D01*
X30482Y-25846D01*
X30533Y-25935D01*
X30565Y-26033D01*
X30578Y-26136D01*
X30579Y-26150D01*
X31799Y-20090D02*
X32803Y-20090D01*
X32823Y-19618D02*
X31799Y-19618D01*
X31799Y-19618D02*
X31799Y-20090D01*
X32812Y-19622D02*
X32812Y-20082D01*
G54D19*
X32060Y-30630D02*
X32060Y-28750D01*
X28820Y-30630D02*
X32060Y-30630D01*
X28820Y-28760D02*
X28820Y-30630D01*
X32060Y-28750D02*
X28820Y-28760D01*
G54D16*
X30281Y-29300D02*
X30275Y-29356D01*
X30259Y-29410D01*
X30232Y-29461D01*
X30196Y-29505D01*
X30152Y-29541D01*
X30102Y-29568D01*
X30048Y-29585D01*
X29992Y-29590D01*
X29936Y-29585D01*
X29881Y-29569D01*
X29831Y-29543D01*
X29787Y-29507D01*
X29750Y-29464D01*
X29723Y-29414D01*
X29706Y-29360D01*
X29700Y-29304D01*
X29704Y-29248D01*
X29720Y-29193D01*
X29746Y-29143D01*
X29781Y-29098D01*
X29824Y-29062D01*
X29874Y-29034D01*
X29928Y-29016D01*
X29984Y-29010D01*
X30040Y-29014D01*
X30095Y-29029D01*
X30145Y-29055D01*
X30190Y-29090D01*
X30227Y-29133D01*
X30255Y-29182D01*
X30273Y-29236D01*
X30280Y-29292D01*
X30281Y-29300D01*
X30000Y-29430D02*
X31020Y-29520D01*
X31021Y-29519D02*
X31039Y-29519D01*
X31058Y-29518D01*
X31077Y-29514D01*
X31095Y-29509D01*
X31113Y-29503D01*
X31131Y-29495D01*
X31147Y-29485D01*
X31163Y-29474D01*
X31178Y-29462D01*
X31191Y-29448D01*
X31204Y-29434D01*
X31215Y-29418D01*
X31224Y-29401D01*
X31233Y-29384D01*
X31239Y-29366D01*
X31244Y-29347D01*
X31248Y-29329D01*
X31249Y-29309D01*
X31249Y-29299D02*
X31249Y-29281D01*
X31248Y-29262D01*
X31244Y-29243D01*
X31239Y-29225D01*
X31233Y-29207D01*
X31225Y-29189D01*
X31215Y-29173D01*
X31204Y-29157D01*
X31192Y-29142D01*
X31178Y-29129D01*
X31164Y-29116D01*
X31148Y-29105D01*
X31131Y-29096D01*
X31114Y-29087D01*
X31096Y-29081D01*
X31077Y-29076D01*
X31059Y-29072D01*
X31039Y-29071D01*
X29990Y-29170D02*
X29979Y-29171D01*
X29968Y-29172D01*
X29957Y-29175D01*
X29946Y-29178D01*
X29936Y-29183D01*
X29926Y-29188D01*
X29916Y-29194D01*
X29907Y-29201D01*
X29899Y-29209D01*
X29891Y-29217D01*
X29884Y-29226D01*
X29878Y-29235D01*
X29873Y-29246D01*
X29868Y-29256D01*
X29865Y-29267D01*
X29862Y-29278D01*
X29861Y-29289D01*
X29860Y-29300D01*
X29861Y-29309D02*
X29862Y-29321D01*
X29865Y-29332D01*
X29868Y-29343D01*
X29872Y-29353D01*
X29877Y-29363D01*
X29883Y-29373D01*
X29890Y-29382D01*
X29898Y-29390D01*
X29906Y-29398D01*
X29915Y-29405D01*
X29924Y-29411D01*
X29934Y-29417D01*
X29945Y-29421D01*
X29956Y-29425D01*
X29967Y-29427D01*
X29978Y-29429D01*
X29989Y-29429D01*
X29999Y-29429D01*
X30000Y-29170D02*
X31030Y-29070D01*
G54D20*
X31310Y-28560D02*
X31310Y-28750D01*
X31530Y-28560D02*
X31530Y-28750D01*
X30540Y-28570D02*
X30340Y-28570D01*
X30340Y-28570D02*
X30340Y-28750D01*
X30540Y-28570D02*
X30540Y-28750D01*
X29340Y-28560D02*
X29340Y-28750D01*
X29550Y-28560D02*
X29550Y-28750D01*
X29540Y-28560D02*
X29340Y-28560D01*
X31530Y-28560D02*
X31310Y-28560D01*
G54D19*
X23790Y-30630D02*
X23790Y-28750D01*
X20550Y-30630D02*
X23790Y-30630D01*
X20550Y-28760D02*
X20550Y-30630D01*
X23790Y-28750D02*
X20550Y-28760D01*
G54D16*
X22011Y-29300D02*
X22005Y-29356D01*
X21989Y-29410D01*
X21962Y-29461D01*
X21926Y-29505D01*
X21882Y-29541D01*
X21832Y-29568D01*
X21778Y-29585D01*
X21722Y-29590D01*
X21666Y-29585D01*
X21611Y-29569D01*
X21561Y-29543D01*
X21517Y-29507D01*
X21480Y-29464D01*
X21453Y-29414D01*
X21436Y-29360D01*
X21430Y-29304D01*
X21434Y-29248D01*
X21450Y-29193D01*
X21476Y-29143D01*
X21511Y-29098D01*
X21554Y-29062D01*
X21604Y-29034D01*
X21658Y-29016D01*
X21714Y-29010D01*
X21770Y-29014D01*
X21825Y-29029D01*
X21875Y-29055D01*
X21920Y-29090D01*
X21957Y-29133D01*
X21985Y-29182D01*
X22003Y-29236D01*
X22010Y-29292D01*
X22011Y-29300D01*
X21730Y-29430D02*
X22750Y-29520D01*
X22751Y-29519D02*
X22769Y-29519D01*
X22788Y-29518D01*
X22807Y-29514D01*
X22825Y-29509D01*
X22843Y-29503D01*
X22861Y-29495D01*
X22877Y-29485D01*
X22893Y-29474D01*
X22908Y-29462D01*
X22921Y-29448D01*
X22934Y-29434D01*
X22945Y-29418D01*
X22954Y-29401D01*
X22963Y-29384D01*
X22969Y-29366D01*
X22974Y-29347D01*
X22978Y-29329D01*
X22979Y-29309D01*
X22979Y-29299D02*
X22979Y-29281D01*
X22978Y-29262D01*
X22974Y-29243D01*
X22969Y-29225D01*
X22963Y-29207D01*
X22955Y-29189D01*
X22945Y-29173D01*
X22934Y-29157D01*
X22922Y-29142D01*
X22908Y-29129D01*
X22894Y-29116D01*
X22878Y-29105D01*
X22861Y-29096D01*
X22844Y-29087D01*
X22826Y-29081D01*
X22807Y-29076D01*
X22789Y-29072D01*
X22769Y-29071D01*
X21720Y-29170D02*
X21709Y-29171D01*
X21698Y-29172D01*
X21687Y-29175D01*
X21676Y-29178D01*
X21666Y-29183D01*
X21656Y-29188D01*
X21646Y-29194D01*
X21637Y-29201D01*
X21629Y-29209D01*
X21621Y-29217D01*
X21614Y-29226D01*
X21608Y-29235D01*
X21603Y-29246D01*
X21598Y-29256D01*
X21595Y-29267D01*
X21592Y-29278D01*
X21591Y-29289D01*
X21590Y-29300D01*
X21591Y-29309D02*
X21592Y-29321D01*
X21595Y-29332D01*
X21598Y-29343D01*
X21602Y-29353D01*
X21607Y-29363D01*
X21613Y-29373D01*
X21620Y-29382D01*
X21628Y-29390D01*
X21636Y-29398D01*
X21645Y-29405D01*
X21654Y-29411D01*
X21664Y-29417D01*
X21675Y-29421D01*
X21686Y-29425D01*
X21697Y-29427D01*
X21708Y-29429D01*
X21719Y-29429D01*
X21729Y-29429D01*
X21730Y-29170D02*
X22760Y-29070D01*
G54D20*
X23040Y-28560D02*
X23040Y-28750D01*
X23260Y-28560D02*
X23260Y-28750D01*
X22270Y-28570D02*
X22070Y-28570D01*
X22070Y-28570D02*
X22070Y-28750D01*
X22270Y-28570D02*
X22270Y-28750D01*
X21070Y-28560D02*
X21070Y-28750D01*
X21280Y-28560D02*
X21280Y-28750D01*
X21270Y-28560D02*
X21070Y-28560D01*
X23260Y-28560D02*
X23040Y-28560D01*
G54D14*
X21945Y-24347D02*
X21945Y-23343D01*
X21473Y-23323D02*
X21473Y-24347D01*
X21473Y-24347D02*
X21945Y-24347D01*
X21477Y-23334D02*
X21937Y-23334D01*
G54D21*
X16739Y-20739D02*
X16739Y-21339D01*
X16739Y-21339D02*
X18089Y-21339D01*
X18089Y-20739D02*
X18089Y-21339D01*
X16739Y-20739D02*
X18089Y-20739D01*
X16739Y-21739D02*
X16739Y-22339D01*
X16739Y-22339D02*
X18089Y-22339D01*
X18089Y-21739D02*
X18089Y-22339D01*
X16739Y-21739D02*
X18089Y-21739D01*
G54D10*
X17239Y-20239D02*
X17239Y-20539D01*
X17239Y-20539D02*
X17239Y-22539D01*
X21139Y-22839D02*
X21139Y-20239D01*
G54D18*
X16739Y-20789D02*
X16739Y-21289D01*
X16739Y-21789D02*
X16739Y-22289D01*
G54D10*
X20889Y-21339D02*
X20889Y-20739D01*
X17239Y-22839D02*
X20889Y-22839D01*
X21139Y-20239D02*
X20889Y-20239D01*
X20189Y-20239D02*
X20189Y-20489D01*
X18639Y-20489D02*
X20189Y-20489D01*
X18639Y-20489D02*
X18639Y-20239D01*
X20189Y-20239D02*
X18639Y-20239D01*
X18639Y-20239D02*
X17239Y-20239D01*
X18089Y-20539D02*
X17239Y-20539D01*
X18089Y-20539D02*
X18089Y-22539D01*
X18089Y-22539D02*
X17239Y-22539D01*
X17239Y-22539D02*
X17239Y-22839D01*
X20889Y-20739D02*
X20889Y-20239D01*
X20889Y-20239D02*
X20189Y-20239D01*
X20889Y-21339D02*
X20889Y-21739D01*
X20889Y-22339D02*
X20889Y-21739D01*
X20889Y-22839D02*
X20889Y-22339D01*
X20889Y-22839D02*
X21139Y-22839D01*
G54D18*
X22031Y-25881D02*
X23031Y-25881D01*
G54D10*
X22915Y-24801D02*
X22873Y-24769D01*
X22829Y-24741D01*
X22782Y-24717D01*
X22734Y-24697D01*
X22684Y-24681D01*
X22633Y-24670D01*
X22581Y-24664D01*
X22531Y-24661D01*
X22531Y-24662D02*
X22479Y-24665D01*
X22427Y-24672D01*
X22376Y-24683D01*
X22327Y-24699D01*
X22278Y-24719D01*
X22232Y-24743D01*
X22188Y-24771D01*
X22146Y-24803D01*
X22134Y-24814D01*
X22531Y-25860D02*
X22583Y-25857D01*
X22635Y-25850D01*
X22686Y-25839D01*
X22735Y-25823D01*
X22784Y-25803D01*
X22830Y-25779D01*
X22874Y-25751D01*
X22916Y-25719D01*
X22920Y-25715D01*
X22147Y-25721D02*
X22189Y-25753D01*
X22233Y-25781D01*
X22280Y-25805D01*
X22328Y-25825D01*
X22378Y-25841D01*
X22429Y-25852D01*
X22481Y-25858D01*
X22531Y-25861D01*
X22880Y-25748D02*
X22921Y-25716D01*
X22959Y-25680D01*
X22994Y-25641D01*
X23026Y-25599D01*
X23053Y-25555D01*
X23077Y-25508D01*
X23096Y-25460D01*
X23112Y-25410D01*
X23122Y-25358D01*
X23129Y-25307D01*
X23131Y-25261D01*
X23131Y-25261D02*
X23128Y-25209D01*
X23121Y-25157D01*
X23110Y-25106D01*
X23094Y-25056D01*
X23074Y-25008D01*
X23050Y-24962D01*
X23022Y-24917D01*
X22990Y-24876D01*
X22955Y-24837D01*
X22916Y-24802D01*
X22891Y-24782D01*
X21932Y-25261D02*
X21935Y-25313D01*
X21942Y-25365D01*
X21953Y-25416D01*
X21969Y-25465D01*
X21989Y-25514D01*
X22013Y-25560D01*
X22041Y-25604D01*
X22073Y-25646D01*
X22108Y-25684D01*
X22146Y-25719D01*
X22164Y-25733D01*
X22163Y-24788D02*
X22123Y-24822D01*
X22086Y-24859D01*
X22053Y-24900D01*
X22023Y-24943D01*
X21997Y-24988D01*
X21976Y-25036D01*
X21958Y-25085D01*
X21945Y-25136D01*
X21936Y-25187D01*
X21932Y-25240D01*
X21931Y-25261D01*
X22781Y-25261D02*
X22780Y-25240D01*
X22777Y-25218D01*
X22772Y-25197D01*
X22765Y-25176D01*
X22757Y-25156D01*
X22747Y-25137D01*
X22735Y-25118D01*
X22722Y-25101D01*
X22707Y-25085D01*
X22691Y-25070D01*
X22674Y-25057D01*
X22656Y-25045D01*
X22636Y-25035D01*
X22616Y-25027D01*
X22595Y-25020D01*
X22574Y-25015D01*
X22552Y-25012D01*
X22531Y-25011D01*
X22931Y-25261D02*
X22929Y-25227D01*
X22924Y-25192D01*
X22917Y-25158D01*
X22906Y-25125D01*
X22893Y-25092D01*
X22877Y-25062D01*
X22858Y-25032D01*
X22837Y-25004D01*
X22813Y-24979D01*
X22788Y-24955D01*
X22760Y-24934D01*
X22731Y-24915D01*
X22700Y-24899D01*
X22667Y-24886D01*
X22634Y-24875D01*
X22600Y-24868D01*
X22565Y-24863D01*
X22531Y-24861D01*
X22281Y-25261D02*
X22282Y-25282D01*
X22285Y-25304D01*
X22290Y-25325D01*
X22297Y-25346D01*
X22305Y-25366D01*
X22315Y-25385D01*
X22327Y-25404D01*
X22340Y-25421D01*
X22355Y-25437D01*
X22371Y-25452D01*
X22388Y-25465D01*
X22407Y-25477D01*
X22426Y-25487D01*
X22446Y-25495D01*
X22467Y-25502D01*
X22488Y-25507D01*
X22510Y-25510D01*
X22531Y-25511D01*
X22131Y-25261D02*
X22133Y-25295D01*
X22138Y-25330D01*
X22145Y-25364D01*
X22156Y-25397D01*
X22169Y-25430D01*
X22185Y-25460D01*
X22204Y-25490D01*
X22225Y-25518D01*
X22249Y-25543D01*
X22274Y-25567D01*
X22302Y-25588D01*
X22332Y-25607D01*
X22362Y-25623D01*
X22395Y-25636D01*
X22428Y-25647D01*
X22462Y-25654D01*
X22497Y-25659D01*
X22531Y-25661D01*
G54D18*
X23044Y-25874D02*
X23095Y-25827D01*
X23142Y-25776D01*
X23185Y-25721D01*
X23223Y-25662D01*
X23255Y-25600D01*
X23282Y-25535D01*
X23303Y-25469D01*
X23318Y-25401D01*
X23327Y-25332D01*
X23330Y-25262D01*
X23331Y-25261D01*
X23330Y-25261D02*
X23326Y-25192D01*
X23317Y-25123D01*
X23302Y-25055D01*
X23281Y-24988D01*
X23255Y-24924D01*
X23222Y-24862D01*
X23185Y-24803D01*
X23143Y-24748D01*
X23095Y-24697D01*
X23044Y-24649D01*
X22989Y-24607D01*
X22930Y-24570D01*
X22907Y-24557D01*
X21734Y-25262D02*
X21737Y-25331D01*
X21746Y-25400D01*
X21761Y-25468D01*
X21782Y-25535D01*
X21809Y-25599D01*
X21841Y-25661D01*
X21879Y-25719D01*
X21921Y-25775D01*
X21968Y-25826D01*
X22016Y-25870D01*
X22134Y-24567D02*
X22075Y-24605D01*
X22019Y-24647D01*
X21968Y-24694D01*
X21920Y-24745D01*
X21878Y-24800D01*
X21840Y-24859D01*
X21808Y-24921D01*
X21781Y-24985D01*
X21759Y-25052D01*
X21744Y-25120D01*
X21735Y-25189D01*
X21732Y-25259D01*
X21731Y-25261D01*
X22910Y-24557D02*
X22847Y-24527D01*
X22782Y-24502D01*
X22715Y-24483D01*
X22646Y-24470D01*
X22577Y-24463D01*
X22531Y-24461D01*
X22531Y-24462D02*
X22462Y-24466D01*
X22393Y-24475D01*
X22325Y-24490D01*
X22258Y-24511D01*
X22194Y-24537D01*
X22132Y-24570D01*
X22113Y-24581D01*
G54D12*
X19264Y-24363D02*
X19264Y-24244D01*
X19264Y-24993D02*
X19264Y-24756D01*
X19264Y-25544D02*
X19264Y-25347D01*
X19264Y-26056D02*
X19264Y-25937D01*
X18240Y-25622D02*
X18240Y-26056D01*
X18240Y-24678D02*
X18240Y-24244D01*
X19264Y-24244D02*
X18240Y-24244D01*
X18240Y-26056D02*
X19264Y-26056D01*
G54D22*
X17311Y-26351D02*
X17471Y-26351D01*
X17489Y-26342D01*
X17499Y-26332D01*
X17508Y-26314D01*
X17508Y-26276D01*
X17499Y-26257D01*
X17489Y-26248D01*
X17471Y-26239D01*
X17311Y-26239D01*
X17508Y-26042D02*
X17508Y-26154D01*
X17508Y-26098D02*
X17311Y-26098D01*
X17339Y-26117D01*
X17358Y-26136D01*
X17368Y-26154D01*
X20146Y-19847D02*
X20306Y-19847D01*
X20324Y-19838D01*
X20334Y-19828D01*
X20343Y-19810D01*
X20343Y-19772D01*
X20334Y-19753D01*
X20324Y-19744D01*
X20306Y-19735D01*
X20146Y-19735D01*
X20146Y-19660D02*
X20146Y-19538D01*
X20221Y-19604D01*
X20221Y-19575D01*
X20231Y-19557D01*
X20240Y-19547D01*
X20259Y-19538D01*
X20306Y-19538D01*
X20324Y-19547D01*
X20334Y-19557D01*
X20343Y-19575D01*
X20343Y-19632D01*
X20334Y-19650D01*
X20324Y-19660D01*
X26794Y-19595D02*
X26785Y-19605D01*
X26757Y-19614D01*
X26738Y-19614D01*
X26710Y-19605D01*
X26691Y-19586D01*
X26682Y-19567D01*
X26673Y-19530D01*
X26673Y-19502D01*
X26682Y-19464D01*
X26691Y-19445D01*
X26710Y-19427D01*
X26738Y-19417D01*
X26757Y-19417D01*
X26785Y-19427D01*
X26794Y-19436D01*
X26982Y-19614D02*
X26870Y-19614D01*
X26926Y-19614D02*
X26926Y-19417D01*
X26907Y-19445D01*
X26888Y-19464D01*
X26870Y-19474D01*
X25624Y-26702D02*
X25615Y-26712D01*
X25587Y-26721D01*
X25568Y-26721D01*
X25540Y-26712D01*
X25521Y-26693D01*
X25512Y-26674D01*
X25503Y-26637D01*
X25503Y-26609D01*
X25512Y-26571D01*
X25521Y-26552D01*
X25540Y-26534D01*
X25568Y-26524D01*
X25587Y-26524D01*
X25615Y-26534D01*
X25624Y-26543D01*
X25700Y-26543D02*
X25709Y-26534D01*
X25728Y-26524D01*
X25775Y-26524D01*
X25793Y-26534D01*
X25803Y-26543D01*
X25812Y-26562D01*
X25812Y-26581D01*
X25803Y-26609D01*
X25690Y-26721D01*
X25812Y-26721D01*
X26302Y-27371D02*
X26293Y-27381D01*
X26265Y-27390D01*
X26246Y-27390D01*
X26218Y-27381D01*
X26199Y-27362D01*
X26190Y-27343D01*
X26181Y-27306D01*
X26181Y-27278D01*
X26190Y-27240D01*
X26199Y-27221D01*
X26218Y-27203D01*
X26246Y-27193D01*
X26265Y-27193D01*
X26293Y-27203D01*
X26302Y-27212D01*
X26471Y-27259D02*
X26471Y-27390D01*
X26424Y-27184D02*
X26378Y-27325D01*
X26499Y-27325D01*
X25599Y-18608D02*
X25609Y-18617D01*
X25618Y-18645D01*
X25618Y-18664D01*
X25609Y-18692D01*
X25590Y-18711D01*
X25571Y-18720D01*
X25534Y-18729D01*
X25506Y-18729D01*
X25468Y-18720D01*
X25449Y-18711D01*
X25431Y-18692D01*
X25421Y-18664D01*
X25421Y-18645D01*
X25431Y-18617D01*
X25440Y-18608D01*
X25421Y-18429D02*
X25421Y-18523D01*
X25515Y-18532D01*
X25506Y-18523D01*
X25496Y-18504D01*
X25496Y-18457D01*
X25506Y-18439D01*
X25515Y-18429D01*
X25534Y-18420D01*
X25581Y-18420D01*
X25599Y-18429D01*
X25609Y-18439D01*
X25618Y-18457D01*
X25618Y-18504D01*
X25609Y-18523D01*
X25599Y-18532D01*
X25728Y-17941D02*
X25888Y-17941D01*
X25906Y-17932D01*
X25916Y-17922D01*
X25925Y-17904D01*
X25925Y-17866D01*
X25916Y-17847D01*
X25906Y-17838D01*
X25888Y-17829D01*
X25728Y-17829D01*
X25747Y-17744D02*
X25738Y-17735D01*
X25728Y-17716D01*
X25728Y-17669D01*
X25738Y-17651D01*
X25747Y-17641D01*
X25766Y-17632D01*
X25785Y-17632D01*
X25813Y-17641D01*
X25925Y-17754D01*
X25925Y-17632D01*
X28639Y-21843D02*
X28639Y-21646D01*
X28845Y-21824D02*
X28836Y-21834D01*
X28808Y-21843D01*
X28789Y-21843D01*
X28761Y-21834D01*
X28742Y-21815D01*
X28733Y-21796D01*
X28724Y-21759D01*
X28724Y-21731D01*
X28733Y-21693D01*
X28742Y-21674D01*
X28761Y-21656D01*
X28789Y-21646D01*
X28808Y-21646D01*
X28836Y-21656D01*
X28845Y-21665D01*
X29033Y-21843D02*
X28921Y-21843D01*
X28977Y-21843D02*
X28977Y-21646D01*
X28958Y-21674D01*
X28939Y-21693D01*
X28921Y-21703D01*
X17954Y-23643D02*
X17964Y-23652D01*
X17973Y-23680D01*
X17973Y-23699D01*
X17964Y-23727D01*
X17945Y-23746D01*
X17926Y-23755D01*
X17889Y-23764D01*
X17861Y-23764D01*
X17823Y-23755D01*
X17804Y-23746D01*
X17786Y-23727D01*
X17776Y-23699D01*
X17776Y-23680D01*
X17786Y-23652D01*
X17795Y-23643D01*
X17776Y-23474D02*
X17776Y-23511D01*
X17786Y-23530D01*
X17795Y-23539D01*
X17823Y-23558D01*
X17861Y-23567D01*
X17936Y-23567D01*
X17954Y-23558D01*
X17964Y-23549D01*
X17973Y-23530D01*
X17973Y-23492D01*
X17964Y-23474D01*
X17954Y-23464D01*
X17936Y-23455D01*
X17889Y-23455D01*
X17870Y-23464D01*
X17861Y-23474D01*
X17851Y-23492D01*
X17851Y-23530D01*
X17861Y-23549D01*
X17870Y-23558D01*
X17889Y-23567D01*
X17847Y-28761D02*
X17857Y-28770D01*
X17866Y-28798D01*
X17866Y-28817D01*
X17857Y-28845D01*
X17838Y-28864D01*
X17819Y-28873D01*
X17782Y-28882D01*
X17754Y-28882D01*
X17716Y-28873D01*
X17697Y-28864D01*
X17679Y-28845D01*
X17669Y-28817D01*
X17669Y-28798D01*
X17679Y-28770D01*
X17688Y-28761D01*
X17866Y-28667D02*
X17866Y-28629D01*
X17857Y-28610D01*
X17847Y-28601D01*
X17819Y-28582D01*
X17782Y-28573D01*
X17707Y-28573D01*
X17688Y-28582D01*
X17679Y-28592D01*
X17669Y-28610D01*
X17669Y-28648D01*
X17679Y-28667D01*
X17688Y-28676D01*
X17707Y-28685D01*
X17754Y-28685D01*
X17772Y-28676D01*
X17782Y-28667D01*
X17791Y-28648D01*
X17791Y-28610D01*
X17782Y-28592D01*
X17772Y-28582D01*
X17754Y-28573D01*
X20493Y-26211D02*
X20503Y-26220D01*
X20512Y-26248D01*
X20512Y-26267D01*
X20503Y-26295D01*
X20484Y-26314D01*
X20465Y-26323D01*
X20428Y-26332D01*
X20400Y-26332D01*
X20362Y-26323D01*
X20343Y-26314D01*
X20325Y-26295D01*
X20315Y-26267D01*
X20315Y-26248D01*
X20325Y-26220D01*
X20334Y-26211D01*
X20315Y-26145D02*
X20315Y-26014D01*
X20512Y-26098D01*
X19325Y-28170D02*
X19316Y-28180D01*
X19288Y-28189D01*
X19269Y-28189D01*
X19241Y-28180D01*
X19222Y-28161D01*
X19213Y-28142D01*
X19204Y-28105D01*
X19204Y-28077D01*
X19213Y-28039D01*
X19222Y-28020D01*
X19241Y-28002D01*
X19269Y-27992D01*
X19288Y-27992D01*
X19316Y-28002D01*
X19325Y-28011D01*
X19438Y-28077D02*
X19419Y-28067D01*
X19410Y-28058D01*
X19401Y-28039D01*
X19401Y-28030D01*
X19410Y-28011D01*
X19419Y-28002D01*
X19438Y-27992D01*
X19476Y-27992D01*
X19494Y-28002D01*
X19504Y-28011D01*
X19513Y-28030D01*
X19513Y-28039D01*
X19504Y-28058D01*
X19494Y-28067D01*
X19476Y-28077D01*
X19438Y-28077D01*
X19419Y-28086D01*
X19410Y-28095D01*
X19401Y-28114D01*
X19401Y-28152D01*
X19410Y-28170D01*
X19419Y-28180D01*
X19438Y-28189D01*
X19476Y-28189D01*
X19494Y-28180D01*
X19504Y-28170D01*
X19513Y-28152D01*
X19513Y-28114D01*
X19504Y-28095D01*
X19494Y-28086D01*
X19476Y-28077D01*
X24280Y-15938D02*
X24186Y-16003D01*
X24280Y-16050D02*
X24083Y-16050D01*
X24083Y-15975D01*
X24093Y-15956D01*
X24102Y-15947D01*
X24121Y-15938D01*
X24149Y-15938D01*
X24168Y-15947D01*
X24177Y-15956D01*
X24186Y-15975D01*
X24186Y-16050D01*
X24280Y-15750D02*
X24280Y-15862D01*
X24280Y-15806D02*
X24083Y-15806D01*
X24111Y-15825D01*
X24130Y-15844D01*
X24140Y-15862D01*
X24083Y-15628D02*
X24083Y-15609D01*
X24093Y-15590D01*
X24102Y-15581D01*
X24121Y-15571D01*
X24158Y-15562D01*
X24205Y-15562D01*
X24243Y-15571D01*
X24261Y-15581D01*
X24271Y-15590D01*
X24280Y-15609D01*
X24280Y-15628D01*
X24271Y-15646D01*
X24261Y-15656D01*
X24243Y-15665D01*
X24205Y-15674D01*
X24158Y-15674D01*
X24121Y-15665D01*
X24102Y-15656D01*
X24093Y-15646D01*
X24083Y-15628D01*
X23709Y-15923D02*
X23615Y-15988D01*
X23709Y-16035D02*
X23512Y-16035D01*
X23512Y-15960D01*
X23522Y-15941D01*
X23531Y-15932D01*
X23550Y-15923D01*
X23578Y-15923D01*
X23597Y-15932D01*
X23606Y-15941D01*
X23615Y-15960D01*
X23615Y-16035D01*
X23709Y-15829D02*
X23709Y-15791D01*
X23700Y-15772D01*
X23690Y-15763D01*
X23662Y-15744D01*
X23625Y-15735D01*
X23550Y-15735D01*
X23531Y-15744D01*
X23522Y-15754D01*
X23512Y-15772D01*
X23512Y-15810D01*
X23522Y-15829D01*
X23531Y-15838D01*
X23550Y-15847D01*
X23597Y-15847D01*
X23615Y-15838D01*
X23625Y-15829D01*
X23634Y-15810D01*
X23634Y-15772D01*
X23625Y-15754D01*
X23615Y-15744D01*
X23597Y-15735D01*
X22937Y-15915D02*
X22843Y-15980D01*
X22937Y-16027D02*
X22740Y-16027D01*
X22740Y-15952D01*
X22750Y-15933D01*
X22759Y-15924D01*
X22778Y-15915D01*
X22806Y-15915D01*
X22825Y-15924D01*
X22834Y-15933D01*
X22843Y-15952D01*
X22843Y-16027D01*
X22825Y-15802D02*
X22815Y-15821D01*
X22806Y-15830D01*
X22787Y-15839D01*
X22778Y-15839D01*
X22759Y-15830D01*
X22750Y-15821D01*
X22740Y-15802D01*
X22740Y-15764D01*
X22750Y-15746D01*
X22759Y-15736D01*
X22778Y-15727D01*
X22787Y-15727D01*
X22806Y-15736D01*
X22815Y-15746D01*
X22825Y-15764D01*
X22825Y-15802D01*
X22834Y-15821D01*
X22843Y-15830D01*
X22862Y-15839D01*
X22900Y-15839D01*
X22918Y-15830D01*
X22928Y-15821D01*
X22937Y-15802D01*
X22937Y-15764D01*
X22928Y-15746D01*
X22918Y-15736D01*
X22900Y-15727D01*
X22862Y-15727D01*
X22843Y-15736D01*
X22834Y-15746D01*
X22825Y-15764D01*
X22398Y-15923D02*
X22304Y-15988D01*
X22398Y-16035D02*
X22201Y-16035D01*
X22201Y-15960D01*
X22211Y-15941D01*
X22220Y-15932D01*
X22239Y-15923D01*
X22267Y-15923D01*
X22286Y-15932D01*
X22295Y-15941D01*
X22304Y-15960D01*
X22304Y-16035D01*
X22201Y-15857D02*
X22201Y-15726D01*
X22398Y-15810D01*
X21831Y-15931D02*
X21737Y-15996D01*
X21831Y-16043D02*
X21634Y-16043D01*
X21634Y-15968D01*
X21644Y-15949D01*
X21653Y-15940D01*
X21672Y-15931D01*
X21700Y-15931D01*
X21719Y-15940D01*
X21728Y-15949D01*
X21737Y-15968D01*
X21737Y-16043D01*
X21634Y-15762D02*
X21634Y-15799D01*
X21644Y-15818D01*
X21653Y-15827D01*
X21681Y-15846D01*
X21719Y-15855D01*
X21794Y-15855D01*
X21812Y-15846D01*
X21822Y-15837D01*
X21831Y-15818D01*
X21831Y-15780D01*
X21822Y-15762D01*
X21812Y-15752D01*
X21794Y-15743D01*
X21747Y-15743D01*
X21728Y-15752D01*
X21719Y-15762D01*
X21709Y-15780D01*
X21709Y-15818D01*
X21719Y-15837D01*
X21728Y-15846D01*
X21747Y-15855D01*
X21307Y-15919D02*
X21213Y-15984D01*
X21307Y-16031D02*
X21110Y-16031D01*
X21110Y-15956D01*
X21120Y-15937D01*
X21129Y-15928D01*
X21148Y-15919D01*
X21176Y-15919D01*
X21195Y-15928D01*
X21204Y-15937D01*
X21213Y-15956D01*
X21213Y-16031D01*
X21110Y-15740D02*
X21110Y-15834D01*
X21204Y-15843D01*
X21195Y-15834D01*
X21185Y-15815D01*
X21185Y-15768D01*
X21195Y-15750D01*
X21204Y-15740D01*
X21223Y-15731D01*
X21270Y-15731D01*
X21288Y-15740D01*
X21298Y-15750D01*
X21307Y-15768D01*
X21307Y-15815D01*
X21298Y-15834D01*
X21288Y-15843D01*
X20513Y-15695D02*
X20419Y-15760D01*
X20513Y-15807D02*
X20316Y-15807D01*
X20316Y-15732D01*
X20326Y-15713D01*
X20335Y-15704D01*
X20354Y-15695D01*
X20382Y-15695D01*
X20401Y-15704D01*
X20410Y-15713D01*
X20419Y-15732D01*
X20419Y-15807D01*
X20382Y-15526D02*
X20513Y-15526D01*
X20307Y-15573D02*
X20448Y-15619D01*
X20448Y-15498D01*
X19867Y-15710D02*
X19773Y-15775D01*
X19867Y-15822D02*
X19670Y-15822D01*
X19670Y-15747D01*
X19680Y-15728D01*
X19689Y-15719D01*
X19708Y-15710D01*
X19736Y-15710D01*
X19755Y-15719D01*
X19764Y-15728D01*
X19773Y-15747D01*
X19773Y-15822D01*
X19670Y-15644D02*
X19670Y-15522D01*
X19745Y-15588D01*
X19745Y-15559D01*
X19755Y-15541D01*
X19764Y-15531D01*
X19783Y-15522D01*
X19830Y-15522D01*
X19848Y-15531D01*
X19858Y-15541D01*
X19867Y-15559D01*
X19867Y-15616D01*
X19858Y-15634D01*
X19848Y-15644D01*
X30699Y-23996D02*
X30634Y-23902D01*
X30587Y-23996D02*
X30587Y-23799D01*
X30662Y-23799D01*
X30681Y-23809D01*
X30690Y-23818D01*
X30699Y-23837D01*
X30699Y-23865D01*
X30690Y-23884D01*
X30681Y-23893D01*
X30662Y-23902D01*
X30587Y-23902D01*
X30775Y-23818D02*
X30784Y-23809D01*
X30803Y-23799D01*
X30850Y-23799D01*
X30868Y-23809D01*
X30878Y-23818D01*
X30887Y-23837D01*
X30887Y-23856D01*
X30878Y-23884D01*
X30765Y-23996D01*
X30887Y-23996D01*
X24321Y-25075D02*
X24256Y-24981D01*
X24209Y-25075D02*
X24209Y-24878D01*
X24284Y-24878D01*
X24303Y-24888D01*
X24312Y-24897D01*
X24321Y-24916D01*
X24321Y-24944D01*
X24312Y-24963D01*
X24303Y-24972D01*
X24284Y-24981D01*
X24209Y-24981D01*
X24509Y-25075D02*
X24397Y-25075D01*
X24453Y-25075D02*
X24453Y-24878D01*
X24434Y-24906D01*
X24415Y-24925D01*
X24397Y-24935D01*
X31561Y-23966D02*
X31552Y-23976D01*
X31524Y-23985D01*
X31505Y-23985D01*
X31477Y-23976D01*
X31458Y-23957D01*
X31449Y-23938D01*
X31440Y-23901D01*
X31440Y-23873D01*
X31449Y-23835D01*
X31458Y-23816D01*
X31477Y-23798D01*
X31505Y-23788D01*
X31524Y-23788D01*
X31552Y-23798D01*
X31561Y-23807D01*
X31627Y-23788D02*
X31749Y-23788D01*
X31683Y-23863D01*
X31712Y-23863D01*
X31730Y-23873D01*
X31740Y-23882D01*
X31749Y-23901D01*
X31749Y-23948D01*
X31740Y-23966D01*
X31730Y-23976D01*
X31712Y-23985D01*
X31655Y-23985D01*
X31637Y-23976D01*
X31627Y-23966D01*
G54D16*
X32788Y-24866D02*
X32473Y-24866D01*
X32473Y-24746D01*
X32488Y-24716D01*
X32503Y-24701D01*
X32533Y-24686D01*
X32578Y-24686D01*
X32608Y-24701D01*
X32623Y-24716D01*
X32638Y-24746D01*
X32638Y-24866D01*
X32788Y-24386D02*
X32788Y-24566D01*
X32788Y-24476D02*
X32473Y-24476D01*
X32518Y-24506D01*
X32548Y-24536D01*
X32563Y-24566D01*
X34737Y-28938D02*
X34737Y-28623D01*
X34917Y-28938D02*
X34782Y-28758D01*
X34917Y-28623D02*
X34737Y-28803D01*
X35022Y-28623D02*
X35217Y-28623D01*
X35112Y-28743D01*
X35157Y-28743D01*
X35187Y-28758D01*
X35202Y-28773D01*
X35217Y-28803D01*
X35217Y-28878D01*
X35202Y-28908D01*
X35187Y-28923D01*
X35157Y-28938D01*
X35067Y-28938D01*
X35037Y-28923D01*
X35022Y-28908D01*
X19536Y-29430D02*
X19536Y-29115D01*
X19716Y-29430D02*
X19581Y-29250D01*
X19716Y-29115D02*
X19536Y-29295D01*
X19836Y-29145D02*
X19851Y-29130D01*
X19881Y-29115D01*
X19956Y-29115D01*
X19986Y-29130D01*
X20001Y-29145D01*
X20016Y-29175D01*
X20016Y-29205D01*
X20001Y-29250D01*
X19821Y-29430D01*
X20016Y-29430D01*
X24469Y-29745D02*
X24469Y-29430D01*
X24649Y-29745D02*
X24514Y-29565D01*
X24649Y-29430D02*
X24469Y-29610D01*
X24949Y-29745D02*
X24769Y-29745D01*
X24859Y-29745D02*
X24859Y-29430D01*
X24829Y-29475D01*
X24799Y-29505D01*
X24769Y-29520D01*
X24854Y-15178D02*
X24854Y-14863D01*
X24974Y-14863D01*
X25004Y-14878D01*
X25019Y-14893D01*
X25034Y-14923D01*
X25034Y-14968D01*
X25019Y-14998D01*
X25004Y-15013D01*
X24974Y-15028D01*
X24854Y-15028D01*
X25154Y-14893D02*
X25169Y-14878D01*
X25199Y-14863D01*
X25274Y-14863D01*
X25304Y-14878D01*
X25319Y-14893D01*
X25334Y-14923D01*
X25334Y-14953D01*
X25319Y-14998D01*
X25139Y-15178D01*
X25334Y-15178D01*
X33984Y-14190D02*
X33984Y-13875D01*
X34104Y-13875D01*
X34134Y-13890D01*
X34149Y-13905D01*
X34164Y-13935D01*
X34164Y-13980D01*
X34149Y-14010D01*
X34134Y-14025D01*
X34104Y-14040D01*
X33984Y-14040D01*
X34269Y-13875D02*
X34464Y-13875D01*
X34359Y-13995D01*
X34404Y-13995D01*
X34434Y-14010D01*
X34449Y-14025D01*
X34464Y-14055D01*
X34464Y-14130D01*
X34449Y-14160D01*
X34434Y-14175D01*
X34404Y-14190D01*
X34314Y-14190D01*
X34284Y-14175D01*
X34269Y-14160D01*
G54D22*
X17243Y-15124D02*
X17177Y-15124D01*
X17177Y-15227D02*
X17177Y-15030D01*
X17271Y-15030D01*
X17449Y-15227D02*
X17337Y-15227D01*
X17393Y-15227D02*
X17393Y-15030D01*
X17374Y-15058D01*
X17355Y-15077D01*
X17337Y-15087D01*
X34632Y-14250D02*
X34632Y-14316D01*
X34735Y-14316D02*
X34538Y-14316D01*
X34538Y-14222D01*
X34557Y-14156D02*
X34548Y-14147D01*
X34538Y-14128D01*
X34538Y-14081D01*
X34548Y-14063D01*
X34557Y-14053D01*
X34576Y-14044D01*
X34595Y-14044D01*
X34623Y-14053D01*
X34735Y-14166D01*
X34735Y-14044D01*
G54D16*
X34859Y-19359D02*
X34859Y-19044D01*
X34979Y-19044D01*
X35009Y-19059D01*
X35024Y-19074D01*
X35039Y-19104D01*
X35039Y-19149D01*
X35024Y-19179D01*
X35009Y-19194D01*
X34979Y-19209D01*
X34859Y-19209D01*
X35309Y-19149D02*
X35309Y-19359D01*
X35234Y-19029D02*
X35159Y-19254D01*
X35354Y-19254D01*
G54D22*
X28895Y-26484D02*
X28895Y-26287D01*
X28970Y-26287D01*
X28989Y-26297D01*
X28998Y-26306D01*
X29007Y-26325D01*
X29007Y-26353D01*
X28998Y-26372D01*
X28989Y-26381D01*
X28970Y-26390D01*
X28895Y-26390D01*
X29186Y-26287D02*
X29092Y-26287D01*
X29083Y-26381D01*
X29092Y-26372D01*
X29111Y-26362D01*
X29158Y-26362D01*
X29176Y-26372D01*
X29186Y-26381D01*
X29195Y-26400D01*
X29195Y-26447D01*
X29186Y-26465D01*
X29176Y-26475D01*
X29158Y-26484D01*
X29111Y-26484D01*
X29092Y-26475D01*
X29083Y-26465D01*
X29934Y-26984D02*
X29934Y-26787D01*
X30009Y-26787D01*
X30028Y-26797D01*
X30037Y-26806D01*
X30046Y-26825D01*
X30046Y-26853D01*
X30037Y-26872D01*
X30028Y-26881D01*
X30009Y-26890D01*
X29934Y-26890D01*
X30215Y-26787D02*
X30178Y-26787D01*
X30159Y-26797D01*
X30150Y-26806D01*
X30131Y-26834D01*
X30122Y-26872D01*
X30122Y-26947D01*
X30131Y-26965D01*
X30140Y-26975D01*
X30159Y-26984D01*
X30197Y-26984D01*
X30215Y-26975D01*
X30225Y-26965D01*
X30234Y-26947D01*
X30234Y-26900D01*
X30225Y-26881D01*
X30215Y-26872D01*
X30197Y-26862D01*
X30159Y-26862D01*
X30140Y-26872D01*
X30131Y-26881D01*
X30122Y-26900D01*
X32156Y-19520D02*
X32091Y-19426D01*
X32044Y-19520D02*
X32044Y-19323D01*
X32119Y-19323D01*
X32138Y-19333D01*
X32147Y-19342D01*
X32156Y-19361D01*
X32156Y-19389D01*
X32147Y-19408D01*
X32138Y-19417D01*
X32119Y-19426D01*
X32044Y-19426D01*
X32344Y-19520D02*
X32232Y-19520D01*
X32288Y-19520D02*
X32288Y-19323D01*
X32269Y-19351D01*
X32250Y-19370D01*
X32232Y-19380D01*
X32532Y-19520D02*
X32420Y-19520D01*
X32476Y-19520D02*
X32476Y-19323D01*
X32457Y-19351D01*
X32438Y-19370D01*
X32420Y-19380D01*
X28380Y-28621D02*
X28408Y-28630D01*
X28455Y-28630D01*
X28473Y-28621D01*
X28483Y-28611D01*
X28492Y-28593D01*
X28492Y-28574D01*
X28483Y-28555D01*
X28473Y-28546D01*
X28455Y-28536D01*
X28417Y-28527D01*
X28398Y-28518D01*
X28389Y-28508D01*
X28380Y-28490D01*
X28380Y-28471D01*
X28389Y-28452D01*
X28398Y-28443D01*
X28417Y-28433D01*
X28464Y-28433D01*
X28492Y-28443D01*
X28558Y-28433D02*
X28605Y-28630D01*
X28643Y-28490D01*
X28680Y-28630D01*
X28727Y-28433D01*
X28793Y-28452D02*
X28802Y-28443D01*
X28821Y-28433D01*
X28868Y-28433D01*
X28886Y-28443D01*
X28896Y-28452D01*
X28905Y-28471D01*
X28905Y-28490D01*
X28896Y-28518D01*
X28783Y-28630D01*
X28905Y-28630D01*
X23691Y-28594D02*
X23719Y-28603D01*
X23766Y-28603D01*
X23784Y-28594D01*
X23794Y-28584D01*
X23803Y-28566D01*
X23803Y-28547D01*
X23794Y-28528D01*
X23784Y-28519D01*
X23766Y-28509D01*
X23728Y-28500D01*
X23709Y-28491D01*
X23700Y-28481D01*
X23691Y-28463D01*
X23691Y-28444D01*
X23700Y-28425D01*
X23709Y-28416D01*
X23728Y-28406D01*
X23775Y-28406D01*
X23803Y-28416D01*
X23869Y-28406D02*
X23916Y-28603D01*
X23954Y-28463D01*
X23991Y-28603D01*
X24038Y-28406D01*
X24216Y-28603D02*
X24104Y-28603D01*
X24160Y-28603D02*
X24160Y-28406D01*
X24141Y-28434D01*
X24122Y-28453D01*
X24104Y-28463D01*
X22221Y-24092D02*
X22127Y-24157D01*
X22221Y-24204D02*
X22024Y-24204D01*
X22024Y-24129D01*
X22034Y-24110D01*
X22043Y-24101D01*
X22062Y-24092D01*
X22090Y-24092D01*
X22109Y-24101D01*
X22118Y-24110D01*
X22127Y-24129D01*
X22127Y-24204D01*
X22221Y-23904D02*
X22221Y-24016D01*
X22221Y-23960D02*
X22024Y-23960D01*
X22052Y-23979D01*
X22071Y-23998D01*
X22081Y-24016D01*
X22043Y-23828D02*
X22034Y-23819D01*
X22024Y-23800D01*
X22024Y-23753D01*
X22034Y-23735D01*
X22043Y-23725D01*
X22062Y-23716D01*
X22081Y-23716D01*
X22109Y-23725D01*
X22221Y-23838D01*
X22221Y-23716D01*
X17230Y-20116D02*
X17261Y-20126D01*
X17313Y-20126D01*
X17334Y-20116D01*
X17344Y-20106D01*
X17354Y-20085D01*
X17354Y-20064D01*
X17344Y-20044D01*
X17334Y-20033D01*
X17313Y-20023D01*
X17272Y-20013D01*
X17251Y-20002D01*
X17241Y-19992D01*
X17230Y-19971D01*
X17230Y-19951D01*
X17241Y-19930D01*
X17251Y-19920D01*
X17272Y-19909D01*
X17323Y-19909D01*
X17354Y-19920D01*
X17427Y-19909D02*
X17479Y-20126D01*
X17520Y-19971D01*
X17561Y-20126D01*
X17613Y-19909D01*
X17675Y-19909D02*
X17809Y-19909D01*
X17737Y-19992D01*
X17768Y-19992D01*
X17789Y-20002D01*
X17799Y-20013D01*
X17809Y-20033D01*
X17809Y-20085D01*
X17799Y-20106D01*
X17789Y-20116D01*
X17768Y-20126D01*
X17706Y-20126D01*
X17685Y-20116D01*
X17675Y-20106D01*
G54D23*
G54D22*
X21505Y-25886D02*
X21505Y-25689D01*
X21552Y-25689D01*
X21580Y-25699D01*
X21599Y-25717D01*
X21608Y-25736D01*
X21617Y-25774D01*
X21617Y-25802D01*
X21608Y-25839D01*
X21599Y-25858D01*
X21580Y-25877D01*
X21552Y-25886D01*
X21505Y-25886D01*
X21805Y-25886D02*
X21693Y-25886D01*
X21749Y-25886D02*
X21749Y-25689D01*
X21730Y-25717D01*
X21711Y-25736D01*
X21693Y-25746D01*
X17480Y-24910D02*
X17640Y-24910D01*
X17658Y-24901D01*
X17668Y-24891D01*
X17677Y-24873D01*
X17677Y-24835D01*
X17668Y-24816D01*
X17658Y-24807D01*
X17640Y-24798D01*
X17480Y-24798D01*
X17546Y-24620D02*
X17677Y-24620D01*
X17471Y-24667D02*
X17612Y-24713D01*
X17612Y-24592D01*
M02*
