G04 (created by PCBNEW-RS274X (2012-01-19 BZR 3256)-stable) date 15/03/2012 11:31:39*
G01*
G70*
G90*
%MOIN*%
G04 Gerber Fmt 3.4, Leading zero omitted, Abs format*
%FSLAX34Y34*%
G04 APERTURE LIST*
%ADD10C,0.006000*%
%ADD11R,0.067200X0.047600*%
%ADD12R,0.098700X0.047600*%
%ADD13R,0.130300X0.106600*%
%ADD14R,0.040000X0.065000*%
%ADD15R,0.051500X0.045000*%
%ADD16R,0.045000X0.051500*%
%ADD17R,0.082000X0.110000*%
%ADD18O,0.082000X0.110000*%
%ADD19R,0.037700X0.098700*%
%ADD20R,0.098700X0.037700*%
%ADD21R,0.080000X0.100000*%
%ADD22R,0.094800X0.086900*%
%ADD23O,0.098700X0.086900*%
%ADD24R,0.086900X0.094800*%
%ADD25O,0.086900X0.098700*%
%ADD26O,0.080000X0.098700*%
%ADD27R,0.080000X0.098700*%
%ADD28R,0.100000X0.080000*%
%ADD29R,0.094800X0.083000*%
%ADD30O,0.098700X0.083000*%
%ADD31C,0.108600*%
%ADD32R,0.079100X0.098700*%
%ADD33C,0.098700*%
%ADD34O,0.124000X0.072000*%
%ADD35C,0.086000*%
G04 APERTURE END LIST*
G54D10*
G54D11*
X18862Y-27717D03*
G54D12*
X18705Y-27126D03*
G54D11*
X18862Y-26535D03*
G54D13*
X17760Y-27126D03*
G54D14*
X24253Y-17671D03*
X23753Y-17671D03*
X23253Y-17671D03*
X22753Y-17671D03*
X22253Y-17671D03*
X21753Y-17671D03*
X21253Y-17671D03*
X20753Y-17671D03*
X20753Y-19671D03*
X21253Y-19671D03*
X21753Y-19671D03*
X22253Y-19671D03*
X22753Y-19671D03*
X23253Y-19671D03*
X23753Y-19671D03*
X24253Y-19671D03*
G54D15*
X26819Y-19913D03*
X26819Y-20513D03*
G54D16*
X26180Y-26646D03*
X26780Y-26646D03*
X27379Y-27276D03*
X26779Y-27276D03*
G54D15*
X25079Y-18883D03*
X25079Y-18283D03*
G54D17*
X26665Y-17969D03*
G54D18*
X27665Y-17969D03*
X28665Y-17969D03*
X29665Y-17969D03*
X30665Y-17969D03*
X31665Y-17969D03*
X32665Y-17969D03*
X33665Y-17969D03*
X34665Y-17969D03*
X34665Y-14969D03*
X33665Y-14969D03*
X32665Y-14969D03*
X31665Y-14969D03*
X30665Y-14969D03*
X29665Y-14969D03*
X28665Y-14969D03*
X27665Y-14969D03*
X26665Y-14969D03*
G54D19*
X25876Y-21443D03*
X26191Y-21443D03*
X26506Y-21443D03*
X26821Y-21443D03*
X27136Y-21443D03*
X27451Y-21443D03*
X27766Y-21443D03*
X28081Y-21443D03*
X28079Y-25209D03*
X25869Y-25209D03*
X26189Y-25209D03*
X26509Y-25209D03*
X26819Y-25209D03*
X27139Y-25209D03*
X27449Y-25209D03*
X27769Y-25209D03*
G54D20*
X28869Y-22227D03*
X28869Y-22541D03*
X28869Y-22857D03*
X28869Y-23171D03*
X28869Y-23487D03*
X28869Y-23801D03*
X28869Y-24117D03*
X28869Y-24431D03*
X25089Y-22229D03*
X25089Y-22539D03*
X25089Y-22859D03*
X25089Y-23169D03*
X25089Y-23479D03*
X25089Y-23799D03*
X25089Y-24119D03*
X25089Y-24439D03*
G54D21*
X17244Y-23610D03*
X18544Y-23610D03*
X17137Y-28728D03*
X18437Y-28728D03*
G54D15*
X20429Y-25102D03*
X20429Y-25702D03*
X19315Y-28503D03*
X19315Y-29103D03*
X24201Y-16287D03*
X24201Y-16887D03*
X23630Y-16275D03*
X23630Y-16875D03*
X22850Y-16275D03*
X22850Y-16875D03*
X22299Y-16287D03*
X22299Y-16887D03*
X21752Y-16287D03*
X21752Y-16887D03*
X21196Y-16292D03*
X21196Y-16892D03*
X20461Y-16082D03*
X20461Y-16682D03*
X19839Y-16074D03*
X19839Y-16674D03*
X30728Y-24887D03*
X30728Y-24287D03*
X23882Y-25023D03*
X23882Y-25623D03*
X31591Y-24302D03*
X31591Y-24902D03*
G54D22*
X34488Y-26756D03*
G54D23*
X33488Y-26756D03*
X34488Y-25756D03*
X33488Y-25756D03*
X34488Y-24756D03*
X33488Y-24756D03*
G54D24*
X33272Y-30055D03*
G54D25*
X34272Y-30055D03*
X35272Y-30055D03*
G54D24*
X17303Y-30055D03*
G54D25*
X18303Y-30055D03*
X19303Y-30055D03*
G54D24*
X25500Y-30091D03*
G54D25*
X26500Y-30091D03*
X27500Y-30091D03*
G54D26*
X25130Y-14161D03*
X24130Y-14161D03*
X23130Y-14161D03*
X22130Y-14161D03*
X21130Y-14161D03*
X20130Y-14161D03*
X19130Y-14161D03*
G54D27*
X18130Y-14161D03*
G54D26*
X18130Y-13161D03*
X18130Y-12161D03*
X19130Y-13161D03*
X19130Y-12161D03*
X20130Y-13161D03*
X20130Y-12161D03*
X21130Y-13161D03*
X21130Y-12161D03*
X22130Y-13161D03*
X22130Y-12161D03*
X23130Y-13161D03*
X23130Y-12161D03*
X24130Y-13161D03*
X24130Y-12161D03*
X25130Y-13161D03*
X25130Y-12161D03*
G54D27*
X27220Y-13181D03*
G54D26*
X27220Y-12181D03*
X28220Y-13181D03*
X28220Y-12181D03*
X29220Y-13181D03*
X29220Y-12181D03*
X30220Y-13181D03*
X30220Y-12181D03*
X31220Y-13181D03*
X31220Y-12181D03*
X32220Y-13181D03*
X32220Y-12181D03*
X33220Y-13181D03*
X33220Y-12181D03*
X34220Y-13181D03*
X34220Y-12181D03*
G54D28*
X17232Y-16989D03*
X17232Y-15689D03*
X35340Y-12730D03*
X35340Y-14030D03*
G54D29*
X34490Y-20070D03*
G54D30*
X34490Y-21070D03*
X34490Y-22070D03*
X34490Y-23070D03*
G54D31*
X29040Y-25620D03*
X30050Y-26150D03*
G54D16*
X32011Y-19854D03*
X32611Y-19854D03*
G54D32*
X30440Y-28070D03*
X31440Y-28070D03*
X29440Y-28070D03*
G54D33*
X29440Y-30070D03*
X31440Y-30070D03*
G54D32*
X22170Y-28070D03*
X23170Y-28070D03*
X21170Y-28070D03*
G54D33*
X21170Y-30070D03*
X23170Y-30070D03*
G54D15*
X21709Y-24135D03*
X21709Y-23535D03*
G54D34*
X17689Y-21039D03*
X17689Y-22039D03*
X20689Y-22039D03*
X20689Y-21039D03*
G54D35*
X22531Y-24661D03*
X22531Y-25661D03*
G54D11*
X19500Y-25741D03*
G54D12*
X19343Y-25150D03*
G54D11*
X19500Y-24559D03*
G54D13*
X18398Y-25150D03*
M02*
