G04 (created by PCBNEW-RS274X (2012-01-19 BZR 3256)-stable) date 15/03/2012 11:31:39*
G01*
G70*
G90*
%MOIN*%
G04 Gerber Fmt 3.4, Leading zero omitted, Abs format*
%FSLAX34Y34*%
G04 APERTURE LIST*
%ADD10C,0.006000*%
%ADD11R,0.062000X0.090000*%
%ADD12O,0.062000X0.090000*%
%ADD13R,0.074800X0.066900*%
%ADD14O,0.078700X0.066900*%
%ADD15R,0.066900X0.074800*%
%ADD16O,0.066900X0.078700*%
%ADD17O,0.060000X0.078700*%
%ADD18R,0.060000X0.078700*%
%ADD19R,0.074800X0.063000*%
%ADD20O,0.078700X0.063000*%
%ADD21R,0.059100X0.078700*%
%ADD22C,0.078700*%
%ADD23O,0.104000X0.052000*%
%ADD24C,0.066000*%
%ADD25C,0.035400*%
%ADD26C,0.039400*%
%ADD27C,0.013800*%
%ADD28C,0.009800*%
%ADD29C,0.017700*%
%ADD30C,0.031500*%
%ADD31C,0.008300*%
%ADD32C,0.021700*%
%ADD33C,0.010000*%
G04 APERTURE END LIST*
G54D10*
G54D11*
X26665Y-17969D03*
G54D12*
X27665Y-17969D03*
X28665Y-17969D03*
X29665Y-17969D03*
X30665Y-17969D03*
X31665Y-17969D03*
X32665Y-17969D03*
X33665Y-17969D03*
X34665Y-17969D03*
X34665Y-14969D03*
X33665Y-14969D03*
X32665Y-14969D03*
X31665Y-14969D03*
X30665Y-14969D03*
X29665Y-14969D03*
X28665Y-14969D03*
X27665Y-14969D03*
X26665Y-14969D03*
G54D13*
X34488Y-26756D03*
G54D14*
X33488Y-26756D03*
X34488Y-25756D03*
X33488Y-25756D03*
X34488Y-24756D03*
X33488Y-24756D03*
G54D15*
X33272Y-30055D03*
G54D16*
X34272Y-30055D03*
X35272Y-30055D03*
G54D15*
X17303Y-30055D03*
G54D16*
X18303Y-30055D03*
X19303Y-30055D03*
G54D15*
X25500Y-30091D03*
G54D16*
X26500Y-30091D03*
X27500Y-30091D03*
G54D17*
X25130Y-14161D03*
X24130Y-14161D03*
X23130Y-14161D03*
X22130Y-14161D03*
X21130Y-14161D03*
X20130Y-14161D03*
X19130Y-14161D03*
G54D18*
X18130Y-14161D03*
G54D17*
X18130Y-13161D03*
X18130Y-12161D03*
X19130Y-13161D03*
X19130Y-12161D03*
X20130Y-13161D03*
X20130Y-12161D03*
X21130Y-13161D03*
X21130Y-12161D03*
X22130Y-13161D03*
X22130Y-12161D03*
X23130Y-13161D03*
X23130Y-12161D03*
X24130Y-13161D03*
X24130Y-12161D03*
X25130Y-13161D03*
X25130Y-12161D03*
G54D18*
X27220Y-13181D03*
G54D17*
X27220Y-12181D03*
X28220Y-13181D03*
X28220Y-12181D03*
X29220Y-13181D03*
X29220Y-12181D03*
X30220Y-13181D03*
X30220Y-12181D03*
X31220Y-13181D03*
X31220Y-12181D03*
X32220Y-13181D03*
X32220Y-12181D03*
X33220Y-13181D03*
X33220Y-12181D03*
X34220Y-13181D03*
X34220Y-12181D03*
G54D19*
X34490Y-20070D03*
G54D20*
X34490Y-21070D03*
X34490Y-22070D03*
X34490Y-23070D03*
G54D21*
X30440Y-28070D03*
X31440Y-28070D03*
X29440Y-28070D03*
G54D22*
X29440Y-30070D03*
X31440Y-30070D03*
G54D21*
X22170Y-28070D03*
X23170Y-28070D03*
X21170Y-28070D03*
G54D22*
X21170Y-30070D03*
X23170Y-30070D03*
G54D23*
X17689Y-21039D03*
X17689Y-22039D03*
X20689Y-22039D03*
X20689Y-21039D03*
G54D24*
X22531Y-24661D03*
X22531Y-25661D03*
G54D25*
X28047Y-23508D03*
X27638Y-23925D03*
X21547Y-23028D03*
X22350Y-23713D03*
X27512Y-24382D03*
X23689Y-22280D03*
X22350Y-22051D03*
X32760Y-23850D03*
X32598Y-22626D03*
X31441Y-21689D03*
X25094Y-26520D03*
X29200Y-27270D03*
X31988Y-22713D03*
X31563Y-20311D03*
X22858Y-21709D03*
X31720Y-26590D03*
X25689Y-26055D03*
X31177Y-21248D03*
X19059Y-17059D03*
X18339Y-19051D03*
X17980Y-17752D03*
X19701Y-18469D03*
X17902Y-19311D03*
X17189Y-19520D03*
X19720Y-19909D03*
X18161Y-15811D03*
X31472Y-26102D03*
X28610Y-27800D03*
X31087Y-16386D03*
X17169Y-27831D03*
X19819Y-26228D03*
X20236Y-28547D03*
X22319Y-20795D03*
X34343Y-27811D03*
X33290Y-27890D03*
X28118Y-28898D03*
X30646Y-19091D03*
X26780Y-28717D03*
X34516Y-16386D03*
X35256Y-29228D03*
X28693Y-20980D03*
X27180Y-22580D03*
X26228Y-12181D03*
X32035Y-25425D03*
X28177Y-16386D03*
X28287Y-26043D03*
X30157Y-16386D03*
X29146Y-16386D03*
X21965Y-21665D03*
X33240Y-23335D03*
X24465Y-30091D03*
X24787Y-28665D03*
X32240Y-28340D03*
X21976Y-18614D03*
X30750Y-22900D03*
X31571Y-22244D03*
X25272Y-17051D03*
X35484Y-28583D03*
X34299Y-19114D03*
X24358Y-26748D03*
X35260Y-16122D03*
X26043Y-20681D03*
X22827Y-20484D03*
X21043Y-18906D03*
X19874Y-17291D03*
X25969Y-22276D03*
X29650Y-21400D03*
X27642Y-26327D03*
X26614Y-26094D03*
X23929Y-21138D03*
X25421Y-21177D03*
X17000Y-13539D03*
X24087Y-20370D03*
X23780Y-27181D03*
X19886Y-23949D03*
X20189Y-27902D03*
X30728Y-25606D03*
X26500Y-23051D03*
X27772Y-19965D03*
G54D26*
X18620Y-29200D02*
X22920Y-29200D01*
X23170Y-28070D02*
X23170Y-28950D01*
X22920Y-29200D02*
X23170Y-28950D01*
X18620Y-29200D02*
X18303Y-29517D01*
X18303Y-29517D02*
X18303Y-30055D01*
X29650Y-29020D02*
X29440Y-28810D01*
X29440Y-28810D02*
X29440Y-28070D01*
X34272Y-30055D02*
X34272Y-29212D01*
X34272Y-29212D02*
X34080Y-29020D01*
X34080Y-29020D02*
X29650Y-29020D01*
G54D27*
X28031Y-23492D02*
X23984Y-23492D01*
X28047Y-23508D02*
X28031Y-23492D01*
X21851Y-22559D02*
X21390Y-22098D01*
X21390Y-22098D02*
X20748Y-22098D01*
X20748Y-22098D02*
X20689Y-22039D01*
X23984Y-23492D02*
X23953Y-23461D01*
X23051Y-22559D02*
X21851Y-22559D01*
X23953Y-23461D02*
X23051Y-22559D01*
X27638Y-23925D02*
X27556Y-23843D01*
X22839Y-23031D02*
X22836Y-23028D01*
X27556Y-23843D02*
X23651Y-23843D01*
X23651Y-23843D02*
X22839Y-23031D01*
X22836Y-23028D02*
X21547Y-23028D01*
X22866Y-23713D02*
X22350Y-23713D01*
X27512Y-24382D02*
X23535Y-24382D01*
X23535Y-24382D02*
X22866Y-23713D01*
G54D28*
X23689Y-22280D02*
X23460Y-22051D01*
X23460Y-22051D02*
X22350Y-22051D01*
G54D27*
X32760Y-23850D02*
X32760Y-22788D01*
X32760Y-22788D02*
X32598Y-22626D01*
X34314Y-21894D02*
X33005Y-21894D01*
X32800Y-21689D02*
X31441Y-21689D01*
X34490Y-22070D02*
X34314Y-21894D01*
X33005Y-21894D02*
X32800Y-21689D01*
X25949Y-27394D02*
X25094Y-26539D01*
G54D29*
X25094Y-26520D02*
X25094Y-26539D01*
G54D27*
X26209Y-27394D02*
X25949Y-27394D01*
G54D28*
X29076Y-27394D02*
X28425Y-27394D01*
X29200Y-27270D02*
X29076Y-27394D01*
G54D27*
X28425Y-27394D02*
X26209Y-27394D01*
X25953Y-21614D02*
X26624Y-20943D01*
X32488Y-25220D02*
X32488Y-25448D01*
X22953Y-21614D02*
X25953Y-21614D01*
X32488Y-25448D02*
X32796Y-25756D01*
X32488Y-24524D02*
X31988Y-24024D01*
X31563Y-20311D02*
X28429Y-20311D01*
X26624Y-20943D02*
X27797Y-20943D01*
X22858Y-21709D02*
X22953Y-21614D01*
X33488Y-25756D02*
X32796Y-25756D01*
X26624Y-20943D02*
X26626Y-20941D01*
X27797Y-20943D02*
X27801Y-20943D01*
X28429Y-20311D02*
X27797Y-20943D01*
X31988Y-24024D02*
X31988Y-22713D01*
X32488Y-25220D02*
X32488Y-24524D01*
X26477Y-26843D02*
X25689Y-26055D01*
X27913Y-26843D02*
X27910Y-26843D01*
X27910Y-26843D02*
X28357Y-26843D01*
X27910Y-26843D02*
X26477Y-26843D01*
X28357Y-26843D02*
X28610Y-26590D01*
X28610Y-26590D02*
X31720Y-26590D01*
G54D28*
X34480Y-21060D02*
X34490Y-21070D01*
G54D27*
X32418Y-21070D02*
X32240Y-21248D01*
X34490Y-21070D02*
X32418Y-21070D01*
X32240Y-21248D02*
X31177Y-21248D01*
X18339Y-19051D02*
X19197Y-19909D01*
X19197Y-19909D02*
X19720Y-19909D01*
X19059Y-17059D02*
X18161Y-16161D01*
X19701Y-18469D02*
X18984Y-17752D01*
X18984Y-17752D02*
X17980Y-17752D01*
X18161Y-16161D02*
X18161Y-15811D01*
X17398Y-19311D02*
X17902Y-19311D01*
X17189Y-19520D02*
X17398Y-19311D01*
G54D28*
X30161Y-16390D02*
X30157Y-16386D01*
G54D26*
X23130Y-14161D02*
X24130Y-14161D01*
X20236Y-28547D02*
X17075Y-28547D01*
G54D27*
X22531Y-25661D02*
X22523Y-25669D01*
X31472Y-26102D02*
X31469Y-26102D01*
X22523Y-25669D02*
X20378Y-25669D01*
X20378Y-25669D02*
X19819Y-26228D01*
G54D26*
X17075Y-28547D02*
X17075Y-27925D01*
G54D27*
X34299Y-19114D02*
X30669Y-19114D01*
G54D26*
X17075Y-27925D02*
X17169Y-27831D01*
G54D27*
X34343Y-27811D02*
X34386Y-27854D01*
G54D30*
X30430Y-22580D02*
X29860Y-22580D01*
G54D27*
X34386Y-27854D02*
X34433Y-27854D01*
G54D28*
X30646Y-19091D02*
X30161Y-18606D01*
X34161Y-15740D02*
X34161Y-14145D01*
G54D27*
X28614Y-28402D02*
X28118Y-28898D01*
X35484Y-29000D02*
X35484Y-28583D01*
G54D30*
X30750Y-22900D02*
X30430Y-22580D01*
G54D27*
X21976Y-18614D02*
X21976Y-20452D01*
G54D28*
X34516Y-16095D02*
X34161Y-15740D01*
G54D31*
X22319Y-21311D02*
X21965Y-21665D01*
G54D26*
X19130Y-14161D02*
X20130Y-14161D01*
X21130Y-14161D02*
X22130Y-14161D01*
G54D27*
X33488Y-24756D02*
X33488Y-23583D01*
X34299Y-19114D02*
X34291Y-19106D01*
G54D30*
X26228Y-13642D02*
X26228Y-12181D01*
G54D26*
X25759Y-28898D02*
X25500Y-29157D01*
G54D31*
X22319Y-20795D02*
X22319Y-21311D01*
G54D27*
X28614Y-28402D02*
X28614Y-27929D01*
G54D30*
X29860Y-22580D02*
X27180Y-22580D01*
G54D27*
X28610Y-27800D02*
X28614Y-27804D01*
G54D26*
X22130Y-14161D02*
X23130Y-14161D01*
G54D27*
X21976Y-20452D02*
X22319Y-20795D01*
G54D26*
X26780Y-28717D02*
X26599Y-28898D01*
G54D27*
X32035Y-25425D02*
X32031Y-25421D01*
X31571Y-22244D02*
X31571Y-22236D01*
X28704Y-20969D02*
X28705Y-20969D01*
X28614Y-27804D02*
X28614Y-27929D01*
G54D28*
X30161Y-16390D02*
X30161Y-18606D01*
G54D26*
X26599Y-28898D02*
X25759Y-28898D01*
G54D28*
X31248Y-13917D02*
X31165Y-14000D01*
G54D31*
X21976Y-18614D02*
X21972Y-18610D01*
G54D27*
X35256Y-29228D02*
X35484Y-29000D01*
G54D28*
X28169Y-16378D02*
X28177Y-16386D01*
X28169Y-16378D02*
X28169Y-14047D01*
G54D30*
X25709Y-14161D02*
X26228Y-13642D01*
G54D26*
X18130Y-14161D02*
X19130Y-14161D01*
X24130Y-14161D02*
X25130Y-14161D01*
G54D30*
X25130Y-14161D02*
X25709Y-14161D01*
G54D28*
X31165Y-16308D02*
X31087Y-16386D01*
G54D26*
X20130Y-14161D02*
X21130Y-14161D01*
G54D28*
X34516Y-16386D02*
X34516Y-16095D01*
G54D27*
X30669Y-19114D02*
X30646Y-19091D01*
X28693Y-20980D02*
X28704Y-20969D01*
G54D30*
X34516Y-16386D02*
X34512Y-16386D01*
G54D31*
X24465Y-30091D02*
X24465Y-30079D01*
G54D28*
X28417Y-13799D02*
X28169Y-14047D01*
G54D26*
X25500Y-29157D02*
X25500Y-30091D01*
G54D31*
X25272Y-17051D02*
X25268Y-17047D01*
G54D28*
X31165Y-16308D02*
X31165Y-14000D01*
G54D27*
X33488Y-23583D02*
X33240Y-23335D01*
G54D28*
X34161Y-14145D02*
X33839Y-13823D01*
G54D27*
X27122Y-27677D02*
X25500Y-27677D01*
X27713Y-28268D02*
X27122Y-27677D01*
G54D28*
X27713Y-29878D02*
X27500Y-30091D01*
G54D27*
X24571Y-26748D02*
X24358Y-26748D01*
X25500Y-27677D02*
X24571Y-26748D01*
X27713Y-28492D02*
X27713Y-28268D01*
X27713Y-28492D02*
X27713Y-29878D01*
G54D26*
X33039Y-28441D02*
X34800Y-28441D01*
X34800Y-28441D02*
X35461Y-27780D01*
X30616Y-27264D02*
X32084Y-27264D01*
X35461Y-16323D02*
X35260Y-16122D01*
X32084Y-27264D02*
X32820Y-28000D01*
X32820Y-28000D02*
X32820Y-28222D01*
X32820Y-28222D02*
X33039Y-28441D01*
X30616Y-27264D02*
X30440Y-27440D01*
X30440Y-28070D02*
X30440Y-27440D01*
X35461Y-27780D02*
X35461Y-16323D01*
G54D31*
X26043Y-20681D02*
X25996Y-20728D01*
G54D27*
X23071Y-20728D02*
X22827Y-20484D01*
X25996Y-20728D02*
X23071Y-20728D01*
X19874Y-17737D02*
X19874Y-17291D01*
X21043Y-18906D02*
X19874Y-17737D01*
G54D28*
X25969Y-22276D02*
X26845Y-21400D01*
G54D27*
X27020Y-21400D02*
X29650Y-21400D01*
G54D28*
X26845Y-21400D02*
X27020Y-21400D01*
X26614Y-26094D02*
X27409Y-26094D01*
X27409Y-26094D02*
X27642Y-26327D01*
G54D27*
X25382Y-21138D02*
X23929Y-21138D01*
G54D31*
X25421Y-21177D02*
X25382Y-21138D01*
G54D26*
X35470Y-12612D02*
X35039Y-12181D01*
X35039Y-12181D02*
X34220Y-12181D01*
X35221Y-14969D02*
X35470Y-14720D01*
X34665Y-14969D02*
X35221Y-14969D01*
X35470Y-14720D02*
X35470Y-12612D01*
X23130Y-13161D02*
X24130Y-13161D01*
X19130Y-13161D02*
X20130Y-13161D01*
X18126Y-13157D02*
X18130Y-13161D01*
X17000Y-13539D02*
X17382Y-13157D01*
X20130Y-13161D02*
X21130Y-13161D01*
X21130Y-13161D02*
X22130Y-13161D01*
X22130Y-13161D02*
X23130Y-13161D01*
X17382Y-13157D02*
X18126Y-13157D01*
X24130Y-13161D02*
X25130Y-13161D01*
X18130Y-13161D02*
X19130Y-13161D01*
X19185Y-24650D02*
X19886Y-23949D01*
X21067Y-26449D02*
X20189Y-27327D01*
G54D27*
X32662Y-26756D02*
X33488Y-26756D01*
G54D26*
X23780Y-27181D02*
X23048Y-26449D01*
X20189Y-27327D02*
X20189Y-27902D01*
G54D30*
X30533Y-23604D02*
X30728Y-23799D01*
G54D26*
X23048Y-26449D02*
X21067Y-26449D01*
G54D32*
X31230Y-23604D02*
X31035Y-23799D01*
X34490Y-20070D02*
X32682Y-20070D01*
X32682Y-20070D02*
X31980Y-20772D01*
G54D30*
X29980Y-23051D02*
X26500Y-23051D01*
G54D32*
X30657Y-21956D02*
X31230Y-22529D01*
G54D26*
X19874Y-27012D02*
X19496Y-27012D01*
G54D32*
X31230Y-22529D02*
X31230Y-23496D01*
X30657Y-21087D02*
X30657Y-21956D01*
G54D26*
X20189Y-27327D02*
X19874Y-27012D01*
X19496Y-27012D02*
X19185Y-26701D01*
X19185Y-26701D02*
X19185Y-24650D01*
G54D27*
X31512Y-25606D02*
X30728Y-25606D01*
G54D30*
X25487Y-20150D02*
X25267Y-20370D01*
G54D32*
X31230Y-23496D02*
X31230Y-23604D01*
G54D30*
X30728Y-25606D02*
X30728Y-24106D01*
G54D27*
X32059Y-26153D02*
X31512Y-25606D01*
X32059Y-26153D02*
X32662Y-26756D01*
G54D30*
X30728Y-23799D02*
X30728Y-24106D01*
G54D32*
X30972Y-20772D02*
X30657Y-21087D01*
G54D30*
X25267Y-20370D02*
X24087Y-20370D01*
X30533Y-23604D02*
X29980Y-23051D01*
G54D32*
X31980Y-20772D02*
X30972Y-20772D01*
X31035Y-23799D02*
X30728Y-23799D01*
G54D30*
X27587Y-20150D02*
X25487Y-20150D01*
X27772Y-19965D02*
X27587Y-20150D01*
G54D10*
G36*
X21241Y-30070D02*
X21170Y-30141D01*
X21099Y-30070D01*
X21170Y-29999D01*
X21241Y-30070D01*
X21241Y-30070D01*
G37*
G54D33*
X21241Y-30070D02*
X21170Y-30141D01*
X21099Y-30070D01*
X21170Y-29999D01*
X21241Y-30070D01*
G54D10*
G36*
X27394Y-29447D02*
X27387Y-29447D01*
X27176Y-29534D01*
X27015Y-29695D01*
X27000Y-29730D01*
X26986Y-29696D01*
X26825Y-29535D01*
X26615Y-29447D01*
X26387Y-29447D01*
X26176Y-29534D01*
X26071Y-29638D01*
X26045Y-29576D01*
X25975Y-29506D01*
X25883Y-29468D01*
X25612Y-29467D01*
X25550Y-29529D01*
X25550Y-29991D01*
X25550Y-30041D01*
X25550Y-30141D01*
X25450Y-30141D01*
X25450Y-30041D01*
X25450Y-29529D01*
X25388Y-29467D01*
X25117Y-29468D01*
X25025Y-29506D01*
X24955Y-29576D01*
X24917Y-29667D01*
X24917Y-29766D01*
X24916Y-29979D01*
X24978Y-30041D01*
X25450Y-30041D01*
X25450Y-30141D01*
X25400Y-30141D01*
X24978Y-30141D01*
X24916Y-30203D01*
X24917Y-30416D01*
X24917Y-30467D01*
X23805Y-30467D01*
X23698Y-30467D01*
X23703Y-30462D01*
X23665Y-30424D01*
X23718Y-30406D01*
X23805Y-30170D01*
X23795Y-29920D01*
X23718Y-29734D01*
X23614Y-29697D01*
X23276Y-30035D01*
X23241Y-30070D01*
X23170Y-30141D01*
X23099Y-30070D01*
X23170Y-29999D01*
X23205Y-29964D01*
X23543Y-29626D01*
X23506Y-29522D01*
X23304Y-29447D01*
X23486Y-29266D01*
X23583Y-29122D01*
X23583Y-29121D01*
X23617Y-28950D01*
X23617Y-28663D01*
X23676Y-28604D01*
X23714Y-28513D01*
X23714Y-28414D01*
X23714Y-27628D01*
X23708Y-27613D01*
X23780Y-27628D01*
X23951Y-27594D01*
X24096Y-27497D01*
X24193Y-27352D01*
X24227Y-27181D01*
X24221Y-27153D01*
X24272Y-27175D01*
X24442Y-27175D01*
X24515Y-27144D01*
X25272Y-27900D01*
X25274Y-27903D01*
X25377Y-27971D01*
X25378Y-27972D01*
X25475Y-27991D01*
X25499Y-27996D01*
X25499Y-27995D01*
X25500Y-27996D01*
X26989Y-27996D01*
X27394Y-28400D01*
X27394Y-28492D01*
X27394Y-29447D01*
X27394Y-29447D01*
G37*
G54D33*
X27394Y-29447D02*
X27387Y-29447D01*
X27176Y-29534D01*
X27015Y-29695D01*
X27000Y-29730D01*
X26986Y-29696D01*
X26825Y-29535D01*
X26615Y-29447D01*
X26387Y-29447D01*
X26176Y-29534D01*
X26071Y-29638D01*
X26045Y-29576D01*
X25975Y-29506D01*
X25883Y-29468D01*
X25612Y-29467D01*
X25550Y-29529D01*
X25550Y-29991D01*
X25550Y-30041D01*
X25550Y-30141D01*
X25450Y-30141D01*
X25450Y-30041D01*
X25450Y-29529D01*
X25388Y-29467D01*
X25117Y-29468D01*
X25025Y-29506D01*
X24955Y-29576D01*
X24917Y-29667D01*
X24917Y-29766D01*
X24916Y-29979D01*
X24978Y-30041D01*
X25450Y-30041D01*
X25450Y-30141D01*
X25400Y-30141D01*
X24978Y-30141D01*
X24916Y-30203D01*
X24917Y-30416D01*
X24917Y-30467D01*
X23805Y-30467D01*
X23698Y-30467D01*
X23703Y-30462D01*
X23665Y-30424D01*
X23718Y-30406D01*
X23805Y-30170D01*
X23795Y-29920D01*
X23718Y-29734D01*
X23614Y-29697D01*
X23276Y-30035D01*
X23241Y-30070D01*
X23170Y-30141D01*
X23099Y-30070D01*
X23170Y-29999D01*
X23205Y-29964D01*
X23543Y-29626D01*
X23506Y-29522D01*
X23304Y-29447D01*
X23486Y-29266D01*
X23583Y-29122D01*
X23583Y-29121D01*
X23617Y-28950D01*
X23617Y-28663D01*
X23676Y-28604D01*
X23714Y-28513D01*
X23714Y-28414D01*
X23714Y-27628D01*
X23708Y-27613D01*
X23780Y-27628D01*
X23951Y-27594D01*
X24096Y-27497D01*
X24193Y-27352D01*
X24227Y-27181D01*
X24221Y-27153D01*
X24272Y-27175D01*
X24442Y-27175D01*
X24515Y-27144D01*
X25272Y-27900D01*
X25274Y-27903D01*
X25377Y-27971D01*
X25378Y-27972D01*
X25475Y-27991D01*
X25499Y-27996D01*
X25499Y-27995D01*
X25500Y-27996D01*
X26989Y-27996D01*
X27394Y-28400D01*
X27394Y-28492D01*
X27394Y-29447D01*
G54D10*
G36*
X30872Y-23367D02*
X30821Y-23316D01*
X30268Y-22763D01*
X30136Y-22675D01*
X29980Y-22644D01*
X26633Y-22644D01*
X26586Y-22624D01*
X26416Y-22624D01*
X26259Y-22689D01*
X26139Y-22808D01*
X26073Y-22965D01*
X26073Y-23135D01*
X26088Y-23173D01*
X24116Y-23173D01*
X23650Y-22707D01*
X23773Y-22707D01*
X23930Y-22642D01*
X24050Y-22523D01*
X24116Y-22366D01*
X24116Y-22196D01*
X24051Y-22039D01*
X23945Y-21933D01*
X25708Y-21933D01*
X25608Y-22033D01*
X25542Y-22190D01*
X25542Y-22360D01*
X25607Y-22517D01*
X25726Y-22637D01*
X25883Y-22703D01*
X26053Y-22703D01*
X26210Y-22638D01*
X26330Y-22519D01*
X26396Y-22362D01*
X26396Y-22271D01*
X26960Y-21707D01*
X27020Y-21719D01*
X29365Y-21719D01*
X29407Y-21761D01*
X29564Y-21827D01*
X29734Y-21827D01*
X29891Y-21762D01*
X30011Y-21643D01*
X30077Y-21486D01*
X30077Y-21316D01*
X30012Y-21159D01*
X29893Y-21039D01*
X29736Y-20973D01*
X29566Y-20973D01*
X29409Y-21038D01*
X29365Y-21081D01*
X28110Y-21081D01*
X28561Y-20630D01*
X30608Y-20630D01*
X30404Y-20834D01*
X30326Y-20950D01*
X30299Y-21087D01*
X30299Y-21956D01*
X30326Y-22093D01*
X30404Y-22209D01*
X30872Y-22677D01*
X30872Y-23367D01*
X30872Y-23367D01*
G37*
G54D33*
X30872Y-23367D02*
X30821Y-23316D01*
X30268Y-22763D01*
X30136Y-22675D01*
X29980Y-22644D01*
X26633Y-22644D01*
X26586Y-22624D01*
X26416Y-22624D01*
X26259Y-22689D01*
X26139Y-22808D01*
X26073Y-22965D01*
X26073Y-23135D01*
X26088Y-23173D01*
X24116Y-23173D01*
X23650Y-22707D01*
X23773Y-22707D01*
X23930Y-22642D01*
X24050Y-22523D01*
X24116Y-22366D01*
X24116Y-22196D01*
X24051Y-22039D01*
X23945Y-21933D01*
X25708Y-21933D01*
X25608Y-22033D01*
X25542Y-22190D01*
X25542Y-22360D01*
X25607Y-22517D01*
X25726Y-22637D01*
X25883Y-22703D01*
X26053Y-22703D01*
X26210Y-22638D01*
X26330Y-22519D01*
X26396Y-22362D01*
X26396Y-22271D01*
X26960Y-21707D01*
X27020Y-21719D01*
X29365Y-21719D01*
X29407Y-21761D01*
X29564Y-21827D01*
X29734Y-21827D01*
X29891Y-21762D01*
X30011Y-21643D01*
X30077Y-21486D01*
X30077Y-21316D01*
X30012Y-21159D01*
X29893Y-21039D01*
X29736Y-20973D01*
X29566Y-20973D01*
X29409Y-21038D01*
X29365Y-21081D01*
X28110Y-21081D01*
X28561Y-20630D01*
X30608Y-20630D01*
X30404Y-20834D01*
X30326Y-20950D01*
X30299Y-21087D01*
X30299Y-21956D01*
X30326Y-22093D01*
X30404Y-22209D01*
X30872Y-22677D01*
X30872Y-23367D01*
G54D10*
G36*
X32538Y-28573D02*
X31958Y-28573D01*
X31984Y-28513D01*
X31984Y-28414D01*
X31984Y-27796D01*
X32373Y-28185D01*
X32373Y-28222D01*
X32407Y-28393D01*
X32504Y-28538D01*
X32538Y-28573D01*
X32538Y-28573D01*
G37*
G54D33*
X32538Y-28573D02*
X31958Y-28573D01*
X31984Y-28513D01*
X31984Y-28414D01*
X31984Y-27796D01*
X32373Y-28185D01*
X32373Y-28222D01*
X32407Y-28393D01*
X32504Y-28538D01*
X32538Y-28573D01*
G54D10*
G36*
X33127Y-26255D02*
X33093Y-26270D01*
X32932Y-26431D01*
X32929Y-26437D01*
X32794Y-26437D01*
X32285Y-25927D01*
X32282Y-25925D01*
X31738Y-25380D01*
X31634Y-25311D01*
X31512Y-25286D01*
X31507Y-25287D01*
X31135Y-25287D01*
X31135Y-24137D01*
X31172Y-24130D01*
X31288Y-24052D01*
X31483Y-23858D01*
X31483Y-23857D01*
X31534Y-23780D01*
X31560Y-23742D01*
X31561Y-23741D01*
X31587Y-23605D01*
X31588Y-23604D01*
X31588Y-23496D01*
X31588Y-22862D01*
X31626Y-22954D01*
X31669Y-22997D01*
X31669Y-24019D01*
X31668Y-24024D01*
X31693Y-24146D01*
X31762Y-24250D01*
X32169Y-24656D01*
X32169Y-25220D01*
X32169Y-25443D01*
X32168Y-25448D01*
X32193Y-25570D01*
X32262Y-25674D01*
X32568Y-25979D01*
X32570Y-25982D01*
X32673Y-26050D01*
X32674Y-26051D01*
X32796Y-26075D01*
X32928Y-26075D01*
X32931Y-26080D01*
X33092Y-26241D01*
X33127Y-26255D01*
X33127Y-26255D01*
G37*
G54D33*
X33127Y-26255D02*
X33093Y-26270D01*
X32932Y-26431D01*
X32929Y-26437D01*
X32794Y-26437D01*
X32285Y-25927D01*
X32282Y-25925D01*
X31738Y-25380D01*
X31634Y-25311D01*
X31512Y-25286D01*
X31507Y-25287D01*
X31135Y-25287D01*
X31135Y-24137D01*
X31172Y-24130D01*
X31288Y-24052D01*
X31483Y-23858D01*
X31483Y-23857D01*
X31534Y-23780D01*
X31560Y-23742D01*
X31561Y-23741D01*
X31587Y-23605D01*
X31588Y-23604D01*
X31588Y-23496D01*
X31588Y-22862D01*
X31626Y-22954D01*
X31669Y-22997D01*
X31669Y-24019D01*
X31668Y-24024D01*
X31693Y-24146D01*
X31762Y-24250D01*
X32169Y-24656D01*
X32169Y-25220D01*
X32169Y-25443D01*
X32168Y-25448D01*
X32193Y-25570D01*
X32262Y-25674D01*
X32568Y-25979D01*
X32570Y-25982D01*
X32673Y-26050D01*
X32674Y-26051D01*
X32796Y-26075D01*
X32928Y-26075D01*
X32931Y-26080D01*
X33092Y-26241D01*
X33127Y-26255D01*
G54D10*
G36*
X33322Y-30105D02*
X33222Y-30105D01*
X33172Y-30105D01*
X32750Y-30105D01*
X32688Y-30167D01*
X32689Y-30380D01*
X32689Y-30467D01*
X32075Y-30467D01*
X31968Y-30467D01*
X31973Y-30462D01*
X31935Y-30424D01*
X31988Y-30406D01*
X32075Y-30170D01*
X32065Y-29920D01*
X31988Y-29734D01*
X31884Y-29697D01*
X31546Y-30035D01*
X31511Y-30070D01*
X31440Y-30141D01*
X31369Y-30070D01*
X31334Y-30035D01*
X30996Y-29697D01*
X30892Y-29734D01*
X30805Y-29970D01*
X30815Y-30220D01*
X30892Y-30406D01*
X30944Y-30424D01*
X30907Y-30462D01*
X30912Y-30467D01*
X30075Y-30467D01*
X29968Y-30467D01*
X29973Y-30462D01*
X29935Y-30424D01*
X29988Y-30406D01*
X30075Y-30170D01*
X30065Y-29920D01*
X29988Y-29734D01*
X29884Y-29697D01*
X29546Y-30035D01*
X29511Y-30070D01*
X29440Y-30141D01*
X29369Y-30070D01*
X29334Y-30035D01*
X28996Y-29697D01*
X28892Y-29734D01*
X28805Y-29970D01*
X28815Y-30220D01*
X28892Y-30406D01*
X28944Y-30424D01*
X28907Y-30462D01*
X28912Y-30467D01*
X27993Y-30467D01*
X28073Y-30277D01*
X28073Y-30049D01*
X28073Y-29907D01*
X28032Y-29807D01*
X28032Y-28492D01*
X28032Y-28268D01*
X28031Y-28267D01*
X28032Y-28267D01*
X28027Y-28243D01*
X28008Y-28146D01*
X28007Y-28145D01*
X27939Y-28042D01*
X27936Y-28040D01*
X27609Y-27713D01*
X28425Y-27713D01*
X28526Y-27693D01*
X28896Y-27693D01*
X28896Y-27726D01*
X28896Y-28512D01*
X28934Y-28604D01*
X28993Y-28663D01*
X28993Y-28810D01*
X29027Y-28981D01*
X29124Y-29126D01*
X29333Y-29335D01*
X29334Y-29336D01*
X29478Y-29432D01*
X29479Y-29433D01*
X29497Y-29436D01*
X29290Y-29445D01*
X29104Y-29522D01*
X29067Y-29626D01*
X29440Y-29999D01*
X29813Y-29626D01*
X29776Y-29522D01*
X29599Y-29456D01*
X29649Y-29466D01*
X29650Y-29467D01*
X31236Y-29467D01*
X31104Y-29522D01*
X31067Y-29626D01*
X31440Y-29999D01*
X31813Y-29626D01*
X31776Y-29522D01*
X31626Y-29467D01*
X32804Y-29467D01*
X32797Y-29470D01*
X32727Y-29540D01*
X32689Y-29631D01*
X32689Y-29730D01*
X32688Y-29943D01*
X32750Y-30005D01*
X33172Y-30005D01*
X33222Y-30005D01*
X33322Y-30005D01*
X33322Y-30105D01*
X33322Y-30105D01*
G37*
G54D33*
X33322Y-30105D02*
X33222Y-30105D01*
X33172Y-30105D01*
X32750Y-30105D01*
X32688Y-30167D01*
X32689Y-30380D01*
X32689Y-30467D01*
X32075Y-30467D01*
X31968Y-30467D01*
X31973Y-30462D01*
X31935Y-30424D01*
X31988Y-30406D01*
X32075Y-30170D01*
X32065Y-29920D01*
X31988Y-29734D01*
X31884Y-29697D01*
X31546Y-30035D01*
X31511Y-30070D01*
X31440Y-30141D01*
X31369Y-30070D01*
X31334Y-30035D01*
X30996Y-29697D01*
X30892Y-29734D01*
X30805Y-29970D01*
X30815Y-30220D01*
X30892Y-30406D01*
X30944Y-30424D01*
X30907Y-30462D01*
X30912Y-30467D01*
X30075Y-30467D01*
X29968Y-30467D01*
X29973Y-30462D01*
X29935Y-30424D01*
X29988Y-30406D01*
X30075Y-30170D01*
X30065Y-29920D01*
X29988Y-29734D01*
X29884Y-29697D01*
X29546Y-30035D01*
X29511Y-30070D01*
X29440Y-30141D01*
X29369Y-30070D01*
X29334Y-30035D01*
X28996Y-29697D01*
X28892Y-29734D01*
X28805Y-29970D01*
X28815Y-30220D01*
X28892Y-30406D01*
X28944Y-30424D01*
X28907Y-30462D01*
X28912Y-30467D01*
X27993Y-30467D01*
X28073Y-30277D01*
X28073Y-30049D01*
X28073Y-29907D01*
X28032Y-29807D01*
X28032Y-28492D01*
X28032Y-28268D01*
X28031Y-28267D01*
X28032Y-28267D01*
X28027Y-28243D01*
X28008Y-28146D01*
X28007Y-28145D01*
X27939Y-28042D01*
X27936Y-28040D01*
X27609Y-27713D01*
X28425Y-27713D01*
X28526Y-27693D01*
X28896Y-27693D01*
X28896Y-27726D01*
X28896Y-28512D01*
X28934Y-28604D01*
X28993Y-28663D01*
X28993Y-28810D01*
X29027Y-28981D01*
X29124Y-29126D01*
X29333Y-29335D01*
X29334Y-29336D01*
X29478Y-29432D01*
X29479Y-29433D01*
X29497Y-29436D01*
X29290Y-29445D01*
X29104Y-29522D01*
X29067Y-29626D01*
X29440Y-29999D01*
X29813Y-29626D01*
X29776Y-29522D01*
X29599Y-29456D01*
X29649Y-29466D01*
X29650Y-29467D01*
X31236Y-29467D01*
X31104Y-29522D01*
X31067Y-29626D01*
X31440Y-29999D01*
X31813Y-29626D01*
X31776Y-29522D01*
X31626Y-29467D01*
X32804Y-29467D01*
X32797Y-29470D01*
X32727Y-29540D01*
X32689Y-29631D01*
X32689Y-29730D01*
X32688Y-29943D01*
X32750Y-30005D01*
X33172Y-30005D01*
X33222Y-30005D01*
X33322Y-30005D01*
X33322Y-30105D01*
G54D10*
G36*
X35014Y-24401D02*
X34884Y-24271D01*
X34674Y-24183D01*
X34446Y-24183D01*
X34440Y-24183D01*
X34440Y-23568D01*
X34440Y-23120D01*
X33912Y-23120D01*
X33865Y-23207D01*
X33874Y-23228D01*
X33975Y-23422D01*
X34143Y-23562D01*
X34352Y-23627D01*
X34440Y-23568D01*
X34440Y-24183D01*
X34304Y-24183D01*
X34093Y-24270D01*
X33982Y-24380D01*
X33843Y-24255D01*
X33629Y-24180D01*
X33538Y-24236D01*
X33538Y-24656D01*
X33538Y-24706D01*
X33538Y-24806D01*
X33438Y-24806D01*
X33438Y-24706D01*
X33438Y-24236D01*
X33347Y-24180D01*
X33133Y-24255D01*
X32964Y-24406D01*
X32865Y-24611D01*
X32863Y-24616D01*
X32910Y-24706D01*
X33438Y-24706D01*
X33438Y-24806D01*
X33388Y-24806D01*
X32910Y-24806D01*
X32863Y-24896D01*
X32865Y-24901D01*
X32964Y-25106D01*
X33130Y-25254D01*
X33093Y-25270D01*
X32932Y-25431D01*
X32929Y-25437D01*
X32928Y-25437D01*
X32807Y-25315D01*
X32807Y-25220D01*
X32807Y-24528D01*
X32807Y-24524D01*
X32808Y-24524D01*
X32783Y-24402D01*
X32714Y-24298D01*
X32711Y-24296D01*
X32692Y-24277D01*
X32844Y-24277D01*
X33001Y-24212D01*
X33121Y-24093D01*
X33187Y-23936D01*
X33187Y-23766D01*
X33122Y-23609D01*
X33079Y-23565D01*
X33079Y-22792D01*
X33079Y-22788D01*
X33080Y-22788D01*
X33055Y-22666D01*
X33025Y-22621D01*
X33025Y-22620D01*
X33025Y-22542D01*
X32960Y-22385D01*
X32841Y-22265D01*
X32684Y-22199D01*
X32514Y-22199D01*
X32357Y-22264D01*
X32249Y-22370D01*
X32231Y-22352D01*
X32074Y-22286D01*
X31904Y-22286D01*
X31747Y-22351D01*
X31627Y-22470D01*
X31588Y-22562D01*
X31588Y-22529D01*
X31561Y-22392D01*
X31483Y-22276D01*
X31299Y-22092D01*
X31355Y-22116D01*
X31525Y-22116D01*
X31682Y-22051D01*
X31725Y-22008D01*
X32667Y-22008D01*
X32777Y-22117D01*
X32779Y-22120D01*
X32882Y-22188D01*
X32883Y-22189D01*
X32980Y-22208D01*
X33004Y-22213D01*
X33004Y-22212D01*
X33005Y-22213D01*
X33859Y-22213D01*
X33930Y-22384D01*
X34086Y-22540D01*
X34163Y-22571D01*
X34143Y-22578D01*
X33975Y-22718D01*
X33874Y-22912D01*
X33865Y-22933D01*
X33912Y-23020D01*
X34390Y-23020D01*
X34440Y-23020D01*
X34540Y-23020D01*
X34540Y-23120D01*
X34540Y-23170D01*
X34540Y-23568D01*
X34628Y-23627D01*
X34837Y-23562D01*
X35005Y-23422D01*
X35014Y-23404D01*
X35014Y-24401D01*
X35014Y-24401D01*
G37*
G54D33*
X35014Y-24401D02*
X34884Y-24271D01*
X34674Y-24183D01*
X34446Y-24183D01*
X34440Y-24183D01*
X34440Y-23568D01*
X34440Y-23120D01*
X33912Y-23120D01*
X33865Y-23207D01*
X33874Y-23228D01*
X33975Y-23422D01*
X34143Y-23562D01*
X34352Y-23627D01*
X34440Y-23568D01*
X34440Y-24183D01*
X34304Y-24183D01*
X34093Y-24270D01*
X33982Y-24380D01*
X33843Y-24255D01*
X33629Y-24180D01*
X33538Y-24236D01*
X33538Y-24656D01*
X33538Y-24706D01*
X33538Y-24806D01*
X33438Y-24806D01*
X33438Y-24706D01*
X33438Y-24236D01*
X33347Y-24180D01*
X33133Y-24255D01*
X32964Y-24406D01*
X32865Y-24611D01*
X32863Y-24616D01*
X32910Y-24706D01*
X33438Y-24706D01*
X33438Y-24806D01*
X33388Y-24806D01*
X32910Y-24806D01*
X32863Y-24896D01*
X32865Y-24901D01*
X32964Y-25106D01*
X33130Y-25254D01*
X33093Y-25270D01*
X32932Y-25431D01*
X32929Y-25437D01*
X32928Y-25437D01*
X32807Y-25315D01*
X32807Y-25220D01*
X32807Y-24528D01*
X32807Y-24524D01*
X32808Y-24524D01*
X32783Y-24402D01*
X32714Y-24298D01*
X32711Y-24296D01*
X32692Y-24277D01*
X32844Y-24277D01*
X33001Y-24212D01*
X33121Y-24093D01*
X33187Y-23936D01*
X33187Y-23766D01*
X33122Y-23609D01*
X33079Y-23565D01*
X33079Y-22792D01*
X33079Y-22788D01*
X33080Y-22788D01*
X33055Y-22666D01*
X33025Y-22621D01*
X33025Y-22620D01*
X33025Y-22542D01*
X32960Y-22385D01*
X32841Y-22265D01*
X32684Y-22199D01*
X32514Y-22199D01*
X32357Y-22264D01*
X32249Y-22370D01*
X32231Y-22352D01*
X32074Y-22286D01*
X31904Y-22286D01*
X31747Y-22351D01*
X31627Y-22470D01*
X31588Y-22562D01*
X31588Y-22529D01*
X31561Y-22392D01*
X31483Y-22276D01*
X31299Y-22092D01*
X31355Y-22116D01*
X31525Y-22116D01*
X31682Y-22051D01*
X31725Y-22008D01*
X32667Y-22008D01*
X32777Y-22117D01*
X32779Y-22120D01*
X32882Y-22188D01*
X32883Y-22189D01*
X32980Y-22208D01*
X33004Y-22213D01*
X33004Y-22212D01*
X33005Y-22213D01*
X33859Y-22213D01*
X33930Y-22384D01*
X34086Y-22540D01*
X34163Y-22571D01*
X34143Y-22578D01*
X33975Y-22718D01*
X33874Y-22912D01*
X33865Y-22933D01*
X33912Y-23020D01*
X34390Y-23020D01*
X34440Y-23020D01*
X34540Y-23020D01*
X34540Y-23120D01*
X34540Y-23170D01*
X34540Y-23568D01*
X34628Y-23627D01*
X34837Y-23562D01*
X35005Y-23422D01*
X35014Y-23404D01*
X35014Y-24401D01*
G54D10*
G36*
X35014Y-27594D02*
X34614Y-27994D01*
X33265Y-27994D01*
X33233Y-27829D01*
X33232Y-27828D01*
X33136Y-27684D01*
X33135Y-27683D01*
X32400Y-26948D01*
X32255Y-26851D01*
X32087Y-26817D01*
X32142Y-26687D01*
X32434Y-26979D01*
X32436Y-26982D01*
X32539Y-27050D01*
X32540Y-27051D01*
X32637Y-27070D01*
X32661Y-27075D01*
X32661Y-27074D01*
X32662Y-27075D01*
X32928Y-27075D01*
X32931Y-27080D01*
X33092Y-27241D01*
X33302Y-27329D01*
X33530Y-27329D01*
X33672Y-27329D01*
X33883Y-27242D01*
X33900Y-27224D01*
X33903Y-27231D01*
X33973Y-27301D01*
X34064Y-27339D01*
X34163Y-27339D01*
X34911Y-27339D01*
X35003Y-27301D01*
X35014Y-27290D01*
X35014Y-27594D01*
X35014Y-27594D01*
G37*
G54D33*
X35014Y-27594D02*
X34614Y-27994D01*
X33265Y-27994D01*
X33233Y-27829D01*
X33232Y-27828D01*
X33136Y-27684D01*
X33135Y-27683D01*
X32400Y-26948D01*
X32255Y-26851D01*
X32087Y-26817D01*
X32142Y-26687D01*
X32434Y-26979D01*
X32436Y-26982D01*
X32539Y-27050D01*
X32540Y-27051D01*
X32637Y-27070D01*
X32661Y-27075D01*
X32661Y-27074D01*
X32662Y-27075D01*
X32928Y-27075D01*
X32931Y-27080D01*
X33092Y-27241D01*
X33302Y-27329D01*
X33530Y-27329D01*
X33672Y-27329D01*
X33883Y-27242D01*
X33900Y-27224D01*
X33903Y-27231D01*
X33973Y-27301D01*
X34064Y-27339D01*
X34163Y-27339D01*
X34911Y-27339D01*
X35003Y-27301D01*
X35014Y-27290D01*
X35014Y-27594D01*
G54D10*
G36*
X35620Y-15850D02*
X35576Y-15806D01*
X35431Y-15709D01*
X35260Y-15675D01*
X35089Y-15709D01*
X34944Y-15806D01*
X34847Y-15951D01*
X34813Y-16122D01*
X34847Y-16293D01*
X34944Y-16438D01*
X35014Y-16508D01*
X35014Y-17398D01*
X34861Y-17304D01*
X34802Y-17287D01*
X34715Y-17334D01*
X34715Y-17869D01*
X34715Y-17919D01*
X34715Y-18019D01*
X34715Y-18069D01*
X34715Y-18604D01*
X34802Y-18651D01*
X34861Y-18634D01*
X35014Y-18539D01*
X35014Y-19553D01*
X35005Y-19544D01*
X34914Y-19506D01*
X34815Y-19506D01*
X34615Y-19506D01*
X34615Y-18604D01*
X34615Y-18069D01*
X34615Y-18019D01*
X34615Y-17919D01*
X34615Y-17869D01*
X34615Y-17334D01*
X34528Y-17287D01*
X34469Y-17304D01*
X34283Y-17419D01*
X34163Y-17584D01*
X34130Y-17505D01*
X33976Y-17351D01*
X33774Y-17267D01*
X33556Y-17267D01*
X33354Y-17351D01*
X33200Y-17505D01*
X33165Y-17589D01*
X33130Y-17505D01*
X32976Y-17351D01*
X32774Y-17267D01*
X32556Y-17267D01*
X32354Y-17351D01*
X32200Y-17505D01*
X32165Y-17589D01*
X32130Y-17505D01*
X31976Y-17351D01*
X31774Y-17267D01*
X31556Y-17267D01*
X31354Y-17351D01*
X31200Y-17505D01*
X31165Y-17589D01*
X31130Y-17505D01*
X30976Y-17351D01*
X30774Y-17267D01*
X30556Y-17267D01*
X30354Y-17351D01*
X30200Y-17505D01*
X30165Y-17589D01*
X30130Y-17505D01*
X29976Y-17351D01*
X29774Y-17267D01*
X29556Y-17267D01*
X29354Y-17351D01*
X29200Y-17505D01*
X29165Y-17589D01*
X29130Y-17505D01*
X28976Y-17351D01*
X28774Y-17267D01*
X28556Y-17267D01*
X28354Y-17351D01*
X28200Y-17505D01*
X28165Y-17589D01*
X28130Y-17505D01*
X27976Y-17351D01*
X27774Y-17267D01*
X27556Y-17267D01*
X27354Y-17351D01*
X27224Y-17481D01*
X27224Y-17470D01*
X27186Y-17378D01*
X27116Y-17308D01*
X27025Y-17270D01*
X26926Y-17270D01*
X26306Y-17270D01*
X26214Y-17308D01*
X26144Y-17378D01*
X26106Y-17469D01*
X26106Y-17568D01*
X26106Y-18468D01*
X26144Y-18560D01*
X26214Y-18630D01*
X26305Y-18668D01*
X26404Y-18668D01*
X27024Y-18668D01*
X27116Y-18630D01*
X27186Y-18560D01*
X27224Y-18469D01*
X27224Y-18457D01*
X27354Y-18587D01*
X27556Y-18671D01*
X27774Y-18671D01*
X27976Y-18587D01*
X28130Y-18433D01*
X28165Y-18348D01*
X28200Y-18433D01*
X28354Y-18587D01*
X28556Y-18671D01*
X28774Y-18671D01*
X28976Y-18587D01*
X29130Y-18433D01*
X29165Y-18348D01*
X29200Y-18433D01*
X29354Y-18587D01*
X29556Y-18671D01*
X29774Y-18671D01*
X29976Y-18587D01*
X30130Y-18433D01*
X30165Y-18348D01*
X30200Y-18433D01*
X30354Y-18587D01*
X30556Y-18671D01*
X30774Y-18671D01*
X30976Y-18587D01*
X31130Y-18433D01*
X31165Y-18348D01*
X31200Y-18433D01*
X31354Y-18587D01*
X31556Y-18671D01*
X31774Y-18671D01*
X31976Y-18587D01*
X32130Y-18433D01*
X32165Y-18348D01*
X32200Y-18433D01*
X32354Y-18587D01*
X32556Y-18671D01*
X32774Y-18671D01*
X32976Y-18587D01*
X33130Y-18433D01*
X33165Y-18348D01*
X33200Y-18433D01*
X33354Y-18587D01*
X33556Y-18671D01*
X33774Y-18671D01*
X33976Y-18587D01*
X34130Y-18433D01*
X34163Y-18353D01*
X34283Y-18519D01*
X34469Y-18634D01*
X34528Y-18651D01*
X34615Y-18604D01*
X34615Y-19506D01*
X34067Y-19506D01*
X33975Y-19544D01*
X33905Y-19614D01*
X33867Y-19705D01*
X33867Y-19712D01*
X32682Y-19712D01*
X32545Y-19739D01*
X32506Y-19765D01*
X32428Y-19817D01*
X31990Y-20255D01*
X31990Y-20227D01*
X31925Y-20070D01*
X31806Y-19950D01*
X31649Y-19884D01*
X31479Y-19884D01*
X31322Y-19949D01*
X31278Y-19992D01*
X28429Y-19992D01*
X28428Y-19992D01*
X28404Y-19996D01*
X28307Y-20016D01*
X28203Y-20085D01*
X28201Y-20087D01*
X28170Y-20118D01*
X28199Y-20051D01*
X28199Y-19881D01*
X28134Y-19724D01*
X28015Y-19604D01*
X27858Y-19538D01*
X27688Y-19538D01*
X27531Y-19603D01*
X27411Y-19722D01*
X27402Y-19743D01*
X25673Y-19743D01*
X25673Y-14296D01*
X25611Y-14211D01*
X25180Y-14211D01*
X25180Y-14739D01*
X25265Y-14786D01*
X25299Y-14772D01*
X25484Y-14668D01*
X25616Y-14501D01*
X25673Y-14296D01*
X25673Y-19743D01*
X25487Y-19743D01*
X25331Y-19774D01*
X25199Y-19862D01*
X25098Y-19963D01*
X25080Y-19963D01*
X25080Y-14739D01*
X25080Y-14211D01*
X24649Y-14211D01*
X24630Y-14237D01*
X24611Y-14211D01*
X24180Y-14211D01*
X24180Y-14739D01*
X24265Y-14786D01*
X24299Y-14772D01*
X24484Y-14668D01*
X24616Y-14501D01*
X24630Y-14450D01*
X24644Y-14501D01*
X24776Y-14668D01*
X24961Y-14772D01*
X24995Y-14786D01*
X25080Y-14739D01*
X25080Y-19963D01*
X24220Y-19963D01*
X24173Y-19943D01*
X24080Y-19943D01*
X24080Y-14739D01*
X24080Y-14211D01*
X23649Y-14211D01*
X23630Y-14237D01*
X23611Y-14211D01*
X23180Y-14211D01*
X23180Y-14739D01*
X23265Y-14786D01*
X23299Y-14772D01*
X23484Y-14668D01*
X23616Y-14501D01*
X23630Y-14450D01*
X23644Y-14501D01*
X23776Y-14668D01*
X23961Y-14772D01*
X23995Y-14786D01*
X24080Y-14739D01*
X24080Y-19943D01*
X24003Y-19943D01*
X23846Y-20008D01*
X23726Y-20127D01*
X23660Y-20284D01*
X23660Y-20409D01*
X23254Y-20409D01*
X23254Y-20400D01*
X23189Y-20243D01*
X23080Y-20133D01*
X23080Y-14739D01*
X23080Y-14211D01*
X22649Y-14211D01*
X22630Y-14237D01*
X22611Y-14211D01*
X22180Y-14211D01*
X22180Y-14739D01*
X22265Y-14786D01*
X22299Y-14772D01*
X22484Y-14668D01*
X22616Y-14501D01*
X22630Y-14450D01*
X22644Y-14501D01*
X22776Y-14668D01*
X22961Y-14772D01*
X22995Y-14786D01*
X23080Y-14739D01*
X23080Y-20133D01*
X23070Y-20123D01*
X22913Y-20057D01*
X22743Y-20057D01*
X22586Y-20122D01*
X22466Y-20241D01*
X22400Y-20398D01*
X22400Y-20568D01*
X22465Y-20725D01*
X22584Y-20845D01*
X22741Y-20911D01*
X22802Y-20911D01*
X22845Y-20954D01*
X22949Y-21023D01*
X23071Y-21048D01*
X23071Y-21047D01*
X23075Y-21047D01*
X23504Y-21047D01*
X23502Y-21052D01*
X23502Y-21222D01*
X23532Y-21295D01*
X22974Y-21295D01*
X22944Y-21282D01*
X22774Y-21282D01*
X22617Y-21347D01*
X22497Y-21466D01*
X22431Y-21623D01*
X22431Y-21624D01*
X22266Y-21624D01*
X22109Y-21689D01*
X22080Y-21717D01*
X22080Y-14739D01*
X22080Y-14211D01*
X21649Y-14211D01*
X21630Y-14237D01*
X21611Y-14211D01*
X21180Y-14211D01*
X21180Y-14739D01*
X21265Y-14786D01*
X21299Y-14772D01*
X21484Y-14668D01*
X21616Y-14501D01*
X21630Y-14450D01*
X21644Y-14501D01*
X21776Y-14668D01*
X21961Y-14772D01*
X21995Y-14786D01*
X22080Y-14739D01*
X22080Y-21717D01*
X21989Y-21808D01*
X21923Y-21965D01*
X21923Y-22135D01*
X21954Y-22211D01*
X21616Y-21872D01*
X21512Y-21803D01*
X21470Y-21794D01*
X21470Y-18992D01*
X21470Y-18822D01*
X21405Y-18665D01*
X21286Y-18545D01*
X21129Y-18479D01*
X21080Y-18479D01*
X21080Y-14739D01*
X21080Y-14211D01*
X20649Y-14211D01*
X20630Y-14237D01*
X20611Y-14211D01*
X20180Y-14211D01*
X20180Y-14739D01*
X20265Y-14786D01*
X20299Y-14772D01*
X20484Y-14668D01*
X20616Y-14501D01*
X20630Y-14450D01*
X20644Y-14501D01*
X20776Y-14668D01*
X20961Y-14772D01*
X20995Y-14786D01*
X21080Y-14739D01*
X21080Y-18479D01*
X21067Y-18479D01*
X20193Y-17604D01*
X20193Y-17575D01*
X20235Y-17534D01*
X20301Y-17377D01*
X20301Y-17207D01*
X20236Y-17050D01*
X20117Y-16930D01*
X20080Y-16914D01*
X20080Y-14739D01*
X20080Y-14211D01*
X19649Y-14211D01*
X19630Y-14237D01*
X19611Y-14211D01*
X19180Y-14211D01*
X19180Y-14739D01*
X19265Y-14786D01*
X19299Y-14772D01*
X19484Y-14668D01*
X19616Y-14501D01*
X19630Y-14450D01*
X19644Y-14501D01*
X19776Y-14668D01*
X19961Y-14772D01*
X19995Y-14786D01*
X20080Y-14739D01*
X20080Y-16914D01*
X19960Y-16864D01*
X19790Y-16864D01*
X19633Y-16929D01*
X19513Y-17048D01*
X19447Y-17205D01*
X19447Y-17375D01*
X19512Y-17532D01*
X19555Y-17575D01*
X19555Y-17732D01*
X19554Y-17737D01*
X19579Y-17859D01*
X19648Y-17963D01*
X20616Y-18930D01*
X20616Y-18990D01*
X20681Y-19147D01*
X20800Y-19267D01*
X20957Y-19333D01*
X21127Y-19333D01*
X21284Y-19268D01*
X21404Y-19149D01*
X21470Y-18992D01*
X21470Y-21794D01*
X21397Y-21779D01*
X21388Y-21756D01*
X21248Y-21615D01*
X21064Y-21539D01*
X21063Y-21539D01*
X21247Y-21463D01*
X21388Y-21323D01*
X21464Y-21139D01*
X21464Y-20940D01*
X21388Y-20756D01*
X21248Y-20615D01*
X21064Y-20539D01*
X20865Y-20539D01*
X20315Y-20539D01*
X20131Y-20615D01*
X19990Y-20755D01*
X19914Y-20939D01*
X19914Y-21138D01*
X19990Y-21322D01*
X20130Y-21463D01*
X20314Y-21539D01*
X20131Y-21615D01*
X19990Y-21755D01*
X19914Y-21939D01*
X19914Y-22138D01*
X19990Y-22322D01*
X20130Y-22463D01*
X20314Y-22539D01*
X20513Y-22539D01*
X21063Y-22539D01*
X21247Y-22463D01*
X21275Y-22434D01*
X21447Y-22607D01*
X21306Y-22666D01*
X21186Y-22785D01*
X21120Y-22942D01*
X21120Y-23112D01*
X21185Y-23269D01*
X21304Y-23389D01*
X21461Y-23455D01*
X21631Y-23455D01*
X21788Y-23390D01*
X21831Y-23347D01*
X22118Y-23347D01*
X22109Y-23351D01*
X21989Y-23470D01*
X21923Y-23627D01*
X21923Y-23797D01*
X21988Y-23954D01*
X22107Y-24074D01*
X22264Y-24140D01*
X22273Y-24140D01*
X22203Y-24169D01*
X22040Y-24332D01*
X21951Y-24545D01*
X21951Y-24776D01*
X22039Y-24989D01*
X22202Y-25152D01*
X22233Y-25164D01*
X22233Y-25165D01*
X22202Y-25261D01*
X22531Y-25590D01*
X22860Y-25261D01*
X22829Y-25165D01*
X22859Y-25153D01*
X23022Y-24990D01*
X23111Y-24777D01*
X23111Y-24546D01*
X23023Y-24333D01*
X22860Y-24170D01*
X22647Y-24081D01*
X22576Y-24081D01*
X22591Y-24075D01*
X22634Y-24032D01*
X22733Y-24032D01*
X23307Y-24605D01*
X23309Y-24608D01*
X23413Y-24677D01*
X23535Y-24702D01*
X23535Y-24701D01*
X23539Y-24701D01*
X27227Y-24701D01*
X27269Y-24743D01*
X27426Y-24809D01*
X27596Y-24809D01*
X27753Y-24744D01*
X27873Y-24625D01*
X27939Y-24468D01*
X27939Y-24298D01*
X27918Y-24248D01*
X27999Y-24168D01*
X28065Y-24011D01*
X28065Y-23935D01*
X28131Y-23935D01*
X28288Y-23870D01*
X28408Y-23751D01*
X28474Y-23594D01*
X28474Y-23458D01*
X29811Y-23458D01*
X30245Y-23892D01*
X30321Y-23967D01*
X30321Y-24106D01*
X30321Y-25472D01*
X30301Y-25520D01*
X30301Y-25690D01*
X30366Y-25847D01*
X30485Y-25967D01*
X30642Y-26033D01*
X30812Y-26033D01*
X30969Y-25968D01*
X31012Y-25925D01*
X31379Y-25925D01*
X31622Y-26168D01*
X31479Y-26228D01*
X31435Y-26271D01*
X28610Y-26271D01*
X28609Y-26271D01*
X28585Y-26275D01*
X28488Y-26295D01*
X28384Y-26364D01*
X28382Y-26366D01*
X28224Y-26524D01*
X28022Y-26524D01*
X28069Y-26413D01*
X28069Y-26243D01*
X28004Y-26086D01*
X27885Y-25966D01*
X27728Y-25900D01*
X27637Y-25900D01*
X27620Y-25883D01*
X27524Y-25818D01*
X27504Y-25814D01*
X27409Y-25795D01*
X26918Y-25795D01*
X26857Y-25733D01*
X26700Y-25667D01*
X26530Y-25667D01*
X26373Y-25732D01*
X26253Y-25851D01*
X26187Y-26008D01*
X26187Y-26101D01*
X26116Y-26030D01*
X26116Y-25971D01*
X26051Y-25814D01*
X25932Y-25694D01*
X25775Y-25628D01*
X25605Y-25628D01*
X25448Y-25693D01*
X25328Y-25812D01*
X25262Y-25969D01*
X25262Y-26127D01*
X25180Y-26093D01*
X25010Y-26093D01*
X24853Y-26158D01*
X24733Y-26277D01*
X24667Y-26434D01*
X24667Y-26447D01*
X24660Y-26446D01*
X24659Y-26446D01*
X24601Y-26387D01*
X24444Y-26321D01*
X24274Y-26321D01*
X24117Y-26386D01*
X23997Y-26505D01*
X23931Y-26662D01*
X23931Y-26700D01*
X23364Y-26133D01*
X23219Y-26036D01*
X23104Y-26013D01*
X23048Y-26002D01*
X23013Y-26002D01*
X22984Y-25972D01*
X23027Y-25959D01*
X23104Y-25747D01*
X23093Y-25522D01*
X23027Y-25363D01*
X22931Y-25332D01*
X22637Y-25626D01*
X22602Y-25661D01*
X22531Y-25732D01*
X22460Y-25661D01*
X22425Y-25626D01*
X22131Y-25332D01*
X22035Y-25363D01*
X21958Y-25575D01*
X21969Y-25800D01*
X22035Y-25959D01*
X22077Y-25972D01*
X22048Y-26002D01*
X21067Y-26002D01*
X20896Y-26036D01*
X20847Y-26068D01*
X20750Y-26133D01*
X20188Y-26695D01*
X20045Y-26599D01*
X19874Y-26565D01*
X19681Y-26565D01*
X19632Y-26516D01*
X19632Y-24835D01*
X20202Y-24265D01*
X20299Y-24120D01*
X20333Y-23949D01*
X20299Y-23778D01*
X20202Y-23633D01*
X20057Y-23536D01*
X19886Y-23502D01*
X19715Y-23536D01*
X19570Y-23633D01*
X19080Y-24123D01*
X19080Y-14739D01*
X19080Y-14211D01*
X18649Y-14211D01*
X18635Y-14228D01*
X18618Y-14211D01*
X18180Y-14211D01*
X18180Y-14742D01*
X18242Y-14804D01*
X18479Y-14803D01*
X18571Y-14765D01*
X18641Y-14695D01*
X18679Y-14604D01*
X18679Y-14545D01*
X18776Y-14668D01*
X18961Y-14772D01*
X18995Y-14786D01*
X19080Y-14739D01*
X19080Y-24123D01*
X18869Y-24334D01*
X18772Y-24479D01*
X18738Y-24650D01*
X18738Y-26701D01*
X18772Y-26872D01*
X18869Y-27017D01*
X19179Y-27327D01*
X19180Y-27328D01*
X19324Y-27424D01*
X19325Y-27425D01*
X19495Y-27458D01*
X19496Y-27459D01*
X19689Y-27459D01*
X19742Y-27512D01*
X19742Y-27902D01*
X19776Y-28073D01*
X19873Y-28218D01*
X20018Y-28315D01*
X20189Y-28349D01*
X20360Y-28315D01*
X20505Y-28218D01*
X20602Y-28073D01*
X20626Y-27952D01*
X20626Y-28512D01*
X20664Y-28604D01*
X20734Y-28674D01*
X20825Y-28712D01*
X20924Y-28712D01*
X21514Y-28712D01*
X21606Y-28674D01*
X21670Y-28610D01*
X21734Y-28674D01*
X21825Y-28712D01*
X21924Y-28712D01*
X22514Y-28712D01*
X22606Y-28674D01*
X22670Y-28610D01*
X22723Y-28663D01*
X22723Y-28753D01*
X18620Y-28753D01*
X18449Y-28787D01*
X18442Y-28791D01*
X18442Y-22168D01*
X18442Y-21910D01*
X18366Y-21735D01*
X18218Y-21598D01*
X18056Y-21539D01*
X18218Y-21480D01*
X18366Y-21343D01*
X18442Y-21168D01*
X18442Y-20910D01*
X18366Y-20735D01*
X18218Y-20598D01*
X18080Y-20547D01*
X18080Y-14742D01*
X18080Y-14211D01*
X17642Y-14211D01*
X17580Y-14273D01*
X17581Y-14505D01*
X17581Y-14604D01*
X17619Y-14695D01*
X17689Y-14765D01*
X17781Y-14803D01*
X18018Y-14804D01*
X18080Y-14742D01*
X18080Y-20547D01*
X18029Y-20529D01*
X17739Y-20529D01*
X17739Y-20989D01*
X18394Y-20989D01*
X18442Y-20910D01*
X18442Y-21168D01*
X18394Y-21089D01*
X17739Y-21089D01*
X17739Y-21529D01*
X17739Y-21549D01*
X17739Y-21989D01*
X18394Y-21989D01*
X18442Y-21910D01*
X18442Y-22168D01*
X18394Y-22089D01*
X17739Y-22089D01*
X17739Y-22549D01*
X18029Y-22549D01*
X18218Y-22480D01*
X18366Y-22343D01*
X18442Y-22168D01*
X18442Y-28791D01*
X18304Y-28884D01*
X17987Y-29201D01*
X17890Y-29346D01*
X17856Y-29517D01*
X17856Y-29559D01*
X17848Y-29540D01*
X17778Y-29470D01*
X17686Y-29432D01*
X17639Y-29431D01*
X17639Y-22549D01*
X17639Y-22089D01*
X17639Y-21989D01*
X17639Y-21549D01*
X17639Y-21529D01*
X17639Y-21089D01*
X17639Y-20989D01*
X17639Y-20529D01*
X17349Y-20529D01*
X17160Y-20598D01*
X17012Y-20735D01*
X16936Y-20910D01*
X16984Y-20989D01*
X17639Y-20989D01*
X17639Y-21089D01*
X16984Y-21089D01*
X16936Y-21168D01*
X17012Y-21343D01*
X17160Y-21480D01*
X17321Y-21539D01*
X17160Y-21598D01*
X17012Y-21735D01*
X16936Y-21910D01*
X16984Y-21989D01*
X17639Y-21989D01*
X17639Y-22089D01*
X16984Y-22089D01*
X16936Y-22168D01*
X17012Y-22343D01*
X17160Y-22480D01*
X17349Y-22549D01*
X17639Y-22549D01*
X17639Y-29431D01*
X17415Y-29431D01*
X17353Y-29493D01*
X17353Y-29955D01*
X17353Y-30005D01*
X17353Y-30105D01*
X17253Y-30105D01*
X17253Y-30005D01*
X17253Y-29955D01*
X17253Y-29493D01*
X17191Y-29431D01*
X16920Y-29432D01*
X16915Y-29434D01*
X16915Y-13969D01*
X17000Y-13986D01*
X17171Y-13952D01*
X17316Y-13855D01*
X17567Y-13604D01*
X17642Y-13604D01*
X17619Y-13627D01*
X17581Y-13718D01*
X17581Y-13817D01*
X17580Y-14049D01*
X17642Y-14111D01*
X18030Y-14111D01*
X18080Y-14111D01*
X18180Y-14111D01*
X18230Y-14111D01*
X18618Y-14111D01*
X18635Y-14093D01*
X18649Y-14111D01*
X19030Y-14111D01*
X19080Y-14111D01*
X19180Y-14111D01*
X19230Y-14111D01*
X19611Y-14111D01*
X19630Y-14084D01*
X19649Y-14111D01*
X20030Y-14111D01*
X20080Y-14111D01*
X20180Y-14111D01*
X20230Y-14111D01*
X20611Y-14111D01*
X20630Y-14084D01*
X20649Y-14111D01*
X21030Y-14111D01*
X21080Y-14111D01*
X21180Y-14111D01*
X21230Y-14111D01*
X21611Y-14111D01*
X21630Y-14084D01*
X21649Y-14111D01*
X22030Y-14111D01*
X22080Y-14111D01*
X22180Y-14111D01*
X22230Y-14111D01*
X22611Y-14111D01*
X22630Y-14084D01*
X22649Y-14111D01*
X23030Y-14111D01*
X23080Y-14111D01*
X23180Y-14111D01*
X23230Y-14111D01*
X23611Y-14111D01*
X23630Y-14084D01*
X23649Y-14111D01*
X24030Y-14111D01*
X24080Y-14111D01*
X24180Y-14111D01*
X24230Y-14111D01*
X24611Y-14111D01*
X24630Y-14084D01*
X24649Y-14111D01*
X25030Y-14111D01*
X25080Y-14111D01*
X25180Y-14111D01*
X25230Y-14111D01*
X25611Y-14111D01*
X25673Y-14026D01*
X25616Y-13821D01*
X25493Y-13666D01*
X25587Y-13572D01*
X25670Y-13374D01*
X25670Y-13159D01*
X25670Y-12949D01*
X25588Y-12750D01*
X25498Y-12661D01*
X25587Y-12572D01*
X25670Y-12374D01*
X25670Y-12159D01*
X25670Y-11949D01*
X25633Y-11860D01*
X26725Y-11860D01*
X26680Y-11968D01*
X26680Y-12183D01*
X26680Y-12393D01*
X26762Y-12592D01*
X26709Y-12647D01*
X26671Y-12738D01*
X26671Y-12837D01*
X26671Y-13623D01*
X26709Y-13715D01*
X26779Y-13785D01*
X26870Y-13823D01*
X26969Y-13823D01*
X27569Y-13823D01*
X27661Y-13785D01*
X27731Y-13715D01*
X27769Y-13624D01*
X27769Y-13598D01*
X27914Y-13743D01*
X28112Y-13826D01*
X28327Y-13826D01*
X28526Y-13744D01*
X28677Y-13592D01*
X28719Y-13489D01*
X28762Y-13592D01*
X28914Y-13743D01*
X29112Y-13826D01*
X29327Y-13826D01*
X29526Y-13744D01*
X29677Y-13592D01*
X29719Y-13489D01*
X29762Y-13592D01*
X29914Y-13743D01*
X30112Y-13826D01*
X30327Y-13826D01*
X30526Y-13744D01*
X30677Y-13592D01*
X30719Y-13489D01*
X30762Y-13592D01*
X30914Y-13743D01*
X31112Y-13826D01*
X31327Y-13826D01*
X31526Y-13744D01*
X31677Y-13592D01*
X31719Y-13489D01*
X31762Y-13592D01*
X31914Y-13743D01*
X32112Y-13826D01*
X32327Y-13826D01*
X32526Y-13744D01*
X32677Y-13592D01*
X32719Y-13489D01*
X32762Y-13592D01*
X32914Y-13743D01*
X33112Y-13826D01*
X33327Y-13826D01*
X33526Y-13744D01*
X33677Y-13592D01*
X33719Y-13489D01*
X33762Y-13592D01*
X33914Y-13743D01*
X34112Y-13826D01*
X34327Y-13826D01*
X34526Y-13744D01*
X34677Y-13592D01*
X34760Y-13394D01*
X34760Y-13179D01*
X34760Y-12969D01*
X34678Y-12770D01*
X34588Y-12681D01*
X34641Y-12628D01*
X34854Y-12628D01*
X35023Y-12797D01*
X35023Y-14398D01*
X34976Y-14351D01*
X34774Y-14267D01*
X34556Y-14267D01*
X34354Y-14351D01*
X34200Y-14505D01*
X34165Y-14589D01*
X34130Y-14505D01*
X33976Y-14351D01*
X33774Y-14267D01*
X33556Y-14267D01*
X33354Y-14351D01*
X33200Y-14505D01*
X33165Y-14589D01*
X33130Y-14505D01*
X32976Y-14351D01*
X32774Y-14267D01*
X32556Y-14267D01*
X32354Y-14351D01*
X32200Y-14505D01*
X32165Y-14589D01*
X32130Y-14505D01*
X31976Y-14351D01*
X31774Y-14267D01*
X31556Y-14267D01*
X31354Y-14351D01*
X31200Y-14505D01*
X31165Y-14589D01*
X31130Y-14505D01*
X30976Y-14351D01*
X30774Y-14267D01*
X30556Y-14267D01*
X30354Y-14351D01*
X30200Y-14505D01*
X30165Y-14589D01*
X30130Y-14505D01*
X29976Y-14351D01*
X29774Y-14267D01*
X29556Y-14267D01*
X29354Y-14351D01*
X29200Y-14505D01*
X29165Y-14589D01*
X29130Y-14505D01*
X28976Y-14351D01*
X28774Y-14267D01*
X28556Y-14267D01*
X28354Y-14351D01*
X28200Y-14505D01*
X28165Y-14589D01*
X28130Y-14505D01*
X27976Y-14351D01*
X27774Y-14267D01*
X27556Y-14267D01*
X27354Y-14351D01*
X27200Y-14505D01*
X27165Y-14589D01*
X27130Y-14505D01*
X26976Y-14351D01*
X26774Y-14267D01*
X26556Y-14267D01*
X26354Y-14351D01*
X26200Y-14505D01*
X26116Y-14707D01*
X26116Y-14925D01*
X26116Y-15231D01*
X26200Y-15433D01*
X26354Y-15587D01*
X26556Y-15671D01*
X26774Y-15671D01*
X26976Y-15587D01*
X27130Y-15433D01*
X27165Y-15348D01*
X27200Y-15433D01*
X27354Y-15587D01*
X27556Y-15671D01*
X27774Y-15671D01*
X27976Y-15587D01*
X28130Y-15433D01*
X28165Y-15348D01*
X28200Y-15433D01*
X28354Y-15587D01*
X28556Y-15671D01*
X28774Y-15671D01*
X28976Y-15587D01*
X29130Y-15433D01*
X29165Y-15348D01*
X29200Y-15433D01*
X29354Y-15587D01*
X29556Y-15671D01*
X29774Y-15671D01*
X29976Y-15587D01*
X30130Y-15433D01*
X30165Y-15348D01*
X30200Y-15433D01*
X30354Y-15587D01*
X30556Y-15671D01*
X30774Y-15671D01*
X30976Y-15587D01*
X31130Y-15433D01*
X31165Y-15348D01*
X31200Y-15433D01*
X31354Y-15587D01*
X31556Y-15671D01*
X31774Y-15671D01*
X31976Y-15587D01*
X32130Y-15433D01*
X32165Y-15348D01*
X32200Y-15433D01*
X32354Y-15587D01*
X32556Y-15671D01*
X32774Y-15671D01*
X32976Y-15587D01*
X33130Y-15433D01*
X33165Y-15348D01*
X33200Y-15433D01*
X33354Y-15587D01*
X33556Y-15671D01*
X33774Y-15671D01*
X33976Y-15587D01*
X34130Y-15433D01*
X34165Y-15348D01*
X34200Y-15433D01*
X34354Y-15587D01*
X34556Y-15671D01*
X34774Y-15671D01*
X34976Y-15587D01*
X35130Y-15433D01*
X35137Y-15416D01*
X35221Y-15416D01*
X35392Y-15382D01*
X35537Y-15285D01*
X35620Y-15202D01*
X35620Y-15850D01*
X35620Y-15850D01*
G37*
G54D33*
X35620Y-15850D02*
X35576Y-15806D01*
X35431Y-15709D01*
X35260Y-15675D01*
X35089Y-15709D01*
X34944Y-15806D01*
X34847Y-15951D01*
X34813Y-16122D01*
X34847Y-16293D01*
X34944Y-16438D01*
X35014Y-16508D01*
X35014Y-17398D01*
X34861Y-17304D01*
X34802Y-17287D01*
X34715Y-17334D01*
X34715Y-17869D01*
X34715Y-17919D01*
X34715Y-18019D01*
X34715Y-18069D01*
X34715Y-18604D01*
X34802Y-18651D01*
X34861Y-18634D01*
X35014Y-18539D01*
X35014Y-19553D01*
X35005Y-19544D01*
X34914Y-19506D01*
X34815Y-19506D01*
X34615Y-19506D01*
X34615Y-18604D01*
X34615Y-18069D01*
X34615Y-18019D01*
X34615Y-17919D01*
X34615Y-17869D01*
X34615Y-17334D01*
X34528Y-17287D01*
X34469Y-17304D01*
X34283Y-17419D01*
X34163Y-17584D01*
X34130Y-17505D01*
X33976Y-17351D01*
X33774Y-17267D01*
X33556Y-17267D01*
X33354Y-17351D01*
X33200Y-17505D01*
X33165Y-17589D01*
X33130Y-17505D01*
X32976Y-17351D01*
X32774Y-17267D01*
X32556Y-17267D01*
X32354Y-17351D01*
X32200Y-17505D01*
X32165Y-17589D01*
X32130Y-17505D01*
X31976Y-17351D01*
X31774Y-17267D01*
X31556Y-17267D01*
X31354Y-17351D01*
X31200Y-17505D01*
X31165Y-17589D01*
X31130Y-17505D01*
X30976Y-17351D01*
X30774Y-17267D01*
X30556Y-17267D01*
X30354Y-17351D01*
X30200Y-17505D01*
X30165Y-17589D01*
X30130Y-17505D01*
X29976Y-17351D01*
X29774Y-17267D01*
X29556Y-17267D01*
X29354Y-17351D01*
X29200Y-17505D01*
X29165Y-17589D01*
X29130Y-17505D01*
X28976Y-17351D01*
X28774Y-17267D01*
X28556Y-17267D01*
X28354Y-17351D01*
X28200Y-17505D01*
X28165Y-17589D01*
X28130Y-17505D01*
X27976Y-17351D01*
X27774Y-17267D01*
X27556Y-17267D01*
X27354Y-17351D01*
X27224Y-17481D01*
X27224Y-17470D01*
X27186Y-17378D01*
X27116Y-17308D01*
X27025Y-17270D01*
X26926Y-17270D01*
X26306Y-17270D01*
X26214Y-17308D01*
X26144Y-17378D01*
X26106Y-17469D01*
X26106Y-17568D01*
X26106Y-18468D01*
X26144Y-18560D01*
X26214Y-18630D01*
X26305Y-18668D01*
X26404Y-18668D01*
X27024Y-18668D01*
X27116Y-18630D01*
X27186Y-18560D01*
X27224Y-18469D01*
X27224Y-18457D01*
X27354Y-18587D01*
X27556Y-18671D01*
X27774Y-18671D01*
X27976Y-18587D01*
X28130Y-18433D01*
X28165Y-18348D01*
X28200Y-18433D01*
X28354Y-18587D01*
X28556Y-18671D01*
X28774Y-18671D01*
X28976Y-18587D01*
X29130Y-18433D01*
X29165Y-18348D01*
X29200Y-18433D01*
X29354Y-18587D01*
X29556Y-18671D01*
X29774Y-18671D01*
X29976Y-18587D01*
X30130Y-18433D01*
X30165Y-18348D01*
X30200Y-18433D01*
X30354Y-18587D01*
X30556Y-18671D01*
X30774Y-18671D01*
X30976Y-18587D01*
X31130Y-18433D01*
X31165Y-18348D01*
X31200Y-18433D01*
X31354Y-18587D01*
X31556Y-18671D01*
X31774Y-18671D01*
X31976Y-18587D01*
X32130Y-18433D01*
X32165Y-18348D01*
X32200Y-18433D01*
X32354Y-18587D01*
X32556Y-18671D01*
X32774Y-18671D01*
X32976Y-18587D01*
X33130Y-18433D01*
X33165Y-18348D01*
X33200Y-18433D01*
X33354Y-18587D01*
X33556Y-18671D01*
X33774Y-18671D01*
X33976Y-18587D01*
X34130Y-18433D01*
X34163Y-18353D01*
X34283Y-18519D01*
X34469Y-18634D01*
X34528Y-18651D01*
X34615Y-18604D01*
X34615Y-19506D01*
X34067Y-19506D01*
X33975Y-19544D01*
X33905Y-19614D01*
X33867Y-19705D01*
X33867Y-19712D01*
X32682Y-19712D01*
X32545Y-19739D01*
X32506Y-19765D01*
X32428Y-19817D01*
X31990Y-20255D01*
X31990Y-20227D01*
X31925Y-20070D01*
X31806Y-19950D01*
X31649Y-19884D01*
X31479Y-19884D01*
X31322Y-19949D01*
X31278Y-19992D01*
X28429Y-19992D01*
X28428Y-19992D01*
X28404Y-19996D01*
X28307Y-20016D01*
X28203Y-20085D01*
X28201Y-20087D01*
X28170Y-20118D01*
X28199Y-20051D01*
X28199Y-19881D01*
X28134Y-19724D01*
X28015Y-19604D01*
X27858Y-19538D01*
X27688Y-19538D01*
X27531Y-19603D01*
X27411Y-19722D01*
X27402Y-19743D01*
X25673Y-19743D01*
X25673Y-14296D01*
X25611Y-14211D01*
X25180Y-14211D01*
X25180Y-14739D01*
X25265Y-14786D01*
X25299Y-14772D01*
X25484Y-14668D01*
X25616Y-14501D01*
X25673Y-14296D01*
X25673Y-19743D01*
X25487Y-19743D01*
X25331Y-19774D01*
X25199Y-19862D01*
X25098Y-19963D01*
X25080Y-19963D01*
X25080Y-14739D01*
X25080Y-14211D01*
X24649Y-14211D01*
X24630Y-14237D01*
X24611Y-14211D01*
X24180Y-14211D01*
X24180Y-14739D01*
X24265Y-14786D01*
X24299Y-14772D01*
X24484Y-14668D01*
X24616Y-14501D01*
X24630Y-14450D01*
X24644Y-14501D01*
X24776Y-14668D01*
X24961Y-14772D01*
X24995Y-14786D01*
X25080Y-14739D01*
X25080Y-19963D01*
X24220Y-19963D01*
X24173Y-19943D01*
X24080Y-19943D01*
X24080Y-14739D01*
X24080Y-14211D01*
X23649Y-14211D01*
X23630Y-14237D01*
X23611Y-14211D01*
X23180Y-14211D01*
X23180Y-14739D01*
X23265Y-14786D01*
X23299Y-14772D01*
X23484Y-14668D01*
X23616Y-14501D01*
X23630Y-14450D01*
X23644Y-14501D01*
X23776Y-14668D01*
X23961Y-14772D01*
X23995Y-14786D01*
X24080Y-14739D01*
X24080Y-19943D01*
X24003Y-19943D01*
X23846Y-20008D01*
X23726Y-20127D01*
X23660Y-20284D01*
X23660Y-20409D01*
X23254Y-20409D01*
X23254Y-20400D01*
X23189Y-20243D01*
X23080Y-20133D01*
X23080Y-14739D01*
X23080Y-14211D01*
X22649Y-14211D01*
X22630Y-14237D01*
X22611Y-14211D01*
X22180Y-14211D01*
X22180Y-14739D01*
X22265Y-14786D01*
X22299Y-14772D01*
X22484Y-14668D01*
X22616Y-14501D01*
X22630Y-14450D01*
X22644Y-14501D01*
X22776Y-14668D01*
X22961Y-14772D01*
X22995Y-14786D01*
X23080Y-14739D01*
X23080Y-20133D01*
X23070Y-20123D01*
X22913Y-20057D01*
X22743Y-20057D01*
X22586Y-20122D01*
X22466Y-20241D01*
X22400Y-20398D01*
X22400Y-20568D01*
X22465Y-20725D01*
X22584Y-20845D01*
X22741Y-20911D01*
X22802Y-20911D01*
X22845Y-20954D01*
X22949Y-21023D01*
X23071Y-21048D01*
X23071Y-21047D01*
X23075Y-21047D01*
X23504Y-21047D01*
X23502Y-21052D01*
X23502Y-21222D01*
X23532Y-21295D01*
X22974Y-21295D01*
X22944Y-21282D01*
X22774Y-21282D01*
X22617Y-21347D01*
X22497Y-21466D01*
X22431Y-21623D01*
X22431Y-21624D01*
X22266Y-21624D01*
X22109Y-21689D01*
X22080Y-21717D01*
X22080Y-14739D01*
X22080Y-14211D01*
X21649Y-14211D01*
X21630Y-14237D01*
X21611Y-14211D01*
X21180Y-14211D01*
X21180Y-14739D01*
X21265Y-14786D01*
X21299Y-14772D01*
X21484Y-14668D01*
X21616Y-14501D01*
X21630Y-14450D01*
X21644Y-14501D01*
X21776Y-14668D01*
X21961Y-14772D01*
X21995Y-14786D01*
X22080Y-14739D01*
X22080Y-21717D01*
X21989Y-21808D01*
X21923Y-21965D01*
X21923Y-22135D01*
X21954Y-22211D01*
X21616Y-21872D01*
X21512Y-21803D01*
X21470Y-21794D01*
X21470Y-18992D01*
X21470Y-18822D01*
X21405Y-18665D01*
X21286Y-18545D01*
X21129Y-18479D01*
X21080Y-18479D01*
X21080Y-14739D01*
X21080Y-14211D01*
X20649Y-14211D01*
X20630Y-14237D01*
X20611Y-14211D01*
X20180Y-14211D01*
X20180Y-14739D01*
X20265Y-14786D01*
X20299Y-14772D01*
X20484Y-14668D01*
X20616Y-14501D01*
X20630Y-14450D01*
X20644Y-14501D01*
X20776Y-14668D01*
X20961Y-14772D01*
X20995Y-14786D01*
X21080Y-14739D01*
X21080Y-18479D01*
X21067Y-18479D01*
X20193Y-17604D01*
X20193Y-17575D01*
X20235Y-17534D01*
X20301Y-17377D01*
X20301Y-17207D01*
X20236Y-17050D01*
X20117Y-16930D01*
X20080Y-16914D01*
X20080Y-14739D01*
X20080Y-14211D01*
X19649Y-14211D01*
X19630Y-14237D01*
X19611Y-14211D01*
X19180Y-14211D01*
X19180Y-14739D01*
X19265Y-14786D01*
X19299Y-14772D01*
X19484Y-14668D01*
X19616Y-14501D01*
X19630Y-14450D01*
X19644Y-14501D01*
X19776Y-14668D01*
X19961Y-14772D01*
X19995Y-14786D01*
X20080Y-14739D01*
X20080Y-16914D01*
X19960Y-16864D01*
X19790Y-16864D01*
X19633Y-16929D01*
X19513Y-17048D01*
X19447Y-17205D01*
X19447Y-17375D01*
X19512Y-17532D01*
X19555Y-17575D01*
X19555Y-17732D01*
X19554Y-17737D01*
X19579Y-17859D01*
X19648Y-17963D01*
X20616Y-18930D01*
X20616Y-18990D01*
X20681Y-19147D01*
X20800Y-19267D01*
X20957Y-19333D01*
X21127Y-19333D01*
X21284Y-19268D01*
X21404Y-19149D01*
X21470Y-18992D01*
X21470Y-21794D01*
X21397Y-21779D01*
X21388Y-21756D01*
X21248Y-21615D01*
X21064Y-21539D01*
X21063Y-21539D01*
X21247Y-21463D01*
X21388Y-21323D01*
X21464Y-21139D01*
X21464Y-20940D01*
X21388Y-20756D01*
X21248Y-20615D01*
X21064Y-20539D01*
X20865Y-20539D01*
X20315Y-20539D01*
X20131Y-20615D01*
X19990Y-20755D01*
X19914Y-20939D01*
X19914Y-21138D01*
X19990Y-21322D01*
X20130Y-21463D01*
X20314Y-21539D01*
X20131Y-21615D01*
X19990Y-21755D01*
X19914Y-21939D01*
X19914Y-22138D01*
X19990Y-22322D01*
X20130Y-22463D01*
X20314Y-22539D01*
X20513Y-22539D01*
X21063Y-22539D01*
X21247Y-22463D01*
X21275Y-22434D01*
X21447Y-22607D01*
X21306Y-22666D01*
X21186Y-22785D01*
X21120Y-22942D01*
X21120Y-23112D01*
X21185Y-23269D01*
X21304Y-23389D01*
X21461Y-23455D01*
X21631Y-23455D01*
X21788Y-23390D01*
X21831Y-23347D01*
X22118Y-23347D01*
X22109Y-23351D01*
X21989Y-23470D01*
X21923Y-23627D01*
X21923Y-23797D01*
X21988Y-23954D01*
X22107Y-24074D01*
X22264Y-24140D01*
X22273Y-24140D01*
X22203Y-24169D01*
X22040Y-24332D01*
X21951Y-24545D01*
X21951Y-24776D01*
X22039Y-24989D01*
X22202Y-25152D01*
X22233Y-25164D01*
X22233Y-25165D01*
X22202Y-25261D01*
X22531Y-25590D01*
X22860Y-25261D01*
X22829Y-25165D01*
X22859Y-25153D01*
X23022Y-24990D01*
X23111Y-24777D01*
X23111Y-24546D01*
X23023Y-24333D01*
X22860Y-24170D01*
X22647Y-24081D01*
X22576Y-24081D01*
X22591Y-24075D01*
X22634Y-24032D01*
X22733Y-24032D01*
X23307Y-24605D01*
X23309Y-24608D01*
X23413Y-24677D01*
X23535Y-24702D01*
X23535Y-24701D01*
X23539Y-24701D01*
X27227Y-24701D01*
X27269Y-24743D01*
X27426Y-24809D01*
X27596Y-24809D01*
X27753Y-24744D01*
X27873Y-24625D01*
X27939Y-24468D01*
X27939Y-24298D01*
X27918Y-24248D01*
X27999Y-24168D01*
X28065Y-24011D01*
X28065Y-23935D01*
X28131Y-23935D01*
X28288Y-23870D01*
X28408Y-23751D01*
X28474Y-23594D01*
X28474Y-23458D01*
X29811Y-23458D01*
X30245Y-23892D01*
X30321Y-23967D01*
X30321Y-24106D01*
X30321Y-25472D01*
X30301Y-25520D01*
X30301Y-25690D01*
X30366Y-25847D01*
X30485Y-25967D01*
X30642Y-26033D01*
X30812Y-26033D01*
X30969Y-25968D01*
X31012Y-25925D01*
X31379Y-25925D01*
X31622Y-26168D01*
X31479Y-26228D01*
X31435Y-26271D01*
X28610Y-26271D01*
X28609Y-26271D01*
X28585Y-26275D01*
X28488Y-26295D01*
X28384Y-26364D01*
X28382Y-26366D01*
X28224Y-26524D01*
X28022Y-26524D01*
X28069Y-26413D01*
X28069Y-26243D01*
X28004Y-26086D01*
X27885Y-25966D01*
X27728Y-25900D01*
X27637Y-25900D01*
X27620Y-25883D01*
X27524Y-25818D01*
X27504Y-25814D01*
X27409Y-25795D01*
X26918Y-25795D01*
X26857Y-25733D01*
X26700Y-25667D01*
X26530Y-25667D01*
X26373Y-25732D01*
X26253Y-25851D01*
X26187Y-26008D01*
X26187Y-26101D01*
X26116Y-26030D01*
X26116Y-25971D01*
X26051Y-25814D01*
X25932Y-25694D01*
X25775Y-25628D01*
X25605Y-25628D01*
X25448Y-25693D01*
X25328Y-25812D01*
X25262Y-25969D01*
X25262Y-26127D01*
X25180Y-26093D01*
X25010Y-26093D01*
X24853Y-26158D01*
X24733Y-26277D01*
X24667Y-26434D01*
X24667Y-26447D01*
X24660Y-26446D01*
X24659Y-26446D01*
X24601Y-26387D01*
X24444Y-26321D01*
X24274Y-26321D01*
X24117Y-26386D01*
X23997Y-26505D01*
X23931Y-26662D01*
X23931Y-26700D01*
X23364Y-26133D01*
X23219Y-26036D01*
X23104Y-26013D01*
X23048Y-26002D01*
X23013Y-26002D01*
X22984Y-25972D01*
X23027Y-25959D01*
X23104Y-25747D01*
X23093Y-25522D01*
X23027Y-25363D01*
X22931Y-25332D01*
X22637Y-25626D01*
X22602Y-25661D01*
X22531Y-25732D01*
X22460Y-25661D01*
X22425Y-25626D01*
X22131Y-25332D01*
X22035Y-25363D01*
X21958Y-25575D01*
X21969Y-25800D01*
X22035Y-25959D01*
X22077Y-25972D01*
X22048Y-26002D01*
X21067Y-26002D01*
X20896Y-26036D01*
X20847Y-26068D01*
X20750Y-26133D01*
X20188Y-26695D01*
X20045Y-26599D01*
X19874Y-26565D01*
X19681Y-26565D01*
X19632Y-26516D01*
X19632Y-24835D01*
X20202Y-24265D01*
X20299Y-24120D01*
X20333Y-23949D01*
X20299Y-23778D01*
X20202Y-23633D01*
X20057Y-23536D01*
X19886Y-23502D01*
X19715Y-23536D01*
X19570Y-23633D01*
X19080Y-24123D01*
X19080Y-14739D01*
X19080Y-14211D01*
X18649Y-14211D01*
X18635Y-14228D01*
X18618Y-14211D01*
X18180Y-14211D01*
X18180Y-14742D01*
X18242Y-14804D01*
X18479Y-14803D01*
X18571Y-14765D01*
X18641Y-14695D01*
X18679Y-14604D01*
X18679Y-14545D01*
X18776Y-14668D01*
X18961Y-14772D01*
X18995Y-14786D01*
X19080Y-14739D01*
X19080Y-24123D01*
X18869Y-24334D01*
X18772Y-24479D01*
X18738Y-24650D01*
X18738Y-26701D01*
X18772Y-26872D01*
X18869Y-27017D01*
X19179Y-27327D01*
X19180Y-27328D01*
X19324Y-27424D01*
X19325Y-27425D01*
X19495Y-27458D01*
X19496Y-27459D01*
X19689Y-27459D01*
X19742Y-27512D01*
X19742Y-27902D01*
X19776Y-28073D01*
X19873Y-28218D01*
X20018Y-28315D01*
X20189Y-28349D01*
X20360Y-28315D01*
X20505Y-28218D01*
X20602Y-28073D01*
X20626Y-27952D01*
X20626Y-28512D01*
X20664Y-28604D01*
X20734Y-28674D01*
X20825Y-28712D01*
X20924Y-28712D01*
X21514Y-28712D01*
X21606Y-28674D01*
X21670Y-28610D01*
X21734Y-28674D01*
X21825Y-28712D01*
X21924Y-28712D01*
X22514Y-28712D01*
X22606Y-28674D01*
X22670Y-28610D01*
X22723Y-28663D01*
X22723Y-28753D01*
X18620Y-28753D01*
X18449Y-28787D01*
X18442Y-28791D01*
X18442Y-22168D01*
X18442Y-21910D01*
X18366Y-21735D01*
X18218Y-21598D01*
X18056Y-21539D01*
X18218Y-21480D01*
X18366Y-21343D01*
X18442Y-21168D01*
X18442Y-20910D01*
X18366Y-20735D01*
X18218Y-20598D01*
X18080Y-20547D01*
X18080Y-14742D01*
X18080Y-14211D01*
X17642Y-14211D01*
X17580Y-14273D01*
X17581Y-14505D01*
X17581Y-14604D01*
X17619Y-14695D01*
X17689Y-14765D01*
X17781Y-14803D01*
X18018Y-14804D01*
X18080Y-14742D01*
X18080Y-20547D01*
X18029Y-20529D01*
X17739Y-20529D01*
X17739Y-20989D01*
X18394Y-20989D01*
X18442Y-20910D01*
X18442Y-21168D01*
X18394Y-21089D01*
X17739Y-21089D01*
X17739Y-21529D01*
X17739Y-21549D01*
X17739Y-21989D01*
X18394Y-21989D01*
X18442Y-21910D01*
X18442Y-22168D01*
X18394Y-22089D01*
X17739Y-22089D01*
X17739Y-22549D01*
X18029Y-22549D01*
X18218Y-22480D01*
X18366Y-22343D01*
X18442Y-22168D01*
X18442Y-28791D01*
X18304Y-28884D01*
X17987Y-29201D01*
X17890Y-29346D01*
X17856Y-29517D01*
X17856Y-29559D01*
X17848Y-29540D01*
X17778Y-29470D01*
X17686Y-29432D01*
X17639Y-29431D01*
X17639Y-22549D01*
X17639Y-22089D01*
X17639Y-21989D01*
X17639Y-21549D01*
X17639Y-21529D01*
X17639Y-21089D01*
X17639Y-20989D01*
X17639Y-20529D01*
X17349Y-20529D01*
X17160Y-20598D01*
X17012Y-20735D01*
X16936Y-20910D01*
X16984Y-20989D01*
X17639Y-20989D01*
X17639Y-21089D01*
X16984Y-21089D01*
X16936Y-21168D01*
X17012Y-21343D01*
X17160Y-21480D01*
X17321Y-21539D01*
X17160Y-21598D01*
X17012Y-21735D01*
X16936Y-21910D01*
X16984Y-21989D01*
X17639Y-21989D01*
X17639Y-22089D01*
X16984Y-22089D01*
X16936Y-22168D01*
X17012Y-22343D01*
X17160Y-22480D01*
X17349Y-22549D01*
X17639Y-22549D01*
X17639Y-29431D01*
X17415Y-29431D01*
X17353Y-29493D01*
X17353Y-29955D01*
X17353Y-30005D01*
X17353Y-30105D01*
X17253Y-30105D01*
X17253Y-30005D01*
X17253Y-29955D01*
X17253Y-29493D01*
X17191Y-29431D01*
X16920Y-29432D01*
X16915Y-29434D01*
X16915Y-13969D01*
X17000Y-13986D01*
X17171Y-13952D01*
X17316Y-13855D01*
X17567Y-13604D01*
X17642Y-13604D01*
X17619Y-13627D01*
X17581Y-13718D01*
X17581Y-13817D01*
X17580Y-14049D01*
X17642Y-14111D01*
X18030Y-14111D01*
X18080Y-14111D01*
X18180Y-14111D01*
X18230Y-14111D01*
X18618Y-14111D01*
X18635Y-14093D01*
X18649Y-14111D01*
X19030Y-14111D01*
X19080Y-14111D01*
X19180Y-14111D01*
X19230Y-14111D01*
X19611Y-14111D01*
X19630Y-14084D01*
X19649Y-14111D01*
X20030Y-14111D01*
X20080Y-14111D01*
X20180Y-14111D01*
X20230Y-14111D01*
X20611Y-14111D01*
X20630Y-14084D01*
X20649Y-14111D01*
X21030Y-14111D01*
X21080Y-14111D01*
X21180Y-14111D01*
X21230Y-14111D01*
X21611Y-14111D01*
X21630Y-14084D01*
X21649Y-14111D01*
X22030Y-14111D01*
X22080Y-14111D01*
X22180Y-14111D01*
X22230Y-14111D01*
X22611Y-14111D01*
X22630Y-14084D01*
X22649Y-14111D01*
X23030Y-14111D01*
X23080Y-14111D01*
X23180Y-14111D01*
X23230Y-14111D01*
X23611Y-14111D01*
X23630Y-14084D01*
X23649Y-14111D01*
X24030Y-14111D01*
X24080Y-14111D01*
X24180Y-14111D01*
X24230Y-14111D01*
X24611Y-14111D01*
X24630Y-14084D01*
X24649Y-14111D01*
X25030Y-14111D01*
X25080Y-14111D01*
X25180Y-14111D01*
X25230Y-14111D01*
X25611Y-14111D01*
X25673Y-14026D01*
X25616Y-13821D01*
X25493Y-13666D01*
X25587Y-13572D01*
X25670Y-13374D01*
X25670Y-13159D01*
X25670Y-12949D01*
X25588Y-12750D01*
X25498Y-12661D01*
X25587Y-12572D01*
X25670Y-12374D01*
X25670Y-12159D01*
X25670Y-11949D01*
X25633Y-11860D01*
X26725Y-11860D01*
X26680Y-11968D01*
X26680Y-12183D01*
X26680Y-12393D01*
X26762Y-12592D01*
X26709Y-12647D01*
X26671Y-12738D01*
X26671Y-12837D01*
X26671Y-13623D01*
X26709Y-13715D01*
X26779Y-13785D01*
X26870Y-13823D01*
X26969Y-13823D01*
X27569Y-13823D01*
X27661Y-13785D01*
X27731Y-13715D01*
X27769Y-13624D01*
X27769Y-13598D01*
X27914Y-13743D01*
X28112Y-13826D01*
X28327Y-13826D01*
X28526Y-13744D01*
X28677Y-13592D01*
X28719Y-13489D01*
X28762Y-13592D01*
X28914Y-13743D01*
X29112Y-13826D01*
X29327Y-13826D01*
X29526Y-13744D01*
X29677Y-13592D01*
X29719Y-13489D01*
X29762Y-13592D01*
X29914Y-13743D01*
X30112Y-13826D01*
X30327Y-13826D01*
X30526Y-13744D01*
X30677Y-13592D01*
X30719Y-13489D01*
X30762Y-13592D01*
X30914Y-13743D01*
X31112Y-13826D01*
X31327Y-13826D01*
X31526Y-13744D01*
X31677Y-13592D01*
X31719Y-13489D01*
X31762Y-13592D01*
X31914Y-13743D01*
X32112Y-13826D01*
X32327Y-13826D01*
X32526Y-13744D01*
X32677Y-13592D01*
X32719Y-13489D01*
X32762Y-13592D01*
X32914Y-13743D01*
X33112Y-13826D01*
X33327Y-13826D01*
X33526Y-13744D01*
X33677Y-13592D01*
X33719Y-13489D01*
X33762Y-13592D01*
X33914Y-13743D01*
X34112Y-13826D01*
X34327Y-13826D01*
X34526Y-13744D01*
X34677Y-13592D01*
X34760Y-13394D01*
X34760Y-13179D01*
X34760Y-12969D01*
X34678Y-12770D01*
X34588Y-12681D01*
X34641Y-12628D01*
X34854Y-12628D01*
X35023Y-12797D01*
X35023Y-14398D01*
X34976Y-14351D01*
X34774Y-14267D01*
X34556Y-14267D01*
X34354Y-14351D01*
X34200Y-14505D01*
X34165Y-14589D01*
X34130Y-14505D01*
X33976Y-14351D01*
X33774Y-14267D01*
X33556Y-14267D01*
X33354Y-14351D01*
X33200Y-14505D01*
X33165Y-14589D01*
X33130Y-14505D01*
X32976Y-14351D01*
X32774Y-14267D01*
X32556Y-14267D01*
X32354Y-14351D01*
X32200Y-14505D01*
X32165Y-14589D01*
X32130Y-14505D01*
X31976Y-14351D01*
X31774Y-14267D01*
X31556Y-14267D01*
X31354Y-14351D01*
X31200Y-14505D01*
X31165Y-14589D01*
X31130Y-14505D01*
X30976Y-14351D01*
X30774Y-14267D01*
X30556Y-14267D01*
X30354Y-14351D01*
X30200Y-14505D01*
X30165Y-14589D01*
X30130Y-14505D01*
X29976Y-14351D01*
X29774Y-14267D01*
X29556Y-14267D01*
X29354Y-14351D01*
X29200Y-14505D01*
X29165Y-14589D01*
X29130Y-14505D01*
X28976Y-14351D01*
X28774Y-14267D01*
X28556Y-14267D01*
X28354Y-14351D01*
X28200Y-14505D01*
X28165Y-14589D01*
X28130Y-14505D01*
X27976Y-14351D01*
X27774Y-14267D01*
X27556Y-14267D01*
X27354Y-14351D01*
X27200Y-14505D01*
X27165Y-14589D01*
X27130Y-14505D01*
X26976Y-14351D01*
X26774Y-14267D01*
X26556Y-14267D01*
X26354Y-14351D01*
X26200Y-14505D01*
X26116Y-14707D01*
X26116Y-14925D01*
X26116Y-15231D01*
X26200Y-15433D01*
X26354Y-15587D01*
X26556Y-15671D01*
X26774Y-15671D01*
X26976Y-15587D01*
X27130Y-15433D01*
X27165Y-15348D01*
X27200Y-15433D01*
X27354Y-15587D01*
X27556Y-15671D01*
X27774Y-15671D01*
X27976Y-15587D01*
X28130Y-15433D01*
X28165Y-15348D01*
X28200Y-15433D01*
X28354Y-15587D01*
X28556Y-15671D01*
X28774Y-15671D01*
X28976Y-15587D01*
X29130Y-15433D01*
X29165Y-15348D01*
X29200Y-15433D01*
X29354Y-15587D01*
X29556Y-15671D01*
X29774Y-15671D01*
X29976Y-15587D01*
X30130Y-15433D01*
X30165Y-15348D01*
X30200Y-15433D01*
X30354Y-15587D01*
X30556Y-15671D01*
X30774Y-15671D01*
X30976Y-15587D01*
X31130Y-15433D01*
X31165Y-15348D01*
X31200Y-15433D01*
X31354Y-15587D01*
X31556Y-15671D01*
X31774Y-15671D01*
X31976Y-15587D01*
X32130Y-15433D01*
X32165Y-15348D01*
X32200Y-15433D01*
X32354Y-15587D01*
X32556Y-15671D01*
X32774Y-15671D01*
X32976Y-15587D01*
X33130Y-15433D01*
X33165Y-15348D01*
X33200Y-15433D01*
X33354Y-15587D01*
X33556Y-15671D01*
X33774Y-15671D01*
X33976Y-15587D01*
X34130Y-15433D01*
X34165Y-15348D01*
X34200Y-15433D01*
X34354Y-15587D01*
X34556Y-15671D01*
X34774Y-15671D01*
X34976Y-15587D01*
X35130Y-15433D01*
X35137Y-15416D01*
X35221Y-15416D01*
X35392Y-15382D01*
X35537Y-15285D01*
X35620Y-15202D01*
X35620Y-15850D01*
G54D10*
G36*
X35620Y-29522D02*
X35597Y-29499D01*
X35387Y-29411D01*
X35159Y-29411D01*
X34948Y-29498D01*
X34787Y-29659D01*
X34772Y-29694D01*
X34758Y-29660D01*
X34719Y-29621D01*
X34719Y-29212D01*
X34685Y-29041D01*
X34588Y-28896D01*
X34580Y-28888D01*
X34800Y-28888D01*
X34971Y-28854D01*
X35116Y-28757D01*
X35620Y-28253D01*
X35620Y-29522D01*
X35620Y-29522D01*
G37*
G54D33*
X35620Y-29522D02*
X35597Y-29499D01*
X35387Y-29411D01*
X35159Y-29411D01*
X34948Y-29498D01*
X34787Y-29659D01*
X34772Y-29694D01*
X34758Y-29660D01*
X34719Y-29621D01*
X34719Y-29212D01*
X34685Y-29041D01*
X34588Y-28896D01*
X34580Y-28888D01*
X34800Y-28888D01*
X34971Y-28854D01*
X35116Y-28757D01*
X35620Y-28253D01*
X35620Y-29522D01*
M02*
