G04 (created by PCBNEW-RS274X (2011-11-27 BZR 3249)-stable) date 17/09/2012 7:08:21 p.m.*
G01*
G70*
G90*
%MOIN*%
G04 Gerber Fmt 3.4, Leading zero omitted, Abs format*
%FSLAX34Y34*%
G04 APERTURE LIST*
%ADD10C,0.006000*%
%ADD11R,0.055000X0.017000*%
%ADD12R,0.078700X0.017700*%
%ADD13R,0.017700X0.078700*%
%ADD14C,0.035400*%
%ADD15R,0.059100X0.098400*%
%ADD16R,0.019700X0.090600*%
%ADD17C,0.088600*%
%ADD18C,0.157500*%
%ADD19C,0.133900*%
%ADD20C,0.056000*%
%ADD21R,0.060000X0.060000*%
%ADD22C,0.060000*%
%ADD23R,0.031500X0.025000*%
%ADD24R,0.080000X0.060000*%
%ADD25R,0.060000X0.080000*%
%ADD26R,0.100000X0.050000*%
%ADD27R,0.025000X0.031500*%
%ADD28C,0.035000*%
%ADD29C,0.031500*%
%ADD30C,0.030000*%
%ADD31C,0.030000*%
%ADD32C,0.015700*%
%ADD33C,0.008000*%
%ADD34C,0.010000*%
G04 APERTURE END LIST*
G54D10*
G54D11*
X21112Y-05063D03*
X21112Y-05313D03*
X21112Y-05573D03*
X21112Y-05823D03*
X21112Y-06083D03*
X21112Y-06338D03*
X21112Y-06593D03*
X23312Y-06593D03*
X23312Y-06338D03*
X23312Y-06083D03*
X23312Y-05823D03*
X23312Y-05568D03*
X23312Y-05313D03*
X23312Y-05058D03*
G54D12*
X16266Y-04806D03*
X16266Y-04491D03*
X16266Y-04176D03*
X16266Y-03861D03*
X16266Y-03546D03*
X16266Y-03231D03*
X16266Y-02916D03*
X16266Y-02601D03*
X20032Y-02603D03*
X20032Y-04813D03*
X20032Y-04493D03*
X20032Y-04173D03*
X20032Y-03863D03*
X20032Y-03543D03*
X20032Y-03233D03*
X20032Y-02913D03*
G54D13*
X17050Y-01813D03*
X17364Y-01813D03*
X17680Y-01813D03*
X17994Y-01813D03*
X18310Y-01813D03*
X18624Y-01813D03*
X18940Y-01813D03*
X19254Y-01813D03*
X17052Y-05593D03*
X17362Y-05593D03*
X17682Y-05593D03*
X17992Y-05593D03*
X18302Y-05593D03*
X18622Y-05593D03*
X18942Y-05593D03*
X19262Y-05593D03*
G54D14*
X03740Y-08760D03*
X02008Y-08760D03*
G54D15*
X04587Y-09941D03*
X01161Y-09941D03*
X04587Y-07776D03*
X01161Y-07776D03*
G54D16*
X02874Y-07776D03*
X02559Y-07776D03*
X02244Y-07776D03*
X03189Y-07776D03*
X03504Y-07776D03*
G54D17*
X02283Y-03644D03*
G54D18*
X24462Y-09573D03*
G54D19*
X11812Y-09823D03*
G54D20*
X11382Y-04523D03*
X11382Y-02523D03*
G54D21*
X12962Y-06683D03*
G54D22*
X12962Y-05683D03*
X13962Y-06683D03*
X13962Y-05683D03*
X14962Y-06683D03*
X14962Y-05683D03*
G54D21*
X06522Y-02943D03*
G54D22*
X06522Y-03943D03*
X06522Y-04943D03*
X06522Y-05943D03*
G54D17*
X02381Y-05317D03*
X03562Y-04333D03*
X03464Y-02758D03*
G54D23*
X07402Y-08433D03*
X07402Y-07833D03*
X08122Y-08433D03*
X08122Y-07833D03*
G54D24*
X09072Y-08293D03*
X09072Y-06993D03*
X10222Y-08293D03*
X10222Y-06993D03*
G54D25*
X21822Y-03613D03*
X23122Y-03613D03*
G54D24*
X22952Y-01343D03*
X22952Y-02643D03*
X21892Y-01343D03*
X21892Y-02643D03*
G54D21*
X25697Y-05575D03*
G54D22*
X24697Y-05575D03*
X25697Y-06575D03*
X24697Y-06575D03*
X25697Y-07575D03*
X24697Y-07575D03*
G54D26*
X09082Y-01413D03*
X09082Y-02613D03*
G54D27*
X21062Y-01233D03*
X20462Y-01233D03*
X21062Y-01803D03*
X20462Y-01803D03*
G54D23*
X07702Y-06063D03*
X07702Y-05463D03*
G54D27*
X08522Y-04543D03*
X07922Y-04543D03*
X10502Y-06073D03*
X09902Y-06073D03*
X09122Y-05243D03*
X08522Y-05243D03*
G54D23*
X13002Y-04313D03*
X13002Y-03713D03*
G54D27*
X08782Y-03563D03*
X09382Y-03563D03*
G54D23*
X07842Y-03023D03*
X07842Y-03623D03*
X12992Y-02523D03*
X12992Y-03123D03*
G54D27*
X14102Y-02213D03*
X14702Y-02213D03*
X22268Y-04449D03*
X21668Y-04449D03*
G54D23*
X15082Y-03263D03*
X15082Y-03863D03*
G54D28*
X19862Y-01873D03*
G54D29*
X17292Y-03563D03*
G54D28*
X12962Y-01893D03*
X20960Y-03489D03*
X17292Y-04493D03*
G54D29*
X20962Y-04553D03*
X18942Y-02673D03*
X18302Y-03183D03*
X18312Y-04823D03*
X22638Y-05748D03*
X19921Y-06575D03*
X18772Y-06363D03*
X22652Y-06433D03*
X14572Y-02763D03*
X18002Y-02673D03*
X15252Y-02203D03*
G54D30*
X21742Y-06933D03*
G54D29*
X22162Y-05323D03*
X20962Y-04043D03*
X19242Y-06883D03*
X15642Y-01953D03*
X15232Y-02723D03*
X11921Y-07855D03*
X09072Y-04303D03*
X20472Y-06593D03*
X18472Y-02653D03*
X17912Y-03543D03*
X16582Y-01953D03*
X09072Y-10143D03*
X07162Y-10133D03*
G54D28*
X14512Y-03853D03*
G54D29*
X07542Y-01383D03*
X06512Y-09453D03*
X18742Y-04133D03*
X06392Y-02173D03*
X11220Y-05623D03*
X06502Y-08063D03*
X16062Y-06873D03*
X09072Y-09053D03*
X10772Y-10123D03*
X06642Y-01403D03*
X09409Y-05812D03*
X08512Y-05803D03*
X08152Y-06793D03*
X21912Y-05683D03*
X22172Y-06453D03*
X13622Y-02914D03*
X13622Y-04134D03*
G54D31*
X07842Y-03023D02*
X06602Y-03023D01*
X09082Y-01413D02*
X12962Y-01413D01*
G54D32*
X17275Y-03546D02*
X17292Y-03563D01*
G54D31*
X19852Y-01033D02*
X19852Y-01863D01*
X06602Y-03023D02*
X06522Y-02943D01*
X16102Y-01413D02*
X16482Y-01033D01*
X08782Y-03563D02*
X08762Y-03563D01*
G54D32*
X14102Y-02895D02*
X14102Y-02213D01*
G54D31*
X20262Y-01033D02*
X20462Y-01233D01*
X20960Y-03489D02*
X21346Y-03489D01*
G54D32*
X16266Y-04176D02*
X16975Y-04176D01*
G54D31*
X08762Y-03563D02*
X08222Y-03023D01*
G54D32*
X14102Y-02213D02*
X14102Y-02134D01*
X14102Y-02134D02*
X13861Y-01893D01*
X14470Y-03263D02*
X14102Y-02895D01*
G54D33*
X17375Y-04410D02*
X17292Y-04493D01*
G54D32*
X13861Y-01893D02*
X12962Y-01893D01*
G54D33*
X18547Y-04493D02*
X18464Y-04410D01*
G54D32*
X16975Y-04176D02*
X17292Y-04493D01*
X15082Y-03263D02*
X14470Y-03263D01*
G54D33*
X20032Y-04493D02*
X18547Y-04493D01*
G54D31*
X21346Y-03489D02*
X21470Y-03613D01*
X07842Y-01853D02*
X08282Y-01413D01*
X20462Y-01233D02*
X20462Y-01803D01*
G54D33*
X18464Y-04410D02*
X17375Y-04410D01*
G54D31*
X12962Y-01413D02*
X16102Y-01413D01*
X16482Y-01033D02*
X19852Y-01033D01*
X08282Y-01413D02*
X09082Y-01413D01*
X07842Y-03023D02*
X07842Y-01853D01*
X12962Y-01413D02*
X12962Y-01893D01*
G54D32*
X16266Y-03546D02*
X17275Y-03546D01*
X15635Y-03546D02*
X16266Y-03546D01*
G54D31*
X19852Y-01033D02*
X20262Y-01033D01*
X08222Y-03023D02*
X07842Y-03023D01*
G54D32*
X15082Y-03263D02*
X15352Y-03263D01*
G54D31*
X19852Y-01863D02*
X19862Y-01873D01*
G54D32*
X15352Y-03263D02*
X15635Y-03546D01*
G54D31*
X21470Y-03613D02*
X21822Y-03613D01*
G54D33*
X22244Y-06083D02*
X22244Y-05670D01*
X21102Y-04693D02*
X21102Y-04693D01*
X18942Y-02673D02*
X18940Y-02671D01*
X22283Y-04464D02*
X22268Y-04449D01*
X21112Y-05823D02*
X21492Y-05823D01*
X21492Y-05823D02*
X21752Y-06083D01*
X21112Y-05063D02*
X21984Y-05063D01*
X21984Y-05063D02*
X22283Y-04764D01*
X22692Y-05173D02*
X22283Y-04764D01*
X22244Y-06083D02*
X23312Y-06083D01*
X21102Y-04693D02*
X20962Y-04553D01*
X22692Y-05222D02*
X22692Y-05243D01*
X21112Y-05063D02*
X21112Y-04703D01*
X18940Y-02671D02*
X18940Y-01813D01*
X22192Y-06083D02*
X22244Y-06083D01*
X21752Y-06083D02*
X22192Y-06083D01*
X21112Y-04703D02*
X21102Y-04693D01*
X22692Y-05243D02*
X22762Y-05313D01*
X22283Y-04764D02*
X22283Y-04464D01*
X22244Y-05670D02*
X22692Y-05222D01*
X22762Y-05313D02*
X23312Y-05313D01*
X22283Y-04764D02*
X22272Y-04753D01*
X22692Y-05243D02*
X22692Y-05173D01*
X17050Y-02211D02*
X18022Y-03183D01*
X18022Y-03183D02*
X18302Y-03183D01*
X18302Y-06193D02*
X18302Y-05593D01*
X15182Y-04993D02*
X12462Y-04993D01*
X18302Y-04833D02*
X18302Y-05593D01*
X15182Y-04993D02*
X16652Y-06463D01*
X16652Y-06463D02*
X18032Y-06463D01*
X12462Y-04993D02*
X11382Y-06073D01*
X18312Y-04823D02*
X18302Y-04833D01*
X18032Y-06463D02*
X18302Y-06193D01*
X17050Y-01813D02*
X17050Y-02211D01*
X10502Y-06073D02*
X11382Y-06073D01*
X15302Y-04743D02*
X12322Y-04743D01*
X09122Y-05243D02*
X11822Y-05243D01*
X17912Y-06253D02*
X17992Y-06173D01*
X16812Y-06253D02*
X17912Y-06253D01*
X16812Y-06253D02*
X15302Y-04743D01*
X12322Y-04743D02*
X11822Y-05243D01*
X17992Y-06173D02*
X17992Y-05593D01*
X19659Y-06313D02*
X19262Y-06313D01*
X15442Y-06173D02*
X13472Y-06173D01*
X23312Y-05823D02*
X23302Y-05833D01*
X15802Y-06533D02*
X15442Y-06173D01*
X19659Y-06313D02*
X19921Y-06575D01*
X16352Y-06533D02*
X16492Y-06673D01*
X12962Y-06683D02*
X13472Y-06173D01*
X19262Y-06313D02*
X19262Y-05593D01*
X18902Y-06673D02*
X19262Y-06313D01*
X15802Y-06533D02*
X16352Y-06533D01*
X22713Y-05823D02*
X23312Y-05823D01*
X22713Y-05823D02*
X22638Y-05748D01*
X16492Y-06673D02*
X18902Y-06673D01*
X19262Y-06323D02*
X19262Y-06313D01*
X22747Y-06338D02*
X22652Y-06433D01*
X23312Y-06338D02*
X22747Y-06338D01*
X18942Y-06193D02*
X18942Y-05593D01*
X18772Y-06363D02*
X18942Y-06193D01*
X18002Y-02673D02*
X17994Y-02665D01*
X15242Y-02213D02*
X15252Y-02203D01*
X17994Y-01813D02*
X17994Y-02665D01*
X15242Y-02213D02*
X14702Y-02213D01*
X14702Y-02633D02*
X14702Y-02213D01*
X14572Y-02763D02*
X14702Y-02633D01*
X18622Y-05593D02*
X18622Y-05003D01*
X20522Y-06083D02*
X21112Y-06083D01*
X18782Y-04843D02*
X19282Y-04843D01*
X19282Y-04843D02*
X20522Y-06083D01*
X18622Y-05003D02*
X18782Y-04843D01*
X20032Y-04843D02*
X20502Y-05313D01*
X20032Y-04843D02*
X20032Y-04813D01*
X21456Y-07183D02*
X21492Y-07183D01*
X21456Y-07183D02*
X14462Y-07183D01*
X22152Y-05313D02*
X22162Y-05323D01*
X21112Y-05313D02*
X20502Y-05313D01*
X22162Y-05323D02*
X21122Y-05323D01*
X21492Y-07183D02*
X21742Y-06933D01*
X13962Y-06683D02*
X14462Y-07183D01*
X21122Y-05323D02*
X21112Y-05313D01*
X20472Y-06813D02*
X20472Y-06593D01*
X08122Y-08433D02*
X08932Y-08433D01*
X14512Y-03853D02*
X14512Y-03863D01*
X19476Y-06883D02*
X19586Y-06993D01*
G54D32*
X17518Y-03937D02*
X17912Y-03543D01*
G54D33*
X25700Y-08575D02*
X25712Y-08563D01*
X20292Y-06993D02*
X20472Y-06813D01*
X21368Y-04449D02*
X20962Y-04043D01*
X09072Y-10143D02*
X09092Y-10123D01*
X17902Y-03553D02*
X17902Y-03533D01*
X20462Y-03543D02*
X20962Y-04043D01*
X06472Y-08033D02*
X06472Y-08013D01*
X06892Y-08433D02*
X06522Y-08063D01*
G54D32*
X17088Y-03111D02*
X17480Y-03111D01*
X15432Y-03863D02*
X16264Y-03863D01*
X16968Y-03231D02*
X17088Y-03111D01*
G54D33*
X20462Y-03543D02*
X20032Y-03543D01*
X14052Y-03863D02*
X13902Y-03713D01*
X09072Y-08293D02*
X08922Y-08443D01*
X09532Y-03713D02*
X09382Y-03563D01*
X07402Y-08433D02*
X08122Y-08433D01*
X19242Y-06883D02*
X19476Y-06883D01*
G54D32*
X17480Y-03111D02*
X17912Y-03543D01*
G54D33*
X12982Y-03133D02*
X12992Y-03123D01*
X13002Y-03133D02*
X12992Y-03123D01*
G54D32*
X15082Y-03863D02*
X15432Y-03863D01*
G54D33*
X20472Y-06593D02*
X21112Y-06593D01*
X11141Y-05544D02*
X09677Y-05544D01*
X10222Y-08293D02*
X11483Y-08293D01*
X06512Y-09483D02*
X06512Y-09453D01*
X09382Y-02913D02*
X09082Y-02613D01*
X07162Y-10133D02*
X06512Y-09483D01*
X13002Y-03713D02*
X09532Y-03713D01*
G54D32*
X16266Y-03231D02*
X16968Y-03231D01*
G54D33*
X24462Y-09573D02*
X24702Y-09573D01*
G54D32*
X16266Y-03861D02*
X17010Y-03861D01*
G54D33*
X15642Y-02313D02*
X15642Y-01953D01*
X10412Y-08293D02*
X10222Y-08293D01*
X21668Y-04449D02*
X21368Y-04449D01*
X15232Y-02723D02*
X15642Y-02313D01*
X13902Y-03713D02*
X13002Y-03713D01*
X07402Y-08433D02*
X06892Y-08433D01*
X09382Y-03563D02*
X09382Y-02913D01*
X09072Y-08293D02*
X09072Y-09053D01*
X08122Y-08433D02*
X08262Y-08293D01*
X24702Y-09573D02*
X25700Y-08575D01*
X13002Y-03713D02*
X13002Y-03133D01*
X08932Y-08433D02*
X09072Y-08293D01*
X11812Y-09823D02*
X11752Y-09823D01*
X25700Y-07578D02*
X25697Y-07575D01*
X06392Y-02173D02*
X06642Y-01923D01*
X06642Y-01923D02*
X06642Y-01403D01*
X17912Y-03543D02*
X17902Y-03533D01*
X09322Y-04053D02*
X09322Y-03623D01*
X11483Y-08293D02*
X11921Y-07855D01*
X25700Y-07578D02*
X25697Y-07575D01*
X09677Y-05544D02*
X09409Y-05812D01*
G54D32*
X17010Y-03861D02*
X17086Y-03937D01*
G54D33*
X09322Y-03623D02*
X09382Y-03563D01*
X19586Y-06993D02*
X20292Y-06993D01*
X19242Y-06883D02*
X16072Y-06883D01*
X25700Y-08575D02*
X25700Y-07578D01*
X06502Y-08063D02*
X06472Y-08033D01*
X11220Y-05623D02*
X11141Y-05544D01*
X14512Y-03863D02*
X14052Y-03863D01*
X16072Y-06883D02*
X16062Y-06873D01*
G54D32*
X17086Y-03937D02*
X17518Y-03937D01*
G54D33*
X11752Y-09823D02*
X10222Y-08293D01*
G54D32*
X20032Y-03543D02*
X17912Y-03543D01*
G54D33*
X09072Y-08293D02*
X10222Y-08293D01*
X09072Y-04303D02*
X09322Y-04053D01*
X09092Y-10123D02*
X10772Y-10123D01*
X15082Y-03863D02*
X14512Y-03863D01*
G54D32*
X16264Y-03863D02*
X16266Y-03861D01*
G54D33*
X21294Y-02643D02*
X21892Y-02643D01*
X20032Y-02913D02*
X21024Y-02913D01*
X21024Y-02913D02*
X21294Y-02643D01*
X08352Y-06993D02*
X09072Y-06993D01*
X08522Y-05243D02*
X08522Y-05793D01*
X08492Y-06993D02*
X09072Y-06993D01*
X08522Y-05243D02*
X08522Y-04543D01*
X08522Y-04303D02*
X07842Y-03623D01*
X08152Y-06793D02*
X08352Y-06993D01*
X08122Y-07363D02*
X08492Y-06993D01*
X08522Y-04543D02*
X08522Y-04303D01*
X08522Y-05793D02*
X08512Y-05803D01*
X08122Y-07833D02*
X08122Y-07363D01*
X07702Y-05463D02*
X07702Y-05353D01*
X07292Y-04943D02*
X06522Y-04943D01*
X07702Y-05353D02*
X07292Y-04943D01*
X07922Y-04543D02*
X07772Y-04543D01*
X07172Y-03943D02*
X06522Y-03943D01*
X07772Y-04543D02*
X07172Y-03943D01*
X24291Y-07169D02*
X24697Y-07575D01*
X24292Y-07153D02*
X24291Y-07153D01*
X21612Y-06338D02*
X21112Y-06338D01*
X24291Y-07153D02*
X24291Y-07169D01*
X24291Y-07153D02*
X22427Y-07153D01*
X22427Y-07153D02*
X21612Y-06338D01*
X23312Y-05568D02*
X24690Y-05568D01*
X24690Y-05568D02*
X24697Y-05575D01*
X23319Y-05575D02*
X23312Y-05568D01*
X21802Y-05573D02*
X21112Y-05573D01*
X23922Y-06943D02*
X22662Y-06943D01*
X22662Y-06943D02*
X22172Y-06453D01*
X24291Y-06574D02*
X24696Y-06574D01*
X21802Y-05573D02*
X21912Y-05683D01*
X24291Y-06574D02*
X23922Y-06943D01*
X24292Y-06573D02*
X24291Y-06574D01*
X24696Y-06574D02*
X24697Y-06575D01*
X23752Y-06593D02*
X24272Y-06073D01*
X23312Y-06593D02*
X23752Y-06593D01*
X25197Y-06075D02*
X25697Y-06575D01*
X25197Y-06073D02*
X25197Y-06075D01*
X25197Y-06073D02*
X25212Y-06073D01*
X24272Y-06073D02*
X25197Y-06073D01*
X09902Y-06673D02*
X10222Y-06993D01*
X09792Y-06183D02*
X09902Y-06073D01*
X09902Y-06073D02*
X09902Y-06673D01*
X07702Y-06063D02*
X08112Y-06063D01*
X08232Y-06183D02*
X09792Y-06183D01*
X07402Y-07833D02*
X07402Y-06363D01*
X08112Y-06063D02*
X08232Y-06183D01*
X07402Y-06363D02*
X07702Y-06063D01*
X21062Y-01233D02*
X21782Y-01233D01*
X21782Y-01233D02*
X21892Y-01343D01*
X02244Y-07776D02*
X02244Y-07167D01*
G54D31*
X01416Y-04511D02*
X02283Y-03644D01*
X01416Y-06339D02*
X01416Y-04511D01*
X02243Y-07166D02*
X01416Y-06339D01*
G54D33*
X02244Y-07167D02*
X02243Y-07166D01*
X03553Y-04342D02*
X03562Y-04333D01*
X03553Y-05523D02*
X03553Y-04342D01*
X03553Y-05523D02*
X03562Y-05514D01*
X02874Y-06202D02*
X02873Y-06203D01*
X02893Y-06183D02*
X03553Y-05523D01*
X02873Y-06203D02*
X02893Y-06183D01*
X02874Y-07776D02*
X02874Y-06202D01*
G54D31*
X03938Y-02758D02*
X03464Y-02758D01*
X04408Y-03228D02*
X03938Y-02758D01*
X04408Y-03504D02*
X04408Y-03228D01*
X04408Y-03465D02*
X04408Y-03504D01*
G54D33*
X03504Y-07322D02*
X03917Y-06909D01*
G54D31*
X04408Y-06418D02*
X04408Y-03504D01*
X03917Y-06909D02*
X04408Y-06418D01*
G54D33*
X03504Y-07776D02*
X03504Y-07322D01*
X15562Y-04283D02*
X13771Y-04283D01*
X13012Y-02543D02*
X12992Y-02523D01*
X13622Y-02639D02*
X13622Y-02914D01*
X13771Y-04283D02*
X13622Y-04134D01*
X13506Y-02523D02*
X13622Y-02639D01*
X16266Y-04491D02*
X15770Y-04491D01*
X11382Y-02523D02*
X12992Y-02523D01*
X15770Y-04491D02*
X15562Y-04283D01*
X13506Y-02523D02*
X12992Y-02523D01*
X02558Y-05494D02*
X02381Y-05317D01*
X02558Y-05494D02*
X02381Y-05317D01*
X02559Y-05495D02*
X02381Y-05317D01*
X02559Y-07776D02*
X02559Y-05495D01*
X22952Y-02643D02*
X22952Y-02343D01*
X20042Y-02613D02*
X20032Y-02603D01*
X22712Y-02103D02*
X22952Y-02343D01*
X20812Y-02613D02*
X20042Y-02613D01*
X21322Y-02103D02*
X22712Y-02103D01*
X21322Y-02103D02*
X20812Y-02613D01*
X22822Y-01903D02*
X22952Y-01773D01*
X22952Y-01773D02*
X22952Y-01343D01*
X21062Y-01803D02*
X21232Y-01803D01*
X21332Y-01903D02*
X22822Y-01903D01*
X21232Y-01803D02*
X21332Y-01903D01*
X15342Y-04503D02*
X13192Y-04503D01*
X11642Y-04263D02*
X12952Y-04263D01*
X13192Y-04503D02*
X13002Y-04313D01*
X12952Y-04263D02*
X13002Y-04313D01*
X16266Y-04806D02*
X15645Y-04806D01*
X15645Y-04806D02*
X15342Y-04503D01*
X11382Y-04523D02*
X11642Y-04263D01*
G54D31*
X23922Y-04804D02*
X23819Y-04804D01*
X23819Y-04804D02*
X23322Y-04307D01*
G54D33*
X23312Y-05058D02*
X23312Y-04473D01*
X23312Y-04473D02*
X23322Y-04463D01*
X23322Y-04463D02*
X23312Y-04473D01*
G54D31*
X23322Y-04463D02*
X23322Y-04307D01*
X23322Y-04307D02*
X23322Y-03813D01*
X23322Y-03813D02*
X23122Y-03613D01*
G54D33*
X23312Y-04473D02*
X23322Y-04463D01*
G54D31*
X25541Y-04833D02*
X25697Y-04989D01*
X23922Y-04833D02*
X23922Y-04804D01*
X23922Y-04804D02*
X23922Y-04803D01*
G54D33*
X23912Y-04833D02*
X23922Y-04833D01*
G54D31*
X23922Y-04833D02*
X25541Y-04833D01*
X25697Y-04989D02*
X25697Y-05575D01*
G54D10*
G36*
X07981Y-01148D02*
X07559Y-01570D01*
X07472Y-01700D01*
X07442Y-01853D01*
X07442Y-02623D01*
X07071Y-02623D01*
X07071Y-02594D01*
X07033Y-02502D01*
X06963Y-02432D01*
X06872Y-02394D01*
X06773Y-02394D01*
X06250Y-02394D01*
X06250Y-01458D01*
X06560Y-01148D01*
X07981Y-01148D01*
X07981Y-01148D01*
G37*
G54D34*
X07981Y-01148D02*
X07559Y-01570D01*
X07472Y-01700D01*
X07442Y-01853D01*
X07442Y-02623D01*
X07071Y-02623D01*
X07071Y-02594D01*
X07033Y-02502D01*
X06963Y-02432D01*
X06872Y-02394D01*
X06773Y-02394D01*
X06250Y-02394D01*
X06250Y-01458D01*
X06560Y-01148D01*
X07981Y-01148D01*
G54D10*
G36*
X11512Y-05533D02*
X11262Y-05783D01*
X10841Y-05783D01*
X10838Y-05775D01*
X10768Y-05705D01*
X10677Y-05667D01*
X10578Y-05667D01*
X10328Y-05667D01*
X10236Y-05705D01*
X10202Y-05739D01*
X10168Y-05705D01*
X10077Y-05667D01*
X09978Y-05667D01*
X09728Y-05667D01*
X09636Y-05705D01*
X09566Y-05775D01*
X09528Y-05866D01*
X09528Y-05893D01*
X08914Y-05893D01*
X08918Y-05884D01*
X08918Y-05723D01*
X08874Y-05618D01*
X08947Y-05649D01*
X09046Y-05649D01*
X09296Y-05649D01*
X09388Y-05611D01*
X09458Y-05541D01*
X09461Y-05533D01*
X11512Y-05533D01*
X11512Y-05533D01*
G37*
G54D34*
X11512Y-05533D02*
X11262Y-05783D01*
X10841Y-05783D01*
X10838Y-05775D01*
X10768Y-05705D01*
X10677Y-05667D01*
X10578Y-05667D01*
X10328Y-05667D01*
X10236Y-05705D01*
X10202Y-05739D01*
X10168Y-05705D01*
X10077Y-05667D01*
X09978Y-05667D01*
X09728Y-05667D01*
X09636Y-05705D01*
X09566Y-05775D01*
X09528Y-05866D01*
X09528Y-05893D01*
X08914Y-05893D01*
X08918Y-05884D01*
X08918Y-05723D01*
X08874Y-05618D01*
X08947Y-05649D01*
X09046Y-05649D01*
X09296Y-05649D01*
X09388Y-05611D01*
X09458Y-05541D01*
X09461Y-05533D01*
X11512Y-05533D01*
G54D10*
G36*
X12637Y-06134D02*
X12613Y-06134D01*
X12521Y-06172D01*
X12451Y-06242D01*
X12413Y-06333D01*
X12413Y-06432D01*
X12413Y-07032D01*
X12420Y-07050D01*
X12332Y-07109D01*
X12262Y-07215D01*
X12237Y-07339D01*
X12237Y-09022D01*
X11977Y-08919D01*
X11619Y-08924D01*
X11313Y-09052D01*
X11243Y-09183D01*
X11777Y-09717D01*
X11812Y-09752D01*
X11883Y-09823D01*
X11812Y-09894D01*
X11777Y-09929D01*
X11741Y-09965D01*
X11741Y-09823D01*
X11172Y-09254D01*
X11041Y-09324D01*
X10908Y-09658D01*
X10913Y-10016D01*
X11041Y-10322D01*
X11172Y-10392D01*
X11741Y-09823D01*
X11741Y-09965D01*
X11243Y-10463D01*
X11256Y-10488D01*
X10872Y-10488D01*
X10872Y-08405D01*
X10872Y-08181D01*
X10871Y-07944D01*
X10833Y-07852D01*
X10763Y-07782D01*
X10672Y-07744D01*
X10573Y-07744D01*
X10334Y-07743D01*
X10272Y-07805D01*
X10272Y-08243D01*
X10810Y-08243D01*
X10872Y-08181D01*
X10872Y-08405D01*
X10810Y-08343D01*
X10272Y-08343D01*
X10272Y-08781D01*
X10334Y-08843D01*
X10573Y-08842D01*
X10672Y-08842D01*
X10763Y-08804D01*
X10833Y-08734D01*
X10871Y-08642D01*
X10872Y-08405D01*
X10872Y-10488D01*
X10172Y-10488D01*
X10172Y-08781D01*
X10172Y-08343D01*
X10172Y-08243D01*
X10172Y-07805D01*
X10110Y-07743D01*
X09871Y-07744D01*
X09772Y-07744D01*
X09681Y-07782D01*
X09647Y-07816D01*
X09613Y-07782D01*
X09522Y-07744D01*
X09423Y-07744D01*
X09184Y-07743D01*
X09122Y-07805D01*
X09122Y-08243D01*
X09634Y-08243D01*
X09660Y-08243D01*
X10172Y-08243D01*
X10172Y-08343D01*
X09660Y-08343D01*
X09634Y-08343D01*
X09122Y-08343D01*
X09122Y-08781D01*
X09184Y-08843D01*
X09423Y-08842D01*
X09522Y-08842D01*
X09613Y-08804D01*
X09647Y-08770D01*
X09681Y-08804D01*
X09772Y-08842D01*
X09871Y-08842D01*
X10110Y-08843D01*
X10172Y-08781D01*
X10172Y-10488D01*
X08072Y-10488D01*
X08072Y-08746D01*
X08072Y-08483D01*
X07777Y-08483D01*
X07762Y-08498D01*
X07747Y-08483D01*
X07452Y-08483D01*
X07452Y-08746D01*
X07513Y-08807D01*
X07609Y-08807D01*
X07700Y-08769D01*
X07762Y-08707D01*
X07824Y-08769D01*
X07915Y-08807D01*
X08011Y-08807D01*
X08072Y-08746D01*
X08072Y-10488D01*
X07352Y-10488D01*
X07352Y-08746D01*
X07352Y-08483D01*
X07057Y-08483D01*
X06995Y-08545D01*
X06996Y-08607D01*
X07034Y-08699D01*
X07104Y-08769D01*
X07195Y-08807D01*
X07291Y-08807D01*
X07352Y-08746D01*
X07352Y-10488D01*
X06966Y-10488D01*
X06250Y-09771D01*
X06250Y-06418D01*
X06443Y-06486D01*
X06656Y-06475D01*
X06803Y-06415D01*
X06830Y-06321D01*
X06557Y-06049D01*
X06522Y-06014D01*
X06451Y-05943D01*
X06522Y-05872D01*
X06557Y-05837D01*
X06830Y-05565D01*
X06803Y-05471D01*
X06737Y-05447D01*
X06833Y-05408D01*
X06987Y-05254D01*
X06995Y-05233D01*
X07172Y-05233D01*
X07296Y-05357D01*
X07296Y-05387D01*
X07296Y-05637D01*
X07334Y-05729D01*
X07368Y-05763D01*
X07334Y-05797D01*
X07296Y-05888D01*
X07296Y-05987D01*
X07296Y-06059D01*
X07197Y-06158D01*
X07134Y-06252D01*
X07112Y-06363D01*
X07112Y-07493D01*
X07104Y-07497D01*
X07065Y-07536D01*
X07065Y-06022D01*
X07054Y-05809D01*
X06994Y-05662D01*
X06900Y-05635D01*
X06593Y-05943D01*
X06900Y-06251D01*
X06994Y-06224D01*
X07065Y-06022D01*
X07065Y-07536D01*
X07034Y-07567D01*
X06996Y-07658D01*
X06996Y-07757D01*
X06996Y-08007D01*
X07034Y-08099D01*
X07068Y-08133D01*
X07034Y-08167D01*
X06996Y-08259D01*
X06995Y-08321D01*
X07057Y-08383D01*
X07302Y-08383D01*
X07352Y-08383D01*
X07452Y-08383D01*
X07502Y-08383D01*
X07747Y-08383D01*
X07762Y-08368D01*
X07777Y-08383D01*
X08022Y-08383D01*
X08072Y-08383D01*
X08172Y-08383D01*
X08172Y-08483D01*
X08172Y-08533D01*
X08172Y-08746D01*
X08233Y-08807D01*
X08329Y-08807D01*
X08420Y-08769D01*
X08459Y-08729D01*
X08461Y-08734D01*
X08531Y-08804D01*
X08622Y-08842D01*
X08721Y-08842D01*
X08960Y-08843D01*
X09022Y-08781D01*
X09022Y-08393D01*
X09022Y-08343D01*
X09022Y-08243D01*
X09022Y-08193D01*
X09022Y-07805D01*
X08960Y-07743D01*
X08721Y-07744D01*
X08622Y-07744D01*
X08531Y-07782D01*
X08528Y-07785D01*
X08528Y-07659D01*
X08490Y-07567D01*
X08420Y-07497D01*
X08412Y-07493D01*
X08412Y-07483D01*
X08461Y-07434D01*
X08531Y-07504D01*
X08622Y-07542D01*
X08721Y-07542D01*
X09521Y-07542D01*
X09613Y-07504D01*
X09647Y-07470D01*
X09681Y-07504D01*
X09772Y-07542D01*
X09871Y-07542D01*
X10671Y-07542D01*
X10763Y-07504D01*
X10833Y-07434D01*
X10871Y-07343D01*
X10871Y-07244D01*
X10871Y-06644D01*
X10833Y-06552D01*
X10763Y-06482D01*
X10716Y-06462D01*
X10768Y-06441D01*
X10838Y-06371D01*
X10841Y-06363D01*
X11382Y-06363D01*
X11493Y-06341D01*
X11587Y-06278D01*
X12582Y-05283D01*
X12586Y-05283D01*
X12497Y-05372D01*
X12413Y-05574D01*
X12413Y-05792D01*
X12497Y-05994D01*
X12637Y-06134D01*
X12637Y-06134D01*
G37*
G54D34*
X12637Y-06134D02*
X12613Y-06134D01*
X12521Y-06172D01*
X12451Y-06242D01*
X12413Y-06333D01*
X12413Y-06432D01*
X12413Y-07032D01*
X12420Y-07050D01*
X12332Y-07109D01*
X12262Y-07215D01*
X12237Y-07339D01*
X12237Y-09022D01*
X11977Y-08919D01*
X11619Y-08924D01*
X11313Y-09052D01*
X11243Y-09183D01*
X11777Y-09717D01*
X11812Y-09752D01*
X11883Y-09823D01*
X11812Y-09894D01*
X11777Y-09929D01*
X11741Y-09965D01*
X11741Y-09823D01*
X11172Y-09254D01*
X11041Y-09324D01*
X10908Y-09658D01*
X10913Y-10016D01*
X11041Y-10322D01*
X11172Y-10392D01*
X11741Y-09823D01*
X11741Y-09965D01*
X11243Y-10463D01*
X11256Y-10488D01*
X10872Y-10488D01*
X10872Y-08405D01*
X10872Y-08181D01*
X10871Y-07944D01*
X10833Y-07852D01*
X10763Y-07782D01*
X10672Y-07744D01*
X10573Y-07744D01*
X10334Y-07743D01*
X10272Y-07805D01*
X10272Y-08243D01*
X10810Y-08243D01*
X10872Y-08181D01*
X10872Y-08405D01*
X10810Y-08343D01*
X10272Y-08343D01*
X10272Y-08781D01*
X10334Y-08843D01*
X10573Y-08842D01*
X10672Y-08842D01*
X10763Y-08804D01*
X10833Y-08734D01*
X10871Y-08642D01*
X10872Y-08405D01*
X10872Y-10488D01*
X10172Y-10488D01*
X10172Y-08781D01*
X10172Y-08343D01*
X10172Y-08243D01*
X10172Y-07805D01*
X10110Y-07743D01*
X09871Y-07744D01*
X09772Y-07744D01*
X09681Y-07782D01*
X09647Y-07816D01*
X09613Y-07782D01*
X09522Y-07744D01*
X09423Y-07744D01*
X09184Y-07743D01*
X09122Y-07805D01*
X09122Y-08243D01*
X09634Y-08243D01*
X09660Y-08243D01*
X10172Y-08243D01*
X10172Y-08343D01*
X09660Y-08343D01*
X09634Y-08343D01*
X09122Y-08343D01*
X09122Y-08781D01*
X09184Y-08843D01*
X09423Y-08842D01*
X09522Y-08842D01*
X09613Y-08804D01*
X09647Y-08770D01*
X09681Y-08804D01*
X09772Y-08842D01*
X09871Y-08842D01*
X10110Y-08843D01*
X10172Y-08781D01*
X10172Y-10488D01*
X08072Y-10488D01*
X08072Y-08746D01*
X08072Y-08483D01*
X07777Y-08483D01*
X07762Y-08498D01*
X07747Y-08483D01*
X07452Y-08483D01*
X07452Y-08746D01*
X07513Y-08807D01*
X07609Y-08807D01*
X07700Y-08769D01*
X07762Y-08707D01*
X07824Y-08769D01*
X07915Y-08807D01*
X08011Y-08807D01*
X08072Y-08746D01*
X08072Y-10488D01*
X07352Y-10488D01*
X07352Y-08746D01*
X07352Y-08483D01*
X07057Y-08483D01*
X06995Y-08545D01*
X06996Y-08607D01*
X07034Y-08699D01*
X07104Y-08769D01*
X07195Y-08807D01*
X07291Y-08807D01*
X07352Y-08746D01*
X07352Y-10488D01*
X06966Y-10488D01*
X06250Y-09771D01*
X06250Y-06418D01*
X06443Y-06486D01*
X06656Y-06475D01*
X06803Y-06415D01*
X06830Y-06321D01*
X06557Y-06049D01*
X06522Y-06014D01*
X06451Y-05943D01*
X06522Y-05872D01*
X06557Y-05837D01*
X06830Y-05565D01*
X06803Y-05471D01*
X06737Y-05447D01*
X06833Y-05408D01*
X06987Y-05254D01*
X06995Y-05233D01*
X07172Y-05233D01*
X07296Y-05357D01*
X07296Y-05387D01*
X07296Y-05637D01*
X07334Y-05729D01*
X07368Y-05763D01*
X07334Y-05797D01*
X07296Y-05888D01*
X07296Y-05987D01*
X07296Y-06059D01*
X07197Y-06158D01*
X07134Y-06252D01*
X07112Y-06363D01*
X07112Y-07493D01*
X07104Y-07497D01*
X07065Y-07536D01*
X07065Y-06022D01*
X07054Y-05809D01*
X06994Y-05662D01*
X06900Y-05635D01*
X06593Y-05943D01*
X06900Y-06251D01*
X06994Y-06224D01*
X07065Y-06022D01*
X07065Y-07536D01*
X07034Y-07567D01*
X06996Y-07658D01*
X06996Y-07757D01*
X06996Y-08007D01*
X07034Y-08099D01*
X07068Y-08133D01*
X07034Y-08167D01*
X06996Y-08259D01*
X06995Y-08321D01*
X07057Y-08383D01*
X07302Y-08383D01*
X07352Y-08383D01*
X07452Y-08383D01*
X07502Y-08383D01*
X07747Y-08383D01*
X07762Y-08368D01*
X07777Y-08383D01*
X08022Y-08383D01*
X08072Y-08383D01*
X08172Y-08383D01*
X08172Y-08483D01*
X08172Y-08533D01*
X08172Y-08746D01*
X08233Y-08807D01*
X08329Y-08807D01*
X08420Y-08769D01*
X08459Y-08729D01*
X08461Y-08734D01*
X08531Y-08804D01*
X08622Y-08842D01*
X08721Y-08842D01*
X08960Y-08843D01*
X09022Y-08781D01*
X09022Y-08393D01*
X09022Y-08343D01*
X09022Y-08243D01*
X09022Y-08193D01*
X09022Y-07805D01*
X08960Y-07743D01*
X08721Y-07744D01*
X08622Y-07744D01*
X08531Y-07782D01*
X08528Y-07785D01*
X08528Y-07659D01*
X08490Y-07567D01*
X08420Y-07497D01*
X08412Y-07493D01*
X08412Y-07483D01*
X08461Y-07434D01*
X08531Y-07504D01*
X08622Y-07542D01*
X08721Y-07542D01*
X09521Y-07542D01*
X09613Y-07504D01*
X09647Y-07470D01*
X09681Y-07504D01*
X09772Y-07542D01*
X09871Y-07542D01*
X10671Y-07542D01*
X10763Y-07504D01*
X10833Y-07434D01*
X10871Y-07343D01*
X10871Y-07244D01*
X10871Y-06644D01*
X10833Y-06552D01*
X10763Y-06482D01*
X10716Y-06462D01*
X10768Y-06441D01*
X10838Y-06371D01*
X10841Y-06363D01*
X11382Y-06363D01*
X11493Y-06341D01*
X11587Y-06278D01*
X12582Y-05283D01*
X12586Y-05283D01*
X12497Y-05372D01*
X12413Y-05574D01*
X12413Y-05792D01*
X12497Y-05994D01*
X12637Y-06134D01*
G54D10*
G36*
X15033Y-05683D02*
X14962Y-05754D01*
X14891Y-05683D01*
X14856Y-05648D01*
X14584Y-05375D01*
X14490Y-05402D01*
X14466Y-05467D01*
X14427Y-05372D01*
X14338Y-05283D01*
X14660Y-05283D01*
X14654Y-05305D01*
X14927Y-05577D01*
X14962Y-05612D01*
X15033Y-05683D01*
X15033Y-05683D01*
G37*
G54D34*
X15033Y-05683D02*
X14962Y-05754D01*
X14891Y-05683D01*
X14856Y-05648D01*
X14584Y-05375D01*
X14490Y-05402D01*
X14466Y-05467D01*
X14427Y-05372D01*
X14338Y-05283D01*
X14660Y-05283D01*
X14654Y-05305D01*
X14927Y-05577D01*
X14962Y-05612D01*
X15033Y-05683D01*
G54D10*
G36*
X15629Y-03961D02*
X15624Y-03966D01*
X15624Y-03999D01*
X15626Y-04005D01*
X15562Y-03993D01*
X15488Y-03993D01*
X15489Y-03975D01*
X15427Y-03913D01*
X15182Y-03913D01*
X15132Y-03913D01*
X15032Y-03913D01*
X14982Y-03913D01*
X14737Y-03913D01*
X14675Y-03975D01*
X14675Y-03993D01*
X14002Y-03993D01*
X13966Y-03905D01*
X13853Y-03790D01*
X13703Y-03728D01*
X13542Y-03728D01*
X13393Y-03790D01*
X13383Y-03799D01*
X13347Y-03763D01*
X13102Y-03763D01*
X13052Y-03763D01*
X12952Y-03763D01*
X12952Y-03663D01*
X12952Y-03400D01*
X12942Y-03390D01*
X12942Y-03173D01*
X12647Y-03173D01*
X12585Y-03235D01*
X12586Y-03297D01*
X12624Y-03389D01*
X12658Y-03423D01*
X12634Y-03447D01*
X12596Y-03539D01*
X12595Y-03601D01*
X12657Y-03663D01*
X12952Y-03663D01*
X12952Y-03763D01*
X12902Y-03763D01*
X12657Y-03763D01*
X12595Y-03825D01*
X12596Y-03887D01*
X12631Y-03973D01*
X11642Y-03973D01*
X11548Y-03991D01*
X11530Y-03995D01*
X11516Y-04004D01*
X11515Y-04004D01*
X11488Y-03993D01*
X11277Y-03993D01*
X11082Y-04074D01*
X10933Y-04222D01*
X10852Y-04417D01*
X10852Y-04628D01*
X10933Y-04823D01*
X11062Y-04953D01*
X09832Y-04953D01*
X09832Y-02725D01*
X09832Y-02501D01*
X09831Y-02314D01*
X09793Y-02222D01*
X09723Y-02152D01*
X09632Y-02114D01*
X09533Y-02114D01*
X09194Y-02113D01*
X09132Y-02175D01*
X09132Y-02563D01*
X09770Y-02563D01*
X09832Y-02501D01*
X09832Y-02725D01*
X09770Y-02663D01*
X09132Y-02663D01*
X09132Y-03051D01*
X09194Y-03113D01*
X09533Y-03112D01*
X09632Y-03112D01*
X09723Y-03074D01*
X09793Y-03004D01*
X09831Y-02912D01*
X09832Y-02725D01*
X09832Y-04953D01*
X09756Y-04953D01*
X09756Y-03770D01*
X09756Y-03674D01*
X09756Y-03452D01*
X09756Y-03356D01*
X09718Y-03265D01*
X09648Y-03195D01*
X09556Y-03157D01*
X09494Y-03156D01*
X09432Y-03218D01*
X09432Y-03513D01*
X09695Y-03513D01*
X09756Y-03452D01*
X09756Y-03674D01*
X09695Y-03613D01*
X09432Y-03613D01*
X09432Y-03908D01*
X09494Y-03970D01*
X09556Y-03969D01*
X09648Y-03931D01*
X09718Y-03861D01*
X09756Y-03770D01*
X09756Y-04953D01*
X09461Y-04953D01*
X09458Y-04945D01*
X09388Y-04875D01*
X09297Y-04837D01*
X09198Y-04837D01*
X08948Y-04837D01*
X08856Y-04875D01*
X08822Y-04909D01*
X08812Y-04899D01*
X08812Y-04887D01*
X08858Y-04841D01*
X08896Y-04750D01*
X08896Y-04651D01*
X08896Y-04337D01*
X08858Y-04245D01*
X08788Y-04175D01*
X08775Y-04169D01*
X08774Y-04169D01*
X08727Y-04098D01*
X08727Y-04097D01*
X08592Y-03963D01*
X08607Y-03969D01*
X08706Y-03969D01*
X08956Y-03969D01*
X09048Y-03931D01*
X09082Y-03897D01*
X09116Y-03931D01*
X09208Y-03969D01*
X09270Y-03970D01*
X09332Y-03908D01*
X09332Y-03663D01*
X09332Y-03613D01*
X09332Y-03513D01*
X09332Y-03463D01*
X09332Y-03218D01*
X09270Y-03156D01*
X09208Y-03157D01*
X09116Y-03195D01*
X09082Y-03229D01*
X09048Y-03195D01*
X08957Y-03157D01*
X08921Y-03157D01*
X08877Y-03112D01*
X08970Y-03113D01*
X09032Y-03051D01*
X09032Y-02663D01*
X09032Y-02563D01*
X09032Y-02175D01*
X08970Y-02113D01*
X08631Y-02114D01*
X08532Y-02114D01*
X08441Y-02152D01*
X08371Y-02222D01*
X08333Y-02314D01*
X08332Y-02501D01*
X08394Y-02563D01*
X09032Y-02563D01*
X09032Y-02663D01*
X08394Y-02663D01*
X08392Y-02664D01*
X08375Y-02653D01*
X08242Y-02626D01*
X08242Y-02019D01*
X08414Y-01847D01*
X08441Y-01874D01*
X08532Y-01912D01*
X08631Y-01912D01*
X09631Y-01912D01*
X09723Y-01874D01*
X09784Y-01813D01*
X12537Y-01813D01*
X12537Y-01977D01*
X12601Y-02133D01*
X12674Y-02206D01*
X12648Y-02233D01*
X11835Y-02233D01*
X11831Y-02223D01*
X11683Y-02074D01*
X11488Y-01993D01*
X11277Y-01993D01*
X11082Y-02074D01*
X10933Y-02222D01*
X10852Y-02417D01*
X10852Y-02628D01*
X10933Y-02823D01*
X11081Y-02972D01*
X11276Y-03053D01*
X11487Y-03053D01*
X11682Y-02972D01*
X11831Y-02824D01*
X11835Y-02813D01*
X12648Y-02813D01*
X12658Y-02823D01*
X12624Y-02857D01*
X12586Y-02949D01*
X12585Y-03011D01*
X12647Y-03073D01*
X12892Y-03073D01*
X12942Y-03073D01*
X13042Y-03073D01*
X13042Y-03173D01*
X13042Y-03223D01*
X13042Y-03436D01*
X13052Y-03446D01*
X13052Y-03663D01*
X13347Y-03663D01*
X13409Y-03601D01*
X13408Y-03539D01*
X13370Y-03447D01*
X13336Y-03413D01*
X13360Y-03389D01*
X13398Y-03297D01*
X13398Y-03261D01*
X13541Y-03320D01*
X13702Y-03320D01*
X13851Y-03258D01*
X13926Y-03183D01*
X14238Y-03495D01*
X14344Y-03566D01*
X14345Y-03566D01*
X14470Y-03591D01*
X14720Y-03591D01*
X14714Y-03597D01*
X14676Y-03689D01*
X14675Y-03751D01*
X14737Y-03813D01*
X14982Y-03813D01*
X15032Y-03813D01*
X15132Y-03813D01*
X15182Y-03813D01*
X15427Y-03813D01*
X15438Y-03801D01*
X15509Y-03849D01*
X15510Y-03849D01*
X15623Y-03871D01*
X15623Y-03961D01*
X15629Y-03961D01*
X15629Y-03961D01*
G37*
G54D34*
X15629Y-03961D02*
X15624Y-03966D01*
X15624Y-03999D01*
X15626Y-04005D01*
X15562Y-03993D01*
X15488Y-03993D01*
X15489Y-03975D01*
X15427Y-03913D01*
X15182Y-03913D01*
X15132Y-03913D01*
X15032Y-03913D01*
X14982Y-03913D01*
X14737Y-03913D01*
X14675Y-03975D01*
X14675Y-03993D01*
X14002Y-03993D01*
X13966Y-03905D01*
X13853Y-03790D01*
X13703Y-03728D01*
X13542Y-03728D01*
X13393Y-03790D01*
X13383Y-03799D01*
X13347Y-03763D01*
X13102Y-03763D01*
X13052Y-03763D01*
X12952Y-03763D01*
X12952Y-03663D01*
X12952Y-03400D01*
X12942Y-03390D01*
X12942Y-03173D01*
X12647Y-03173D01*
X12585Y-03235D01*
X12586Y-03297D01*
X12624Y-03389D01*
X12658Y-03423D01*
X12634Y-03447D01*
X12596Y-03539D01*
X12595Y-03601D01*
X12657Y-03663D01*
X12952Y-03663D01*
X12952Y-03763D01*
X12902Y-03763D01*
X12657Y-03763D01*
X12595Y-03825D01*
X12596Y-03887D01*
X12631Y-03973D01*
X11642Y-03973D01*
X11548Y-03991D01*
X11530Y-03995D01*
X11516Y-04004D01*
X11515Y-04004D01*
X11488Y-03993D01*
X11277Y-03993D01*
X11082Y-04074D01*
X10933Y-04222D01*
X10852Y-04417D01*
X10852Y-04628D01*
X10933Y-04823D01*
X11062Y-04953D01*
X09832Y-04953D01*
X09832Y-02725D01*
X09832Y-02501D01*
X09831Y-02314D01*
X09793Y-02222D01*
X09723Y-02152D01*
X09632Y-02114D01*
X09533Y-02114D01*
X09194Y-02113D01*
X09132Y-02175D01*
X09132Y-02563D01*
X09770Y-02563D01*
X09832Y-02501D01*
X09832Y-02725D01*
X09770Y-02663D01*
X09132Y-02663D01*
X09132Y-03051D01*
X09194Y-03113D01*
X09533Y-03112D01*
X09632Y-03112D01*
X09723Y-03074D01*
X09793Y-03004D01*
X09831Y-02912D01*
X09832Y-02725D01*
X09832Y-04953D01*
X09756Y-04953D01*
X09756Y-03770D01*
X09756Y-03674D01*
X09756Y-03452D01*
X09756Y-03356D01*
X09718Y-03265D01*
X09648Y-03195D01*
X09556Y-03157D01*
X09494Y-03156D01*
X09432Y-03218D01*
X09432Y-03513D01*
X09695Y-03513D01*
X09756Y-03452D01*
X09756Y-03674D01*
X09695Y-03613D01*
X09432Y-03613D01*
X09432Y-03908D01*
X09494Y-03970D01*
X09556Y-03969D01*
X09648Y-03931D01*
X09718Y-03861D01*
X09756Y-03770D01*
X09756Y-04953D01*
X09461Y-04953D01*
X09458Y-04945D01*
X09388Y-04875D01*
X09297Y-04837D01*
X09198Y-04837D01*
X08948Y-04837D01*
X08856Y-04875D01*
X08822Y-04909D01*
X08812Y-04899D01*
X08812Y-04887D01*
X08858Y-04841D01*
X08896Y-04750D01*
X08896Y-04651D01*
X08896Y-04337D01*
X08858Y-04245D01*
X08788Y-04175D01*
X08775Y-04169D01*
X08774Y-04169D01*
X08727Y-04098D01*
X08727Y-04097D01*
X08592Y-03963D01*
X08607Y-03969D01*
X08706Y-03969D01*
X08956Y-03969D01*
X09048Y-03931D01*
X09082Y-03897D01*
X09116Y-03931D01*
X09208Y-03969D01*
X09270Y-03970D01*
X09332Y-03908D01*
X09332Y-03663D01*
X09332Y-03613D01*
X09332Y-03513D01*
X09332Y-03463D01*
X09332Y-03218D01*
X09270Y-03156D01*
X09208Y-03157D01*
X09116Y-03195D01*
X09082Y-03229D01*
X09048Y-03195D01*
X08957Y-03157D01*
X08921Y-03157D01*
X08877Y-03112D01*
X08970Y-03113D01*
X09032Y-03051D01*
X09032Y-02663D01*
X09032Y-02563D01*
X09032Y-02175D01*
X08970Y-02113D01*
X08631Y-02114D01*
X08532Y-02114D01*
X08441Y-02152D01*
X08371Y-02222D01*
X08333Y-02314D01*
X08332Y-02501D01*
X08394Y-02563D01*
X09032Y-02563D01*
X09032Y-02663D01*
X08394Y-02663D01*
X08392Y-02664D01*
X08375Y-02653D01*
X08242Y-02626D01*
X08242Y-02019D01*
X08414Y-01847D01*
X08441Y-01874D01*
X08532Y-01912D01*
X08631Y-01912D01*
X09631Y-01912D01*
X09723Y-01874D01*
X09784Y-01813D01*
X12537Y-01813D01*
X12537Y-01977D01*
X12601Y-02133D01*
X12674Y-02206D01*
X12648Y-02233D01*
X11835Y-02233D01*
X11831Y-02223D01*
X11683Y-02074D01*
X11488Y-01993D01*
X11277Y-01993D01*
X11082Y-02074D01*
X10933Y-02222D01*
X10852Y-02417D01*
X10852Y-02628D01*
X10933Y-02823D01*
X11081Y-02972D01*
X11276Y-03053D01*
X11487Y-03053D01*
X11682Y-02972D01*
X11831Y-02824D01*
X11835Y-02813D01*
X12648Y-02813D01*
X12658Y-02823D01*
X12624Y-02857D01*
X12586Y-02949D01*
X12585Y-03011D01*
X12647Y-03073D01*
X12892Y-03073D01*
X12942Y-03073D01*
X13042Y-03073D01*
X13042Y-03173D01*
X13042Y-03223D01*
X13042Y-03436D01*
X13052Y-03446D01*
X13052Y-03663D01*
X13347Y-03663D01*
X13409Y-03601D01*
X13408Y-03539D01*
X13370Y-03447D01*
X13336Y-03413D01*
X13360Y-03389D01*
X13398Y-03297D01*
X13398Y-03261D01*
X13541Y-03320D01*
X13702Y-03320D01*
X13851Y-03258D01*
X13926Y-03183D01*
X14238Y-03495D01*
X14344Y-03566D01*
X14345Y-03566D01*
X14470Y-03591D01*
X14720Y-03591D01*
X14714Y-03597D01*
X14676Y-03689D01*
X14675Y-03751D01*
X14737Y-03813D01*
X14982Y-03813D01*
X15032Y-03813D01*
X15132Y-03813D01*
X15182Y-03813D01*
X15427Y-03813D01*
X15438Y-03801D01*
X15509Y-03849D01*
X15510Y-03849D01*
X15623Y-03871D01*
X15623Y-03961D01*
X15629Y-03961D01*
G54D10*
G36*
X16309Y-06893D02*
X15469Y-06893D01*
X15511Y-06792D01*
X15511Y-06652D01*
X15597Y-06738D01*
X15691Y-06801D01*
X15802Y-06823D01*
X16232Y-06823D01*
X16286Y-06877D01*
X16287Y-06878D01*
X16309Y-06893D01*
X16309Y-06893D01*
G37*
G54D34*
X16309Y-06893D02*
X15469Y-06893D01*
X15511Y-06792D01*
X15511Y-06652D01*
X15597Y-06738D01*
X15691Y-06801D01*
X15802Y-06823D01*
X16232Y-06823D01*
X16286Y-06877D01*
X16287Y-06878D01*
X16309Y-06893D01*
G54D10*
G36*
X16718Y-02267D02*
X16709Y-02264D01*
X16610Y-02264D01*
X15824Y-02264D01*
X15732Y-02302D01*
X15662Y-02372D01*
X15624Y-02463D01*
X15624Y-02562D01*
X15624Y-02738D01*
X15632Y-02758D01*
X15624Y-02778D01*
X15624Y-02877D01*
X15624Y-03053D01*
X15632Y-03073D01*
X15630Y-03077D01*
X15584Y-03031D01*
X15478Y-02960D01*
X15397Y-02944D01*
X15396Y-02943D01*
X15380Y-02927D01*
X15289Y-02889D01*
X15190Y-02889D01*
X14959Y-02889D01*
X14978Y-02844D01*
X14978Y-02703D01*
X14978Y-02699D01*
X14991Y-02634D01*
X14992Y-02633D01*
X14992Y-02557D01*
X15011Y-02537D01*
X15021Y-02547D01*
X15171Y-02609D01*
X15332Y-02609D01*
X15481Y-02547D01*
X15596Y-02434D01*
X15658Y-02284D01*
X15658Y-02123D01*
X15596Y-01974D01*
X15483Y-01859D01*
X15371Y-01813D01*
X16102Y-01813D01*
X16255Y-01783D01*
X16385Y-01696D01*
X16648Y-01433D01*
X16713Y-01433D01*
X16713Y-01469D01*
X16713Y-02255D01*
X16718Y-02267D01*
X16718Y-02267D01*
G37*
G54D34*
X16718Y-02267D02*
X16709Y-02264D01*
X16610Y-02264D01*
X15824Y-02264D01*
X15732Y-02302D01*
X15662Y-02372D01*
X15624Y-02463D01*
X15624Y-02562D01*
X15624Y-02738D01*
X15632Y-02758D01*
X15624Y-02778D01*
X15624Y-02877D01*
X15624Y-03053D01*
X15632Y-03073D01*
X15630Y-03077D01*
X15584Y-03031D01*
X15478Y-02960D01*
X15397Y-02944D01*
X15396Y-02943D01*
X15380Y-02927D01*
X15289Y-02889D01*
X15190Y-02889D01*
X14959Y-02889D01*
X14978Y-02844D01*
X14978Y-02703D01*
X14978Y-02699D01*
X14991Y-02634D01*
X14992Y-02633D01*
X14992Y-02557D01*
X15011Y-02537D01*
X15021Y-02547D01*
X15171Y-02609D01*
X15332Y-02609D01*
X15481Y-02547D01*
X15596Y-02434D01*
X15658Y-02284D01*
X15658Y-02123D01*
X15596Y-01974D01*
X15483Y-01859D01*
X15371Y-01813D01*
X16102Y-01813D01*
X16255Y-01783D01*
X16385Y-01696D01*
X16648Y-01433D01*
X16713Y-01433D01*
X16713Y-01469D01*
X16713Y-02255D01*
X16718Y-02267D01*
G54D10*
G36*
X19536Y-03548D02*
X19498Y-03564D01*
X19475Y-03587D01*
X19451Y-03587D01*
X19390Y-03648D01*
X19390Y-03681D01*
X19399Y-03703D01*
X19390Y-03725D01*
X19390Y-03824D01*
X19390Y-04000D01*
X19397Y-04017D01*
X19390Y-04035D01*
X19390Y-04134D01*
X19390Y-04203D01*
X18666Y-04203D01*
X18575Y-04142D01*
X18464Y-04120D01*
X17501Y-04120D01*
X17377Y-04068D01*
X17331Y-04068D01*
X17232Y-03969D01*
X17372Y-03969D01*
X17521Y-03907D01*
X17636Y-03794D01*
X17698Y-03644D01*
X17698Y-03483D01*
X17636Y-03334D01*
X17523Y-03219D01*
X17373Y-03157D01*
X17212Y-03157D01*
X17065Y-03218D01*
X16909Y-03218D01*
X16909Y-03131D01*
X16903Y-03131D01*
X16908Y-03126D01*
X16908Y-03093D01*
X16899Y-03073D01*
X16908Y-03054D01*
X16908Y-02955D01*
X16908Y-02779D01*
X16899Y-02758D01*
X16908Y-02739D01*
X16908Y-02640D01*
X16908Y-02479D01*
X17817Y-03388D01*
X17911Y-03451D01*
X18016Y-03472D01*
X18071Y-03527D01*
X18221Y-03589D01*
X18382Y-03589D01*
X18531Y-03527D01*
X18646Y-03414D01*
X18708Y-03264D01*
X18708Y-03103D01*
X18646Y-02954D01*
X18533Y-02839D01*
X18396Y-02782D01*
X18408Y-02754D01*
X18408Y-02593D01*
X18350Y-02455D01*
X18447Y-02455D01*
X18466Y-02446D01*
X18486Y-02455D01*
X18585Y-02455D01*
X18592Y-02455D01*
X18536Y-02592D01*
X18536Y-02753D01*
X18598Y-02902D01*
X18711Y-03017D01*
X18861Y-03079D01*
X19022Y-03079D01*
X19171Y-03017D01*
X19286Y-02904D01*
X19348Y-02754D01*
X19348Y-02593D01*
X19290Y-02455D01*
X19391Y-02455D01*
X19394Y-02453D01*
X19390Y-02465D01*
X19390Y-02564D01*
X19390Y-02740D01*
X19397Y-02757D01*
X19390Y-02775D01*
X19390Y-02874D01*
X19390Y-03050D01*
X19399Y-03072D01*
X19390Y-03095D01*
X19390Y-03194D01*
X19390Y-03370D01*
X19397Y-03387D01*
X19390Y-03405D01*
X19390Y-03438D01*
X19451Y-03499D01*
X19465Y-03499D01*
X19498Y-03532D01*
X19536Y-03548D01*
X19536Y-03548D01*
G37*
G54D34*
X19536Y-03548D02*
X19498Y-03564D01*
X19475Y-03587D01*
X19451Y-03587D01*
X19390Y-03648D01*
X19390Y-03681D01*
X19399Y-03703D01*
X19390Y-03725D01*
X19390Y-03824D01*
X19390Y-04000D01*
X19397Y-04017D01*
X19390Y-04035D01*
X19390Y-04134D01*
X19390Y-04203D01*
X18666Y-04203D01*
X18575Y-04142D01*
X18464Y-04120D01*
X17501Y-04120D01*
X17377Y-04068D01*
X17331Y-04068D01*
X17232Y-03969D01*
X17372Y-03969D01*
X17521Y-03907D01*
X17636Y-03794D01*
X17698Y-03644D01*
X17698Y-03483D01*
X17636Y-03334D01*
X17523Y-03219D01*
X17373Y-03157D01*
X17212Y-03157D01*
X17065Y-03218D01*
X16909Y-03218D01*
X16909Y-03131D01*
X16903Y-03131D01*
X16908Y-03126D01*
X16908Y-03093D01*
X16899Y-03073D01*
X16908Y-03054D01*
X16908Y-02955D01*
X16908Y-02779D01*
X16899Y-02758D01*
X16908Y-02739D01*
X16908Y-02640D01*
X16908Y-02479D01*
X17817Y-03388D01*
X17911Y-03451D01*
X18016Y-03472D01*
X18071Y-03527D01*
X18221Y-03589D01*
X18382Y-03589D01*
X18531Y-03527D01*
X18646Y-03414D01*
X18708Y-03264D01*
X18708Y-03103D01*
X18646Y-02954D01*
X18533Y-02839D01*
X18396Y-02782D01*
X18408Y-02754D01*
X18408Y-02593D01*
X18350Y-02455D01*
X18447Y-02455D01*
X18466Y-02446D01*
X18486Y-02455D01*
X18585Y-02455D01*
X18592Y-02455D01*
X18536Y-02592D01*
X18536Y-02753D01*
X18598Y-02902D01*
X18711Y-03017D01*
X18861Y-03079D01*
X19022Y-03079D01*
X19171Y-03017D01*
X19286Y-02904D01*
X19348Y-02754D01*
X19348Y-02593D01*
X19290Y-02455D01*
X19391Y-02455D01*
X19394Y-02453D01*
X19390Y-02465D01*
X19390Y-02564D01*
X19390Y-02740D01*
X19397Y-02757D01*
X19390Y-02775D01*
X19390Y-02874D01*
X19390Y-03050D01*
X19399Y-03072D01*
X19390Y-03095D01*
X19390Y-03194D01*
X19390Y-03370D01*
X19397Y-03387D01*
X19390Y-03405D01*
X19390Y-03438D01*
X19451Y-03499D01*
X19465Y-03499D01*
X19498Y-03532D01*
X19536Y-03548D01*
G54D10*
G36*
X19664Y-06893D02*
X19084Y-06893D01*
X19107Y-06878D01*
X19382Y-06603D01*
X19515Y-06603D01*
X19515Y-06655D01*
X19577Y-06804D01*
X19664Y-06893D01*
X19664Y-06893D01*
G37*
G54D34*
X19664Y-06893D02*
X19084Y-06893D01*
X19107Y-06878D01*
X19382Y-06603D01*
X19515Y-06603D01*
X19515Y-06655D01*
X19577Y-06804D01*
X19664Y-06893D01*
G54D10*
G36*
X20705Y-06893D02*
X20176Y-06893D01*
X20265Y-06806D01*
X20327Y-06656D01*
X20327Y-06495D01*
X20265Y-06346D01*
X20152Y-06231D01*
X20002Y-06169D01*
X19925Y-06169D01*
X19864Y-06108D01*
X19770Y-06045D01*
X19659Y-06023D01*
X19599Y-06023D01*
X19599Y-05937D01*
X19599Y-05570D01*
X20316Y-06288D01*
X20317Y-06288D01*
X20411Y-06351D01*
X20522Y-06373D01*
X20588Y-06373D01*
X20588Y-06459D01*
X20587Y-06489D01*
X20600Y-06502D01*
X20626Y-06564D01*
X20696Y-06634D01*
X20698Y-06635D01*
X20649Y-06635D01*
X20587Y-06697D01*
X20588Y-06727D01*
X20626Y-06819D01*
X20696Y-06889D01*
X20705Y-06893D01*
X20705Y-06893D01*
G37*
G54D34*
X20705Y-06893D02*
X20176Y-06893D01*
X20265Y-06806D01*
X20327Y-06656D01*
X20327Y-06495D01*
X20265Y-06346D01*
X20152Y-06231D01*
X20002Y-06169D01*
X19925Y-06169D01*
X19864Y-06108D01*
X19770Y-06045D01*
X19659Y-06023D01*
X19599Y-06023D01*
X19599Y-05937D01*
X19599Y-05570D01*
X20316Y-06288D01*
X20317Y-06288D01*
X20411Y-06351D01*
X20522Y-06373D01*
X20588Y-06373D01*
X20588Y-06459D01*
X20587Y-06489D01*
X20600Y-06502D01*
X20626Y-06564D01*
X20696Y-06634D01*
X20698Y-06635D01*
X20649Y-06635D01*
X20587Y-06697D01*
X20588Y-06727D01*
X20626Y-06819D01*
X20696Y-06889D01*
X20705Y-06893D01*
G54D10*
G36*
X21324Y-04167D02*
X21294Y-04242D01*
X21294Y-04311D01*
X21193Y-04209D01*
X21043Y-04147D01*
X20882Y-04147D01*
X20733Y-04209D01*
X20674Y-04266D01*
X20674Y-04212D01*
X20674Y-04036D01*
X20666Y-04018D01*
X20674Y-04001D01*
X20674Y-03902D01*
X20674Y-03804D01*
X20719Y-03849D01*
X20875Y-03914D01*
X21044Y-03914D01*
X21104Y-03889D01*
X21180Y-03889D01*
X21187Y-03896D01*
X21273Y-03954D01*
X21273Y-04062D01*
X21311Y-04154D01*
X21324Y-04167D01*
X21324Y-04167D01*
G37*
G54D34*
X21324Y-04167D02*
X21294Y-04242D01*
X21294Y-04311D01*
X21193Y-04209D01*
X21043Y-04147D01*
X20882Y-04147D01*
X20733Y-04209D01*
X20674Y-04266D01*
X20674Y-04212D01*
X20674Y-04036D01*
X20666Y-04018D01*
X20674Y-04001D01*
X20674Y-03902D01*
X20674Y-03804D01*
X20719Y-03849D01*
X20875Y-03914D01*
X21044Y-03914D01*
X21104Y-03889D01*
X21180Y-03889D01*
X21187Y-03896D01*
X21273Y-03954D01*
X21273Y-04062D01*
X21311Y-04154D01*
X21324Y-04167D01*
G54D10*
G36*
X21718Y-04499D02*
X21618Y-04499D01*
X21618Y-04399D01*
X21718Y-04399D01*
X21718Y-04499D01*
X21718Y-04499D01*
G37*
G54D34*
X21718Y-04499D02*
X21618Y-04499D01*
X21618Y-04399D01*
X21718Y-04399D01*
X21718Y-04499D01*
G54D10*
G36*
X25887Y-09188D02*
X25478Y-09597D01*
X25476Y-09362D01*
X25328Y-09005D01*
X25185Y-08920D01*
X25115Y-08990D01*
X24533Y-09573D01*
X24462Y-09644D01*
X24391Y-09573D01*
X24462Y-09502D01*
X24497Y-09467D01*
X25115Y-08850D01*
X25030Y-08707D01*
X24655Y-08555D01*
X24251Y-08559D01*
X23894Y-08707D01*
X23835Y-08805D01*
X23793Y-08763D01*
X23793Y-07443D01*
X24155Y-07443D01*
X24156Y-07444D01*
X24148Y-07466D01*
X24148Y-07684D01*
X24232Y-07886D01*
X24386Y-08040D01*
X24588Y-08124D01*
X24806Y-08124D01*
X25008Y-08040D01*
X25162Y-07886D01*
X25199Y-07794D01*
X25225Y-07856D01*
X25319Y-07883D01*
X25626Y-07575D01*
X25319Y-07267D01*
X25225Y-07294D01*
X25201Y-07359D01*
X25162Y-07264D01*
X25008Y-07110D01*
X24923Y-07075D01*
X25008Y-07040D01*
X25162Y-06886D01*
X25197Y-06801D01*
X25232Y-06886D01*
X25386Y-07040D01*
X25477Y-07077D01*
X25416Y-07103D01*
X25389Y-07197D01*
X25662Y-07469D01*
X25697Y-07504D01*
X25768Y-07575D01*
X25697Y-07646D01*
X25389Y-07953D01*
X25416Y-08047D01*
X25618Y-08118D01*
X25831Y-08107D01*
X25887Y-08084D01*
X25887Y-09188D01*
X25887Y-09188D01*
G37*
G54D34*
X25887Y-09188D02*
X25478Y-09597D01*
X25476Y-09362D01*
X25328Y-09005D01*
X25185Y-08920D01*
X25115Y-08990D01*
X24533Y-09573D01*
X24462Y-09644D01*
X24391Y-09573D01*
X24462Y-09502D01*
X24497Y-09467D01*
X25115Y-08850D01*
X25030Y-08707D01*
X24655Y-08555D01*
X24251Y-08559D01*
X23894Y-08707D01*
X23835Y-08805D01*
X23793Y-08763D01*
X23793Y-07443D01*
X24155Y-07443D01*
X24156Y-07444D01*
X24148Y-07466D01*
X24148Y-07684D01*
X24232Y-07886D01*
X24386Y-08040D01*
X24588Y-08124D01*
X24806Y-08124D01*
X25008Y-08040D01*
X25162Y-07886D01*
X25199Y-07794D01*
X25225Y-07856D01*
X25319Y-07883D01*
X25626Y-07575D01*
X25319Y-07267D01*
X25225Y-07294D01*
X25201Y-07359D01*
X25162Y-07264D01*
X25008Y-07110D01*
X24923Y-07075D01*
X25008Y-07040D01*
X25162Y-06886D01*
X25197Y-06801D01*
X25232Y-06886D01*
X25386Y-07040D01*
X25477Y-07077D01*
X25416Y-07103D01*
X25389Y-07197D01*
X25662Y-07469D01*
X25697Y-07504D01*
X25768Y-07575D01*
X25697Y-07646D01*
X25389Y-07953D01*
X25416Y-08047D01*
X25618Y-08118D01*
X25831Y-08107D01*
X25887Y-08084D01*
X25887Y-09188D01*
M02*
