M48
;DRILL file {Pcbnew (2011-11-27 BZR 3249)-stable} date 17/09/2012 7:08:28 p.m.
;FORMAT={-:-/ absolute / metric / decimal}
FMAT,2
METRIC,TZ
T1C0.399
T2C0.508
T3C0.762
T4C0.899
T5C1.001
T6C1.016
T7C2.601
T8C3.099
%
G90
G05
M71
T1
X16.236Y-5.519
X16.515Y-20.480
X16.540Y-24.011
X16.871Y-3.564
X18.191Y-25.738
X19.157Y-3.513
X20.706Y-17.254
X21.620Y-14.740
X23.043Y-10.930
X23.043Y-22.995
X23.043Y-25.763
X23.899Y-14.762
X27.361Y-25.712
X28.499Y-14.282
X30.279Y-19.952
X32.923Y-4.808
X34.600Y-7.402
X34.600Y-10.500
X36.860Y-9.787
X37.013Y-7.018
X38.689Y-6.916
X38.740Y-5.596
X39.731Y-4.961
X40.797Y-17.457
X42.118Y-4.961
X43.922Y-9.050
X43.922Y-11.412
X45.496Y-8.999
X45.725Y-6.789
X46.487Y-8.085
X46.512Y-12.250
X46.919Y-6.739
X47.605Y-10.498
X47.681Y-16.162
X48.113Y-6.789
X48.875Y-17.483
X50.449Y-4.757
X50.599Y-16.701
X51.999Y-16.746
X53.238Y-8.862
X53.243Y-10.269
X53.243Y-11.565
X55.225Y-17.610
X55.656Y-14.435
X56.291Y-13.520
X56.317Y-16.391
X57.501Y-14.600
X57.536Y-16.340
T2
X32.923Y-14.435
X35.463Y-14.435
X38.003Y-14.435
X38.003Y-16.975
T3
X28.910Y-6.408
X28.910Y-11.488
T4
X5.100Y-22.250
X9.500Y-22.250
T5
X5.799Y-9.256
X6.048Y-13.505
X8.799Y-7.005
X9.047Y-11.006
X16.566Y-7.475
X16.566Y-10.015
X16.566Y-12.555
X16.566Y-15.095
T6
X62.730Y-14.161
X62.730Y-16.701
X62.730Y-19.241
X65.270Y-14.161
X65.270Y-16.701
X65.270Y-19.241
T7
X30.002Y-24.950
T8
X62.133Y-24.315
T0
M30
