G04 (created by PCBNEW-RS274X (2011-11-27 BZR 3249)-stable) date 18/05/2012 12:57:57 p.m.*
G01*
G70*
G90*
%MOIN*%
G04 Gerber Fmt 3.4, Leading zero omitted, Abs format*
%FSLAX34Y34*%
G04 APERTURE LIST*
%ADD10C,0.020000*%
%ADD11C,0.106600*%
%ADD12O,0.079100X0.138100*%
%ADD13R,0.079100X0.138100*%
%ADD14R,0.055000X0.075000*%
%ADD15R,0.045000X0.051500*%
%ADD16R,0.051500X0.045000*%
%ADD17C,0.108600*%
%ADD18R,0.056000X0.056000*%
%ADD19R,0.094800X0.086900*%
%ADD20O,0.098700X0.086900*%
%ADD21C,0.086900*%
%ADD22R,0.060000X0.030000*%
%ADD23R,0.030000X0.060000*%
%ADD24R,0.030000X0.100000*%
%ADD25R,0.120000X0.150000*%
%ADD26R,0.047600X0.067200*%
%ADD27R,0.047600X0.098700*%
%ADD28R,0.106600X0.130300*%
%ADD29C,0.197200*%
%ADD30C,0.216900*%
%ADD31R,0.040000X0.065000*%
%ADD32R,0.059400X0.059400*%
%ADD33O,0.138100X0.079100*%
%ADD34R,0.138100X0.079100*%
%ADD35C,0.079100*%
%ADD36R,0.067200X0.047600*%
%ADD37R,0.098700X0.047600*%
%ADD38R,0.130300X0.106600*%
%ADD39R,0.051500X0.043600*%
%ADD40R,0.098700X0.098700*%
%ADD41C,0.098700*%
%ADD42R,0.086900X0.094800*%
%ADD43O,0.086900X0.098700*%
%ADD44R,0.100000X0.080000*%
%ADD45R,0.080000X0.100000*%
%ADD46R,0.070000X0.120000*%
%ADD47R,0.043600X0.051500*%
%ADD48C,0.071200*%
%ADD49C,0.055400*%
%ADD50C,0.051500*%
G04 APERTURE END LIST*
G54D10*
G54D11*
X66890Y-25276D03*
X66890Y-26850D03*
X69252Y-25276D03*
X69252Y-26850D03*
X72795Y-23267D03*
X72795Y-21693D03*
X70433Y-23267D03*
X70433Y-21693D03*
X20197Y-25473D03*
X20197Y-27047D03*
X22559Y-25473D03*
X22559Y-27047D03*
X20197Y-19685D03*
X20197Y-21259D03*
X22559Y-19685D03*
X22559Y-21259D03*
X69252Y-19763D03*
X69252Y-18189D03*
X66890Y-19763D03*
X66890Y-18189D03*
X65709Y-23267D03*
X65709Y-21693D03*
X63347Y-23267D03*
X63347Y-21693D03*
G54D12*
X20162Y-13260D03*
X19375Y-13260D03*
G54D13*
X18587Y-13260D03*
G54D12*
X20949Y-13260D03*
X21737Y-13260D03*
X22524Y-13260D03*
X23311Y-13260D03*
X24098Y-13260D03*
X24886Y-13260D03*
G54D14*
X34342Y-27756D03*
X33592Y-27756D03*
G54D15*
X36510Y-27450D03*
X35910Y-27450D03*
X36510Y-26800D03*
X35910Y-26800D03*
X36510Y-24832D03*
X35910Y-24832D03*
X36510Y-23523D03*
X35910Y-23523D03*
G54D16*
X35035Y-15322D03*
X35035Y-15922D03*
G54D15*
X36510Y-26151D03*
X35910Y-26151D03*
X36510Y-25491D03*
X35910Y-25491D03*
X36510Y-24173D03*
X35910Y-24173D03*
X36509Y-22815D03*
X35909Y-22815D03*
X50133Y-27392D03*
X49533Y-27392D03*
X51897Y-27539D03*
X52497Y-27539D03*
G54D16*
X32293Y-15753D03*
X32293Y-16353D03*
X34951Y-27476D03*
X34951Y-28076D03*
G54D15*
X49533Y-27933D03*
X50133Y-27933D03*
X38518Y-28090D03*
X37918Y-28090D03*
X35644Y-17953D03*
X35044Y-17953D03*
X15064Y-19144D03*
X15664Y-19144D03*
X59228Y-22740D03*
X59828Y-22740D03*
G54D16*
X36413Y-32141D03*
X36413Y-32741D03*
G54D15*
X51964Y-29085D03*
X52564Y-29085D03*
X14956Y-16535D03*
X15556Y-16535D03*
X53529Y-17795D03*
X54129Y-17795D03*
G54D16*
X37043Y-32141D03*
X37043Y-32741D03*
X37665Y-32141D03*
X37665Y-32741D03*
X47386Y-16367D03*
X47386Y-15767D03*
G54D15*
X45162Y-17173D03*
X44562Y-17173D03*
G54D16*
X43021Y-16620D03*
X43021Y-17220D03*
X41918Y-16620D03*
X41918Y-17220D03*
X43572Y-16620D03*
X43572Y-17220D03*
X42470Y-16620D03*
X42470Y-17220D03*
X41367Y-16620D03*
X41367Y-17220D03*
G54D15*
X47426Y-17043D03*
X46826Y-17043D03*
X45708Y-17181D03*
X46308Y-17181D03*
X37111Y-21894D03*
X36511Y-21894D03*
X37918Y-22224D03*
X38518Y-22224D03*
X38508Y-27450D03*
X37908Y-27450D03*
X38518Y-26151D03*
X37918Y-26151D03*
X38518Y-24832D03*
X37918Y-24832D03*
X38518Y-23523D03*
X37918Y-23523D03*
G54D16*
X37035Y-30653D03*
X37035Y-31253D03*
G54D15*
X38518Y-26800D03*
X37918Y-26800D03*
X38519Y-25491D03*
X37919Y-25491D03*
X38518Y-24173D03*
X37918Y-24173D03*
X38518Y-22873D03*
X37918Y-22873D03*
X57516Y-22736D03*
X58131Y-22736D03*
G54D16*
X36410Y-30657D03*
X36410Y-31257D03*
X37658Y-30657D03*
X37658Y-31257D03*
G54D15*
X50517Y-28484D03*
X51117Y-28484D03*
X50527Y-29085D03*
X51127Y-29085D03*
X52919Y-16466D03*
X53519Y-16466D03*
G54D16*
X50728Y-16796D03*
X50728Y-16196D03*
X49321Y-15576D03*
X49321Y-16176D03*
X40816Y-15478D03*
X40816Y-16078D03*
X40816Y-17220D03*
X40816Y-16620D03*
X40226Y-17219D03*
X40226Y-16619D03*
X40217Y-15487D03*
X40217Y-16087D03*
X39626Y-19291D03*
X39626Y-19891D03*
X40843Y-19291D03*
X40843Y-19891D03*
X42114Y-19283D03*
X42114Y-19883D03*
X43366Y-19275D03*
X43366Y-19875D03*
X39626Y-17735D03*
X39626Y-18335D03*
X40843Y-17735D03*
X40843Y-18335D03*
X42110Y-17735D03*
X42110Y-18335D03*
X43366Y-17735D03*
X43366Y-18335D03*
X40220Y-19287D03*
X40220Y-19887D03*
X41461Y-19283D03*
X41461Y-19883D03*
X42748Y-19275D03*
X42748Y-19875D03*
X43988Y-19275D03*
X43988Y-19875D03*
X40228Y-17735D03*
X40228Y-18335D03*
X41461Y-17728D03*
X41461Y-18328D03*
X42740Y-17743D03*
X42740Y-18343D03*
X43980Y-17751D03*
X43980Y-18351D03*
X47130Y-19263D03*
X47130Y-19863D03*
X45866Y-19247D03*
X45866Y-19847D03*
X47783Y-19263D03*
X47783Y-19863D03*
X46504Y-19255D03*
X46504Y-19855D03*
X45264Y-19239D03*
X45264Y-19839D03*
X47780Y-17783D03*
X47780Y-18383D03*
X46504Y-17779D03*
X46504Y-18379D03*
X45264Y-17763D03*
X45264Y-18363D03*
X47122Y-17787D03*
X47122Y-18387D03*
X45870Y-17771D03*
X45870Y-18371D03*
G54D15*
X52338Y-17805D03*
X52938Y-17805D03*
X14966Y-15965D03*
X15566Y-15965D03*
X15615Y-18228D03*
X15015Y-18228D03*
X67623Y-30039D03*
X67023Y-30039D03*
X68745Y-31742D03*
X69345Y-31742D03*
G54D16*
X66101Y-31629D03*
X66101Y-32229D03*
G54D15*
X66747Y-32756D03*
X67347Y-32756D03*
X68755Y-32323D03*
X69355Y-32323D03*
G54D17*
X53807Y-27764D03*
G54D15*
X68755Y-32874D03*
X69355Y-32874D03*
G54D18*
X69464Y-30026D03*
X68764Y-30026D03*
X69114Y-29226D03*
X67396Y-31542D03*
X66696Y-31542D03*
X67046Y-30742D03*
X51500Y-16806D03*
X51500Y-16106D03*
X52300Y-16456D03*
G54D16*
X18490Y-30910D03*
X18490Y-31510D03*
G54D15*
X20050Y-28380D03*
X19450Y-28380D03*
G54D18*
X20812Y-28618D03*
X20812Y-27918D03*
X21612Y-28268D03*
G54D15*
X57298Y-18278D03*
X57898Y-18278D03*
X57294Y-18898D03*
X57894Y-18898D03*
X54591Y-15201D03*
X53991Y-15201D03*
X52574Y-28484D03*
X51974Y-28484D03*
G54D19*
X75736Y-25671D03*
G54D20*
X74736Y-25671D03*
X75736Y-24671D03*
X74736Y-24671D03*
G54D21*
X75736Y-23671D03*
X74736Y-23671D03*
G54D20*
X75736Y-22671D03*
X74736Y-22671D03*
X75736Y-21671D03*
X74736Y-21671D03*
G54D16*
X73750Y-18145D03*
X73750Y-18745D03*
G54D22*
X41527Y-27134D03*
X41527Y-22414D03*
X41527Y-22614D03*
X41527Y-22804D03*
X41527Y-23004D03*
X41527Y-23204D03*
X41527Y-23394D03*
X41527Y-23594D03*
X41527Y-23794D03*
X41527Y-23984D03*
X41527Y-24184D03*
X41527Y-24384D03*
X41527Y-24584D03*
X41527Y-24774D03*
X41527Y-24974D03*
X41527Y-25174D03*
X41527Y-25364D03*
X41527Y-25564D03*
X41527Y-25764D03*
X41527Y-25954D03*
X41527Y-26154D03*
X41527Y-26354D03*
X41527Y-26544D03*
X41527Y-26744D03*
X41527Y-26944D03*
G54D23*
X42217Y-21724D03*
X46937Y-21724D03*
X46737Y-21724D03*
X46547Y-21724D03*
X46347Y-21724D03*
X46147Y-21724D03*
X45957Y-21724D03*
X45757Y-21724D03*
X45557Y-21724D03*
X45367Y-21724D03*
X45167Y-21724D03*
X44967Y-21724D03*
X44767Y-21724D03*
X44577Y-21724D03*
X44377Y-21724D03*
X44177Y-21724D03*
X43987Y-21724D03*
X43787Y-21724D03*
X43587Y-21724D03*
X43397Y-21724D03*
X43197Y-21724D03*
X42997Y-21724D03*
X42807Y-21724D03*
X42607Y-21724D03*
X42407Y-21724D03*
X42217Y-27824D03*
X42417Y-27824D03*
X42607Y-27824D03*
X42807Y-27824D03*
X43007Y-27824D03*
X43197Y-27824D03*
X43397Y-27824D03*
X43597Y-27824D03*
X43787Y-27824D03*
X43987Y-27824D03*
X44187Y-27824D03*
X44387Y-27824D03*
X44577Y-27824D03*
X44777Y-27824D03*
X44977Y-27824D03*
X45167Y-27824D03*
X45367Y-27824D03*
X45567Y-27824D03*
X45757Y-27824D03*
X45957Y-27824D03*
X46157Y-27824D03*
X46347Y-27824D03*
X46547Y-27824D03*
X46747Y-27824D03*
X46937Y-27824D03*
G54D22*
X47627Y-27134D03*
X47627Y-26934D03*
X47627Y-26744D03*
X47627Y-26544D03*
X47627Y-26344D03*
X47627Y-26154D03*
X47627Y-25954D03*
X47627Y-25754D03*
X47627Y-25564D03*
X47627Y-25364D03*
X47627Y-25164D03*
X47627Y-24964D03*
X47627Y-24774D03*
X47627Y-24574D03*
X47627Y-24374D03*
X47627Y-24184D03*
X47627Y-23984D03*
X47627Y-23784D03*
X47627Y-23594D03*
X47627Y-23394D03*
X47627Y-23194D03*
X47627Y-23004D03*
X47627Y-22804D03*
X47627Y-22604D03*
X47627Y-22414D03*
G54D19*
X74697Y-27553D03*
G54D20*
X75697Y-27553D03*
X74697Y-28553D03*
X75697Y-28553D03*
X74697Y-29553D03*
X75697Y-29553D03*
G54D24*
X43878Y-14548D03*
X44078Y-14548D03*
X44273Y-14548D03*
X44468Y-14548D03*
X44668Y-14548D03*
X44863Y-14548D03*
X45058Y-14548D03*
X45258Y-14548D03*
X45453Y-14548D03*
X45648Y-14548D03*
X43681Y-14548D03*
X45848Y-14548D03*
X46043Y-14548D03*
X43484Y-14548D03*
X47618Y-14548D03*
X46238Y-14548D03*
X46438Y-14548D03*
X46633Y-14548D03*
X46828Y-14548D03*
X47028Y-14548D03*
X47223Y-14548D03*
X47418Y-14548D03*
X43287Y-14548D03*
X43091Y-14548D03*
X42894Y-14548D03*
X42697Y-14548D03*
X42500Y-14548D03*
X42303Y-14548D03*
X42106Y-14548D03*
X41909Y-14548D03*
G54D25*
X48588Y-13668D03*
X40958Y-13668D03*
G54D26*
X33078Y-16854D03*
G54D27*
X33669Y-16697D03*
G54D26*
X34260Y-16854D03*
G54D28*
X33669Y-15752D03*
G54D26*
X33110Y-19537D03*
G54D27*
X33701Y-19380D03*
G54D26*
X34292Y-19537D03*
G54D28*
X33701Y-18435D03*
G54D15*
X16088Y-22972D03*
X16688Y-22972D03*
X16117Y-23750D03*
X16717Y-23750D03*
G54D16*
X72156Y-18125D03*
X72156Y-18725D03*
G54D15*
X16088Y-22175D03*
X16688Y-22175D03*
G54D16*
X72972Y-18135D03*
X72972Y-18735D03*
G54D15*
X17604Y-22943D03*
X18204Y-22943D03*
X17613Y-23750D03*
X18213Y-23750D03*
G54D16*
X72165Y-19611D03*
X72165Y-20211D03*
G54D15*
X17604Y-22175D03*
X18204Y-22175D03*
G54D16*
X72972Y-19611D03*
X72972Y-20211D03*
X73750Y-19611D03*
X73750Y-20211D03*
X40362Y-22606D03*
X40362Y-23206D03*
G54D29*
X62362Y-13780D03*
G54D30*
X76575Y-13425D03*
G54D29*
X61811Y-31969D03*
G54D30*
X74370Y-31654D03*
G54D29*
X27480Y-31969D03*
G54D30*
X15709Y-31535D03*
G54D29*
X21417Y-23425D03*
G54D30*
X13504Y-13425D03*
G54D29*
X27480Y-13780D03*
G54D16*
X15894Y-27483D03*
X15894Y-28083D03*
X15890Y-26247D03*
X15890Y-26847D03*
G54D31*
X16919Y-26296D03*
X16919Y-28396D03*
X17419Y-26296D03*
X17919Y-26296D03*
X18419Y-26296D03*
X17419Y-28396D03*
X17919Y-28396D03*
X18419Y-28396D03*
G54D15*
X16602Y-30488D03*
X17202Y-30488D03*
G54D16*
X15161Y-26885D03*
X15161Y-27485D03*
X24130Y-29859D03*
X24130Y-29259D03*
X20579Y-32540D03*
X20579Y-31940D03*
G54D15*
X23119Y-32551D03*
X22519Y-32551D03*
X21342Y-32551D03*
X21942Y-32551D03*
X25106Y-32020D03*
X25706Y-32020D03*
G54D16*
X24421Y-31976D03*
X24421Y-32576D03*
G54D18*
X24651Y-31240D03*
X24651Y-30540D03*
X25451Y-30890D03*
X22239Y-31189D03*
X22239Y-31889D03*
X21439Y-31539D03*
G54D16*
X35791Y-30661D03*
X35791Y-31261D03*
X35780Y-32741D03*
X35780Y-32141D03*
X34413Y-31324D03*
X34413Y-30724D03*
X33736Y-31316D03*
X33736Y-30716D03*
X33091Y-31305D03*
X33091Y-30705D03*
X32472Y-31297D03*
X32472Y-30697D03*
X50039Y-16192D03*
X50039Y-16792D03*
G54D17*
X56618Y-31114D03*
X56689Y-32244D03*
G54D32*
X17205Y-32173D03*
X17205Y-32813D03*
X17205Y-31533D03*
G54D16*
X58571Y-17027D03*
X58571Y-17627D03*
G54D12*
X51925Y-13216D03*
X51138Y-13216D03*
G54D13*
X50350Y-13216D03*
G54D12*
X52712Y-13216D03*
X53500Y-13216D03*
X54287Y-13216D03*
X69454Y-13331D03*
X68667Y-13331D03*
G54D13*
X67879Y-13331D03*
G54D12*
X70241Y-13331D03*
X71029Y-13331D03*
X71816Y-13331D03*
X72603Y-13331D03*
X73390Y-13331D03*
X74178Y-13331D03*
G54D33*
X76795Y-17055D03*
X76795Y-16268D03*
G54D34*
X76795Y-15480D03*
G54D33*
X76795Y-17842D03*
X76795Y-18630D03*
X76795Y-19417D03*
G54D12*
X31114Y-13520D03*
X30326Y-13520D03*
G54D13*
X29539Y-13520D03*
G54D12*
X31901Y-13520D03*
X32689Y-13520D03*
X33476Y-13520D03*
X34263Y-13520D03*
X35051Y-13520D03*
X35838Y-13520D03*
X36626Y-13520D03*
X37413Y-13520D03*
X38200Y-13520D03*
G54D33*
X13142Y-17504D03*
X13142Y-18291D03*
G54D34*
X13142Y-19079D03*
G54D33*
X13142Y-16717D03*
X13142Y-15929D03*
X14399Y-29654D03*
G54D34*
X14399Y-28866D03*
G54D33*
X71252Y-30611D03*
X71252Y-31398D03*
G54D34*
X71252Y-32186D03*
G54D33*
X64413Y-30626D03*
X64413Y-31413D03*
G54D34*
X64413Y-32201D03*
G54D12*
X72945Y-16882D03*
X73732Y-16882D03*
G54D13*
X74520Y-16882D03*
G54D12*
X72158Y-16882D03*
X53326Y-32201D03*
X54113Y-32201D03*
G54D13*
X54901Y-32201D03*
G54D12*
X52539Y-32201D03*
X51751Y-32201D03*
X50964Y-32201D03*
X50177Y-32201D03*
X49390Y-32201D03*
X56107Y-17912D03*
G54D13*
X55319Y-17912D03*
G54D35*
X50133Y-26035D03*
X52055Y-26035D03*
G54D15*
X54366Y-21153D03*
X54966Y-21153D03*
X54362Y-22291D03*
X54962Y-22291D03*
X58232Y-26480D03*
X58832Y-26480D03*
X58221Y-27586D03*
X58821Y-27586D03*
X54378Y-20582D03*
X54978Y-20582D03*
X54362Y-21724D03*
X54962Y-21724D03*
X58228Y-25917D03*
X58828Y-25917D03*
X58225Y-27031D03*
X58825Y-27031D03*
G54D16*
X20146Y-17150D03*
X20146Y-16550D03*
X21756Y-17146D03*
X21756Y-16546D03*
G54D15*
X21658Y-26598D03*
X21058Y-26598D03*
G54D16*
X18563Y-17158D03*
X18563Y-16558D03*
X20921Y-17139D03*
X20921Y-16539D03*
G54D15*
X21658Y-20835D03*
X21058Y-20835D03*
G54D16*
X18559Y-15434D03*
X18559Y-14834D03*
X20921Y-15434D03*
X20921Y-14834D03*
G54D15*
X21650Y-20205D03*
X21050Y-20205D03*
X56054Y-20578D03*
X56654Y-20578D03*
X56051Y-21728D03*
X56651Y-21728D03*
X59921Y-25916D03*
X60521Y-25916D03*
X59924Y-27035D03*
X60524Y-27035D03*
G54D16*
X20142Y-15434D03*
X20142Y-14834D03*
X21752Y-15454D03*
X21752Y-14854D03*
G54D15*
X21639Y-25933D03*
X21039Y-25933D03*
X56051Y-21149D03*
X56651Y-21149D03*
X56051Y-22287D03*
X56651Y-22287D03*
X59924Y-26476D03*
X60524Y-26476D03*
X59909Y-27590D03*
X60509Y-27590D03*
G54D36*
X62760Y-17764D03*
G54D37*
X62603Y-17173D03*
G54D36*
X62760Y-16582D03*
G54D38*
X61658Y-17173D03*
G54D16*
X64075Y-17056D03*
X64075Y-16456D03*
X63524Y-17212D03*
X63524Y-17812D03*
G54D15*
X58995Y-16272D03*
X59595Y-16272D03*
G54D12*
X64374Y-13721D03*
X65161Y-13721D03*
G54D13*
X65949Y-13721D03*
G54D18*
X59352Y-17673D03*
X59352Y-16973D03*
X60152Y-17323D03*
G54D32*
X49819Y-19969D03*
X50459Y-19969D03*
X49179Y-19969D03*
G54D15*
X65798Y-14969D03*
X66398Y-14969D03*
G54D33*
X14342Y-22945D03*
X14342Y-23732D03*
G54D34*
X14342Y-24520D03*
G54D33*
X14342Y-22158D03*
G54D16*
X42606Y-29928D03*
X42606Y-30528D03*
G54D15*
X41158Y-29260D03*
X40558Y-29260D03*
G54D16*
X41212Y-29917D03*
X41212Y-30517D03*
G54D12*
X40429Y-32177D03*
X39642Y-32177D03*
G54D13*
X38854Y-32177D03*
G54D16*
X27732Y-30304D03*
X27732Y-29704D03*
G54D15*
X69186Y-21894D03*
X68586Y-21894D03*
X28831Y-28598D03*
X28231Y-28598D03*
X68753Y-22780D03*
X68153Y-22780D03*
X67346Y-32205D03*
X66746Y-32205D03*
G54D39*
X41933Y-29893D03*
X41933Y-30563D03*
X40519Y-29893D03*
X40519Y-30563D03*
G54D16*
X14421Y-26885D03*
X14421Y-27485D03*
X22524Y-30367D03*
X22524Y-29767D03*
X35016Y-29023D03*
X35016Y-29623D03*
G54D18*
X36463Y-28674D03*
X36463Y-29374D03*
X35663Y-29024D03*
G54D40*
X26965Y-16150D03*
G54D41*
X28441Y-16150D03*
X29917Y-16150D03*
G54D42*
X34579Y-32358D03*
G54D43*
X33579Y-32358D03*
X32579Y-32358D03*
G54D15*
X37291Y-28681D03*
X37891Y-28681D03*
G54D18*
X59160Y-14830D03*
X59860Y-14830D03*
X59510Y-15630D03*
G54D15*
X57500Y-16420D03*
X58100Y-16420D03*
G54D44*
X31197Y-15590D03*
X31197Y-16890D03*
X35902Y-15472D03*
X35902Y-16772D03*
X19429Y-30839D03*
X19429Y-29539D03*
X20591Y-30839D03*
X20591Y-29539D03*
G54D45*
X16669Y-25358D03*
X17969Y-25358D03*
X52570Y-18880D03*
X53870Y-18880D03*
G54D46*
X16337Y-29571D03*
X17537Y-29571D03*
G54D45*
X55429Y-15126D03*
X56729Y-15126D03*
G54D35*
X48803Y-22110D03*
X49724Y-22110D03*
G54D18*
X37517Y-18657D03*
X37517Y-17957D03*
X38317Y-18307D03*
X37581Y-15804D03*
X37581Y-16504D03*
X36781Y-16154D03*
G54D47*
X36169Y-18142D03*
X36839Y-18142D03*
G54D15*
X35976Y-18906D03*
X36576Y-18906D03*
X36007Y-20169D03*
X36607Y-20169D03*
X37111Y-20882D03*
X36511Y-20882D03*
G54D16*
X38224Y-16812D03*
X38224Y-16212D03*
G54D15*
X38233Y-17370D03*
X37633Y-17370D03*
X35987Y-19539D03*
X36587Y-19539D03*
X37184Y-19295D03*
X37784Y-19295D03*
X36769Y-17567D03*
X36169Y-17567D03*
G54D16*
X35059Y-16861D03*
X35059Y-17461D03*
X44693Y-19005D03*
X44693Y-18405D03*
G54D12*
X58728Y-13236D03*
X57941Y-13236D03*
G54D13*
X57153Y-13236D03*
G54D12*
X59515Y-13236D03*
X60303Y-13236D03*
G54D15*
X69414Y-30728D03*
X68814Y-30728D03*
G54D42*
X42898Y-32433D03*
G54D43*
X42898Y-31433D03*
X43898Y-32433D03*
X43898Y-31433D03*
G54D21*
X44898Y-32433D03*
X44898Y-31433D03*
G54D43*
X45898Y-32433D03*
X45898Y-31433D03*
X46898Y-32433D03*
X46898Y-31433D03*
G54D16*
X44091Y-28688D03*
X44091Y-29288D03*
G54D15*
X37184Y-19906D03*
X37784Y-19906D03*
G54D14*
X38627Y-21370D03*
X37877Y-21370D03*
G54D48*
X38376Y-19148D03*
G54D49*
X40768Y-27313D03*
X35571Y-28159D03*
X17181Y-20374D03*
X38843Y-14327D03*
X55390Y-12898D03*
X18240Y-27709D03*
X16201Y-13650D03*
X31585Y-21132D03*
X48992Y-21453D03*
X61205Y-27583D03*
X59366Y-27590D03*
X23598Y-21394D03*
X50547Y-20756D03*
X58646Y-22744D03*
X66059Y-19894D03*
X66047Y-18504D03*
X38362Y-15752D03*
X39441Y-12697D03*
X52961Y-26547D03*
X36410Y-31701D03*
X24890Y-23441D03*
X24898Y-29197D03*
X19634Y-22524D03*
X15354Y-21122D03*
X35906Y-20913D03*
X49748Y-21339D03*
X29104Y-20148D03*
X37224Y-24813D03*
X29035Y-24813D03*
X37215Y-24163D03*
X29833Y-24134D03*
X29843Y-20187D03*
X54291Y-30551D03*
X25280Y-29579D03*
X51200Y-29630D03*
X25453Y-20591D03*
X25772Y-29839D03*
X37658Y-31682D03*
X25772Y-20051D03*
X73317Y-26132D03*
X72815Y-27358D03*
X45807Y-26132D03*
X72299Y-24465D03*
X46469Y-24673D03*
X46122Y-25197D03*
X46053Y-25699D03*
X30915Y-26900D03*
X22362Y-28268D03*
X30866Y-20583D03*
X35642Y-17441D03*
X50130Y-21043D03*
X35425Y-20913D03*
G54D50*
X46504Y-18803D03*
X47825Y-13022D03*
X47648Y-13750D03*
X47756Y-18819D03*
X41949Y-13193D03*
X42433Y-13799D03*
X39638Y-18819D03*
X46035Y-13024D03*
X42805Y-13583D03*
X40209Y-18815D03*
X40823Y-18815D03*
X43238Y-13642D03*
X41441Y-18807D03*
X43652Y-13691D03*
X44055Y-13839D03*
X42114Y-18815D03*
X46122Y-15276D03*
X42752Y-18807D03*
X46339Y-15650D03*
X43358Y-18803D03*
X43972Y-18815D03*
X46526Y-16083D03*
X46472Y-13236D03*
X45283Y-18807D03*
X47451Y-13337D03*
X47138Y-18831D03*
X46821Y-12963D03*
X45870Y-18799D03*
G54D49*
X59374Y-25909D03*
X62878Y-26114D03*
X46858Y-22791D03*
X52819Y-21106D03*
X63031Y-18303D03*
X61669Y-23614D03*
X44673Y-24130D03*
X72244Y-14961D03*
X37205Y-25482D03*
X42126Y-23886D03*
X64598Y-20465D03*
X55551Y-20582D03*
X55516Y-21153D03*
X63831Y-20547D03*
X53421Y-21146D03*
X46531Y-23146D03*
X46110Y-23358D03*
X53555Y-21642D03*
X45154Y-24535D03*
X42264Y-24360D03*
X63783Y-18476D03*
X73071Y-14961D03*
X62114Y-23839D03*
X37378Y-26803D03*
X62795Y-20276D03*
X55500Y-21724D03*
X55500Y-22291D03*
X63169Y-20661D03*
X53843Y-22260D03*
X44472Y-23098D03*
X31406Y-20382D03*
X51000Y-20598D03*
X24118Y-27165D03*
X30134Y-26642D03*
X30394Y-20305D03*
X21898Y-29181D03*
X40413Y-28016D03*
X47083Y-28472D03*
X29681Y-30020D03*
X37175Y-23524D03*
X61583Y-19232D03*
X45579Y-24748D03*
X62555Y-24083D03*
X42274Y-24862D03*
X51545Y-28484D03*
X72303Y-28268D03*
X72663Y-25359D03*
X72598Y-29634D03*
X50929Y-14717D03*
X49134Y-15012D03*
X52402Y-15699D03*
X49299Y-18862D03*
X26722Y-22884D03*
X42917Y-23000D03*
X26752Y-20305D03*
X24695Y-19636D03*
X24043Y-16579D03*
X36988Y-27451D03*
X28252Y-27213D03*
X28346Y-20226D03*
X20921Y-15996D03*
X21756Y-15996D03*
X42343Y-22976D03*
X27825Y-23425D03*
X27933Y-19774D03*
X21772Y-18232D03*
X61165Y-26469D03*
X59378Y-26476D03*
X43016Y-28862D03*
X26545Y-26575D03*
X17165Y-23740D03*
X26545Y-29567D03*
X28327Y-29492D03*
X43441Y-28602D03*
X17165Y-22972D03*
X27598Y-26142D03*
X27707Y-29203D03*
X44484Y-23598D03*
X17146Y-22175D03*
X73740Y-19183D03*
X51224Y-23138D03*
X68752Y-21122D03*
X72953Y-19154D03*
X51567Y-22760D03*
X67331Y-21898D03*
X71585Y-18730D03*
X52098Y-22732D03*
X27268Y-27476D03*
X44142Y-24126D03*
X27146Y-19843D03*
X19311Y-18445D03*
X42583Y-26315D03*
X44852Y-26112D03*
X37244Y-26152D03*
X24630Y-16598D03*
X28681Y-26132D03*
X28740Y-19675D03*
X18559Y-16012D03*
X20146Y-16031D03*
X27480Y-23878D03*
X20150Y-17835D03*
X27559Y-20295D03*
X43815Y-23697D03*
X57917Y-19953D03*
X48760Y-29705D03*
X47165Y-30039D03*
X71299Y-29429D03*
X73339Y-27906D03*
X22866Y-28693D03*
X47047Y-26870D03*
X48130Y-22008D03*
X20071Y-24681D03*
X17800Y-30900D03*
X19230Y-26640D03*
X34220Y-23665D03*
X34185Y-22110D03*
X54976Y-22878D03*
X52591Y-20016D03*
X48228Y-27323D03*
X56157Y-25882D03*
X14350Y-16516D03*
X15236Y-13551D03*
X67667Y-30748D03*
X53728Y-29106D03*
X65953Y-30031D03*
X38878Y-30161D03*
X55996Y-29925D03*
X69862Y-31211D03*
X56728Y-29815D03*
X70059Y-31821D03*
X39299Y-29941D03*
X54268Y-28894D03*
X28878Y-30791D03*
X29498Y-19715D03*
X37043Y-31693D03*
X61217Y-27028D03*
X59358Y-27035D03*
X45020Y-13858D03*
X44102Y-16815D03*
X30339Y-32886D03*
X35161Y-18681D03*
X39661Y-16343D03*
X31945Y-18953D03*
X18016Y-32772D03*
X38492Y-31165D03*
X40915Y-26870D03*
X35406Y-19213D03*
X37470Y-28081D03*
X30915Y-19636D03*
X74921Y-14803D03*
X25626Y-25350D03*
X35366Y-14681D03*
X15740Y-20409D03*
X62941Y-32902D03*
X25665Y-23685D03*
X41559Y-32445D03*
X22882Y-31240D03*
X31480Y-26760D03*
X25654Y-21969D03*
X32004Y-17618D03*
X23760Y-25350D03*
X17409Y-13480D03*
X77422Y-20304D03*
X25665Y-27693D03*
X75051Y-13890D03*
X75839Y-30941D03*
X26559Y-24949D03*
X19409Y-31709D03*
X44819Y-27075D03*
X58870Y-30429D03*
X33642Y-17472D03*
X73228Y-32760D03*
X62043Y-27933D03*
X32980Y-27929D03*
X23760Y-22965D03*
X26024Y-30937D03*
X61835Y-26315D03*
X32992Y-20307D03*
X73339Y-15933D03*
X76142Y-20561D03*
X60858Y-30713D03*
X28941Y-27953D03*
X27728Y-24728D03*
X55319Y-30043D03*
X27173Y-27992D03*
X43504Y-24045D03*
X15169Y-12488D03*
X29169Y-25528D03*
X15701Y-14321D03*
X72181Y-20854D03*
X74527Y-19323D03*
X43602Y-26486D03*
X27189Y-29299D03*
X52854Y-26043D03*
X60689Y-32866D03*
X32992Y-26728D03*
X31457Y-22350D03*
X68610Y-15327D03*
X18898Y-22528D03*
X71406Y-15177D03*
X56543Y-27925D03*
X17028Y-27665D03*
X13858Y-20319D03*
X24539Y-27650D03*
X66902Y-13634D03*
X64866Y-14843D03*
X14902Y-13059D03*
X31035Y-27929D03*
X18780Y-17835D03*
X34890Y-26709D03*
X57650Y-31996D03*
X48779Y-16881D03*
X58870Y-31945D03*
X57657Y-25862D03*
X19996Y-31681D03*
X25650Y-26823D03*
X75047Y-12524D03*
X14976Y-25646D03*
X49634Y-26583D03*
X23110Y-30024D03*
X56429Y-16756D03*
X57512Y-30394D03*
X17382Y-25622D03*
X60661Y-18134D03*
X75780Y-31780D03*
X40189Y-25323D03*
X16398Y-20709D03*
X46978Y-25866D03*
X19465Y-32626D03*
X67091Y-23913D03*
X27709Y-25350D03*
X56650Y-26465D03*
X21571Y-30374D03*
X34842Y-25528D03*
X60783Y-14098D03*
X37020Y-17043D03*
X61457Y-12764D03*
X71110Y-25283D03*
X26539Y-23496D03*
X28551Y-13035D03*
X34614Y-18154D03*
X14173Y-31528D03*
X13606Y-25665D03*
X34323Y-28469D03*
X58598Y-18354D03*
X44518Y-13848D03*
X71610Y-24106D03*
X64469Y-23256D03*
X62772Y-15106D03*
X67923Y-33022D03*
X24839Y-15138D03*
X41858Y-13752D03*
X17087Y-16289D03*
X53043Y-14220D03*
X69850Y-14205D03*
X34161Y-14681D03*
X35370Y-32634D03*
X58701Y-19476D03*
X65059Y-16256D03*
X20417Y-18327D03*
X51500Y-19165D03*
X42024Y-31098D03*
X18591Y-32213D03*
X23551Y-27689D03*
X63161Y-26996D03*
X59331Y-18724D03*
X69445Y-15713D03*
X36209Y-14681D03*
X26071Y-14091D03*
X60445Y-20268D03*
X60260Y-19197D03*
X49945Y-18343D03*
X19303Y-16067D03*
X68016Y-15850D03*
X18130Y-24469D03*
X30504Y-14681D03*
X18654Y-32669D03*
X18018Y-20986D03*
X24709Y-22024D03*
X53201Y-17169D03*
X22575Y-17217D03*
X53043Y-15618D03*
X22551Y-24035D03*
X64795Y-27874D03*
X57291Y-20366D03*
X31366Y-17953D03*
X32992Y-22370D03*
X32992Y-25528D03*
X16444Y-14899D03*
X31433Y-25528D03*
X51110Y-26094D03*
X19358Y-14823D03*
X50314Y-15394D03*
X65480Y-27406D03*
X18650Y-30080D03*
X71150Y-26697D03*
X69382Y-24114D03*
X42736Y-26768D03*
X19949Y-23114D03*
X65382Y-25913D03*
X67150Y-15240D03*
X67571Y-20476D03*
X57260Y-33051D03*
X61949Y-19602D03*
X40165Y-14843D03*
X68795Y-16244D03*
X19354Y-27331D03*
X16488Y-32815D03*
X29642Y-31957D03*
X49328Y-14408D03*
X50531Y-18756D03*
X65512Y-24736D03*
X30972Y-31984D03*
X28480Y-18303D03*
X63496Y-14913D03*
X52035Y-20177D03*
X68409Y-23386D03*
X64429Y-26374D03*
X16819Y-19346D03*
X50992Y-27685D03*
X50098Y-29705D03*
X48268Y-26860D03*
X48396Y-27785D03*
X49713Y-19043D03*
X57650Y-17040D03*
X17866Y-31638D03*
X17673Y-27780D03*
X41189Y-28004D03*
X51280Y-20130D03*
X51000Y-18469D03*
X55165Y-16283D03*
X55638Y-26382D03*
X54051Y-22886D03*
X23370Y-31889D03*
X23083Y-30602D03*
X23764Y-32563D03*
X23953Y-30421D03*
X51406Y-20921D03*
X54626Y-20008D03*
X45929Y-22346D03*
X56965Y-22850D03*
X47587Y-28657D03*
X39776Y-29736D03*
X48819Y-30217D03*
X39228Y-30835D03*
X40797Y-25423D03*
X42156Y-26093D03*
X16211Y-19882D03*
X41768Y-21634D03*
X45477Y-22465D03*
X16319Y-16033D03*
X25886Y-19134D03*
X26348Y-21929D03*
X68120Y-32244D03*
X41516Y-31157D03*
X39689Y-31004D03*
X43248Y-26909D03*
X43401Y-29351D03*
X41992Y-29075D03*
X69606Y-22571D03*
X46959Y-26358D03*
X43177Y-23685D03*
X55598Y-16850D03*
X57520Y-15720D03*
X69921Y-30264D03*
X29201Y-29551D03*
X29323Y-32417D03*
X33709Y-20291D03*
X56059Y-15744D03*
X39067Y-20146D03*
X44780Y-20138D03*
X31480Y-32406D03*
X33581Y-29770D03*
M02*
