#define s9xsplashv4_width  128
#define s9xsplashv4_height 64
static unsigned char s9xsplashv4_bits[] = {
 0x00,0x00,0x00,0x00,0x00,0x00,0x00,0x00,0x00,0x00,0x00,0x00,
 0x00,0x00,0x00,0x00,0x00,0x00,0x00,0x00,0x00,0x00,0x00,0x00,
 0x01,0x00,0x00,0x00,0x00,0x00,0x00,0x00,0x00,0x00,0xff,0xff,
 0x1f,0x00,0xe0,0x03,0x01,0x00,0x10,0x00,0xe0,0x01,0x08,0x00,
 0x00,0x80,0x00,0x00,0x20,0x00,0x80,0x00,0x01,0x00,0x10,0x00,
 0x10,0x00,0x00,0x00,0x00,0x40,0x00,0x00,0x40,0x00,0x80,0x30,
 0x99,0x1b,0xb3,0x8a,0x10,0x98,0xca,0x1c,0x00,0x40,0x00,0x00,
 0x40,0x00,0x80,0x48,0xa5,0xa4,0x94,0x51,0xe0,0xa4,0x29,0x05,
 0x00,0x40,0xf8,0xff,0x47,0x00,0x80,0x78,0xbd,0xa4,0x97,0x50,
 0x00,0xbd,0xe8,0x09,0x00,0x40,0x04,0x00,0x24,0x00,0x80,0x08,
 0x85,0xa4,0x90,0x50,0x00,0x85,0x28,0x10,0x00,0x40,0x04,0x00,
 0x18,0x00,0x80,0x70,0xb9,0x24,0xa7,0x20,0xf0,0xb8,0xc8,0x1d,
 0x00,0x40,0x04,0x00,0x00,0x00,0x00,0x00,0x00,0x00,0x00,0x20,
 0x00,0x00,0x00,0x00,0x00,0x40,0x04,0x00,0x00,0x00,0x00,0x00,
 0x00,0x00,0x00,0x10,0x00,0x00,0x00,0x00,0x00,0x40,0x04,0xfc,
 0x3f,0x00,0x00,0x00,0x00,0x06,0x00,0x00,0x00,0x00,0x00,0x00,
 0x00,0x40,0x04,0x02,0x40,0x00,0x00,0x00,0x00,0x0f,0x00,0x00,
 0x00,0x00,0x00,0x00,0x00,0x40,0x04,0x02,0x40,0x00,0x00,0x00,
 0x00,0x09,0xfc,0xff,0xff,0xff,0xff,0x03,0x00,0x00,0x00,0xfc,
 0x43,0x00,0x00,0x00,0x00,0x09,0x00,0x00,0x20,0x00,0x00,0x08,
 0x80,0xff,0x7f,0x00,0x44,0x00,0x00,0x00,0x80,0x19,0x00,0x00,
 0x20,0x00,0x00,0x0c,0xf0,0xff,0xff,0x03,0x44,0x00,0x00,0x00,
 0x8c,0x19,0x03,0x00,0x70,0x00,0x00,0x0c,0xf8,0xff,0xff,0x07,
 0x44,0x00,0x00,0x00,0xec,0x79,0x03,0x00,0xf8,0x07,0x00,0x06,
 0xf8,0xff,0xff,0x07,0x44,0x00,0x00,0x00,0x3f,0xc9,0x0f,0x00,
 0xfe,0xff,0xff,0x07,0xfc,0x00,0xc0,0x0f,0x44,0x00,0x00,0xc0,
 0x03,0x09,0x3c,0x00,0xe3,0xfd,0xff,0x0f,0x7c,0x40,0xd8,0xef,
 0x43,0x00,0x00,0x60,0x00,0x09,0x60,0x80,0x41,0x1f,0x00,0x0c,
 0x7c,0x40,0x00,0x00,0x40,0x3e,0x00,0x20,0x00,0x09,0x40,0xc0,
 0xc0,0x0f,0x00,0x18,0x7c,0x80,0xc0,0x0f,0x20,0x1f,0x00,0xe0,
 0xff,0xf9,0x7f,0x40,0x80,0x07,0x00,0x10,0x7c,0x00,0x9f,0x1f,
 0x90,0x0f,0x00,0x00,0x00,0x09,0x00,0xc0,0xf0,0x03,0x00,0x20,
 0xfc,0x00,0x00,0x3f,0xcf,0x07,0x00,0x00,0x00,0x09,0x00,0x80,
 0xff,0x03,0x00,0x00,0xf8,0xff,0x7f,0x7e,0xe0,0x03,0x00,0x00,
 0x00,0x09,0x00,0x00,0x79,0x01,0x00,0x00,0xf8,0xff,0xff,0xfc,
 0xf0,0x01,0x00,0x00,0x00,0x09,0x00,0x80,0x01,0x03,0x00,0x00,
 0xe0,0xff,0xff,0xf9,0xf9,0x00,0x00,0x00,0x00,0x09,0x00,0x90,
 0x00,0x02,0x00,0x00,0x00,0x7e,0x80,0xf3,0x7f,0x00,0x00,0x00,
 0x00,0x09,0x00,0xe0,0xff,0x1f,0x00,0x00,0x00,0x00,0xc0,0xe7,
 0x3f,0x00,0x00,0x00,0x00,0x09,0x00,0x00,0x00,0x00,0x00,0x00,
 0x00,0x00,0xe0,0xc3,0x1f,0x00,0x00,0x00,0x80,0x19,0xc0,0x07,
 0x00,0x00,0x10,0x00,0x00,0x00,0xf0,0x81,0x1f,0x00,0x00,0x80,
 0x61,0x60,0xf0,0x1e,0x00,0x00,0x10,0x00,0x00,0x00,0xfc,0x80,
 0x3f,0x00,0x00,0xc0,0x11,0x80,0x38,0x38,0x00,0x00,0x18,0x00,
 0x00,0xe0,0x7f,0xc0,0x7f,0x00,0x00,0xe0,0xf1,0x79,0x98,0x36,
 0x00,0x00,0x98,0x00,0xc0,0xff,0x1f,0xe0,0xff,0x00,0x86,0xb1,
 0x01,0x06,0x8c,0x64,0x00,0x00,0x9c,0x00,0x80,0xff,0x07,0xf0,
 0xf9,0x01,0xce,0xb1,0x01,0x00,0x9c,0x77,0x00,0x00,0x9e,0x01,
 0x00,0xff,0x00,0xf8,0xf0,0x03,0xcc,0x98,0x01,0x00,0x3c,0x70,
 0x00,0x00,0x9f,0x01,0x00,0x00,0x00,0x7c,0xe0,0x07,0xcc,0x8c,
 0x01,0x00,0xfc,0x7f,0x00,0x80,0x9f,0x01,0x00,0x00,0x00,0x3e,
 0xc0,0x0f,0xcc,0xfc,0x07,0x80,0x57,0xf6,0x03,0xc0,0x9f,0x03,
 0x00,0x00,0x00,0x1f,0x80,0x1f,0x78,0xfc,0x07,0x80,0xe4,0x4f,
 0x02,0xe0,0x9f,0x03,0x00,0x00,0x80,0x1f,0x00,0x3f,0x78,0x80,
 0x01,0x80,0x0c,0x60,0x02,0xf0,0x9f,0x03,0x00,0x00,0xc0,0x0f,
 0x00,0x7e,0x78,0x80,0x01,0x80,0xe4,0x4f,0x02,0xf8,0xdf,0x07,
 0x00,0x00,0xe0,0x07,0x00,0xfc,0x30,0x80,0x01,0x80,0x0c,0x60,
 0x02,0xfc,0xff,0x0f,0x00,0x00,0xe0,0x03,0x00,0xf8,0x30,0x80,
 0x01,0x80,0x87,0xc3,0x03,0x00,0x00,0x00,0x00,0x00,0x00,0x00,
 0x00,0x00,0x00,0x00,0x00,0x00,0xaf,0xfa,0x01,0xff,0xff,0x3f,
 0x00,0x00,0x00,0x00,0x00,0x00,0x00,0x00,0x00,0x00,0xa7,0xcb,
 0x01,0xfe,0xff,0x1f,0x00,0x00,0x00,0x00,0x00,0x00,0x00,0x00,
 0x00,0x00,0x84,0x4a,0x00,0xfc,0xff,0x07,0x00,0x00,0x00,0x00,
 0x00,0x00,0x00,0x00,0x00,0x00,0xfc,0x7f,0x80,0x4a,0x55,0x15,
 0x00,0x00,0x00,0x00,0x00,0x00,0x00,0x00,0x00,0x00,0xac,0x6a,
 0x00,0xb5,0xaa,0x2b,0x00,0x00,0x00,0x00,0x00,0x00,0x00,0x00,
 0x00,0x00,0xfc,0x7f,0x00,0x00,0x00,0x00,0x00,0x00,0x00,0x00,
 0x00,0x00,0x00,0x00,0x00,0x00,0xff,0xff,0x01,0x00,0x00,0x00,
 0x00,0x00,0x00,0x00,0x00,0x00,0x00,0x00,0x00,0x80,0x8d,0x63,
 0x03,0x00,0x00,0x00,0x00,0x00,0x00,0x00,0x00,0x00,0x00,0x00,
 0x00,0x40,0xd8,0x36,0x04,0x00,0x00,0x00,0x00,0x00,0x00,0x00,
 0x10,0x02,0x00,0x00,0x00,0xc0,0x5f,0xf4,0x07,0x00,0x00,0x00,
 0x00,0x00,0x00,0x00,0x10,0x02,0x00,0x00,0x00,0x00,0x00,0x00,
 0x00,0xfc,0xff,0x3f,0x00,0x00,0x00,0x00,0x10,0x02,0x00,0x00,
 0x00,0x00,0x00,0x00,0x00,0x8c,0xb1,0x37,0x1c,0x93,0x64,0x6a,
 0x1c,0x4e,0x04,0x73,0xcc,0xc1,0x99,0x54,0x33,0x74,0xad,0x2b,
 0xa4,0x94,0x95,0x96,0x12,0x92,0x82,0x94,0x52,0x42,0xa4,0xb4,
 0x48,0xf4,0xad,0x2f,0xa4,0x54,0xf5,0xf2,0x12,0x92,0x82,0x94,
 0x5e,0x82,0xa4,0x94,0x78,0x34,0xb1,0x37,0xa4,0x64,0x13,0x12,
 0x12,0x92,0x82,0x94,0x42,0x02,0xa5,0x94,0x08,0x74,0xbd,0x3b,
 0x1c,0x23,0xe2,0xe2,0x1c,0x0e,0x01,0x73,0x5c,0xc2,0x19,0x17,
 0x73,0x8c,0x3d,0x22,0x04,0x00,0x00,0x00,0x00,0x00,0x01,0x10,
 0x00,0x00,0x00,0x00,0x00,0xfc,0xff,0x3f,0x04,0x00,0x00,0x00,
 0x00,0x80,0x00,0x10,0x00,0x00,0x00,0x00,0x00,0x00,0x00,0x00,
 0x00,0x00,0x00,0x00,0x00,0x00,0x00,0x00,0x00,0x00,
 0x00,0x00,0x00,0x00,0x00,0x00};
