M48
;DRILL file {Pcbnew (2011-11-27 BZR 3249)-stable} date 21/02/2012 2:28:56 p.m.
;FORMAT={-:-/ absolute / metric / decimal}
FMAT,2
METRIC,TZ
T1C0.635
T2C0.800
T3C1.400
%
G90
G05
M71
T1
X62.121Y-78.661
X62.301Y-59.139
X62.479Y-83.050
X63.680Y-80.279
X66.241Y-53.330
X66.660Y-68.740
X66.731Y-77.381
X67.211Y-78.849
X67.440Y-70.350
X67.511Y-76.030
X67.841Y-55.801
X67.879Y-57.861
X69.380Y-68.011
X69.761Y-62.949
X69.980Y-74.640
X70.000Y-77.790
X70.000Y-79.921
X70.510Y-65.141
X72.639Y-53.299
X73.690Y-61.900
X76.401Y-56.159
X77.340Y-79.840
X77.371Y-83.020
X78.941Y-53.269
X79.761Y-74.740
X80.211Y-62.560
X80.800Y-60.871
X80.980Y-70.350
X81.549Y-57.511
X83.251Y-57.920
X83.251Y-62.410
X87.579Y-83.221
X90.000Y-53.310
X90.000Y-62.809
X91.971Y-57.960
X92.281Y-59.830
X98.349Y-53.299
X98.450Y-83.020
X101.229Y-69.080
X101.651Y-66.599
X104.981Y-53.231
X108.199Y-65.461
X108.199Y-76.210
X108.240Y-57.569
T2
X64.290Y-61.773
X64.290Y-63.774
X64.290Y-65.773
X64.290Y-67.772
X64.290Y-69.774
X64.290Y-71.773
X64.290Y-73.772
X64.290Y-75.771
T3
X102.720Y-56.220
X102.720Y-80.221
T0
M30
