G04 (created by PCBNEW-RS274X (2011-11-27 BZR 3249)-stable) date 21/02/2012 2:28:41 p.m.*
G01*
G70*
G90*
%MOIN*%
G04 Gerber Fmt 3.4, Leading zero omitted, Abs format*
%FSLAX34Y34*%
G04 APERTURE LIST*
%ADD10C,0.006000*%
%ADD11C,0.005000*%
%ADD12C,0.004300*%
%ADD13C,0.011800*%
%ADD14C,0.012000*%
G04 APERTURE END LIST*
G54D10*
G54D11*
X30427Y-23322D02*
X30426Y-23331D01*
X30423Y-23341D01*
X30418Y-23349D01*
X30412Y-23357D01*
X30404Y-23363D01*
X30396Y-23368D01*
X30387Y-23370D01*
X30377Y-23371D01*
X30368Y-23371D01*
X30359Y-23368D01*
X30350Y-23363D01*
X30343Y-23357D01*
X30336Y-23350D01*
X30332Y-23341D01*
X30329Y-23332D01*
X30328Y-23322D01*
X30328Y-23313D01*
X30331Y-23304D01*
X30335Y-23295D01*
X30342Y-23288D01*
X30349Y-23281D01*
X30357Y-23277D01*
X30367Y-23274D01*
X30376Y-23273D01*
X30385Y-23273D01*
X30395Y-23276D01*
X30403Y-23280D01*
X30411Y-23286D01*
X30417Y-23294D01*
X30422Y-23302D01*
X30425Y-23311D01*
X30426Y-23321D01*
X30427Y-23322D01*
X30377Y-23772D02*
X30377Y-23372D01*
X30377Y-23372D02*
X30977Y-23372D01*
X30977Y-23372D02*
X30977Y-23772D01*
X30977Y-24172D02*
X30977Y-24572D01*
X30977Y-24572D02*
X30377Y-24572D01*
X30377Y-24572D02*
X30377Y-24172D01*
X29381Y-24452D02*
X29431Y-24452D01*
X29431Y-24452D02*
X29431Y-22352D01*
X27931Y-22352D02*
X27931Y-24452D01*
X27931Y-24452D02*
X29381Y-24452D01*
X28481Y-24452D02*
X28481Y-24252D01*
X28481Y-24252D02*
X28881Y-24252D01*
X28881Y-24252D02*
X28881Y-24452D01*
X27931Y-22352D02*
X29431Y-22352D01*
X28292Y-21697D02*
X27288Y-21697D01*
X27268Y-22169D02*
X28292Y-22169D01*
X28292Y-22169D02*
X28292Y-21697D01*
X27279Y-22165D02*
X27279Y-21705D01*
X29634Y-25354D02*
X30638Y-25354D01*
X30658Y-24882D02*
X29634Y-24882D01*
X29634Y-24882D02*
X29634Y-25354D01*
X30647Y-24886D02*
X30647Y-25346D01*
X28417Y-22169D02*
X29421Y-22169D01*
X29441Y-21697D02*
X28417Y-21697D01*
X28417Y-21697D02*
X28417Y-22169D01*
X29430Y-21701D02*
X29430Y-22161D01*
X44824Y-31172D02*
X44824Y-21992D01*
X44824Y-21992D02*
X43064Y-21992D01*
X44184Y-31812D02*
X43084Y-31812D01*
X44184Y-31812D02*
X44824Y-31172D01*
X43064Y-21212D02*
X43064Y-32592D01*
X43064Y-32592D02*
X32064Y-32592D01*
X32064Y-32592D02*
X32064Y-32412D01*
X31204Y-21232D02*
X43064Y-21212D01*
X32064Y-32392D02*
X32064Y-31132D01*
X32064Y-31132D02*
X31204Y-31132D01*
X31204Y-31132D02*
X31204Y-21232D01*
X28256Y-30645D02*
X29260Y-30645D01*
X29280Y-30173D02*
X28256Y-30173D01*
X28256Y-30173D02*
X28256Y-30645D01*
X29269Y-30177D02*
X29269Y-30637D01*
X29547Y-21740D02*
X30551Y-21740D01*
X30571Y-21268D02*
X29547Y-21268D01*
X29547Y-21268D02*
X29547Y-21740D01*
X30560Y-21272D02*
X30560Y-21732D01*
X30701Y-26618D02*
X29697Y-26618D01*
X29677Y-27090D02*
X30701Y-27090D01*
X30701Y-27090D02*
X30701Y-26618D01*
X29688Y-27086D02*
X29688Y-26626D01*
X30772Y-29158D02*
X29768Y-29158D01*
X29748Y-29630D02*
X30772Y-29630D01*
X30772Y-29630D02*
X30772Y-29158D01*
X29759Y-29626D02*
X29759Y-29166D01*
X28252Y-24705D02*
X28252Y-25709D01*
X28724Y-25729D02*
X28724Y-24705D01*
X28724Y-24705D02*
X28252Y-24705D01*
X28720Y-25718D02*
X28260Y-25718D01*
X29748Y-28870D02*
X30752Y-28870D01*
X30772Y-28398D02*
X29748Y-28398D01*
X29748Y-28398D02*
X29748Y-28870D01*
X30761Y-28402D02*
X30761Y-28862D01*
X29677Y-27980D02*
X30681Y-27980D01*
X30701Y-27508D02*
X29677Y-27508D01*
X29677Y-27508D02*
X29677Y-27980D01*
X30690Y-27512D02*
X30690Y-27972D01*
X27673Y-26496D02*
X28677Y-26496D01*
X28697Y-26024D02*
X27673Y-26024D01*
X27673Y-26024D02*
X27673Y-26496D01*
X28686Y-26028D02*
X28686Y-26488D01*
X27106Y-24158D02*
X27106Y-23154D01*
X26634Y-23134D02*
X26634Y-24158D01*
X26634Y-24158D02*
X27106Y-24158D01*
X26638Y-23145D02*
X27098Y-23145D01*
X24130Y-30619D02*
X24130Y-29044D01*
X26098Y-29044D02*
X26098Y-30619D01*
X24130Y-28257D02*
X24130Y-29045D01*
X26098Y-28257D02*
X26098Y-29045D01*
X24130Y-28257D02*
X24130Y-23533D01*
X24130Y-23533D02*
X26098Y-23533D01*
X26098Y-23533D02*
X26098Y-28257D01*
X26098Y-30620D02*
X24130Y-30620D01*
G54D12*
X30532Y-23858D02*
X30677Y-24075D01*
X30677Y-23858D02*
X30532Y-24075D01*
X30873Y-24075D02*
X30749Y-24075D01*
X30811Y-24075D02*
X30811Y-23858D01*
X30791Y-23889D01*
X30770Y-23910D01*
X30749Y-23920D01*
X27776Y-24547D02*
X27776Y-24723D01*
X27786Y-24744D01*
X27796Y-24754D01*
X27817Y-24764D01*
X27858Y-24764D01*
X27879Y-24754D01*
X27889Y-24744D01*
X27900Y-24723D01*
X27900Y-24547D01*
X28116Y-24764D02*
X27992Y-24764D01*
X28054Y-24764D02*
X28054Y-24547D01*
X28034Y-24578D01*
X28013Y-24599D01*
X27992Y-24609D01*
X27724Y-21611D02*
X27651Y-21508D01*
X27600Y-21611D02*
X27600Y-21394D01*
X27682Y-21394D01*
X27703Y-21405D01*
X27713Y-21415D01*
X27724Y-21436D01*
X27724Y-21467D01*
X27713Y-21487D01*
X27703Y-21498D01*
X27682Y-21508D01*
X27600Y-21508D01*
X27827Y-21611D02*
X27868Y-21611D01*
X27889Y-21601D01*
X27899Y-21591D01*
X27920Y-21560D01*
X27930Y-21518D01*
X27930Y-21436D01*
X27920Y-21415D01*
X27910Y-21405D01*
X27889Y-21394D01*
X27848Y-21394D01*
X27827Y-21405D01*
X27817Y-21415D01*
X27806Y-21436D01*
X27806Y-21487D01*
X27817Y-21508D01*
X27827Y-21518D01*
X27848Y-21529D01*
X27889Y-21529D01*
X27910Y-21518D01*
X27920Y-21508D01*
X27930Y-21487D01*
X30921Y-25146D02*
X30931Y-25157D01*
X30941Y-25188D01*
X30941Y-25208D01*
X30931Y-25239D01*
X30910Y-25260D01*
X30890Y-25270D01*
X30848Y-25281D01*
X30817Y-25281D01*
X30776Y-25270D01*
X30755Y-25260D01*
X30735Y-25239D01*
X30724Y-25208D01*
X30724Y-25188D01*
X30735Y-25157D01*
X30745Y-25146D01*
X30941Y-24940D02*
X30941Y-25064D01*
X30941Y-25002D02*
X30724Y-25002D01*
X30755Y-25022D01*
X30776Y-25043D01*
X30786Y-25064D01*
X28874Y-21591D02*
X28863Y-21601D01*
X28832Y-21611D01*
X28812Y-21611D01*
X28781Y-21601D01*
X28760Y-21580D01*
X28750Y-21560D01*
X28739Y-21518D01*
X28739Y-21487D01*
X28750Y-21446D01*
X28760Y-21425D01*
X28781Y-21405D01*
X28812Y-21394D01*
X28832Y-21394D01*
X28863Y-21405D01*
X28874Y-21415D01*
X28956Y-21415D02*
X28967Y-21405D01*
X28987Y-21394D01*
X29039Y-21394D01*
X29060Y-21405D01*
X29070Y-21415D01*
X29080Y-21436D01*
X29080Y-21456D01*
X29070Y-21487D01*
X28946Y-21611D01*
X29080Y-21611D01*
G54D13*
X38312Y-22566D02*
X38312Y-21975D01*
X38537Y-21975D01*
X38593Y-22003D01*
X38621Y-22031D01*
X38649Y-22087D01*
X38649Y-22172D01*
X38621Y-22228D01*
X38593Y-22256D01*
X38537Y-22284D01*
X38312Y-22284D01*
X39212Y-22566D02*
X38875Y-22566D01*
X39043Y-22566D02*
X39043Y-21975D01*
X38987Y-22059D01*
X38931Y-22115D01*
X38875Y-22144D01*
G54D12*
X29488Y-30516D02*
X29415Y-30413D01*
X29364Y-30516D02*
X29364Y-30299D01*
X29446Y-30299D01*
X29467Y-30310D01*
X29477Y-30320D01*
X29488Y-30341D01*
X29488Y-30372D01*
X29477Y-30392D01*
X29467Y-30403D01*
X29446Y-30413D01*
X29364Y-30413D01*
X29694Y-30516D02*
X29570Y-30516D01*
X29632Y-30516D02*
X29632Y-30299D01*
X29612Y-30330D01*
X29591Y-30351D01*
X29570Y-30361D01*
X30043Y-21174D02*
X29970Y-21071D01*
X29919Y-21174D02*
X29919Y-20957D01*
X30001Y-20957D01*
X30022Y-20968D01*
X30032Y-20978D01*
X30043Y-20999D01*
X30043Y-21030D01*
X30032Y-21050D01*
X30022Y-21061D01*
X30001Y-21071D01*
X29919Y-21071D01*
X30125Y-20978D02*
X30136Y-20968D01*
X30156Y-20957D01*
X30208Y-20957D01*
X30229Y-20968D01*
X30239Y-20978D01*
X30249Y-20999D01*
X30249Y-21019D01*
X30239Y-21050D01*
X30115Y-21174D01*
X30249Y-21174D01*
X30920Y-26949D02*
X30847Y-26846D01*
X30796Y-26949D02*
X30796Y-26732D01*
X30878Y-26732D01*
X30899Y-26743D01*
X30909Y-26753D01*
X30920Y-26774D01*
X30920Y-26805D01*
X30909Y-26825D01*
X30899Y-26836D01*
X30878Y-26846D01*
X30796Y-26846D01*
X30992Y-26732D02*
X31126Y-26732D01*
X31054Y-26815D01*
X31085Y-26815D01*
X31106Y-26825D01*
X31116Y-26836D01*
X31126Y-26856D01*
X31126Y-26908D01*
X31116Y-26929D01*
X31106Y-26939D01*
X31085Y-26949D01*
X31023Y-26949D01*
X31002Y-26939D01*
X30992Y-26929D01*
X30976Y-29513D02*
X30903Y-29410D01*
X30852Y-29513D02*
X30852Y-29296D01*
X30934Y-29296D01*
X30955Y-29307D01*
X30965Y-29317D01*
X30976Y-29338D01*
X30976Y-29369D01*
X30965Y-29389D01*
X30955Y-29400D01*
X30934Y-29410D01*
X30852Y-29410D01*
X31162Y-29369D02*
X31162Y-29513D01*
X31110Y-29286D02*
X31058Y-29441D01*
X31193Y-29441D01*
X29036Y-25268D02*
X28933Y-25341D01*
X29036Y-25392D02*
X28819Y-25392D01*
X28819Y-25310D01*
X28830Y-25289D01*
X28840Y-25279D01*
X28861Y-25268D01*
X28892Y-25268D01*
X28912Y-25279D01*
X28923Y-25289D01*
X28933Y-25310D01*
X28933Y-25392D01*
X28819Y-25072D02*
X28819Y-25175D01*
X28923Y-25186D01*
X28912Y-25175D01*
X28902Y-25155D01*
X28902Y-25103D01*
X28912Y-25082D01*
X28923Y-25072D01*
X28943Y-25062D01*
X28995Y-25062D01*
X29016Y-25072D01*
X29026Y-25082D01*
X29036Y-25103D01*
X29036Y-25155D01*
X29026Y-25175D01*
X29016Y-25186D01*
X30971Y-28753D02*
X30898Y-28650D01*
X30847Y-28753D02*
X30847Y-28536D01*
X30929Y-28536D01*
X30950Y-28547D01*
X30960Y-28557D01*
X30971Y-28578D01*
X30971Y-28609D01*
X30960Y-28629D01*
X30950Y-28640D01*
X30929Y-28650D01*
X30847Y-28650D01*
X31157Y-28536D02*
X31115Y-28536D01*
X31095Y-28547D01*
X31084Y-28557D01*
X31064Y-28588D01*
X31053Y-28629D01*
X31053Y-28712D01*
X31064Y-28733D01*
X31074Y-28743D01*
X31095Y-28753D01*
X31136Y-28753D01*
X31157Y-28743D01*
X31167Y-28733D01*
X31177Y-28712D01*
X31177Y-28660D01*
X31167Y-28640D01*
X31157Y-28629D01*
X31136Y-28619D01*
X31095Y-28619D01*
X31074Y-28629D01*
X31064Y-28640D01*
X31053Y-28660D01*
X30917Y-27859D02*
X30844Y-27756D01*
X30793Y-27859D02*
X30793Y-27642D01*
X30875Y-27642D01*
X30896Y-27653D01*
X30906Y-27663D01*
X30917Y-27684D01*
X30917Y-27715D01*
X30906Y-27735D01*
X30896Y-27746D01*
X30875Y-27756D01*
X30793Y-27756D01*
X30989Y-27642D02*
X31134Y-27642D01*
X31041Y-27859D01*
X27354Y-26284D02*
X27281Y-26181D01*
X27230Y-26284D02*
X27230Y-26067D01*
X27312Y-26067D01*
X27333Y-26078D01*
X27343Y-26088D01*
X27354Y-26109D01*
X27354Y-26140D01*
X27343Y-26160D01*
X27333Y-26171D01*
X27312Y-26181D01*
X27230Y-26181D01*
X27478Y-26160D02*
X27457Y-26150D01*
X27447Y-26140D01*
X27436Y-26119D01*
X27436Y-26109D01*
X27447Y-26088D01*
X27457Y-26078D01*
X27478Y-26067D01*
X27519Y-26067D01*
X27540Y-26078D01*
X27550Y-26088D01*
X27560Y-26109D01*
X27560Y-26119D01*
X27550Y-26140D01*
X27540Y-26150D01*
X27519Y-26160D01*
X27478Y-26160D01*
X27457Y-26171D01*
X27447Y-26181D01*
X27436Y-26202D01*
X27436Y-26243D01*
X27447Y-26264D01*
X27457Y-26274D01*
X27478Y-26284D01*
X27519Y-26284D01*
X27540Y-26274D01*
X27550Y-26264D01*
X27560Y-26243D01*
X27560Y-26202D01*
X27550Y-26181D01*
X27540Y-26171D01*
X27519Y-26160D01*
X26516Y-23777D02*
X26413Y-23850D01*
X26516Y-23901D02*
X26299Y-23901D01*
X26299Y-23819D01*
X26310Y-23798D01*
X26320Y-23788D01*
X26341Y-23777D01*
X26372Y-23777D01*
X26392Y-23788D01*
X26403Y-23798D01*
X26413Y-23819D01*
X26413Y-23901D01*
X26516Y-23571D02*
X26516Y-23695D01*
X26516Y-23633D02*
X26299Y-23633D01*
X26330Y-23653D01*
X26351Y-23674D01*
X26361Y-23695D01*
X26299Y-23436D02*
X26299Y-23415D01*
X26310Y-23395D01*
X26320Y-23384D01*
X26341Y-23374D01*
X26382Y-23364D01*
X26434Y-23364D01*
X26475Y-23374D01*
X26496Y-23384D01*
X26506Y-23395D01*
X26516Y-23415D01*
X26516Y-23436D01*
X26506Y-23457D01*
X26496Y-23467D01*
X26475Y-23477D01*
X26434Y-23488D01*
X26382Y-23488D01*
X26341Y-23477D01*
X26320Y-23467D01*
X26310Y-23457D01*
X26299Y-23436D01*
G54D14*
X24908Y-23404D02*
X24908Y-22804D01*
X25136Y-22804D01*
X25194Y-22832D01*
X25222Y-22861D01*
X25251Y-22918D01*
X25251Y-23004D01*
X25222Y-23061D01*
X25194Y-23090D01*
X25136Y-23118D01*
X24908Y-23118D01*
X25479Y-22861D02*
X25508Y-22832D01*
X25565Y-22804D01*
X25708Y-22804D01*
X25765Y-22832D01*
X25794Y-22861D01*
X25822Y-22918D01*
X25822Y-22975D01*
X25794Y-23061D01*
X25451Y-23404D01*
X25822Y-23404D01*
M02*
