G04 (created by PCBNEW-RS274X (2011-11-27 BZR 3249)-stable) date 21/02/2012 2:28:41 p.m.*
G01*
G70*
G90*
%MOIN*%
G04 Gerber Fmt 3.4, Leading zero omitted, Abs format*
%FSLAX34Y34*%
G04 APERTURE LIST*
%ADD10C,0.006000*%
%ADD11R,0.075000X0.055000*%
%ADD12R,0.065000X0.040000*%
%ADD13R,0.045000X0.051500*%
%ADD14R,0.096800X0.075100*%
%ADD15R,0.094800X0.071200*%
%ADD16R,0.134200X0.122400*%
%ADD17R,0.106600X0.070200*%
%ADD18R,0.114500X0.102700*%
%ADD19R,0.106600X0.102700*%
%ADD20C,0.075100*%
%ADD21R,0.189300X0.067200*%
%ADD22R,0.098700X0.067200*%
%ADD23R,0.051500X0.045000*%
%ADD24O,0.138100X0.079100*%
%ADD25R,0.138100X0.079100*%
%ADD26C,0.055000*%
G04 APERTURE END LIST*
G54D10*
G54D11*
X30677Y-23597D03*
X30677Y-24347D03*
G54D12*
X27631Y-24152D03*
X29731Y-24152D03*
X27631Y-23652D03*
X27631Y-23152D03*
X27631Y-22652D03*
X29731Y-23652D03*
X29731Y-23152D03*
X29731Y-22652D03*
G54D13*
X28080Y-21933D03*
X27480Y-21933D03*
X29846Y-25118D03*
X30446Y-25118D03*
X28629Y-21933D03*
X29229Y-21933D03*
G54D14*
X31504Y-32252D03*
X31504Y-31543D03*
G54D15*
X32055Y-21465D03*
X33768Y-21465D03*
X39910Y-21465D03*
G54D16*
X42547Y-21622D03*
G54D14*
X33591Y-32252D03*
G54D17*
X40028Y-32252D03*
G54D18*
X41228Y-32252D03*
G54D19*
X42311Y-32252D03*
G54D20*
X40441Y-31583D03*
X40441Y-22134D03*
G54D21*
X38339Y-30805D03*
X38339Y-30165D03*
X38339Y-29181D03*
X38339Y-28197D03*
X38339Y-27213D03*
X38339Y-26228D03*
X38339Y-25244D03*
X38339Y-24260D03*
G54D22*
X38768Y-23276D03*
G54D13*
X28468Y-30409D03*
X29068Y-30409D03*
X29759Y-21504D03*
X30359Y-21504D03*
X30489Y-26854D03*
X29889Y-26854D03*
X30560Y-29394D03*
X29960Y-29394D03*
G54D23*
X28488Y-24917D03*
X28488Y-25517D03*
G54D13*
X29960Y-28634D03*
X30560Y-28634D03*
X29889Y-27744D03*
X30489Y-27744D03*
X27885Y-26260D03*
X28485Y-26260D03*
G54D23*
X26870Y-23946D03*
X26870Y-23346D03*
G54D24*
X25311Y-25895D03*
X25311Y-25108D03*
G54D25*
X25311Y-24320D03*
G54D24*
X25311Y-26682D03*
X25311Y-27470D03*
X25311Y-28257D03*
X25311Y-29044D03*
X25311Y-29831D03*
G54D26*
X26551Y-27697D03*
X26579Y-29933D03*
X32776Y-22803D03*
X36209Y-22819D03*
X26461Y-31043D03*
X39854Y-27197D03*
X32776Y-24571D03*
X27465Y-24783D03*
X24457Y-30969D03*
X42598Y-30004D03*
X30079Y-22110D03*
X31579Y-24630D03*
X30461Y-32685D03*
X31882Y-27697D03*
X25071Y-31606D03*
X35433Y-24728D03*
X26709Y-21969D03*
X26724Y-22780D03*
X27315Y-26776D03*
X34480Y-32764D03*
X28598Y-20984D03*
X26079Y-20996D03*
X38760Y-32685D03*
X31079Y-20972D03*
X41331Y-20957D03*
X27760Y-25646D03*
X29012Y-24370D03*
X31402Y-29425D03*
X27559Y-30626D03*
X26272Y-30465D03*
X26244Y-27063D03*
X24528Y-23283D03*
X42598Y-25772D03*
X36331Y-23555D03*
X38720Y-20984D03*
X24598Y-32697D03*
X27551Y-29386D03*
X42614Y-22665D03*
X35433Y-20988D03*
X27559Y-31465D03*
X30449Y-31433D03*
X32106Y-22642D03*
X40020Y-26220D03*
X31811Y-23965D03*
M02*
