G04 (created by PCBNEW-RS274X (2011-07-04 BZR 3037)-stable) date 8/07/2011 2:08:27 p.m.*
G01*
G70*
G90*
%MOIN*%
G04 Gerber Fmt 3.4, Leading zero omitted, Abs format*
%FSLAX34Y34*%
G04 APERTURE LIST*
%ADD10C,0.006000*%
%ADD11C,0.012000*%
%ADD12C,0.015000*%
%ADD13C,0.005000*%
%ADD14C,0.007500*%
%ADD15C,0.008000*%
%ADD16C,0.009900*%
%ADD17C,0.003900*%
%ADD18C,0.010700*%
G04 APERTURE END LIST*
G54D10*
G54D11*
X26576Y-17236D02*
X26662Y-17274D01*
X26690Y-17312D01*
X26719Y-17388D01*
X26719Y-17502D01*
X26690Y-17579D01*
X26662Y-17617D01*
X26604Y-17655D01*
X26376Y-17655D01*
X26376Y-16855D01*
X26576Y-16855D01*
X26633Y-16893D01*
X26662Y-16931D01*
X26690Y-17007D01*
X26690Y-17083D01*
X26662Y-17160D01*
X26633Y-17198D01*
X26576Y-17236D01*
X26376Y-17236D01*
X27233Y-17655D02*
X27233Y-17236D01*
X27204Y-17160D01*
X27147Y-17121D01*
X27033Y-17121D01*
X26976Y-17160D01*
X27233Y-17617D02*
X27176Y-17655D01*
X27033Y-17655D01*
X26976Y-17617D01*
X26947Y-17541D01*
X26947Y-17464D01*
X26976Y-17388D01*
X27033Y-17350D01*
X27176Y-17350D01*
X27233Y-17312D01*
X27776Y-17617D02*
X27719Y-17655D01*
X27605Y-17655D01*
X27547Y-17617D01*
X27519Y-17579D01*
X27490Y-17502D01*
X27490Y-17274D01*
X27519Y-17198D01*
X27547Y-17160D01*
X27605Y-17121D01*
X27719Y-17121D01*
X27776Y-17160D01*
X28033Y-17655D02*
X28033Y-16855D01*
X28090Y-17350D02*
X28261Y-17655D01*
X28261Y-17121D02*
X28033Y-17426D01*
X28605Y-17655D02*
X28547Y-17617D01*
X28519Y-17541D01*
X28519Y-16855D01*
X28833Y-17655D02*
X28833Y-17121D01*
X28833Y-16855D02*
X28804Y-16893D01*
X28833Y-16931D01*
X28861Y-16893D01*
X28833Y-16855D01*
X28833Y-16931D01*
X29376Y-17121D02*
X29376Y-17769D01*
X29347Y-17845D01*
X29319Y-17883D01*
X29262Y-17921D01*
X29176Y-17921D01*
X29119Y-17883D01*
X29376Y-17617D02*
X29319Y-17655D01*
X29205Y-17655D01*
X29147Y-17617D01*
X29119Y-17579D01*
X29090Y-17502D01*
X29090Y-17274D01*
X29119Y-17198D01*
X29147Y-17160D01*
X29205Y-17121D01*
X29319Y-17121D01*
X29376Y-17160D01*
X29662Y-17655D02*
X29662Y-16855D01*
X29919Y-17655D02*
X29919Y-17236D01*
X29890Y-17160D01*
X29833Y-17121D01*
X29748Y-17121D01*
X29690Y-17160D01*
X29662Y-17198D01*
X30119Y-17121D02*
X30348Y-17121D01*
X30205Y-16855D02*
X30205Y-17541D01*
X30233Y-17617D01*
X30291Y-17655D01*
X30348Y-17655D01*
X53046Y-19652D02*
X53132Y-19690D01*
X53275Y-19690D01*
X53332Y-19652D01*
X53361Y-19614D01*
X53389Y-19537D01*
X53389Y-19461D01*
X53361Y-19385D01*
X53332Y-19347D01*
X53275Y-19309D01*
X53161Y-19271D01*
X53103Y-19233D01*
X53075Y-19195D01*
X53046Y-19118D01*
X53046Y-19042D01*
X53075Y-18966D01*
X53103Y-18928D01*
X53161Y-18890D01*
X53303Y-18890D01*
X53389Y-18928D01*
X53646Y-19156D02*
X53646Y-19956D01*
X53646Y-19195D02*
X53703Y-19156D01*
X53817Y-19156D01*
X53874Y-19195D01*
X53903Y-19233D01*
X53932Y-19309D01*
X53932Y-19537D01*
X53903Y-19614D01*
X53874Y-19652D01*
X53817Y-19690D01*
X53703Y-19690D01*
X53646Y-19652D01*
X54189Y-19690D02*
X54189Y-18890D01*
X54246Y-19385D02*
X54417Y-19690D01*
X54417Y-19156D02*
X54189Y-19461D01*
X54675Y-19690D02*
X54675Y-19156D01*
X54675Y-19309D02*
X54703Y-19233D01*
X54732Y-19195D01*
X54789Y-19156D01*
X54846Y-19156D01*
X56239Y-26615D02*
X56182Y-26653D01*
X56068Y-26653D01*
X56010Y-26615D01*
X55982Y-26577D01*
X55953Y-26500D01*
X55953Y-26272D01*
X55982Y-26196D01*
X56010Y-26158D01*
X56068Y-26119D01*
X56182Y-26119D01*
X56239Y-26158D01*
X56582Y-26653D02*
X56524Y-26615D01*
X56496Y-26539D01*
X56496Y-25853D01*
X56810Y-26653D02*
X56810Y-25853D01*
X56867Y-26348D02*
X57038Y-26653D01*
X57038Y-26119D02*
X56810Y-26424D01*
X44084Y-16151D02*
X43798Y-16151D01*
X43798Y-15351D01*
X44627Y-16075D02*
X44598Y-16113D01*
X44512Y-16151D01*
X44455Y-16151D01*
X44370Y-16113D01*
X44312Y-16037D01*
X44284Y-15960D01*
X44255Y-15808D01*
X44255Y-15694D01*
X44284Y-15541D01*
X44312Y-15465D01*
X44370Y-15389D01*
X44455Y-15351D01*
X44512Y-15351D01*
X44598Y-15389D01*
X44627Y-15427D01*
X44884Y-16151D02*
X44884Y-15351D01*
X45027Y-15351D01*
X45112Y-15389D01*
X45170Y-15465D01*
X45198Y-15541D01*
X45227Y-15694D01*
X45227Y-15808D01*
X45198Y-15960D01*
X45170Y-16037D01*
X45112Y-16113D01*
X45027Y-16151D01*
X44884Y-16151D01*
X16917Y-14404D02*
X16879Y-14375D01*
X16841Y-14289D01*
X16841Y-14232D01*
X16879Y-14147D01*
X16955Y-14089D01*
X17032Y-14061D01*
X17184Y-14032D01*
X17298Y-14032D01*
X17451Y-14061D01*
X17527Y-14089D01*
X17603Y-14147D01*
X17641Y-14232D01*
X17641Y-14289D01*
X17603Y-14375D01*
X17565Y-14404D01*
X16841Y-14747D02*
X16879Y-14689D01*
X16917Y-14661D01*
X16994Y-14632D01*
X17222Y-14632D01*
X17298Y-14661D01*
X17336Y-14689D01*
X17375Y-14747D01*
X17375Y-14832D01*
X17336Y-14889D01*
X17298Y-14918D01*
X17222Y-14947D01*
X16994Y-14947D01*
X16917Y-14918D01*
X16879Y-14889D01*
X16841Y-14832D01*
X16841Y-14747D01*
X17375Y-15204D02*
X16575Y-15204D01*
X17336Y-15204D02*
X17375Y-15261D01*
X17375Y-15375D01*
X17336Y-15432D01*
X17298Y-15461D01*
X17222Y-15490D01*
X16994Y-15490D01*
X16917Y-15461D01*
X16879Y-15432D01*
X16841Y-15375D01*
X16841Y-15261D01*
X16879Y-15204D01*
X17375Y-15690D02*
X16841Y-15833D01*
X17375Y-15975D02*
X16841Y-15833D01*
X16651Y-15775D01*
X16613Y-15747D01*
X16575Y-15690D01*
X16841Y-16204D02*
X17375Y-16204D01*
X17222Y-16204D02*
X17298Y-16232D01*
X17336Y-16261D01*
X17375Y-16318D01*
X17375Y-16375D01*
X16841Y-16575D02*
X17375Y-16575D01*
X17641Y-16575D02*
X17603Y-16546D01*
X17565Y-16575D01*
X17603Y-16603D01*
X17641Y-16575D01*
X17565Y-16575D01*
X17375Y-17118D02*
X16727Y-17118D01*
X16651Y-17089D01*
X16613Y-17061D01*
X16575Y-17004D01*
X16575Y-16918D01*
X16613Y-16861D01*
X16879Y-17118D02*
X16841Y-17061D01*
X16841Y-16947D01*
X16879Y-16889D01*
X16917Y-16861D01*
X16994Y-16832D01*
X17222Y-16832D01*
X17298Y-16861D01*
X17336Y-16889D01*
X17375Y-16947D01*
X17375Y-17061D01*
X17336Y-17118D01*
X16841Y-17404D02*
X17641Y-17404D01*
X16841Y-17661D02*
X17260Y-17661D01*
X17336Y-17632D01*
X17375Y-17575D01*
X17375Y-17490D01*
X17336Y-17432D01*
X17298Y-17404D01*
X17375Y-17861D02*
X17375Y-18090D01*
X17641Y-17947D02*
X16955Y-17947D01*
X16879Y-17975D01*
X16841Y-18033D01*
X16841Y-18090D01*
X17565Y-18718D02*
X17603Y-18747D01*
X17641Y-18804D01*
X17641Y-18947D01*
X17603Y-19004D01*
X17565Y-19033D01*
X17489Y-19061D01*
X17413Y-19061D01*
X17298Y-19033D01*
X16841Y-18690D01*
X16841Y-19061D01*
X17641Y-19432D02*
X17641Y-19489D01*
X17603Y-19546D01*
X17565Y-19575D01*
X17489Y-19604D01*
X17336Y-19632D01*
X17146Y-19632D01*
X16994Y-19604D01*
X16917Y-19575D01*
X16879Y-19546D01*
X16841Y-19489D01*
X16841Y-19432D01*
X16879Y-19375D01*
X16917Y-19346D01*
X16994Y-19318D01*
X17146Y-19289D01*
X17336Y-19289D01*
X17489Y-19318D01*
X17565Y-19346D01*
X17603Y-19375D01*
X17641Y-19432D01*
X16841Y-20203D02*
X16841Y-19860D01*
X16841Y-20032D02*
X17641Y-20032D01*
X17527Y-19975D01*
X17451Y-19917D01*
X17413Y-19860D01*
X16841Y-20774D02*
X16841Y-20431D01*
X16841Y-20603D02*
X17641Y-20603D01*
X17527Y-20546D01*
X17451Y-20488D01*
X17413Y-20431D01*
X17260Y-21688D02*
X17222Y-21774D01*
X17184Y-21802D01*
X17108Y-21831D01*
X16994Y-21831D01*
X16917Y-21802D01*
X16879Y-21774D01*
X16841Y-21716D01*
X16841Y-21488D01*
X17641Y-21488D01*
X17641Y-21688D01*
X17603Y-21745D01*
X17565Y-21774D01*
X17489Y-21802D01*
X17413Y-21802D01*
X17336Y-21774D01*
X17298Y-21745D01*
X17260Y-21688D01*
X17260Y-21488D01*
X16841Y-22088D02*
X17375Y-22088D01*
X17222Y-22088D02*
X17298Y-22116D01*
X17336Y-22145D01*
X17375Y-22202D01*
X17375Y-22259D01*
X17375Y-22402D02*
X16841Y-22545D01*
X17375Y-22687D02*
X16841Y-22545D01*
X16651Y-22487D01*
X16613Y-22459D01*
X16575Y-22402D01*
X16841Y-23173D02*
X17260Y-23173D01*
X17336Y-23144D01*
X17375Y-23087D01*
X17375Y-22973D01*
X17336Y-22916D01*
X16879Y-23173D02*
X16841Y-23116D01*
X16841Y-22973D01*
X16879Y-22916D01*
X16955Y-22887D01*
X17032Y-22887D01*
X17108Y-22916D01*
X17146Y-22973D01*
X17146Y-23116D01*
X17184Y-23173D01*
X17375Y-23459D02*
X16841Y-23459D01*
X17298Y-23459D02*
X17336Y-23487D01*
X17375Y-23545D01*
X17375Y-23630D01*
X17336Y-23687D01*
X17260Y-23716D01*
X16841Y-23716D01*
X17641Y-24630D02*
X17070Y-24630D01*
X16955Y-24602D01*
X16879Y-24545D01*
X16841Y-24459D01*
X16841Y-24402D01*
X16917Y-24916D02*
X16879Y-24944D01*
X16841Y-24916D01*
X16879Y-24887D01*
X16917Y-24916D01*
X16841Y-24916D01*
X16841Y-26002D02*
X17222Y-25802D01*
X16841Y-25659D02*
X17641Y-25659D01*
X17641Y-25887D01*
X17603Y-25945D01*
X17565Y-25973D01*
X17489Y-26002D01*
X17375Y-26002D01*
X17298Y-25973D01*
X17260Y-25945D01*
X17222Y-25887D01*
X17222Y-25659D01*
X16879Y-26487D02*
X16841Y-26430D01*
X16841Y-26316D01*
X16879Y-26259D01*
X16955Y-26230D01*
X17260Y-26230D01*
X17336Y-26259D01*
X17375Y-26316D01*
X17375Y-26430D01*
X17336Y-26487D01*
X17260Y-26516D01*
X17184Y-26516D01*
X17108Y-26230D01*
X17375Y-26773D02*
X16841Y-26773D01*
X17298Y-26773D02*
X17336Y-26801D01*
X17375Y-26859D01*
X17375Y-26944D01*
X17336Y-27001D01*
X17260Y-27030D01*
X16841Y-27030D01*
X17375Y-27230D02*
X17375Y-27459D01*
X17641Y-27316D02*
X16955Y-27316D01*
X16879Y-27344D01*
X16841Y-27402D01*
X16841Y-27459D01*
X16841Y-27745D02*
X16879Y-27687D01*
X16917Y-27659D01*
X16994Y-27630D01*
X17222Y-27630D01*
X17298Y-27659D01*
X17336Y-27687D01*
X17375Y-27745D01*
X17375Y-27830D01*
X17336Y-27887D01*
X17298Y-27916D01*
X17222Y-27945D01*
X16994Y-27945D01*
X16917Y-27916D01*
X16879Y-27887D01*
X16841Y-27830D01*
X16841Y-27745D01*
X17375Y-28459D02*
X16841Y-28459D01*
X17375Y-28202D02*
X16955Y-28202D01*
X16879Y-28230D01*
X16841Y-28288D01*
X16841Y-28373D01*
X16879Y-28430D01*
X16917Y-28459D01*
X16841Y-28831D02*
X16879Y-28773D01*
X16955Y-28745D01*
X17641Y-28745D01*
X75290Y-24222D02*
X74947Y-24222D01*
X75119Y-24222D02*
X75119Y-23422D01*
X75062Y-23536D01*
X75004Y-23612D01*
X74947Y-23650D01*
G54D12*
X66378Y-29016D02*
X70079Y-29016D01*
X59528Y-29016D02*
X62913Y-29016D01*
X59528Y-29567D02*
X59528Y-29016D01*
G54D11*
X56404Y-14445D02*
X56747Y-14445D01*
X56576Y-15245D02*
X56576Y-14445D01*
X56947Y-15245D02*
X56947Y-14711D01*
X56947Y-14864D02*
X56975Y-14788D01*
X57004Y-14750D01*
X57061Y-14711D01*
X57118Y-14711D01*
X57318Y-15245D02*
X57318Y-14711D01*
X57318Y-14445D02*
X57289Y-14483D01*
X57318Y-14521D01*
X57346Y-14483D01*
X57318Y-14445D01*
X57318Y-14521D01*
X57604Y-15245D02*
X57604Y-14711D01*
X57604Y-14788D02*
X57632Y-14750D01*
X57690Y-14711D01*
X57775Y-14711D01*
X57832Y-14750D01*
X57861Y-14826D01*
X57861Y-15245D01*
X57861Y-14826D02*
X57890Y-14750D01*
X57947Y-14711D01*
X58032Y-14711D01*
X58090Y-14750D01*
X58118Y-14826D01*
X58118Y-15245D01*
X59204Y-15169D02*
X59175Y-15207D01*
X59089Y-15245D01*
X59032Y-15245D01*
X58947Y-15207D01*
X58889Y-15131D01*
X58861Y-15054D01*
X58832Y-14902D01*
X58832Y-14788D01*
X58861Y-14635D01*
X58889Y-14559D01*
X58947Y-14483D01*
X59032Y-14445D01*
X59089Y-14445D01*
X59175Y-14483D01*
X59204Y-14521D01*
X59547Y-15245D02*
X59489Y-15207D01*
X59461Y-15169D01*
X59432Y-15092D01*
X59432Y-14864D01*
X59461Y-14788D01*
X59489Y-14750D01*
X59547Y-14711D01*
X59632Y-14711D01*
X59689Y-14750D01*
X59718Y-14788D01*
X59747Y-14864D01*
X59747Y-15092D01*
X59718Y-15169D01*
X59689Y-15207D01*
X59632Y-15245D01*
X59547Y-15245D01*
X60004Y-15245D02*
X60004Y-14711D01*
X60004Y-14788D02*
X60032Y-14750D01*
X60090Y-14711D01*
X60175Y-14711D01*
X60232Y-14750D01*
X60261Y-14826D01*
X60261Y-15245D01*
X60261Y-14826D02*
X60290Y-14750D01*
X60347Y-14711D01*
X60432Y-14711D01*
X60490Y-14750D01*
X60518Y-14826D01*
X60518Y-15245D01*
X44452Y-30932D02*
X44538Y-30970D01*
X44681Y-30970D01*
X44738Y-30932D01*
X44767Y-30894D01*
X44795Y-30817D01*
X44795Y-30741D01*
X44767Y-30665D01*
X44738Y-30627D01*
X44681Y-30589D01*
X44567Y-30551D01*
X44509Y-30513D01*
X44481Y-30475D01*
X44452Y-30398D01*
X44452Y-30322D01*
X44481Y-30246D01*
X44509Y-30208D01*
X44567Y-30170D01*
X44709Y-30170D01*
X44795Y-30208D01*
X45052Y-30970D02*
X45052Y-30170D01*
X45195Y-30170D01*
X45280Y-30208D01*
X45338Y-30284D01*
X45366Y-30360D01*
X45395Y-30513D01*
X45395Y-30627D01*
X45366Y-30779D01*
X45338Y-30856D01*
X45280Y-30932D01*
X45195Y-30970D01*
X45052Y-30970D01*
X46080Y-30132D02*
X45566Y-31160D01*
X46281Y-30970D02*
X46281Y-30170D01*
X46481Y-30741D01*
X46681Y-30170D01*
X46681Y-30970D01*
X46967Y-30970D02*
X46967Y-30170D01*
X47167Y-30741D01*
X47367Y-30170D01*
X47367Y-30970D01*
X47996Y-30894D02*
X47967Y-30932D01*
X47881Y-30970D01*
X47824Y-30970D01*
X47739Y-30932D01*
X47681Y-30856D01*
X47653Y-30779D01*
X47624Y-30627D01*
X47624Y-30513D01*
X47653Y-30360D01*
X47681Y-30284D01*
X47739Y-30208D01*
X47824Y-30170D01*
X47881Y-30170D01*
X47967Y-30208D01*
X47996Y-30246D01*
X74379Y-27278D02*
X73579Y-27278D01*
X74341Y-27021D02*
X74379Y-26935D01*
X74379Y-26792D01*
X74341Y-26735D01*
X74303Y-26706D01*
X74226Y-26678D01*
X74150Y-26678D01*
X74074Y-26706D01*
X74036Y-26735D01*
X73998Y-26792D01*
X73960Y-26906D01*
X73922Y-26964D01*
X73884Y-26992D01*
X73807Y-27021D01*
X73731Y-27021D01*
X73655Y-26992D01*
X73617Y-26964D01*
X73579Y-26906D01*
X73579Y-26764D01*
X73617Y-26678D01*
X74379Y-26421D02*
X73579Y-26421D01*
X73579Y-26193D01*
X73617Y-26135D01*
X73655Y-26107D01*
X73731Y-26078D01*
X73845Y-26078D01*
X73922Y-26107D01*
X73960Y-26135D01*
X73998Y-26193D01*
X73998Y-26421D01*
X59074Y-29839D02*
X59417Y-29839D01*
X59246Y-30639D02*
X59246Y-29839D01*
X59560Y-30639D02*
X59874Y-30105D01*
X59560Y-30105D02*
X59874Y-30639D01*
X59431Y-31879D02*
X59231Y-31498D01*
X59088Y-31879D02*
X59088Y-31079D01*
X59316Y-31079D01*
X59374Y-31117D01*
X59402Y-31155D01*
X59431Y-31231D01*
X59431Y-31345D01*
X59402Y-31422D01*
X59374Y-31460D01*
X59316Y-31498D01*
X59088Y-31498D01*
X59631Y-31879D02*
X59945Y-31345D01*
X59631Y-31345D02*
X59945Y-31879D01*
X59102Y-32357D02*
X59045Y-32319D01*
X58959Y-32319D01*
X58874Y-32357D01*
X58816Y-32433D01*
X58788Y-32509D01*
X58759Y-32662D01*
X58759Y-32776D01*
X58788Y-32928D01*
X58816Y-33005D01*
X58874Y-33081D01*
X58959Y-33119D01*
X59016Y-33119D01*
X59102Y-33081D01*
X59131Y-33043D01*
X59131Y-32776D01*
X59016Y-32776D01*
X59388Y-32585D02*
X59388Y-33119D01*
X59388Y-32662D02*
X59416Y-32624D01*
X59474Y-32585D01*
X59559Y-32585D01*
X59616Y-32624D01*
X59645Y-32700D01*
X59645Y-33119D01*
X60188Y-33119D02*
X60188Y-32319D01*
X60188Y-33081D02*
X60131Y-33119D01*
X60017Y-33119D01*
X59959Y-33081D01*
X59931Y-33043D01*
X59902Y-32966D01*
X59902Y-32738D01*
X59931Y-32662D01*
X59959Y-32624D01*
X60017Y-32585D01*
X60131Y-32585D01*
X60188Y-32624D01*
X70538Y-28776D02*
X70881Y-28776D01*
X70710Y-29576D02*
X70710Y-28776D01*
X70995Y-28776D02*
X71338Y-28776D01*
X71167Y-29576D02*
X71167Y-28776D01*
X71824Y-29576D02*
X71538Y-29576D01*
X71538Y-28776D01*
X63650Y-29537D02*
X63450Y-29156D01*
X63307Y-29537D02*
X63307Y-28737D01*
X63535Y-28737D01*
X63593Y-28775D01*
X63621Y-28813D01*
X63650Y-28889D01*
X63650Y-29003D01*
X63621Y-29080D01*
X63593Y-29118D01*
X63535Y-29156D01*
X63307Y-29156D01*
X63878Y-29499D02*
X63964Y-29537D01*
X64107Y-29537D01*
X64164Y-29499D01*
X64193Y-29461D01*
X64221Y-29384D01*
X64221Y-29308D01*
X64193Y-29232D01*
X64164Y-29194D01*
X64107Y-29156D01*
X63993Y-29118D01*
X63935Y-29080D01*
X63907Y-29042D01*
X63878Y-28965D01*
X63878Y-28889D01*
X63907Y-28813D01*
X63935Y-28775D01*
X63993Y-28737D01*
X64135Y-28737D01*
X64221Y-28775D01*
X64449Y-28813D02*
X64478Y-28775D01*
X64535Y-28737D01*
X64678Y-28737D01*
X64735Y-28775D01*
X64764Y-28813D01*
X64792Y-28889D01*
X64792Y-28965D01*
X64764Y-29080D01*
X64421Y-29537D01*
X64792Y-29537D01*
X64992Y-28737D02*
X65363Y-28737D01*
X65163Y-29042D01*
X65249Y-29042D01*
X65306Y-29080D01*
X65335Y-29118D01*
X65363Y-29194D01*
X65363Y-29384D01*
X65335Y-29461D01*
X65306Y-29499D01*
X65249Y-29537D01*
X65077Y-29537D01*
X65020Y-29499D01*
X64992Y-29461D01*
X65591Y-28813D02*
X65620Y-28775D01*
X65677Y-28737D01*
X65820Y-28737D01*
X65877Y-28775D01*
X65906Y-28813D01*
X65934Y-28889D01*
X65934Y-28965D01*
X65906Y-29080D01*
X65563Y-29537D01*
X65934Y-29537D01*
G54D13*
X29189Y-15638D02*
X25331Y-15638D01*
X29189Y-16662D02*
X25331Y-16662D01*
G54D10*
X25337Y-16660D02*
X25337Y-15660D01*
X29183Y-15640D02*
X29183Y-16640D01*
X26228Y-15650D02*
X26228Y-16650D01*
G54D13*
X49528Y-33149D02*
X47953Y-33149D01*
X47953Y-31181D02*
X49528Y-31181D01*
X47166Y-33149D02*
X47954Y-33149D01*
X47166Y-31181D02*
X47954Y-31181D01*
X47166Y-33149D02*
X42442Y-33149D01*
X42442Y-33149D02*
X42442Y-31181D01*
X42442Y-31181D02*
X47166Y-31181D01*
X49529Y-31181D02*
X49529Y-33149D01*
X72244Y-32992D02*
X72244Y-29842D01*
X70276Y-29842D02*
X70276Y-32992D01*
X72244Y-32992D02*
X70276Y-32992D01*
X70276Y-29843D02*
X72244Y-29843D01*
X65747Y-32992D02*
X65747Y-29842D01*
X63779Y-29842D02*
X63779Y-32992D01*
X65747Y-32992D02*
X63779Y-32992D01*
X63779Y-29843D02*
X65747Y-29843D01*
X57205Y-12244D02*
X59567Y-12244D01*
X57205Y-14212D02*
X59567Y-14212D01*
X59567Y-12244D02*
X59567Y-14212D01*
X57205Y-14212D02*
X57205Y-12244D01*
X66536Y-24882D02*
X69606Y-24882D01*
X69606Y-27244D02*
X66536Y-27244D01*
X69606Y-27244D02*
X69606Y-24882D01*
X66536Y-24882D02*
X66536Y-27244D01*
X69071Y-26063D02*
X69051Y-26257D01*
X68995Y-26444D01*
X68903Y-26616D01*
X68780Y-26767D01*
X68630Y-26892D01*
X68458Y-26984D01*
X68272Y-27042D01*
X68077Y-27062D01*
X67884Y-27045D01*
X67697Y-26990D01*
X67524Y-26899D01*
X67372Y-26777D01*
X67246Y-26627D01*
X67152Y-26456D01*
X67093Y-26270D01*
X67072Y-26076D01*
X67088Y-25883D01*
X67142Y-25695D01*
X67231Y-25522D01*
X67352Y-25369D01*
X67501Y-25242D01*
X67671Y-25147D01*
X67857Y-25087D01*
X68051Y-25064D01*
X68244Y-25079D01*
X68432Y-25131D01*
X68606Y-25219D01*
X68760Y-25339D01*
X68888Y-25487D01*
X68984Y-25657D01*
X69046Y-25842D01*
X69070Y-26036D01*
X69071Y-26063D01*
X70079Y-21299D02*
X73149Y-21299D01*
X73149Y-23661D02*
X70079Y-23661D01*
X73149Y-23661D02*
X73149Y-21299D01*
X70079Y-21299D02*
X70079Y-23661D01*
X72614Y-22480D02*
X72594Y-22674D01*
X72538Y-22861D01*
X72446Y-23033D01*
X72323Y-23184D01*
X72173Y-23309D01*
X72001Y-23401D01*
X71815Y-23459D01*
X71620Y-23479D01*
X71427Y-23462D01*
X71240Y-23407D01*
X71067Y-23316D01*
X70915Y-23194D01*
X70789Y-23044D01*
X70695Y-22873D01*
X70636Y-22687D01*
X70615Y-22493D01*
X70631Y-22300D01*
X70685Y-22112D01*
X70774Y-21939D01*
X70895Y-21786D01*
X71044Y-21659D01*
X71214Y-21564D01*
X71400Y-21504D01*
X71594Y-21481D01*
X71787Y-21496D01*
X71975Y-21548D01*
X72149Y-21636D01*
X72303Y-21756D01*
X72431Y-21904D01*
X72527Y-22074D01*
X72589Y-22259D01*
X72613Y-22453D01*
X72614Y-22480D01*
X66536Y-17716D02*
X69606Y-17716D01*
X69606Y-20078D02*
X66536Y-20078D01*
X69606Y-20078D02*
X69606Y-17716D01*
X66536Y-17716D02*
X66536Y-20078D01*
X69071Y-18897D02*
X69051Y-19091D01*
X68995Y-19278D01*
X68903Y-19450D01*
X68780Y-19601D01*
X68630Y-19726D01*
X68458Y-19818D01*
X68272Y-19876D01*
X68077Y-19896D01*
X67884Y-19879D01*
X67697Y-19824D01*
X67524Y-19733D01*
X67372Y-19611D01*
X67246Y-19461D01*
X67152Y-19290D01*
X67093Y-19104D01*
X67072Y-18910D01*
X67088Y-18717D01*
X67142Y-18529D01*
X67231Y-18356D01*
X67352Y-18203D01*
X67501Y-18076D01*
X67671Y-17981D01*
X67857Y-17921D01*
X68051Y-17898D01*
X68244Y-17913D01*
X68432Y-17965D01*
X68606Y-18053D01*
X68760Y-18173D01*
X68888Y-18321D01*
X68984Y-18491D01*
X69046Y-18676D01*
X69070Y-18870D01*
X69071Y-18897D01*
X28740Y-12402D02*
X31102Y-12402D01*
X31102Y-14370D02*
X28740Y-14370D01*
X31102Y-12402D02*
X33464Y-12402D01*
X33464Y-14370D02*
X31102Y-14370D01*
X34251Y-12402D02*
X33463Y-12402D01*
X34251Y-14370D02*
X33463Y-14370D01*
X34251Y-12402D02*
X38975Y-12402D01*
X38975Y-12402D02*
X38975Y-14370D01*
X38975Y-14370D02*
X34251Y-14370D01*
X28739Y-14370D02*
X28739Y-12402D01*
X17815Y-12363D02*
X20177Y-12363D01*
X20177Y-14331D02*
X17815Y-14331D01*
X20964Y-12363D02*
X20176Y-12363D01*
X20964Y-14331D02*
X20176Y-14331D01*
X20964Y-12363D02*
X25688Y-12363D01*
X25688Y-12363D02*
X25688Y-14331D01*
X25688Y-14331D02*
X20964Y-14331D01*
X17814Y-14331D02*
X17814Y-12363D01*
X67087Y-12047D02*
X69449Y-12047D01*
X69449Y-14015D02*
X67087Y-14015D01*
X70236Y-12047D02*
X69448Y-12047D01*
X70236Y-14015D02*
X69448Y-14015D01*
X70236Y-12047D02*
X74960Y-12047D01*
X74960Y-12047D02*
X74960Y-14015D01*
X74960Y-14015D02*
X70236Y-14015D01*
X67086Y-14015D02*
X67086Y-12047D01*
X77756Y-15473D02*
X77756Y-14685D01*
X75788Y-15473D02*
X75788Y-14685D01*
X77756Y-15473D02*
X77756Y-20197D01*
X77756Y-20197D02*
X75788Y-20197D01*
X75788Y-20197D02*
X75788Y-15473D01*
X75788Y-14685D02*
X77756Y-14685D01*
X50590Y-12205D02*
X49802Y-12205D01*
X50590Y-14173D02*
X49802Y-14173D01*
X50590Y-12205D02*
X55314Y-12205D01*
X55314Y-12205D02*
X55314Y-14173D01*
X55314Y-14173D02*
X50590Y-14173D01*
X49802Y-14173D02*
X49802Y-12205D01*
X12166Y-19882D02*
X12166Y-15158D01*
X12166Y-15158D02*
X14134Y-15158D01*
X14134Y-15158D02*
X14134Y-19882D01*
X14134Y-19882D02*
X12166Y-19882D01*
X46948Y-12027D02*
X48928Y-12027D01*
X45808Y-12567D02*
X47828Y-12567D01*
X48608Y-14267D02*
X40968Y-14267D01*
X48568Y-14267D02*
X48568Y-12887D01*
X48568Y-12887D02*
X47818Y-12887D01*
X47818Y-12887D02*
X47818Y-12567D01*
X45858Y-12567D02*
X41718Y-12567D01*
X41718Y-12567D02*
X41718Y-12887D01*
X41718Y-12887D02*
X40968Y-12887D01*
X40968Y-12887D02*
X40968Y-14267D01*
X41148Y-12887D02*
X41148Y-12347D01*
X41718Y-12607D02*
X41468Y-12607D01*
X41468Y-12887D02*
X41468Y-12347D01*
X47818Y-12607D02*
X48068Y-12607D01*
X48388Y-12887D02*
X48388Y-12347D01*
X48068Y-12887D02*
X48068Y-12347D01*
X48918Y-12027D02*
X48918Y-12347D01*
X48918Y-12347D02*
X47878Y-12347D01*
X47878Y-12347D02*
X47878Y-12027D01*
X46958Y-12027D02*
X40618Y-12027D01*
X40618Y-12027D02*
X40618Y-12347D01*
X40618Y-12347D02*
X41658Y-12347D01*
X41658Y-12347D02*
X41658Y-12027D01*
G54D14*
X39330Y-17835D02*
X39449Y-17835D01*
X38700Y-17835D02*
X38937Y-17835D01*
X38149Y-17835D02*
X38346Y-17835D01*
X37637Y-17835D02*
X37756Y-17835D01*
X38071Y-16811D02*
X37637Y-16811D01*
X39015Y-16811D02*
X39449Y-16811D01*
X39449Y-17835D02*
X39449Y-16811D01*
X37637Y-16811D02*
X37637Y-17835D01*
G54D13*
X40082Y-27928D02*
X40482Y-27928D01*
X40482Y-27928D02*
X40482Y-28528D01*
X40482Y-28528D02*
X40082Y-28528D01*
X39682Y-28528D02*
X39282Y-28528D01*
X39282Y-28528D02*
X39282Y-27928D01*
X39282Y-27928D02*
X39682Y-27928D01*
G54D12*
X62711Y-31969D02*
X62693Y-32143D01*
X62643Y-32311D01*
X62560Y-32467D01*
X62449Y-32603D01*
X62314Y-32715D01*
X62159Y-32798D01*
X61991Y-32850D01*
X61817Y-32868D01*
X61643Y-32853D01*
X61474Y-32803D01*
X61319Y-32722D01*
X61182Y-32612D01*
X61069Y-32477D01*
X60984Y-32323D01*
X60931Y-32156D01*
X60912Y-31981D01*
X60926Y-31807D01*
X60975Y-31638D01*
X61055Y-31482D01*
X61164Y-31344D01*
X61298Y-31230D01*
X61451Y-31145D01*
X61618Y-31090D01*
X61793Y-31070D01*
X61967Y-31083D01*
X62136Y-31130D01*
X62293Y-31210D01*
X62431Y-31318D01*
X62546Y-31451D01*
X62633Y-31603D01*
X62688Y-31770D01*
X62710Y-31944D01*
X62711Y-31969D01*
X63380Y-13780D02*
X63362Y-13954D01*
X63312Y-14122D01*
X63229Y-14278D01*
X63118Y-14414D01*
X62983Y-14526D01*
X62828Y-14609D01*
X62660Y-14661D01*
X62486Y-14679D01*
X62312Y-14664D01*
X62143Y-14614D01*
X61988Y-14533D01*
X61851Y-14423D01*
X61738Y-14288D01*
X61653Y-14134D01*
X61600Y-13967D01*
X61581Y-13792D01*
X61595Y-13618D01*
X61644Y-13449D01*
X61724Y-13293D01*
X61833Y-13155D01*
X61967Y-13041D01*
X62120Y-12956D01*
X62287Y-12901D01*
X62462Y-12881D01*
X62636Y-12894D01*
X62805Y-12941D01*
X62962Y-13021D01*
X63100Y-13129D01*
X63215Y-13262D01*
X63302Y-13414D01*
X63357Y-13581D01*
X63379Y-13755D01*
X63380Y-13780D01*
X28380Y-31969D02*
X28362Y-32143D01*
X28312Y-32311D01*
X28229Y-32467D01*
X28118Y-32603D01*
X27983Y-32715D01*
X27828Y-32798D01*
X27660Y-32850D01*
X27486Y-32868D01*
X27312Y-32853D01*
X27143Y-32803D01*
X26988Y-32722D01*
X26851Y-32612D01*
X26738Y-32477D01*
X26653Y-32323D01*
X26600Y-32156D01*
X26581Y-31981D01*
X26595Y-31807D01*
X26644Y-31638D01*
X26724Y-31482D01*
X26833Y-31344D01*
X26967Y-31230D01*
X27120Y-31145D01*
X27287Y-31090D01*
X27462Y-31070D01*
X27636Y-31083D01*
X27805Y-31130D01*
X27962Y-31210D01*
X28100Y-31318D01*
X28215Y-31451D01*
X28302Y-31603D01*
X28357Y-31770D01*
X28379Y-31944D01*
X28380Y-31969D01*
X28380Y-13780D02*
X28362Y-13954D01*
X28312Y-14122D01*
X28229Y-14278D01*
X28118Y-14414D01*
X27983Y-14526D01*
X27828Y-14609D01*
X27660Y-14661D01*
X27486Y-14679D01*
X27312Y-14664D01*
X27143Y-14614D01*
X26988Y-14533D01*
X26851Y-14423D01*
X26738Y-14288D01*
X26653Y-14134D01*
X26600Y-13967D01*
X26581Y-13792D01*
X26595Y-13618D01*
X26644Y-13449D01*
X26724Y-13293D01*
X26833Y-13155D01*
X26967Y-13041D01*
X27120Y-12956D01*
X27287Y-12901D01*
X27462Y-12881D01*
X27636Y-12894D01*
X27805Y-12941D01*
X27962Y-13021D01*
X28100Y-13129D01*
X28215Y-13262D01*
X28302Y-13414D01*
X28357Y-13581D01*
X28379Y-13755D01*
X28380Y-13780D01*
X22317Y-23425D02*
X22299Y-23599D01*
X22249Y-23767D01*
X22166Y-23923D01*
X22055Y-24059D01*
X21920Y-24171D01*
X21765Y-24254D01*
X21597Y-24306D01*
X21423Y-24324D01*
X21249Y-24309D01*
X21080Y-24259D01*
X20925Y-24178D01*
X20788Y-24068D01*
X20675Y-23933D01*
X20590Y-23779D01*
X20537Y-23612D01*
X20518Y-23437D01*
X20532Y-23263D01*
X20581Y-23094D01*
X20661Y-22938D01*
X20770Y-22800D01*
X20904Y-22686D01*
X21057Y-22601D01*
X21224Y-22546D01*
X21399Y-22526D01*
X21573Y-22539D01*
X21742Y-22586D01*
X21899Y-22666D01*
X22037Y-22774D01*
X22152Y-22907D01*
X22239Y-23059D01*
X22294Y-23226D01*
X22316Y-23400D01*
X22317Y-23425D01*
G54D14*
X34074Y-17540D02*
X34193Y-17540D01*
X33444Y-17540D02*
X33681Y-17540D01*
X32893Y-17540D02*
X33090Y-17540D01*
X32381Y-17540D02*
X32500Y-17540D01*
X32815Y-16516D02*
X32381Y-16516D01*
X33759Y-16516D02*
X34193Y-16516D01*
X34193Y-17540D02*
X34193Y-16516D01*
X32381Y-16516D02*
X32381Y-17540D01*
G54D11*
X76650Y-24488D02*
X76650Y-29488D01*
X76650Y-29488D02*
X74650Y-29488D01*
X74650Y-29488D02*
X74650Y-24488D01*
X74650Y-24488D02*
X76650Y-24488D01*
G54D13*
X35923Y-16361D02*
X35023Y-16361D01*
X35023Y-16361D02*
X35023Y-17011D01*
X35923Y-17711D02*
X35923Y-18361D01*
X35923Y-18361D02*
X35023Y-18361D01*
X35023Y-18361D02*
X35023Y-17711D01*
X35923Y-17011D02*
X35923Y-16361D01*
X37484Y-19235D02*
X37484Y-20135D01*
X37484Y-20135D02*
X38134Y-20135D01*
X38834Y-19235D02*
X39484Y-19235D01*
X39484Y-19235D02*
X39484Y-20135D01*
X39484Y-20135D02*
X38834Y-20135D01*
X38134Y-19235D02*
X37484Y-19235D01*
G54D11*
X42766Y-27461D02*
X48096Y-27463D01*
X42536Y-21901D02*
X42536Y-27235D01*
X42766Y-27461D02*
X42536Y-27231D01*
X47678Y-27461D02*
X47678Y-27913D01*
X47678Y-27913D02*
X42946Y-27913D01*
X42946Y-27913D02*
X42946Y-27461D01*
X48096Y-22319D02*
X48548Y-22319D01*
X48548Y-22319D02*
X48548Y-27039D01*
X48548Y-27039D02*
X48096Y-27039D01*
X42962Y-21901D02*
X42962Y-21449D01*
X42962Y-21449D02*
X47670Y-21449D01*
X47670Y-21449D02*
X47670Y-21901D01*
X42536Y-27035D02*
X42084Y-27035D01*
X42084Y-27035D02*
X42084Y-22323D01*
X42084Y-22323D02*
X42536Y-22323D01*
X43128Y-27053D02*
X43124Y-27089D01*
X43113Y-27124D01*
X43096Y-27157D01*
X43073Y-27185D01*
X43045Y-27208D01*
X43012Y-27226D01*
X42977Y-27237D01*
X42941Y-27240D01*
X42905Y-27237D01*
X42870Y-27227D01*
X42838Y-27210D01*
X42809Y-27187D01*
X42785Y-27159D01*
X42768Y-27127D01*
X42757Y-27092D01*
X42753Y-27055D01*
X42756Y-27020D01*
X42766Y-26984D01*
X42782Y-26952D01*
X42805Y-26923D01*
X42833Y-26899D01*
X42865Y-26881D01*
X42900Y-26870D01*
X42937Y-26866D01*
X42972Y-26868D01*
X43007Y-26878D01*
X43040Y-26895D01*
X43069Y-26917D01*
X43093Y-26945D01*
X43111Y-26977D01*
X43123Y-27012D01*
X43127Y-27048D01*
X43128Y-27053D01*
X42536Y-21901D02*
X48096Y-21901D01*
X48096Y-27461D02*
X48096Y-21901D01*
G54D15*
X19967Y-29074D02*
X21867Y-29074D01*
X21867Y-29074D02*
X21867Y-33074D01*
X21867Y-33074D02*
X19967Y-33074D01*
X19967Y-33074D02*
X19967Y-29074D01*
X20667Y-33074D02*
X20667Y-32824D01*
X20667Y-32824D02*
X21167Y-32824D01*
X21167Y-32824D02*
X21167Y-33074D01*
G54D13*
X39267Y-32185D02*
X39266Y-32194D01*
X39263Y-32204D01*
X39258Y-32212D01*
X39252Y-32220D01*
X39244Y-32226D01*
X39236Y-32231D01*
X39227Y-32233D01*
X39217Y-32234D01*
X39208Y-32234D01*
X39199Y-32231D01*
X39190Y-32226D01*
X39183Y-32220D01*
X39176Y-32213D01*
X39172Y-32204D01*
X39169Y-32195D01*
X39168Y-32185D01*
X39168Y-32176D01*
X39171Y-32167D01*
X39175Y-32158D01*
X39182Y-32151D01*
X39189Y-32144D01*
X39197Y-32140D01*
X39207Y-32137D01*
X39216Y-32136D01*
X39225Y-32136D01*
X39235Y-32139D01*
X39243Y-32143D01*
X39251Y-32149D01*
X39257Y-32157D01*
X39262Y-32165D01*
X39265Y-32174D01*
X39266Y-32184D01*
X39267Y-32185D01*
X39217Y-31735D02*
X39217Y-32135D01*
X39217Y-32135D02*
X38617Y-32135D01*
X38617Y-32135D02*
X38617Y-31735D01*
X38617Y-31335D02*
X38617Y-30935D01*
X38617Y-30935D02*
X39217Y-30935D01*
X39217Y-30935D02*
X39217Y-31335D01*
X38189Y-26447D02*
X37185Y-26447D01*
X37165Y-26919D02*
X38189Y-26919D01*
X38189Y-26919D02*
X38189Y-26447D01*
X37176Y-26915D02*
X37176Y-26455D01*
X38189Y-25797D02*
X37185Y-25797D01*
X37165Y-26269D02*
X38189Y-26269D01*
X38189Y-26269D02*
X38189Y-25797D01*
X37176Y-26265D02*
X37176Y-25805D01*
X38189Y-23829D02*
X37185Y-23829D01*
X37165Y-24301D02*
X38189Y-24301D01*
X38189Y-24301D02*
X38189Y-23829D01*
X37176Y-24297D02*
X37176Y-23837D01*
X38189Y-22520D02*
X37185Y-22520D01*
X37165Y-22992D02*
X38189Y-22992D01*
X38189Y-22992D02*
X38189Y-22520D01*
X37176Y-22988D02*
X37176Y-22528D01*
X38327Y-19055D02*
X39331Y-19055D01*
X39351Y-18583D02*
X38327Y-18583D01*
X38327Y-18583D02*
X38327Y-19055D01*
X39340Y-18587D02*
X39340Y-19047D01*
X38189Y-25148D02*
X37185Y-25148D01*
X37165Y-25620D02*
X38189Y-25620D01*
X38189Y-25620D02*
X38189Y-25148D01*
X37176Y-25616D02*
X37176Y-25156D01*
X38189Y-24488D02*
X37185Y-24488D01*
X37165Y-24960D02*
X38189Y-24960D01*
X38189Y-24960D02*
X38189Y-24488D01*
X37176Y-24956D02*
X37176Y-24496D01*
X38189Y-23170D02*
X37185Y-23170D01*
X37165Y-23642D02*
X38189Y-23642D01*
X38189Y-23642D02*
X38189Y-23170D01*
X37176Y-23638D02*
X37176Y-23178D01*
X38229Y-21378D02*
X37225Y-21378D01*
X37205Y-21850D02*
X38229Y-21850D01*
X38229Y-21850D02*
X38229Y-21378D01*
X37216Y-21846D02*
X37216Y-21386D01*
X53662Y-28229D02*
X52658Y-28229D01*
X52638Y-28701D02*
X53662Y-28701D01*
X53662Y-28701D02*
X53662Y-28229D01*
X52649Y-28697D02*
X52649Y-28237D01*
X51260Y-28701D02*
X52264Y-28701D01*
X52284Y-28229D02*
X51260Y-28229D01*
X51260Y-28229D02*
X51260Y-28701D01*
X52273Y-28233D02*
X52273Y-28693D01*
X36418Y-17243D02*
X36418Y-18247D01*
X36890Y-18267D02*
X36890Y-17243D01*
X36890Y-17243D02*
X36418Y-17243D01*
X36886Y-18256D02*
X36426Y-18256D01*
X40355Y-28701D02*
X39351Y-28701D01*
X39331Y-29173D02*
X40355Y-29173D01*
X40355Y-29173D02*
X40355Y-28701D01*
X39342Y-29169D02*
X39342Y-28709D01*
X24685Y-32678D02*
X24685Y-31674D01*
X24213Y-31654D02*
X24213Y-32678D01*
X24213Y-32678D02*
X24685Y-32678D01*
X24217Y-31665D02*
X24677Y-31665D01*
X51890Y-19685D02*
X52894Y-19685D01*
X52914Y-19213D02*
X51890Y-19213D01*
X51890Y-19213D02*
X51890Y-19685D01*
X52903Y-19217D02*
X52903Y-19677D01*
X40197Y-27087D02*
X39193Y-27087D01*
X39173Y-27559D02*
X40197Y-27559D01*
X40197Y-27559D02*
X40197Y-27087D01*
X39184Y-27555D02*
X39184Y-27095D01*
X36654Y-15589D02*
X36654Y-16593D01*
X37126Y-16613D02*
X37126Y-15589D01*
X37126Y-15589D02*
X36654Y-15589D01*
X37122Y-16602D02*
X36662Y-16602D01*
X33977Y-22047D02*
X32973Y-22047D01*
X32953Y-22519D02*
X33977Y-22519D01*
X33977Y-22519D02*
X33977Y-22047D01*
X32964Y-22515D02*
X32964Y-22055D01*
X39685Y-31457D02*
X39685Y-32461D01*
X40157Y-32481D02*
X40157Y-31457D01*
X40157Y-31457D02*
X39685Y-31457D01*
X40153Y-32470D02*
X39693Y-32470D01*
X40315Y-31457D02*
X40315Y-32461D01*
X40787Y-32481D02*
X40787Y-31457D01*
X40787Y-31457D02*
X40315Y-31457D01*
X40783Y-32470D02*
X40323Y-32470D01*
X50276Y-31732D02*
X50276Y-32736D01*
X50748Y-32756D02*
X50748Y-31732D01*
X50748Y-31732D02*
X50276Y-31732D01*
X50744Y-32745D02*
X50284Y-32745D01*
X33977Y-21457D02*
X32973Y-21457D01*
X32953Y-21929D02*
X33977Y-21929D01*
X33977Y-21929D02*
X33977Y-21457D01*
X32964Y-21925D02*
X32964Y-21465D01*
X53052Y-20984D02*
X54056Y-20984D01*
X54076Y-20512D02*
X53052Y-20512D01*
X53052Y-20512D02*
X53052Y-20984D01*
X54065Y-20516D02*
X54065Y-20976D01*
X40945Y-31457D02*
X40945Y-32461D01*
X41417Y-32481D02*
X41417Y-31457D01*
X41417Y-31457D02*
X40945Y-31457D01*
X41413Y-32470D02*
X40953Y-32470D01*
X41575Y-31457D02*
X41575Y-32461D01*
X42047Y-32481D02*
X42047Y-31457D01*
X42047Y-31457D02*
X41575Y-31457D01*
X42043Y-32470D02*
X41583Y-32470D01*
X45906Y-16457D02*
X45906Y-17461D01*
X46378Y-17481D02*
X46378Y-16457D01*
X46378Y-16457D02*
X45906Y-16457D01*
X46374Y-17470D02*
X45914Y-17470D01*
X44015Y-16457D02*
X44015Y-17461D01*
X44487Y-17481D02*
X44487Y-16457D01*
X44487Y-16457D02*
X44015Y-16457D01*
X44483Y-17470D02*
X44023Y-17470D01*
X42717Y-16457D02*
X42717Y-17461D01*
X43189Y-17481D02*
X43189Y-16457D01*
X43189Y-16457D02*
X42717Y-16457D01*
X43185Y-17470D02*
X42725Y-17470D01*
X41614Y-16457D02*
X41614Y-17461D01*
X42086Y-17481D02*
X42086Y-16457D01*
X42086Y-16457D02*
X41614Y-16457D01*
X42082Y-17470D02*
X41622Y-17470D01*
X43268Y-16457D02*
X43268Y-17461D01*
X43740Y-17481D02*
X43740Y-16457D01*
X43740Y-16457D02*
X43268Y-16457D01*
X43736Y-17470D02*
X43276Y-17470D01*
X42166Y-16457D02*
X42166Y-17461D01*
X42638Y-17481D02*
X42638Y-16457D01*
X42638Y-16457D02*
X42166Y-16457D01*
X42634Y-17470D02*
X42174Y-17470D01*
X41063Y-16457D02*
X41063Y-17461D01*
X41535Y-17481D02*
X41535Y-16457D01*
X41535Y-16457D02*
X41063Y-16457D01*
X41531Y-17470D02*
X41071Y-17470D01*
X45590Y-17481D02*
X45590Y-16477D01*
X45118Y-16457D02*
X45118Y-17481D01*
X45118Y-17481D02*
X45590Y-17481D01*
X45122Y-16468D02*
X45582Y-16468D01*
X44567Y-16457D02*
X44567Y-17461D01*
X45039Y-17481D02*
X45039Y-16457D01*
X45039Y-16457D02*
X44567Y-16457D01*
X45035Y-17470D02*
X44575Y-17470D01*
X37205Y-21220D02*
X38209Y-21220D01*
X38229Y-20748D02*
X37205Y-20748D01*
X37205Y-20748D02*
X37205Y-21220D01*
X38218Y-20752D02*
X38218Y-21212D01*
X39173Y-21693D02*
X40177Y-21693D01*
X40197Y-21221D02*
X39173Y-21221D01*
X39173Y-21221D02*
X39173Y-21693D01*
X40186Y-21225D02*
X40186Y-21685D01*
X40187Y-26447D02*
X39183Y-26447D01*
X39163Y-26919D02*
X40187Y-26919D01*
X40187Y-26919D02*
X40187Y-26447D01*
X39174Y-26915D02*
X39174Y-26455D01*
X40197Y-25148D02*
X39193Y-25148D01*
X39173Y-25620D02*
X40197Y-25620D01*
X40197Y-25620D02*
X40197Y-25148D01*
X39184Y-25616D02*
X39184Y-25156D01*
X40197Y-23829D02*
X39193Y-23829D01*
X39173Y-24301D02*
X40197Y-24301D01*
X40197Y-24301D02*
X40197Y-23829D01*
X39184Y-24297D02*
X39184Y-23837D01*
X40197Y-22520D02*
X39193Y-22520D01*
X39173Y-22992D02*
X40197Y-22992D01*
X40197Y-22992D02*
X40197Y-22520D01*
X39184Y-22988D02*
X39184Y-22528D01*
X40945Y-29567D02*
X40945Y-30571D01*
X41417Y-30591D02*
X41417Y-29567D01*
X41417Y-29567D02*
X40945Y-29567D01*
X41413Y-30580D02*
X40953Y-30580D01*
X40197Y-25797D02*
X39193Y-25797D01*
X39173Y-26269D02*
X40197Y-26269D01*
X40197Y-26269D02*
X40197Y-25797D01*
X39184Y-26265D02*
X39184Y-25805D01*
X40198Y-24488D02*
X39194Y-24488D01*
X39174Y-24960D02*
X40198Y-24960D01*
X40198Y-24960D02*
X40198Y-24488D01*
X39185Y-24956D02*
X39185Y-24496D01*
X40197Y-23170D02*
X39193Y-23170D01*
X39173Y-23642D02*
X40197Y-23642D01*
X40197Y-23642D02*
X40197Y-23170D01*
X39184Y-23638D02*
X39184Y-23178D01*
X40197Y-21870D02*
X39193Y-21870D01*
X39173Y-22342D02*
X40197Y-22342D01*
X40197Y-22342D02*
X40197Y-21870D01*
X39184Y-22338D02*
X39184Y-21878D01*
X51092Y-25571D02*
X52096Y-25571D01*
X52116Y-25099D02*
X51092Y-25099D01*
X51092Y-25099D02*
X51092Y-25571D01*
X52105Y-25103D02*
X52105Y-25563D01*
X54281Y-24183D02*
X55285Y-24183D01*
X55305Y-23711D02*
X54281Y-23711D01*
X54281Y-23711D02*
X54281Y-24183D01*
X55294Y-23715D02*
X55294Y-24175D01*
X39685Y-29567D02*
X39685Y-30571D01*
X40157Y-30591D02*
X40157Y-29567D01*
X40157Y-29567D02*
X39685Y-29567D01*
X40153Y-30580D02*
X39693Y-30580D01*
X40315Y-29567D02*
X40315Y-30571D01*
X40787Y-30591D02*
X40787Y-29567D01*
X40787Y-29567D02*
X40315Y-29567D01*
X40783Y-30580D02*
X40323Y-30580D01*
X41575Y-29567D02*
X41575Y-30571D01*
X42047Y-30591D02*
X42047Y-29567D01*
X42047Y-29567D02*
X41575Y-29567D01*
X42043Y-30580D02*
X41583Y-30580D01*
X51102Y-26171D02*
X52106Y-26171D01*
X52126Y-25699D02*
X51102Y-25699D01*
X51102Y-25699D02*
X51102Y-26171D01*
X52115Y-25703D02*
X52115Y-26163D01*
X54281Y-24744D02*
X55285Y-24744D01*
X55305Y-24272D02*
X54281Y-24272D01*
X54281Y-24272D02*
X54281Y-24744D01*
X55294Y-24276D02*
X55294Y-24736D01*
X52461Y-30590D02*
X51457Y-30590D01*
X51437Y-31062D02*
X52461Y-31062D01*
X52461Y-31062D02*
X52461Y-30590D01*
X51448Y-31058D02*
X51448Y-30598D01*
X49409Y-30649D02*
X50413Y-30649D01*
X50433Y-30177D02*
X49409Y-30177D01*
X49409Y-30177D02*
X49409Y-30649D01*
X50422Y-30181D02*
X50422Y-30641D01*
X23938Y-29882D02*
X22934Y-29882D01*
X22914Y-30354D02*
X23938Y-30354D01*
X23938Y-30354D02*
X23938Y-29882D01*
X22925Y-30350D02*
X22925Y-29890D01*
X23976Y-32678D02*
X23976Y-31674D01*
X23504Y-31654D02*
X23504Y-32678D01*
X23504Y-32678D02*
X23976Y-32678D01*
X23508Y-31665D02*
X23968Y-31665D01*
X50591Y-19960D02*
X51595Y-19960D01*
X51615Y-19488D02*
X50591Y-19488D01*
X50591Y-19488D02*
X50591Y-19960D01*
X51604Y-19492D02*
X51604Y-19952D01*
X48779Y-20236D02*
X48779Y-19232D01*
X48307Y-19212D02*
X48307Y-20236D01*
X48307Y-20236D02*
X48779Y-20236D01*
X48311Y-19223D02*
X48771Y-19223D01*
X49488Y-18544D02*
X48484Y-18544D01*
X48464Y-19016D02*
X49488Y-19016D01*
X49488Y-19016D02*
X49488Y-18544D01*
X48475Y-19012D02*
X48475Y-18552D01*
X40512Y-15315D02*
X40512Y-16319D01*
X40984Y-16339D02*
X40984Y-15315D01*
X40984Y-15315D02*
X40512Y-15315D01*
X40980Y-16328D02*
X40520Y-16328D01*
X40984Y-17481D02*
X40984Y-16477D01*
X40512Y-16457D02*
X40512Y-17481D01*
X40512Y-17481D02*
X40984Y-17481D01*
X40516Y-16468D02*
X40976Y-16468D01*
X40433Y-17481D02*
X40433Y-16477D01*
X39961Y-16457D02*
X39961Y-17481D01*
X39961Y-17481D02*
X40433Y-17481D01*
X39965Y-16468D02*
X40425Y-16468D01*
X39961Y-15314D02*
X39961Y-16318D01*
X40433Y-16338D02*
X40433Y-15314D01*
X40433Y-15314D02*
X39961Y-15314D01*
X40429Y-16327D02*
X39969Y-16327D01*
X39941Y-19567D02*
X39941Y-20571D01*
X40413Y-20591D02*
X40413Y-19567D01*
X40413Y-19567D02*
X39941Y-19567D01*
X40409Y-20580D02*
X39949Y-20580D01*
X41201Y-19567D02*
X41201Y-20571D01*
X41673Y-20591D02*
X41673Y-19567D01*
X41673Y-19567D02*
X41201Y-19567D01*
X41669Y-20580D02*
X41209Y-20580D01*
X42461Y-19567D02*
X42461Y-20571D01*
X42933Y-20591D02*
X42933Y-19567D01*
X42933Y-19567D02*
X42461Y-19567D01*
X42929Y-20580D02*
X42469Y-20580D01*
X43721Y-19567D02*
X43721Y-20571D01*
X44193Y-20591D02*
X44193Y-19567D01*
X44193Y-19567D02*
X43721Y-19567D01*
X44189Y-20580D02*
X43729Y-20580D01*
X39941Y-17913D02*
X39941Y-18917D01*
X40413Y-18937D02*
X40413Y-17913D01*
X40413Y-17913D02*
X39941Y-17913D01*
X40409Y-18926D02*
X39949Y-18926D01*
X41201Y-17913D02*
X41201Y-18917D01*
X41673Y-18937D02*
X41673Y-17913D01*
X41673Y-17913D02*
X41201Y-17913D01*
X41669Y-18926D02*
X41209Y-18926D01*
X42461Y-17913D02*
X42461Y-18917D01*
X42933Y-18937D02*
X42933Y-17913D01*
X42933Y-17913D02*
X42461Y-17913D01*
X42929Y-18926D02*
X42469Y-18926D01*
X43721Y-17913D02*
X43721Y-18917D01*
X44193Y-18937D02*
X44193Y-17913D01*
X44193Y-17913D02*
X43721Y-17913D01*
X44189Y-18926D02*
X43729Y-18926D01*
X40571Y-19567D02*
X40571Y-20571D01*
X41043Y-20591D02*
X41043Y-19567D01*
X41043Y-19567D02*
X40571Y-19567D01*
X41039Y-20580D02*
X40579Y-20580D01*
X41831Y-19567D02*
X41831Y-20571D01*
X42303Y-20591D02*
X42303Y-19567D01*
X42303Y-19567D02*
X41831Y-19567D01*
X42299Y-20580D02*
X41839Y-20580D01*
X43091Y-19567D02*
X43091Y-20571D01*
X43563Y-20591D02*
X43563Y-19567D01*
X43563Y-19567D02*
X43091Y-19567D01*
X43559Y-20580D02*
X43099Y-20580D01*
X44351Y-19567D02*
X44351Y-20571D01*
X44823Y-20591D02*
X44823Y-19567D01*
X44823Y-19567D02*
X44351Y-19567D01*
X44819Y-20580D02*
X44359Y-20580D01*
X40571Y-17913D02*
X40571Y-18917D01*
X41043Y-18937D02*
X41043Y-17913D01*
X41043Y-17913D02*
X40571Y-17913D01*
X41039Y-18926D02*
X40579Y-18926D01*
X41831Y-17913D02*
X41831Y-18917D01*
X42303Y-18937D02*
X42303Y-17913D01*
X42303Y-17913D02*
X41831Y-17913D01*
X42299Y-18926D02*
X41839Y-18926D01*
X43091Y-17913D02*
X43091Y-18917D01*
X43563Y-18937D02*
X43563Y-17913D01*
X43563Y-17913D02*
X43091Y-17913D01*
X43559Y-18926D02*
X43099Y-18926D01*
X44351Y-17913D02*
X44351Y-18917D01*
X44823Y-18937D02*
X44823Y-17913D01*
X44823Y-17913D02*
X44351Y-17913D01*
X44819Y-18926D02*
X44359Y-18926D01*
X46870Y-19567D02*
X46870Y-20571D01*
X47342Y-20591D02*
X47342Y-19567D01*
X47342Y-19567D02*
X46870Y-19567D01*
X47338Y-20580D02*
X46878Y-20580D01*
X45610Y-19567D02*
X45610Y-20571D01*
X46082Y-20591D02*
X46082Y-19567D01*
X46082Y-19567D02*
X45610Y-19567D01*
X46078Y-20580D02*
X45618Y-20580D01*
X47500Y-19567D02*
X47500Y-20571D01*
X47972Y-20591D02*
X47972Y-19567D01*
X47972Y-19567D02*
X47500Y-19567D01*
X47968Y-20580D02*
X47508Y-20580D01*
X46240Y-19567D02*
X46240Y-20571D01*
X46712Y-20591D02*
X46712Y-19567D01*
X46712Y-19567D02*
X46240Y-19567D01*
X46708Y-20580D02*
X46248Y-20580D01*
X44981Y-19567D02*
X44981Y-20571D01*
X45453Y-20591D02*
X45453Y-19567D01*
X45453Y-19567D02*
X44981Y-19567D01*
X45449Y-20580D02*
X44989Y-20580D01*
X47500Y-17913D02*
X47500Y-18917D01*
X47972Y-18937D02*
X47972Y-17913D01*
X47972Y-17913D02*
X47500Y-17913D01*
X47968Y-18926D02*
X47508Y-18926D01*
X46240Y-17913D02*
X46240Y-18917D01*
X46712Y-18937D02*
X46712Y-17913D01*
X46712Y-17913D02*
X46240Y-17913D01*
X46708Y-18926D02*
X46248Y-18926D01*
X44981Y-17913D02*
X44981Y-18917D01*
X45453Y-18937D02*
X45453Y-17913D01*
X45453Y-17913D02*
X44981Y-17913D01*
X45449Y-18926D02*
X44989Y-18926D01*
X46870Y-17913D02*
X46870Y-18917D01*
X47342Y-18937D02*
X47342Y-17913D01*
X47342Y-17913D02*
X46870Y-17913D01*
X47338Y-18926D02*
X46878Y-18926D01*
X45610Y-17913D02*
X45610Y-18917D01*
X46082Y-18937D02*
X46082Y-17913D01*
X46082Y-17913D02*
X45610Y-17913D01*
X46078Y-18926D02*
X45618Y-18926D01*
X52128Y-20512D02*
X51124Y-20512D01*
X51104Y-20984D02*
X52128Y-20984D01*
X52128Y-20984D02*
X52128Y-20512D01*
X51115Y-20980D02*
X51115Y-20520D01*
G54D12*
X77672Y-13425D02*
X77654Y-13599D01*
X77604Y-13767D01*
X77521Y-13923D01*
X77410Y-14059D01*
X77275Y-14171D01*
X77120Y-14254D01*
X76952Y-14306D01*
X76778Y-14324D01*
X76604Y-14309D01*
X76435Y-14259D01*
X76280Y-14178D01*
X76143Y-14068D01*
X76030Y-13933D01*
X75945Y-13779D01*
X75892Y-13612D01*
X75873Y-13437D01*
X75887Y-13263D01*
X75936Y-13094D01*
X76016Y-12938D01*
X76125Y-12800D01*
X76259Y-12686D01*
X76412Y-12601D01*
X76579Y-12546D01*
X76754Y-12526D01*
X76928Y-12539D01*
X77097Y-12586D01*
X77254Y-12666D01*
X77392Y-12774D01*
X77507Y-12907D01*
X77594Y-13059D01*
X77649Y-13226D01*
X77671Y-13400D01*
X77672Y-13425D01*
X75270Y-31653D02*
X75252Y-31827D01*
X75202Y-31995D01*
X75119Y-32151D01*
X75008Y-32287D01*
X74873Y-32399D01*
X74718Y-32482D01*
X74550Y-32534D01*
X74376Y-32552D01*
X74202Y-32537D01*
X74033Y-32487D01*
X73878Y-32406D01*
X73741Y-32296D01*
X73628Y-32161D01*
X73543Y-32007D01*
X73490Y-31840D01*
X73471Y-31665D01*
X73485Y-31491D01*
X73534Y-31322D01*
X73614Y-31166D01*
X73723Y-31028D01*
X73857Y-30914D01*
X74010Y-30829D01*
X74177Y-30774D01*
X74352Y-30754D01*
X74526Y-30767D01*
X74695Y-30814D01*
X74852Y-30894D01*
X74990Y-31002D01*
X75105Y-31135D01*
X75192Y-31287D01*
X75247Y-31454D01*
X75269Y-31628D01*
X75270Y-31653D01*
X14404Y-13425D02*
X14386Y-13599D01*
X14336Y-13767D01*
X14253Y-13923D01*
X14142Y-14059D01*
X14007Y-14171D01*
X13852Y-14254D01*
X13684Y-14306D01*
X13510Y-14324D01*
X13336Y-14309D01*
X13167Y-14259D01*
X13012Y-14178D01*
X12875Y-14068D01*
X12762Y-13933D01*
X12677Y-13779D01*
X12624Y-13612D01*
X12605Y-13437D01*
X12619Y-13263D01*
X12668Y-13094D01*
X12748Y-12938D01*
X12857Y-12800D01*
X12991Y-12686D01*
X13144Y-12601D01*
X13311Y-12546D01*
X13486Y-12526D01*
X13660Y-12539D01*
X13829Y-12586D01*
X13986Y-12666D01*
X14124Y-12774D01*
X14239Y-12907D01*
X14326Y-13059D01*
X14381Y-13226D01*
X14403Y-13400D01*
X14404Y-13425D01*
X16609Y-31535D02*
X16591Y-31709D01*
X16541Y-31877D01*
X16458Y-32033D01*
X16347Y-32169D01*
X16212Y-32281D01*
X16057Y-32364D01*
X15889Y-32416D01*
X15715Y-32434D01*
X15541Y-32419D01*
X15372Y-32369D01*
X15217Y-32288D01*
X15080Y-32178D01*
X14967Y-32043D01*
X14882Y-31889D01*
X14829Y-31722D01*
X14810Y-31547D01*
X14824Y-31373D01*
X14873Y-31204D01*
X14953Y-31048D01*
X15062Y-30910D01*
X15196Y-30796D01*
X15349Y-30711D01*
X15516Y-30656D01*
X15691Y-30636D01*
X15865Y-30649D01*
X16034Y-30696D01*
X16191Y-30776D01*
X16329Y-30884D01*
X16444Y-31017D01*
X16531Y-31169D01*
X16586Y-31336D01*
X16608Y-31510D01*
X16609Y-31535D01*
G54D13*
X57283Y-20363D02*
X57283Y-19463D01*
X57283Y-19463D02*
X56633Y-19463D01*
X55933Y-20363D02*
X55283Y-20363D01*
X55283Y-20363D02*
X55283Y-19463D01*
X55283Y-19463D02*
X55933Y-19463D01*
X56633Y-20363D02*
X57283Y-20363D01*
X62993Y-21299D02*
X66063Y-21299D01*
X66063Y-23661D02*
X62993Y-23661D01*
X66063Y-23661D02*
X66063Y-21299D01*
X62993Y-21299D02*
X62993Y-23661D01*
X65528Y-22480D02*
X65508Y-22674D01*
X65452Y-22861D01*
X65360Y-23033D01*
X65237Y-23184D01*
X65087Y-23309D01*
X64915Y-23401D01*
X64729Y-23459D01*
X64534Y-23479D01*
X64341Y-23462D01*
X64154Y-23407D01*
X63981Y-23316D01*
X63829Y-23194D01*
X63703Y-23044D01*
X63609Y-22873D01*
X63550Y-22687D01*
X63529Y-22493D01*
X63545Y-22300D01*
X63599Y-22112D01*
X63688Y-21939D01*
X63809Y-21786D01*
X63958Y-21659D01*
X64128Y-21564D01*
X64314Y-21504D01*
X64508Y-21481D01*
X64701Y-21496D01*
X64889Y-21548D01*
X65063Y-21636D01*
X65217Y-21756D01*
X65345Y-21904D01*
X65441Y-22074D01*
X65503Y-22259D01*
X65527Y-22453D01*
X65528Y-22480D01*
X19843Y-19291D02*
X22913Y-19291D01*
X22913Y-21653D02*
X19843Y-21653D01*
X22913Y-21653D02*
X22913Y-19291D01*
X19843Y-19291D02*
X19843Y-21653D01*
X22378Y-20472D02*
X22358Y-20666D01*
X22302Y-20853D01*
X22210Y-21025D01*
X22087Y-21176D01*
X21937Y-21301D01*
X21765Y-21393D01*
X21579Y-21451D01*
X21384Y-21471D01*
X21191Y-21454D01*
X21004Y-21399D01*
X20831Y-21308D01*
X20679Y-21186D01*
X20553Y-21036D01*
X20459Y-20865D01*
X20400Y-20679D01*
X20379Y-20485D01*
X20395Y-20292D01*
X20449Y-20104D01*
X20538Y-19931D01*
X20659Y-19778D01*
X20808Y-19651D01*
X20978Y-19556D01*
X21164Y-19496D01*
X21358Y-19473D01*
X21551Y-19488D01*
X21739Y-19540D01*
X21913Y-19628D01*
X22067Y-19748D01*
X22195Y-19896D01*
X22291Y-20066D01*
X22353Y-20251D01*
X22377Y-20445D01*
X22378Y-20472D01*
X19843Y-25079D02*
X22913Y-25079D01*
X22913Y-27441D02*
X19843Y-27441D01*
X22913Y-27441D02*
X22913Y-25079D01*
X19843Y-25079D02*
X19843Y-27441D01*
X22378Y-26260D02*
X22358Y-26454D01*
X22302Y-26641D01*
X22210Y-26813D01*
X22087Y-26964D01*
X21937Y-27089D01*
X21765Y-27181D01*
X21579Y-27239D01*
X21384Y-27259D01*
X21191Y-27242D01*
X21004Y-27187D01*
X20831Y-27096D01*
X20679Y-26974D01*
X20553Y-26824D01*
X20459Y-26653D01*
X20400Y-26467D01*
X20379Y-26273D01*
X20395Y-26080D01*
X20449Y-25892D01*
X20538Y-25719D01*
X20659Y-25566D01*
X20808Y-25439D01*
X20978Y-25344D01*
X21164Y-25284D01*
X21358Y-25261D01*
X21551Y-25276D01*
X21739Y-25328D01*
X21913Y-25416D01*
X22067Y-25536D01*
X22195Y-25684D01*
X22291Y-25854D01*
X22353Y-26039D01*
X22377Y-26233D01*
X22378Y-26260D01*
X34527Y-21299D02*
X35531Y-21299D01*
X35551Y-20827D02*
X34527Y-20827D01*
X34527Y-20827D02*
X34527Y-21299D01*
X35540Y-20831D02*
X35540Y-21291D01*
X34488Y-22953D02*
X35492Y-22953D01*
X35512Y-22481D02*
X34488Y-22481D01*
X34488Y-22481D02*
X34488Y-22953D01*
X35501Y-22485D02*
X35501Y-22945D01*
X67835Y-29803D02*
X66831Y-29803D01*
X66811Y-30275D02*
X67835Y-30275D01*
X67835Y-30275D02*
X67835Y-29803D01*
X66822Y-30271D02*
X66822Y-29811D01*
X28268Y-23091D02*
X27264Y-23091D01*
X27244Y-23563D02*
X28268Y-23563D01*
X28268Y-23563D02*
X28268Y-23091D01*
X27255Y-23559D02*
X27255Y-23099D01*
X60945Y-25512D02*
X61949Y-25512D01*
X61969Y-25040D02*
X60945Y-25040D01*
X60945Y-25040D02*
X60945Y-25512D01*
X61958Y-25044D02*
X61958Y-25504D01*
X68533Y-31978D02*
X69537Y-31978D01*
X69557Y-31506D02*
X68533Y-31506D01*
X68533Y-31506D02*
X68533Y-31978D01*
X69546Y-31510D02*
X69546Y-31970D01*
X65865Y-31417D02*
X65865Y-32421D01*
X66337Y-32441D02*
X66337Y-31417D01*
X66337Y-31417D02*
X65865Y-31417D01*
X66333Y-32430D02*
X65873Y-32430D01*
X66535Y-32992D02*
X67539Y-32992D01*
X67559Y-32520D02*
X66535Y-32520D01*
X66535Y-32520D02*
X66535Y-32992D01*
X67548Y-32524D02*
X67548Y-32984D01*
X62677Y-19252D02*
X63681Y-19252D01*
X63701Y-18780D02*
X62677Y-18780D01*
X62677Y-18780D02*
X62677Y-19252D01*
X63690Y-18784D02*
X63690Y-19244D01*
X28248Y-19725D02*
X27244Y-19725D01*
X27224Y-20197D02*
X28248Y-20197D01*
X28248Y-20197D02*
X28248Y-19725D01*
X27235Y-20193D02*
X27235Y-19733D01*
X62677Y-16575D02*
X63681Y-16575D01*
X63701Y-16103D02*
X62677Y-16103D01*
X62677Y-16103D02*
X62677Y-16575D01*
X63690Y-16107D02*
X63690Y-16567D01*
X28268Y-23681D02*
X27264Y-23681D01*
X27244Y-24153D02*
X28268Y-24153D01*
X28268Y-24153D02*
X28268Y-23681D01*
X27255Y-24149D02*
X27255Y-23689D01*
X68543Y-32559D02*
X69547Y-32559D01*
X69567Y-32087D02*
X68543Y-32087D01*
X68543Y-32087D02*
X68543Y-32559D01*
X69556Y-32091D02*
X69556Y-32551D01*
X61023Y-22086D02*
X62027Y-22086D01*
X62047Y-21614D02*
X61023Y-21614D01*
X61023Y-21614D02*
X61023Y-22086D01*
X62036Y-21618D02*
X62036Y-22078D01*
X28268Y-21417D02*
X27264Y-21417D01*
X27244Y-21889D02*
X28268Y-21889D01*
X28268Y-21889D02*
X28268Y-21417D01*
X27255Y-21885D02*
X27255Y-21425D01*
X62677Y-17362D02*
X63681Y-17362D01*
X63701Y-16890D02*
X62677Y-16890D01*
X62677Y-16890D02*
X62677Y-17362D01*
X63690Y-16894D02*
X63690Y-17354D01*
X28264Y-19110D02*
X27260Y-19110D01*
X27240Y-19582D02*
X28264Y-19582D01*
X28264Y-19582D02*
X28264Y-19110D01*
X27251Y-19578D02*
X27251Y-19118D01*
X62677Y-18425D02*
X63681Y-18425D01*
X63701Y-17953D02*
X62677Y-17953D01*
X62677Y-17953D02*
X62677Y-18425D01*
X63690Y-17957D02*
X63690Y-18417D01*
X62677Y-20905D02*
X63681Y-20905D01*
X63701Y-20433D02*
X62677Y-20433D01*
X62677Y-20433D02*
X62677Y-20905D01*
X63690Y-20437D02*
X63690Y-20897D01*
X64212Y-19921D02*
X65216Y-19921D01*
X65236Y-19449D02*
X64212Y-19449D01*
X64212Y-19449D02*
X64212Y-19921D01*
X65225Y-19453D02*
X65225Y-19913D01*
X28268Y-22008D02*
X27264Y-22008D01*
X27244Y-22480D02*
X28268Y-22480D01*
X28268Y-22480D02*
X28268Y-22008D01*
X27255Y-22476D02*
X27255Y-22016D01*
X67558Y-31969D02*
X66554Y-31969D01*
X66534Y-32441D02*
X67558Y-32441D01*
X67558Y-32441D02*
X67558Y-31969D01*
X66545Y-32437D02*
X66545Y-31977D01*
X51120Y-18819D02*
X51109Y-18921D01*
X51080Y-19020D01*
X51031Y-19111D01*
X50966Y-19191D01*
X50886Y-19257D01*
X50795Y-19306D01*
X50697Y-19337D01*
X50594Y-19347D01*
X50492Y-19338D01*
X50393Y-19309D01*
X50302Y-19261D01*
X50221Y-19196D01*
X50155Y-19117D01*
X50105Y-19027D01*
X50074Y-18928D01*
X50063Y-18826D01*
X50071Y-18724D01*
X50100Y-18625D01*
X50147Y-18533D01*
X50211Y-18452D01*
X50290Y-18385D01*
X50380Y-18335D01*
X50478Y-18303D01*
X50580Y-18291D01*
X50682Y-18299D01*
X50782Y-18326D01*
X50874Y-18373D01*
X50955Y-18436D01*
X51023Y-18515D01*
X51074Y-18604D01*
X51106Y-18702D01*
X51119Y-18805D01*
X51120Y-18819D01*
X55726Y-26339D02*
X55715Y-26441D01*
X55686Y-26540D01*
X55637Y-26631D01*
X55572Y-26711D01*
X55492Y-26777D01*
X55401Y-26826D01*
X55303Y-26857D01*
X55200Y-26867D01*
X55098Y-26858D01*
X54999Y-26829D01*
X54908Y-26781D01*
X54827Y-26716D01*
X54761Y-26637D01*
X54711Y-26547D01*
X54680Y-26448D01*
X54669Y-26346D01*
X54677Y-26244D01*
X54706Y-26145D01*
X54753Y-26053D01*
X54817Y-25972D01*
X54896Y-25905D01*
X54986Y-25855D01*
X55084Y-25823D01*
X55186Y-25811D01*
X55288Y-25819D01*
X55388Y-25846D01*
X55480Y-25893D01*
X55561Y-25956D01*
X55629Y-26035D01*
X55680Y-26124D01*
X55712Y-26222D01*
X55725Y-26325D01*
X55726Y-26339D01*
X68543Y-33110D02*
X69547Y-33110D01*
X69567Y-32638D02*
X68543Y-32638D01*
X68543Y-32638D02*
X68543Y-33110D01*
X69556Y-32642D02*
X69556Y-33102D01*
G54D11*
X53841Y-27565D02*
X51041Y-27565D01*
X51041Y-27565D02*
X51041Y-26765D01*
X51041Y-26765D02*
X53841Y-26765D01*
X53841Y-26765D02*
X53841Y-27565D01*
X53841Y-27365D02*
X53641Y-27565D01*
G54D13*
X53012Y-24183D02*
X54016Y-24183D01*
X54036Y-23711D02*
X53012Y-23711D01*
X53012Y-23711D02*
X53012Y-24183D01*
X54025Y-23715D02*
X54025Y-24175D01*
X53012Y-24744D02*
X54016Y-24744D01*
X54036Y-24272D02*
X53012Y-24272D01*
X53012Y-24272D02*
X53012Y-24744D01*
X54025Y-24276D02*
X54025Y-24736D01*
X51484Y-24390D02*
X51473Y-24492D01*
X51444Y-24591D01*
X51395Y-24682D01*
X51330Y-24762D01*
X51250Y-24828D01*
X51159Y-24877D01*
X51061Y-24908D01*
X50958Y-24918D01*
X50856Y-24909D01*
X50757Y-24880D01*
X50666Y-24832D01*
X50585Y-24767D01*
X50519Y-24688D01*
X50469Y-24598D01*
X50438Y-24499D01*
X50427Y-24397D01*
X50435Y-24295D01*
X50464Y-24196D01*
X50511Y-24104D01*
X50575Y-24023D01*
X50654Y-23956D01*
X50744Y-23906D01*
X50842Y-23874D01*
X50944Y-23862D01*
X51046Y-23870D01*
X51146Y-23897D01*
X51238Y-23944D01*
X51319Y-24007D01*
X51387Y-24086D01*
X51438Y-24175D01*
X51470Y-24273D01*
X51483Y-24376D01*
X51484Y-24390D01*
X52862Y-23986D02*
X52851Y-24088D01*
X52822Y-24187D01*
X52773Y-24278D01*
X52708Y-24358D01*
X52628Y-24424D01*
X52537Y-24473D01*
X52439Y-24504D01*
X52336Y-24514D01*
X52234Y-24505D01*
X52135Y-24476D01*
X52044Y-24428D01*
X51963Y-24363D01*
X51897Y-24284D01*
X51847Y-24194D01*
X51816Y-24095D01*
X51805Y-23993D01*
X51813Y-23891D01*
X51842Y-23792D01*
X51889Y-23700D01*
X51953Y-23619D01*
X52032Y-23552D01*
X52122Y-23502D01*
X52220Y-23470D01*
X52322Y-23458D01*
X52424Y-23466D01*
X52524Y-23493D01*
X52616Y-23540D01*
X52697Y-23603D01*
X52765Y-23682D01*
X52816Y-23771D01*
X52848Y-23869D01*
X52861Y-23972D01*
X52862Y-23986D01*
X69586Y-30721D02*
X68386Y-30721D01*
X68386Y-30721D02*
X68386Y-30421D01*
X68386Y-30421D02*
X69586Y-30421D01*
X69586Y-30421D02*
X69586Y-30721D01*
X67646Y-31292D02*
X66446Y-31292D01*
X66446Y-31292D02*
X66446Y-30992D01*
X66446Y-30992D02*
X67646Y-30992D01*
X67646Y-30992D02*
X67646Y-31292D01*
X49574Y-20364D02*
X49574Y-19164D01*
X49574Y-19164D02*
X49874Y-19164D01*
X49874Y-19164D02*
X49874Y-20364D01*
X49874Y-20364D02*
X49574Y-20364D01*
X22299Y-28291D02*
X23303Y-28291D01*
X23323Y-27819D02*
X22299Y-27819D01*
X22299Y-27819D02*
X22299Y-28291D01*
X23312Y-27823D02*
X23312Y-28283D01*
X26370Y-28154D02*
X25366Y-28154D01*
X25346Y-28626D02*
X26370Y-28626D01*
X26370Y-28626D02*
X26370Y-28154D01*
X25357Y-28622D02*
X25357Y-28162D01*
X22299Y-28972D02*
X23303Y-28972D01*
X23323Y-28500D02*
X22299Y-28500D01*
X22299Y-28500D02*
X22299Y-28972D01*
X23312Y-28504D02*
X23312Y-28964D01*
X24299Y-29006D02*
X24299Y-27806D01*
X24299Y-27806D02*
X24599Y-27806D01*
X24599Y-27806D02*
X24599Y-29006D01*
X24599Y-29006D02*
X24299Y-29006D01*
X55067Y-18142D02*
X55067Y-19146D01*
X55539Y-19166D02*
X55539Y-18142D01*
X55539Y-18142D02*
X55067Y-18142D01*
X55535Y-19155D02*
X55075Y-19155D01*
X55697Y-18142D02*
X55697Y-19146D01*
X56169Y-19166D02*
X56169Y-18142D01*
X56169Y-18142D02*
X55697Y-18142D01*
X56165Y-19155D02*
X55705Y-19155D01*
X52445Y-16827D02*
X54807Y-16827D01*
X52445Y-18795D02*
X54807Y-18795D01*
X54807Y-16827D02*
X54807Y-18795D01*
X52445Y-18795D02*
X52445Y-16827D01*
X54756Y-15921D02*
X54756Y-14917D01*
X54284Y-14897D02*
X54284Y-15921D01*
X54284Y-15921D02*
X54756Y-15921D01*
X54288Y-14908D02*
X54748Y-14908D01*
X52461Y-29803D02*
X51457Y-29803D01*
X51437Y-30275D02*
X52461Y-30275D01*
X52461Y-30275D02*
X52461Y-29803D01*
X51448Y-30271D02*
X51448Y-29811D01*
G54D10*
X27065Y-15462D02*
X27065Y-15062D01*
X27294Y-15462D02*
X27122Y-15233D01*
X27294Y-15062D02*
X27065Y-15290D01*
X27427Y-15062D02*
X27675Y-15062D01*
X27541Y-15214D01*
X27599Y-15214D01*
X27637Y-15233D01*
X27656Y-15252D01*
X27675Y-15290D01*
X27675Y-15386D01*
X27656Y-15424D01*
X27637Y-15443D01*
X27599Y-15462D01*
X27484Y-15462D01*
X27446Y-15443D01*
X27427Y-15424D01*
G54D11*
X49705Y-31621D02*
X49705Y-31021D01*
X49933Y-31021D01*
X49991Y-31049D01*
X50019Y-31078D01*
X50048Y-31135D01*
X50048Y-31221D01*
X50019Y-31278D01*
X49991Y-31307D01*
X49933Y-31335D01*
X49705Y-31335D01*
X50619Y-31621D02*
X50276Y-31621D01*
X50448Y-31621D02*
X50448Y-31021D01*
X50391Y-31107D01*
X50333Y-31164D01*
X50276Y-31192D01*
X50819Y-31021D02*
X51190Y-31021D01*
X50990Y-31249D01*
X51076Y-31249D01*
X51133Y-31278D01*
X51162Y-31307D01*
X51190Y-31364D01*
X51190Y-31507D01*
X51162Y-31564D01*
X51133Y-31592D01*
X51076Y-31621D01*
X50904Y-31621D01*
X50847Y-31592D01*
X50819Y-31564D01*
X72275Y-31739D02*
X72275Y-31139D01*
X72618Y-31739D02*
X72361Y-31396D01*
X72618Y-31139D02*
X72275Y-31482D01*
X73189Y-31739D02*
X72846Y-31739D01*
X73018Y-31739D02*
X73018Y-31139D01*
X72961Y-31225D01*
X72903Y-31282D01*
X72846Y-31310D01*
X62747Y-30912D02*
X62747Y-30312D01*
X63090Y-30912D02*
X62833Y-30569D01*
X63090Y-30312D02*
X62747Y-30655D01*
X63318Y-30369D02*
X63347Y-30340D01*
X63404Y-30312D01*
X63547Y-30312D01*
X63604Y-30340D01*
X63633Y-30369D01*
X63661Y-30426D01*
X63661Y-30483D01*
X63633Y-30569D01*
X63290Y-30912D01*
X63661Y-30912D01*
X57658Y-11995D02*
X57658Y-11395D01*
X57886Y-11395D01*
X57944Y-11423D01*
X57972Y-11452D01*
X58001Y-11509D01*
X58001Y-11595D01*
X57972Y-11652D01*
X57944Y-11681D01*
X57886Y-11709D01*
X57658Y-11709D01*
X58572Y-11995D02*
X58229Y-11995D01*
X58401Y-11995D02*
X58401Y-11395D01*
X58344Y-11481D01*
X58286Y-11538D01*
X58229Y-11566D01*
X59086Y-11595D02*
X59086Y-11995D01*
X58943Y-11366D02*
X58800Y-11795D01*
X59172Y-11795D01*
G54D15*
X67538Y-26506D02*
X67595Y-26525D01*
X67691Y-26525D01*
X67729Y-26506D01*
X67748Y-26487D01*
X67767Y-26449D01*
X67767Y-26411D01*
X67748Y-26373D01*
X67729Y-26353D01*
X67691Y-26334D01*
X67614Y-26315D01*
X67576Y-26296D01*
X67557Y-26277D01*
X67538Y-26239D01*
X67538Y-26201D01*
X67557Y-26163D01*
X67576Y-26144D01*
X67614Y-26125D01*
X67710Y-26125D01*
X67767Y-26144D01*
X67900Y-26125D02*
X67995Y-26525D01*
X68072Y-26239D01*
X68148Y-26525D01*
X68243Y-26125D01*
X68376Y-26163D02*
X68395Y-26144D01*
X68433Y-26125D01*
X68529Y-26125D01*
X68567Y-26144D01*
X68586Y-26163D01*
X68605Y-26201D01*
X68605Y-26239D01*
X68586Y-26296D01*
X68357Y-26525D01*
X68605Y-26525D01*
X71081Y-22923D02*
X71138Y-22942D01*
X71234Y-22942D01*
X71272Y-22923D01*
X71291Y-22904D01*
X71310Y-22866D01*
X71310Y-22828D01*
X71291Y-22790D01*
X71272Y-22770D01*
X71234Y-22751D01*
X71157Y-22732D01*
X71119Y-22713D01*
X71100Y-22694D01*
X71081Y-22656D01*
X71081Y-22618D01*
X71100Y-22580D01*
X71119Y-22561D01*
X71157Y-22542D01*
X71253Y-22542D01*
X71310Y-22561D01*
X71443Y-22542D02*
X71538Y-22942D01*
X71615Y-22656D01*
X71691Y-22942D01*
X71786Y-22542D01*
X72110Y-22542D02*
X72033Y-22542D01*
X71995Y-22561D01*
X71976Y-22580D01*
X71938Y-22637D01*
X71919Y-22713D01*
X71919Y-22866D01*
X71938Y-22904D01*
X71957Y-22923D01*
X71995Y-22942D01*
X72072Y-22942D01*
X72110Y-22923D01*
X72129Y-22904D01*
X72148Y-22866D01*
X72148Y-22770D01*
X72129Y-22732D01*
X72110Y-22713D01*
X72072Y-22694D01*
X71995Y-22694D01*
X71957Y-22713D01*
X71938Y-22732D01*
X71919Y-22770D01*
X67538Y-19340D02*
X67595Y-19359D01*
X67691Y-19359D01*
X67729Y-19340D01*
X67748Y-19321D01*
X67767Y-19283D01*
X67767Y-19245D01*
X67748Y-19207D01*
X67729Y-19187D01*
X67691Y-19168D01*
X67614Y-19149D01*
X67576Y-19130D01*
X67557Y-19111D01*
X67538Y-19073D01*
X67538Y-19035D01*
X67557Y-18997D01*
X67576Y-18978D01*
X67614Y-18959D01*
X67710Y-18959D01*
X67767Y-18978D01*
X67900Y-18959D02*
X67995Y-19359D01*
X68072Y-19073D01*
X68148Y-19359D01*
X68243Y-18959D01*
X68586Y-18959D02*
X68395Y-18959D01*
X68376Y-19149D01*
X68395Y-19130D01*
X68433Y-19111D01*
X68529Y-19111D01*
X68567Y-19130D01*
X68586Y-19149D01*
X68605Y-19187D01*
X68605Y-19283D01*
X68586Y-19321D01*
X68567Y-19340D01*
X68529Y-19359D01*
X68433Y-19359D01*
X68395Y-19340D01*
X68376Y-19321D01*
G54D11*
X33521Y-15195D02*
X33521Y-14595D01*
X33749Y-14595D01*
X33807Y-14623D01*
X33835Y-14652D01*
X33864Y-14709D01*
X33864Y-14795D01*
X33835Y-14852D01*
X33807Y-14881D01*
X33749Y-14909D01*
X33521Y-14909D01*
X34064Y-14595D02*
X34464Y-14595D01*
X34207Y-15195D01*
X21137Y-15234D02*
X21137Y-14634D01*
X21365Y-14634D01*
X21423Y-14662D01*
X21451Y-14691D01*
X21480Y-14748D01*
X21480Y-14834D01*
X21451Y-14891D01*
X21423Y-14920D01*
X21365Y-14948D01*
X21137Y-14948D01*
X22023Y-14634D02*
X21737Y-14634D01*
X21708Y-14920D01*
X21737Y-14891D01*
X21794Y-14862D01*
X21937Y-14862D01*
X21994Y-14891D01*
X22023Y-14920D01*
X22051Y-14977D01*
X22051Y-15120D01*
X22023Y-15177D01*
X21994Y-15205D01*
X21937Y-15234D01*
X21794Y-15234D01*
X21737Y-15205D01*
X21708Y-15177D01*
X70559Y-14899D02*
X70559Y-14299D01*
X70787Y-14299D01*
X70845Y-14327D01*
X70873Y-14356D01*
X70902Y-14413D01*
X70902Y-14499D01*
X70873Y-14556D01*
X70845Y-14585D01*
X70787Y-14613D01*
X70559Y-14613D01*
X71416Y-14499D02*
X71416Y-14899D01*
X71273Y-14270D02*
X71130Y-14699D01*
X71502Y-14699D01*
X74637Y-17803D02*
X74637Y-17203D01*
X74865Y-17203D01*
X74923Y-17231D01*
X74951Y-17260D01*
X74980Y-17317D01*
X74980Y-17403D01*
X74951Y-17460D01*
X74923Y-17489D01*
X74865Y-17517D01*
X74637Y-17517D01*
X75180Y-17203D02*
X75551Y-17203D01*
X75351Y-17431D01*
X75437Y-17431D01*
X75494Y-17460D01*
X75523Y-17489D01*
X75551Y-17546D01*
X75551Y-17689D01*
X75523Y-17746D01*
X75494Y-17774D01*
X75437Y-17803D01*
X75265Y-17803D01*
X75208Y-17774D01*
X75180Y-17746D01*
X52037Y-15086D02*
X52037Y-14486D01*
X52265Y-14486D01*
X52323Y-14514D01*
X52351Y-14543D01*
X52380Y-14600D01*
X52380Y-14686D01*
X52351Y-14743D01*
X52323Y-14772D01*
X52265Y-14800D01*
X52037Y-14800D01*
X52894Y-14486D02*
X52780Y-14486D01*
X52723Y-14514D01*
X52694Y-14543D01*
X52637Y-14629D01*
X52608Y-14743D01*
X52608Y-14972D01*
X52637Y-15029D01*
X52665Y-15057D01*
X52723Y-15086D01*
X52837Y-15086D01*
X52894Y-15057D01*
X52923Y-15029D01*
X52951Y-14972D01*
X52951Y-14829D01*
X52923Y-14772D01*
X52894Y-14743D01*
X52837Y-14714D01*
X52723Y-14714D01*
X52665Y-14743D01*
X52637Y-14772D01*
X52608Y-14829D01*
X14451Y-17847D02*
X14451Y-17247D01*
X14679Y-17247D01*
X14737Y-17275D01*
X14765Y-17304D01*
X14794Y-17361D01*
X14794Y-17447D01*
X14765Y-17504D01*
X14737Y-17533D01*
X14679Y-17561D01*
X14451Y-17561D01*
X15022Y-17304D02*
X15051Y-17275D01*
X15108Y-17247D01*
X15251Y-17247D01*
X15308Y-17275D01*
X15337Y-17304D01*
X15365Y-17361D01*
X15365Y-17418D01*
X15337Y-17504D01*
X14994Y-17847D01*
X15365Y-17847D01*
G54D13*
X45453Y-13829D02*
X45453Y-13429D01*
X45606Y-13429D01*
X45644Y-13448D01*
X45663Y-13467D01*
X45682Y-13505D01*
X45682Y-13562D01*
X45663Y-13600D01*
X45644Y-13619D01*
X45606Y-13638D01*
X45453Y-13638D01*
X45910Y-13600D02*
X45872Y-13581D01*
X45853Y-13562D01*
X45834Y-13524D01*
X45834Y-13505D01*
X45853Y-13467D01*
X45872Y-13448D01*
X45910Y-13429D01*
X45987Y-13429D01*
X46025Y-13448D01*
X46044Y-13467D01*
X46063Y-13505D01*
X46063Y-13524D01*
X46044Y-13562D01*
X46025Y-13581D01*
X45987Y-13600D01*
X45910Y-13600D01*
X45872Y-13619D01*
X45853Y-13638D01*
X45834Y-13677D01*
X45834Y-13753D01*
X45853Y-13791D01*
X45872Y-13810D01*
X45910Y-13829D01*
X45987Y-13829D01*
X46025Y-13810D01*
X46044Y-13791D01*
X46063Y-13753D01*
X46063Y-13677D01*
X46044Y-13638D01*
X46025Y-13619D01*
X45987Y-13600D01*
G54D16*
X38243Y-15750D02*
X38243Y-16069D01*
X38262Y-16107D01*
X38280Y-16126D01*
X38318Y-16144D01*
X38393Y-16144D01*
X38430Y-16126D01*
X38449Y-16107D01*
X38468Y-16069D01*
X38468Y-15750D01*
X38862Y-16144D02*
X38637Y-16144D01*
X38750Y-16144D02*
X38750Y-15750D01*
X38712Y-15807D01*
X38675Y-15844D01*
X38637Y-15863D01*
G54D13*
X39841Y-28329D02*
X39722Y-28329D01*
X39722Y-28079D01*
X40054Y-28329D02*
X39912Y-28329D01*
X39983Y-28329D02*
X39983Y-28079D01*
X39959Y-28115D01*
X39935Y-28139D01*
X39912Y-28151D01*
G54D16*
X32909Y-15415D02*
X32909Y-15734D01*
X32928Y-15772D01*
X32946Y-15791D01*
X32984Y-15809D01*
X33059Y-15809D01*
X33096Y-15791D01*
X33115Y-15772D01*
X33134Y-15734D01*
X33134Y-15415D01*
X33284Y-15415D02*
X33528Y-15415D01*
X33397Y-15566D01*
X33453Y-15566D01*
X33491Y-15584D01*
X33509Y-15603D01*
X33528Y-15641D01*
X33528Y-15734D01*
X33509Y-15772D01*
X33491Y-15791D01*
X33453Y-15809D01*
X33341Y-15809D01*
X33303Y-15791D01*
X33284Y-15772D01*
G54D15*
X77312Y-27533D02*
X76912Y-27533D01*
X76912Y-27380D01*
X76931Y-27342D01*
X76950Y-27323D01*
X76988Y-27304D01*
X77045Y-27304D01*
X77083Y-27323D01*
X77102Y-27342D01*
X77121Y-27380D01*
X77121Y-27533D01*
X77312Y-26923D02*
X77312Y-27152D01*
X77312Y-27038D02*
X76912Y-27038D01*
X76969Y-27076D01*
X77007Y-27114D01*
X77026Y-27152D01*
G54D13*
X35566Y-17554D02*
X35580Y-17568D01*
X35594Y-17611D01*
X35594Y-17640D01*
X35580Y-17683D01*
X35552Y-17711D01*
X35523Y-17726D01*
X35466Y-17740D01*
X35423Y-17740D01*
X35366Y-17726D01*
X35337Y-17711D01*
X35309Y-17683D01*
X35294Y-17640D01*
X35294Y-17611D01*
X35309Y-17568D01*
X35323Y-17554D01*
X35594Y-17268D02*
X35594Y-17440D01*
X35594Y-17354D02*
X35294Y-17354D01*
X35337Y-17383D01*
X35366Y-17411D01*
X35380Y-17440D01*
X35323Y-17154D02*
X35309Y-17140D01*
X35294Y-17111D01*
X35294Y-17040D01*
X35309Y-17011D01*
X35323Y-16997D01*
X35352Y-16982D01*
X35380Y-16982D01*
X35423Y-16997D01*
X35594Y-17168D01*
X35594Y-16982D01*
X38434Y-19778D02*
X38420Y-19792D01*
X38377Y-19806D01*
X38348Y-19806D01*
X38305Y-19792D01*
X38277Y-19764D01*
X38262Y-19735D01*
X38248Y-19678D01*
X38248Y-19635D01*
X38262Y-19578D01*
X38277Y-19549D01*
X38305Y-19521D01*
X38348Y-19506D01*
X38377Y-19506D01*
X38420Y-19521D01*
X38434Y-19535D01*
X38720Y-19806D02*
X38548Y-19806D01*
X38634Y-19806D02*
X38634Y-19506D01*
X38605Y-19549D01*
X38577Y-19578D01*
X38548Y-19592D01*
G54D15*
X46285Y-24529D02*
X45785Y-24529D01*
X46285Y-24029D02*
X46285Y-24315D01*
X46285Y-24172D02*
X45785Y-24172D01*
X45857Y-24220D01*
X45904Y-24267D01*
X45928Y-24315D01*
G54D13*
X20129Y-31417D02*
X20453Y-31417D01*
X20491Y-31395D01*
X20510Y-31374D01*
X20529Y-31331D01*
X20529Y-31245D01*
X20510Y-31203D01*
X20491Y-31181D01*
X20453Y-31160D01*
X20129Y-31160D01*
X20167Y-30967D02*
X20148Y-30946D01*
X20129Y-30903D01*
X20129Y-30796D01*
X20148Y-30753D01*
X20167Y-30732D01*
X20205Y-30710D01*
X20243Y-30710D01*
X20300Y-30732D01*
X20529Y-30989D01*
X20529Y-30710D01*
X39018Y-31576D02*
X39018Y-31695D01*
X38768Y-31695D01*
X38792Y-31505D02*
X38780Y-31493D01*
X38768Y-31470D01*
X38768Y-31410D01*
X38780Y-31386D01*
X38792Y-31374D01*
X38816Y-31363D01*
X38840Y-31363D01*
X38875Y-31374D01*
X39018Y-31517D01*
X39018Y-31363D01*
G54D17*
X37671Y-26757D02*
X37664Y-26769D01*
X37641Y-26780D01*
X37626Y-26780D01*
X37604Y-26769D01*
X37589Y-26746D01*
X37581Y-26723D01*
X37574Y-26677D01*
X37574Y-26642D01*
X37581Y-26596D01*
X37589Y-26573D01*
X37604Y-26551D01*
X37626Y-26539D01*
X37641Y-26539D01*
X37664Y-26551D01*
X37671Y-26562D01*
X37731Y-26562D02*
X37738Y-26551D01*
X37753Y-26539D01*
X37791Y-26539D01*
X37806Y-26551D01*
X37813Y-26562D01*
X37821Y-26585D01*
X37821Y-26608D01*
X37813Y-26642D01*
X37723Y-26780D01*
X37821Y-26780D01*
X37671Y-26107D02*
X37664Y-26119D01*
X37641Y-26130D01*
X37626Y-26130D01*
X37604Y-26119D01*
X37589Y-26096D01*
X37581Y-26073D01*
X37574Y-26027D01*
X37574Y-25992D01*
X37581Y-25946D01*
X37589Y-25923D01*
X37604Y-25901D01*
X37626Y-25889D01*
X37641Y-25889D01*
X37664Y-25901D01*
X37671Y-25912D01*
X37723Y-25889D02*
X37821Y-25889D01*
X37768Y-25981D01*
X37791Y-25981D01*
X37806Y-25992D01*
X37813Y-26004D01*
X37821Y-26027D01*
X37821Y-26084D01*
X37813Y-26107D01*
X37806Y-26119D01*
X37791Y-26130D01*
X37746Y-26130D01*
X37731Y-26119D01*
X37723Y-26107D01*
X37671Y-24139D02*
X37664Y-24151D01*
X37641Y-24162D01*
X37626Y-24162D01*
X37604Y-24151D01*
X37589Y-24128D01*
X37581Y-24105D01*
X37574Y-24059D01*
X37574Y-24024D01*
X37581Y-23978D01*
X37589Y-23955D01*
X37604Y-23933D01*
X37626Y-23921D01*
X37641Y-23921D01*
X37664Y-23933D01*
X37671Y-23944D01*
X37806Y-24001D02*
X37806Y-24162D01*
X37768Y-23910D02*
X37731Y-24082D01*
X37828Y-24082D01*
X37671Y-22830D02*
X37664Y-22842D01*
X37641Y-22853D01*
X37626Y-22853D01*
X37604Y-22842D01*
X37589Y-22819D01*
X37581Y-22796D01*
X37574Y-22750D01*
X37574Y-22715D01*
X37581Y-22669D01*
X37589Y-22646D01*
X37604Y-22624D01*
X37626Y-22612D01*
X37641Y-22612D01*
X37664Y-22624D01*
X37671Y-22635D01*
X37813Y-22612D02*
X37738Y-22612D01*
X37731Y-22727D01*
X37738Y-22715D01*
X37753Y-22704D01*
X37791Y-22704D01*
X37806Y-22715D01*
X37813Y-22727D01*
X37821Y-22750D01*
X37821Y-22807D01*
X37813Y-22830D01*
X37806Y-22842D01*
X37791Y-22853D01*
X37753Y-22853D01*
X37738Y-22842D01*
X37731Y-22830D01*
X38793Y-18893D02*
X38786Y-18905D01*
X38763Y-18916D01*
X38748Y-18916D01*
X38726Y-18905D01*
X38711Y-18882D01*
X38703Y-18859D01*
X38696Y-18813D01*
X38696Y-18778D01*
X38703Y-18732D01*
X38711Y-18709D01*
X38726Y-18687D01*
X38748Y-18675D01*
X38763Y-18675D01*
X38786Y-18687D01*
X38793Y-18698D01*
X38928Y-18675D02*
X38898Y-18675D01*
X38883Y-18687D01*
X38875Y-18698D01*
X38860Y-18732D01*
X38853Y-18778D01*
X38853Y-18870D01*
X38860Y-18893D01*
X38868Y-18905D01*
X38883Y-18916D01*
X38913Y-18916D01*
X38928Y-18905D01*
X38935Y-18893D01*
X38943Y-18870D01*
X38943Y-18813D01*
X38935Y-18790D01*
X38928Y-18778D01*
X38913Y-18767D01*
X38883Y-18767D01*
X38868Y-18778D01*
X38860Y-18790D01*
X38853Y-18813D01*
X37671Y-25458D02*
X37664Y-25470D01*
X37641Y-25481D01*
X37626Y-25481D01*
X37604Y-25470D01*
X37589Y-25447D01*
X37581Y-25424D01*
X37574Y-25378D01*
X37574Y-25343D01*
X37581Y-25297D01*
X37589Y-25274D01*
X37604Y-25252D01*
X37626Y-25240D01*
X37641Y-25240D01*
X37664Y-25252D01*
X37671Y-25263D01*
X37723Y-25240D02*
X37828Y-25240D01*
X37761Y-25481D01*
X37671Y-24798D02*
X37664Y-24810D01*
X37641Y-24821D01*
X37626Y-24821D01*
X37604Y-24810D01*
X37589Y-24787D01*
X37581Y-24764D01*
X37574Y-24718D01*
X37574Y-24683D01*
X37581Y-24637D01*
X37589Y-24614D01*
X37604Y-24592D01*
X37626Y-24580D01*
X37641Y-24580D01*
X37664Y-24592D01*
X37671Y-24603D01*
X37761Y-24683D02*
X37746Y-24672D01*
X37738Y-24660D01*
X37731Y-24637D01*
X37731Y-24626D01*
X37738Y-24603D01*
X37746Y-24592D01*
X37761Y-24580D01*
X37791Y-24580D01*
X37806Y-24592D01*
X37813Y-24603D01*
X37821Y-24626D01*
X37821Y-24637D01*
X37813Y-24660D01*
X37806Y-24672D01*
X37791Y-24683D01*
X37761Y-24683D01*
X37746Y-24695D01*
X37738Y-24706D01*
X37731Y-24729D01*
X37731Y-24775D01*
X37738Y-24798D01*
X37746Y-24810D01*
X37761Y-24821D01*
X37791Y-24821D01*
X37806Y-24810D01*
X37813Y-24798D01*
X37821Y-24775D01*
X37821Y-24729D01*
X37813Y-24706D01*
X37806Y-24695D01*
X37791Y-24683D01*
X37671Y-23480D02*
X37664Y-23492D01*
X37641Y-23503D01*
X37626Y-23503D01*
X37604Y-23492D01*
X37589Y-23469D01*
X37581Y-23446D01*
X37574Y-23400D01*
X37574Y-23365D01*
X37581Y-23319D01*
X37589Y-23296D01*
X37604Y-23274D01*
X37626Y-23262D01*
X37641Y-23262D01*
X37664Y-23274D01*
X37671Y-23285D01*
X37746Y-23503D02*
X37776Y-23503D01*
X37791Y-23492D01*
X37798Y-23480D01*
X37813Y-23446D01*
X37821Y-23400D01*
X37821Y-23308D01*
X37813Y-23285D01*
X37806Y-23274D01*
X37791Y-23262D01*
X37761Y-23262D01*
X37746Y-23274D01*
X37738Y-23285D01*
X37731Y-23308D01*
X37731Y-23365D01*
X37738Y-23388D01*
X37746Y-23400D01*
X37761Y-23411D01*
X37791Y-23411D01*
X37806Y-23400D01*
X37813Y-23388D01*
X37821Y-23365D01*
X37636Y-21688D02*
X37629Y-21700D01*
X37606Y-21711D01*
X37591Y-21711D01*
X37569Y-21700D01*
X37554Y-21677D01*
X37546Y-21654D01*
X37539Y-21608D01*
X37539Y-21573D01*
X37546Y-21527D01*
X37554Y-21504D01*
X37569Y-21482D01*
X37591Y-21470D01*
X37606Y-21470D01*
X37629Y-21482D01*
X37636Y-21493D01*
X37786Y-21711D02*
X37696Y-21711D01*
X37741Y-21711D02*
X37741Y-21470D01*
X37726Y-21504D01*
X37711Y-21527D01*
X37696Y-21539D01*
X37883Y-21470D02*
X37898Y-21470D01*
X37913Y-21482D01*
X37921Y-21493D01*
X37928Y-21516D01*
X37936Y-21562D01*
X37936Y-21619D01*
X37928Y-21665D01*
X37921Y-21688D01*
X37913Y-21700D01*
X37898Y-21711D01*
X37883Y-21711D01*
X37868Y-21700D01*
X37861Y-21688D01*
X37853Y-21665D01*
X37846Y-21619D01*
X37846Y-21562D01*
X37853Y-21516D01*
X37861Y-21493D01*
X37868Y-21482D01*
X37883Y-21470D01*
X53069Y-28539D02*
X53062Y-28551D01*
X53039Y-28562D01*
X53024Y-28562D01*
X53002Y-28551D01*
X52987Y-28528D01*
X52979Y-28505D01*
X52972Y-28459D01*
X52972Y-28424D01*
X52979Y-28378D01*
X52987Y-28355D01*
X53002Y-28333D01*
X53024Y-28321D01*
X53039Y-28321D01*
X53062Y-28333D01*
X53069Y-28344D01*
X53219Y-28562D02*
X53129Y-28562D01*
X53174Y-28562D02*
X53174Y-28321D01*
X53159Y-28355D01*
X53144Y-28378D01*
X53129Y-28390D01*
X53271Y-28321D02*
X53369Y-28321D01*
X53316Y-28413D01*
X53339Y-28413D01*
X53354Y-28424D01*
X53361Y-28436D01*
X53369Y-28459D01*
X53369Y-28516D01*
X53361Y-28539D01*
X53354Y-28551D01*
X53339Y-28562D01*
X53294Y-28562D01*
X53279Y-28551D01*
X53271Y-28539D01*
X51651Y-28539D02*
X51644Y-28551D01*
X51621Y-28562D01*
X51606Y-28562D01*
X51584Y-28551D01*
X51569Y-28528D01*
X51561Y-28505D01*
X51554Y-28459D01*
X51554Y-28424D01*
X51561Y-28378D01*
X51569Y-28355D01*
X51584Y-28333D01*
X51606Y-28321D01*
X51621Y-28321D01*
X51644Y-28333D01*
X51651Y-28344D01*
X51801Y-28562D02*
X51711Y-28562D01*
X51756Y-28562D02*
X51756Y-28321D01*
X51741Y-28355D01*
X51726Y-28378D01*
X51711Y-28390D01*
X51936Y-28401D02*
X51936Y-28562D01*
X51898Y-28310D02*
X51861Y-28482D01*
X51958Y-28482D01*
X36728Y-17836D02*
X36740Y-17843D01*
X36751Y-17866D01*
X36751Y-17881D01*
X36740Y-17903D01*
X36717Y-17918D01*
X36694Y-17926D01*
X36648Y-17933D01*
X36613Y-17933D01*
X36567Y-17926D01*
X36544Y-17918D01*
X36522Y-17903D01*
X36510Y-17881D01*
X36510Y-17866D01*
X36522Y-17843D01*
X36533Y-17836D01*
X36751Y-17686D02*
X36751Y-17776D01*
X36751Y-17731D02*
X36510Y-17731D01*
X36544Y-17746D01*
X36567Y-17761D01*
X36579Y-17776D01*
X36510Y-17544D02*
X36510Y-17619D01*
X36625Y-17626D01*
X36613Y-17619D01*
X36602Y-17604D01*
X36602Y-17566D01*
X36613Y-17551D01*
X36625Y-17544D01*
X36648Y-17536D01*
X36705Y-17536D01*
X36728Y-17544D01*
X36740Y-17551D01*
X36751Y-17566D01*
X36751Y-17604D01*
X36740Y-17619D01*
X36728Y-17626D01*
X39762Y-29011D02*
X39755Y-29023D01*
X39732Y-29034D01*
X39717Y-29034D01*
X39695Y-29023D01*
X39680Y-29000D01*
X39672Y-28977D01*
X39665Y-28931D01*
X39665Y-28896D01*
X39672Y-28850D01*
X39680Y-28827D01*
X39695Y-28805D01*
X39717Y-28793D01*
X39732Y-28793D01*
X39755Y-28805D01*
X39762Y-28816D01*
X39912Y-29034D02*
X39822Y-29034D01*
X39867Y-29034D02*
X39867Y-28793D01*
X39852Y-28827D01*
X39837Y-28850D01*
X39822Y-28862D01*
X39964Y-28793D02*
X40069Y-28793D01*
X40002Y-29034D01*
X24523Y-32287D02*
X24535Y-32294D01*
X24546Y-32317D01*
X24546Y-32332D01*
X24535Y-32354D01*
X24512Y-32369D01*
X24489Y-32377D01*
X24443Y-32384D01*
X24408Y-32384D01*
X24362Y-32377D01*
X24339Y-32369D01*
X24317Y-32354D01*
X24305Y-32332D01*
X24305Y-32317D01*
X24317Y-32294D01*
X24328Y-32287D01*
X24546Y-32137D02*
X24546Y-32227D01*
X24546Y-32182D02*
X24305Y-32182D01*
X24339Y-32197D01*
X24362Y-32212D01*
X24374Y-32227D01*
X24408Y-32047D02*
X24397Y-32062D01*
X24385Y-32070D01*
X24362Y-32077D01*
X24351Y-32077D01*
X24328Y-32070D01*
X24317Y-32062D01*
X24305Y-32047D01*
X24305Y-32017D01*
X24317Y-32002D01*
X24328Y-31995D01*
X24351Y-31987D01*
X24362Y-31987D01*
X24385Y-31995D01*
X24397Y-32002D01*
X24408Y-32017D01*
X24408Y-32047D01*
X24420Y-32062D01*
X24431Y-32070D01*
X24454Y-32077D01*
X24500Y-32077D01*
X24523Y-32070D01*
X24535Y-32062D01*
X24546Y-32047D01*
X24546Y-32017D01*
X24535Y-32002D01*
X24523Y-31995D01*
X24500Y-31987D01*
X24454Y-31987D01*
X24431Y-31995D01*
X24420Y-32002D01*
X24408Y-32017D01*
X52281Y-19523D02*
X52274Y-19535D01*
X52251Y-19546D01*
X52236Y-19546D01*
X52214Y-19535D01*
X52199Y-19512D01*
X52191Y-19489D01*
X52184Y-19443D01*
X52184Y-19408D01*
X52191Y-19362D01*
X52199Y-19339D01*
X52214Y-19317D01*
X52236Y-19305D01*
X52251Y-19305D01*
X52274Y-19317D01*
X52281Y-19328D01*
X52431Y-19546D02*
X52341Y-19546D01*
X52386Y-19546D02*
X52386Y-19305D01*
X52371Y-19339D01*
X52356Y-19362D01*
X52341Y-19374D01*
X52506Y-19546D02*
X52536Y-19546D01*
X52551Y-19535D01*
X52558Y-19523D01*
X52573Y-19489D01*
X52581Y-19443D01*
X52581Y-19351D01*
X52573Y-19328D01*
X52566Y-19317D01*
X52551Y-19305D01*
X52521Y-19305D01*
X52506Y-19317D01*
X52498Y-19328D01*
X52491Y-19351D01*
X52491Y-19408D01*
X52498Y-19431D01*
X52506Y-19443D01*
X52521Y-19454D01*
X52551Y-19454D01*
X52566Y-19443D01*
X52573Y-19431D01*
X52581Y-19408D01*
X39604Y-27397D02*
X39597Y-27409D01*
X39574Y-27420D01*
X39559Y-27420D01*
X39537Y-27409D01*
X39522Y-27386D01*
X39514Y-27363D01*
X39507Y-27317D01*
X39507Y-27282D01*
X39514Y-27236D01*
X39522Y-27213D01*
X39537Y-27191D01*
X39559Y-27179D01*
X39574Y-27179D01*
X39597Y-27191D01*
X39604Y-27202D01*
X39664Y-27202D02*
X39671Y-27191D01*
X39686Y-27179D01*
X39724Y-27179D01*
X39739Y-27191D01*
X39746Y-27202D01*
X39754Y-27225D01*
X39754Y-27248D01*
X39746Y-27282D01*
X39656Y-27420D01*
X39754Y-27420D01*
X39851Y-27179D02*
X39866Y-27179D01*
X39881Y-27191D01*
X39889Y-27202D01*
X39896Y-27225D01*
X39904Y-27271D01*
X39904Y-27328D01*
X39896Y-27374D01*
X39889Y-27397D01*
X39881Y-27409D01*
X39866Y-27420D01*
X39851Y-27420D01*
X39836Y-27409D01*
X39829Y-27397D01*
X39821Y-27374D01*
X39814Y-27328D01*
X39814Y-27271D01*
X39821Y-27225D01*
X39829Y-27202D01*
X39836Y-27191D01*
X39851Y-27179D01*
X36964Y-16182D02*
X36976Y-16189D01*
X36987Y-16212D01*
X36987Y-16227D01*
X36976Y-16249D01*
X36953Y-16264D01*
X36930Y-16272D01*
X36884Y-16279D01*
X36849Y-16279D01*
X36803Y-16272D01*
X36780Y-16264D01*
X36758Y-16249D01*
X36746Y-16227D01*
X36746Y-16212D01*
X36758Y-16189D01*
X36769Y-16182D01*
X36769Y-16122D02*
X36758Y-16115D01*
X36746Y-16100D01*
X36746Y-16062D01*
X36758Y-16047D01*
X36769Y-16040D01*
X36792Y-16032D01*
X36815Y-16032D01*
X36849Y-16040D01*
X36987Y-16130D01*
X36987Y-16032D01*
X36987Y-15882D02*
X36987Y-15972D01*
X36987Y-15927D02*
X36746Y-15927D01*
X36780Y-15942D01*
X36803Y-15957D01*
X36815Y-15972D01*
X33384Y-22357D02*
X33377Y-22369D01*
X33354Y-22380D01*
X33339Y-22380D01*
X33317Y-22369D01*
X33302Y-22346D01*
X33294Y-22323D01*
X33287Y-22277D01*
X33287Y-22242D01*
X33294Y-22196D01*
X33302Y-22173D01*
X33317Y-22151D01*
X33339Y-22139D01*
X33354Y-22139D01*
X33377Y-22151D01*
X33384Y-22162D01*
X33444Y-22162D02*
X33451Y-22151D01*
X33466Y-22139D01*
X33504Y-22139D01*
X33519Y-22151D01*
X33526Y-22162D01*
X33534Y-22185D01*
X33534Y-22208D01*
X33526Y-22242D01*
X33436Y-22380D01*
X33534Y-22380D01*
X33594Y-22162D02*
X33601Y-22151D01*
X33616Y-22139D01*
X33654Y-22139D01*
X33669Y-22151D01*
X33676Y-22162D01*
X33684Y-22185D01*
X33684Y-22208D01*
X33676Y-22242D01*
X33586Y-22380D01*
X33684Y-22380D01*
X39995Y-32050D02*
X40007Y-32057D01*
X40018Y-32080D01*
X40018Y-32095D01*
X40007Y-32117D01*
X39984Y-32132D01*
X39961Y-32140D01*
X39915Y-32147D01*
X39880Y-32147D01*
X39834Y-32140D01*
X39811Y-32132D01*
X39789Y-32117D01*
X39777Y-32095D01*
X39777Y-32080D01*
X39789Y-32057D01*
X39800Y-32050D01*
X39800Y-31990D02*
X39789Y-31983D01*
X39777Y-31968D01*
X39777Y-31930D01*
X39789Y-31915D01*
X39800Y-31908D01*
X39823Y-31900D01*
X39846Y-31900D01*
X39880Y-31908D01*
X40018Y-31998D01*
X40018Y-31900D01*
X39777Y-31848D02*
X39777Y-31750D01*
X39869Y-31803D01*
X39869Y-31780D01*
X39880Y-31765D01*
X39892Y-31758D01*
X39915Y-31750D01*
X39972Y-31750D01*
X39995Y-31758D01*
X40007Y-31765D01*
X40018Y-31780D01*
X40018Y-31825D01*
X40007Y-31840D01*
X39995Y-31848D01*
X40625Y-32050D02*
X40637Y-32057D01*
X40648Y-32080D01*
X40648Y-32095D01*
X40637Y-32117D01*
X40614Y-32132D01*
X40591Y-32140D01*
X40545Y-32147D01*
X40510Y-32147D01*
X40464Y-32140D01*
X40441Y-32132D01*
X40419Y-32117D01*
X40407Y-32095D01*
X40407Y-32080D01*
X40419Y-32057D01*
X40430Y-32050D01*
X40430Y-31990D02*
X40419Y-31983D01*
X40407Y-31968D01*
X40407Y-31930D01*
X40419Y-31915D01*
X40430Y-31908D01*
X40453Y-31900D01*
X40476Y-31900D01*
X40510Y-31908D01*
X40648Y-31998D01*
X40648Y-31900D01*
X40487Y-31765D02*
X40648Y-31765D01*
X40396Y-31803D02*
X40568Y-31840D01*
X40568Y-31743D01*
X50586Y-32325D02*
X50598Y-32332D01*
X50609Y-32355D01*
X50609Y-32370D01*
X50598Y-32392D01*
X50575Y-32407D01*
X50552Y-32415D01*
X50506Y-32422D01*
X50471Y-32422D01*
X50425Y-32415D01*
X50402Y-32407D01*
X50380Y-32392D01*
X50368Y-32370D01*
X50368Y-32355D01*
X50380Y-32332D01*
X50391Y-32325D01*
X50391Y-32265D02*
X50380Y-32258D01*
X50368Y-32243D01*
X50368Y-32205D01*
X50380Y-32190D01*
X50391Y-32183D01*
X50414Y-32175D01*
X50437Y-32175D01*
X50471Y-32183D01*
X50609Y-32273D01*
X50609Y-32175D01*
X50368Y-32033D02*
X50368Y-32108D01*
X50483Y-32115D01*
X50471Y-32108D01*
X50460Y-32093D01*
X50460Y-32055D01*
X50471Y-32040D01*
X50483Y-32033D01*
X50506Y-32025D01*
X50563Y-32025D01*
X50586Y-32033D01*
X50598Y-32040D01*
X50609Y-32055D01*
X50609Y-32093D01*
X50598Y-32108D01*
X50586Y-32115D01*
X33384Y-21767D02*
X33377Y-21779D01*
X33354Y-21790D01*
X33339Y-21790D01*
X33317Y-21779D01*
X33302Y-21756D01*
X33294Y-21733D01*
X33287Y-21687D01*
X33287Y-21652D01*
X33294Y-21606D01*
X33302Y-21583D01*
X33317Y-21561D01*
X33339Y-21549D01*
X33354Y-21549D01*
X33377Y-21561D01*
X33384Y-21572D01*
X33444Y-21572D02*
X33451Y-21561D01*
X33466Y-21549D01*
X33504Y-21549D01*
X33519Y-21561D01*
X33526Y-21572D01*
X33534Y-21595D01*
X33534Y-21618D01*
X33526Y-21652D01*
X33436Y-21790D01*
X33534Y-21790D01*
X33669Y-21549D02*
X33639Y-21549D01*
X33624Y-21561D01*
X33616Y-21572D01*
X33601Y-21606D01*
X33594Y-21652D01*
X33594Y-21744D01*
X33601Y-21767D01*
X33609Y-21779D01*
X33624Y-21790D01*
X33654Y-21790D01*
X33669Y-21779D01*
X33676Y-21767D01*
X33684Y-21744D01*
X33684Y-21687D01*
X33676Y-21664D01*
X33669Y-21652D01*
X33654Y-21641D01*
X33624Y-21641D01*
X33609Y-21652D01*
X33601Y-21664D01*
X33594Y-21687D01*
X53443Y-20822D02*
X53436Y-20834D01*
X53413Y-20845D01*
X53398Y-20845D01*
X53376Y-20834D01*
X53361Y-20811D01*
X53353Y-20788D01*
X53346Y-20742D01*
X53346Y-20707D01*
X53353Y-20661D01*
X53361Y-20638D01*
X53376Y-20616D01*
X53398Y-20604D01*
X53413Y-20604D01*
X53436Y-20616D01*
X53443Y-20627D01*
X53503Y-20627D02*
X53510Y-20616D01*
X53525Y-20604D01*
X53563Y-20604D01*
X53578Y-20616D01*
X53585Y-20627D01*
X53593Y-20650D01*
X53593Y-20673D01*
X53585Y-20707D01*
X53495Y-20845D01*
X53593Y-20845D01*
X53645Y-20604D02*
X53750Y-20604D01*
X53683Y-20845D01*
X41255Y-32050D02*
X41267Y-32057D01*
X41278Y-32080D01*
X41278Y-32095D01*
X41267Y-32117D01*
X41244Y-32132D01*
X41221Y-32140D01*
X41175Y-32147D01*
X41140Y-32147D01*
X41094Y-32140D01*
X41071Y-32132D01*
X41049Y-32117D01*
X41037Y-32095D01*
X41037Y-32080D01*
X41049Y-32057D01*
X41060Y-32050D01*
X41060Y-31990D02*
X41049Y-31983D01*
X41037Y-31968D01*
X41037Y-31930D01*
X41049Y-31915D01*
X41060Y-31908D01*
X41083Y-31900D01*
X41106Y-31900D01*
X41140Y-31908D01*
X41278Y-31998D01*
X41278Y-31900D01*
X41140Y-31810D02*
X41129Y-31825D01*
X41117Y-31833D01*
X41094Y-31840D01*
X41083Y-31840D01*
X41060Y-31833D01*
X41049Y-31825D01*
X41037Y-31810D01*
X41037Y-31780D01*
X41049Y-31765D01*
X41060Y-31758D01*
X41083Y-31750D01*
X41094Y-31750D01*
X41117Y-31758D01*
X41129Y-31765D01*
X41140Y-31780D01*
X41140Y-31810D01*
X41152Y-31825D01*
X41163Y-31833D01*
X41186Y-31840D01*
X41232Y-31840D01*
X41255Y-31833D01*
X41267Y-31825D01*
X41278Y-31810D01*
X41278Y-31780D01*
X41267Y-31765D01*
X41255Y-31758D01*
X41232Y-31750D01*
X41186Y-31750D01*
X41163Y-31758D01*
X41152Y-31765D01*
X41140Y-31780D01*
X41885Y-32050D02*
X41897Y-32057D01*
X41908Y-32080D01*
X41908Y-32095D01*
X41897Y-32117D01*
X41874Y-32132D01*
X41851Y-32140D01*
X41805Y-32147D01*
X41770Y-32147D01*
X41724Y-32140D01*
X41701Y-32132D01*
X41679Y-32117D01*
X41667Y-32095D01*
X41667Y-32080D01*
X41679Y-32057D01*
X41690Y-32050D01*
X41690Y-31990D02*
X41679Y-31983D01*
X41667Y-31968D01*
X41667Y-31930D01*
X41679Y-31915D01*
X41690Y-31908D01*
X41713Y-31900D01*
X41736Y-31900D01*
X41770Y-31908D01*
X41908Y-31998D01*
X41908Y-31900D01*
X41908Y-31825D02*
X41908Y-31795D01*
X41897Y-31780D01*
X41885Y-31773D01*
X41851Y-31758D01*
X41805Y-31750D01*
X41713Y-31750D01*
X41690Y-31758D01*
X41679Y-31765D01*
X41667Y-31780D01*
X41667Y-31810D01*
X41679Y-31825D01*
X41690Y-31833D01*
X41713Y-31840D01*
X41770Y-31840D01*
X41793Y-31833D01*
X41805Y-31825D01*
X41816Y-31810D01*
X41816Y-31780D01*
X41805Y-31765D01*
X41793Y-31758D01*
X41770Y-31750D01*
X46216Y-17050D02*
X46228Y-17057D01*
X46239Y-17080D01*
X46239Y-17095D01*
X46228Y-17117D01*
X46205Y-17132D01*
X46182Y-17140D01*
X46136Y-17147D01*
X46101Y-17147D01*
X46055Y-17140D01*
X46032Y-17132D01*
X46010Y-17117D01*
X45998Y-17095D01*
X45998Y-17080D01*
X46010Y-17057D01*
X46021Y-17050D01*
X46078Y-16915D02*
X46239Y-16915D01*
X45987Y-16953D02*
X46159Y-16990D01*
X46159Y-16893D01*
X46078Y-16765D02*
X46239Y-16765D01*
X45987Y-16803D02*
X46159Y-16840D01*
X46159Y-16743D01*
X44325Y-17050D02*
X44337Y-17057D01*
X44348Y-17080D01*
X44348Y-17095D01*
X44337Y-17117D01*
X44314Y-17132D01*
X44291Y-17140D01*
X44245Y-17147D01*
X44210Y-17147D01*
X44164Y-17140D01*
X44141Y-17132D01*
X44119Y-17117D01*
X44107Y-17095D01*
X44107Y-17080D01*
X44119Y-17057D01*
X44130Y-17050D01*
X44187Y-16915D02*
X44348Y-16915D01*
X44096Y-16953D02*
X44268Y-16990D01*
X44268Y-16893D01*
X44107Y-16758D02*
X44107Y-16833D01*
X44222Y-16840D01*
X44210Y-16833D01*
X44199Y-16818D01*
X44199Y-16780D01*
X44210Y-16765D01*
X44222Y-16758D01*
X44245Y-16750D01*
X44302Y-16750D01*
X44325Y-16758D01*
X44337Y-16765D01*
X44348Y-16780D01*
X44348Y-16818D01*
X44337Y-16833D01*
X44325Y-16840D01*
X43027Y-17050D02*
X43039Y-17057D01*
X43050Y-17080D01*
X43050Y-17095D01*
X43039Y-17117D01*
X43016Y-17132D01*
X42993Y-17140D01*
X42947Y-17147D01*
X42912Y-17147D01*
X42866Y-17140D01*
X42843Y-17132D01*
X42821Y-17117D01*
X42809Y-17095D01*
X42809Y-17080D01*
X42821Y-17057D01*
X42832Y-17050D01*
X42889Y-16915D02*
X43050Y-16915D01*
X42798Y-16953D02*
X42970Y-16990D01*
X42970Y-16893D01*
X42809Y-16765D02*
X42809Y-16795D01*
X42821Y-16810D01*
X42832Y-16818D01*
X42866Y-16833D01*
X42912Y-16840D01*
X43004Y-16840D01*
X43027Y-16833D01*
X43039Y-16825D01*
X43050Y-16810D01*
X43050Y-16780D01*
X43039Y-16765D01*
X43027Y-16758D01*
X43004Y-16750D01*
X42947Y-16750D01*
X42924Y-16758D01*
X42912Y-16765D01*
X42901Y-16780D01*
X42901Y-16810D01*
X42912Y-16825D01*
X42924Y-16833D01*
X42947Y-16840D01*
X41924Y-17050D02*
X41936Y-17057D01*
X41947Y-17080D01*
X41947Y-17095D01*
X41936Y-17117D01*
X41913Y-17132D01*
X41890Y-17140D01*
X41844Y-17147D01*
X41809Y-17147D01*
X41763Y-17140D01*
X41740Y-17132D01*
X41718Y-17117D01*
X41706Y-17095D01*
X41706Y-17080D01*
X41718Y-17057D01*
X41729Y-17050D01*
X41786Y-16915D02*
X41947Y-16915D01*
X41695Y-16953D02*
X41867Y-16990D01*
X41867Y-16893D01*
X41706Y-16848D02*
X41706Y-16743D01*
X41947Y-16810D01*
X43578Y-17050D02*
X43590Y-17057D01*
X43601Y-17080D01*
X43601Y-17095D01*
X43590Y-17117D01*
X43567Y-17132D01*
X43544Y-17140D01*
X43498Y-17147D01*
X43463Y-17147D01*
X43417Y-17140D01*
X43394Y-17132D01*
X43372Y-17117D01*
X43360Y-17095D01*
X43360Y-17080D01*
X43372Y-17057D01*
X43383Y-17050D01*
X43440Y-16915D02*
X43601Y-16915D01*
X43349Y-16953D02*
X43521Y-16990D01*
X43521Y-16893D01*
X43463Y-16810D02*
X43452Y-16825D01*
X43440Y-16833D01*
X43417Y-16840D01*
X43406Y-16840D01*
X43383Y-16833D01*
X43372Y-16825D01*
X43360Y-16810D01*
X43360Y-16780D01*
X43372Y-16765D01*
X43383Y-16758D01*
X43406Y-16750D01*
X43417Y-16750D01*
X43440Y-16758D01*
X43452Y-16765D01*
X43463Y-16780D01*
X43463Y-16810D01*
X43475Y-16825D01*
X43486Y-16833D01*
X43509Y-16840D01*
X43555Y-16840D01*
X43578Y-16833D01*
X43590Y-16825D01*
X43601Y-16810D01*
X43601Y-16780D01*
X43590Y-16765D01*
X43578Y-16758D01*
X43555Y-16750D01*
X43509Y-16750D01*
X43486Y-16758D01*
X43475Y-16765D01*
X43463Y-16780D01*
X42476Y-17050D02*
X42488Y-17057D01*
X42499Y-17080D01*
X42499Y-17095D01*
X42488Y-17117D01*
X42465Y-17132D01*
X42442Y-17140D01*
X42396Y-17147D01*
X42361Y-17147D01*
X42315Y-17140D01*
X42292Y-17132D01*
X42270Y-17117D01*
X42258Y-17095D01*
X42258Y-17080D01*
X42270Y-17057D01*
X42281Y-17050D01*
X42338Y-16915D02*
X42499Y-16915D01*
X42247Y-16953D02*
X42419Y-16990D01*
X42419Y-16893D01*
X42499Y-16825D02*
X42499Y-16795D01*
X42488Y-16780D01*
X42476Y-16773D01*
X42442Y-16758D01*
X42396Y-16750D01*
X42304Y-16750D01*
X42281Y-16758D01*
X42270Y-16765D01*
X42258Y-16780D01*
X42258Y-16810D01*
X42270Y-16825D01*
X42281Y-16833D01*
X42304Y-16840D01*
X42361Y-16840D01*
X42384Y-16833D01*
X42396Y-16825D01*
X42407Y-16810D01*
X42407Y-16780D01*
X42396Y-16765D01*
X42384Y-16758D01*
X42361Y-16750D01*
X41373Y-17050D02*
X41385Y-17057D01*
X41396Y-17080D01*
X41396Y-17095D01*
X41385Y-17117D01*
X41362Y-17132D01*
X41339Y-17140D01*
X41293Y-17147D01*
X41258Y-17147D01*
X41212Y-17140D01*
X41189Y-17132D01*
X41167Y-17117D01*
X41155Y-17095D01*
X41155Y-17080D01*
X41167Y-17057D01*
X41178Y-17050D01*
X41155Y-16908D02*
X41155Y-16983D01*
X41270Y-16990D01*
X41258Y-16983D01*
X41247Y-16968D01*
X41247Y-16930D01*
X41258Y-16915D01*
X41270Y-16908D01*
X41293Y-16900D01*
X41350Y-16900D01*
X41373Y-16908D01*
X41385Y-16915D01*
X41396Y-16930D01*
X41396Y-16968D01*
X41385Y-16983D01*
X41373Y-16990D01*
X41155Y-16803D02*
X41155Y-16788D01*
X41167Y-16773D01*
X41178Y-16765D01*
X41201Y-16758D01*
X41247Y-16750D01*
X41304Y-16750D01*
X41350Y-16758D01*
X41373Y-16765D01*
X41385Y-16773D01*
X41396Y-16788D01*
X41396Y-16803D01*
X41385Y-16818D01*
X41373Y-16825D01*
X41350Y-16833D01*
X41304Y-16840D01*
X41247Y-16840D01*
X41201Y-16833D01*
X41178Y-16825D01*
X41167Y-16818D01*
X41155Y-16803D01*
X45428Y-17090D02*
X45440Y-17097D01*
X45451Y-17120D01*
X45451Y-17135D01*
X45440Y-17157D01*
X45417Y-17172D01*
X45394Y-17180D01*
X45348Y-17187D01*
X45313Y-17187D01*
X45267Y-17180D01*
X45244Y-17172D01*
X45222Y-17157D01*
X45210Y-17135D01*
X45210Y-17120D01*
X45222Y-17097D01*
X45233Y-17090D01*
X45210Y-16948D02*
X45210Y-17023D01*
X45325Y-17030D01*
X45313Y-17023D01*
X45302Y-17008D01*
X45302Y-16970D01*
X45313Y-16955D01*
X45325Y-16948D01*
X45348Y-16940D01*
X45405Y-16940D01*
X45428Y-16948D01*
X45440Y-16955D01*
X45451Y-16970D01*
X45451Y-17008D01*
X45440Y-17023D01*
X45428Y-17030D01*
X45451Y-16790D02*
X45451Y-16880D01*
X45451Y-16835D02*
X45210Y-16835D01*
X45244Y-16850D01*
X45267Y-16865D01*
X45279Y-16880D01*
X44877Y-17050D02*
X44889Y-17057D01*
X44900Y-17080D01*
X44900Y-17095D01*
X44889Y-17117D01*
X44866Y-17132D01*
X44843Y-17140D01*
X44797Y-17147D01*
X44762Y-17147D01*
X44716Y-17140D01*
X44693Y-17132D01*
X44671Y-17117D01*
X44659Y-17095D01*
X44659Y-17080D01*
X44671Y-17057D01*
X44682Y-17050D01*
X44659Y-16908D02*
X44659Y-16983D01*
X44774Y-16990D01*
X44762Y-16983D01*
X44751Y-16968D01*
X44751Y-16930D01*
X44762Y-16915D01*
X44774Y-16908D01*
X44797Y-16900D01*
X44854Y-16900D01*
X44877Y-16908D01*
X44889Y-16915D01*
X44900Y-16930D01*
X44900Y-16968D01*
X44889Y-16983D01*
X44877Y-16990D01*
X44682Y-16840D02*
X44671Y-16833D01*
X44659Y-16818D01*
X44659Y-16780D01*
X44671Y-16765D01*
X44682Y-16758D01*
X44705Y-16750D01*
X44728Y-16750D01*
X44762Y-16758D01*
X44900Y-16848D01*
X44900Y-16750D01*
X37671Y-21081D02*
X37619Y-20966D01*
X37581Y-21081D02*
X37581Y-20840D01*
X37641Y-20840D01*
X37656Y-20852D01*
X37664Y-20863D01*
X37671Y-20886D01*
X37671Y-20920D01*
X37664Y-20943D01*
X37656Y-20955D01*
X37641Y-20966D01*
X37581Y-20966D01*
X37821Y-21081D02*
X37731Y-21081D01*
X37776Y-21081D02*
X37776Y-20840D01*
X37761Y-20874D01*
X37746Y-20897D01*
X37731Y-20909D01*
X39639Y-21554D02*
X39587Y-21439D01*
X39549Y-21554D02*
X39549Y-21313D01*
X39609Y-21313D01*
X39624Y-21325D01*
X39632Y-21336D01*
X39639Y-21359D01*
X39639Y-21393D01*
X39632Y-21416D01*
X39624Y-21428D01*
X39609Y-21439D01*
X39549Y-21439D01*
X39699Y-21336D02*
X39706Y-21325D01*
X39721Y-21313D01*
X39759Y-21313D01*
X39774Y-21325D01*
X39781Y-21336D01*
X39789Y-21359D01*
X39789Y-21382D01*
X39781Y-21416D01*
X39691Y-21554D01*
X39789Y-21554D01*
X39669Y-26780D02*
X39617Y-26665D01*
X39579Y-26780D02*
X39579Y-26539D01*
X39639Y-26539D01*
X39654Y-26551D01*
X39662Y-26562D01*
X39669Y-26585D01*
X39669Y-26619D01*
X39662Y-26642D01*
X39654Y-26654D01*
X39639Y-26665D01*
X39579Y-26665D01*
X39721Y-26539D02*
X39819Y-26539D01*
X39766Y-26631D01*
X39789Y-26631D01*
X39804Y-26642D01*
X39811Y-26654D01*
X39819Y-26677D01*
X39819Y-26734D01*
X39811Y-26757D01*
X39804Y-26769D01*
X39789Y-26780D01*
X39744Y-26780D01*
X39729Y-26769D01*
X39721Y-26757D01*
X39679Y-25481D02*
X39627Y-25366D01*
X39589Y-25481D02*
X39589Y-25240D01*
X39649Y-25240D01*
X39664Y-25252D01*
X39672Y-25263D01*
X39679Y-25286D01*
X39679Y-25320D01*
X39672Y-25343D01*
X39664Y-25355D01*
X39649Y-25366D01*
X39589Y-25366D01*
X39814Y-25320D02*
X39814Y-25481D01*
X39776Y-25229D02*
X39739Y-25401D01*
X39836Y-25401D01*
X39679Y-24162D02*
X39627Y-24047D01*
X39589Y-24162D02*
X39589Y-23921D01*
X39649Y-23921D01*
X39664Y-23933D01*
X39672Y-23944D01*
X39679Y-23967D01*
X39679Y-24001D01*
X39672Y-24024D01*
X39664Y-24036D01*
X39649Y-24047D01*
X39589Y-24047D01*
X39821Y-23921D02*
X39746Y-23921D01*
X39739Y-24036D01*
X39746Y-24024D01*
X39761Y-24013D01*
X39799Y-24013D01*
X39814Y-24024D01*
X39821Y-24036D01*
X39829Y-24059D01*
X39829Y-24116D01*
X39821Y-24139D01*
X39814Y-24151D01*
X39799Y-24162D01*
X39761Y-24162D01*
X39746Y-24151D01*
X39739Y-24139D01*
X39679Y-22853D02*
X39627Y-22738D01*
X39589Y-22853D02*
X39589Y-22612D01*
X39649Y-22612D01*
X39664Y-22624D01*
X39672Y-22635D01*
X39679Y-22658D01*
X39679Y-22692D01*
X39672Y-22715D01*
X39664Y-22727D01*
X39649Y-22738D01*
X39589Y-22738D01*
X39814Y-22612D02*
X39784Y-22612D01*
X39769Y-22624D01*
X39761Y-22635D01*
X39746Y-22669D01*
X39739Y-22715D01*
X39739Y-22807D01*
X39746Y-22830D01*
X39754Y-22842D01*
X39769Y-22853D01*
X39799Y-22853D01*
X39814Y-22842D01*
X39821Y-22830D01*
X39829Y-22807D01*
X39829Y-22750D01*
X39821Y-22727D01*
X39814Y-22715D01*
X39799Y-22704D01*
X39769Y-22704D01*
X39754Y-22715D01*
X39746Y-22727D01*
X39739Y-22750D01*
X41278Y-30085D02*
X41163Y-30137D01*
X41278Y-30175D02*
X41037Y-30175D01*
X41037Y-30115D01*
X41049Y-30100D01*
X41060Y-30092D01*
X41083Y-30085D01*
X41117Y-30085D01*
X41140Y-30092D01*
X41152Y-30100D01*
X41163Y-30115D01*
X41163Y-30175D01*
X41140Y-29995D02*
X41129Y-30010D01*
X41117Y-30018D01*
X41094Y-30025D01*
X41083Y-30025D01*
X41060Y-30018D01*
X41049Y-30010D01*
X41037Y-29995D01*
X41037Y-29965D01*
X41049Y-29950D01*
X41060Y-29943D01*
X41083Y-29935D01*
X41094Y-29935D01*
X41117Y-29943D01*
X41129Y-29950D01*
X41140Y-29965D01*
X41140Y-29995D01*
X41152Y-30010D01*
X41163Y-30018D01*
X41186Y-30025D01*
X41232Y-30025D01*
X41255Y-30018D01*
X41267Y-30010D01*
X41278Y-29995D01*
X41278Y-29965D01*
X41267Y-29950D01*
X41255Y-29943D01*
X41232Y-29935D01*
X41186Y-29935D01*
X41163Y-29943D01*
X41152Y-29950D01*
X41140Y-29965D01*
X39679Y-26130D02*
X39627Y-26015D01*
X39589Y-26130D02*
X39589Y-25889D01*
X39649Y-25889D01*
X39664Y-25901D01*
X39672Y-25912D01*
X39679Y-25935D01*
X39679Y-25969D01*
X39672Y-25992D01*
X39664Y-26004D01*
X39649Y-26015D01*
X39589Y-26015D01*
X39754Y-26130D02*
X39784Y-26130D01*
X39799Y-26119D01*
X39806Y-26107D01*
X39821Y-26073D01*
X39829Y-26027D01*
X39829Y-25935D01*
X39821Y-25912D01*
X39814Y-25901D01*
X39799Y-25889D01*
X39769Y-25889D01*
X39754Y-25901D01*
X39746Y-25912D01*
X39739Y-25935D01*
X39739Y-25992D01*
X39746Y-26015D01*
X39754Y-26027D01*
X39769Y-26038D01*
X39799Y-26038D01*
X39814Y-26027D01*
X39821Y-26015D01*
X39829Y-25992D01*
X39605Y-24821D02*
X39553Y-24706D01*
X39515Y-24821D02*
X39515Y-24580D01*
X39575Y-24580D01*
X39590Y-24592D01*
X39598Y-24603D01*
X39605Y-24626D01*
X39605Y-24660D01*
X39598Y-24683D01*
X39590Y-24695D01*
X39575Y-24706D01*
X39515Y-24706D01*
X39755Y-24821D02*
X39665Y-24821D01*
X39710Y-24821D02*
X39710Y-24580D01*
X39695Y-24614D01*
X39680Y-24637D01*
X39665Y-24649D01*
X39852Y-24580D02*
X39867Y-24580D01*
X39882Y-24592D01*
X39890Y-24603D01*
X39897Y-24626D01*
X39905Y-24672D01*
X39905Y-24729D01*
X39897Y-24775D01*
X39890Y-24798D01*
X39882Y-24810D01*
X39867Y-24821D01*
X39852Y-24821D01*
X39837Y-24810D01*
X39830Y-24798D01*
X39822Y-24775D01*
X39815Y-24729D01*
X39815Y-24672D01*
X39822Y-24626D01*
X39830Y-24603D01*
X39837Y-24592D01*
X39852Y-24580D01*
X39604Y-23503D02*
X39552Y-23388D01*
X39514Y-23503D02*
X39514Y-23262D01*
X39574Y-23262D01*
X39589Y-23274D01*
X39597Y-23285D01*
X39604Y-23308D01*
X39604Y-23342D01*
X39597Y-23365D01*
X39589Y-23377D01*
X39574Y-23388D01*
X39514Y-23388D01*
X39754Y-23503D02*
X39664Y-23503D01*
X39709Y-23503D02*
X39709Y-23262D01*
X39694Y-23296D01*
X39679Y-23319D01*
X39664Y-23331D01*
X39904Y-23503D02*
X39814Y-23503D01*
X39859Y-23503D02*
X39859Y-23262D01*
X39844Y-23296D01*
X39829Y-23319D01*
X39814Y-23331D01*
X39604Y-22203D02*
X39552Y-22088D01*
X39514Y-22203D02*
X39514Y-21962D01*
X39574Y-21962D01*
X39589Y-21974D01*
X39597Y-21985D01*
X39604Y-22008D01*
X39604Y-22042D01*
X39597Y-22065D01*
X39589Y-22077D01*
X39574Y-22088D01*
X39514Y-22088D01*
X39754Y-22203D02*
X39664Y-22203D01*
X39709Y-22203D02*
X39709Y-21962D01*
X39694Y-21996D01*
X39679Y-22019D01*
X39664Y-22031D01*
X39814Y-21985D02*
X39821Y-21974D01*
X39836Y-21962D01*
X39874Y-21962D01*
X39889Y-21974D01*
X39896Y-21985D01*
X39904Y-22008D01*
X39904Y-22031D01*
X39896Y-22065D01*
X39806Y-22203D01*
X39904Y-22203D01*
X51483Y-25432D02*
X51431Y-25317D01*
X51393Y-25432D02*
X51393Y-25191D01*
X51453Y-25191D01*
X51468Y-25203D01*
X51476Y-25214D01*
X51483Y-25237D01*
X51483Y-25271D01*
X51476Y-25294D01*
X51468Y-25306D01*
X51453Y-25317D01*
X51393Y-25317D01*
X51633Y-25432D02*
X51543Y-25432D01*
X51588Y-25432D02*
X51588Y-25191D01*
X51573Y-25225D01*
X51558Y-25248D01*
X51543Y-25260D01*
X51685Y-25191D02*
X51783Y-25191D01*
X51730Y-25283D01*
X51753Y-25283D01*
X51768Y-25294D01*
X51775Y-25306D01*
X51783Y-25329D01*
X51783Y-25386D01*
X51775Y-25409D01*
X51768Y-25421D01*
X51753Y-25432D01*
X51708Y-25432D01*
X51693Y-25421D01*
X51685Y-25409D01*
X54672Y-24044D02*
X54620Y-23929D01*
X54582Y-24044D02*
X54582Y-23803D01*
X54642Y-23803D01*
X54657Y-23815D01*
X54665Y-23826D01*
X54672Y-23849D01*
X54672Y-23883D01*
X54665Y-23906D01*
X54657Y-23918D01*
X54642Y-23929D01*
X54582Y-23929D01*
X54822Y-24044D02*
X54732Y-24044D01*
X54777Y-24044D02*
X54777Y-23803D01*
X54762Y-23837D01*
X54747Y-23860D01*
X54732Y-23872D01*
X54957Y-23883D02*
X54957Y-24044D01*
X54919Y-23792D02*
X54882Y-23964D01*
X54979Y-23964D01*
X40018Y-30160D02*
X39903Y-30212D01*
X40018Y-30250D02*
X39777Y-30250D01*
X39777Y-30190D01*
X39789Y-30175D01*
X39800Y-30167D01*
X39823Y-30160D01*
X39857Y-30160D01*
X39880Y-30167D01*
X39892Y-30175D01*
X39903Y-30190D01*
X39903Y-30250D01*
X40018Y-30010D02*
X40018Y-30100D01*
X40018Y-30055D02*
X39777Y-30055D01*
X39811Y-30070D01*
X39834Y-30085D01*
X39846Y-30100D01*
X39880Y-29920D02*
X39869Y-29935D01*
X39857Y-29943D01*
X39834Y-29950D01*
X39823Y-29950D01*
X39800Y-29943D01*
X39789Y-29935D01*
X39777Y-29920D01*
X39777Y-29890D01*
X39789Y-29875D01*
X39800Y-29868D01*
X39823Y-29860D01*
X39834Y-29860D01*
X39857Y-29868D01*
X39869Y-29875D01*
X39880Y-29890D01*
X39880Y-29920D01*
X39892Y-29935D01*
X39903Y-29943D01*
X39926Y-29950D01*
X39972Y-29950D01*
X39995Y-29943D01*
X40007Y-29935D01*
X40018Y-29920D01*
X40018Y-29890D01*
X40007Y-29875D01*
X39995Y-29868D01*
X39972Y-29860D01*
X39926Y-29860D01*
X39903Y-29868D01*
X39892Y-29875D01*
X39880Y-29890D01*
X40648Y-30160D02*
X40533Y-30212D01*
X40648Y-30250D02*
X40407Y-30250D01*
X40407Y-30190D01*
X40419Y-30175D01*
X40430Y-30167D01*
X40453Y-30160D01*
X40487Y-30160D01*
X40510Y-30167D01*
X40522Y-30175D01*
X40533Y-30190D01*
X40533Y-30250D01*
X40648Y-30010D02*
X40648Y-30100D01*
X40648Y-30055D02*
X40407Y-30055D01*
X40441Y-30070D01*
X40464Y-30085D01*
X40476Y-30100D01*
X40648Y-29935D02*
X40648Y-29905D01*
X40637Y-29890D01*
X40625Y-29883D01*
X40591Y-29868D01*
X40545Y-29860D01*
X40453Y-29860D01*
X40430Y-29868D01*
X40419Y-29875D01*
X40407Y-29890D01*
X40407Y-29920D01*
X40419Y-29935D01*
X40430Y-29943D01*
X40453Y-29950D01*
X40510Y-29950D01*
X40533Y-29943D01*
X40545Y-29935D01*
X40556Y-29920D01*
X40556Y-29890D01*
X40545Y-29875D01*
X40533Y-29868D01*
X40510Y-29860D01*
X41908Y-30160D02*
X41793Y-30212D01*
X41908Y-30250D02*
X41667Y-30250D01*
X41667Y-30190D01*
X41679Y-30175D01*
X41690Y-30167D01*
X41713Y-30160D01*
X41747Y-30160D01*
X41770Y-30167D01*
X41782Y-30175D01*
X41793Y-30190D01*
X41793Y-30250D01*
X41690Y-30100D02*
X41679Y-30093D01*
X41667Y-30078D01*
X41667Y-30040D01*
X41679Y-30025D01*
X41690Y-30018D01*
X41713Y-30010D01*
X41736Y-30010D01*
X41770Y-30018D01*
X41908Y-30108D01*
X41908Y-30010D01*
X41667Y-29913D02*
X41667Y-29898D01*
X41679Y-29883D01*
X41690Y-29875D01*
X41713Y-29868D01*
X41759Y-29860D01*
X41816Y-29860D01*
X41862Y-29868D01*
X41885Y-29875D01*
X41897Y-29883D01*
X41908Y-29898D01*
X41908Y-29913D01*
X41897Y-29928D01*
X41885Y-29935D01*
X41862Y-29943D01*
X41816Y-29950D01*
X41759Y-29950D01*
X41713Y-29943D01*
X41690Y-29935D01*
X41679Y-29928D01*
X41667Y-29913D01*
X51493Y-26032D02*
X51441Y-25917D01*
X51403Y-26032D02*
X51403Y-25791D01*
X51463Y-25791D01*
X51478Y-25803D01*
X51486Y-25814D01*
X51493Y-25837D01*
X51493Y-25871D01*
X51486Y-25894D01*
X51478Y-25906D01*
X51463Y-25917D01*
X51403Y-25917D01*
X51553Y-25814D02*
X51560Y-25803D01*
X51575Y-25791D01*
X51613Y-25791D01*
X51628Y-25803D01*
X51635Y-25814D01*
X51643Y-25837D01*
X51643Y-25860D01*
X51635Y-25894D01*
X51545Y-26032D01*
X51643Y-26032D01*
X51793Y-26032D02*
X51703Y-26032D01*
X51748Y-26032D02*
X51748Y-25791D01*
X51733Y-25825D01*
X51718Y-25848D01*
X51703Y-25860D01*
X54672Y-24605D02*
X54620Y-24490D01*
X54582Y-24605D02*
X54582Y-24364D01*
X54642Y-24364D01*
X54657Y-24376D01*
X54665Y-24387D01*
X54672Y-24410D01*
X54672Y-24444D01*
X54665Y-24467D01*
X54657Y-24479D01*
X54642Y-24490D01*
X54582Y-24490D01*
X54732Y-24387D02*
X54739Y-24376D01*
X54754Y-24364D01*
X54792Y-24364D01*
X54807Y-24376D01*
X54814Y-24387D01*
X54822Y-24410D01*
X54822Y-24433D01*
X54814Y-24467D01*
X54724Y-24605D01*
X54822Y-24605D01*
X54882Y-24387D02*
X54889Y-24376D01*
X54904Y-24364D01*
X54942Y-24364D01*
X54957Y-24376D01*
X54964Y-24387D01*
X54972Y-24410D01*
X54972Y-24433D01*
X54964Y-24467D01*
X54874Y-24605D01*
X54972Y-24605D01*
X51868Y-30923D02*
X51816Y-30808D01*
X51778Y-30923D02*
X51778Y-30682D01*
X51838Y-30682D01*
X51853Y-30694D01*
X51861Y-30705D01*
X51868Y-30728D01*
X51868Y-30762D01*
X51861Y-30785D01*
X51853Y-30797D01*
X51838Y-30808D01*
X51778Y-30808D01*
X51928Y-30705D02*
X51935Y-30694D01*
X51950Y-30682D01*
X51988Y-30682D01*
X52003Y-30694D01*
X52010Y-30705D01*
X52018Y-30728D01*
X52018Y-30751D01*
X52010Y-30785D01*
X51920Y-30923D01*
X52018Y-30923D01*
X52160Y-30682D02*
X52085Y-30682D01*
X52078Y-30797D01*
X52085Y-30785D01*
X52100Y-30774D01*
X52138Y-30774D01*
X52153Y-30785D01*
X52160Y-30797D01*
X52168Y-30820D01*
X52168Y-30877D01*
X52160Y-30900D01*
X52153Y-30912D01*
X52138Y-30923D01*
X52100Y-30923D01*
X52085Y-30912D01*
X52078Y-30900D01*
X49800Y-30510D02*
X49748Y-30395D01*
X49710Y-30510D02*
X49710Y-30269D01*
X49770Y-30269D01*
X49785Y-30281D01*
X49793Y-30292D01*
X49800Y-30315D01*
X49800Y-30349D01*
X49793Y-30372D01*
X49785Y-30384D01*
X49770Y-30395D01*
X49710Y-30395D01*
X49860Y-30292D02*
X49867Y-30281D01*
X49882Y-30269D01*
X49920Y-30269D01*
X49935Y-30281D01*
X49942Y-30292D01*
X49950Y-30315D01*
X49950Y-30338D01*
X49942Y-30372D01*
X49852Y-30510D01*
X49950Y-30510D01*
X50085Y-30269D02*
X50055Y-30269D01*
X50040Y-30281D01*
X50032Y-30292D01*
X50017Y-30326D01*
X50010Y-30372D01*
X50010Y-30464D01*
X50017Y-30487D01*
X50025Y-30499D01*
X50040Y-30510D01*
X50070Y-30510D01*
X50085Y-30499D01*
X50092Y-30487D01*
X50100Y-30464D01*
X50100Y-30407D01*
X50092Y-30384D01*
X50085Y-30372D01*
X50070Y-30361D01*
X50040Y-30361D01*
X50025Y-30372D01*
X50017Y-30384D01*
X50010Y-30407D01*
X23345Y-30215D02*
X23293Y-30100D01*
X23255Y-30215D02*
X23255Y-29974D01*
X23315Y-29974D01*
X23330Y-29986D01*
X23338Y-29997D01*
X23345Y-30020D01*
X23345Y-30054D01*
X23338Y-30077D01*
X23330Y-30089D01*
X23315Y-30100D01*
X23255Y-30100D01*
X23397Y-29974D02*
X23495Y-29974D01*
X23442Y-30066D01*
X23465Y-30066D01*
X23480Y-30077D01*
X23487Y-30089D01*
X23495Y-30112D01*
X23495Y-30169D01*
X23487Y-30192D01*
X23480Y-30204D01*
X23465Y-30215D01*
X23420Y-30215D01*
X23405Y-30204D01*
X23397Y-30192D01*
X23547Y-29974D02*
X23645Y-29974D01*
X23592Y-30066D01*
X23615Y-30066D01*
X23630Y-30077D01*
X23637Y-30089D01*
X23645Y-30112D01*
X23645Y-30169D01*
X23637Y-30192D01*
X23630Y-30204D01*
X23615Y-30215D01*
X23570Y-30215D01*
X23555Y-30204D01*
X23547Y-30192D01*
X23837Y-32287D02*
X23722Y-32339D01*
X23837Y-32377D02*
X23596Y-32377D01*
X23596Y-32317D01*
X23608Y-32302D01*
X23619Y-32294D01*
X23642Y-32287D01*
X23676Y-32287D01*
X23699Y-32294D01*
X23711Y-32302D01*
X23722Y-32317D01*
X23722Y-32377D01*
X23596Y-32235D02*
X23596Y-32137D01*
X23688Y-32190D01*
X23688Y-32167D01*
X23699Y-32152D01*
X23711Y-32145D01*
X23734Y-32137D01*
X23791Y-32137D01*
X23814Y-32145D01*
X23826Y-32152D01*
X23837Y-32167D01*
X23837Y-32212D01*
X23826Y-32227D01*
X23814Y-32235D01*
X23676Y-32002D02*
X23837Y-32002D01*
X23585Y-32040D02*
X23757Y-32077D01*
X23757Y-31980D01*
X50982Y-19821D02*
X50930Y-19706D01*
X50892Y-19821D02*
X50892Y-19580D01*
X50952Y-19580D01*
X50967Y-19592D01*
X50975Y-19603D01*
X50982Y-19626D01*
X50982Y-19660D01*
X50975Y-19683D01*
X50967Y-19695D01*
X50952Y-19706D01*
X50892Y-19706D01*
X51034Y-19580D02*
X51132Y-19580D01*
X51079Y-19672D01*
X51102Y-19672D01*
X51117Y-19683D01*
X51124Y-19695D01*
X51132Y-19718D01*
X51132Y-19775D01*
X51124Y-19798D01*
X51117Y-19810D01*
X51102Y-19821D01*
X51057Y-19821D01*
X51042Y-19810D01*
X51034Y-19798D01*
X51274Y-19580D02*
X51199Y-19580D01*
X51192Y-19695D01*
X51199Y-19683D01*
X51214Y-19672D01*
X51252Y-19672D01*
X51267Y-19683D01*
X51274Y-19695D01*
X51282Y-19718D01*
X51282Y-19775D01*
X51274Y-19798D01*
X51267Y-19810D01*
X51252Y-19821D01*
X51214Y-19821D01*
X51199Y-19810D01*
X51192Y-19798D01*
X48640Y-19845D02*
X48525Y-19897D01*
X48640Y-19935D02*
X48399Y-19935D01*
X48399Y-19875D01*
X48411Y-19860D01*
X48422Y-19852D01*
X48445Y-19845D01*
X48479Y-19845D01*
X48502Y-19852D01*
X48514Y-19860D01*
X48525Y-19875D01*
X48525Y-19935D01*
X48399Y-19793D02*
X48399Y-19695D01*
X48491Y-19748D01*
X48491Y-19725D01*
X48502Y-19710D01*
X48514Y-19703D01*
X48537Y-19695D01*
X48594Y-19695D01*
X48617Y-19703D01*
X48629Y-19710D01*
X48640Y-19725D01*
X48640Y-19770D01*
X48629Y-19785D01*
X48617Y-19793D01*
X48399Y-19560D02*
X48399Y-19590D01*
X48411Y-19605D01*
X48422Y-19613D01*
X48456Y-19628D01*
X48502Y-19635D01*
X48594Y-19635D01*
X48617Y-19628D01*
X48629Y-19620D01*
X48640Y-19605D01*
X48640Y-19575D01*
X48629Y-19560D01*
X48617Y-19553D01*
X48594Y-19545D01*
X48537Y-19545D01*
X48514Y-19553D01*
X48502Y-19560D01*
X48491Y-19575D01*
X48491Y-19605D01*
X48502Y-19620D01*
X48514Y-19628D01*
X48537Y-19635D01*
X48895Y-18877D02*
X48843Y-18762D01*
X48805Y-18877D02*
X48805Y-18636D01*
X48865Y-18636D01*
X48880Y-18648D01*
X48888Y-18659D01*
X48895Y-18682D01*
X48895Y-18716D01*
X48888Y-18739D01*
X48880Y-18751D01*
X48865Y-18762D01*
X48805Y-18762D01*
X48947Y-18636D02*
X49045Y-18636D01*
X48992Y-18728D01*
X49015Y-18728D01*
X49030Y-18739D01*
X49037Y-18751D01*
X49045Y-18774D01*
X49045Y-18831D01*
X49037Y-18854D01*
X49030Y-18866D01*
X49015Y-18877D01*
X48970Y-18877D01*
X48955Y-18866D01*
X48947Y-18854D01*
X49097Y-18636D02*
X49202Y-18636D01*
X49135Y-18877D01*
X40845Y-15908D02*
X40730Y-15960D01*
X40845Y-15998D02*
X40604Y-15998D01*
X40604Y-15938D01*
X40616Y-15923D01*
X40627Y-15915D01*
X40650Y-15908D01*
X40684Y-15908D01*
X40707Y-15915D01*
X40719Y-15923D01*
X40730Y-15938D01*
X40730Y-15998D01*
X40604Y-15856D02*
X40604Y-15758D01*
X40696Y-15811D01*
X40696Y-15788D01*
X40707Y-15773D01*
X40719Y-15766D01*
X40742Y-15758D01*
X40799Y-15758D01*
X40822Y-15766D01*
X40834Y-15773D01*
X40845Y-15788D01*
X40845Y-15833D01*
X40834Y-15848D01*
X40822Y-15856D01*
X40707Y-15668D02*
X40696Y-15683D01*
X40684Y-15691D01*
X40661Y-15698D01*
X40650Y-15698D01*
X40627Y-15691D01*
X40616Y-15683D01*
X40604Y-15668D01*
X40604Y-15638D01*
X40616Y-15623D01*
X40627Y-15616D01*
X40650Y-15608D01*
X40661Y-15608D01*
X40684Y-15616D01*
X40696Y-15623D01*
X40707Y-15638D01*
X40707Y-15668D01*
X40719Y-15683D01*
X40730Y-15691D01*
X40753Y-15698D01*
X40799Y-15698D01*
X40822Y-15691D01*
X40834Y-15683D01*
X40845Y-15668D01*
X40845Y-15638D01*
X40834Y-15623D01*
X40822Y-15616D01*
X40799Y-15608D01*
X40753Y-15608D01*
X40730Y-15616D01*
X40719Y-15623D01*
X40707Y-15638D01*
X40845Y-17090D02*
X40730Y-17142D01*
X40845Y-17180D02*
X40604Y-17180D01*
X40604Y-17120D01*
X40616Y-17105D01*
X40627Y-17097D01*
X40650Y-17090D01*
X40684Y-17090D01*
X40707Y-17097D01*
X40719Y-17105D01*
X40730Y-17120D01*
X40730Y-17180D01*
X40604Y-17038D02*
X40604Y-16940D01*
X40696Y-16993D01*
X40696Y-16970D01*
X40707Y-16955D01*
X40719Y-16948D01*
X40742Y-16940D01*
X40799Y-16940D01*
X40822Y-16948D01*
X40834Y-16955D01*
X40845Y-16970D01*
X40845Y-17015D01*
X40834Y-17030D01*
X40822Y-17038D01*
X40845Y-16865D02*
X40845Y-16835D01*
X40834Y-16820D01*
X40822Y-16813D01*
X40788Y-16798D01*
X40742Y-16790D01*
X40650Y-16790D01*
X40627Y-16798D01*
X40616Y-16805D01*
X40604Y-16820D01*
X40604Y-16850D01*
X40616Y-16865D01*
X40627Y-16873D01*
X40650Y-16880D01*
X40707Y-16880D01*
X40730Y-16873D01*
X40742Y-16865D01*
X40753Y-16850D01*
X40753Y-16820D01*
X40742Y-16805D01*
X40730Y-16798D01*
X40707Y-16790D01*
X40294Y-17090D02*
X40179Y-17142D01*
X40294Y-17180D02*
X40053Y-17180D01*
X40053Y-17120D01*
X40065Y-17105D01*
X40076Y-17097D01*
X40099Y-17090D01*
X40133Y-17090D01*
X40156Y-17097D01*
X40168Y-17105D01*
X40179Y-17120D01*
X40179Y-17180D01*
X40133Y-16955D02*
X40294Y-16955D01*
X40042Y-16993D02*
X40214Y-17030D01*
X40214Y-16933D01*
X40053Y-16843D02*
X40053Y-16828D01*
X40065Y-16813D01*
X40076Y-16805D01*
X40099Y-16798D01*
X40145Y-16790D01*
X40202Y-16790D01*
X40248Y-16798D01*
X40271Y-16805D01*
X40283Y-16813D01*
X40294Y-16828D01*
X40294Y-16843D01*
X40283Y-16858D01*
X40271Y-16865D01*
X40248Y-16873D01*
X40202Y-16880D01*
X40145Y-16880D01*
X40099Y-16873D01*
X40076Y-16865D01*
X40065Y-16858D01*
X40053Y-16843D01*
X40294Y-15907D02*
X40179Y-15959D01*
X40294Y-15997D02*
X40053Y-15997D01*
X40053Y-15937D01*
X40065Y-15922D01*
X40076Y-15914D01*
X40099Y-15907D01*
X40133Y-15907D01*
X40156Y-15914D01*
X40168Y-15922D01*
X40179Y-15937D01*
X40179Y-15997D01*
X40133Y-15772D02*
X40294Y-15772D01*
X40042Y-15810D02*
X40214Y-15847D01*
X40214Y-15750D01*
X40294Y-15607D02*
X40294Y-15697D01*
X40294Y-15652D02*
X40053Y-15652D01*
X40087Y-15667D01*
X40110Y-15682D01*
X40122Y-15697D01*
X40274Y-20160D02*
X40159Y-20212D01*
X40274Y-20250D02*
X40033Y-20250D01*
X40033Y-20190D01*
X40045Y-20175D01*
X40056Y-20167D01*
X40079Y-20160D01*
X40113Y-20160D01*
X40136Y-20167D01*
X40148Y-20175D01*
X40159Y-20190D01*
X40159Y-20250D01*
X40113Y-20025D02*
X40274Y-20025D01*
X40022Y-20063D02*
X40194Y-20100D01*
X40194Y-20003D01*
X40056Y-19950D02*
X40045Y-19943D01*
X40033Y-19928D01*
X40033Y-19890D01*
X40045Y-19875D01*
X40056Y-19868D01*
X40079Y-19860D01*
X40102Y-19860D01*
X40136Y-19868D01*
X40274Y-19958D01*
X40274Y-19860D01*
X41534Y-20160D02*
X41419Y-20212D01*
X41534Y-20250D02*
X41293Y-20250D01*
X41293Y-20190D01*
X41305Y-20175D01*
X41316Y-20167D01*
X41339Y-20160D01*
X41373Y-20160D01*
X41396Y-20167D01*
X41408Y-20175D01*
X41419Y-20190D01*
X41419Y-20250D01*
X41373Y-20025D02*
X41534Y-20025D01*
X41282Y-20063D02*
X41454Y-20100D01*
X41454Y-20003D01*
X41293Y-19958D02*
X41293Y-19860D01*
X41385Y-19913D01*
X41385Y-19890D01*
X41396Y-19875D01*
X41408Y-19868D01*
X41431Y-19860D01*
X41488Y-19860D01*
X41511Y-19868D01*
X41523Y-19875D01*
X41534Y-19890D01*
X41534Y-19935D01*
X41523Y-19950D01*
X41511Y-19958D01*
X42794Y-20160D02*
X42679Y-20212D01*
X42794Y-20250D02*
X42553Y-20250D01*
X42553Y-20190D01*
X42565Y-20175D01*
X42576Y-20167D01*
X42599Y-20160D01*
X42633Y-20160D01*
X42656Y-20167D01*
X42668Y-20175D01*
X42679Y-20190D01*
X42679Y-20250D01*
X42633Y-20025D02*
X42794Y-20025D01*
X42542Y-20063D02*
X42714Y-20100D01*
X42714Y-20003D01*
X42633Y-19875D02*
X42794Y-19875D01*
X42542Y-19913D02*
X42714Y-19950D01*
X42714Y-19853D01*
X44054Y-20160D02*
X43939Y-20212D01*
X44054Y-20250D02*
X43813Y-20250D01*
X43813Y-20190D01*
X43825Y-20175D01*
X43836Y-20167D01*
X43859Y-20160D01*
X43893Y-20160D01*
X43916Y-20167D01*
X43928Y-20175D01*
X43939Y-20190D01*
X43939Y-20250D01*
X43893Y-20025D02*
X44054Y-20025D01*
X43802Y-20063D02*
X43974Y-20100D01*
X43974Y-20003D01*
X43813Y-19868D02*
X43813Y-19943D01*
X43928Y-19950D01*
X43916Y-19943D01*
X43905Y-19928D01*
X43905Y-19890D01*
X43916Y-19875D01*
X43928Y-19868D01*
X43951Y-19860D01*
X44008Y-19860D01*
X44031Y-19868D01*
X44043Y-19875D01*
X44054Y-19890D01*
X44054Y-19928D01*
X44043Y-19943D01*
X44031Y-19950D01*
X40274Y-18506D02*
X40159Y-18558D01*
X40274Y-18596D02*
X40033Y-18596D01*
X40033Y-18536D01*
X40045Y-18521D01*
X40056Y-18513D01*
X40079Y-18506D01*
X40113Y-18506D01*
X40136Y-18513D01*
X40148Y-18521D01*
X40159Y-18536D01*
X40159Y-18596D01*
X40113Y-18371D02*
X40274Y-18371D01*
X40022Y-18409D02*
X40194Y-18446D01*
X40194Y-18349D01*
X40033Y-18221D02*
X40033Y-18251D01*
X40045Y-18266D01*
X40056Y-18274D01*
X40090Y-18289D01*
X40136Y-18296D01*
X40228Y-18296D01*
X40251Y-18289D01*
X40263Y-18281D01*
X40274Y-18266D01*
X40274Y-18236D01*
X40263Y-18221D01*
X40251Y-18214D01*
X40228Y-18206D01*
X40171Y-18206D01*
X40148Y-18214D01*
X40136Y-18221D01*
X40125Y-18236D01*
X40125Y-18266D01*
X40136Y-18281D01*
X40148Y-18289D01*
X40171Y-18296D01*
X41534Y-18506D02*
X41419Y-18558D01*
X41534Y-18596D02*
X41293Y-18596D01*
X41293Y-18536D01*
X41305Y-18521D01*
X41316Y-18513D01*
X41339Y-18506D01*
X41373Y-18506D01*
X41396Y-18513D01*
X41408Y-18521D01*
X41419Y-18536D01*
X41419Y-18596D01*
X41373Y-18371D02*
X41534Y-18371D01*
X41282Y-18409D02*
X41454Y-18446D01*
X41454Y-18349D01*
X41293Y-18304D02*
X41293Y-18199D01*
X41534Y-18266D01*
X42794Y-18506D02*
X42679Y-18558D01*
X42794Y-18596D02*
X42553Y-18596D01*
X42553Y-18536D01*
X42565Y-18521D01*
X42576Y-18513D01*
X42599Y-18506D01*
X42633Y-18506D01*
X42656Y-18513D01*
X42668Y-18521D01*
X42679Y-18536D01*
X42679Y-18596D01*
X42633Y-18371D02*
X42794Y-18371D01*
X42542Y-18409D02*
X42714Y-18446D01*
X42714Y-18349D01*
X42656Y-18266D02*
X42645Y-18281D01*
X42633Y-18289D01*
X42610Y-18296D01*
X42599Y-18296D01*
X42576Y-18289D01*
X42565Y-18281D01*
X42553Y-18266D01*
X42553Y-18236D01*
X42565Y-18221D01*
X42576Y-18214D01*
X42599Y-18206D01*
X42610Y-18206D01*
X42633Y-18214D01*
X42645Y-18221D01*
X42656Y-18236D01*
X42656Y-18266D01*
X42668Y-18281D01*
X42679Y-18289D01*
X42702Y-18296D01*
X42748Y-18296D01*
X42771Y-18289D01*
X42783Y-18281D01*
X42794Y-18266D01*
X42794Y-18236D01*
X42783Y-18221D01*
X42771Y-18214D01*
X42748Y-18206D01*
X42702Y-18206D01*
X42679Y-18214D01*
X42668Y-18221D01*
X42656Y-18236D01*
X44054Y-18506D02*
X43939Y-18558D01*
X44054Y-18596D02*
X43813Y-18596D01*
X43813Y-18536D01*
X43825Y-18521D01*
X43836Y-18513D01*
X43859Y-18506D01*
X43893Y-18506D01*
X43916Y-18513D01*
X43928Y-18521D01*
X43939Y-18536D01*
X43939Y-18596D01*
X43893Y-18371D02*
X44054Y-18371D01*
X43802Y-18409D02*
X43974Y-18446D01*
X43974Y-18349D01*
X44054Y-18281D02*
X44054Y-18251D01*
X44043Y-18236D01*
X44031Y-18229D01*
X43997Y-18214D01*
X43951Y-18206D01*
X43859Y-18206D01*
X43836Y-18214D01*
X43825Y-18221D01*
X43813Y-18236D01*
X43813Y-18266D01*
X43825Y-18281D01*
X43836Y-18289D01*
X43859Y-18296D01*
X43916Y-18296D01*
X43939Y-18289D01*
X43951Y-18281D01*
X43962Y-18266D01*
X43962Y-18236D01*
X43951Y-18221D01*
X43939Y-18214D01*
X43916Y-18206D01*
X40904Y-20160D02*
X40789Y-20212D01*
X40904Y-20250D02*
X40663Y-20250D01*
X40663Y-20190D01*
X40675Y-20175D01*
X40686Y-20167D01*
X40709Y-20160D01*
X40743Y-20160D01*
X40766Y-20167D01*
X40778Y-20175D01*
X40789Y-20190D01*
X40789Y-20250D01*
X40663Y-20018D02*
X40663Y-20093D01*
X40778Y-20100D01*
X40766Y-20093D01*
X40755Y-20078D01*
X40755Y-20040D01*
X40766Y-20025D01*
X40778Y-20018D01*
X40801Y-20010D01*
X40858Y-20010D01*
X40881Y-20018D01*
X40893Y-20025D01*
X40904Y-20040D01*
X40904Y-20078D01*
X40893Y-20093D01*
X40881Y-20100D01*
X40663Y-19913D02*
X40663Y-19898D01*
X40675Y-19883D01*
X40686Y-19875D01*
X40709Y-19868D01*
X40755Y-19860D01*
X40812Y-19860D01*
X40858Y-19868D01*
X40881Y-19875D01*
X40893Y-19883D01*
X40904Y-19898D01*
X40904Y-19913D01*
X40893Y-19928D01*
X40881Y-19935D01*
X40858Y-19943D01*
X40812Y-19950D01*
X40755Y-19950D01*
X40709Y-19943D01*
X40686Y-19935D01*
X40675Y-19928D01*
X40663Y-19913D01*
X42164Y-20160D02*
X42049Y-20212D01*
X42164Y-20250D02*
X41923Y-20250D01*
X41923Y-20190D01*
X41935Y-20175D01*
X41946Y-20167D01*
X41969Y-20160D01*
X42003Y-20160D01*
X42026Y-20167D01*
X42038Y-20175D01*
X42049Y-20190D01*
X42049Y-20250D01*
X41923Y-20018D02*
X41923Y-20093D01*
X42038Y-20100D01*
X42026Y-20093D01*
X42015Y-20078D01*
X42015Y-20040D01*
X42026Y-20025D01*
X42038Y-20018D01*
X42061Y-20010D01*
X42118Y-20010D01*
X42141Y-20018D01*
X42153Y-20025D01*
X42164Y-20040D01*
X42164Y-20078D01*
X42153Y-20093D01*
X42141Y-20100D01*
X42164Y-19860D02*
X42164Y-19950D01*
X42164Y-19905D02*
X41923Y-19905D01*
X41957Y-19920D01*
X41980Y-19935D01*
X41992Y-19950D01*
X43424Y-20160D02*
X43309Y-20212D01*
X43424Y-20250D02*
X43183Y-20250D01*
X43183Y-20190D01*
X43195Y-20175D01*
X43206Y-20167D01*
X43229Y-20160D01*
X43263Y-20160D01*
X43286Y-20167D01*
X43298Y-20175D01*
X43309Y-20190D01*
X43309Y-20250D01*
X43183Y-20018D02*
X43183Y-20093D01*
X43298Y-20100D01*
X43286Y-20093D01*
X43275Y-20078D01*
X43275Y-20040D01*
X43286Y-20025D01*
X43298Y-20018D01*
X43321Y-20010D01*
X43378Y-20010D01*
X43401Y-20018D01*
X43413Y-20025D01*
X43424Y-20040D01*
X43424Y-20078D01*
X43413Y-20093D01*
X43401Y-20100D01*
X43206Y-19950D02*
X43195Y-19943D01*
X43183Y-19928D01*
X43183Y-19890D01*
X43195Y-19875D01*
X43206Y-19868D01*
X43229Y-19860D01*
X43252Y-19860D01*
X43286Y-19868D01*
X43424Y-19958D01*
X43424Y-19860D01*
X44684Y-20160D02*
X44569Y-20212D01*
X44684Y-20250D02*
X44443Y-20250D01*
X44443Y-20190D01*
X44455Y-20175D01*
X44466Y-20167D01*
X44489Y-20160D01*
X44523Y-20160D01*
X44546Y-20167D01*
X44558Y-20175D01*
X44569Y-20190D01*
X44569Y-20250D01*
X44443Y-20018D02*
X44443Y-20093D01*
X44558Y-20100D01*
X44546Y-20093D01*
X44535Y-20078D01*
X44535Y-20040D01*
X44546Y-20025D01*
X44558Y-20018D01*
X44581Y-20010D01*
X44638Y-20010D01*
X44661Y-20018D01*
X44673Y-20025D01*
X44684Y-20040D01*
X44684Y-20078D01*
X44673Y-20093D01*
X44661Y-20100D01*
X44443Y-19958D02*
X44443Y-19860D01*
X44535Y-19913D01*
X44535Y-19890D01*
X44546Y-19875D01*
X44558Y-19868D01*
X44581Y-19860D01*
X44638Y-19860D01*
X44661Y-19868D01*
X44673Y-19875D01*
X44684Y-19890D01*
X44684Y-19935D01*
X44673Y-19950D01*
X44661Y-19958D01*
X40904Y-18506D02*
X40789Y-18558D01*
X40904Y-18596D02*
X40663Y-18596D01*
X40663Y-18536D01*
X40675Y-18521D01*
X40686Y-18513D01*
X40709Y-18506D01*
X40743Y-18506D01*
X40766Y-18513D01*
X40778Y-18521D01*
X40789Y-18536D01*
X40789Y-18596D01*
X40663Y-18364D02*
X40663Y-18439D01*
X40778Y-18446D01*
X40766Y-18439D01*
X40755Y-18424D01*
X40755Y-18386D01*
X40766Y-18371D01*
X40778Y-18364D01*
X40801Y-18356D01*
X40858Y-18356D01*
X40881Y-18364D01*
X40893Y-18371D01*
X40904Y-18386D01*
X40904Y-18424D01*
X40893Y-18439D01*
X40881Y-18446D01*
X40743Y-18221D02*
X40904Y-18221D01*
X40652Y-18259D02*
X40824Y-18296D01*
X40824Y-18199D01*
X42164Y-18506D02*
X42049Y-18558D01*
X42164Y-18596D02*
X41923Y-18596D01*
X41923Y-18536D01*
X41935Y-18521D01*
X41946Y-18513D01*
X41969Y-18506D01*
X42003Y-18506D01*
X42026Y-18513D01*
X42038Y-18521D01*
X42049Y-18536D01*
X42049Y-18596D01*
X41923Y-18364D02*
X41923Y-18439D01*
X42038Y-18446D01*
X42026Y-18439D01*
X42015Y-18424D01*
X42015Y-18386D01*
X42026Y-18371D01*
X42038Y-18364D01*
X42061Y-18356D01*
X42118Y-18356D01*
X42141Y-18364D01*
X42153Y-18371D01*
X42164Y-18386D01*
X42164Y-18424D01*
X42153Y-18439D01*
X42141Y-18446D01*
X41923Y-18214D02*
X41923Y-18289D01*
X42038Y-18296D01*
X42026Y-18289D01*
X42015Y-18274D01*
X42015Y-18236D01*
X42026Y-18221D01*
X42038Y-18214D01*
X42061Y-18206D01*
X42118Y-18206D01*
X42141Y-18214D01*
X42153Y-18221D01*
X42164Y-18236D01*
X42164Y-18274D01*
X42153Y-18289D01*
X42141Y-18296D01*
X43424Y-18506D02*
X43309Y-18558D01*
X43424Y-18596D02*
X43183Y-18596D01*
X43183Y-18536D01*
X43195Y-18521D01*
X43206Y-18513D01*
X43229Y-18506D01*
X43263Y-18506D01*
X43286Y-18513D01*
X43298Y-18521D01*
X43309Y-18536D01*
X43309Y-18596D01*
X43183Y-18364D02*
X43183Y-18439D01*
X43298Y-18446D01*
X43286Y-18439D01*
X43275Y-18424D01*
X43275Y-18386D01*
X43286Y-18371D01*
X43298Y-18364D01*
X43321Y-18356D01*
X43378Y-18356D01*
X43401Y-18364D01*
X43413Y-18371D01*
X43424Y-18386D01*
X43424Y-18424D01*
X43413Y-18439D01*
X43401Y-18446D01*
X43183Y-18221D02*
X43183Y-18251D01*
X43195Y-18266D01*
X43206Y-18274D01*
X43240Y-18289D01*
X43286Y-18296D01*
X43378Y-18296D01*
X43401Y-18289D01*
X43413Y-18281D01*
X43424Y-18266D01*
X43424Y-18236D01*
X43413Y-18221D01*
X43401Y-18214D01*
X43378Y-18206D01*
X43321Y-18206D01*
X43298Y-18214D01*
X43286Y-18221D01*
X43275Y-18236D01*
X43275Y-18266D01*
X43286Y-18281D01*
X43298Y-18289D01*
X43321Y-18296D01*
X44684Y-18506D02*
X44569Y-18558D01*
X44684Y-18596D02*
X44443Y-18596D01*
X44443Y-18536D01*
X44455Y-18521D01*
X44466Y-18513D01*
X44489Y-18506D01*
X44523Y-18506D01*
X44546Y-18513D01*
X44558Y-18521D01*
X44569Y-18536D01*
X44569Y-18596D01*
X44443Y-18364D02*
X44443Y-18439D01*
X44558Y-18446D01*
X44546Y-18439D01*
X44535Y-18424D01*
X44535Y-18386D01*
X44546Y-18371D01*
X44558Y-18364D01*
X44581Y-18356D01*
X44638Y-18356D01*
X44661Y-18364D01*
X44673Y-18371D01*
X44684Y-18386D01*
X44684Y-18424D01*
X44673Y-18439D01*
X44661Y-18446D01*
X44443Y-18304D02*
X44443Y-18199D01*
X44684Y-18266D01*
X47203Y-20160D02*
X47088Y-20212D01*
X47203Y-20250D02*
X46962Y-20250D01*
X46962Y-20190D01*
X46974Y-20175D01*
X46985Y-20167D01*
X47008Y-20160D01*
X47042Y-20160D01*
X47065Y-20167D01*
X47077Y-20175D01*
X47088Y-20190D01*
X47088Y-20250D01*
X46962Y-20018D02*
X46962Y-20093D01*
X47077Y-20100D01*
X47065Y-20093D01*
X47054Y-20078D01*
X47054Y-20040D01*
X47065Y-20025D01*
X47077Y-20018D01*
X47100Y-20010D01*
X47157Y-20010D01*
X47180Y-20018D01*
X47192Y-20025D01*
X47203Y-20040D01*
X47203Y-20078D01*
X47192Y-20093D01*
X47180Y-20100D01*
X47065Y-19920D02*
X47054Y-19935D01*
X47042Y-19943D01*
X47019Y-19950D01*
X47008Y-19950D01*
X46985Y-19943D01*
X46974Y-19935D01*
X46962Y-19920D01*
X46962Y-19890D01*
X46974Y-19875D01*
X46985Y-19868D01*
X47008Y-19860D01*
X47019Y-19860D01*
X47042Y-19868D01*
X47054Y-19875D01*
X47065Y-19890D01*
X47065Y-19920D01*
X47077Y-19935D01*
X47088Y-19943D01*
X47111Y-19950D01*
X47157Y-19950D01*
X47180Y-19943D01*
X47192Y-19935D01*
X47203Y-19920D01*
X47203Y-19890D01*
X47192Y-19875D01*
X47180Y-19868D01*
X47157Y-19860D01*
X47111Y-19860D01*
X47088Y-19868D01*
X47077Y-19875D01*
X47065Y-19890D01*
X45943Y-20160D02*
X45828Y-20212D01*
X45943Y-20250D02*
X45702Y-20250D01*
X45702Y-20190D01*
X45714Y-20175D01*
X45725Y-20167D01*
X45748Y-20160D01*
X45782Y-20160D01*
X45805Y-20167D01*
X45817Y-20175D01*
X45828Y-20190D01*
X45828Y-20250D01*
X45702Y-20018D02*
X45702Y-20093D01*
X45817Y-20100D01*
X45805Y-20093D01*
X45794Y-20078D01*
X45794Y-20040D01*
X45805Y-20025D01*
X45817Y-20018D01*
X45840Y-20010D01*
X45897Y-20010D01*
X45920Y-20018D01*
X45932Y-20025D01*
X45943Y-20040D01*
X45943Y-20078D01*
X45932Y-20093D01*
X45920Y-20100D01*
X45943Y-19935D02*
X45943Y-19905D01*
X45932Y-19890D01*
X45920Y-19883D01*
X45886Y-19868D01*
X45840Y-19860D01*
X45748Y-19860D01*
X45725Y-19868D01*
X45714Y-19875D01*
X45702Y-19890D01*
X45702Y-19920D01*
X45714Y-19935D01*
X45725Y-19943D01*
X45748Y-19950D01*
X45805Y-19950D01*
X45828Y-19943D01*
X45840Y-19935D01*
X45851Y-19920D01*
X45851Y-19890D01*
X45840Y-19875D01*
X45828Y-19868D01*
X45805Y-19860D01*
X47833Y-20160D02*
X47718Y-20212D01*
X47833Y-20250D02*
X47592Y-20250D01*
X47592Y-20190D01*
X47604Y-20175D01*
X47615Y-20167D01*
X47638Y-20160D01*
X47672Y-20160D01*
X47695Y-20167D01*
X47707Y-20175D01*
X47718Y-20190D01*
X47718Y-20250D01*
X47592Y-20025D02*
X47592Y-20055D01*
X47604Y-20070D01*
X47615Y-20078D01*
X47649Y-20093D01*
X47695Y-20100D01*
X47787Y-20100D01*
X47810Y-20093D01*
X47822Y-20085D01*
X47833Y-20070D01*
X47833Y-20040D01*
X47822Y-20025D01*
X47810Y-20018D01*
X47787Y-20010D01*
X47730Y-20010D01*
X47707Y-20018D01*
X47695Y-20025D01*
X47684Y-20040D01*
X47684Y-20070D01*
X47695Y-20085D01*
X47707Y-20093D01*
X47730Y-20100D01*
X47592Y-19913D02*
X47592Y-19898D01*
X47604Y-19883D01*
X47615Y-19875D01*
X47638Y-19868D01*
X47684Y-19860D01*
X47741Y-19860D01*
X47787Y-19868D01*
X47810Y-19875D01*
X47822Y-19883D01*
X47833Y-19898D01*
X47833Y-19913D01*
X47822Y-19928D01*
X47810Y-19935D01*
X47787Y-19943D01*
X47741Y-19950D01*
X47684Y-19950D01*
X47638Y-19943D01*
X47615Y-19935D01*
X47604Y-19928D01*
X47592Y-19913D01*
X46573Y-20160D02*
X46458Y-20212D01*
X46573Y-20250D02*
X46332Y-20250D01*
X46332Y-20190D01*
X46344Y-20175D01*
X46355Y-20167D01*
X46378Y-20160D01*
X46412Y-20160D01*
X46435Y-20167D01*
X46447Y-20175D01*
X46458Y-20190D01*
X46458Y-20250D01*
X46332Y-20025D02*
X46332Y-20055D01*
X46344Y-20070D01*
X46355Y-20078D01*
X46389Y-20093D01*
X46435Y-20100D01*
X46527Y-20100D01*
X46550Y-20093D01*
X46562Y-20085D01*
X46573Y-20070D01*
X46573Y-20040D01*
X46562Y-20025D01*
X46550Y-20018D01*
X46527Y-20010D01*
X46470Y-20010D01*
X46447Y-20018D01*
X46435Y-20025D01*
X46424Y-20040D01*
X46424Y-20070D01*
X46435Y-20085D01*
X46447Y-20093D01*
X46470Y-20100D01*
X46573Y-19860D02*
X46573Y-19950D01*
X46573Y-19905D02*
X46332Y-19905D01*
X46366Y-19920D01*
X46389Y-19935D01*
X46401Y-19950D01*
X45314Y-20160D02*
X45199Y-20212D01*
X45314Y-20250D02*
X45073Y-20250D01*
X45073Y-20190D01*
X45085Y-20175D01*
X45096Y-20167D01*
X45119Y-20160D01*
X45153Y-20160D01*
X45176Y-20167D01*
X45188Y-20175D01*
X45199Y-20190D01*
X45199Y-20250D01*
X45073Y-20025D02*
X45073Y-20055D01*
X45085Y-20070D01*
X45096Y-20078D01*
X45130Y-20093D01*
X45176Y-20100D01*
X45268Y-20100D01*
X45291Y-20093D01*
X45303Y-20085D01*
X45314Y-20070D01*
X45314Y-20040D01*
X45303Y-20025D01*
X45291Y-20018D01*
X45268Y-20010D01*
X45211Y-20010D01*
X45188Y-20018D01*
X45176Y-20025D01*
X45165Y-20040D01*
X45165Y-20070D01*
X45176Y-20085D01*
X45188Y-20093D01*
X45211Y-20100D01*
X45096Y-19950D02*
X45085Y-19943D01*
X45073Y-19928D01*
X45073Y-19890D01*
X45085Y-19875D01*
X45096Y-19868D01*
X45119Y-19860D01*
X45142Y-19860D01*
X45176Y-19868D01*
X45314Y-19958D01*
X45314Y-19860D01*
X47833Y-18506D02*
X47718Y-18558D01*
X47833Y-18596D02*
X47592Y-18596D01*
X47592Y-18536D01*
X47604Y-18521D01*
X47615Y-18513D01*
X47638Y-18506D01*
X47672Y-18506D01*
X47695Y-18513D01*
X47707Y-18521D01*
X47718Y-18536D01*
X47718Y-18596D01*
X47592Y-18371D02*
X47592Y-18401D01*
X47604Y-18416D01*
X47615Y-18424D01*
X47649Y-18439D01*
X47695Y-18446D01*
X47787Y-18446D01*
X47810Y-18439D01*
X47822Y-18431D01*
X47833Y-18416D01*
X47833Y-18386D01*
X47822Y-18371D01*
X47810Y-18364D01*
X47787Y-18356D01*
X47730Y-18356D01*
X47707Y-18364D01*
X47695Y-18371D01*
X47684Y-18386D01*
X47684Y-18416D01*
X47695Y-18431D01*
X47707Y-18439D01*
X47730Y-18446D01*
X47592Y-18304D02*
X47592Y-18206D01*
X47684Y-18259D01*
X47684Y-18236D01*
X47695Y-18221D01*
X47707Y-18214D01*
X47730Y-18206D01*
X47787Y-18206D01*
X47810Y-18214D01*
X47822Y-18221D01*
X47833Y-18236D01*
X47833Y-18281D01*
X47822Y-18296D01*
X47810Y-18304D01*
X46573Y-18506D02*
X46458Y-18558D01*
X46573Y-18596D02*
X46332Y-18596D01*
X46332Y-18536D01*
X46344Y-18521D01*
X46355Y-18513D01*
X46378Y-18506D01*
X46412Y-18506D01*
X46435Y-18513D01*
X46447Y-18521D01*
X46458Y-18536D01*
X46458Y-18596D01*
X46332Y-18371D02*
X46332Y-18401D01*
X46344Y-18416D01*
X46355Y-18424D01*
X46389Y-18439D01*
X46435Y-18446D01*
X46527Y-18446D01*
X46550Y-18439D01*
X46562Y-18431D01*
X46573Y-18416D01*
X46573Y-18386D01*
X46562Y-18371D01*
X46550Y-18364D01*
X46527Y-18356D01*
X46470Y-18356D01*
X46447Y-18364D01*
X46435Y-18371D01*
X46424Y-18386D01*
X46424Y-18416D01*
X46435Y-18431D01*
X46447Y-18439D01*
X46470Y-18446D01*
X46412Y-18221D02*
X46573Y-18221D01*
X46321Y-18259D02*
X46493Y-18296D01*
X46493Y-18199D01*
X45314Y-18506D02*
X45199Y-18558D01*
X45314Y-18596D02*
X45073Y-18596D01*
X45073Y-18536D01*
X45085Y-18521D01*
X45096Y-18513D01*
X45119Y-18506D01*
X45153Y-18506D01*
X45176Y-18513D01*
X45188Y-18521D01*
X45199Y-18536D01*
X45199Y-18596D01*
X45073Y-18371D02*
X45073Y-18401D01*
X45085Y-18416D01*
X45096Y-18424D01*
X45130Y-18439D01*
X45176Y-18446D01*
X45268Y-18446D01*
X45291Y-18439D01*
X45303Y-18431D01*
X45314Y-18416D01*
X45314Y-18386D01*
X45303Y-18371D01*
X45291Y-18364D01*
X45268Y-18356D01*
X45211Y-18356D01*
X45188Y-18364D01*
X45176Y-18371D01*
X45165Y-18386D01*
X45165Y-18416D01*
X45176Y-18431D01*
X45188Y-18439D01*
X45211Y-18446D01*
X45073Y-18214D02*
X45073Y-18289D01*
X45188Y-18296D01*
X45176Y-18289D01*
X45165Y-18274D01*
X45165Y-18236D01*
X45176Y-18221D01*
X45188Y-18214D01*
X45211Y-18206D01*
X45268Y-18206D01*
X45291Y-18214D01*
X45303Y-18221D01*
X45314Y-18236D01*
X45314Y-18274D01*
X45303Y-18289D01*
X45291Y-18296D01*
X47203Y-18506D02*
X47088Y-18558D01*
X47203Y-18596D02*
X46962Y-18596D01*
X46962Y-18536D01*
X46974Y-18521D01*
X46985Y-18513D01*
X47008Y-18506D01*
X47042Y-18506D01*
X47065Y-18513D01*
X47077Y-18521D01*
X47088Y-18536D01*
X47088Y-18596D01*
X46962Y-18371D02*
X46962Y-18401D01*
X46974Y-18416D01*
X46985Y-18424D01*
X47019Y-18439D01*
X47065Y-18446D01*
X47157Y-18446D01*
X47180Y-18439D01*
X47192Y-18431D01*
X47203Y-18416D01*
X47203Y-18386D01*
X47192Y-18371D01*
X47180Y-18364D01*
X47157Y-18356D01*
X47100Y-18356D01*
X47077Y-18364D01*
X47065Y-18371D01*
X47054Y-18386D01*
X47054Y-18416D01*
X47065Y-18431D01*
X47077Y-18439D01*
X47100Y-18446D01*
X46962Y-18221D02*
X46962Y-18251D01*
X46974Y-18266D01*
X46985Y-18274D01*
X47019Y-18289D01*
X47065Y-18296D01*
X47157Y-18296D01*
X47180Y-18289D01*
X47192Y-18281D01*
X47203Y-18266D01*
X47203Y-18236D01*
X47192Y-18221D01*
X47180Y-18214D01*
X47157Y-18206D01*
X47100Y-18206D01*
X47077Y-18214D01*
X47065Y-18221D01*
X47054Y-18236D01*
X47054Y-18266D01*
X47065Y-18281D01*
X47077Y-18289D01*
X47100Y-18296D01*
X45943Y-18506D02*
X45828Y-18558D01*
X45943Y-18596D02*
X45702Y-18596D01*
X45702Y-18536D01*
X45714Y-18521D01*
X45725Y-18513D01*
X45748Y-18506D01*
X45782Y-18506D01*
X45805Y-18513D01*
X45817Y-18521D01*
X45828Y-18536D01*
X45828Y-18596D01*
X45702Y-18371D02*
X45702Y-18401D01*
X45714Y-18416D01*
X45725Y-18424D01*
X45759Y-18439D01*
X45805Y-18446D01*
X45897Y-18446D01*
X45920Y-18439D01*
X45932Y-18431D01*
X45943Y-18416D01*
X45943Y-18386D01*
X45932Y-18371D01*
X45920Y-18364D01*
X45897Y-18356D01*
X45840Y-18356D01*
X45817Y-18364D01*
X45805Y-18371D01*
X45794Y-18386D01*
X45794Y-18416D01*
X45805Y-18431D01*
X45817Y-18439D01*
X45840Y-18446D01*
X45702Y-18304D02*
X45702Y-18199D01*
X45943Y-18266D01*
X51535Y-20845D02*
X51483Y-20730D01*
X51445Y-20845D02*
X51445Y-20604D01*
X51505Y-20604D01*
X51520Y-20616D01*
X51528Y-20627D01*
X51535Y-20650D01*
X51535Y-20684D01*
X51528Y-20707D01*
X51520Y-20719D01*
X51505Y-20730D01*
X51445Y-20730D01*
X51670Y-20604D02*
X51640Y-20604D01*
X51625Y-20616D01*
X51617Y-20627D01*
X51602Y-20661D01*
X51595Y-20707D01*
X51595Y-20799D01*
X51602Y-20822D01*
X51610Y-20834D01*
X51625Y-20845D01*
X51655Y-20845D01*
X51670Y-20834D01*
X51677Y-20822D01*
X51685Y-20799D01*
X51685Y-20742D01*
X51677Y-20719D01*
X51670Y-20707D01*
X51655Y-20696D01*
X51625Y-20696D01*
X51610Y-20707D01*
X51602Y-20719D01*
X51595Y-20742D01*
X51775Y-20707D02*
X51760Y-20696D01*
X51752Y-20684D01*
X51745Y-20661D01*
X51745Y-20650D01*
X51752Y-20627D01*
X51760Y-20616D01*
X51775Y-20604D01*
X51805Y-20604D01*
X51820Y-20616D01*
X51827Y-20627D01*
X51835Y-20650D01*
X51835Y-20661D01*
X51827Y-20684D01*
X51820Y-20696D01*
X51805Y-20707D01*
X51775Y-20707D01*
X51760Y-20719D01*
X51752Y-20730D01*
X51745Y-20753D01*
X51745Y-20799D01*
X51752Y-20822D01*
X51760Y-20834D01*
X51775Y-20845D01*
X51805Y-20845D01*
X51820Y-20834D01*
X51827Y-20822D01*
X51835Y-20799D01*
X51835Y-20753D01*
X51827Y-20730D01*
X51820Y-20719D01*
X51805Y-20707D01*
G54D13*
X56090Y-20006D02*
X56076Y-20020D01*
X56033Y-20034D01*
X56004Y-20034D01*
X55961Y-20020D01*
X55933Y-19992D01*
X55918Y-19963D01*
X55904Y-19906D01*
X55904Y-19863D01*
X55918Y-19806D01*
X55933Y-19777D01*
X55961Y-19749D01*
X56004Y-19734D01*
X56033Y-19734D01*
X56076Y-19749D01*
X56090Y-19763D01*
X56376Y-20034D02*
X56204Y-20034D01*
X56290Y-20034D02*
X56290Y-19734D01*
X56261Y-19777D01*
X56233Y-19806D01*
X56204Y-19820D01*
X56662Y-20034D02*
X56490Y-20034D01*
X56576Y-20034D02*
X56576Y-19734D01*
X56547Y-19777D01*
X56519Y-19806D01*
X56490Y-19820D01*
G54D15*
X63995Y-22923D02*
X64052Y-22942D01*
X64148Y-22942D01*
X64186Y-22923D01*
X64205Y-22904D01*
X64224Y-22866D01*
X64224Y-22828D01*
X64205Y-22790D01*
X64186Y-22770D01*
X64148Y-22751D01*
X64071Y-22732D01*
X64033Y-22713D01*
X64014Y-22694D01*
X63995Y-22656D01*
X63995Y-22618D01*
X64014Y-22580D01*
X64033Y-22561D01*
X64071Y-22542D01*
X64167Y-22542D01*
X64224Y-22561D01*
X64357Y-22542D02*
X64452Y-22942D01*
X64529Y-22656D01*
X64605Y-22942D01*
X64700Y-22542D01*
X64814Y-22542D02*
X65062Y-22542D01*
X64928Y-22694D01*
X64986Y-22694D01*
X65024Y-22713D01*
X65043Y-22732D01*
X65062Y-22770D01*
X65062Y-22866D01*
X65043Y-22904D01*
X65024Y-22923D01*
X64986Y-22942D01*
X64871Y-22942D01*
X64833Y-22923D01*
X64814Y-22904D01*
X20845Y-20915D02*
X20902Y-20934D01*
X20998Y-20934D01*
X21036Y-20915D01*
X21055Y-20896D01*
X21074Y-20858D01*
X21074Y-20820D01*
X21055Y-20782D01*
X21036Y-20762D01*
X20998Y-20743D01*
X20921Y-20724D01*
X20883Y-20705D01*
X20864Y-20686D01*
X20845Y-20648D01*
X20845Y-20610D01*
X20864Y-20572D01*
X20883Y-20553D01*
X20921Y-20534D01*
X21017Y-20534D01*
X21074Y-20553D01*
X21207Y-20534D02*
X21302Y-20934D01*
X21379Y-20648D01*
X21455Y-20934D01*
X21550Y-20534D01*
X21912Y-20934D02*
X21683Y-20934D01*
X21797Y-20934D02*
X21797Y-20534D01*
X21759Y-20591D01*
X21721Y-20629D01*
X21683Y-20648D01*
X20845Y-26703D02*
X20902Y-26722D01*
X20998Y-26722D01*
X21036Y-26703D01*
X21055Y-26684D01*
X21074Y-26646D01*
X21074Y-26608D01*
X21055Y-26570D01*
X21036Y-26550D01*
X20998Y-26531D01*
X20921Y-26512D01*
X20883Y-26493D01*
X20864Y-26474D01*
X20845Y-26436D01*
X20845Y-26398D01*
X20864Y-26360D01*
X20883Y-26341D01*
X20921Y-26322D01*
X21017Y-26322D01*
X21074Y-26341D01*
X21207Y-26322D02*
X21302Y-26722D01*
X21379Y-26436D01*
X21455Y-26722D01*
X21550Y-26322D01*
X21874Y-26455D02*
X21874Y-26722D01*
X21778Y-26303D02*
X21683Y-26589D01*
X21931Y-26589D01*
G54D17*
X34918Y-21160D02*
X34866Y-21045D01*
X34828Y-21160D02*
X34828Y-20919D01*
X34888Y-20919D01*
X34903Y-20931D01*
X34911Y-20942D01*
X34918Y-20965D01*
X34918Y-20999D01*
X34911Y-21022D01*
X34903Y-21034D01*
X34888Y-21045D01*
X34828Y-21045D01*
X34970Y-20919D02*
X35075Y-20919D01*
X35008Y-21160D01*
X35218Y-21160D02*
X35128Y-21160D01*
X35173Y-21160D02*
X35173Y-20919D01*
X35158Y-20953D01*
X35143Y-20976D01*
X35128Y-20988D01*
X34879Y-22814D02*
X34827Y-22699D01*
X34789Y-22814D02*
X34789Y-22573D01*
X34849Y-22573D01*
X34864Y-22585D01*
X34872Y-22596D01*
X34879Y-22619D01*
X34879Y-22653D01*
X34872Y-22676D01*
X34864Y-22688D01*
X34849Y-22699D01*
X34789Y-22699D01*
X34931Y-22573D02*
X35036Y-22573D01*
X34969Y-22814D01*
X35126Y-22573D02*
X35141Y-22573D01*
X35156Y-22585D01*
X35164Y-22596D01*
X35171Y-22619D01*
X35179Y-22665D01*
X35179Y-22722D01*
X35171Y-22768D01*
X35164Y-22791D01*
X35156Y-22803D01*
X35141Y-22814D01*
X35126Y-22814D01*
X35111Y-22803D01*
X35104Y-22791D01*
X35096Y-22768D01*
X35089Y-22722D01*
X35089Y-22665D01*
X35096Y-22619D01*
X35104Y-22596D01*
X35111Y-22585D01*
X35126Y-22573D01*
X67242Y-30136D02*
X67190Y-30021D01*
X67152Y-30136D02*
X67152Y-29895D01*
X67212Y-29895D01*
X67227Y-29907D01*
X67235Y-29918D01*
X67242Y-29941D01*
X67242Y-29975D01*
X67235Y-29998D01*
X67227Y-30010D01*
X67212Y-30021D01*
X67152Y-30021D01*
X67377Y-29895D02*
X67347Y-29895D01*
X67332Y-29907D01*
X67324Y-29918D01*
X67309Y-29952D01*
X67302Y-29998D01*
X67302Y-30090D01*
X67309Y-30113D01*
X67317Y-30125D01*
X67332Y-30136D01*
X67362Y-30136D01*
X67377Y-30125D01*
X67384Y-30113D01*
X67392Y-30090D01*
X67392Y-30033D01*
X67384Y-30010D01*
X67377Y-29998D01*
X67362Y-29987D01*
X67332Y-29987D01*
X67317Y-29998D01*
X67309Y-30010D01*
X67302Y-30033D01*
X67467Y-30136D02*
X67497Y-30136D01*
X67512Y-30125D01*
X67519Y-30113D01*
X67534Y-30079D01*
X67542Y-30033D01*
X67542Y-29941D01*
X67534Y-29918D01*
X67527Y-29907D01*
X67512Y-29895D01*
X67482Y-29895D01*
X67467Y-29907D01*
X67459Y-29918D01*
X67452Y-29941D01*
X67452Y-29998D01*
X67459Y-30021D01*
X67467Y-30033D01*
X67482Y-30044D01*
X67512Y-30044D01*
X67527Y-30033D01*
X67534Y-30021D01*
X67542Y-29998D01*
X27660Y-23424D02*
X27660Y-23183D01*
X27698Y-23183D01*
X27720Y-23195D01*
X27735Y-23217D01*
X27743Y-23240D01*
X27750Y-23286D01*
X27750Y-23321D01*
X27743Y-23367D01*
X27735Y-23390D01*
X27720Y-23413D01*
X27698Y-23424D01*
X27660Y-23424D01*
X27810Y-23206D02*
X27817Y-23195D01*
X27832Y-23183D01*
X27870Y-23183D01*
X27885Y-23195D01*
X27892Y-23206D01*
X27900Y-23229D01*
X27900Y-23252D01*
X27892Y-23286D01*
X27802Y-23424D01*
X27900Y-23424D01*
X61321Y-25373D02*
X61321Y-25132D01*
X61359Y-25132D01*
X61381Y-25144D01*
X61396Y-25166D01*
X61404Y-25189D01*
X61411Y-25235D01*
X61411Y-25270D01*
X61404Y-25316D01*
X61396Y-25339D01*
X61381Y-25362D01*
X61359Y-25373D01*
X61321Y-25373D01*
X61463Y-25132D02*
X61561Y-25132D01*
X61508Y-25224D01*
X61531Y-25224D01*
X61546Y-25235D01*
X61553Y-25247D01*
X61561Y-25270D01*
X61561Y-25327D01*
X61553Y-25350D01*
X61546Y-25362D01*
X61531Y-25373D01*
X61486Y-25373D01*
X61471Y-25362D01*
X61463Y-25350D01*
X68924Y-31839D02*
X68872Y-31724D01*
X68834Y-31839D02*
X68834Y-31598D01*
X68894Y-31598D01*
X68909Y-31610D01*
X68917Y-31621D01*
X68924Y-31644D01*
X68924Y-31678D01*
X68917Y-31701D01*
X68909Y-31713D01*
X68894Y-31724D01*
X68834Y-31724D01*
X68976Y-31598D02*
X69081Y-31598D01*
X69014Y-31839D01*
X69126Y-31598D02*
X69224Y-31598D01*
X69171Y-31690D01*
X69194Y-31690D01*
X69209Y-31701D01*
X69216Y-31713D01*
X69224Y-31736D01*
X69224Y-31793D01*
X69216Y-31816D01*
X69209Y-31828D01*
X69194Y-31839D01*
X69149Y-31839D01*
X69134Y-31828D01*
X69126Y-31816D01*
X66198Y-32010D02*
X66083Y-32062D01*
X66198Y-32100D02*
X65957Y-32100D01*
X65957Y-32040D01*
X65969Y-32025D01*
X65980Y-32017D01*
X66003Y-32010D01*
X66037Y-32010D01*
X66060Y-32017D01*
X66072Y-32025D01*
X66083Y-32040D01*
X66083Y-32100D01*
X65957Y-31958D02*
X65957Y-31853D01*
X66198Y-31920D01*
X66037Y-31725D02*
X66198Y-31725D01*
X65946Y-31763D02*
X66118Y-31800D01*
X66118Y-31703D01*
X66926Y-32853D02*
X66874Y-32738D01*
X66836Y-32853D02*
X66836Y-32612D01*
X66896Y-32612D01*
X66911Y-32624D01*
X66919Y-32635D01*
X66926Y-32658D01*
X66926Y-32692D01*
X66919Y-32715D01*
X66911Y-32727D01*
X66896Y-32738D01*
X66836Y-32738D01*
X66978Y-32612D02*
X67083Y-32612D01*
X67016Y-32853D01*
X67136Y-32635D02*
X67143Y-32624D01*
X67158Y-32612D01*
X67196Y-32612D01*
X67211Y-32624D01*
X67218Y-32635D01*
X67226Y-32658D01*
X67226Y-32681D01*
X67218Y-32715D01*
X67128Y-32853D01*
X67226Y-32853D01*
X63053Y-19113D02*
X63053Y-18872D01*
X63091Y-18872D01*
X63113Y-18884D01*
X63128Y-18906D01*
X63136Y-18929D01*
X63143Y-18975D01*
X63143Y-19010D01*
X63136Y-19056D01*
X63128Y-19079D01*
X63113Y-19102D01*
X63091Y-19113D01*
X63053Y-19113D01*
X63285Y-18872D02*
X63210Y-18872D01*
X63203Y-18987D01*
X63210Y-18975D01*
X63225Y-18964D01*
X63263Y-18964D01*
X63278Y-18975D01*
X63285Y-18987D01*
X63293Y-19010D01*
X63293Y-19067D01*
X63285Y-19090D01*
X63278Y-19102D01*
X63263Y-19113D01*
X63225Y-19113D01*
X63210Y-19102D01*
X63203Y-19090D01*
X27640Y-20058D02*
X27640Y-19817D01*
X27678Y-19817D01*
X27700Y-19829D01*
X27715Y-19851D01*
X27723Y-19874D01*
X27730Y-19920D01*
X27730Y-19955D01*
X27723Y-20001D01*
X27715Y-20024D01*
X27700Y-20047D01*
X27678Y-20058D01*
X27640Y-20058D01*
X27782Y-19817D02*
X27887Y-19817D01*
X27820Y-20058D01*
X63053Y-16436D02*
X63053Y-16195D01*
X63091Y-16195D01*
X63113Y-16207D01*
X63128Y-16229D01*
X63136Y-16252D01*
X63143Y-16298D01*
X63143Y-16333D01*
X63136Y-16379D01*
X63128Y-16402D01*
X63113Y-16425D01*
X63091Y-16436D01*
X63053Y-16436D01*
X63278Y-16195D02*
X63248Y-16195D01*
X63233Y-16207D01*
X63225Y-16218D01*
X63210Y-16252D01*
X63203Y-16298D01*
X63203Y-16390D01*
X63210Y-16413D01*
X63218Y-16425D01*
X63233Y-16436D01*
X63263Y-16436D01*
X63278Y-16425D01*
X63285Y-16413D01*
X63293Y-16390D01*
X63293Y-16333D01*
X63285Y-16310D01*
X63278Y-16298D01*
X63263Y-16287D01*
X63233Y-16287D01*
X63218Y-16298D01*
X63210Y-16310D01*
X63203Y-16333D01*
X27660Y-24014D02*
X27660Y-23773D01*
X27698Y-23773D01*
X27720Y-23785D01*
X27735Y-23807D01*
X27743Y-23830D01*
X27750Y-23876D01*
X27750Y-23911D01*
X27743Y-23957D01*
X27735Y-23980D01*
X27720Y-24003D01*
X27698Y-24014D01*
X27660Y-24014D01*
X27840Y-23876D02*
X27825Y-23865D01*
X27817Y-23853D01*
X27810Y-23830D01*
X27810Y-23819D01*
X27817Y-23796D01*
X27825Y-23785D01*
X27840Y-23773D01*
X27870Y-23773D01*
X27885Y-23785D01*
X27892Y-23796D01*
X27900Y-23819D01*
X27900Y-23830D01*
X27892Y-23853D01*
X27885Y-23865D01*
X27870Y-23876D01*
X27840Y-23876D01*
X27825Y-23888D01*
X27817Y-23899D01*
X27810Y-23922D01*
X27810Y-23968D01*
X27817Y-23991D01*
X27825Y-24003D01*
X27840Y-24014D01*
X27870Y-24014D01*
X27885Y-24003D01*
X27892Y-23991D01*
X27900Y-23968D01*
X27900Y-23922D01*
X27892Y-23899D01*
X27885Y-23888D01*
X27870Y-23876D01*
X68934Y-32420D02*
X68882Y-32305D01*
X68844Y-32420D02*
X68844Y-32179D01*
X68904Y-32179D01*
X68919Y-32191D01*
X68927Y-32202D01*
X68934Y-32225D01*
X68934Y-32259D01*
X68927Y-32282D01*
X68919Y-32294D01*
X68904Y-32305D01*
X68844Y-32305D01*
X68986Y-32179D02*
X69091Y-32179D01*
X69024Y-32420D01*
X69226Y-32179D02*
X69151Y-32179D01*
X69144Y-32294D01*
X69151Y-32282D01*
X69166Y-32271D01*
X69204Y-32271D01*
X69219Y-32282D01*
X69226Y-32294D01*
X69234Y-32317D01*
X69234Y-32374D01*
X69226Y-32397D01*
X69219Y-32409D01*
X69204Y-32420D01*
X69166Y-32420D01*
X69151Y-32409D01*
X69144Y-32397D01*
X61399Y-21947D02*
X61399Y-21706D01*
X61437Y-21706D01*
X61459Y-21718D01*
X61474Y-21740D01*
X61482Y-21763D01*
X61489Y-21809D01*
X61489Y-21844D01*
X61482Y-21890D01*
X61474Y-21913D01*
X61459Y-21936D01*
X61437Y-21947D01*
X61399Y-21947D01*
X61624Y-21786D02*
X61624Y-21947D01*
X61586Y-21695D02*
X61549Y-21867D01*
X61646Y-21867D01*
X27585Y-21750D02*
X27585Y-21509D01*
X27623Y-21509D01*
X27645Y-21521D01*
X27660Y-21543D01*
X27668Y-21566D01*
X27675Y-21612D01*
X27675Y-21647D01*
X27668Y-21693D01*
X27660Y-21716D01*
X27645Y-21739D01*
X27623Y-21750D01*
X27585Y-21750D01*
X27825Y-21750D02*
X27735Y-21750D01*
X27780Y-21750D02*
X27780Y-21509D01*
X27765Y-21543D01*
X27750Y-21566D01*
X27735Y-21578D01*
X27967Y-21509D02*
X27892Y-21509D01*
X27885Y-21624D01*
X27892Y-21612D01*
X27907Y-21601D01*
X27945Y-21601D01*
X27960Y-21612D01*
X27967Y-21624D01*
X27975Y-21647D01*
X27975Y-21704D01*
X27967Y-21727D01*
X27960Y-21739D01*
X27945Y-21750D01*
X27907Y-21750D01*
X27892Y-21739D01*
X27885Y-21727D01*
X62978Y-17223D02*
X62978Y-16982D01*
X63016Y-16982D01*
X63038Y-16994D01*
X63053Y-17016D01*
X63061Y-17039D01*
X63068Y-17085D01*
X63068Y-17120D01*
X63061Y-17166D01*
X63053Y-17189D01*
X63038Y-17212D01*
X63016Y-17223D01*
X62978Y-17223D01*
X63218Y-17223D02*
X63128Y-17223D01*
X63173Y-17223D02*
X63173Y-16982D01*
X63158Y-17016D01*
X63143Y-17039D01*
X63128Y-17051D01*
X63270Y-16982D02*
X63368Y-16982D01*
X63315Y-17074D01*
X63338Y-17074D01*
X63353Y-17085D01*
X63360Y-17097D01*
X63368Y-17120D01*
X63368Y-17177D01*
X63360Y-17200D01*
X63353Y-17212D01*
X63338Y-17223D01*
X63293Y-17223D01*
X63278Y-17212D01*
X63270Y-17200D01*
X27581Y-19443D02*
X27581Y-19202D01*
X27619Y-19202D01*
X27641Y-19214D01*
X27656Y-19236D01*
X27664Y-19259D01*
X27671Y-19305D01*
X27671Y-19340D01*
X27664Y-19386D01*
X27656Y-19409D01*
X27641Y-19432D01*
X27619Y-19443D01*
X27581Y-19443D01*
X27821Y-19443D02*
X27731Y-19443D01*
X27776Y-19443D02*
X27776Y-19202D01*
X27761Y-19236D01*
X27746Y-19259D01*
X27731Y-19271D01*
X27956Y-19282D02*
X27956Y-19443D01*
X27918Y-19191D02*
X27881Y-19363D01*
X27978Y-19363D01*
X62978Y-18286D02*
X62978Y-18045D01*
X63016Y-18045D01*
X63038Y-18057D01*
X63053Y-18079D01*
X63061Y-18102D01*
X63068Y-18148D01*
X63068Y-18183D01*
X63061Y-18229D01*
X63053Y-18252D01*
X63038Y-18275D01*
X63016Y-18286D01*
X62978Y-18286D01*
X63218Y-18286D02*
X63128Y-18286D01*
X63173Y-18286D02*
X63173Y-18045D01*
X63158Y-18079D01*
X63143Y-18102D01*
X63128Y-18114D01*
X63278Y-18068D02*
X63285Y-18057D01*
X63300Y-18045D01*
X63338Y-18045D01*
X63353Y-18057D01*
X63360Y-18068D01*
X63368Y-18091D01*
X63368Y-18114D01*
X63360Y-18148D01*
X63270Y-18286D01*
X63368Y-18286D01*
X62978Y-20766D02*
X62978Y-20525D01*
X63016Y-20525D01*
X63038Y-20537D01*
X63053Y-20559D01*
X63061Y-20582D01*
X63068Y-20628D01*
X63068Y-20663D01*
X63061Y-20709D01*
X63053Y-20732D01*
X63038Y-20755D01*
X63016Y-20766D01*
X62978Y-20766D01*
X63218Y-20766D02*
X63128Y-20766D01*
X63173Y-20766D02*
X63173Y-20525D01*
X63158Y-20559D01*
X63143Y-20582D01*
X63128Y-20594D01*
X63368Y-20766D02*
X63278Y-20766D01*
X63323Y-20766D02*
X63323Y-20525D01*
X63308Y-20559D01*
X63293Y-20582D01*
X63278Y-20594D01*
X64513Y-19782D02*
X64513Y-19541D01*
X64551Y-19541D01*
X64573Y-19553D01*
X64588Y-19575D01*
X64596Y-19598D01*
X64603Y-19644D01*
X64603Y-19679D01*
X64596Y-19725D01*
X64588Y-19748D01*
X64573Y-19771D01*
X64551Y-19782D01*
X64513Y-19782D01*
X64753Y-19782D02*
X64663Y-19782D01*
X64708Y-19782D02*
X64708Y-19541D01*
X64693Y-19575D01*
X64678Y-19598D01*
X64663Y-19610D01*
X64850Y-19541D02*
X64865Y-19541D01*
X64880Y-19553D01*
X64888Y-19564D01*
X64895Y-19587D01*
X64903Y-19633D01*
X64903Y-19690D01*
X64895Y-19736D01*
X64888Y-19759D01*
X64880Y-19771D01*
X64865Y-19782D01*
X64850Y-19782D01*
X64835Y-19771D01*
X64828Y-19759D01*
X64820Y-19736D01*
X64813Y-19690D01*
X64813Y-19633D01*
X64820Y-19587D01*
X64828Y-19564D01*
X64835Y-19553D01*
X64850Y-19541D01*
X27660Y-22341D02*
X27660Y-22100D01*
X27698Y-22100D01*
X27720Y-22112D01*
X27735Y-22134D01*
X27743Y-22157D01*
X27750Y-22203D01*
X27750Y-22238D01*
X27743Y-22284D01*
X27735Y-22307D01*
X27720Y-22330D01*
X27698Y-22341D01*
X27660Y-22341D01*
X27825Y-22341D02*
X27855Y-22341D01*
X27870Y-22330D01*
X27877Y-22318D01*
X27892Y-22284D01*
X27900Y-22238D01*
X27900Y-22146D01*
X27892Y-22123D01*
X27885Y-22112D01*
X27870Y-22100D01*
X27840Y-22100D01*
X27825Y-22112D01*
X27817Y-22123D01*
X27810Y-22146D01*
X27810Y-22203D01*
X27817Y-22226D01*
X27825Y-22238D01*
X27840Y-22249D01*
X27870Y-22249D01*
X27885Y-22238D01*
X27892Y-22226D01*
X27900Y-22203D01*
X66950Y-32302D02*
X66950Y-32061D01*
X66988Y-32061D01*
X67010Y-32073D01*
X67025Y-32095D01*
X67033Y-32118D01*
X67040Y-32164D01*
X67040Y-32199D01*
X67033Y-32245D01*
X67025Y-32268D01*
X67010Y-32291D01*
X66988Y-32302D01*
X66950Y-32302D01*
X67190Y-32302D02*
X67100Y-32302D01*
X67145Y-32302D02*
X67145Y-32061D01*
X67130Y-32095D01*
X67115Y-32118D01*
X67100Y-32130D01*
G54D18*
X50071Y-18094D02*
X50071Y-17413D01*
X50234Y-17413D01*
X50275Y-17446D01*
X50295Y-17478D01*
X50315Y-17543D01*
X50315Y-17640D01*
X50295Y-17705D01*
X50275Y-17737D01*
X50234Y-17770D01*
X50071Y-17770D01*
X50723Y-18094D02*
X50479Y-18094D01*
X50601Y-18094D02*
X50601Y-17413D01*
X50560Y-17510D01*
X50519Y-17575D01*
X50479Y-17608D01*
X51131Y-18094D02*
X50887Y-18094D01*
X51009Y-18094D02*
X51009Y-17413D01*
X50968Y-17510D01*
X50927Y-17575D01*
X50887Y-17608D01*
X54881Y-25614D02*
X54881Y-24933D01*
X55044Y-24933D01*
X55085Y-24966D01*
X55105Y-24998D01*
X55125Y-25063D01*
X55125Y-25160D01*
X55105Y-25225D01*
X55085Y-25257D01*
X55044Y-25290D01*
X54881Y-25290D01*
X55329Y-25614D02*
X55411Y-25614D01*
X55452Y-25582D01*
X55472Y-25549D01*
X55513Y-25452D01*
X55533Y-25322D01*
X55533Y-25063D01*
X55513Y-24998D01*
X55492Y-24966D01*
X55452Y-24933D01*
X55370Y-24933D01*
X55329Y-24966D01*
X55309Y-24998D01*
X55289Y-25063D01*
X55289Y-25225D01*
X55309Y-25290D01*
X55329Y-25322D01*
X55370Y-25355D01*
X55452Y-25355D01*
X55492Y-25322D01*
X55513Y-25290D01*
X55533Y-25225D01*
G54D17*
X68934Y-32971D02*
X68882Y-32856D01*
X68844Y-32971D02*
X68844Y-32730D01*
X68904Y-32730D01*
X68919Y-32742D01*
X68927Y-32753D01*
X68934Y-32776D01*
X68934Y-32810D01*
X68927Y-32833D01*
X68919Y-32845D01*
X68904Y-32856D01*
X68844Y-32856D01*
X68986Y-32730D02*
X69091Y-32730D01*
X69024Y-32971D01*
X69219Y-32730D02*
X69189Y-32730D01*
X69174Y-32742D01*
X69166Y-32753D01*
X69151Y-32787D01*
X69144Y-32833D01*
X69144Y-32925D01*
X69151Y-32948D01*
X69159Y-32960D01*
X69174Y-32971D01*
X69204Y-32971D01*
X69219Y-32960D01*
X69226Y-32948D01*
X69234Y-32925D01*
X69234Y-32868D01*
X69226Y-32845D01*
X69219Y-32833D01*
X69204Y-32822D01*
X69174Y-32822D01*
X69159Y-32833D01*
X69151Y-32845D01*
X69144Y-32868D01*
G54D15*
X52117Y-26927D02*
X52384Y-27327D01*
X52384Y-26927D02*
X52117Y-27327D01*
X52746Y-27327D02*
X52517Y-27327D01*
X52631Y-27327D02*
X52631Y-26927D01*
X52593Y-26984D01*
X52555Y-27022D01*
X52517Y-27041D01*
G54D17*
X53403Y-24044D02*
X53351Y-23929D01*
X53313Y-24044D02*
X53313Y-23803D01*
X53373Y-23803D01*
X53388Y-23815D01*
X53396Y-23826D01*
X53403Y-23849D01*
X53403Y-23883D01*
X53396Y-23906D01*
X53388Y-23918D01*
X53373Y-23929D01*
X53313Y-23929D01*
X53455Y-23803D02*
X53560Y-23803D01*
X53493Y-24044D01*
X53605Y-23803D02*
X53710Y-23803D01*
X53643Y-24044D01*
X53403Y-24605D02*
X53351Y-24490D01*
X53313Y-24605D02*
X53313Y-24364D01*
X53373Y-24364D01*
X53388Y-24376D01*
X53396Y-24387D01*
X53403Y-24410D01*
X53403Y-24444D01*
X53396Y-24467D01*
X53388Y-24479D01*
X53373Y-24490D01*
X53313Y-24490D01*
X53455Y-24364D02*
X53560Y-24364D01*
X53493Y-24605D01*
X53643Y-24467D02*
X53628Y-24456D01*
X53620Y-24444D01*
X53613Y-24421D01*
X53613Y-24410D01*
X53620Y-24387D01*
X53628Y-24376D01*
X53643Y-24364D01*
X53673Y-24364D01*
X53688Y-24376D01*
X53695Y-24387D01*
X53703Y-24410D01*
X53703Y-24421D01*
X53695Y-24444D01*
X53688Y-24456D01*
X53673Y-24467D01*
X53643Y-24467D01*
X53628Y-24479D01*
X53620Y-24490D01*
X53613Y-24513D01*
X53613Y-24559D01*
X53620Y-24582D01*
X53628Y-24594D01*
X53643Y-24605D01*
X53673Y-24605D01*
X53688Y-24594D01*
X53695Y-24582D01*
X53703Y-24559D01*
X53703Y-24513D01*
X53695Y-24490D01*
X53688Y-24479D01*
X53673Y-24467D01*
G54D18*
X49519Y-23779D02*
X49519Y-23098D01*
X49682Y-23098D01*
X49723Y-23131D01*
X49743Y-23163D01*
X49763Y-23228D01*
X49763Y-23325D01*
X49743Y-23390D01*
X49723Y-23422D01*
X49682Y-23455D01*
X49519Y-23455D01*
X50171Y-23779D02*
X49927Y-23779D01*
X50049Y-23779D02*
X50049Y-23098D01*
X50008Y-23195D01*
X49967Y-23260D01*
X49927Y-23293D01*
X50538Y-23098D02*
X50457Y-23098D01*
X50416Y-23131D01*
X50396Y-23163D01*
X50355Y-23260D01*
X50335Y-23390D01*
X50335Y-23649D01*
X50355Y-23714D01*
X50375Y-23747D01*
X50416Y-23779D01*
X50498Y-23779D01*
X50538Y-23747D01*
X50559Y-23714D01*
X50579Y-23649D01*
X50579Y-23487D01*
X50559Y-23422D01*
X50538Y-23390D01*
X50498Y-23358D01*
X50416Y-23358D01*
X50375Y-23390D01*
X50355Y-23422D01*
X50335Y-23487D01*
X51813Y-23261D02*
X51813Y-22580D01*
X51976Y-22580D01*
X52017Y-22613D01*
X52037Y-22645D01*
X52057Y-22710D01*
X52057Y-22807D01*
X52037Y-22872D01*
X52017Y-22904D01*
X51976Y-22937D01*
X51813Y-22937D01*
X52465Y-23261D02*
X52221Y-23261D01*
X52343Y-23261D02*
X52343Y-22580D01*
X52302Y-22677D01*
X52261Y-22742D01*
X52221Y-22775D01*
X52608Y-22580D02*
X52893Y-22580D01*
X52710Y-23261D01*
G54D14*
X68957Y-31671D02*
X68929Y-31657D01*
X68900Y-31628D01*
X68857Y-31585D01*
X68829Y-31571D01*
X68800Y-31571D01*
X68815Y-31642D02*
X68786Y-31628D01*
X68757Y-31600D01*
X68743Y-31542D01*
X68743Y-31442D01*
X68757Y-31385D01*
X68786Y-31357D01*
X68815Y-31342D01*
X68872Y-31342D01*
X68900Y-31357D01*
X68929Y-31385D01*
X68943Y-31442D01*
X68943Y-31542D01*
X68929Y-31600D01*
X68900Y-31628D01*
X68872Y-31642D01*
X68815Y-31642D01*
X69043Y-31342D02*
X69229Y-31342D01*
X69129Y-31457D01*
X69171Y-31457D01*
X69200Y-31471D01*
X69214Y-31485D01*
X69229Y-31514D01*
X69229Y-31585D01*
X69214Y-31614D01*
X69200Y-31628D01*
X69171Y-31642D01*
X69086Y-31642D01*
X69057Y-31628D01*
X69043Y-31614D01*
X67017Y-32242D02*
X66989Y-32228D01*
X66960Y-32199D01*
X66917Y-32156D01*
X66889Y-32142D01*
X66860Y-32142D01*
X66875Y-32213D02*
X66846Y-32199D01*
X66817Y-32171D01*
X66803Y-32113D01*
X66803Y-32013D01*
X66817Y-31956D01*
X66846Y-31928D01*
X66875Y-31913D01*
X66932Y-31913D01*
X66960Y-31928D01*
X66989Y-31956D01*
X67003Y-32013D01*
X67003Y-32113D01*
X66989Y-32171D01*
X66960Y-32199D01*
X66932Y-32213D01*
X66875Y-32213D01*
X67117Y-31942D02*
X67131Y-31928D01*
X67160Y-31913D01*
X67231Y-31913D01*
X67260Y-31928D01*
X67274Y-31942D01*
X67289Y-31971D01*
X67289Y-31999D01*
X67274Y-32042D01*
X67103Y-32213D01*
X67289Y-32213D01*
X48924Y-19793D02*
X48910Y-19821D01*
X48881Y-19850D01*
X48838Y-19893D01*
X48824Y-19921D01*
X48824Y-19950D01*
X48895Y-19935D02*
X48881Y-19964D01*
X48853Y-19993D01*
X48795Y-20007D01*
X48695Y-20007D01*
X48638Y-19993D01*
X48610Y-19964D01*
X48595Y-19935D01*
X48595Y-19878D01*
X48610Y-19850D01*
X48638Y-19821D01*
X48695Y-19807D01*
X48795Y-19807D01*
X48853Y-19821D01*
X48881Y-19850D01*
X48895Y-19878D01*
X48895Y-19935D01*
X48895Y-19521D02*
X48895Y-19693D01*
X48895Y-19607D02*
X48595Y-19607D01*
X48638Y-19636D01*
X48667Y-19664D01*
X48681Y-19693D01*
G54D17*
X22690Y-28152D02*
X22638Y-28037D01*
X22600Y-28152D02*
X22600Y-27911D01*
X22660Y-27911D01*
X22675Y-27923D01*
X22683Y-27934D01*
X22690Y-27957D01*
X22690Y-27991D01*
X22683Y-28014D01*
X22675Y-28026D01*
X22660Y-28037D01*
X22600Y-28037D01*
X22780Y-28014D02*
X22765Y-28003D01*
X22757Y-27991D01*
X22750Y-27968D01*
X22750Y-27957D01*
X22757Y-27934D01*
X22765Y-27923D01*
X22780Y-27911D01*
X22810Y-27911D01*
X22825Y-27923D01*
X22832Y-27934D01*
X22840Y-27957D01*
X22840Y-27968D01*
X22832Y-27991D01*
X22825Y-28003D01*
X22810Y-28014D01*
X22780Y-28014D01*
X22765Y-28026D01*
X22757Y-28037D01*
X22750Y-28060D01*
X22750Y-28106D01*
X22757Y-28129D01*
X22765Y-28141D01*
X22780Y-28152D01*
X22810Y-28152D01*
X22825Y-28141D01*
X22832Y-28129D01*
X22840Y-28106D01*
X22840Y-28060D01*
X22832Y-28037D01*
X22825Y-28026D01*
X22810Y-28014D01*
X22937Y-27911D02*
X22952Y-27911D01*
X22967Y-27923D01*
X22975Y-27934D01*
X22982Y-27957D01*
X22990Y-28003D01*
X22990Y-28060D01*
X22982Y-28106D01*
X22975Y-28129D01*
X22967Y-28141D01*
X22952Y-28152D01*
X22937Y-28152D01*
X22922Y-28141D01*
X22915Y-28129D01*
X22907Y-28106D01*
X22900Y-28060D01*
X22900Y-28003D01*
X22907Y-27957D01*
X22915Y-27934D01*
X22922Y-27923D01*
X22937Y-27911D01*
X25777Y-28487D02*
X25725Y-28372D01*
X25687Y-28487D02*
X25687Y-28246D01*
X25747Y-28246D01*
X25762Y-28258D01*
X25770Y-28269D01*
X25777Y-28292D01*
X25777Y-28326D01*
X25770Y-28349D01*
X25762Y-28361D01*
X25747Y-28372D01*
X25687Y-28372D01*
X25829Y-28246D02*
X25934Y-28246D01*
X25867Y-28487D01*
X26002Y-28487D02*
X26032Y-28487D01*
X26047Y-28476D01*
X26054Y-28464D01*
X26069Y-28430D01*
X26077Y-28384D01*
X26077Y-28292D01*
X26069Y-28269D01*
X26062Y-28258D01*
X26047Y-28246D01*
X26017Y-28246D01*
X26002Y-28258D01*
X25994Y-28269D01*
X25987Y-28292D01*
X25987Y-28349D01*
X25994Y-28372D01*
X26002Y-28384D01*
X26017Y-28395D01*
X26047Y-28395D01*
X26062Y-28384D01*
X26069Y-28372D01*
X26077Y-28349D01*
X22690Y-28833D02*
X22638Y-28718D01*
X22600Y-28833D02*
X22600Y-28592D01*
X22660Y-28592D01*
X22675Y-28604D01*
X22683Y-28615D01*
X22690Y-28638D01*
X22690Y-28672D01*
X22683Y-28695D01*
X22675Y-28707D01*
X22660Y-28718D01*
X22600Y-28718D01*
X22780Y-28695D02*
X22765Y-28684D01*
X22757Y-28672D01*
X22750Y-28649D01*
X22750Y-28638D01*
X22757Y-28615D01*
X22765Y-28604D01*
X22780Y-28592D01*
X22810Y-28592D01*
X22825Y-28604D01*
X22832Y-28615D01*
X22840Y-28638D01*
X22840Y-28649D01*
X22832Y-28672D01*
X22825Y-28684D01*
X22810Y-28695D01*
X22780Y-28695D01*
X22765Y-28707D01*
X22757Y-28718D01*
X22750Y-28741D01*
X22750Y-28787D01*
X22757Y-28810D01*
X22765Y-28822D01*
X22780Y-28833D01*
X22810Y-28833D01*
X22825Y-28822D01*
X22832Y-28810D01*
X22840Y-28787D01*
X22840Y-28741D01*
X22832Y-28718D01*
X22825Y-28707D01*
X22810Y-28695D01*
X22990Y-28833D02*
X22900Y-28833D01*
X22945Y-28833D02*
X22945Y-28592D01*
X22930Y-28626D01*
X22915Y-28649D01*
X22900Y-28661D01*
G54D14*
X23649Y-28435D02*
X23635Y-28463D01*
X23606Y-28492D01*
X23563Y-28535D01*
X23549Y-28563D01*
X23549Y-28592D01*
X23620Y-28577D02*
X23606Y-28606D01*
X23578Y-28635D01*
X23520Y-28649D01*
X23420Y-28649D01*
X23363Y-28635D01*
X23335Y-28606D01*
X23320Y-28577D01*
X23320Y-28520D01*
X23335Y-28492D01*
X23363Y-28463D01*
X23420Y-28449D01*
X23520Y-28449D01*
X23578Y-28463D01*
X23606Y-28492D01*
X23620Y-28520D01*
X23620Y-28577D01*
X23420Y-28192D02*
X23620Y-28192D01*
X23306Y-28263D02*
X23520Y-28335D01*
X23520Y-28149D01*
G54D17*
X55400Y-18735D02*
X55285Y-18787D01*
X55400Y-18825D02*
X55159Y-18825D01*
X55159Y-18765D01*
X55171Y-18750D01*
X55182Y-18742D01*
X55205Y-18735D01*
X55239Y-18735D01*
X55262Y-18742D01*
X55274Y-18750D01*
X55285Y-18765D01*
X55285Y-18825D01*
X55262Y-18645D02*
X55251Y-18660D01*
X55239Y-18668D01*
X55216Y-18675D01*
X55205Y-18675D01*
X55182Y-18668D01*
X55171Y-18660D01*
X55159Y-18645D01*
X55159Y-18615D01*
X55171Y-18600D01*
X55182Y-18593D01*
X55205Y-18585D01*
X55216Y-18585D01*
X55239Y-18593D01*
X55251Y-18600D01*
X55262Y-18615D01*
X55262Y-18645D01*
X55274Y-18660D01*
X55285Y-18668D01*
X55308Y-18675D01*
X55354Y-18675D01*
X55377Y-18668D01*
X55389Y-18660D01*
X55400Y-18645D01*
X55400Y-18615D01*
X55389Y-18600D01*
X55377Y-18593D01*
X55354Y-18585D01*
X55308Y-18585D01*
X55285Y-18593D01*
X55274Y-18600D01*
X55262Y-18615D01*
X55159Y-18533D02*
X55159Y-18435D01*
X55251Y-18488D01*
X55251Y-18465D01*
X55262Y-18450D01*
X55274Y-18443D01*
X55297Y-18435D01*
X55354Y-18435D01*
X55377Y-18443D01*
X55389Y-18450D01*
X55400Y-18465D01*
X55400Y-18510D01*
X55389Y-18525D01*
X55377Y-18533D01*
X56030Y-18735D02*
X55915Y-18787D01*
X56030Y-18825D02*
X55789Y-18825D01*
X55789Y-18765D01*
X55801Y-18750D01*
X55812Y-18742D01*
X55835Y-18735D01*
X55869Y-18735D01*
X55892Y-18742D01*
X55904Y-18750D01*
X55915Y-18765D01*
X55915Y-18825D01*
X55892Y-18645D02*
X55881Y-18660D01*
X55869Y-18668D01*
X55846Y-18675D01*
X55835Y-18675D01*
X55812Y-18668D01*
X55801Y-18660D01*
X55789Y-18645D01*
X55789Y-18615D01*
X55801Y-18600D01*
X55812Y-18593D01*
X55835Y-18585D01*
X55846Y-18585D01*
X55869Y-18593D01*
X55881Y-18600D01*
X55892Y-18615D01*
X55892Y-18645D01*
X55904Y-18660D01*
X55915Y-18668D01*
X55938Y-18675D01*
X55984Y-18675D01*
X56007Y-18668D01*
X56019Y-18660D01*
X56030Y-18645D01*
X56030Y-18615D01*
X56019Y-18600D01*
X56007Y-18593D01*
X55984Y-18585D01*
X55938Y-18585D01*
X55915Y-18593D01*
X55904Y-18600D01*
X55892Y-18615D01*
X55869Y-18450D02*
X56030Y-18450D01*
X55778Y-18488D02*
X55950Y-18525D01*
X55950Y-18428D01*
G54D11*
X54949Y-17916D02*
X54949Y-17316D01*
X55177Y-17316D01*
X55235Y-17344D01*
X55263Y-17373D01*
X55292Y-17430D01*
X55292Y-17516D01*
X55263Y-17573D01*
X55235Y-17602D01*
X55177Y-17630D01*
X54949Y-17630D01*
X55863Y-17916D02*
X55520Y-17916D01*
X55692Y-17916D02*
X55692Y-17316D01*
X55635Y-17402D01*
X55577Y-17459D01*
X55520Y-17487D01*
X56206Y-17573D02*
X56148Y-17544D01*
X56120Y-17516D01*
X56091Y-17459D01*
X56091Y-17430D01*
X56120Y-17373D01*
X56148Y-17344D01*
X56206Y-17316D01*
X56320Y-17316D01*
X56377Y-17344D01*
X56406Y-17373D01*
X56434Y-17430D01*
X56434Y-17459D01*
X56406Y-17516D01*
X56377Y-17544D01*
X56320Y-17573D01*
X56206Y-17573D01*
X56148Y-17602D01*
X56120Y-17630D01*
X56091Y-17687D01*
X56091Y-17802D01*
X56120Y-17859D01*
X56148Y-17887D01*
X56206Y-17916D01*
X56320Y-17916D01*
X56377Y-17887D01*
X56406Y-17859D01*
X56434Y-17802D01*
X56434Y-17687D01*
X56406Y-17630D01*
X56377Y-17602D01*
X56320Y-17573D01*
G54D17*
X54617Y-15530D02*
X54502Y-15582D01*
X54617Y-15620D02*
X54376Y-15620D01*
X54376Y-15560D01*
X54388Y-15545D01*
X54399Y-15537D01*
X54422Y-15530D01*
X54456Y-15530D01*
X54479Y-15537D01*
X54491Y-15545D01*
X54502Y-15560D01*
X54502Y-15620D01*
X54479Y-15440D02*
X54468Y-15455D01*
X54456Y-15463D01*
X54433Y-15470D01*
X54422Y-15470D01*
X54399Y-15463D01*
X54388Y-15455D01*
X54376Y-15440D01*
X54376Y-15410D01*
X54388Y-15395D01*
X54399Y-15388D01*
X54422Y-15380D01*
X54433Y-15380D01*
X54456Y-15388D01*
X54468Y-15395D01*
X54479Y-15410D01*
X54479Y-15440D01*
X54491Y-15455D01*
X54502Y-15463D01*
X54525Y-15470D01*
X54571Y-15470D01*
X54594Y-15463D01*
X54606Y-15455D01*
X54617Y-15440D01*
X54617Y-15410D01*
X54606Y-15395D01*
X54594Y-15388D01*
X54571Y-15380D01*
X54525Y-15380D01*
X54502Y-15388D01*
X54491Y-15395D01*
X54479Y-15410D01*
X54399Y-15320D02*
X54388Y-15313D01*
X54376Y-15298D01*
X54376Y-15260D01*
X54388Y-15245D01*
X54399Y-15238D01*
X54422Y-15230D01*
X54445Y-15230D01*
X54479Y-15238D01*
X54617Y-15328D01*
X54617Y-15230D01*
X51868Y-30113D02*
X51861Y-30125D01*
X51838Y-30136D01*
X51823Y-30136D01*
X51801Y-30125D01*
X51786Y-30102D01*
X51778Y-30079D01*
X51771Y-30033D01*
X51771Y-29998D01*
X51778Y-29952D01*
X51786Y-29929D01*
X51801Y-29907D01*
X51823Y-29895D01*
X51838Y-29895D01*
X51861Y-29907D01*
X51868Y-29918D01*
X52018Y-30136D02*
X51928Y-30136D01*
X51973Y-30136D02*
X51973Y-29895D01*
X51958Y-29929D01*
X51943Y-29952D01*
X51928Y-29964D01*
X52153Y-29895D02*
X52123Y-29895D01*
X52108Y-29907D01*
X52100Y-29918D01*
X52085Y-29952D01*
X52078Y-29998D01*
X52078Y-30090D01*
X52085Y-30113D01*
X52093Y-30125D01*
X52108Y-30136D01*
X52138Y-30136D01*
X52153Y-30125D01*
X52160Y-30113D01*
X52168Y-30090D01*
X52168Y-30033D01*
X52160Y-30010D01*
X52153Y-29998D01*
X52138Y-29987D01*
X52108Y-29987D01*
X52093Y-29998D01*
X52085Y-30010D01*
X52078Y-30033D01*
M02*
