M48
;DRILL file {PCBnew (2011-07-04 BZR 3037)-stable} date 8/07/2011 2:08:14 p.m.
;FORMAT={-:-/ absolute / inch / decimal}
FMAT,2
INCH,TZ
T1C0.020
T2C0.025
T3C0.032
T4C0.032
T5C0.040
T6C0.098
T7C0.120
%
G90
G05
M72
T1
X4.018Y-1.921
X4.081Y-1.921
X4.144Y-1.921
X4.207Y-1.921
X4.248Y-1.344
X4.270Y-1.921
X4.284Y-1.374
X4.327Y-1.343
X4.333Y-1.921
X4.358Y-1.378
X4.396Y-1.921
X4.398Y-1.354
X4.457Y-1.924
X4.522Y-1.921
X4.585Y-1.925
X4.621Y-1.323
X4.638Y-1.539
X4.648Y-1.921
X4.671Y-1.323
X4.677Y-1.583
X4.705Y-1.352
X4.711Y-1.923
X4.713Y-1.622
X4.738Y-1.323
X4.772Y-1.354
X4.774Y-1.925
T2
X1.264Y-1.484
X1.476Y-1.488
X1.496Y-1.713
X1.496Y-1.791
X1.496Y-2.055
X1.496Y-2.205
X1.496Y-2.362
X1.496Y-2.520
X1.496Y-2.658
X1.499Y-2.929
X1.500Y-2.787
X1.502Y-1.256
X1.502Y-1.425
X1.650Y-2.787
X1.654Y-1.933
X1.654Y-2.051
X1.654Y-2.205
X1.654Y-2.362
X1.654Y-2.520
X1.654Y-2.658
X1.696Y-2.925
X1.702Y-1.358
X1.744Y-3.061
X1.746Y-3.239
X1.803Y-1.709
X1.803Y-1.928
X1.807Y-1.795
X1.850Y-3.106
X1.890Y-3.008
X1.894Y-1.228
X1.894Y-2.886
X1.909Y-1.791
X1.972Y-1.713
X2.001Y-2.207
X2.002Y-2.472
X2.039Y-1.791
X2.055Y-1.543
X2.095Y-3.008
X2.095Y-3.209
X2.102Y-1.894
X2.134Y-1.543
X2.213Y-1.543
X2.224Y-1.880
X2.278Y-2.202
X2.283Y-1.869
X2.284Y-3.169
X2.284Y-2.473
X2.295Y-1.543
X2.343Y-2.224
X2.365Y-2.930
X2.366Y-3.063
X2.370Y-1.543
X2.370Y-3.142
X2.382Y-2.392
X2.406Y-1.795
X2.418Y-2.962
X2.421Y-2.165
X2.422Y-2.278
X2.431Y-2.524
X2.432Y-2.671
X2.457Y-3.051
X2.461Y-3.138
X2.470Y-1.969
X2.470Y-2.333
X2.504Y-3.244
X2.544Y-1.792
X2.560Y-1.972
X2.560Y-2.275
X2.590Y-1.471
X2.591Y-3.244
X2.591Y-1.351
X2.595Y-3.142
X2.598Y-2.665
X2.602Y-1.231
X2.605Y-1.717
X2.648Y-2.939
X2.661Y-2.706
X2.769Y-2.798
X2.778Y-2.536
X2.815Y-2.874
X2.845Y-1.245
X2.847Y-2.630
X2.878Y-2.476
X2.882Y-2.114
X2.882Y-2.252
X2.882Y-2.358
X2.887Y-1.473
X2.890Y-3.028
X2.890Y-3.106
X2.933Y-3.209
X2.933Y-3.268
X2.953Y-1.815
X2.969Y-2.362
X2.969Y-2.480
X2.970Y-2.178
X2.975Y-2.039
X2.992Y-1.543
X3.012Y-1.930
X3.012Y-3.142
X3.020Y-3.268
X3.047Y-2.284
X3.055Y-2.366
X3.055Y-2.472
X3.071Y-1.543
X3.091Y-1.785
X3.091Y-2.095
X3.097Y-2.159
X3.106Y-3.106
X3.106Y-3.268
X3.110Y-2.630
X3.110Y-2.862
X3.110Y-3.028
X3.142Y-2.406
X3.142Y-2.476
X3.154Y-1.543
X3.189Y-3.177
X3.193Y-3.268
X3.231Y-2.465
X3.236Y-2.354
X3.248Y-3.087
X3.272Y-1.850
X3.272Y-1.909
X3.276Y-3.268
X3.291Y-1.541
X3.311Y-2.122
X3.311Y-2.465
X3.311Y-2.630
X3.311Y-2.870
X3.311Y-3.047
X3.347Y-2.988
X3.358Y-3.268
X3.380Y-1.882
X3.380Y-2.823
X3.413Y-1.541
X3.441Y-1.823
X3.461Y-1.465
X3.487Y-2.750
X3.492Y-2.870
X3.492Y-3.095
X3.526Y-1.943
X3.535Y-1.449
X3.535Y-2.154
X3.535Y-2.216
X3.540Y-2.472
X3.559Y-1.991
X3.571Y-3.095
X3.572Y-2.772
X3.596Y-2.031
X3.602Y-2.591
X3.610Y-3.268
X3.614Y-2.114
X3.614Y-2.213
X3.620Y-1.541
X3.639Y-2.350
X3.639Y-2.405
X3.646Y-2.874
X3.658Y-2.051
X3.658Y-2.539
X3.666Y-2.470
X3.669Y-3.095
X3.673Y-2.669
X3.684Y-2.298
X3.709Y-1.969
X3.709Y-2.909
X3.724Y-2.988
X3.732Y-3.177
X3.756Y-2.823
X3.760Y-2.953
X3.772Y-3.028
X3.772Y-3.142
X3.787Y-3.213
X3.854Y-1.539
X3.866Y-2.276
X3.866Y-2.341
X3.866Y-2.538
X3.866Y-2.603
X3.870Y-2.409
X3.870Y-2.472
X3.870Y-2.669
X3.890Y-2.770
X3.890Y-2.866
X3.890Y-3.260
X3.921Y-2.043
X3.925Y-1.291
X3.925Y-1.449
X3.926Y-1.391
X3.965Y-1.886
X3.976Y-1.500
X3.976Y-1.772
X3.992Y-3.102
X4.046Y-1.484
X4.055Y-3.102
X4.118Y-3.102
X4.181Y-3.102
X4.214Y-2.785
X4.264Y-3.106
X4.311Y-2.366
X4.311Y-2.441
X4.326Y-2.686
X4.354Y-2.622
X4.359Y-3.106
X4.370Y-2.697
X4.386Y-1.764
X4.406Y-2.442
X4.433Y-2.992
X4.439Y-2.261
X4.440Y-1.376
X4.461Y-2.368
X4.472Y-2.709
X4.486Y-1.374
X4.488Y-2.276
X4.490Y-2.082
X4.512Y-2.445
X4.532Y-2.709
X4.559Y-2.854
X4.582Y-2.243
X4.591Y-2.681
X4.598Y-2.327
X4.642Y-2.705
X4.672Y-2.442
X4.741Y-2.311
X4.752Y-2.624
X4.821Y-2.895
X4.860Y-2.976
X4.863Y-2.137
X4.909Y-2.758
X4.909Y-3.028
X4.921Y-1.478
X4.945Y-1.847
X4.956Y-1.718
X5.006Y-2.130
X5.015Y-1.567
X5.059Y-1.882
X5.075Y-3.028
X5.142Y-2.173
X5.142Y-2.228
X5.148Y-2.716
X5.169Y-3.224
X5.177Y-2.012
X5.189Y-1.780
X5.216Y-1.633
X5.216Y-1.532
X5.252Y-2.075
X5.266Y-2.595
X5.287Y-3.221
X5.313Y-1.540
X5.315Y-1.635
X5.340Y-2.716
X5.382Y-3.063
X5.398Y-1.992
X5.406Y-2.656
X5.418Y-2.560
X5.437Y-2.072
X5.453Y-3.130
X5.453Y-3.224
X5.469Y-2.780
X5.472Y-2.862
X5.478Y-2.327
X5.478Y-1.707
X5.516Y-2.815
X5.526Y-2.278
X5.583Y-3.126
X5.583Y-3.224
X5.610Y-1.654
X5.614Y-2.366
X5.618Y-2.945
X5.622Y-1.287
X5.622Y-1.386
X5.657Y-1.819
X5.657Y-2.263
X5.658Y-2.500
X5.697Y-1.697
X5.697Y-2.092
X5.712Y-1.771
X5.721Y-3.126
X5.721Y-3.224
X5.722Y-2.720
X5.765Y-1.975
X5.780Y-1.575
X5.780Y-2.252
X5.781Y-2.537
X5.799Y-2.713
X5.814Y-2.006
X5.814Y-2.143
X5.815Y-1.870
X5.843Y-3.012
X5.843Y-3.126
X5.843Y-3.221
X5.854Y-1.630
X5.854Y-2.390
X5.854Y-2.734
X5.898Y-2.610
X5.909Y-2.251
X5.909Y-1.870
X5.909Y-2.142
X5.965Y-1.606
X5.965Y-3.264
X6.030Y-2.249
X6.032Y-1.264
X6.032Y-1.382
X6.032Y-2.327
X6.035Y-2.524
X6.047Y-1.870
X6.047Y-1.992
X6.051Y-1.622
X6.051Y-1.717
X6.059Y-2.650
X6.059Y-2.732
X6.079Y-1.472
X6.095Y-3.008
X6.124Y-1.635
X6.124Y-2.124
X6.162Y-2.067
X6.163Y-1.713
X6.164Y-2.382
X6.209Y-1.902
X6.260Y-2.270
X6.264Y-3.008
X6.402Y-2.421
X6.402Y-2.646
X6.402Y-2.732
X6.404Y-2.568
X6.421Y-1.409
X6.421Y-2.108
X6.425Y-1.287
X6.500Y-1.902
X6.504Y-1.819
X6.508Y-2.417
X6.508Y-2.780
X6.571Y-2.327
X6.630Y-3.016
X6.756Y-2.091
X6.756Y-2.236
X6.756Y-2.344
X6.780Y-1.898
X6.782Y-1.496
X6.807Y-3.232
X6.866Y-1.496
X6.866Y-1.598
X6.945Y-1.559
X6.985Y-1.500
X7.066Y-1.522
X7.087Y-1.673
X7.087Y-1.898
X7.087Y-2.091
X7.102Y-2.539
X7.102Y-2.681
X7.165Y-2.815
X7.185Y-1.732
X7.209Y-2.476
X7.272Y-2.539
X7.272Y-2.677
X7.272Y-2.807
X7.276Y-3.039
X7.295Y-1.547
X7.299Y-1.898
X7.299Y-3.221
X7.339Y-2.862
X7.380Y-2.384
X7.386Y-2.541
X7.406Y-1.547
X7.406Y-1.886
X7.433Y-2.906
X7.453Y-2.095
X7.453Y-2.295
X7.484Y-1.943
X7.520Y-1.260
X7.520Y-1.457
X7.563Y-3.016
X7.571Y-2.158
X7.571Y-2.295
X7.681Y-2.146
X7.685Y-2.431
T3
X1.315Y-1.595
X1.315Y-1.673
X1.315Y-1.752
X1.315Y-1.831
X1.315Y-1.910
X1.860Y-1.335
X1.939Y-1.335
X2.018Y-1.335
X2.096Y-1.335
X2.175Y-1.335
X2.254Y-1.335
X2.333Y-1.335
X2.411Y-1.335
X2.490Y-1.335
X2.953Y-1.339
X3.032Y-1.339
X3.110Y-1.339
X3.189Y-1.339
X3.268Y-1.339
X3.347Y-1.339
X3.425Y-1.339
X3.504Y-1.339
X3.583Y-1.339
X3.661Y-1.339
X3.740Y-1.339
X3.819Y-1.339
X4.323Y-3.217
X4.402Y-3.217
X4.480Y-3.217
X4.559Y-3.217
X4.638Y-3.217
X4.717Y-3.217
X4.795Y-3.217
X4.874Y-3.217
X5.059Y-1.319
X5.138Y-1.319
X5.216Y-1.319
X5.295Y-1.319
X5.323Y-1.781
X5.374Y-1.319
X5.402Y-1.781
X5.453Y-1.319
X5.799Y-1.323
X5.878Y-1.323
X6.476Y-3.063
X6.476Y-3.142
X6.476Y-3.221
X6.787Y-1.303
X6.866Y-1.303
X6.945Y-1.303
X7.024Y-1.303
X7.102Y-1.303
X7.126Y-3.063
X7.126Y-3.142
X7.126Y-3.221
X7.181Y-1.303
X7.260Y-1.303
X7.339Y-1.303
X7.417Y-1.303
X7.677Y-1.547
X7.677Y-1.626
X7.677Y-1.705
X7.677Y-1.784
X7.677Y-1.862
X7.677Y-1.941
T4
X2.020Y-1.969
X2.020Y-2.126
X2.020Y-2.547
X2.020Y-2.705
X2.256Y-1.969
X2.256Y-2.126
X2.256Y-2.547
X2.256Y-2.705
X6.335Y-2.169
X6.335Y-2.327
X6.571Y-2.169
X6.571Y-2.327
X6.689Y-1.811
X6.689Y-1.968
X6.689Y-2.528
X6.689Y-2.685
X6.925Y-1.811
X6.925Y-1.968
X6.925Y-2.528
X6.925Y-2.685
X7.043Y-2.169
X7.043Y-2.327
X7.280Y-2.169
X7.280Y-2.327
T5
X2.578Y-1.615
X2.726Y-1.615
X2.874Y-1.615
X7.515Y-2.499
X7.515Y-2.599
X7.515Y-2.699
X7.515Y-2.799
X7.515Y-2.899
X7.615Y-2.499
X7.615Y-2.599
X7.615Y-2.699
X7.615Y-2.799
X7.615Y-2.899
T6
X2.142Y-2.343
X2.748Y-1.378
X2.748Y-3.197
X6.181Y-3.197
X6.248Y-1.378
T7
X1.350Y-1.343
X1.571Y-3.154
X7.437Y-3.165
X7.677Y-1.343
T0
M30
