M48
;DRILL file {PCBnew (2011-07-08 BZR 3044)-stable} date 27/07/2011 21:08:36
;FORMAT={-:-/ absolute / inch / decimal}
FMAT,2
INCH,TZ
T1C0.025
T2C0.032
T3C0.055
%
G90
G05
M72
T1
X2.457Y-3.158
X2.458Y-3.269
X2.463Y-3.093
X2.543Y-3.093
X2.593Y-2.784
X2.608Y-2.100
X2.671Y-2.197
X2.672Y-2.278
X2.699Y-3.087
X2.732Y-2.678
X2.747Y-2.478
X2.754Y-3.278
X2.765Y-2.939
X2.776Y-2.565
X2.785Y-2.819
X2.860Y-2.098
X2.890Y-3.275
X2.901Y-2.437
X3.008Y-2.211
X3.108Y-2.097
X3.158Y-2.463
X3.181Y-2.397
X3.279Y-2.459
X3.309Y-2.698
X3.391Y-2.622
X3.400Y-2.932
X3.448Y-2.763
X3.448Y-3.276
X3.543Y-2.615
X3.543Y-2.099
X3.543Y-2.473
X3.584Y-2.785
X3.633Y-2.356
X3.633Y-2.626
X3.872Y-2.098
X3.876Y-3.269
X4.133Y-2.096
X4.260Y-2.577
X4.260Y-3.000
X4.261Y-2.267
T2
X2.522Y-2.163
X2.522Y-2.241
X2.522Y-2.320
X2.522Y-2.399
X2.522Y-2.478
X2.522Y-2.556
X2.522Y-2.635
X2.522Y-2.714
T3
X4.044Y-2.213
X4.044Y-3.158
T0
M30
