G04 (created by PCBNEW-RS274X (2011-07-08 BZR 3044)-stable) date 27/07/2011 21:08:18*
G01*
G70*
G90*
%MOIN*%
G04 Gerber Fmt 3.4, Leading zero omitted, Abs format*
%FSLAX34Y34*%
G04 APERTURE LIST*
%ADD10C,0.006000*%
%ADD11O,0.138100X0.079100*%
%ADD12R,0.138100X0.079100*%
%ADD13R,0.075000X0.055000*%
%ADD14R,0.065000X0.040000*%
%ADD15R,0.045000X0.051500*%
%ADD16R,0.096800X0.075100*%
%ADD17R,0.094800X0.071200*%
%ADD18R,0.134200X0.122400*%
%ADD19R,0.106600X0.070200*%
%ADD20R,0.114500X0.102700*%
%ADD21R,0.106600X0.102700*%
%ADD22C,0.075100*%
%ADD23R,0.189300X0.067200*%
%ADD24R,0.098700X0.067200*%
%ADD25R,0.051500X0.045000*%
G04 APERTURE END LIST*
G54D10*
G54D11*
X25217Y-25562D03*
X25217Y-26349D03*
G54D12*
X25217Y-27137D03*
G54D11*
X25217Y-24775D03*
X25217Y-23987D03*
X25217Y-23200D03*
X25217Y-22413D03*
X25217Y-21626D03*
G54D13*
X30677Y-23597D03*
X30677Y-24347D03*
G54D14*
X27631Y-24152D03*
X29731Y-24152D03*
X27631Y-23652D03*
X27631Y-23152D03*
X27631Y-22652D03*
X29731Y-23652D03*
X29731Y-23152D03*
X29731Y-22652D03*
G54D15*
X28080Y-21933D03*
X27480Y-21933D03*
X29846Y-25118D03*
X30446Y-25118D03*
X28629Y-21933D03*
X29229Y-21933D03*
G54D16*
X31504Y-32252D03*
X31504Y-31543D03*
G54D17*
X32055Y-21465D03*
X33768Y-21465D03*
X39910Y-21465D03*
G54D18*
X42547Y-21622D03*
G54D16*
X33591Y-32252D03*
G54D19*
X40028Y-32252D03*
G54D20*
X41228Y-32252D03*
G54D21*
X42311Y-32252D03*
G54D22*
X40441Y-31583D03*
X40441Y-22134D03*
G54D23*
X38339Y-30805D03*
X38339Y-30165D03*
X38339Y-29181D03*
X38339Y-28197D03*
X38339Y-27213D03*
X38339Y-26228D03*
X38339Y-25244D03*
X38339Y-24260D03*
G54D24*
X38768Y-23276D03*
G54D15*
X28468Y-30409D03*
X29068Y-30409D03*
X29759Y-21504D03*
X30359Y-21504D03*
X30489Y-26854D03*
X29889Y-26854D03*
X30560Y-29394D03*
X29960Y-29394D03*
G54D25*
X28488Y-24917D03*
X28488Y-25517D03*
G54D15*
X29960Y-28634D03*
X30560Y-28634D03*
X29889Y-27744D03*
X30489Y-27744D03*
X27885Y-26260D03*
X28485Y-26260D03*
G54D25*
X26870Y-23946D03*
X26870Y-23346D03*
M02*
