G04 (created by PCBNEW-RS274X (2010-05-05 BZR 2356)-stable) date 15/12/2010 2:15:07 p.m.*
G01*
G70*
G90*
%MOIN*%
G04 Gerber Fmt 3.4, Leading zero omitted, Abs format*
%FSLAX34Y34*%
G04 APERTURE LIST*
%ADD10C,0.006000*%
%ADD11C,0.012000*%
G04 APERTURE END LIST*
G54D10*
G54D11*
X17346Y-24359D02*
X16698Y-24359D01*
X16622Y-24388D01*
X16584Y-24416D01*
X16546Y-24473D01*
X16546Y-24559D01*
X16584Y-24616D01*
X16850Y-24359D02*
X16812Y-24416D01*
X16812Y-24530D01*
X16850Y-24588D01*
X16888Y-24616D01*
X16965Y-24645D01*
X17193Y-24645D01*
X17269Y-24616D01*
X17307Y-24588D01*
X17346Y-24530D01*
X17346Y-24416D01*
X17307Y-24359D01*
X16812Y-24073D02*
X17346Y-24073D01*
X17193Y-24073D02*
X17269Y-24045D01*
X17307Y-24016D01*
X17346Y-23959D01*
X17346Y-23902D01*
X17346Y-23445D02*
X16812Y-23445D01*
X17346Y-23702D02*
X16926Y-23702D01*
X16850Y-23674D01*
X16812Y-23616D01*
X16812Y-23531D01*
X16850Y-23474D01*
X16888Y-23445D01*
X17346Y-23216D02*
X16812Y-23073D01*
X17346Y-22931D01*
X16812Y-22702D02*
X17346Y-22702D01*
X17612Y-22702D02*
X17574Y-22731D01*
X17536Y-22702D01*
X17574Y-22674D01*
X17612Y-22702D01*
X17536Y-22702D01*
X17346Y-22416D02*
X16812Y-22416D01*
X17269Y-22416D02*
X17307Y-22388D01*
X17346Y-22330D01*
X17346Y-22245D01*
X17307Y-22188D01*
X17231Y-22159D01*
X16812Y-22159D01*
X16812Y-21845D02*
X16812Y-21730D01*
X16850Y-21673D01*
X16888Y-21645D01*
X17003Y-21587D01*
X17155Y-21559D01*
X17460Y-21559D01*
X17536Y-21587D01*
X17574Y-21616D01*
X17612Y-21673D01*
X17612Y-21787D01*
X17574Y-21845D01*
X17536Y-21873D01*
X17460Y-21902D01*
X17269Y-21902D01*
X17193Y-21873D01*
X17155Y-21845D01*
X17117Y-21787D01*
X17117Y-21673D01*
X17155Y-21616D01*
X17193Y-21587D01*
X17269Y-21559D01*
X16812Y-21359D02*
X17346Y-21045D01*
X17346Y-21359D02*
X16812Y-21045D01*
X17117Y-20816D02*
X17117Y-20359D01*
X17346Y-20130D02*
X16812Y-19987D01*
X17346Y-19845D01*
X17536Y-19645D02*
X17574Y-19616D01*
X17612Y-19559D01*
X17612Y-19416D01*
X17574Y-19359D01*
X17536Y-19330D01*
X17460Y-19302D01*
X17384Y-19302D01*
X17269Y-19330D01*
X16812Y-19673D01*
X16812Y-19302D01*
X16888Y-19045D02*
X16850Y-19017D01*
X16812Y-19045D01*
X16850Y-19074D01*
X16888Y-19045D01*
X16812Y-19045D01*
X16812Y-18445D02*
X16812Y-18788D01*
X16812Y-18616D02*
X17612Y-18616D01*
X17498Y-18673D01*
X17422Y-18731D01*
X17384Y-18788D01*
X17346Y-17931D02*
X16812Y-17931D01*
X17650Y-18074D02*
X17079Y-18217D01*
X17079Y-17845D01*
X15572Y-29661D02*
X16372Y-29661D01*
X15572Y-29404D02*
X15991Y-29404D01*
X16067Y-29433D01*
X16106Y-29490D01*
X16106Y-29575D01*
X16067Y-29633D01*
X16029Y-29661D01*
X16106Y-29204D02*
X16106Y-28975D01*
X16372Y-29118D02*
X15686Y-29118D01*
X15610Y-29090D01*
X15572Y-29032D01*
X15572Y-28975D01*
X16106Y-28861D02*
X16106Y-28632D01*
X16372Y-28775D02*
X15686Y-28775D01*
X15610Y-28747D01*
X15572Y-28689D01*
X15572Y-28632D01*
X16106Y-28432D02*
X15306Y-28432D01*
X16067Y-28432D02*
X16106Y-28375D01*
X16106Y-28261D01*
X16067Y-28204D01*
X16029Y-28175D01*
X15953Y-28146D01*
X15725Y-28146D01*
X15648Y-28175D01*
X15610Y-28204D01*
X15572Y-28261D01*
X15572Y-28375D01*
X15610Y-28432D01*
X15648Y-27889D02*
X15610Y-27861D01*
X15572Y-27889D01*
X15610Y-27918D01*
X15648Y-27889D01*
X15572Y-27889D01*
X16067Y-27889D02*
X16029Y-27861D01*
X15991Y-27889D01*
X16029Y-27918D01*
X16067Y-27889D01*
X15991Y-27889D01*
X16410Y-27175D02*
X15382Y-27689D01*
X16410Y-26546D02*
X15382Y-27060D01*
X15610Y-26088D02*
X15572Y-26145D01*
X15572Y-26259D01*
X15610Y-26317D01*
X15648Y-26345D01*
X15725Y-26374D01*
X15953Y-26374D01*
X16029Y-26345D01*
X16067Y-26317D01*
X16106Y-26259D01*
X16106Y-26145D01*
X16067Y-26088D01*
X15572Y-25745D02*
X15610Y-25803D01*
X15648Y-25831D01*
X15725Y-25860D01*
X15953Y-25860D01*
X16029Y-25831D01*
X16067Y-25803D01*
X16106Y-25745D01*
X16106Y-25660D01*
X16067Y-25603D01*
X16029Y-25574D01*
X15953Y-25545D01*
X15725Y-25545D01*
X15648Y-25574D01*
X15610Y-25603D01*
X15572Y-25660D01*
X15572Y-25745D01*
X15572Y-25031D02*
X16372Y-25031D01*
X15610Y-25031D02*
X15572Y-25088D01*
X15572Y-25202D01*
X15610Y-25260D01*
X15648Y-25288D01*
X15725Y-25317D01*
X15953Y-25317D01*
X16029Y-25288D01*
X16067Y-25260D01*
X16106Y-25202D01*
X16106Y-25088D01*
X16067Y-25031D01*
X15610Y-24517D02*
X15572Y-24574D01*
X15572Y-24688D01*
X15610Y-24745D01*
X15686Y-24774D01*
X15991Y-24774D01*
X16067Y-24745D01*
X16106Y-24688D01*
X16106Y-24574D01*
X16067Y-24517D01*
X15991Y-24488D01*
X15915Y-24488D01*
X15839Y-24774D01*
X15648Y-24231D02*
X15610Y-24203D01*
X15572Y-24231D01*
X15610Y-24260D01*
X15648Y-24231D01*
X15572Y-24231D01*
X16106Y-23688D02*
X15458Y-23688D01*
X15382Y-23717D01*
X15344Y-23745D01*
X15306Y-23802D01*
X15306Y-23888D01*
X15344Y-23945D01*
X15610Y-23688D02*
X15572Y-23745D01*
X15572Y-23859D01*
X15610Y-23917D01*
X15648Y-23945D01*
X15725Y-23974D01*
X15953Y-23974D01*
X16029Y-23945D01*
X16067Y-23917D01*
X16106Y-23859D01*
X16106Y-23745D01*
X16067Y-23688D01*
X15572Y-23316D02*
X15610Y-23374D01*
X15648Y-23402D01*
X15725Y-23431D01*
X15953Y-23431D01*
X16029Y-23402D01*
X16067Y-23374D01*
X16106Y-23316D01*
X16106Y-23231D01*
X16067Y-23174D01*
X16029Y-23145D01*
X15953Y-23116D01*
X15725Y-23116D01*
X15648Y-23145D01*
X15610Y-23174D01*
X15572Y-23231D01*
X15572Y-23316D01*
X15572Y-22773D02*
X15610Y-22831D01*
X15648Y-22859D01*
X15725Y-22888D01*
X15953Y-22888D01*
X16029Y-22859D01*
X16067Y-22831D01*
X16106Y-22773D01*
X16106Y-22688D01*
X16067Y-22631D01*
X16029Y-22602D01*
X15953Y-22573D01*
X15725Y-22573D01*
X15648Y-22602D01*
X15610Y-22631D01*
X15572Y-22688D01*
X15572Y-22773D01*
X16106Y-22059D02*
X15458Y-22059D01*
X15382Y-22088D01*
X15344Y-22116D01*
X15306Y-22173D01*
X15306Y-22259D01*
X15344Y-22316D01*
X15610Y-22059D02*
X15572Y-22116D01*
X15572Y-22230D01*
X15610Y-22288D01*
X15648Y-22316D01*
X15725Y-22345D01*
X15953Y-22345D01*
X16029Y-22316D01*
X16067Y-22288D01*
X16106Y-22230D01*
X16106Y-22116D01*
X16067Y-22059D01*
X15572Y-21687D02*
X15610Y-21745D01*
X15686Y-21773D01*
X16372Y-21773D01*
X15610Y-21231D02*
X15572Y-21288D01*
X15572Y-21402D01*
X15610Y-21459D01*
X15686Y-21488D01*
X15991Y-21488D01*
X16067Y-21459D01*
X16106Y-21402D01*
X16106Y-21288D01*
X16067Y-21231D01*
X15991Y-21202D01*
X15915Y-21202D01*
X15839Y-21488D01*
X15648Y-20945D02*
X15610Y-20917D01*
X15572Y-20945D01*
X15610Y-20974D01*
X15648Y-20945D01*
X15572Y-20945D01*
X15610Y-20402D02*
X15572Y-20459D01*
X15572Y-20573D01*
X15610Y-20631D01*
X15648Y-20659D01*
X15725Y-20688D01*
X15953Y-20688D01*
X16029Y-20659D01*
X16067Y-20631D01*
X16106Y-20573D01*
X16106Y-20459D01*
X16067Y-20402D01*
X15572Y-20059D02*
X15610Y-20117D01*
X15648Y-20145D01*
X15725Y-20174D01*
X15953Y-20174D01*
X16029Y-20145D01*
X16067Y-20117D01*
X16106Y-20059D01*
X16106Y-19974D01*
X16067Y-19917D01*
X16029Y-19888D01*
X15953Y-19859D01*
X15725Y-19859D01*
X15648Y-19888D01*
X15610Y-19917D01*
X15572Y-19974D01*
X15572Y-20059D01*
X15572Y-19602D02*
X16106Y-19602D01*
X16029Y-19602D02*
X16067Y-19574D01*
X16106Y-19516D01*
X16106Y-19431D01*
X16067Y-19374D01*
X15991Y-19345D01*
X15572Y-19345D01*
X15991Y-19345D02*
X16067Y-19316D01*
X16106Y-19259D01*
X16106Y-19174D01*
X16067Y-19116D01*
X15991Y-19088D01*
X15572Y-19088D01*
X16410Y-18374D02*
X15382Y-18888D01*
X16106Y-18173D02*
X15306Y-18173D01*
X16067Y-18173D02*
X16106Y-18116D01*
X16106Y-18002D01*
X16067Y-17945D01*
X16029Y-17916D01*
X15953Y-17887D01*
X15725Y-17887D01*
X15648Y-17916D01*
X15610Y-17945D01*
X15572Y-18002D01*
X15572Y-18116D01*
X15610Y-18173D01*
X16410Y-17202D02*
X15382Y-17716D01*
X16106Y-16744D02*
X15458Y-16744D01*
X15382Y-16773D01*
X15344Y-16801D01*
X15306Y-16858D01*
X15306Y-16944D01*
X15344Y-17001D01*
X15610Y-16744D02*
X15572Y-16801D01*
X15572Y-16915D01*
X15610Y-16973D01*
X15648Y-17001D01*
X15725Y-17030D01*
X15953Y-17030D01*
X16029Y-17001D01*
X16067Y-16973D01*
X16106Y-16915D01*
X16106Y-16801D01*
X16067Y-16744D01*
X15572Y-16458D02*
X16106Y-16458D01*
X15953Y-16458D02*
X16029Y-16430D01*
X16067Y-16401D01*
X16106Y-16344D01*
X16106Y-16287D01*
X16106Y-15830D02*
X15572Y-15830D01*
X16106Y-16087D02*
X15686Y-16087D01*
X15610Y-16059D01*
X15572Y-16001D01*
X15572Y-15916D01*
X15610Y-15859D01*
X15648Y-15830D01*
X16106Y-15601D02*
X15572Y-15458D01*
X16106Y-15316D01*
X15572Y-15087D02*
X16106Y-15087D01*
X16372Y-15087D02*
X16334Y-15116D01*
X16296Y-15087D01*
X16334Y-15059D01*
X16372Y-15087D01*
X16296Y-15087D01*
X16106Y-14801D02*
X15572Y-14801D01*
X16029Y-14801D02*
X16067Y-14773D01*
X16106Y-14715D01*
X16106Y-14630D01*
X16067Y-14573D01*
X15991Y-14544D01*
X15572Y-14544D01*
X15572Y-14230D02*
X15572Y-14115D01*
X15610Y-14058D01*
X15648Y-14030D01*
X15763Y-13972D01*
X15915Y-13944D01*
X16220Y-13944D01*
X16296Y-13972D01*
X16334Y-14001D01*
X16372Y-14058D01*
X16372Y-14172D01*
X16334Y-14230D01*
X16296Y-14258D01*
X16220Y-14287D01*
X16029Y-14287D01*
X15953Y-14258D01*
X15915Y-14230D01*
X15877Y-14172D01*
X15877Y-14058D01*
X15915Y-14001D01*
X15953Y-13972D01*
X16029Y-13944D01*
X15572Y-13744D02*
X16106Y-13430D01*
X16106Y-13744D02*
X15572Y-13430D01*
X16410Y-12773D02*
X15382Y-13287D01*
M02*
