G04 (created by PCBNEW-RS274X (2010-05-05 BZR 2356)-stable) date 15/12/2010 2:15:07 p.m.*
G01*
G70*
G90*
%MOIN*%
G04 Gerber Fmt 3.4, Leading zero omitted, Abs format*
%FSLAX34Y34*%
G04 APERTURE LIST*
%ADD10C,0.006000*%
%ADD11O,0.079100X0.138100*%
%ADD12R,0.079100X0.138100*%
%ADD13O,0.138100X0.079100*%
%ADD14R,0.138100X0.079100*%
%ADD15C,0.075000*%
%ADD16C,0.180000*%
%ADD17R,0.080000X0.080000*%
%ADD18C,0.080000*%
%ADD19C,0.055000*%
G04 APERTURE END LIST*
G54D10*
G54D11*
X44804Y-32165D03*
X44017Y-32165D03*
G54D12*
X43229Y-32165D03*
G54D11*
X45591Y-32165D03*
X46379Y-32165D03*
X47166Y-32165D03*
X47953Y-32165D03*
X48740Y-32165D03*
G54D13*
X71260Y-30630D03*
X71260Y-31417D03*
G54D14*
X71260Y-32205D03*
G54D13*
X64763Y-30630D03*
X64763Y-31417D03*
G54D14*
X64763Y-32205D03*
G54D11*
X57992Y-13228D03*
G54D12*
X58780Y-13228D03*
G54D15*
X66890Y-26850D03*
X66890Y-25276D03*
X69252Y-26850D03*
X69252Y-25276D03*
X70431Y-23425D03*
X70431Y-21851D03*
X72793Y-23425D03*
X72793Y-21851D03*
X66890Y-19684D03*
X66890Y-18110D03*
X69252Y-19684D03*
X69252Y-18110D03*
G54D11*
X36614Y-13386D03*
X37402Y-13386D03*
G54D12*
X38189Y-13386D03*
G54D11*
X35827Y-13386D03*
X35039Y-13386D03*
X34252Y-13386D03*
X33465Y-13386D03*
X32677Y-13386D03*
X31890Y-13386D03*
X31102Y-13386D03*
X30315Y-13386D03*
X29528Y-13386D03*
X23326Y-13347D03*
X24113Y-13347D03*
G54D12*
X24901Y-13347D03*
G54D11*
X22539Y-13347D03*
X21751Y-13347D03*
X20964Y-13347D03*
X20177Y-13347D03*
X19390Y-13347D03*
X18602Y-13347D03*
X72598Y-13031D03*
X73385Y-13031D03*
G54D12*
X74173Y-13031D03*
G54D11*
X71811Y-13031D03*
X71023Y-13031D03*
X70236Y-13031D03*
X69449Y-13031D03*
X68662Y-13031D03*
X67874Y-13031D03*
G54D13*
X76772Y-17835D03*
X76772Y-18622D03*
G54D14*
X76772Y-19410D03*
G54D13*
X76772Y-17048D03*
X76772Y-16260D03*
X76772Y-15473D03*
G54D11*
X52952Y-13189D03*
X53739Y-13189D03*
G54D12*
X54527Y-13189D03*
G54D11*
X52165Y-13189D03*
X51377Y-13189D03*
X50590Y-13189D03*
G54D13*
X13150Y-17520D03*
X13150Y-16733D03*
G54D14*
X13150Y-15945D03*
G54D13*
X13150Y-18307D03*
X13150Y-19095D03*
G54D16*
X61811Y-31969D03*
X62480Y-13780D03*
X27480Y-31969D03*
X27480Y-13780D03*
X21417Y-23425D03*
G54D17*
X75150Y-24988D03*
G54D18*
X76150Y-24988D03*
X75150Y-25988D03*
X76150Y-25988D03*
X75150Y-26988D03*
X76150Y-26988D03*
X75150Y-27988D03*
X76150Y-27988D03*
X75150Y-28988D03*
X76150Y-28988D03*
G54D16*
X76772Y-13425D03*
X74370Y-31653D03*
X13504Y-13425D03*
X15709Y-31535D03*
G54D15*
X63346Y-23425D03*
X63346Y-21851D03*
X65708Y-23425D03*
X65708Y-21851D03*
X20197Y-21259D03*
X20197Y-19685D03*
X22559Y-21259D03*
X22559Y-19685D03*
X20197Y-27047D03*
X20197Y-25473D03*
X22559Y-27047D03*
X22559Y-25473D03*
X53402Y-27086D03*
X51480Y-27086D03*
G54D19*
X19016Y-27835D03*
X21260Y-27795D03*
X23583Y-27756D03*
X24764Y-26850D03*
X24764Y-27795D03*
X17244Y-29882D03*
X17402Y-31654D03*
X16417Y-29094D03*
X14921Y-29055D03*
X14921Y-27874D03*
X57323Y-26496D03*
X62283Y-23701D03*
X61142Y-23819D03*
X61929Y-27362D03*
X63661Y-27323D03*
X60748Y-27283D03*
X60709Y-26496D03*
X24331Y-25079D03*
X65354Y-12835D03*
X66299Y-12835D03*
X66299Y-13661D03*
X65315Y-13622D03*
X64331Y-13583D03*
X65315Y-14724D03*
X64331Y-14685D03*
X64331Y-12835D03*
X30906Y-20945D03*
X30906Y-17854D03*
X74331Y-29055D03*
X53819Y-30630D03*
X39921Y-31024D03*
X30118Y-31417D03*
X40551Y-31024D03*
X37717Y-31417D03*
X30118Y-19488D03*
X38701Y-24094D03*
X36575Y-24055D03*
X31417Y-24055D03*
X32362Y-23543D03*
X38661Y-23406D03*
X36614Y-23504D03*
X37717Y-30276D03*
X33110Y-30472D03*
X32717Y-19094D03*
X49094Y-30276D03*
X41811Y-31024D03*
X37874Y-32126D03*
X28740Y-16732D03*
X29331Y-32087D03*
X39646Y-18858D03*
X35354Y-14488D03*
X39252Y-14488D03*
X51417Y-21732D03*
X36142Y-21142D03*
X54331Y-21575D03*
X54370Y-22283D03*
X51417Y-22283D03*
X36142Y-22126D03*
X55197Y-18189D03*
X61457Y-17126D03*
X51417Y-22795D03*
X61457Y-18189D03*
X62087Y-19016D03*
X51693Y-23267D03*
X62087Y-16339D03*
X60315Y-23268D03*
X54685Y-23268D03*
X60354Y-25236D03*
X56102Y-16535D03*
X56142Y-23661D03*
X58819Y-16102D03*
X58780Y-23898D03*
X65708Y-23425D03*
X47047Y-13524D03*
X46476Y-19213D03*
X47717Y-13543D03*
X47736Y-19252D03*
X42480Y-13441D03*
X40177Y-19213D03*
X40807Y-19213D03*
X42835Y-13740D03*
X41437Y-19213D03*
X43268Y-13425D03*
X42067Y-19213D03*
X43583Y-13780D03*
X42697Y-19213D03*
X43976Y-13543D03*
X43327Y-19213D03*
X46378Y-15394D03*
X43957Y-19213D03*
X46772Y-15827D03*
X44567Y-19242D03*
X47126Y-16220D03*
X46211Y-13228D03*
X45217Y-19213D03*
X47106Y-19232D03*
X47382Y-13228D03*
X46713Y-13228D03*
X45846Y-19252D03*
X71654Y-28150D03*
X38701Y-24724D03*
X55157Y-28150D03*
X65000Y-19016D03*
X65039Y-18189D03*
X73386Y-28622D03*
X54724Y-28622D03*
X38661Y-26033D03*
X67815Y-14961D03*
X69449Y-15591D03*
X52657Y-25955D03*
X36024Y-25906D03*
X37598Y-29528D03*
X45315Y-27087D03*
X37244Y-29882D03*
X45906Y-26811D03*
X33465Y-29882D03*
X38661Y-22756D03*
X65079Y-27795D03*
X73799Y-23839D03*
X74055Y-18858D03*
X54685Y-27795D03*
X65079Y-24173D03*
X50748Y-30276D03*
X58976Y-26102D03*
X34606Y-14646D03*
X49449Y-18465D03*
X39764Y-15000D03*
X25984Y-26654D03*
X38701Y-26693D03*
X36732Y-26693D03*
X23819Y-23917D03*
X24213Y-21654D03*
X26575Y-25354D03*
X36575Y-25394D03*
X38661Y-25384D03*
X25197Y-19291D03*
X25197Y-24606D03*
X22244Y-18799D03*
X23425Y-21063D03*
X52520Y-20748D03*
X54646Y-20709D03*
X46417Y-27047D03*
X57992Y-27126D03*
X43130Y-26713D03*
X66299Y-30157D03*
X56575Y-25000D03*
X72087Y-24764D03*
X37087Y-29094D03*
X44724Y-27087D03*
X44902Y-20817D03*
X50591Y-18819D03*
X30472Y-22835D03*
X43701Y-26969D03*
X72756Y-30394D03*
X56181Y-29449D03*
X31890Y-31772D03*
X41181Y-31024D03*
X37323Y-31772D03*
X34409Y-18228D03*
X44862Y-13740D03*
X43858Y-17638D03*
X71850Y-17323D03*
X53268Y-17717D03*
X36575Y-20512D03*
X38898Y-28661D03*
X24803Y-18819D03*
X38898Y-27697D03*
X14961Y-20551D03*
X52156Y-16329D03*
X53150Y-16348D03*
X25039Y-15906D03*
X25906Y-17126D03*
X26969Y-17126D03*
X21181Y-20472D03*
X22992Y-20394D03*
X21024Y-18937D03*
X31102Y-27087D03*
X60787Y-14724D03*
X53130Y-15404D03*
X50148Y-15669D03*
X57008Y-16181D03*
X56969Y-16969D03*
X57795Y-21417D03*
X56811Y-21457D03*
X56811Y-18701D03*
X56811Y-19803D03*
X57795Y-22520D03*
X56811Y-22520D03*
X27087Y-27835D03*
X31102Y-27835D03*
X19961Y-24409D03*
X49557Y-17175D03*
X22638Y-22283D03*
X18071Y-17953D03*
X28465Y-27087D03*
X19094Y-17913D03*
X20394Y-17913D03*
X15906Y-17913D03*
X69961Y-18976D03*
X72953Y-15473D03*
X71811Y-18976D03*
X72992Y-18976D03*
X58425Y-31260D03*
X64213Y-21260D03*
X59173Y-21417D03*
X26969Y-15827D03*
X64016Y-24213D03*
X72717Y-25394D03*
X28740Y-15866D03*
X72717Y-26772D03*
X71024Y-25394D03*
X72717Y-28071D03*
X12638Y-14843D03*
X14764Y-14882D03*
X51890Y-17795D03*
X28110Y-20000D03*
X27047Y-19921D03*
X28819Y-23583D03*
X28780Y-24764D03*
X25906Y-32441D03*
X25945Y-31417D03*
X28898Y-31063D03*
X28898Y-30276D03*
X34921Y-30945D03*
X32480Y-30866D03*
X34921Y-28701D03*
X36457Y-28740D03*
X35709Y-30945D03*
X36693Y-30945D03*
X45591Y-28543D03*
X46772Y-29764D03*
X45984Y-29764D03*
X42638Y-31063D03*
X44094Y-31063D03*
X75630Y-30157D03*
X72992Y-32205D03*
X60315Y-13819D03*
X60315Y-12638D03*
X29685Y-24803D03*
X29685Y-23622D03*
X30551Y-23661D03*
X30551Y-24724D03*
X27913Y-17087D03*
X27953Y-17913D03*
X27047Y-17913D03*
X53976Y-18268D03*
X53976Y-19055D03*
X57795Y-15748D03*
X57795Y-16929D03*
X62638Y-30079D03*
X60945Y-30079D03*
X58425Y-30118D03*
X31102Y-28622D03*
X31102Y-30276D03*
X28465Y-26299D03*
X27126Y-26299D03*
X31102Y-26299D03*
X15906Y-17126D03*
X19724Y-17126D03*
X31417Y-24764D03*
X16535Y-20512D03*
X16535Y-19331D03*
X17717Y-19291D03*
X16535Y-22047D03*
X16535Y-23622D03*
X16535Y-25197D03*
X17756Y-26535D03*
X17717Y-25236D03*
X17677Y-23622D03*
X17677Y-22047D03*
X17677Y-20551D03*
X15906Y-12716D03*
X15866Y-13661D03*
X15906Y-14567D03*
X15866Y-15394D03*
X16969Y-15433D03*
X16969Y-14606D03*
X16969Y-13661D03*
X16969Y-12756D03*
X56220Y-12874D03*
X56220Y-13858D03*
X70866Y-18976D03*
X28504Y-27835D03*
X60512Y-16220D03*
X60512Y-17165D03*
X67795Y-18976D03*
X60472Y-18701D03*
X59173Y-19921D03*
X59173Y-22795D03*
X59173Y-22323D03*
X75709Y-22953D03*
X75709Y-22283D03*
X75709Y-21575D03*
X74528Y-20945D03*
X74528Y-22953D03*
X74528Y-22283D03*
X67559Y-20906D03*
X67559Y-22913D03*
X68701Y-22874D03*
X68701Y-20906D03*
X54528Y-31299D03*
X55827Y-31260D03*
X57205Y-31260D03*
X27087Y-27087D03*
X57205Y-32244D03*
X55827Y-32244D03*
X54528Y-32244D03*
X16496Y-27874D03*
X31063Y-31063D03*
X36102Y-32677D03*
X29331Y-32677D03*
X30197Y-32677D03*
X31063Y-32677D03*
X31929Y-32677D03*
X32756Y-32677D03*
X33583Y-32677D03*
X36575Y-24685D03*
X36732Y-22913D03*
X35394Y-24449D03*
X35433Y-24921D03*
X36693Y-27480D03*
X35709Y-27402D03*
X49134Y-29764D03*
X44331Y-29921D03*
X43110Y-23661D03*
X43110Y-22874D03*
X44055Y-24419D03*
X45118Y-24449D03*
X71024Y-26811D03*
X57795Y-25315D03*
X57756Y-18701D03*
X57795Y-19843D03*
X33110Y-27835D03*
X33110Y-26299D03*
X33110Y-27087D03*
X33110Y-28701D03*
X33110Y-24646D03*
X23701Y-15433D03*
X22953Y-15433D03*
X22126Y-15433D03*
X21339Y-15433D03*
X20551Y-15433D03*
X51693Y-32244D03*
X52874Y-32205D03*
X46722Y-24419D03*
X38898Y-32598D03*
X68661Y-15984D03*
X76811Y-21457D03*
X70866Y-20906D03*
X18504Y-31063D03*
X36201Y-15413D03*
X37087Y-19685D03*
X39213Y-20433D03*
X14961Y-23622D03*
X14961Y-22047D03*
X14961Y-25197D03*
X14961Y-26575D03*
X16535Y-26575D03*
X29921Y-15433D03*
X32717Y-18504D03*
X33110Y-21220D03*
X43110Y-24409D03*
X53976Y-19921D03*
X46732Y-23110D03*
X70866Y-16732D03*
X68661Y-14961D03*
X52165Y-15315D03*
X74055Y-15473D03*
X30709Y-15433D03*
X31535Y-15433D03*
X32913Y-15413D03*
X34134Y-15413D03*
X24606Y-31378D03*
X24567Y-30512D03*
X39764Y-17717D03*
X44402Y-13756D03*
X40457Y-14839D03*
X38543Y-15394D03*
X75197Y-14567D03*
X75197Y-12598D03*
X60472Y-19921D03*
X18031Y-17087D03*
X58425Y-32205D03*
X74528Y-21575D03*
X59173Y-18661D03*
X61142Y-21181D03*
X26063Y-27598D03*
X34882Y-27441D03*
X25591Y-29331D03*
X23701Y-29331D03*
X18898Y-30079D03*
X22835Y-31693D03*
X23661Y-30630D03*
X23701Y-31417D03*
X44488Y-22323D03*
X35354Y-21535D03*
X68071Y-32323D03*
X24705Y-19685D03*
X24705Y-23327D03*
X23425Y-22244D03*
X44882Y-22756D03*
X35354Y-22165D03*
X47520Y-26240D03*
X54783Y-17067D03*
X20945Y-30079D03*
X20945Y-32087D03*
X28819Y-14685D03*
X25984Y-12559D03*
X26024Y-14764D03*
X59567Y-16142D03*
X59567Y-32717D03*
X33799Y-28228D03*
X33799Y-18819D03*
X74843Y-19429D03*
X45984Y-23268D03*
X43543Y-26220D03*
X37559Y-28228D03*
X51772Y-20118D03*
X29528Y-18150D03*
X25039Y-32441D03*
X26654Y-28543D03*
M02*
