G04 (created by PCBNEW (2010-05-05 BZR 2356)-stable) date 15/12/2010 2:10:42 p.m.*
G01*
G70*
G90*
%MOIN*%
G04 Gerber Fmt 3.4, Leading zero omitted, Abs format*
%FSLAX34Y34*%
G04 APERTURE LIST*
%ADD10C,0.001000*%
%ADD11C,0.019700*%
%ADD12C,0.008000*%
G04 APERTURE END LIST*
G54D10*
G54D11*
X33002Y-27343D02*
X32978Y-27585D01*
X32907Y-27819D01*
X32793Y-28034D01*
X32638Y-28223D01*
X32450Y-28379D01*
X32236Y-28495D01*
X32003Y-28567D01*
X31760Y-28592D01*
X31518Y-28570D01*
X31284Y-28501D01*
X31068Y-28388D01*
X30878Y-28236D01*
X30721Y-28049D01*
X30604Y-27835D01*
X30530Y-27602D01*
X30503Y-27360D01*
X30523Y-27118D01*
X30590Y-26883D01*
X30702Y-26666D01*
X30853Y-26475D01*
X31039Y-26317D01*
X31252Y-26198D01*
X31484Y-26123D01*
X31726Y-26094D01*
X31969Y-26112D01*
X32204Y-26178D01*
X32421Y-26288D01*
X32614Y-26438D01*
X32773Y-26623D01*
X32893Y-26835D01*
X32970Y-27067D01*
X33001Y-27309D01*
X33002Y-27343D01*
X29252Y-27343D02*
X34252Y-27343D01*
X31752Y-24843D02*
X31752Y-29843D01*
X73898Y-16890D02*
X73874Y-17132D01*
X73803Y-17366D01*
X73689Y-17581D01*
X73534Y-17770D01*
X73346Y-17926D01*
X73132Y-18042D01*
X72899Y-18114D01*
X72656Y-18139D01*
X72414Y-18117D01*
X72180Y-18048D01*
X71964Y-17935D01*
X71774Y-17783D01*
X71617Y-17596D01*
X71500Y-17382D01*
X71426Y-17149D01*
X71399Y-16907D01*
X71419Y-16665D01*
X71486Y-16430D01*
X71598Y-16213D01*
X71749Y-16022D01*
X71935Y-15864D01*
X72148Y-15745D01*
X72380Y-15670D01*
X72622Y-15641D01*
X72865Y-15659D01*
X73100Y-15725D01*
X73317Y-15835D01*
X73510Y-15985D01*
X73669Y-16170D01*
X73789Y-16382D01*
X73866Y-16614D01*
X73897Y-16856D01*
X73898Y-16890D01*
X70148Y-16890D02*
X75148Y-16890D01*
X72648Y-14390D02*
X72648Y-19390D01*
X16167Y-33349D02*
X16013Y-33209D01*
X15848Y-33083D01*
X15672Y-32972D01*
X15487Y-32876D01*
X15295Y-32797D01*
X15096Y-32736D01*
X14893Y-32691D01*
X14687Y-32665D01*
X14480Y-32657D01*
X14397Y-32658D01*
X75802Y-32654D02*
X75595Y-32656D01*
X75387Y-32676D01*
X75183Y-32714D01*
X74982Y-32769D01*
X74787Y-32842D01*
X74599Y-32932D01*
X74419Y-33038D01*
X74250Y-33159D01*
X74092Y-33294D01*
X74017Y-33366D01*
X16181Y-33366D02*
X73986Y-33366D01*
X78248Y-11909D02*
X11909Y-11909D01*
X13091Y-30610D02*
X14390Y-32657D01*
X77264Y-30610D02*
X75807Y-32657D01*
X77264Y-21161D02*
X77264Y-30610D01*
X78248Y-19980D02*
X77264Y-21161D01*
X13091Y-21161D02*
X13091Y-30610D01*
X11909Y-19980D02*
X13091Y-21161D01*
X11909Y-11909D02*
X11909Y-19980D01*
X78248Y-11909D02*
X78248Y-19980D01*
G54D10*
X12513Y-14718D02*
X12763Y-14968D01*
X12763Y-14718D02*
X12513Y-14968D01*
X14639Y-14757D02*
X14889Y-15007D01*
X14889Y-14757D02*
X14639Y-15007D01*
X14796Y-27749D02*
X15046Y-27999D01*
X15046Y-27749D02*
X14796Y-27999D01*
X14796Y-28930D02*
X15046Y-29180D01*
X15046Y-28930D02*
X14796Y-29180D01*
X14836Y-20426D02*
X15086Y-20676D01*
X15086Y-20426D02*
X14836Y-20676D01*
X14836Y-21922D02*
X15086Y-22172D01*
X15086Y-21922D02*
X14836Y-22172D01*
X14836Y-23497D02*
X15086Y-23747D01*
X15086Y-23497D02*
X14836Y-23747D01*
X14836Y-25072D02*
X15086Y-25322D01*
X15086Y-25072D02*
X14836Y-25322D01*
X14836Y-26450D02*
X15086Y-26700D01*
X15086Y-26450D02*
X14836Y-26700D01*
X15741Y-13536D02*
X15991Y-13786D01*
X15991Y-13536D02*
X15741Y-13786D01*
X15741Y-15269D02*
X15991Y-15519D01*
X15991Y-15269D02*
X15741Y-15519D01*
X15781Y-12591D02*
X16031Y-12841D01*
X16031Y-12591D02*
X15781Y-12841D01*
X15781Y-14442D02*
X16031Y-14692D01*
X16031Y-14442D02*
X15781Y-14692D01*
X15781Y-17001D02*
X16031Y-17251D01*
X16031Y-17001D02*
X15781Y-17251D01*
X15781Y-17788D02*
X16031Y-18038D01*
X16031Y-17788D02*
X15781Y-18038D01*
X16292Y-28969D02*
X16542Y-29219D01*
X16542Y-28969D02*
X16292Y-29219D01*
X16371Y-27749D02*
X16621Y-27999D01*
X16621Y-27749D02*
X16371Y-27999D01*
X16410Y-19206D02*
X16660Y-19456D01*
X16660Y-19206D02*
X16410Y-19456D01*
X16410Y-20387D02*
X16660Y-20637D01*
X16660Y-20387D02*
X16410Y-20637D01*
X16410Y-21922D02*
X16660Y-22172D01*
X16660Y-21922D02*
X16410Y-22172D01*
X16410Y-23497D02*
X16660Y-23747D01*
X16660Y-23497D02*
X16410Y-23747D01*
X16410Y-25072D02*
X16660Y-25322D01*
X16660Y-25072D02*
X16410Y-25322D01*
X16410Y-26450D02*
X16660Y-26700D01*
X16660Y-26450D02*
X16410Y-26700D01*
X16844Y-12631D02*
X17094Y-12881D01*
X17094Y-12631D02*
X16844Y-12881D01*
X16844Y-13536D02*
X17094Y-13786D01*
X17094Y-13536D02*
X16844Y-13786D01*
X16844Y-14481D02*
X17094Y-14731D01*
X17094Y-14481D02*
X16844Y-14731D01*
X16844Y-15308D02*
X17094Y-15558D01*
X17094Y-15308D02*
X16844Y-15558D01*
X17119Y-29757D02*
X17369Y-30007D01*
X17369Y-29757D02*
X17119Y-30007D01*
X17277Y-31529D02*
X17527Y-31779D01*
X17527Y-31529D02*
X17277Y-31779D01*
X17552Y-20426D02*
X17802Y-20676D01*
X17802Y-20426D02*
X17552Y-20676D01*
X17552Y-21922D02*
X17802Y-22172D01*
X17802Y-21922D02*
X17552Y-22172D01*
X17552Y-23497D02*
X17802Y-23747D01*
X17802Y-23497D02*
X17552Y-23747D01*
X17592Y-19166D02*
X17842Y-19416D01*
X17842Y-19166D02*
X17592Y-19416D01*
X17592Y-25111D02*
X17842Y-25361D01*
X17842Y-25111D02*
X17592Y-25361D01*
X17631Y-26410D02*
X17881Y-26660D01*
X17881Y-26410D02*
X17631Y-26660D01*
X17906Y-16962D02*
X18156Y-17212D01*
X18156Y-16962D02*
X17906Y-17212D01*
X17946Y-17828D02*
X18196Y-18078D01*
X18196Y-17828D02*
X17946Y-18078D01*
X18379Y-30938D02*
X18629Y-31188D01*
X18629Y-30938D02*
X18379Y-31188D01*
X18773Y-29954D02*
X19023Y-30204D01*
X19023Y-29954D02*
X18773Y-30204D01*
X18891Y-27710D02*
X19141Y-27960D01*
X19141Y-27710D02*
X18891Y-27960D01*
X18969Y-17788D02*
X19219Y-18038D01*
X19219Y-17788D02*
X18969Y-18038D01*
X19599Y-17001D02*
X19849Y-17251D01*
X19849Y-17001D02*
X19599Y-17251D01*
X19836Y-24284D02*
X20086Y-24534D01*
X20086Y-24284D02*
X19836Y-24534D01*
X20269Y-17788D02*
X20519Y-18038D01*
X20519Y-17788D02*
X20269Y-18038D01*
X20426Y-15308D02*
X20676Y-15558D01*
X20676Y-15308D02*
X20426Y-15558D01*
X20820Y-29954D02*
X21070Y-30204D01*
X21070Y-29954D02*
X20820Y-30204D01*
X20820Y-31962D02*
X21070Y-32212D01*
X21070Y-31962D02*
X20820Y-32212D01*
X20899Y-18812D02*
X21149Y-19062D01*
X21149Y-18812D02*
X20899Y-19062D01*
X21056Y-20347D02*
X21306Y-20597D01*
X21306Y-20347D02*
X21056Y-20597D01*
X21135Y-27670D02*
X21385Y-27920D01*
X21385Y-27670D02*
X21135Y-27920D01*
X21214Y-15308D02*
X21464Y-15558D01*
X21464Y-15308D02*
X21214Y-15558D01*
X22001Y-15308D02*
X22251Y-15558D01*
X22251Y-15308D02*
X22001Y-15558D01*
X22119Y-18674D02*
X22369Y-18924D01*
X22369Y-18674D02*
X22119Y-18924D01*
X22513Y-22158D02*
X22763Y-22408D01*
X22763Y-22158D02*
X22513Y-22408D01*
X22710Y-31568D02*
X22960Y-31818D01*
X22960Y-31568D02*
X22710Y-31818D01*
X22828Y-15308D02*
X23078Y-15558D01*
X23078Y-15308D02*
X22828Y-15558D01*
X22867Y-20269D02*
X23117Y-20519D01*
X23117Y-20269D02*
X22867Y-20519D01*
X23300Y-20938D02*
X23550Y-21188D01*
X23550Y-20938D02*
X23300Y-21188D01*
X23300Y-22119D02*
X23550Y-22369D01*
X23550Y-22119D02*
X23300Y-22369D01*
X23458Y-27631D02*
X23708Y-27881D01*
X23708Y-27631D02*
X23458Y-27881D01*
X23536Y-30505D02*
X23786Y-30755D01*
X23786Y-30505D02*
X23536Y-30755D01*
X23576Y-15308D02*
X23826Y-15558D01*
X23826Y-15308D02*
X23576Y-15558D01*
X23576Y-29206D02*
X23826Y-29456D01*
X23826Y-29206D02*
X23576Y-29456D01*
X23576Y-31292D02*
X23826Y-31542D01*
X23826Y-31292D02*
X23576Y-31542D01*
X23694Y-23792D02*
X23944Y-24042D01*
X23944Y-23792D02*
X23694Y-24042D01*
X24088Y-21529D02*
X24338Y-21779D01*
X24338Y-21529D02*
X24088Y-21779D01*
X24206Y-24954D02*
X24456Y-25204D01*
X24456Y-24954D02*
X24206Y-25204D01*
X24442Y-30387D02*
X24692Y-30637D01*
X24692Y-30387D02*
X24442Y-30637D01*
X24481Y-31253D02*
X24731Y-31503D01*
X24731Y-31253D02*
X24481Y-31503D01*
X24580Y-19560D02*
X24830Y-19810D01*
X24830Y-19560D02*
X24580Y-19810D01*
X24580Y-23202D02*
X24830Y-23452D01*
X24830Y-23202D02*
X24580Y-23452D01*
X24639Y-26725D02*
X24889Y-26975D01*
X24889Y-26725D02*
X24639Y-26975D01*
X24639Y-27670D02*
X24889Y-27920D01*
X24889Y-27670D02*
X24639Y-27920D01*
X24678Y-18694D02*
X24928Y-18944D01*
X24928Y-18694D02*
X24678Y-18944D01*
X24914Y-15781D02*
X25164Y-16031D01*
X25164Y-15781D02*
X24914Y-16031D01*
X24914Y-32316D02*
X25164Y-32566D01*
X25164Y-32316D02*
X24914Y-32566D01*
X25072Y-19166D02*
X25322Y-19416D01*
X25322Y-19166D02*
X25072Y-19416D01*
X25072Y-24481D02*
X25322Y-24731D01*
X25322Y-24481D02*
X25072Y-24731D01*
X25466Y-29206D02*
X25716Y-29456D01*
X25716Y-29206D02*
X25466Y-29456D01*
X25781Y-17001D02*
X26031Y-17251D01*
X26031Y-17001D02*
X25781Y-17251D01*
X25781Y-32316D02*
X26031Y-32566D01*
X26031Y-32316D02*
X25781Y-32566D01*
X25820Y-31292D02*
X26070Y-31542D01*
X26070Y-31292D02*
X25820Y-31542D01*
X25859Y-12434D02*
X26109Y-12684D01*
X26109Y-12434D02*
X25859Y-12684D01*
X25859Y-26529D02*
X26109Y-26779D01*
X26109Y-26529D02*
X25859Y-26779D01*
X25899Y-14639D02*
X26149Y-14889D01*
X26149Y-14639D02*
X25899Y-14889D01*
X25938Y-27473D02*
X26188Y-27723D01*
X26188Y-27473D02*
X25938Y-27723D01*
X26450Y-25229D02*
X26700Y-25479D01*
X26700Y-25229D02*
X26450Y-25479D01*
X26529Y-28418D02*
X26779Y-28668D01*
X26779Y-28418D02*
X26529Y-28668D01*
X26844Y-15702D02*
X27094Y-15952D01*
X27094Y-15702D02*
X26844Y-15952D01*
X26844Y-17001D02*
X27094Y-17251D01*
X27094Y-17001D02*
X26844Y-17251D01*
X26922Y-17788D02*
X27172Y-18038D01*
X27172Y-17788D02*
X26922Y-18038D01*
X26922Y-19796D02*
X27172Y-20046D01*
X27172Y-19796D02*
X26922Y-20046D01*
X26962Y-26962D02*
X27212Y-27212D01*
X27212Y-26962D02*
X26962Y-27212D01*
X26962Y-27710D02*
X27212Y-27960D01*
X27212Y-27710D02*
X26962Y-27960D01*
X27001Y-26174D02*
X27251Y-26424D01*
X27251Y-26174D02*
X27001Y-26424D01*
X27788Y-16962D02*
X28038Y-17212D01*
X28038Y-16962D02*
X27788Y-17212D01*
X27828Y-17788D02*
X28078Y-18038D01*
X28078Y-17788D02*
X27828Y-18038D01*
X27985Y-19875D02*
X28235Y-20125D01*
X28235Y-19875D02*
X27985Y-20125D01*
X28340Y-26174D02*
X28590Y-26424D01*
X28590Y-26174D02*
X28340Y-26424D01*
X28340Y-26962D02*
X28590Y-27212D01*
X28590Y-26962D02*
X28340Y-27212D01*
X28379Y-27710D02*
X28629Y-27960D01*
X28629Y-27710D02*
X28379Y-27960D01*
X28615Y-15741D02*
X28865Y-15991D01*
X28865Y-15741D02*
X28615Y-15991D01*
X28615Y-16607D02*
X28865Y-16857D01*
X28865Y-16607D02*
X28615Y-16857D01*
X28655Y-24639D02*
X28905Y-24889D01*
X28905Y-24639D02*
X28655Y-24889D01*
X28694Y-14560D02*
X28944Y-14810D01*
X28944Y-14560D02*
X28694Y-14810D01*
X28694Y-23458D02*
X28944Y-23708D01*
X28944Y-23458D02*
X28694Y-23708D01*
X28773Y-30151D02*
X29023Y-30401D01*
X29023Y-30151D02*
X28773Y-30401D01*
X28773Y-30938D02*
X29023Y-31188D01*
X29023Y-30938D02*
X28773Y-31188D01*
X29206Y-31962D02*
X29456Y-32212D01*
X29456Y-31962D02*
X29206Y-32212D01*
X29206Y-32552D02*
X29456Y-32802D01*
X29456Y-32552D02*
X29206Y-32802D01*
X29403Y-18025D02*
X29653Y-18275D01*
X29653Y-18025D02*
X29403Y-18275D01*
X29560Y-23497D02*
X29810Y-23747D01*
X29810Y-23497D02*
X29560Y-23747D01*
X29560Y-24678D02*
X29810Y-24928D01*
X29810Y-24678D02*
X29560Y-24928D01*
X29796Y-15308D02*
X30046Y-15558D01*
X30046Y-15308D02*
X29796Y-15558D01*
X29993Y-19363D02*
X30243Y-19613D01*
X30243Y-19363D02*
X29993Y-19613D01*
X29993Y-31292D02*
X30243Y-31542D01*
X30243Y-31292D02*
X29993Y-31542D01*
X30072Y-32552D02*
X30322Y-32802D01*
X30322Y-32552D02*
X30072Y-32802D01*
X30347Y-22710D02*
X30597Y-22960D01*
X30597Y-22710D02*
X30347Y-22960D01*
X30426Y-23536D02*
X30676Y-23786D01*
X30676Y-23536D02*
X30426Y-23786D01*
X30426Y-24599D02*
X30676Y-24849D01*
X30676Y-24599D02*
X30426Y-24849D01*
X30584Y-15308D02*
X30834Y-15558D01*
X30834Y-15308D02*
X30584Y-15558D01*
X30781Y-17729D02*
X31031Y-17979D01*
X31031Y-17729D02*
X30781Y-17979D01*
X30781Y-20820D02*
X31031Y-21070D01*
X31031Y-20820D02*
X30781Y-21070D01*
X30938Y-30938D02*
X31188Y-31188D01*
X31188Y-30938D02*
X30938Y-31188D01*
X30938Y-32552D02*
X31188Y-32802D01*
X31188Y-32552D02*
X30938Y-32802D01*
X30977Y-26174D02*
X31227Y-26424D01*
X31227Y-26174D02*
X30977Y-26424D01*
X30977Y-26962D02*
X31227Y-27212D01*
X31227Y-26962D02*
X30977Y-27212D01*
X30977Y-27710D02*
X31227Y-27960D01*
X31227Y-27710D02*
X30977Y-27960D01*
X30977Y-28497D02*
X31227Y-28747D01*
X31227Y-28497D02*
X30977Y-28747D01*
X30977Y-30151D02*
X31227Y-30401D01*
X31227Y-30151D02*
X30977Y-30401D01*
X31292Y-23930D02*
X31542Y-24180D01*
X31542Y-23930D02*
X31292Y-24180D01*
X31292Y-24639D02*
X31542Y-24889D01*
X31542Y-24639D02*
X31292Y-24889D01*
X31410Y-15308D02*
X31660Y-15558D01*
X31660Y-15308D02*
X31410Y-15558D01*
X31765Y-31647D02*
X32015Y-31897D01*
X32015Y-31647D02*
X31765Y-31897D01*
X31804Y-32552D02*
X32054Y-32802D01*
X32054Y-32552D02*
X31804Y-32802D01*
X32237Y-23418D02*
X32487Y-23668D01*
X32487Y-23418D02*
X32237Y-23668D01*
X32355Y-30741D02*
X32605Y-30991D01*
X32605Y-30741D02*
X32355Y-30991D01*
X32592Y-18379D02*
X32842Y-18629D01*
X32842Y-18379D02*
X32592Y-18629D01*
X32592Y-18969D02*
X32842Y-19219D01*
X32842Y-18969D02*
X32592Y-19219D01*
X32631Y-32552D02*
X32881Y-32802D01*
X32881Y-32552D02*
X32631Y-32802D01*
X32788Y-15288D02*
X33038Y-15538D01*
X33038Y-15288D02*
X32788Y-15538D01*
X32985Y-21095D02*
X33235Y-21345D01*
X33235Y-21095D02*
X32985Y-21345D01*
X32985Y-24521D02*
X33235Y-24771D01*
X33235Y-24521D02*
X32985Y-24771D01*
X32985Y-26174D02*
X33235Y-26424D01*
X33235Y-26174D02*
X32985Y-26424D01*
X32985Y-26962D02*
X33235Y-27212D01*
X33235Y-26962D02*
X32985Y-27212D01*
X32985Y-27710D02*
X33235Y-27960D01*
X33235Y-27710D02*
X32985Y-27960D01*
X32985Y-28576D02*
X33235Y-28826D01*
X33235Y-28576D02*
X32985Y-28826D01*
X32985Y-30347D02*
X33235Y-30597D01*
X33235Y-30347D02*
X32985Y-30597D01*
X33340Y-29757D02*
X33590Y-30007D01*
X33590Y-29757D02*
X33340Y-30007D01*
X33458Y-32552D02*
X33708Y-32802D01*
X33708Y-32552D02*
X33458Y-32802D01*
X33674Y-18694D02*
X33924Y-18944D01*
X33924Y-18694D02*
X33674Y-18944D01*
X33674Y-28103D02*
X33924Y-28353D01*
X33924Y-28103D02*
X33674Y-28353D01*
X34009Y-15288D02*
X34259Y-15538D01*
X34259Y-15288D02*
X34009Y-15538D01*
X34284Y-18103D02*
X34534Y-18353D01*
X34534Y-18103D02*
X34284Y-18353D01*
X34481Y-14521D02*
X34731Y-14771D01*
X34731Y-14521D02*
X34481Y-14771D01*
X34757Y-27316D02*
X35007Y-27566D01*
X35007Y-27316D02*
X34757Y-27566D01*
X34796Y-28576D02*
X35046Y-28826D01*
X35046Y-28576D02*
X34796Y-28826D01*
X34796Y-30820D02*
X35046Y-31070D01*
X35046Y-30820D02*
X34796Y-31070D01*
X35229Y-14363D02*
X35479Y-14613D01*
X35479Y-14363D02*
X35229Y-14613D01*
X35229Y-21410D02*
X35479Y-21660D01*
X35479Y-21410D02*
X35229Y-21660D01*
X35229Y-22040D02*
X35479Y-22290D01*
X35479Y-22040D02*
X35229Y-22290D01*
X35269Y-24324D02*
X35519Y-24574D01*
X35519Y-24324D02*
X35269Y-24574D01*
X35308Y-24796D02*
X35558Y-25046D01*
X35558Y-24796D02*
X35308Y-25046D01*
X35584Y-27277D02*
X35834Y-27527D01*
X35834Y-27277D02*
X35584Y-27527D01*
X35584Y-30820D02*
X35834Y-31070D01*
X35834Y-30820D02*
X35584Y-31070D01*
X35899Y-25781D02*
X36149Y-26031D01*
X36149Y-25781D02*
X35899Y-26031D01*
X35977Y-32552D02*
X36227Y-32802D01*
X36227Y-32552D02*
X35977Y-32802D01*
X36017Y-21017D02*
X36267Y-21267D01*
X36267Y-21017D02*
X36017Y-21267D01*
X36017Y-22001D02*
X36267Y-22251D01*
X36267Y-22001D02*
X36017Y-22251D01*
X36076Y-15288D02*
X36326Y-15538D01*
X36326Y-15288D02*
X36076Y-15538D01*
X36332Y-28615D02*
X36582Y-28865D01*
X36582Y-28615D02*
X36332Y-28865D01*
X36450Y-20387D02*
X36700Y-20637D01*
X36700Y-20387D02*
X36450Y-20637D01*
X36450Y-23930D02*
X36700Y-24180D01*
X36700Y-23930D02*
X36450Y-24180D01*
X36450Y-24560D02*
X36700Y-24810D01*
X36700Y-24560D02*
X36450Y-24810D01*
X36450Y-25269D02*
X36700Y-25519D01*
X36700Y-25269D02*
X36450Y-25519D01*
X36489Y-23379D02*
X36739Y-23629D01*
X36739Y-23379D02*
X36489Y-23629D01*
X36568Y-27355D02*
X36818Y-27605D01*
X36818Y-27355D02*
X36568Y-27605D01*
X36568Y-30820D02*
X36818Y-31070D01*
X36818Y-30820D02*
X36568Y-31070D01*
X36607Y-22788D02*
X36857Y-23038D01*
X36857Y-22788D02*
X36607Y-23038D01*
X36607Y-26568D02*
X36857Y-26818D01*
X36857Y-26568D02*
X36607Y-26818D01*
X36962Y-19560D02*
X37212Y-19810D01*
X37212Y-19560D02*
X36962Y-19810D01*
X36962Y-28969D02*
X37212Y-29219D01*
X37212Y-28969D02*
X36962Y-29219D01*
X37119Y-29757D02*
X37369Y-30007D01*
X37369Y-29757D02*
X37119Y-30007D01*
X37198Y-31647D02*
X37448Y-31897D01*
X37448Y-31647D02*
X37198Y-31897D01*
X37434Y-28103D02*
X37684Y-28353D01*
X37684Y-28103D02*
X37434Y-28353D01*
X37473Y-29403D02*
X37723Y-29653D01*
X37723Y-29403D02*
X37473Y-29653D01*
X37592Y-30151D02*
X37842Y-30401D01*
X37842Y-30151D02*
X37592Y-30401D01*
X37592Y-31292D02*
X37842Y-31542D01*
X37842Y-31292D02*
X37592Y-31542D01*
X37749Y-32001D02*
X37999Y-32251D01*
X37999Y-32001D02*
X37749Y-32251D01*
X38418Y-15269D02*
X38668Y-15519D01*
X38668Y-15269D02*
X38418Y-15519D01*
X38536Y-22631D02*
X38786Y-22881D01*
X38786Y-22631D02*
X38536Y-22881D01*
X38536Y-23281D02*
X38786Y-23531D01*
X38786Y-23281D02*
X38536Y-23531D01*
X38536Y-25259D02*
X38786Y-25509D01*
X38786Y-25259D02*
X38536Y-25509D01*
X38536Y-25908D02*
X38786Y-26158D01*
X38786Y-25908D02*
X38536Y-26158D01*
X38576Y-23969D02*
X38826Y-24219D01*
X38826Y-23969D02*
X38576Y-24219D01*
X38576Y-24599D02*
X38826Y-24849D01*
X38826Y-24599D02*
X38576Y-24849D01*
X38576Y-26568D02*
X38826Y-26818D01*
X38826Y-26568D02*
X38576Y-26818D01*
X38773Y-27572D02*
X39023Y-27822D01*
X39023Y-27572D02*
X38773Y-27822D01*
X38773Y-28536D02*
X39023Y-28786D01*
X39023Y-28536D02*
X38773Y-28786D01*
X38773Y-32473D02*
X39023Y-32723D01*
X39023Y-32473D02*
X38773Y-32723D01*
X39088Y-20308D02*
X39338Y-20558D01*
X39338Y-20308D02*
X39088Y-20558D01*
X39127Y-14363D02*
X39377Y-14613D01*
X39377Y-14363D02*
X39127Y-14613D01*
X39521Y-18733D02*
X39771Y-18983D01*
X39771Y-18733D02*
X39521Y-18983D01*
X39639Y-14875D02*
X39889Y-15125D01*
X39889Y-14875D02*
X39639Y-15125D01*
X39639Y-17592D02*
X39889Y-17842D01*
X39889Y-17592D02*
X39639Y-17842D01*
X39796Y-30899D02*
X40046Y-31149D01*
X40046Y-30899D02*
X39796Y-31149D01*
X40052Y-19088D02*
X40302Y-19338D01*
X40302Y-19088D02*
X40052Y-19338D01*
X40332Y-14714D02*
X40582Y-14964D01*
X40582Y-14714D02*
X40332Y-14964D01*
X40426Y-30899D02*
X40676Y-31149D01*
X40676Y-30899D02*
X40426Y-31149D01*
X40682Y-19088D02*
X40932Y-19338D01*
X40932Y-19088D02*
X40682Y-19338D01*
X41056Y-30899D02*
X41306Y-31149D01*
X41306Y-30899D02*
X41056Y-31149D01*
X41312Y-19088D02*
X41562Y-19338D01*
X41562Y-19088D02*
X41312Y-19338D01*
X41686Y-30899D02*
X41936Y-31149D01*
X41936Y-30899D02*
X41686Y-31149D01*
X41942Y-19088D02*
X42192Y-19338D01*
X42192Y-19088D02*
X41942Y-19338D01*
X42355Y-13316D02*
X42605Y-13566D01*
X42605Y-13316D02*
X42355Y-13566D01*
X42513Y-30938D02*
X42763Y-31188D01*
X42763Y-30938D02*
X42513Y-31188D01*
X42572Y-19088D02*
X42822Y-19338D01*
X42822Y-19088D02*
X42572Y-19338D01*
X42710Y-13615D02*
X42960Y-13865D01*
X42960Y-13615D02*
X42710Y-13865D01*
X42985Y-22749D02*
X43235Y-22999D01*
X43235Y-22749D02*
X42985Y-22999D01*
X42985Y-23536D02*
X43235Y-23786D01*
X43235Y-23536D02*
X42985Y-23786D01*
X42985Y-24284D02*
X43235Y-24534D01*
X43235Y-24284D02*
X42985Y-24534D01*
X43005Y-26588D02*
X43255Y-26838D01*
X43255Y-26588D02*
X43005Y-26838D01*
X43143Y-13300D02*
X43393Y-13550D01*
X43393Y-13300D02*
X43143Y-13550D01*
X43202Y-19088D02*
X43452Y-19338D01*
X43452Y-19088D02*
X43202Y-19338D01*
X43418Y-26095D02*
X43668Y-26345D01*
X43668Y-26095D02*
X43418Y-26345D01*
X43458Y-13655D02*
X43708Y-13905D01*
X43708Y-13655D02*
X43458Y-13905D01*
X43576Y-26844D02*
X43826Y-27094D01*
X43826Y-26844D02*
X43576Y-27094D01*
X43733Y-17513D02*
X43983Y-17763D01*
X43983Y-17513D02*
X43733Y-17763D01*
X43832Y-19088D02*
X44082Y-19338D01*
X44082Y-19088D02*
X43832Y-19338D01*
X43851Y-13418D02*
X44101Y-13668D01*
X44101Y-13418D02*
X43851Y-13668D01*
X43930Y-24294D02*
X44180Y-24544D01*
X44180Y-24294D02*
X43930Y-24544D01*
X43969Y-30938D02*
X44219Y-31188D01*
X44219Y-30938D02*
X43969Y-31188D01*
X44206Y-29796D02*
X44456Y-30046D01*
X44456Y-29796D02*
X44206Y-30046D01*
X44277Y-13631D02*
X44527Y-13881D01*
X44527Y-13631D02*
X44277Y-13881D01*
X44363Y-22198D02*
X44613Y-22448D01*
X44613Y-22198D02*
X44363Y-22448D01*
X44442Y-19117D02*
X44692Y-19367D01*
X44692Y-19117D02*
X44442Y-19367D01*
X44599Y-26962D02*
X44849Y-27212D01*
X44849Y-26962D02*
X44599Y-27212D01*
X44737Y-13615D02*
X44987Y-13865D01*
X44987Y-13615D02*
X44737Y-13865D01*
X44757Y-22631D02*
X45007Y-22881D01*
X45007Y-22631D02*
X44757Y-22881D01*
X44777Y-20692D02*
X45027Y-20942D01*
X45027Y-20692D02*
X44777Y-20942D01*
X44993Y-24324D02*
X45243Y-24574D01*
X45243Y-24324D02*
X44993Y-24574D01*
X45092Y-19088D02*
X45342Y-19338D01*
X45342Y-19088D02*
X45092Y-19338D01*
X45190Y-26962D02*
X45440Y-27212D01*
X45440Y-26962D02*
X45190Y-27212D01*
X45466Y-28418D02*
X45716Y-28668D01*
X45716Y-28418D02*
X45466Y-28668D01*
X45721Y-19127D02*
X45971Y-19377D01*
X45971Y-19127D02*
X45721Y-19377D01*
X45781Y-26686D02*
X46031Y-26936D01*
X46031Y-26686D02*
X45781Y-26936D01*
X45859Y-23143D02*
X46109Y-23393D01*
X46109Y-23143D02*
X45859Y-23393D01*
X45859Y-29639D02*
X46109Y-29889D01*
X46109Y-29639D02*
X45859Y-29889D01*
X46086Y-13103D02*
X46336Y-13353D01*
X46336Y-13103D02*
X46086Y-13353D01*
X46253Y-15269D02*
X46503Y-15519D01*
X46503Y-15269D02*
X46253Y-15519D01*
X46292Y-26922D02*
X46542Y-27172D01*
X46542Y-26922D02*
X46292Y-27172D01*
X46351Y-19088D02*
X46601Y-19338D01*
X46601Y-19088D02*
X46351Y-19338D01*
X46588Y-13103D02*
X46838Y-13353D01*
X46838Y-13103D02*
X46588Y-13353D01*
X46597Y-24294D02*
X46847Y-24544D01*
X46847Y-24294D02*
X46597Y-24544D01*
X46607Y-22985D02*
X46857Y-23235D01*
X46857Y-22985D02*
X46607Y-23235D01*
X46647Y-15702D02*
X46897Y-15952D01*
X46897Y-15702D02*
X46647Y-15952D01*
X46647Y-29639D02*
X46897Y-29889D01*
X46897Y-29639D02*
X46647Y-29889D01*
X46922Y-13399D02*
X47172Y-13649D01*
X47172Y-13399D02*
X46922Y-13649D01*
X46981Y-19107D02*
X47231Y-19357D01*
X47231Y-19107D02*
X46981Y-19357D01*
X47001Y-16095D02*
X47251Y-16345D01*
X47251Y-16095D02*
X47001Y-16345D01*
X47257Y-13103D02*
X47507Y-13353D01*
X47507Y-13103D02*
X47257Y-13353D01*
X47395Y-26115D02*
X47645Y-26365D01*
X47645Y-26115D02*
X47395Y-26365D01*
X47592Y-13418D02*
X47842Y-13668D01*
X47842Y-13418D02*
X47592Y-13668D01*
X47611Y-19127D02*
X47861Y-19377D01*
X47861Y-19127D02*
X47611Y-19377D01*
X48969Y-30151D02*
X49219Y-30401D01*
X49219Y-30151D02*
X48969Y-30401D01*
X49009Y-29639D02*
X49259Y-29889D01*
X49259Y-29639D02*
X49009Y-29889D01*
X49324Y-18340D02*
X49574Y-18590D01*
X49574Y-18340D02*
X49324Y-18590D01*
X49432Y-17050D02*
X49682Y-17300D01*
X49682Y-17050D02*
X49432Y-17300D01*
X50023Y-15544D02*
X50273Y-15794D01*
X50273Y-15544D02*
X50023Y-15794D01*
X50466Y-18694D02*
X50716Y-18944D01*
X50716Y-18694D02*
X50466Y-18944D01*
X50623Y-30151D02*
X50873Y-30401D01*
X50873Y-30151D02*
X50623Y-30401D01*
X51292Y-21607D02*
X51542Y-21857D01*
X51542Y-21607D02*
X51292Y-21857D01*
X51292Y-22158D02*
X51542Y-22408D01*
X51542Y-22158D02*
X51292Y-22408D01*
X51292Y-22670D02*
X51542Y-22920D01*
X51542Y-22670D02*
X51292Y-22920D01*
X51568Y-23142D02*
X51818Y-23392D01*
X51818Y-23142D02*
X51568Y-23392D01*
X51568Y-32119D02*
X51818Y-32369D01*
X51818Y-32119D02*
X51568Y-32369D01*
X51647Y-19993D02*
X51897Y-20243D01*
X51897Y-19993D02*
X51647Y-20243D01*
X51765Y-17670D02*
X52015Y-17920D01*
X52015Y-17670D02*
X51765Y-17920D01*
X52031Y-16204D02*
X52281Y-16454D01*
X52281Y-16204D02*
X52031Y-16454D01*
X52040Y-15190D02*
X52290Y-15440D01*
X52290Y-15190D02*
X52040Y-15440D01*
X52395Y-20623D02*
X52645Y-20873D01*
X52645Y-20623D02*
X52395Y-20873D01*
X52532Y-25830D02*
X52782Y-26080D01*
X52782Y-25830D02*
X52532Y-26080D01*
X52749Y-32080D02*
X52999Y-32330D01*
X52999Y-32080D02*
X52749Y-32330D01*
X53005Y-15279D02*
X53255Y-15529D01*
X53255Y-15279D02*
X53005Y-15529D01*
X53025Y-16223D02*
X53275Y-16473D01*
X53275Y-16223D02*
X53025Y-16473D01*
X53143Y-17592D02*
X53393Y-17842D01*
X53393Y-17592D02*
X53143Y-17842D01*
X53694Y-30505D02*
X53944Y-30755D01*
X53944Y-30505D02*
X53694Y-30755D01*
X53851Y-18143D02*
X54101Y-18393D01*
X54101Y-18143D02*
X53851Y-18393D01*
X53851Y-18930D02*
X54101Y-19180D01*
X54101Y-18930D02*
X53851Y-19180D01*
X53851Y-19796D02*
X54101Y-20046D01*
X54101Y-19796D02*
X53851Y-20046D01*
X54206Y-21450D02*
X54456Y-21700D01*
X54456Y-21450D02*
X54206Y-21700D01*
X54245Y-22158D02*
X54495Y-22408D01*
X54495Y-22158D02*
X54245Y-22408D01*
X54403Y-31174D02*
X54653Y-31424D01*
X54653Y-31174D02*
X54403Y-31424D01*
X54403Y-32119D02*
X54653Y-32369D01*
X54653Y-32119D02*
X54403Y-32369D01*
X54521Y-20584D02*
X54771Y-20834D01*
X54771Y-20584D02*
X54521Y-20834D01*
X54560Y-23143D02*
X54810Y-23393D01*
X54810Y-23143D02*
X54560Y-23393D01*
X54560Y-27670D02*
X54810Y-27920D01*
X54810Y-27670D02*
X54560Y-27920D01*
X54599Y-28497D02*
X54849Y-28747D01*
X54849Y-28497D02*
X54599Y-28747D01*
X54658Y-16942D02*
X54908Y-17192D01*
X54908Y-16942D02*
X54658Y-17192D01*
X55032Y-28025D02*
X55282Y-28275D01*
X55282Y-28025D02*
X55032Y-28275D01*
X55072Y-18064D02*
X55322Y-18314D01*
X55322Y-18064D02*
X55072Y-18314D01*
X55702Y-31135D02*
X55952Y-31385D01*
X55952Y-31135D02*
X55702Y-31385D01*
X55702Y-32119D02*
X55952Y-32369D01*
X55952Y-32119D02*
X55702Y-32369D01*
X55977Y-16410D02*
X56227Y-16660D01*
X56227Y-16410D02*
X55977Y-16660D01*
X56017Y-23536D02*
X56267Y-23786D01*
X56267Y-23536D02*
X56017Y-23786D01*
X56056Y-29324D02*
X56306Y-29574D01*
X56306Y-29324D02*
X56056Y-29574D01*
X56095Y-12749D02*
X56345Y-12999D01*
X56345Y-12749D02*
X56095Y-12999D01*
X56095Y-13733D02*
X56345Y-13983D01*
X56345Y-13733D02*
X56095Y-13983D01*
X56450Y-24875D02*
X56700Y-25125D01*
X56700Y-24875D02*
X56450Y-25125D01*
X56686Y-18576D02*
X56936Y-18826D01*
X56936Y-18576D02*
X56686Y-18826D01*
X56686Y-19678D02*
X56936Y-19928D01*
X56936Y-19678D02*
X56686Y-19928D01*
X56686Y-21332D02*
X56936Y-21582D01*
X56936Y-21332D02*
X56686Y-21582D01*
X56686Y-22395D02*
X56936Y-22645D01*
X56936Y-22395D02*
X56686Y-22645D01*
X56844Y-16844D02*
X57094Y-17094D01*
X57094Y-16844D02*
X56844Y-17094D01*
X56883Y-16056D02*
X57133Y-16306D01*
X57133Y-16056D02*
X56883Y-16306D01*
X57080Y-31135D02*
X57330Y-31385D01*
X57330Y-31135D02*
X57080Y-31385D01*
X57080Y-32119D02*
X57330Y-32369D01*
X57330Y-32119D02*
X57080Y-32369D01*
X57198Y-26371D02*
X57448Y-26621D01*
X57448Y-26371D02*
X57198Y-26621D01*
X57631Y-18576D02*
X57881Y-18826D01*
X57881Y-18576D02*
X57631Y-18826D01*
X57670Y-15623D02*
X57920Y-15873D01*
X57920Y-15623D02*
X57670Y-15873D01*
X57670Y-16804D02*
X57920Y-17054D01*
X57920Y-16804D02*
X57670Y-17054D01*
X57670Y-19718D02*
X57920Y-19968D01*
X57920Y-19718D02*
X57670Y-19968D01*
X57670Y-21292D02*
X57920Y-21542D01*
X57920Y-21292D02*
X57670Y-21542D01*
X57670Y-22395D02*
X57920Y-22645D01*
X57920Y-22395D02*
X57670Y-22645D01*
X57670Y-25190D02*
X57920Y-25440D01*
X57920Y-25190D02*
X57670Y-25440D01*
X57867Y-27001D02*
X58117Y-27251D01*
X58117Y-27001D02*
X57867Y-27251D01*
X58300Y-29993D02*
X58550Y-30243D01*
X58550Y-29993D02*
X58300Y-30243D01*
X58300Y-31135D02*
X58550Y-31385D01*
X58550Y-31135D02*
X58300Y-31385D01*
X58300Y-32080D02*
X58550Y-32330D01*
X58550Y-32080D02*
X58300Y-32330D01*
X58655Y-23773D02*
X58905Y-24023D01*
X58905Y-23773D02*
X58655Y-24023D01*
X58694Y-15977D02*
X58944Y-16227D01*
X58944Y-15977D02*
X58694Y-16227D01*
X58851Y-25977D02*
X59101Y-26227D01*
X59101Y-25977D02*
X58851Y-26227D01*
X59048Y-18536D02*
X59298Y-18786D01*
X59298Y-18536D02*
X59048Y-18786D01*
X59048Y-19796D02*
X59298Y-20046D01*
X59298Y-19796D02*
X59048Y-20046D01*
X59048Y-21292D02*
X59298Y-21542D01*
X59298Y-21292D02*
X59048Y-21542D01*
X59048Y-22198D02*
X59298Y-22448D01*
X59298Y-22198D02*
X59048Y-22448D01*
X59048Y-22670D02*
X59298Y-22920D01*
X59298Y-22670D02*
X59048Y-22920D01*
X59442Y-16017D02*
X59692Y-16267D01*
X59692Y-16017D02*
X59442Y-16267D01*
X59442Y-32592D02*
X59692Y-32842D01*
X59692Y-32592D02*
X59442Y-32842D01*
X60190Y-12513D02*
X60440Y-12763D01*
X60440Y-12513D02*
X60190Y-12763D01*
X60190Y-13694D02*
X60440Y-13944D01*
X60440Y-13694D02*
X60190Y-13944D01*
X60190Y-23143D02*
X60440Y-23393D01*
X60440Y-23143D02*
X60190Y-23393D01*
X60229Y-25111D02*
X60479Y-25361D01*
X60479Y-25111D02*
X60229Y-25361D01*
X60347Y-18576D02*
X60597Y-18826D01*
X60597Y-18576D02*
X60347Y-18826D01*
X60347Y-19796D02*
X60597Y-20046D01*
X60597Y-19796D02*
X60347Y-20046D01*
X60387Y-16095D02*
X60637Y-16345D01*
X60637Y-16095D02*
X60387Y-16345D01*
X60387Y-17040D02*
X60637Y-17290D01*
X60637Y-17040D02*
X60387Y-17290D01*
X60584Y-26371D02*
X60834Y-26621D01*
X60834Y-26371D02*
X60584Y-26621D01*
X60623Y-27158D02*
X60873Y-27408D01*
X60873Y-27158D02*
X60623Y-27408D01*
X60662Y-14599D02*
X60912Y-14849D01*
X60912Y-14599D02*
X60662Y-14849D01*
X60820Y-29954D02*
X61070Y-30204D01*
X61070Y-29954D02*
X60820Y-30204D01*
X61017Y-21056D02*
X61267Y-21306D01*
X61267Y-21056D02*
X61017Y-21306D01*
X61017Y-23694D02*
X61267Y-23944D01*
X61267Y-23694D02*
X61017Y-23944D01*
X61332Y-17001D02*
X61582Y-17251D01*
X61582Y-17001D02*
X61332Y-17251D01*
X61332Y-18064D02*
X61582Y-18314D01*
X61582Y-18064D02*
X61332Y-18314D01*
X61804Y-27237D02*
X62054Y-27487D01*
X62054Y-27237D02*
X61804Y-27487D01*
X61962Y-16214D02*
X62212Y-16464D01*
X62212Y-16214D02*
X61962Y-16464D01*
X61962Y-18891D02*
X62212Y-19141D01*
X62212Y-18891D02*
X61962Y-19141D01*
X62158Y-23576D02*
X62408Y-23826D01*
X62408Y-23576D02*
X62158Y-23826D01*
X62513Y-29954D02*
X62763Y-30204D01*
X62763Y-29954D02*
X62513Y-30204D01*
X63536Y-27198D02*
X63786Y-27448D01*
X63786Y-27198D02*
X63536Y-27448D01*
X63891Y-24088D02*
X64141Y-24338D01*
X64141Y-24088D02*
X63891Y-24338D01*
X64088Y-21135D02*
X64338Y-21385D01*
X64338Y-21135D02*
X64088Y-21385D01*
X64206Y-12710D02*
X64456Y-12960D01*
X64456Y-12710D02*
X64206Y-12960D01*
X64206Y-13458D02*
X64456Y-13708D01*
X64456Y-13458D02*
X64206Y-13708D01*
X64206Y-14560D02*
X64456Y-14810D01*
X64456Y-14560D02*
X64206Y-14810D01*
X64875Y-18891D02*
X65125Y-19141D01*
X65125Y-18891D02*
X64875Y-19141D01*
X64914Y-18064D02*
X65164Y-18314D01*
X65164Y-18064D02*
X64914Y-18314D01*
X64954Y-24048D02*
X65204Y-24298D01*
X65204Y-24048D02*
X64954Y-24298D01*
X64954Y-27670D02*
X65204Y-27920D01*
X65204Y-27670D02*
X64954Y-27920D01*
X65190Y-13497D02*
X65440Y-13747D01*
X65440Y-13497D02*
X65190Y-13747D01*
X65190Y-14599D02*
X65440Y-14849D01*
X65440Y-14599D02*
X65190Y-14849D01*
X65229Y-12710D02*
X65479Y-12960D01*
X65479Y-12710D02*
X65229Y-12960D01*
X65583Y-23300D02*
X65833Y-23550D01*
X65833Y-23300D02*
X65583Y-23550D01*
X66174Y-12710D02*
X66424Y-12960D01*
X66424Y-12710D02*
X66174Y-12960D01*
X66174Y-13536D02*
X66424Y-13786D01*
X66424Y-13536D02*
X66174Y-13786D01*
X66174Y-30032D02*
X66424Y-30282D01*
X66424Y-30032D02*
X66174Y-30282D01*
X67434Y-20781D02*
X67684Y-21031D01*
X67684Y-20781D02*
X67434Y-21031D01*
X67434Y-22788D02*
X67684Y-23038D01*
X67684Y-22788D02*
X67434Y-23038D01*
X67670Y-18851D02*
X67920Y-19101D01*
X67920Y-18851D02*
X67670Y-19101D01*
X67690Y-14836D02*
X67940Y-15086D01*
X67940Y-14836D02*
X67690Y-15086D01*
X67946Y-32198D02*
X68196Y-32448D01*
X68196Y-32198D02*
X67946Y-32448D01*
X68536Y-14836D02*
X68786Y-15086D01*
X68786Y-14836D02*
X68536Y-15086D01*
X68536Y-15859D02*
X68786Y-16109D01*
X68786Y-15859D02*
X68536Y-16109D01*
X68576Y-20781D02*
X68826Y-21031D01*
X68826Y-20781D02*
X68576Y-21031D01*
X68576Y-22749D02*
X68826Y-22999D01*
X68826Y-22749D02*
X68576Y-22999D01*
X69324Y-15466D02*
X69574Y-15716D01*
X69574Y-15466D02*
X69324Y-15716D01*
X69836Y-18851D02*
X70086Y-19101D01*
X70086Y-18851D02*
X69836Y-19101D01*
X70741Y-16607D02*
X70991Y-16857D01*
X70991Y-16607D02*
X70741Y-16857D01*
X70741Y-18851D02*
X70991Y-19101D01*
X70991Y-18851D02*
X70741Y-19101D01*
X70741Y-20781D02*
X70991Y-21031D01*
X70991Y-20781D02*
X70741Y-21031D01*
X70899Y-25269D02*
X71149Y-25519D01*
X71149Y-25269D02*
X70899Y-25519D01*
X70899Y-26686D02*
X71149Y-26936D01*
X71149Y-26686D02*
X70899Y-26936D01*
X71529Y-28025D02*
X71779Y-28275D01*
X71779Y-28025D02*
X71529Y-28275D01*
X71686Y-18851D02*
X71936Y-19101D01*
X71936Y-18851D02*
X71686Y-19101D01*
X71725Y-17198D02*
X71975Y-17448D01*
X71975Y-17198D02*
X71725Y-17448D01*
X71962Y-24639D02*
X72212Y-24889D01*
X72212Y-24639D02*
X71962Y-24889D01*
X72592Y-25269D02*
X72842Y-25519D01*
X72842Y-25269D02*
X72592Y-25519D01*
X72592Y-26647D02*
X72842Y-26897D01*
X72842Y-26647D02*
X72592Y-26897D01*
X72592Y-27946D02*
X72842Y-28196D01*
X72842Y-27946D02*
X72592Y-28196D01*
X72631Y-30269D02*
X72881Y-30519D01*
X72881Y-30269D02*
X72631Y-30519D01*
X72828Y-15348D02*
X73078Y-15598D01*
X73078Y-15348D02*
X72828Y-15598D01*
X72867Y-18851D02*
X73117Y-19101D01*
X73117Y-18851D02*
X72867Y-19101D01*
X72867Y-32080D02*
X73117Y-32330D01*
X73117Y-32080D02*
X72867Y-32330D01*
X73261Y-28497D02*
X73511Y-28747D01*
X73511Y-28497D02*
X73261Y-28747D01*
X73674Y-23714D02*
X73924Y-23964D01*
X73924Y-23714D02*
X73674Y-23964D01*
X73930Y-15348D02*
X74180Y-15598D01*
X74180Y-15348D02*
X73930Y-15598D01*
X73930Y-18733D02*
X74180Y-18983D01*
X74180Y-18733D02*
X73930Y-18983D01*
X74206Y-28930D02*
X74456Y-29180D01*
X74456Y-28930D02*
X74206Y-29180D01*
X74403Y-20820D02*
X74653Y-21070D01*
X74653Y-20820D02*
X74403Y-21070D01*
X74403Y-21450D02*
X74653Y-21700D01*
X74653Y-21450D02*
X74403Y-21700D01*
X74403Y-22158D02*
X74653Y-22408D01*
X74653Y-22158D02*
X74403Y-22408D01*
X74403Y-22828D02*
X74653Y-23078D01*
X74653Y-22828D02*
X74403Y-23078D01*
X74718Y-19304D02*
X74968Y-19554D01*
X74968Y-19304D02*
X74718Y-19554D01*
X75072Y-12473D02*
X75322Y-12723D01*
X75322Y-12473D02*
X75072Y-12723D01*
X75072Y-14442D02*
X75322Y-14692D01*
X75322Y-14442D02*
X75072Y-14692D01*
X75505Y-30032D02*
X75755Y-30282D01*
X75755Y-30032D02*
X75505Y-30282D01*
X75584Y-21450D02*
X75834Y-21700D01*
X75834Y-21450D02*
X75584Y-21700D01*
X75584Y-22158D02*
X75834Y-22408D01*
X75834Y-22158D02*
X75584Y-22408D01*
X75584Y-22828D02*
X75834Y-23078D01*
X75834Y-22828D02*
X75584Y-23078D01*
X76686Y-21332D02*
X76936Y-21582D01*
X76936Y-21332D02*
X76686Y-21582D01*
X13307Y-15945D02*
X13304Y-15975D01*
X13295Y-16004D01*
X13280Y-16031D01*
X13261Y-16055D01*
X13237Y-16075D01*
X13210Y-16089D01*
X13181Y-16098D01*
X13151Y-16101D01*
X13121Y-16099D01*
X13092Y-16090D01*
X13065Y-16076D01*
X13041Y-16057D01*
X13021Y-16033D01*
X13006Y-16006D01*
X12997Y-15977D01*
X12994Y-15947D01*
X12996Y-15917D01*
X13005Y-15888D01*
X13019Y-15860D01*
X13038Y-15836D01*
X13061Y-15817D01*
X13088Y-15802D01*
X13117Y-15792D01*
X13147Y-15789D01*
X13177Y-15791D01*
X13206Y-15799D01*
X13234Y-15813D01*
X13258Y-15832D01*
X13278Y-15855D01*
X13293Y-15882D01*
X13303Y-15911D01*
X13306Y-15941D01*
X13307Y-15945D01*
X13307Y-16733D02*
X13304Y-16763D01*
X13295Y-16792D01*
X13280Y-16819D01*
X13261Y-16843D01*
X13237Y-16863D01*
X13210Y-16877D01*
X13181Y-16886D01*
X13151Y-16889D01*
X13121Y-16887D01*
X13092Y-16878D01*
X13065Y-16864D01*
X13041Y-16845D01*
X13021Y-16821D01*
X13006Y-16794D01*
X12997Y-16765D01*
X12994Y-16735D01*
X12996Y-16705D01*
X13005Y-16676D01*
X13019Y-16648D01*
X13038Y-16624D01*
X13061Y-16605D01*
X13088Y-16590D01*
X13117Y-16580D01*
X13147Y-16577D01*
X13177Y-16579D01*
X13206Y-16587D01*
X13234Y-16601D01*
X13258Y-16620D01*
X13278Y-16643D01*
X13293Y-16670D01*
X13303Y-16699D01*
X13306Y-16729D01*
X13307Y-16733D01*
X13307Y-17520D02*
X13304Y-17550D01*
X13295Y-17579D01*
X13280Y-17606D01*
X13261Y-17630D01*
X13237Y-17650D01*
X13210Y-17664D01*
X13181Y-17673D01*
X13151Y-17676D01*
X13121Y-17674D01*
X13092Y-17665D01*
X13065Y-17651D01*
X13041Y-17632D01*
X13021Y-17608D01*
X13006Y-17581D01*
X12997Y-17552D01*
X12994Y-17522D01*
X12996Y-17492D01*
X13005Y-17463D01*
X13019Y-17435D01*
X13038Y-17411D01*
X13061Y-17392D01*
X13088Y-17377D01*
X13117Y-17367D01*
X13147Y-17364D01*
X13177Y-17366D01*
X13206Y-17374D01*
X13234Y-17388D01*
X13258Y-17407D01*
X13278Y-17430D01*
X13293Y-17457D01*
X13303Y-17486D01*
X13306Y-17516D01*
X13307Y-17520D01*
X13307Y-18307D02*
X13304Y-18337D01*
X13295Y-18366D01*
X13280Y-18393D01*
X13261Y-18417D01*
X13237Y-18437D01*
X13210Y-18451D01*
X13181Y-18460D01*
X13151Y-18463D01*
X13121Y-18461D01*
X13092Y-18452D01*
X13065Y-18438D01*
X13041Y-18419D01*
X13021Y-18395D01*
X13006Y-18368D01*
X12997Y-18339D01*
X12994Y-18309D01*
X12996Y-18279D01*
X13005Y-18250D01*
X13019Y-18222D01*
X13038Y-18198D01*
X13061Y-18179D01*
X13088Y-18164D01*
X13117Y-18154D01*
X13147Y-18151D01*
X13177Y-18153D01*
X13206Y-18161D01*
X13234Y-18175D01*
X13258Y-18194D01*
X13278Y-18217D01*
X13293Y-18244D01*
X13303Y-18273D01*
X13306Y-18303D01*
X13307Y-18307D01*
X13307Y-19095D02*
X13304Y-19125D01*
X13295Y-19154D01*
X13280Y-19181D01*
X13261Y-19205D01*
X13237Y-19225D01*
X13210Y-19239D01*
X13181Y-19248D01*
X13151Y-19251D01*
X13121Y-19249D01*
X13092Y-19240D01*
X13065Y-19226D01*
X13041Y-19207D01*
X13021Y-19183D01*
X13006Y-19156D01*
X12997Y-19127D01*
X12994Y-19097D01*
X12996Y-19067D01*
X13005Y-19038D01*
X13019Y-19010D01*
X13038Y-18986D01*
X13061Y-18967D01*
X13088Y-18952D01*
X13117Y-18942D01*
X13147Y-18939D01*
X13177Y-18941D01*
X13206Y-18949D01*
X13234Y-18963D01*
X13258Y-18982D01*
X13278Y-19005D01*
X13293Y-19032D01*
X13303Y-19061D01*
X13306Y-19091D01*
X13307Y-19095D01*
X18759Y-13347D02*
X18756Y-13377D01*
X18747Y-13406D01*
X18732Y-13433D01*
X18713Y-13457D01*
X18689Y-13477D01*
X18662Y-13491D01*
X18633Y-13500D01*
X18603Y-13503D01*
X18573Y-13501D01*
X18544Y-13492D01*
X18517Y-13478D01*
X18493Y-13459D01*
X18473Y-13435D01*
X18458Y-13408D01*
X18449Y-13379D01*
X18446Y-13349D01*
X18448Y-13319D01*
X18457Y-13290D01*
X18471Y-13262D01*
X18490Y-13238D01*
X18513Y-13219D01*
X18540Y-13204D01*
X18569Y-13194D01*
X18599Y-13191D01*
X18629Y-13193D01*
X18658Y-13201D01*
X18686Y-13215D01*
X18710Y-13234D01*
X18730Y-13257D01*
X18745Y-13284D01*
X18755Y-13313D01*
X18758Y-13343D01*
X18759Y-13347D01*
X19547Y-13347D02*
X19544Y-13377D01*
X19535Y-13406D01*
X19520Y-13433D01*
X19501Y-13457D01*
X19477Y-13477D01*
X19450Y-13491D01*
X19421Y-13500D01*
X19391Y-13503D01*
X19361Y-13501D01*
X19332Y-13492D01*
X19305Y-13478D01*
X19281Y-13459D01*
X19261Y-13435D01*
X19246Y-13408D01*
X19237Y-13379D01*
X19234Y-13349D01*
X19236Y-13319D01*
X19245Y-13290D01*
X19259Y-13262D01*
X19278Y-13238D01*
X19301Y-13219D01*
X19328Y-13204D01*
X19357Y-13194D01*
X19387Y-13191D01*
X19417Y-13193D01*
X19446Y-13201D01*
X19474Y-13215D01*
X19498Y-13234D01*
X19518Y-13257D01*
X19533Y-13284D01*
X19543Y-13313D01*
X19546Y-13343D01*
X19547Y-13347D01*
X20334Y-13347D02*
X20331Y-13377D01*
X20322Y-13406D01*
X20307Y-13433D01*
X20288Y-13457D01*
X20264Y-13477D01*
X20237Y-13491D01*
X20208Y-13500D01*
X20178Y-13503D01*
X20148Y-13501D01*
X20119Y-13492D01*
X20092Y-13478D01*
X20068Y-13459D01*
X20048Y-13435D01*
X20033Y-13408D01*
X20024Y-13379D01*
X20021Y-13349D01*
X20023Y-13319D01*
X20032Y-13290D01*
X20046Y-13262D01*
X20065Y-13238D01*
X20088Y-13219D01*
X20115Y-13204D01*
X20144Y-13194D01*
X20174Y-13191D01*
X20204Y-13193D01*
X20233Y-13201D01*
X20261Y-13215D01*
X20285Y-13234D01*
X20305Y-13257D01*
X20320Y-13284D01*
X20330Y-13313D01*
X20333Y-13343D01*
X20334Y-13347D01*
X21121Y-13347D02*
X21118Y-13377D01*
X21109Y-13406D01*
X21094Y-13433D01*
X21075Y-13457D01*
X21051Y-13477D01*
X21024Y-13491D01*
X20995Y-13500D01*
X20965Y-13503D01*
X20935Y-13501D01*
X20906Y-13492D01*
X20879Y-13478D01*
X20855Y-13459D01*
X20835Y-13435D01*
X20820Y-13408D01*
X20811Y-13379D01*
X20808Y-13349D01*
X20810Y-13319D01*
X20819Y-13290D01*
X20833Y-13262D01*
X20852Y-13238D01*
X20875Y-13219D01*
X20902Y-13204D01*
X20931Y-13194D01*
X20961Y-13191D01*
X20991Y-13193D01*
X21020Y-13201D01*
X21048Y-13215D01*
X21072Y-13234D01*
X21092Y-13257D01*
X21107Y-13284D01*
X21117Y-13313D01*
X21120Y-13343D01*
X21121Y-13347D01*
X21908Y-13347D02*
X21905Y-13377D01*
X21896Y-13406D01*
X21881Y-13433D01*
X21862Y-13457D01*
X21838Y-13477D01*
X21811Y-13491D01*
X21782Y-13500D01*
X21752Y-13503D01*
X21722Y-13501D01*
X21693Y-13492D01*
X21666Y-13478D01*
X21642Y-13459D01*
X21622Y-13435D01*
X21607Y-13408D01*
X21598Y-13379D01*
X21595Y-13349D01*
X21597Y-13319D01*
X21606Y-13290D01*
X21620Y-13262D01*
X21639Y-13238D01*
X21662Y-13219D01*
X21689Y-13204D01*
X21718Y-13194D01*
X21748Y-13191D01*
X21778Y-13193D01*
X21807Y-13201D01*
X21835Y-13215D01*
X21859Y-13234D01*
X21879Y-13257D01*
X21894Y-13284D01*
X21904Y-13313D01*
X21907Y-13343D01*
X21908Y-13347D01*
X22696Y-13347D02*
X22693Y-13377D01*
X22684Y-13406D01*
X22669Y-13433D01*
X22650Y-13457D01*
X22626Y-13477D01*
X22599Y-13491D01*
X22570Y-13500D01*
X22540Y-13503D01*
X22510Y-13501D01*
X22481Y-13492D01*
X22454Y-13478D01*
X22430Y-13459D01*
X22410Y-13435D01*
X22395Y-13408D01*
X22386Y-13379D01*
X22383Y-13349D01*
X22385Y-13319D01*
X22394Y-13290D01*
X22408Y-13262D01*
X22427Y-13238D01*
X22450Y-13219D01*
X22477Y-13204D01*
X22506Y-13194D01*
X22536Y-13191D01*
X22566Y-13193D01*
X22595Y-13201D01*
X22623Y-13215D01*
X22647Y-13234D01*
X22667Y-13257D01*
X22682Y-13284D01*
X22692Y-13313D01*
X22695Y-13343D01*
X22696Y-13347D01*
X23483Y-13347D02*
X23480Y-13377D01*
X23471Y-13406D01*
X23456Y-13433D01*
X23437Y-13457D01*
X23413Y-13477D01*
X23386Y-13491D01*
X23357Y-13500D01*
X23327Y-13503D01*
X23297Y-13501D01*
X23268Y-13492D01*
X23241Y-13478D01*
X23217Y-13459D01*
X23197Y-13435D01*
X23182Y-13408D01*
X23173Y-13379D01*
X23170Y-13349D01*
X23172Y-13319D01*
X23181Y-13290D01*
X23195Y-13262D01*
X23214Y-13238D01*
X23237Y-13219D01*
X23264Y-13204D01*
X23293Y-13194D01*
X23323Y-13191D01*
X23353Y-13193D01*
X23382Y-13201D01*
X23410Y-13215D01*
X23434Y-13234D01*
X23454Y-13257D01*
X23469Y-13284D01*
X23479Y-13313D01*
X23482Y-13343D01*
X23483Y-13347D01*
X24270Y-13347D02*
X24267Y-13377D01*
X24258Y-13406D01*
X24243Y-13433D01*
X24224Y-13457D01*
X24200Y-13477D01*
X24173Y-13491D01*
X24144Y-13500D01*
X24114Y-13503D01*
X24084Y-13501D01*
X24055Y-13492D01*
X24028Y-13478D01*
X24004Y-13459D01*
X23984Y-13435D01*
X23969Y-13408D01*
X23960Y-13379D01*
X23957Y-13349D01*
X23959Y-13319D01*
X23968Y-13290D01*
X23982Y-13262D01*
X24001Y-13238D01*
X24024Y-13219D01*
X24051Y-13204D01*
X24080Y-13194D01*
X24110Y-13191D01*
X24140Y-13193D01*
X24169Y-13201D01*
X24197Y-13215D01*
X24221Y-13234D01*
X24241Y-13257D01*
X24256Y-13284D01*
X24266Y-13313D01*
X24269Y-13343D01*
X24270Y-13347D01*
X25058Y-13347D02*
X25055Y-13377D01*
X25046Y-13406D01*
X25031Y-13433D01*
X25012Y-13457D01*
X24988Y-13477D01*
X24961Y-13491D01*
X24932Y-13500D01*
X24902Y-13503D01*
X24872Y-13501D01*
X24843Y-13492D01*
X24816Y-13478D01*
X24792Y-13459D01*
X24772Y-13435D01*
X24757Y-13408D01*
X24748Y-13379D01*
X24745Y-13349D01*
X24747Y-13319D01*
X24756Y-13290D01*
X24770Y-13262D01*
X24789Y-13238D01*
X24812Y-13219D01*
X24839Y-13204D01*
X24868Y-13194D01*
X24898Y-13191D01*
X24928Y-13193D01*
X24957Y-13201D01*
X24985Y-13215D01*
X25009Y-13234D01*
X25029Y-13257D01*
X25044Y-13284D01*
X25054Y-13313D01*
X25057Y-13343D01*
X25058Y-13347D01*
X29685Y-13386D02*
X29682Y-13416D01*
X29673Y-13445D01*
X29658Y-13472D01*
X29639Y-13496D01*
X29615Y-13516D01*
X29588Y-13530D01*
X29559Y-13539D01*
X29529Y-13542D01*
X29499Y-13540D01*
X29470Y-13531D01*
X29443Y-13517D01*
X29419Y-13498D01*
X29399Y-13474D01*
X29384Y-13447D01*
X29375Y-13418D01*
X29372Y-13388D01*
X29374Y-13358D01*
X29383Y-13329D01*
X29397Y-13301D01*
X29416Y-13277D01*
X29439Y-13258D01*
X29466Y-13243D01*
X29495Y-13233D01*
X29525Y-13230D01*
X29555Y-13232D01*
X29584Y-13240D01*
X29612Y-13254D01*
X29636Y-13273D01*
X29656Y-13296D01*
X29671Y-13323D01*
X29681Y-13352D01*
X29684Y-13382D01*
X29685Y-13386D01*
X30472Y-13386D02*
X30469Y-13416D01*
X30460Y-13445D01*
X30445Y-13472D01*
X30426Y-13496D01*
X30402Y-13516D01*
X30375Y-13530D01*
X30346Y-13539D01*
X30316Y-13542D01*
X30286Y-13540D01*
X30257Y-13531D01*
X30230Y-13517D01*
X30206Y-13498D01*
X30186Y-13474D01*
X30171Y-13447D01*
X30162Y-13418D01*
X30159Y-13388D01*
X30161Y-13358D01*
X30170Y-13329D01*
X30184Y-13301D01*
X30203Y-13277D01*
X30226Y-13258D01*
X30253Y-13243D01*
X30282Y-13233D01*
X30312Y-13230D01*
X30342Y-13232D01*
X30371Y-13240D01*
X30399Y-13254D01*
X30423Y-13273D01*
X30443Y-13296D01*
X30458Y-13323D01*
X30468Y-13352D01*
X30471Y-13382D01*
X30472Y-13386D01*
X31259Y-13386D02*
X31256Y-13416D01*
X31247Y-13445D01*
X31232Y-13472D01*
X31213Y-13496D01*
X31189Y-13516D01*
X31162Y-13530D01*
X31133Y-13539D01*
X31103Y-13542D01*
X31073Y-13540D01*
X31044Y-13531D01*
X31017Y-13517D01*
X30993Y-13498D01*
X30973Y-13474D01*
X30958Y-13447D01*
X30949Y-13418D01*
X30946Y-13388D01*
X30948Y-13358D01*
X30957Y-13329D01*
X30971Y-13301D01*
X30990Y-13277D01*
X31013Y-13258D01*
X31040Y-13243D01*
X31069Y-13233D01*
X31099Y-13230D01*
X31129Y-13232D01*
X31158Y-13240D01*
X31186Y-13254D01*
X31210Y-13273D01*
X31230Y-13296D01*
X31245Y-13323D01*
X31255Y-13352D01*
X31258Y-13382D01*
X31259Y-13386D01*
X32047Y-13386D02*
X32044Y-13416D01*
X32035Y-13445D01*
X32020Y-13472D01*
X32001Y-13496D01*
X31977Y-13516D01*
X31950Y-13530D01*
X31921Y-13539D01*
X31891Y-13542D01*
X31861Y-13540D01*
X31832Y-13531D01*
X31805Y-13517D01*
X31781Y-13498D01*
X31761Y-13474D01*
X31746Y-13447D01*
X31737Y-13418D01*
X31734Y-13388D01*
X31736Y-13358D01*
X31745Y-13329D01*
X31759Y-13301D01*
X31778Y-13277D01*
X31801Y-13258D01*
X31828Y-13243D01*
X31857Y-13233D01*
X31887Y-13230D01*
X31917Y-13232D01*
X31946Y-13240D01*
X31974Y-13254D01*
X31998Y-13273D01*
X32018Y-13296D01*
X32033Y-13323D01*
X32043Y-13352D01*
X32046Y-13382D01*
X32047Y-13386D01*
X32834Y-13386D02*
X32831Y-13416D01*
X32822Y-13445D01*
X32807Y-13472D01*
X32788Y-13496D01*
X32764Y-13516D01*
X32737Y-13530D01*
X32708Y-13539D01*
X32678Y-13542D01*
X32648Y-13540D01*
X32619Y-13531D01*
X32592Y-13517D01*
X32568Y-13498D01*
X32548Y-13474D01*
X32533Y-13447D01*
X32524Y-13418D01*
X32521Y-13388D01*
X32523Y-13358D01*
X32532Y-13329D01*
X32546Y-13301D01*
X32565Y-13277D01*
X32588Y-13258D01*
X32615Y-13243D01*
X32644Y-13233D01*
X32674Y-13230D01*
X32704Y-13232D01*
X32733Y-13240D01*
X32761Y-13254D01*
X32785Y-13273D01*
X32805Y-13296D01*
X32820Y-13323D01*
X32830Y-13352D01*
X32833Y-13382D01*
X32834Y-13386D01*
X33622Y-13386D02*
X33619Y-13416D01*
X33610Y-13445D01*
X33595Y-13472D01*
X33576Y-13496D01*
X33552Y-13516D01*
X33525Y-13530D01*
X33496Y-13539D01*
X33466Y-13542D01*
X33436Y-13540D01*
X33407Y-13531D01*
X33380Y-13517D01*
X33356Y-13498D01*
X33336Y-13474D01*
X33321Y-13447D01*
X33312Y-13418D01*
X33309Y-13388D01*
X33311Y-13358D01*
X33320Y-13329D01*
X33334Y-13301D01*
X33353Y-13277D01*
X33376Y-13258D01*
X33403Y-13243D01*
X33432Y-13233D01*
X33462Y-13230D01*
X33492Y-13232D01*
X33521Y-13240D01*
X33549Y-13254D01*
X33573Y-13273D01*
X33593Y-13296D01*
X33608Y-13323D01*
X33618Y-13352D01*
X33621Y-13382D01*
X33622Y-13386D01*
X34409Y-13386D02*
X34406Y-13416D01*
X34397Y-13445D01*
X34382Y-13472D01*
X34363Y-13496D01*
X34339Y-13516D01*
X34312Y-13530D01*
X34283Y-13539D01*
X34253Y-13542D01*
X34223Y-13540D01*
X34194Y-13531D01*
X34167Y-13517D01*
X34143Y-13498D01*
X34123Y-13474D01*
X34108Y-13447D01*
X34099Y-13418D01*
X34096Y-13388D01*
X34098Y-13358D01*
X34107Y-13329D01*
X34121Y-13301D01*
X34140Y-13277D01*
X34163Y-13258D01*
X34190Y-13243D01*
X34219Y-13233D01*
X34249Y-13230D01*
X34279Y-13232D01*
X34308Y-13240D01*
X34336Y-13254D01*
X34360Y-13273D01*
X34380Y-13296D01*
X34395Y-13323D01*
X34405Y-13352D01*
X34408Y-13382D01*
X34409Y-13386D01*
X35196Y-13386D02*
X35193Y-13416D01*
X35184Y-13445D01*
X35169Y-13472D01*
X35150Y-13496D01*
X35126Y-13516D01*
X35099Y-13530D01*
X35070Y-13539D01*
X35040Y-13542D01*
X35010Y-13540D01*
X34981Y-13531D01*
X34954Y-13517D01*
X34930Y-13498D01*
X34910Y-13474D01*
X34895Y-13447D01*
X34886Y-13418D01*
X34883Y-13388D01*
X34885Y-13358D01*
X34894Y-13329D01*
X34908Y-13301D01*
X34927Y-13277D01*
X34950Y-13258D01*
X34977Y-13243D01*
X35006Y-13233D01*
X35036Y-13230D01*
X35066Y-13232D01*
X35095Y-13240D01*
X35123Y-13254D01*
X35147Y-13273D01*
X35167Y-13296D01*
X35182Y-13323D01*
X35192Y-13352D01*
X35195Y-13382D01*
X35196Y-13386D01*
X35984Y-13386D02*
X35981Y-13416D01*
X35972Y-13445D01*
X35957Y-13472D01*
X35938Y-13496D01*
X35914Y-13516D01*
X35887Y-13530D01*
X35858Y-13539D01*
X35828Y-13542D01*
X35798Y-13540D01*
X35769Y-13531D01*
X35742Y-13517D01*
X35718Y-13498D01*
X35698Y-13474D01*
X35683Y-13447D01*
X35674Y-13418D01*
X35671Y-13388D01*
X35673Y-13358D01*
X35682Y-13329D01*
X35696Y-13301D01*
X35715Y-13277D01*
X35738Y-13258D01*
X35765Y-13243D01*
X35794Y-13233D01*
X35824Y-13230D01*
X35854Y-13232D01*
X35883Y-13240D01*
X35911Y-13254D01*
X35935Y-13273D01*
X35955Y-13296D01*
X35970Y-13323D01*
X35980Y-13352D01*
X35983Y-13382D01*
X35984Y-13386D01*
X36771Y-13386D02*
X36768Y-13416D01*
X36759Y-13445D01*
X36744Y-13472D01*
X36725Y-13496D01*
X36701Y-13516D01*
X36674Y-13530D01*
X36645Y-13539D01*
X36615Y-13542D01*
X36585Y-13540D01*
X36556Y-13531D01*
X36529Y-13517D01*
X36505Y-13498D01*
X36485Y-13474D01*
X36470Y-13447D01*
X36461Y-13418D01*
X36458Y-13388D01*
X36460Y-13358D01*
X36469Y-13329D01*
X36483Y-13301D01*
X36502Y-13277D01*
X36525Y-13258D01*
X36552Y-13243D01*
X36581Y-13233D01*
X36611Y-13230D01*
X36641Y-13232D01*
X36670Y-13240D01*
X36698Y-13254D01*
X36722Y-13273D01*
X36742Y-13296D01*
X36757Y-13323D01*
X36767Y-13352D01*
X36770Y-13382D01*
X36771Y-13386D01*
X37559Y-13386D02*
X37556Y-13416D01*
X37547Y-13445D01*
X37532Y-13472D01*
X37513Y-13496D01*
X37489Y-13516D01*
X37462Y-13530D01*
X37433Y-13539D01*
X37403Y-13542D01*
X37373Y-13540D01*
X37344Y-13531D01*
X37317Y-13517D01*
X37293Y-13498D01*
X37273Y-13474D01*
X37258Y-13447D01*
X37249Y-13418D01*
X37246Y-13388D01*
X37248Y-13358D01*
X37257Y-13329D01*
X37271Y-13301D01*
X37290Y-13277D01*
X37313Y-13258D01*
X37340Y-13243D01*
X37369Y-13233D01*
X37399Y-13230D01*
X37429Y-13232D01*
X37458Y-13240D01*
X37486Y-13254D01*
X37510Y-13273D01*
X37530Y-13296D01*
X37545Y-13323D01*
X37555Y-13352D01*
X37558Y-13382D01*
X37559Y-13386D01*
X38346Y-13386D02*
X38343Y-13416D01*
X38334Y-13445D01*
X38319Y-13472D01*
X38300Y-13496D01*
X38276Y-13516D01*
X38249Y-13530D01*
X38220Y-13539D01*
X38190Y-13542D01*
X38160Y-13540D01*
X38131Y-13531D01*
X38104Y-13517D01*
X38080Y-13498D01*
X38060Y-13474D01*
X38045Y-13447D01*
X38036Y-13418D01*
X38033Y-13388D01*
X38035Y-13358D01*
X38044Y-13329D01*
X38058Y-13301D01*
X38077Y-13277D01*
X38100Y-13258D01*
X38127Y-13243D01*
X38156Y-13233D01*
X38186Y-13230D01*
X38216Y-13232D01*
X38245Y-13240D01*
X38273Y-13254D01*
X38297Y-13273D01*
X38317Y-13296D01*
X38332Y-13323D01*
X38342Y-13352D01*
X38345Y-13382D01*
X38346Y-13386D01*
X43386Y-32165D02*
X43383Y-32195D01*
X43374Y-32224D01*
X43359Y-32251D01*
X43340Y-32275D01*
X43316Y-32295D01*
X43289Y-32309D01*
X43260Y-32318D01*
X43230Y-32321D01*
X43200Y-32319D01*
X43171Y-32310D01*
X43144Y-32296D01*
X43120Y-32277D01*
X43100Y-32253D01*
X43085Y-32226D01*
X43076Y-32197D01*
X43073Y-32167D01*
X43075Y-32137D01*
X43084Y-32108D01*
X43098Y-32080D01*
X43117Y-32056D01*
X43140Y-32037D01*
X43167Y-32022D01*
X43196Y-32012D01*
X43226Y-32009D01*
X43256Y-32011D01*
X43285Y-32019D01*
X43313Y-32033D01*
X43337Y-32052D01*
X43357Y-32075D01*
X43372Y-32102D01*
X43382Y-32131D01*
X43385Y-32161D01*
X43386Y-32165D01*
X44174Y-32165D02*
X44171Y-32195D01*
X44162Y-32224D01*
X44147Y-32251D01*
X44128Y-32275D01*
X44104Y-32295D01*
X44077Y-32309D01*
X44048Y-32318D01*
X44018Y-32321D01*
X43988Y-32319D01*
X43959Y-32310D01*
X43932Y-32296D01*
X43908Y-32277D01*
X43888Y-32253D01*
X43873Y-32226D01*
X43864Y-32197D01*
X43861Y-32167D01*
X43863Y-32137D01*
X43872Y-32108D01*
X43886Y-32080D01*
X43905Y-32056D01*
X43928Y-32037D01*
X43955Y-32022D01*
X43984Y-32012D01*
X44014Y-32009D01*
X44044Y-32011D01*
X44073Y-32019D01*
X44101Y-32033D01*
X44125Y-32052D01*
X44145Y-32075D01*
X44160Y-32102D01*
X44170Y-32131D01*
X44173Y-32161D01*
X44174Y-32165D01*
X44961Y-32165D02*
X44958Y-32195D01*
X44949Y-32224D01*
X44934Y-32251D01*
X44915Y-32275D01*
X44891Y-32295D01*
X44864Y-32309D01*
X44835Y-32318D01*
X44805Y-32321D01*
X44775Y-32319D01*
X44746Y-32310D01*
X44719Y-32296D01*
X44695Y-32277D01*
X44675Y-32253D01*
X44660Y-32226D01*
X44651Y-32197D01*
X44648Y-32167D01*
X44650Y-32137D01*
X44659Y-32108D01*
X44673Y-32080D01*
X44692Y-32056D01*
X44715Y-32037D01*
X44742Y-32022D01*
X44771Y-32012D01*
X44801Y-32009D01*
X44831Y-32011D01*
X44860Y-32019D01*
X44888Y-32033D01*
X44912Y-32052D01*
X44932Y-32075D01*
X44947Y-32102D01*
X44957Y-32131D01*
X44960Y-32161D01*
X44961Y-32165D01*
X45748Y-32165D02*
X45745Y-32195D01*
X45736Y-32224D01*
X45721Y-32251D01*
X45702Y-32275D01*
X45678Y-32295D01*
X45651Y-32309D01*
X45622Y-32318D01*
X45592Y-32321D01*
X45562Y-32319D01*
X45533Y-32310D01*
X45506Y-32296D01*
X45482Y-32277D01*
X45462Y-32253D01*
X45447Y-32226D01*
X45438Y-32197D01*
X45435Y-32167D01*
X45437Y-32137D01*
X45446Y-32108D01*
X45460Y-32080D01*
X45479Y-32056D01*
X45502Y-32037D01*
X45529Y-32022D01*
X45558Y-32012D01*
X45588Y-32009D01*
X45618Y-32011D01*
X45647Y-32019D01*
X45675Y-32033D01*
X45699Y-32052D01*
X45719Y-32075D01*
X45734Y-32102D01*
X45744Y-32131D01*
X45747Y-32161D01*
X45748Y-32165D01*
X46536Y-32165D02*
X46533Y-32195D01*
X46524Y-32224D01*
X46509Y-32251D01*
X46490Y-32275D01*
X46466Y-32295D01*
X46439Y-32309D01*
X46410Y-32318D01*
X46380Y-32321D01*
X46350Y-32319D01*
X46321Y-32310D01*
X46294Y-32296D01*
X46270Y-32277D01*
X46250Y-32253D01*
X46235Y-32226D01*
X46226Y-32197D01*
X46223Y-32167D01*
X46225Y-32137D01*
X46234Y-32108D01*
X46248Y-32080D01*
X46267Y-32056D01*
X46290Y-32037D01*
X46317Y-32022D01*
X46346Y-32012D01*
X46376Y-32009D01*
X46406Y-32011D01*
X46435Y-32019D01*
X46463Y-32033D01*
X46487Y-32052D01*
X46507Y-32075D01*
X46522Y-32102D01*
X46532Y-32131D01*
X46535Y-32161D01*
X46536Y-32165D01*
X47323Y-32165D02*
X47320Y-32195D01*
X47311Y-32224D01*
X47296Y-32251D01*
X47277Y-32275D01*
X47253Y-32295D01*
X47226Y-32309D01*
X47197Y-32318D01*
X47167Y-32321D01*
X47137Y-32319D01*
X47108Y-32310D01*
X47081Y-32296D01*
X47057Y-32277D01*
X47037Y-32253D01*
X47022Y-32226D01*
X47013Y-32197D01*
X47010Y-32167D01*
X47012Y-32137D01*
X47021Y-32108D01*
X47035Y-32080D01*
X47054Y-32056D01*
X47077Y-32037D01*
X47104Y-32022D01*
X47133Y-32012D01*
X47163Y-32009D01*
X47193Y-32011D01*
X47222Y-32019D01*
X47250Y-32033D01*
X47274Y-32052D01*
X47294Y-32075D01*
X47309Y-32102D01*
X47319Y-32131D01*
X47322Y-32161D01*
X47323Y-32165D01*
X48110Y-32165D02*
X48107Y-32195D01*
X48098Y-32224D01*
X48083Y-32251D01*
X48064Y-32275D01*
X48040Y-32295D01*
X48013Y-32309D01*
X47984Y-32318D01*
X47954Y-32321D01*
X47924Y-32319D01*
X47895Y-32310D01*
X47868Y-32296D01*
X47844Y-32277D01*
X47824Y-32253D01*
X47809Y-32226D01*
X47800Y-32197D01*
X47797Y-32167D01*
X47799Y-32137D01*
X47808Y-32108D01*
X47822Y-32080D01*
X47841Y-32056D01*
X47864Y-32037D01*
X47891Y-32022D01*
X47920Y-32012D01*
X47950Y-32009D01*
X47980Y-32011D01*
X48009Y-32019D01*
X48037Y-32033D01*
X48061Y-32052D01*
X48081Y-32075D01*
X48096Y-32102D01*
X48106Y-32131D01*
X48109Y-32161D01*
X48110Y-32165D01*
X48897Y-32165D02*
X48894Y-32195D01*
X48885Y-32224D01*
X48870Y-32251D01*
X48851Y-32275D01*
X48827Y-32295D01*
X48800Y-32309D01*
X48771Y-32318D01*
X48741Y-32321D01*
X48711Y-32319D01*
X48682Y-32310D01*
X48655Y-32296D01*
X48631Y-32277D01*
X48611Y-32253D01*
X48596Y-32226D01*
X48587Y-32197D01*
X48584Y-32167D01*
X48586Y-32137D01*
X48595Y-32108D01*
X48609Y-32080D01*
X48628Y-32056D01*
X48651Y-32037D01*
X48678Y-32022D01*
X48707Y-32012D01*
X48737Y-32009D01*
X48767Y-32011D01*
X48796Y-32019D01*
X48824Y-32033D01*
X48848Y-32052D01*
X48868Y-32075D01*
X48883Y-32102D01*
X48893Y-32131D01*
X48896Y-32161D01*
X48897Y-32165D01*
X50747Y-13189D02*
X50744Y-13219D01*
X50735Y-13248D01*
X50720Y-13275D01*
X50701Y-13299D01*
X50677Y-13319D01*
X50650Y-13333D01*
X50621Y-13342D01*
X50591Y-13345D01*
X50561Y-13343D01*
X50532Y-13334D01*
X50505Y-13320D01*
X50481Y-13301D01*
X50461Y-13277D01*
X50446Y-13250D01*
X50437Y-13221D01*
X50434Y-13191D01*
X50436Y-13161D01*
X50445Y-13132D01*
X50459Y-13104D01*
X50478Y-13080D01*
X50501Y-13061D01*
X50528Y-13046D01*
X50557Y-13036D01*
X50587Y-13033D01*
X50617Y-13035D01*
X50646Y-13043D01*
X50674Y-13057D01*
X50698Y-13076D01*
X50718Y-13099D01*
X50733Y-13126D01*
X50743Y-13155D01*
X50746Y-13185D01*
X50747Y-13189D01*
X51534Y-13189D02*
X51531Y-13219D01*
X51522Y-13248D01*
X51507Y-13275D01*
X51488Y-13299D01*
X51464Y-13319D01*
X51437Y-13333D01*
X51408Y-13342D01*
X51378Y-13345D01*
X51348Y-13343D01*
X51319Y-13334D01*
X51292Y-13320D01*
X51268Y-13301D01*
X51248Y-13277D01*
X51233Y-13250D01*
X51224Y-13221D01*
X51221Y-13191D01*
X51223Y-13161D01*
X51232Y-13132D01*
X51246Y-13104D01*
X51265Y-13080D01*
X51288Y-13061D01*
X51315Y-13046D01*
X51344Y-13036D01*
X51374Y-13033D01*
X51404Y-13035D01*
X51433Y-13043D01*
X51461Y-13057D01*
X51485Y-13076D01*
X51505Y-13099D01*
X51520Y-13126D01*
X51530Y-13155D01*
X51533Y-13185D01*
X51534Y-13189D01*
X52322Y-13189D02*
X52319Y-13219D01*
X52310Y-13248D01*
X52295Y-13275D01*
X52276Y-13299D01*
X52252Y-13319D01*
X52225Y-13333D01*
X52196Y-13342D01*
X52166Y-13345D01*
X52136Y-13343D01*
X52107Y-13334D01*
X52080Y-13320D01*
X52056Y-13301D01*
X52036Y-13277D01*
X52021Y-13250D01*
X52012Y-13221D01*
X52009Y-13191D01*
X52011Y-13161D01*
X52020Y-13132D01*
X52034Y-13104D01*
X52053Y-13080D01*
X52076Y-13061D01*
X52103Y-13046D01*
X52132Y-13036D01*
X52162Y-13033D01*
X52192Y-13035D01*
X52221Y-13043D01*
X52249Y-13057D01*
X52273Y-13076D01*
X52293Y-13099D01*
X52308Y-13126D01*
X52318Y-13155D01*
X52321Y-13185D01*
X52322Y-13189D01*
X53109Y-13189D02*
X53106Y-13219D01*
X53097Y-13248D01*
X53082Y-13275D01*
X53063Y-13299D01*
X53039Y-13319D01*
X53012Y-13333D01*
X52983Y-13342D01*
X52953Y-13345D01*
X52923Y-13343D01*
X52894Y-13334D01*
X52867Y-13320D01*
X52843Y-13301D01*
X52823Y-13277D01*
X52808Y-13250D01*
X52799Y-13221D01*
X52796Y-13191D01*
X52798Y-13161D01*
X52807Y-13132D01*
X52821Y-13104D01*
X52840Y-13080D01*
X52863Y-13061D01*
X52890Y-13046D01*
X52919Y-13036D01*
X52949Y-13033D01*
X52979Y-13035D01*
X53008Y-13043D01*
X53036Y-13057D01*
X53060Y-13076D01*
X53080Y-13099D01*
X53095Y-13126D01*
X53105Y-13155D01*
X53108Y-13185D01*
X53109Y-13189D01*
X53896Y-13189D02*
X53893Y-13219D01*
X53884Y-13248D01*
X53869Y-13275D01*
X53850Y-13299D01*
X53826Y-13319D01*
X53799Y-13333D01*
X53770Y-13342D01*
X53740Y-13345D01*
X53710Y-13343D01*
X53681Y-13334D01*
X53654Y-13320D01*
X53630Y-13301D01*
X53610Y-13277D01*
X53595Y-13250D01*
X53586Y-13221D01*
X53583Y-13191D01*
X53585Y-13161D01*
X53594Y-13132D01*
X53608Y-13104D01*
X53627Y-13080D01*
X53650Y-13061D01*
X53677Y-13046D01*
X53706Y-13036D01*
X53736Y-13033D01*
X53766Y-13035D01*
X53795Y-13043D01*
X53823Y-13057D01*
X53847Y-13076D01*
X53867Y-13099D01*
X53882Y-13126D01*
X53892Y-13155D01*
X53895Y-13185D01*
X53896Y-13189D01*
X54684Y-13189D02*
X54681Y-13219D01*
X54672Y-13248D01*
X54657Y-13275D01*
X54638Y-13299D01*
X54614Y-13319D01*
X54587Y-13333D01*
X54558Y-13342D01*
X54528Y-13345D01*
X54498Y-13343D01*
X54469Y-13334D01*
X54442Y-13320D01*
X54418Y-13301D01*
X54398Y-13277D01*
X54383Y-13250D01*
X54374Y-13221D01*
X54371Y-13191D01*
X54373Y-13161D01*
X54382Y-13132D01*
X54396Y-13104D01*
X54415Y-13080D01*
X54438Y-13061D01*
X54465Y-13046D01*
X54494Y-13036D01*
X54524Y-13033D01*
X54554Y-13035D01*
X54583Y-13043D01*
X54611Y-13057D01*
X54635Y-13076D01*
X54655Y-13099D01*
X54670Y-13126D01*
X54680Y-13155D01*
X54683Y-13185D01*
X54684Y-13189D01*
X58149Y-13228D02*
X58146Y-13258D01*
X58137Y-13287D01*
X58122Y-13314D01*
X58103Y-13338D01*
X58079Y-13358D01*
X58052Y-13372D01*
X58023Y-13381D01*
X57993Y-13384D01*
X57963Y-13382D01*
X57934Y-13373D01*
X57907Y-13359D01*
X57883Y-13340D01*
X57863Y-13316D01*
X57848Y-13289D01*
X57839Y-13260D01*
X57836Y-13230D01*
X57838Y-13200D01*
X57847Y-13171D01*
X57861Y-13143D01*
X57880Y-13119D01*
X57903Y-13100D01*
X57930Y-13085D01*
X57959Y-13075D01*
X57989Y-13072D01*
X58019Y-13074D01*
X58048Y-13082D01*
X58076Y-13096D01*
X58100Y-13115D01*
X58120Y-13138D01*
X58135Y-13165D01*
X58145Y-13194D01*
X58148Y-13224D01*
X58149Y-13228D01*
X58937Y-13228D02*
X58934Y-13258D01*
X58925Y-13287D01*
X58910Y-13314D01*
X58891Y-13338D01*
X58867Y-13358D01*
X58840Y-13372D01*
X58811Y-13381D01*
X58781Y-13384D01*
X58751Y-13382D01*
X58722Y-13373D01*
X58695Y-13359D01*
X58671Y-13340D01*
X58651Y-13316D01*
X58636Y-13289D01*
X58627Y-13260D01*
X58624Y-13230D01*
X58626Y-13200D01*
X58635Y-13171D01*
X58649Y-13143D01*
X58668Y-13119D01*
X58691Y-13100D01*
X58718Y-13085D01*
X58747Y-13075D01*
X58777Y-13072D01*
X58807Y-13074D01*
X58836Y-13082D01*
X58864Y-13096D01*
X58888Y-13115D01*
X58908Y-13138D01*
X58923Y-13165D01*
X58933Y-13194D01*
X58936Y-13224D01*
X58937Y-13228D01*
X64920Y-30630D02*
X64917Y-30660D01*
X64908Y-30689D01*
X64893Y-30716D01*
X64874Y-30740D01*
X64850Y-30760D01*
X64823Y-30774D01*
X64794Y-30783D01*
X64764Y-30786D01*
X64734Y-30784D01*
X64705Y-30775D01*
X64678Y-30761D01*
X64654Y-30742D01*
X64634Y-30718D01*
X64619Y-30691D01*
X64610Y-30662D01*
X64607Y-30632D01*
X64609Y-30602D01*
X64618Y-30573D01*
X64632Y-30545D01*
X64651Y-30521D01*
X64674Y-30502D01*
X64701Y-30487D01*
X64730Y-30477D01*
X64760Y-30474D01*
X64790Y-30476D01*
X64819Y-30484D01*
X64847Y-30498D01*
X64871Y-30517D01*
X64891Y-30540D01*
X64906Y-30567D01*
X64916Y-30596D01*
X64919Y-30626D01*
X64920Y-30630D01*
X64920Y-31417D02*
X64917Y-31447D01*
X64908Y-31476D01*
X64893Y-31503D01*
X64874Y-31527D01*
X64850Y-31547D01*
X64823Y-31561D01*
X64794Y-31570D01*
X64764Y-31573D01*
X64734Y-31571D01*
X64705Y-31562D01*
X64678Y-31548D01*
X64654Y-31529D01*
X64634Y-31505D01*
X64619Y-31478D01*
X64610Y-31449D01*
X64607Y-31419D01*
X64609Y-31389D01*
X64618Y-31360D01*
X64632Y-31332D01*
X64651Y-31308D01*
X64674Y-31289D01*
X64701Y-31274D01*
X64730Y-31264D01*
X64760Y-31261D01*
X64790Y-31263D01*
X64819Y-31271D01*
X64847Y-31285D01*
X64871Y-31304D01*
X64891Y-31327D01*
X64906Y-31354D01*
X64916Y-31383D01*
X64919Y-31413D01*
X64920Y-31417D01*
X64920Y-32205D02*
X64917Y-32235D01*
X64908Y-32264D01*
X64893Y-32291D01*
X64874Y-32315D01*
X64850Y-32335D01*
X64823Y-32349D01*
X64794Y-32358D01*
X64764Y-32361D01*
X64734Y-32359D01*
X64705Y-32350D01*
X64678Y-32336D01*
X64654Y-32317D01*
X64634Y-32293D01*
X64619Y-32266D01*
X64610Y-32237D01*
X64607Y-32207D01*
X64609Y-32177D01*
X64618Y-32148D01*
X64632Y-32120D01*
X64651Y-32096D01*
X64674Y-32077D01*
X64701Y-32062D01*
X64730Y-32052D01*
X64760Y-32049D01*
X64790Y-32051D01*
X64819Y-32059D01*
X64847Y-32073D01*
X64871Y-32092D01*
X64891Y-32115D01*
X64906Y-32142D01*
X64916Y-32171D01*
X64919Y-32201D01*
X64920Y-32205D01*
X68031Y-13031D02*
X68028Y-13061D01*
X68019Y-13090D01*
X68004Y-13117D01*
X67985Y-13141D01*
X67961Y-13161D01*
X67934Y-13175D01*
X67905Y-13184D01*
X67875Y-13187D01*
X67845Y-13185D01*
X67816Y-13176D01*
X67789Y-13162D01*
X67765Y-13143D01*
X67745Y-13119D01*
X67730Y-13092D01*
X67721Y-13063D01*
X67718Y-13033D01*
X67720Y-13003D01*
X67729Y-12974D01*
X67743Y-12946D01*
X67762Y-12922D01*
X67785Y-12903D01*
X67812Y-12888D01*
X67841Y-12878D01*
X67871Y-12875D01*
X67901Y-12877D01*
X67930Y-12885D01*
X67958Y-12899D01*
X67982Y-12918D01*
X68002Y-12941D01*
X68017Y-12968D01*
X68027Y-12997D01*
X68030Y-13027D01*
X68031Y-13031D01*
X68819Y-13031D02*
X68816Y-13061D01*
X68807Y-13090D01*
X68792Y-13117D01*
X68773Y-13141D01*
X68749Y-13161D01*
X68722Y-13175D01*
X68693Y-13184D01*
X68663Y-13187D01*
X68633Y-13185D01*
X68604Y-13176D01*
X68577Y-13162D01*
X68553Y-13143D01*
X68533Y-13119D01*
X68518Y-13092D01*
X68509Y-13063D01*
X68506Y-13033D01*
X68508Y-13003D01*
X68517Y-12974D01*
X68531Y-12946D01*
X68550Y-12922D01*
X68573Y-12903D01*
X68600Y-12888D01*
X68629Y-12878D01*
X68659Y-12875D01*
X68689Y-12877D01*
X68718Y-12885D01*
X68746Y-12899D01*
X68770Y-12918D01*
X68790Y-12941D01*
X68805Y-12968D01*
X68815Y-12997D01*
X68818Y-13027D01*
X68819Y-13031D01*
X69606Y-13031D02*
X69603Y-13061D01*
X69594Y-13090D01*
X69579Y-13117D01*
X69560Y-13141D01*
X69536Y-13161D01*
X69509Y-13175D01*
X69480Y-13184D01*
X69450Y-13187D01*
X69420Y-13185D01*
X69391Y-13176D01*
X69364Y-13162D01*
X69340Y-13143D01*
X69320Y-13119D01*
X69305Y-13092D01*
X69296Y-13063D01*
X69293Y-13033D01*
X69295Y-13003D01*
X69304Y-12974D01*
X69318Y-12946D01*
X69337Y-12922D01*
X69360Y-12903D01*
X69387Y-12888D01*
X69416Y-12878D01*
X69446Y-12875D01*
X69476Y-12877D01*
X69505Y-12885D01*
X69533Y-12899D01*
X69557Y-12918D01*
X69577Y-12941D01*
X69592Y-12968D01*
X69602Y-12997D01*
X69605Y-13027D01*
X69606Y-13031D01*
X70393Y-13031D02*
X70390Y-13061D01*
X70381Y-13090D01*
X70366Y-13117D01*
X70347Y-13141D01*
X70323Y-13161D01*
X70296Y-13175D01*
X70267Y-13184D01*
X70237Y-13187D01*
X70207Y-13185D01*
X70178Y-13176D01*
X70151Y-13162D01*
X70127Y-13143D01*
X70107Y-13119D01*
X70092Y-13092D01*
X70083Y-13063D01*
X70080Y-13033D01*
X70082Y-13003D01*
X70091Y-12974D01*
X70105Y-12946D01*
X70124Y-12922D01*
X70147Y-12903D01*
X70174Y-12888D01*
X70203Y-12878D01*
X70233Y-12875D01*
X70263Y-12877D01*
X70292Y-12885D01*
X70320Y-12899D01*
X70344Y-12918D01*
X70364Y-12941D01*
X70379Y-12968D01*
X70389Y-12997D01*
X70392Y-13027D01*
X70393Y-13031D01*
X71180Y-13031D02*
X71177Y-13061D01*
X71168Y-13090D01*
X71153Y-13117D01*
X71134Y-13141D01*
X71110Y-13161D01*
X71083Y-13175D01*
X71054Y-13184D01*
X71024Y-13187D01*
X70994Y-13185D01*
X70965Y-13176D01*
X70938Y-13162D01*
X70914Y-13143D01*
X70894Y-13119D01*
X70879Y-13092D01*
X70870Y-13063D01*
X70867Y-13033D01*
X70869Y-13003D01*
X70878Y-12974D01*
X70892Y-12946D01*
X70911Y-12922D01*
X70934Y-12903D01*
X70961Y-12888D01*
X70990Y-12878D01*
X71020Y-12875D01*
X71050Y-12877D01*
X71079Y-12885D01*
X71107Y-12899D01*
X71131Y-12918D01*
X71151Y-12941D01*
X71166Y-12968D01*
X71176Y-12997D01*
X71179Y-13027D01*
X71180Y-13031D01*
X71417Y-30630D02*
X71414Y-30660D01*
X71405Y-30689D01*
X71390Y-30716D01*
X71371Y-30740D01*
X71347Y-30760D01*
X71320Y-30774D01*
X71291Y-30783D01*
X71261Y-30786D01*
X71231Y-30784D01*
X71202Y-30775D01*
X71175Y-30761D01*
X71151Y-30742D01*
X71131Y-30718D01*
X71116Y-30691D01*
X71107Y-30662D01*
X71104Y-30632D01*
X71106Y-30602D01*
X71115Y-30573D01*
X71129Y-30545D01*
X71148Y-30521D01*
X71171Y-30502D01*
X71198Y-30487D01*
X71227Y-30477D01*
X71257Y-30474D01*
X71287Y-30476D01*
X71316Y-30484D01*
X71344Y-30498D01*
X71368Y-30517D01*
X71388Y-30540D01*
X71403Y-30567D01*
X71413Y-30596D01*
X71416Y-30626D01*
X71417Y-30630D01*
X71417Y-31417D02*
X71414Y-31447D01*
X71405Y-31476D01*
X71390Y-31503D01*
X71371Y-31527D01*
X71347Y-31547D01*
X71320Y-31561D01*
X71291Y-31570D01*
X71261Y-31573D01*
X71231Y-31571D01*
X71202Y-31562D01*
X71175Y-31548D01*
X71151Y-31529D01*
X71131Y-31505D01*
X71116Y-31478D01*
X71107Y-31449D01*
X71104Y-31419D01*
X71106Y-31389D01*
X71115Y-31360D01*
X71129Y-31332D01*
X71148Y-31308D01*
X71171Y-31289D01*
X71198Y-31274D01*
X71227Y-31264D01*
X71257Y-31261D01*
X71287Y-31263D01*
X71316Y-31271D01*
X71344Y-31285D01*
X71368Y-31304D01*
X71388Y-31327D01*
X71403Y-31354D01*
X71413Y-31383D01*
X71416Y-31413D01*
X71417Y-31417D01*
X71417Y-32205D02*
X71414Y-32235D01*
X71405Y-32264D01*
X71390Y-32291D01*
X71371Y-32315D01*
X71347Y-32335D01*
X71320Y-32349D01*
X71291Y-32358D01*
X71261Y-32361D01*
X71231Y-32359D01*
X71202Y-32350D01*
X71175Y-32336D01*
X71151Y-32317D01*
X71131Y-32293D01*
X71116Y-32266D01*
X71107Y-32237D01*
X71104Y-32207D01*
X71106Y-32177D01*
X71115Y-32148D01*
X71129Y-32120D01*
X71148Y-32096D01*
X71171Y-32077D01*
X71198Y-32062D01*
X71227Y-32052D01*
X71257Y-32049D01*
X71287Y-32051D01*
X71316Y-32059D01*
X71344Y-32073D01*
X71368Y-32092D01*
X71388Y-32115D01*
X71403Y-32142D01*
X71413Y-32171D01*
X71416Y-32201D01*
X71417Y-32205D01*
X71968Y-13031D02*
X71965Y-13061D01*
X71956Y-13090D01*
X71941Y-13117D01*
X71922Y-13141D01*
X71898Y-13161D01*
X71871Y-13175D01*
X71842Y-13184D01*
X71812Y-13187D01*
X71782Y-13185D01*
X71753Y-13176D01*
X71726Y-13162D01*
X71702Y-13143D01*
X71682Y-13119D01*
X71667Y-13092D01*
X71658Y-13063D01*
X71655Y-13033D01*
X71657Y-13003D01*
X71666Y-12974D01*
X71680Y-12946D01*
X71699Y-12922D01*
X71722Y-12903D01*
X71749Y-12888D01*
X71778Y-12878D01*
X71808Y-12875D01*
X71838Y-12877D01*
X71867Y-12885D01*
X71895Y-12899D01*
X71919Y-12918D01*
X71939Y-12941D01*
X71954Y-12968D01*
X71964Y-12997D01*
X71967Y-13027D01*
X71968Y-13031D01*
X72755Y-13031D02*
X72752Y-13061D01*
X72743Y-13090D01*
X72728Y-13117D01*
X72709Y-13141D01*
X72685Y-13161D01*
X72658Y-13175D01*
X72629Y-13184D01*
X72599Y-13187D01*
X72569Y-13185D01*
X72540Y-13176D01*
X72513Y-13162D01*
X72489Y-13143D01*
X72469Y-13119D01*
X72454Y-13092D01*
X72445Y-13063D01*
X72442Y-13033D01*
X72444Y-13003D01*
X72453Y-12974D01*
X72467Y-12946D01*
X72486Y-12922D01*
X72509Y-12903D01*
X72536Y-12888D01*
X72565Y-12878D01*
X72595Y-12875D01*
X72625Y-12877D01*
X72654Y-12885D01*
X72682Y-12899D01*
X72706Y-12918D01*
X72726Y-12941D01*
X72741Y-12968D01*
X72751Y-12997D01*
X72754Y-13027D01*
X72755Y-13031D01*
X73542Y-13031D02*
X73539Y-13061D01*
X73530Y-13090D01*
X73515Y-13117D01*
X73496Y-13141D01*
X73472Y-13161D01*
X73445Y-13175D01*
X73416Y-13184D01*
X73386Y-13187D01*
X73356Y-13185D01*
X73327Y-13176D01*
X73300Y-13162D01*
X73276Y-13143D01*
X73256Y-13119D01*
X73241Y-13092D01*
X73232Y-13063D01*
X73229Y-13033D01*
X73231Y-13003D01*
X73240Y-12974D01*
X73254Y-12946D01*
X73273Y-12922D01*
X73296Y-12903D01*
X73323Y-12888D01*
X73352Y-12878D01*
X73382Y-12875D01*
X73412Y-12877D01*
X73441Y-12885D01*
X73469Y-12899D01*
X73493Y-12918D01*
X73513Y-12941D01*
X73528Y-12968D01*
X73538Y-12997D01*
X73541Y-13027D01*
X73542Y-13031D01*
X74330Y-13031D02*
X74327Y-13061D01*
X74318Y-13090D01*
X74303Y-13117D01*
X74284Y-13141D01*
X74260Y-13161D01*
X74233Y-13175D01*
X74204Y-13184D01*
X74174Y-13187D01*
X74144Y-13185D01*
X74115Y-13176D01*
X74088Y-13162D01*
X74064Y-13143D01*
X74044Y-13119D01*
X74029Y-13092D01*
X74020Y-13063D01*
X74017Y-13033D01*
X74019Y-13003D01*
X74028Y-12974D01*
X74042Y-12946D01*
X74061Y-12922D01*
X74084Y-12903D01*
X74111Y-12888D01*
X74140Y-12878D01*
X74170Y-12875D01*
X74200Y-12877D01*
X74229Y-12885D01*
X74257Y-12899D01*
X74281Y-12918D01*
X74301Y-12941D01*
X74316Y-12968D01*
X74326Y-12997D01*
X74329Y-13027D01*
X74330Y-13031D01*
X76929Y-15473D02*
X76926Y-15503D01*
X76917Y-15532D01*
X76902Y-15559D01*
X76883Y-15583D01*
X76859Y-15603D01*
X76832Y-15617D01*
X76803Y-15626D01*
X76773Y-15629D01*
X76743Y-15627D01*
X76714Y-15618D01*
X76687Y-15604D01*
X76663Y-15585D01*
X76643Y-15561D01*
X76628Y-15534D01*
X76619Y-15505D01*
X76616Y-15475D01*
X76618Y-15445D01*
X76627Y-15416D01*
X76641Y-15388D01*
X76660Y-15364D01*
X76683Y-15345D01*
X76710Y-15330D01*
X76739Y-15320D01*
X76769Y-15317D01*
X76799Y-15319D01*
X76828Y-15327D01*
X76856Y-15341D01*
X76880Y-15360D01*
X76900Y-15383D01*
X76915Y-15410D01*
X76925Y-15439D01*
X76928Y-15469D01*
X76929Y-15473D01*
X76929Y-16260D02*
X76926Y-16290D01*
X76917Y-16319D01*
X76902Y-16346D01*
X76883Y-16370D01*
X76859Y-16390D01*
X76832Y-16404D01*
X76803Y-16413D01*
X76773Y-16416D01*
X76743Y-16414D01*
X76714Y-16405D01*
X76687Y-16391D01*
X76663Y-16372D01*
X76643Y-16348D01*
X76628Y-16321D01*
X76619Y-16292D01*
X76616Y-16262D01*
X76618Y-16232D01*
X76627Y-16203D01*
X76641Y-16175D01*
X76660Y-16151D01*
X76683Y-16132D01*
X76710Y-16117D01*
X76739Y-16107D01*
X76769Y-16104D01*
X76799Y-16106D01*
X76828Y-16114D01*
X76856Y-16128D01*
X76880Y-16147D01*
X76900Y-16170D01*
X76915Y-16197D01*
X76925Y-16226D01*
X76928Y-16256D01*
X76929Y-16260D01*
X76929Y-17048D02*
X76926Y-17078D01*
X76917Y-17107D01*
X76902Y-17134D01*
X76883Y-17158D01*
X76859Y-17178D01*
X76832Y-17192D01*
X76803Y-17201D01*
X76773Y-17204D01*
X76743Y-17202D01*
X76714Y-17193D01*
X76687Y-17179D01*
X76663Y-17160D01*
X76643Y-17136D01*
X76628Y-17109D01*
X76619Y-17080D01*
X76616Y-17050D01*
X76618Y-17020D01*
X76627Y-16991D01*
X76641Y-16963D01*
X76660Y-16939D01*
X76683Y-16920D01*
X76710Y-16905D01*
X76739Y-16895D01*
X76769Y-16892D01*
X76799Y-16894D01*
X76828Y-16902D01*
X76856Y-16916D01*
X76880Y-16935D01*
X76900Y-16958D01*
X76915Y-16985D01*
X76925Y-17014D01*
X76928Y-17044D01*
X76929Y-17048D01*
X76929Y-17835D02*
X76926Y-17865D01*
X76917Y-17894D01*
X76902Y-17921D01*
X76883Y-17945D01*
X76859Y-17965D01*
X76832Y-17979D01*
X76803Y-17988D01*
X76773Y-17991D01*
X76743Y-17989D01*
X76714Y-17980D01*
X76687Y-17966D01*
X76663Y-17947D01*
X76643Y-17923D01*
X76628Y-17896D01*
X76619Y-17867D01*
X76616Y-17837D01*
X76618Y-17807D01*
X76627Y-17778D01*
X76641Y-17750D01*
X76660Y-17726D01*
X76683Y-17707D01*
X76710Y-17692D01*
X76739Y-17682D01*
X76769Y-17679D01*
X76799Y-17681D01*
X76828Y-17689D01*
X76856Y-17703D01*
X76880Y-17722D01*
X76900Y-17745D01*
X76915Y-17772D01*
X76925Y-17801D01*
X76928Y-17831D01*
X76929Y-17835D01*
X76929Y-18622D02*
X76926Y-18652D01*
X76917Y-18681D01*
X76902Y-18708D01*
X76883Y-18732D01*
X76859Y-18752D01*
X76832Y-18766D01*
X76803Y-18775D01*
X76773Y-18778D01*
X76743Y-18776D01*
X76714Y-18767D01*
X76687Y-18753D01*
X76663Y-18734D01*
X76643Y-18710D01*
X76628Y-18683D01*
X76619Y-18654D01*
X76616Y-18624D01*
X76618Y-18594D01*
X76627Y-18565D01*
X76641Y-18537D01*
X76660Y-18513D01*
X76683Y-18494D01*
X76710Y-18479D01*
X76739Y-18469D01*
X76769Y-18466D01*
X76799Y-18468D01*
X76828Y-18476D01*
X76856Y-18490D01*
X76880Y-18509D01*
X76900Y-18532D01*
X76915Y-18559D01*
X76925Y-18588D01*
X76928Y-18618D01*
X76929Y-18622D01*
X76929Y-19410D02*
X76926Y-19440D01*
X76917Y-19469D01*
X76902Y-19496D01*
X76883Y-19520D01*
X76859Y-19540D01*
X76832Y-19554D01*
X76803Y-19563D01*
X76773Y-19566D01*
X76743Y-19564D01*
X76714Y-19555D01*
X76687Y-19541D01*
X76663Y-19522D01*
X76643Y-19498D01*
X76628Y-19471D01*
X76619Y-19442D01*
X76616Y-19412D01*
X76618Y-19382D01*
X76627Y-19353D01*
X76641Y-19325D01*
X76660Y-19301D01*
X76683Y-19282D01*
X76710Y-19267D01*
X76739Y-19257D01*
X76769Y-19254D01*
X76799Y-19256D01*
X76828Y-19264D01*
X76856Y-19278D01*
X76880Y-19297D01*
X76900Y-19320D01*
X76915Y-19347D01*
X76925Y-19376D01*
X76928Y-19406D01*
X76929Y-19410D01*
X20197Y-19525D02*
X20197Y-19845D01*
X20357Y-19685D02*
X20037Y-19685D01*
X20197Y-21099D02*
X20197Y-21419D01*
X20357Y-21259D02*
X20037Y-21259D01*
X20197Y-25313D02*
X20197Y-25633D01*
X20357Y-25473D02*
X20037Y-25473D01*
X20197Y-26887D02*
X20197Y-27207D01*
X20357Y-27047D02*
X20037Y-27047D01*
X22559Y-19525D02*
X22559Y-19845D01*
X22719Y-19685D02*
X22399Y-19685D01*
X22559Y-21099D02*
X22559Y-21419D01*
X22719Y-21259D02*
X22399Y-21259D01*
X22559Y-25313D02*
X22559Y-25633D01*
X22719Y-25473D02*
X22399Y-25473D01*
X22559Y-26887D02*
X22559Y-27207D01*
X22719Y-27047D02*
X22399Y-27047D01*
X51480Y-26926D02*
X51480Y-27246D01*
X51640Y-27086D02*
X51320Y-27086D01*
X53402Y-26926D02*
X53402Y-27246D01*
X53562Y-27086D02*
X53242Y-27086D01*
X63346Y-21691D02*
X63346Y-22011D01*
X63506Y-21851D02*
X63186Y-21851D01*
X63346Y-23265D02*
X63346Y-23585D01*
X63506Y-23425D02*
X63186Y-23425D01*
X65708Y-21691D02*
X65708Y-22011D01*
X65868Y-21851D02*
X65548Y-21851D01*
X65708Y-23265D02*
X65708Y-23585D01*
X65868Y-23425D02*
X65548Y-23425D01*
X66890Y-17950D02*
X66890Y-18270D01*
X67050Y-18110D02*
X66730Y-18110D01*
X66890Y-19524D02*
X66890Y-19844D01*
X67050Y-19684D02*
X66730Y-19684D01*
X66890Y-25116D02*
X66890Y-25436D01*
X67050Y-25276D02*
X66730Y-25276D01*
X66890Y-26690D02*
X66890Y-27010D01*
X67050Y-26850D02*
X66730Y-26850D01*
X69252Y-17950D02*
X69252Y-18270D01*
X69412Y-18110D02*
X69092Y-18110D01*
X69252Y-19524D02*
X69252Y-19844D01*
X69412Y-19684D02*
X69092Y-19684D01*
X69252Y-25116D02*
X69252Y-25436D01*
X69412Y-25276D02*
X69092Y-25276D01*
X69252Y-26690D02*
X69252Y-27010D01*
X69412Y-26850D02*
X69092Y-26850D01*
X70431Y-21691D02*
X70431Y-22011D01*
X70591Y-21851D02*
X70271Y-21851D01*
X70431Y-23265D02*
X70431Y-23585D01*
X70591Y-23425D02*
X70271Y-23425D01*
X72793Y-21691D02*
X72793Y-22011D01*
X72953Y-21851D02*
X72633Y-21851D01*
X72793Y-23265D02*
X72793Y-23585D01*
X72953Y-23425D02*
X72633Y-23425D01*
X75350Y-24988D02*
X75346Y-25026D01*
X75334Y-25064D01*
X75316Y-25098D01*
X75291Y-25128D01*
X75261Y-25153D01*
X75227Y-25172D01*
X75190Y-25183D01*
X75151Y-25187D01*
X75113Y-25184D01*
X75076Y-25173D01*
X75041Y-25155D01*
X75011Y-25130D01*
X74985Y-25100D01*
X74967Y-25066D01*
X74955Y-25029D01*
X74951Y-24990D01*
X74954Y-24952D01*
X74965Y-24915D01*
X74982Y-24880D01*
X75007Y-24850D01*
X75036Y-24824D01*
X75070Y-24805D01*
X75108Y-24793D01*
X75146Y-24789D01*
X75184Y-24792D01*
X75222Y-24802D01*
X75257Y-24820D01*
X75287Y-24844D01*
X75313Y-24873D01*
X75332Y-24907D01*
X75345Y-24944D01*
X75349Y-24983D01*
X75350Y-24988D01*
X74950Y-24788D02*
X75350Y-25188D01*
X75350Y-24788D02*
X74950Y-25188D01*
X75350Y-25988D02*
X75346Y-26026D01*
X75334Y-26064D01*
X75316Y-26098D01*
X75291Y-26128D01*
X75261Y-26153D01*
X75227Y-26172D01*
X75190Y-26183D01*
X75151Y-26187D01*
X75113Y-26184D01*
X75076Y-26173D01*
X75041Y-26155D01*
X75011Y-26130D01*
X74985Y-26100D01*
X74967Y-26066D01*
X74955Y-26029D01*
X74951Y-25990D01*
X74954Y-25952D01*
X74965Y-25915D01*
X74982Y-25880D01*
X75007Y-25850D01*
X75036Y-25824D01*
X75070Y-25805D01*
X75108Y-25793D01*
X75146Y-25789D01*
X75184Y-25792D01*
X75222Y-25802D01*
X75257Y-25820D01*
X75287Y-25844D01*
X75313Y-25873D01*
X75332Y-25907D01*
X75345Y-25944D01*
X75349Y-25983D01*
X75350Y-25988D01*
X74950Y-25788D02*
X75350Y-26188D01*
X75350Y-25788D02*
X74950Y-26188D01*
X75350Y-26988D02*
X75346Y-27026D01*
X75334Y-27064D01*
X75316Y-27098D01*
X75291Y-27128D01*
X75261Y-27153D01*
X75227Y-27172D01*
X75190Y-27183D01*
X75151Y-27187D01*
X75113Y-27184D01*
X75076Y-27173D01*
X75041Y-27155D01*
X75011Y-27130D01*
X74985Y-27100D01*
X74967Y-27066D01*
X74955Y-27029D01*
X74951Y-26990D01*
X74954Y-26952D01*
X74965Y-26915D01*
X74982Y-26880D01*
X75007Y-26850D01*
X75036Y-26824D01*
X75070Y-26805D01*
X75108Y-26793D01*
X75146Y-26789D01*
X75184Y-26792D01*
X75222Y-26802D01*
X75257Y-26820D01*
X75287Y-26844D01*
X75313Y-26873D01*
X75332Y-26907D01*
X75345Y-26944D01*
X75349Y-26983D01*
X75350Y-26988D01*
X74950Y-26788D02*
X75350Y-27188D01*
X75350Y-26788D02*
X74950Y-27188D01*
X75350Y-27988D02*
X75346Y-28026D01*
X75334Y-28064D01*
X75316Y-28098D01*
X75291Y-28128D01*
X75261Y-28153D01*
X75227Y-28172D01*
X75190Y-28183D01*
X75151Y-28187D01*
X75113Y-28184D01*
X75076Y-28173D01*
X75041Y-28155D01*
X75011Y-28130D01*
X74985Y-28100D01*
X74967Y-28066D01*
X74955Y-28029D01*
X74951Y-27990D01*
X74954Y-27952D01*
X74965Y-27915D01*
X74982Y-27880D01*
X75007Y-27850D01*
X75036Y-27824D01*
X75070Y-27805D01*
X75108Y-27793D01*
X75146Y-27789D01*
X75184Y-27792D01*
X75222Y-27802D01*
X75257Y-27820D01*
X75287Y-27844D01*
X75313Y-27873D01*
X75332Y-27907D01*
X75345Y-27944D01*
X75349Y-27983D01*
X75350Y-27988D01*
X74950Y-27788D02*
X75350Y-28188D01*
X75350Y-27788D02*
X74950Y-28188D01*
X75350Y-28988D02*
X75346Y-29026D01*
X75334Y-29064D01*
X75316Y-29098D01*
X75291Y-29128D01*
X75261Y-29153D01*
X75227Y-29172D01*
X75190Y-29183D01*
X75151Y-29187D01*
X75113Y-29184D01*
X75076Y-29173D01*
X75041Y-29155D01*
X75011Y-29130D01*
X74985Y-29100D01*
X74967Y-29066D01*
X74955Y-29029D01*
X74951Y-28990D01*
X74954Y-28952D01*
X74965Y-28915D01*
X74982Y-28880D01*
X75007Y-28850D01*
X75036Y-28824D01*
X75070Y-28805D01*
X75108Y-28793D01*
X75146Y-28789D01*
X75184Y-28792D01*
X75222Y-28802D01*
X75257Y-28820D01*
X75287Y-28844D01*
X75313Y-28873D01*
X75332Y-28907D01*
X75345Y-28944D01*
X75349Y-28983D01*
X75350Y-28988D01*
X74950Y-28788D02*
X75350Y-29188D01*
X75350Y-28788D02*
X74950Y-29188D01*
X76350Y-24988D02*
X76346Y-25026D01*
X76334Y-25064D01*
X76316Y-25098D01*
X76291Y-25128D01*
X76261Y-25153D01*
X76227Y-25172D01*
X76190Y-25183D01*
X76151Y-25187D01*
X76113Y-25184D01*
X76076Y-25173D01*
X76041Y-25155D01*
X76011Y-25130D01*
X75985Y-25100D01*
X75967Y-25066D01*
X75955Y-25029D01*
X75951Y-24990D01*
X75954Y-24952D01*
X75965Y-24915D01*
X75982Y-24880D01*
X76007Y-24850D01*
X76036Y-24824D01*
X76070Y-24805D01*
X76108Y-24793D01*
X76146Y-24789D01*
X76184Y-24792D01*
X76222Y-24802D01*
X76257Y-24820D01*
X76287Y-24844D01*
X76313Y-24873D01*
X76332Y-24907D01*
X76345Y-24944D01*
X76349Y-24983D01*
X76350Y-24988D01*
X75950Y-24788D02*
X76350Y-25188D01*
X76350Y-24788D02*
X75950Y-25188D01*
X76350Y-25988D02*
X76346Y-26026D01*
X76334Y-26064D01*
X76316Y-26098D01*
X76291Y-26128D01*
X76261Y-26153D01*
X76227Y-26172D01*
X76190Y-26183D01*
X76151Y-26187D01*
X76113Y-26184D01*
X76076Y-26173D01*
X76041Y-26155D01*
X76011Y-26130D01*
X75985Y-26100D01*
X75967Y-26066D01*
X75955Y-26029D01*
X75951Y-25990D01*
X75954Y-25952D01*
X75965Y-25915D01*
X75982Y-25880D01*
X76007Y-25850D01*
X76036Y-25824D01*
X76070Y-25805D01*
X76108Y-25793D01*
X76146Y-25789D01*
X76184Y-25792D01*
X76222Y-25802D01*
X76257Y-25820D01*
X76287Y-25844D01*
X76313Y-25873D01*
X76332Y-25907D01*
X76345Y-25944D01*
X76349Y-25983D01*
X76350Y-25988D01*
X75950Y-25788D02*
X76350Y-26188D01*
X76350Y-25788D02*
X75950Y-26188D01*
X76350Y-26988D02*
X76346Y-27026D01*
X76334Y-27064D01*
X76316Y-27098D01*
X76291Y-27128D01*
X76261Y-27153D01*
X76227Y-27172D01*
X76190Y-27183D01*
X76151Y-27187D01*
X76113Y-27184D01*
X76076Y-27173D01*
X76041Y-27155D01*
X76011Y-27130D01*
X75985Y-27100D01*
X75967Y-27066D01*
X75955Y-27029D01*
X75951Y-26990D01*
X75954Y-26952D01*
X75965Y-26915D01*
X75982Y-26880D01*
X76007Y-26850D01*
X76036Y-26824D01*
X76070Y-26805D01*
X76108Y-26793D01*
X76146Y-26789D01*
X76184Y-26792D01*
X76222Y-26802D01*
X76257Y-26820D01*
X76287Y-26844D01*
X76313Y-26873D01*
X76332Y-26907D01*
X76345Y-26944D01*
X76349Y-26983D01*
X76350Y-26988D01*
X75950Y-26788D02*
X76350Y-27188D01*
X76350Y-26788D02*
X75950Y-27188D01*
X76350Y-27988D02*
X76346Y-28026D01*
X76334Y-28064D01*
X76316Y-28098D01*
X76291Y-28128D01*
X76261Y-28153D01*
X76227Y-28172D01*
X76190Y-28183D01*
X76151Y-28187D01*
X76113Y-28184D01*
X76076Y-28173D01*
X76041Y-28155D01*
X76011Y-28130D01*
X75985Y-28100D01*
X75967Y-28066D01*
X75955Y-28029D01*
X75951Y-27990D01*
X75954Y-27952D01*
X75965Y-27915D01*
X75982Y-27880D01*
X76007Y-27850D01*
X76036Y-27824D01*
X76070Y-27805D01*
X76108Y-27793D01*
X76146Y-27789D01*
X76184Y-27792D01*
X76222Y-27802D01*
X76257Y-27820D01*
X76287Y-27844D01*
X76313Y-27873D01*
X76332Y-27907D01*
X76345Y-27944D01*
X76349Y-27983D01*
X76350Y-27988D01*
X75950Y-27788D02*
X76350Y-28188D01*
X76350Y-27788D02*
X75950Y-28188D01*
X76350Y-28988D02*
X76346Y-29026D01*
X76334Y-29064D01*
X76316Y-29098D01*
X76291Y-29128D01*
X76261Y-29153D01*
X76227Y-29172D01*
X76190Y-29183D01*
X76151Y-29187D01*
X76113Y-29184D01*
X76076Y-29173D01*
X76041Y-29155D01*
X76011Y-29130D01*
X75985Y-29100D01*
X75967Y-29066D01*
X75955Y-29029D01*
X75951Y-28990D01*
X75954Y-28952D01*
X75965Y-28915D01*
X75982Y-28880D01*
X76007Y-28850D01*
X76036Y-28824D01*
X76070Y-28805D01*
X76108Y-28793D01*
X76146Y-28789D01*
X76184Y-28792D01*
X76222Y-28802D01*
X76257Y-28820D01*
X76287Y-28844D01*
X76313Y-28873D01*
X76332Y-28907D01*
X76345Y-28944D01*
X76349Y-28983D01*
X76350Y-28988D01*
X75950Y-28788D02*
X76350Y-29188D01*
X76350Y-28788D02*
X75950Y-29188D01*
X21909Y-23425D02*
X21899Y-23520D01*
X21871Y-23612D01*
X21826Y-23697D01*
X21766Y-23771D01*
X21692Y-23832D01*
X21607Y-23878D01*
X21515Y-23906D01*
X21420Y-23916D01*
X21325Y-23908D01*
X21233Y-23881D01*
X21148Y-23836D01*
X21073Y-23776D01*
X21012Y-23702D01*
X20965Y-23618D01*
X20936Y-23527D01*
X20926Y-23431D01*
X20934Y-23337D01*
X20960Y-23244D01*
X21004Y-23159D01*
X21064Y-23084D01*
X21137Y-23021D01*
X21221Y-22975D01*
X21312Y-22945D01*
X21407Y-22934D01*
X21502Y-22941D01*
X21594Y-22967D01*
X21680Y-23010D01*
X21756Y-23069D01*
X21819Y-23142D01*
X21866Y-23225D01*
X21896Y-23316D01*
X21908Y-23412D01*
X21909Y-23425D01*
X20925Y-23425D02*
X21909Y-23425D01*
X27972Y-13780D02*
X27962Y-13875D01*
X27934Y-13967D01*
X27889Y-14052D01*
X27829Y-14126D01*
X27755Y-14187D01*
X27670Y-14233D01*
X27578Y-14261D01*
X27483Y-14271D01*
X27388Y-14263D01*
X27296Y-14236D01*
X27211Y-14191D01*
X27136Y-14131D01*
X27075Y-14057D01*
X27028Y-13973D01*
X26999Y-13882D01*
X26989Y-13786D01*
X26997Y-13692D01*
X27023Y-13599D01*
X27067Y-13514D01*
X27127Y-13439D01*
X27200Y-13376D01*
X27284Y-13330D01*
X27375Y-13300D01*
X27470Y-13289D01*
X27565Y-13296D01*
X27657Y-13322D01*
X27743Y-13365D01*
X27819Y-13424D01*
X27882Y-13497D01*
X27929Y-13580D01*
X27959Y-13671D01*
X27971Y-13767D01*
X27972Y-13780D01*
X26988Y-13780D02*
X27972Y-13780D01*
X27972Y-31969D02*
X27962Y-32064D01*
X27934Y-32156D01*
X27889Y-32241D01*
X27829Y-32315D01*
X27755Y-32376D01*
X27670Y-32422D01*
X27578Y-32450D01*
X27483Y-32460D01*
X27388Y-32452D01*
X27296Y-32425D01*
X27211Y-32380D01*
X27136Y-32320D01*
X27075Y-32246D01*
X27028Y-32162D01*
X26999Y-32071D01*
X26989Y-31975D01*
X26997Y-31881D01*
X27023Y-31788D01*
X27067Y-31703D01*
X27127Y-31628D01*
X27200Y-31565D01*
X27284Y-31519D01*
X27375Y-31489D01*
X27470Y-31478D01*
X27565Y-31485D01*
X27657Y-31511D01*
X27743Y-31554D01*
X27819Y-31613D01*
X27882Y-31686D01*
X27929Y-31769D01*
X27959Y-31860D01*
X27971Y-31956D01*
X27972Y-31969D01*
X26988Y-31969D02*
X27972Y-31969D01*
X62303Y-31969D02*
X62293Y-32064D01*
X62265Y-32156D01*
X62220Y-32241D01*
X62160Y-32315D01*
X62086Y-32376D01*
X62001Y-32422D01*
X61909Y-32450D01*
X61814Y-32460D01*
X61719Y-32452D01*
X61627Y-32425D01*
X61542Y-32380D01*
X61467Y-32320D01*
X61406Y-32246D01*
X61359Y-32162D01*
X61330Y-32071D01*
X61320Y-31975D01*
X61328Y-31881D01*
X61354Y-31788D01*
X61398Y-31703D01*
X61458Y-31628D01*
X61531Y-31565D01*
X61615Y-31519D01*
X61706Y-31489D01*
X61801Y-31478D01*
X61896Y-31485D01*
X61988Y-31511D01*
X62074Y-31554D01*
X62150Y-31613D01*
X62213Y-31686D01*
X62260Y-31769D01*
X62290Y-31860D01*
X62302Y-31956D01*
X62303Y-31969D01*
X61319Y-31969D02*
X62303Y-31969D01*
X62972Y-13780D02*
X62962Y-13875D01*
X62934Y-13967D01*
X62889Y-14052D01*
X62829Y-14126D01*
X62755Y-14187D01*
X62670Y-14233D01*
X62578Y-14261D01*
X62483Y-14271D01*
X62388Y-14263D01*
X62296Y-14236D01*
X62211Y-14191D01*
X62136Y-14131D01*
X62075Y-14057D01*
X62028Y-13973D01*
X61999Y-13882D01*
X61989Y-13786D01*
X61997Y-13692D01*
X62023Y-13599D01*
X62067Y-13514D01*
X62127Y-13439D01*
X62200Y-13376D01*
X62284Y-13330D01*
X62375Y-13300D01*
X62470Y-13289D01*
X62565Y-13296D01*
X62657Y-13322D01*
X62743Y-13365D01*
X62819Y-13424D01*
X62882Y-13497D01*
X62929Y-13580D01*
X62959Y-13671D01*
X62971Y-13767D01*
X62972Y-13780D01*
X61988Y-13780D02*
X62972Y-13780D01*
X14104Y-13425D02*
X14092Y-13541D01*
X14058Y-13653D01*
X14003Y-13757D01*
X13929Y-13847D01*
X13839Y-13922D01*
X13736Y-13978D01*
X13624Y-14012D01*
X13508Y-14024D01*
X13392Y-14014D01*
X13280Y-13981D01*
X13176Y-13927D01*
X13085Y-13853D01*
X13009Y-13763D01*
X12953Y-13661D01*
X12918Y-13549D01*
X12905Y-13433D01*
X12914Y-13317D01*
X12947Y-13205D01*
X13000Y-13100D01*
X13073Y-13009D01*
X13162Y-12933D01*
X13264Y-12876D01*
X13376Y-12839D01*
X13492Y-12826D01*
X13608Y-12835D01*
X13720Y-12866D01*
X13825Y-12919D01*
X13917Y-12991D01*
X13994Y-13080D01*
X14052Y-13181D01*
X14089Y-13293D01*
X14103Y-13409D01*
X14104Y-13425D01*
X13504Y-12825D02*
X13504Y-14025D01*
X16309Y-31535D02*
X16297Y-31651D01*
X16263Y-31763D01*
X16208Y-31867D01*
X16134Y-31957D01*
X16044Y-32032D01*
X15941Y-32088D01*
X15829Y-32122D01*
X15713Y-32134D01*
X15597Y-32124D01*
X15485Y-32091D01*
X15381Y-32037D01*
X15290Y-31963D01*
X15214Y-31873D01*
X15158Y-31771D01*
X15123Y-31659D01*
X15110Y-31543D01*
X15119Y-31427D01*
X15152Y-31315D01*
X15205Y-31210D01*
X15278Y-31119D01*
X15367Y-31043D01*
X15469Y-30986D01*
X15581Y-30949D01*
X15697Y-30936D01*
X15813Y-30945D01*
X15925Y-30976D01*
X16030Y-31029D01*
X16122Y-31101D01*
X16199Y-31190D01*
X16257Y-31291D01*
X16294Y-31403D01*
X16308Y-31519D01*
X16309Y-31535D01*
X15709Y-30935D02*
X15709Y-32135D01*
X74970Y-31653D02*
X74958Y-31769D01*
X74924Y-31881D01*
X74869Y-31985D01*
X74795Y-32075D01*
X74705Y-32150D01*
X74602Y-32206D01*
X74490Y-32240D01*
X74374Y-32252D01*
X74258Y-32242D01*
X74146Y-32209D01*
X74042Y-32155D01*
X73951Y-32081D01*
X73875Y-31991D01*
X73819Y-31889D01*
X73784Y-31777D01*
X73771Y-31661D01*
X73780Y-31545D01*
X73813Y-31433D01*
X73866Y-31328D01*
X73939Y-31237D01*
X74028Y-31161D01*
X74130Y-31104D01*
X74242Y-31067D01*
X74358Y-31054D01*
X74474Y-31063D01*
X74586Y-31094D01*
X74691Y-31147D01*
X74783Y-31219D01*
X74860Y-31308D01*
X74918Y-31409D01*
X74955Y-31521D01*
X74969Y-31637D01*
X74970Y-31653D01*
X74370Y-31053D02*
X74370Y-32253D01*
X77372Y-13425D02*
X77360Y-13541D01*
X77326Y-13653D01*
X77271Y-13757D01*
X77197Y-13847D01*
X77107Y-13922D01*
X77004Y-13978D01*
X76892Y-14012D01*
X76776Y-14024D01*
X76660Y-14014D01*
X76548Y-13981D01*
X76444Y-13927D01*
X76353Y-13853D01*
X76277Y-13763D01*
X76221Y-13661D01*
X76186Y-13549D01*
X76173Y-13433D01*
X76182Y-13317D01*
X76215Y-13205D01*
X76268Y-13100D01*
X76341Y-13009D01*
X76430Y-12933D01*
X76532Y-12876D01*
X76644Y-12839D01*
X76760Y-12826D01*
X76876Y-12835D01*
X76988Y-12866D01*
X77093Y-12919D01*
X77185Y-12991D01*
X77262Y-13080D01*
X77320Y-13181D01*
X77357Y-13293D01*
X77371Y-13409D01*
X77372Y-13425D01*
X76772Y-12825D02*
X76772Y-14025D01*
G54D12*
X11780Y-36342D02*
X11780Y-35542D01*
X11971Y-35542D01*
X12085Y-35580D01*
X12161Y-35656D01*
X12200Y-35732D01*
X12238Y-35885D01*
X12238Y-35999D01*
X12200Y-36151D01*
X12161Y-36228D01*
X12085Y-36304D01*
X11971Y-36342D01*
X11780Y-36342D01*
X12580Y-36342D02*
X12580Y-35808D01*
X12580Y-35961D02*
X12619Y-35885D01*
X12657Y-35847D01*
X12733Y-35808D01*
X12809Y-35808D01*
X13075Y-36342D02*
X13075Y-35808D01*
X13075Y-35542D02*
X13037Y-35580D01*
X13075Y-35618D01*
X13114Y-35580D01*
X13075Y-35542D01*
X13075Y-35618D01*
X13571Y-36342D02*
X13495Y-36304D01*
X13456Y-36228D01*
X13456Y-35542D01*
X13990Y-36342D02*
X13914Y-36304D01*
X13875Y-36228D01*
X13875Y-35542D01*
X14904Y-36342D02*
X14904Y-35542D01*
X15171Y-36113D01*
X15438Y-35542D01*
X15438Y-36342D01*
X16161Y-36342D02*
X16161Y-35923D01*
X16123Y-35847D01*
X16047Y-35808D01*
X15895Y-35808D01*
X15818Y-35847D01*
X16161Y-36304D02*
X16085Y-36342D01*
X15895Y-36342D01*
X15818Y-36304D01*
X15780Y-36228D01*
X15780Y-36151D01*
X15818Y-36075D01*
X15895Y-36037D01*
X16085Y-36037D01*
X16161Y-35999D01*
X16542Y-35808D02*
X16542Y-36608D01*
X16542Y-35847D02*
X16619Y-35808D01*
X16771Y-35808D01*
X16847Y-35847D01*
X16885Y-35885D01*
X16923Y-35961D01*
X16923Y-36189D01*
X16885Y-36266D01*
X16847Y-36304D01*
X16771Y-36342D01*
X16619Y-36342D01*
X16542Y-36304D01*
X17266Y-36266D02*
X17305Y-36304D01*
X17266Y-36342D01*
X17228Y-36304D01*
X17266Y-36266D01*
X17266Y-36342D01*
X17266Y-35847D02*
X17305Y-35885D01*
X17266Y-35923D01*
X17228Y-35885D01*
X17266Y-35847D01*
X17266Y-35923D01*
X11140Y-37573D02*
X11390Y-37823D01*
X11390Y-37573D02*
X11140Y-37823D01*
X11933Y-37222D02*
X12009Y-37222D01*
X12085Y-37260D01*
X12123Y-37298D01*
X12161Y-37374D01*
X12200Y-37527D01*
X12200Y-37717D01*
X12161Y-37869D01*
X12123Y-37946D01*
X12085Y-37984D01*
X12009Y-38022D01*
X11933Y-38022D01*
X11857Y-37984D01*
X11819Y-37946D01*
X11780Y-37869D01*
X11742Y-37717D01*
X11742Y-37527D01*
X11780Y-37374D01*
X11819Y-37298D01*
X11857Y-37260D01*
X11933Y-37222D01*
X12542Y-37946D02*
X12581Y-37984D01*
X12542Y-38022D01*
X12504Y-37984D01*
X12542Y-37946D01*
X12542Y-38022D01*
X13076Y-37222D02*
X13152Y-37222D01*
X13228Y-37260D01*
X13266Y-37298D01*
X13304Y-37374D01*
X13343Y-37527D01*
X13343Y-37717D01*
X13304Y-37869D01*
X13266Y-37946D01*
X13228Y-37984D01*
X13152Y-38022D01*
X13076Y-38022D01*
X13000Y-37984D01*
X12962Y-37946D01*
X12923Y-37869D01*
X12885Y-37717D01*
X12885Y-37527D01*
X12923Y-37374D01*
X12962Y-37298D01*
X13000Y-37260D01*
X13076Y-37222D01*
X13647Y-37298D02*
X13685Y-37260D01*
X13762Y-37222D01*
X13952Y-37222D01*
X14028Y-37260D01*
X14066Y-37298D01*
X14105Y-37374D01*
X14105Y-37450D01*
X14066Y-37565D01*
X13609Y-38022D01*
X14105Y-38022D01*
X14828Y-37222D02*
X14447Y-37222D01*
X14409Y-37603D01*
X14447Y-37565D01*
X14524Y-37527D01*
X14714Y-37527D01*
X14790Y-37565D01*
X14828Y-37603D01*
X14867Y-37679D01*
X14867Y-37869D01*
X14828Y-37946D01*
X14790Y-37984D01*
X14714Y-38022D01*
X14524Y-38022D01*
X14447Y-37984D01*
X14409Y-37946D01*
X15171Y-37222D02*
X15171Y-37374D01*
X15476Y-37222D02*
X15476Y-37374D01*
X17001Y-37184D02*
X16315Y-38212D01*
X18030Y-37222D02*
X18106Y-37222D01*
X18182Y-37260D01*
X18220Y-37298D01*
X18258Y-37374D01*
X18297Y-37527D01*
X18297Y-37717D01*
X18258Y-37869D01*
X18220Y-37946D01*
X18182Y-37984D01*
X18106Y-38022D01*
X18030Y-38022D01*
X17954Y-37984D01*
X17916Y-37946D01*
X17877Y-37869D01*
X17839Y-37717D01*
X17839Y-37527D01*
X17877Y-37374D01*
X17916Y-37298D01*
X17954Y-37260D01*
X18030Y-37222D01*
X18639Y-37946D02*
X18678Y-37984D01*
X18639Y-38022D01*
X18601Y-37984D01*
X18639Y-37946D01*
X18639Y-38022D01*
X19363Y-37222D02*
X19211Y-37222D01*
X19135Y-37260D01*
X19097Y-37298D01*
X19020Y-37412D01*
X18982Y-37565D01*
X18982Y-37869D01*
X19020Y-37946D01*
X19059Y-37984D01*
X19135Y-38022D01*
X19287Y-38022D01*
X19363Y-37984D01*
X19401Y-37946D01*
X19440Y-37869D01*
X19440Y-37679D01*
X19401Y-37603D01*
X19363Y-37565D01*
X19287Y-37527D01*
X19135Y-37527D01*
X19059Y-37565D01*
X19020Y-37603D01*
X18982Y-37679D01*
X20125Y-37488D02*
X20125Y-38022D01*
X19935Y-37184D02*
X19744Y-37755D01*
X20240Y-37755D01*
X20544Y-38022D02*
X20544Y-37488D01*
X20544Y-37565D02*
X20583Y-37527D01*
X20659Y-37488D01*
X20773Y-37488D01*
X20849Y-37527D01*
X20887Y-37603D01*
X20887Y-38022D01*
X20887Y-37603D02*
X20925Y-37527D01*
X21002Y-37488D01*
X21116Y-37488D01*
X21192Y-37527D01*
X21230Y-37603D01*
X21230Y-38022D01*
X21611Y-38022D02*
X21611Y-37488D01*
X21611Y-37565D02*
X21650Y-37527D01*
X21726Y-37488D01*
X21840Y-37488D01*
X21916Y-37527D01*
X21954Y-37603D01*
X21954Y-38022D01*
X21954Y-37603D02*
X21992Y-37527D01*
X22069Y-37488D01*
X22183Y-37488D01*
X22259Y-37527D01*
X22297Y-37603D01*
X22297Y-38022D01*
X23517Y-38327D02*
X23479Y-38288D01*
X23403Y-38174D01*
X23365Y-38098D01*
X23327Y-37984D01*
X23288Y-37793D01*
X23288Y-37641D01*
X23327Y-37450D01*
X23365Y-37336D01*
X23403Y-37260D01*
X23479Y-37146D01*
X23517Y-37108D01*
X24164Y-37488D02*
X24164Y-38022D01*
X23974Y-37184D02*
X23783Y-37755D01*
X24279Y-37755D01*
X24545Y-37298D02*
X24583Y-37260D01*
X24660Y-37222D01*
X24850Y-37222D01*
X24926Y-37260D01*
X24964Y-37298D01*
X25003Y-37374D01*
X25003Y-37450D01*
X24964Y-37565D01*
X24507Y-38022D01*
X25003Y-38022D01*
X25765Y-38022D02*
X25307Y-38022D01*
X25536Y-38022D02*
X25536Y-37222D01*
X25460Y-37336D01*
X25384Y-37412D01*
X25307Y-37450D01*
X26717Y-38022D02*
X26717Y-37222D01*
X27060Y-38022D02*
X27060Y-37603D01*
X27022Y-37527D01*
X26946Y-37488D01*
X26832Y-37488D01*
X26756Y-37527D01*
X26717Y-37565D01*
X27556Y-38022D02*
X27480Y-37984D01*
X27441Y-37946D01*
X27403Y-37869D01*
X27403Y-37641D01*
X27441Y-37565D01*
X27480Y-37527D01*
X27556Y-37488D01*
X27670Y-37488D01*
X27746Y-37527D01*
X27784Y-37565D01*
X27822Y-37641D01*
X27822Y-37869D01*
X27784Y-37946D01*
X27746Y-37984D01*
X27670Y-38022D01*
X27556Y-38022D01*
X28280Y-38022D02*
X28204Y-37984D01*
X28165Y-37908D01*
X28165Y-37222D01*
X28889Y-37984D02*
X28813Y-38022D01*
X28661Y-38022D01*
X28584Y-37984D01*
X28546Y-37908D01*
X28546Y-37603D01*
X28584Y-37527D01*
X28661Y-37488D01*
X28813Y-37488D01*
X28889Y-37527D01*
X28927Y-37603D01*
X28927Y-37679D01*
X28546Y-37755D01*
X29232Y-37984D02*
X29309Y-38022D01*
X29461Y-38022D01*
X29537Y-37984D01*
X29575Y-37908D01*
X29575Y-37869D01*
X29537Y-37793D01*
X29461Y-37755D01*
X29347Y-37755D01*
X29270Y-37717D01*
X29232Y-37641D01*
X29232Y-37603D01*
X29270Y-37527D01*
X29347Y-37488D01*
X29461Y-37488D01*
X29537Y-37527D01*
X29842Y-38327D02*
X29880Y-38288D01*
X29957Y-38174D01*
X29995Y-38098D01*
X30033Y-37984D01*
X30071Y-37793D01*
X30071Y-37641D01*
X30033Y-37450D01*
X29995Y-37336D01*
X29957Y-37260D01*
X29880Y-37146D01*
X29842Y-37108D01*
G54D10*
X11389Y-38753D02*
X11386Y-38783D01*
X11377Y-38812D01*
X11362Y-38839D01*
X11343Y-38863D01*
X11319Y-38883D01*
X11292Y-38897D01*
X11263Y-38906D01*
X11233Y-38909D01*
X11203Y-38907D01*
X11174Y-38898D01*
X11147Y-38884D01*
X11123Y-38865D01*
X11103Y-38841D01*
X11088Y-38814D01*
X11079Y-38785D01*
X11076Y-38755D01*
X11078Y-38725D01*
X11087Y-38696D01*
X11101Y-38668D01*
X11120Y-38644D01*
X11143Y-38625D01*
X11170Y-38610D01*
X11199Y-38600D01*
X11229Y-38597D01*
X11259Y-38599D01*
X11288Y-38607D01*
X11316Y-38621D01*
X11340Y-38640D01*
X11360Y-38663D01*
X11375Y-38690D01*
X11385Y-38719D01*
X11388Y-38749D01*
X11389Y-38753D01*
G54D12*
X11933Y-38277D02*
X12009Y-38277D01*
X12085Y-38315D01*
X12123Y-38353D01*
X12161Y-38429D01*
X12200Y-38582D01*
X12200Y-38772D01*
X12161Y-38924D01*
X12123Y-39001D01*
X12085Y-39039D01*
X12009Y-39077D01*
X11933Y-39077D01*
X11857Y-39039D01*
X11819Y-39001D01*
X11780Y-38924D01*
X11742Y-38772D01*
X11742Y-38582D01*
X11780Y-38429D01*
X11819Y-38353D01*
X11857Y-38315D01*
X11933Y-38277D01*
X12542Y-39001D02*
X12581Y-39039D01*
X12542Y-39077D01*
X12504Y-39039D01*
X12542Y-39001D01*
X12542Y-39077D01*
X13076Y-38277D02*
X13152Y-38277D01*
X13228Y-38315D01*
X13266Y-38353D01*
X13304Y-38429D01*
X13343Y-38582D01*
X13343Y-38772D01*
X13304Y-38924D01*
X13266Y-39001D01*
X13228Y-39039D01*
X13152Y-39077D01*
X13076Y-39077D01*
X13000Y-39039D01*
X12962Y-39001D01*
X12923Y-38924D01*
X12885Y-38772D01*
X12885Y-38582D01*
X12923Y-38429D01*
X12962Y-38353D01*
X13000Y-38315D01*
X13076Y-38277D01*
X13609Y-38277D02*
X14105Y-38277D01*
X13838Y-38582D01*
X13952Y-38582D01*
X14028Y-38620D01*
X14066Y-38658D01*
X14105Y-38734D01*
X14105Y-38924D01*
X14066Y-39001D01*
X14028Y-39039D01*
X13952Y-39077D01*
X13724Y-39077D01*
X13647Y-39039D01*
X13609Y-39001D01*
X14409Y-38353D02*
X14447Y-38315D01*
X14524Y-38277D01*
X14714Y-38277D01*
X14790Y-38315D01*
X14828Y-38353D01*
X14867Y-38429D01*
X14867Y-38505D01*
X14828Y-38620D01*
X14371Y-39077D01*
X14867Y-39077D01*
X15171Y-38277D02*
X15171Y-38429D01*
X15476Y-38277D02*
X15476Y-38429D01*
X17001Y-38239D02*
X16315Y-39267D01*
X18030Y-38277D02*
X18106Y-38277D01*
X18182Y-38315D01*
X18220Y-38353D01*
X18258Y-38429D01*
X18297Y-38582D01*
X18297Y-38772D01*
X18258Y-38924D01*
X18220Y-39001D01*
X18182Y-39039D01*
X18106Y-39077D01*
X18030Y-39077D01*
X17954Y-39039D01*
X17916Y-39001D01*
X17877Y-38924D01*
X17839Y-38772D01*
X17839Y-38582D01*
X17877Y-38429D01*
X17916Y-38353D01*
X17954Y-38315D01*
X18030Y-38277D01*
X18639Y-39001D02*
X18678Y-39039D01*
X18639Y-39077D01*
X18601Y-39039D01*
X18639Y-39001D01*
X18639Y-39077D01*
X19135Y-38620D02*
X19059Y-38582D01*
X19020Y-38543D01*
X18982Y-38467D01*
X18982Y-38429D01*
X19020Y-38353D01*
X19059Y-38315D01*
X19135Y-38277D01*
X19287Y-38277D01*
X19363Y-38315D01*
X19401Y-38353D01*
X19440Y-38429D01*
X19440Y-38467D01*
X19401Y-38543D01*
X19363Y-38582D01*
X19287Y-38620D01*
X19135Y-38620D01*
X19059Y-38658D01*
X19020Y-38696D01*
X18982Y-38772D01*
X18982Y-38924D01*
X19020Y-39001D01*
X19059Y-39039D01*
X19135Y-39077D01*
X19287Y-39077D01*
X19363Y-39039D01*
X19401Y-39001D01*
X19440Y-38924D01*
X19440Y-38772D01*
X19401Y-38696D01*
X19363Y-38658D01*
X19287Y-38620D01*
X19935Y-38277D02*
X20011Y-38277D01*
X20087Y-38315D01*
X20125Y-38353D01*
X20163Y-38429D01*
X20202Y-38582D01*
X20202Y-38772D01*
X20163Y-38924D01*
X20125Y-39001D01*
X20087Y-39039D01*
X20011Y-39077D01*
X19935Y-39077D01*
X19859Y-39039D01*
X19821Y-39001D01*
X19782Y-38924D01*
X19744Y-38772D01*
X19744Y-38582D01*
X19782Y-38429D01*
X19821Y-38353D01*
X19859Y-38315D01*
X19935Y-38277D01*
X20544Y-39077D02*
X20544Y-38543D01*
X20544Y-38620D02*
X20583Y-38582D01*
X20659Y-38543D01*
X20773Y-38543D01*
X20849Y-38582D01*
X20887Y-38658D01*
X20887Y-39077D01*
X20887Y-38658D02*
X20925Y-38582D01*
X21002Y-38543D01*
X21116Y-38543D01*
X21192Y-38582D01*
X21230Y-38658D01*
X21230Y-39077D01*
X21611Y-39077D02*
X21611Y-38543D01*
X21611Y-38620D02*
X21650Y-38582D01*
X21726Y-38543D01*
X21840Y-38543D01*
X21916Y-38582D01*
X21954Y-38658D01*
X21954Y-39077D01*
X21954Y-38658D02*
X21992Y-38582D01*
X22069Y-38543D01*
X22183Y-38543D01*
X22259Y-38582D01*
X22297Y-38658D01*
X22297Y-39077D01*
X23517Y-39382D02*
X23479Y-39343D01*
X23403Y-39229D01*
X23365Y-39153D01*
X23327Y-39039D01*
X23288Y-38848D01*
X23288Y-38696D01*
X23327Y-38505D01*
X23365Y-38391D01*
X23403Y-38315D01*
X23479Y-38201D01*
X23517Y-38163D01*
X24164Y-38277D02*
X24012Y-38277D01*
X23936Y-38315D01*
X23898Y-38353D01*
X23821Y-38467D01*
X23783Y-38620D01*
X23783Y-38924D01*
X23821Y-39001D01*
X23860Y-39039D01*
X23936Y-39077D01*
X24088Y-39077D01*
X24164Y-39039D01*
X24202Y-39001D01*
X24241Y-38924D01*
X24241Y-38734D01*
X24202Y-38658D01*
X24164Y-38620D01*
X24088Y-38582D01*
X23936Y-38582D01*
X23860Y-38620D01*
X23821Y-38658D01*
X23783Y-38734D01*
X24507Y-38277D02*
X25003Y-38277D01*
X24736Y-38582D01*
X24850Y-38582D01*
X24926Y-38620D01*
X24964Y-38658D01*
X25003Y-38734D01*
X25003Y-38924D01*
X24964Y-39001D01*
X24926Y-39039D01*
X24850Y-39077D01*
X24622Y-39077D01*
X24545Y-39039D01*
X24507Y-39001D01*
X25955Y-39077D02*
X25955Y-38277D01*
X26298Y-39077D02*
X26298Y-38658D01*
X26260Y-38582D01*
X26184Y-38543D01*
X26070Y-38543D01*
X25994Y-38582D01*
X25955Y-38620D01*
X26794Y-39077D02*
X26718Y-39039D01*
X26679Y-39001D01*
X26641Y-38924D01*
X26641Y-38696D01*
X26679Y-38620D01*
X26718Y-38582D01*
X26794Y-38543D01*
X26908Y-38543D01*
X26984Y-38582D01*
X27022Y-38620D01*
X27060Y-38696D01*
X27060Y-38924D01*
X27022Y-39001D01*
X26984Y-39039D01*
X26908Y-39077D01*
X26794Y-39077D01*
X27518Y-39077D02*
X27442Y-39039D01*
X27403Y-38963D01*
X27403Y-38277D01*
X28127Y-39039D02*
X28051Y-39077D01*
X27899Y-39077D01*
X27822Y-39039D01*
X27784Y-38963D01*
X27784Y-38658D01*
X27822Y-38582D01*
X27899Y-38543D01*
X28051Y-38543D01*
X28127Y-38582D01*
X28165Y-38658D01*
X28165Y-38734D01*
X27784Y-38810D01*
X28470Y-39039D02*
X28547Y-39077D01*
X28699Y-39077D01*
X28775Y-39039D01*
X28813Y-38963D01*
X28813Y-38924D01*
X28775Y-38848D01*
X28699Y-38810D01*
X28585Y-38810D01*
X28508Y-38772D01*
X28470Y-38696D01*
X28470Y-38658D01*
X28508Y-38582D01*
X28585Y-38543D01*
X28699Y-38543D01*
X28775Y-38582D01*
X29080Y-39382D02*
X29118Y-39343D01*
X29195Y-39229D01*
X29233Y-39153D01*
X29271Y-39039D01*
X29309Y-38848D01*
X29309Y-38696D01*
X29271Y-38505D01*
X29233Y-38391D01*
X29195Y-38315D01*
X29118Y-38201D01*
X29080Y-38163D01*
X11230Y-39648D02*
X11230Y-39968D01*
X11390Y-39808D02*
X11070Y-39808D01*
X11933Y-39332D02*
X12009Y-39332D01*
X12085Y-39370D01*
X12123Y-39408D01*
X12161Y-39484D01*
X12200Y-39637D01*
X12200Y-39827D01*
X12161Y-39979D01*
X12123Y-40056D01*
X12085Y-40094D01*
X12009Y-40132D01*
X11933Y-40132D01*
X11857Y-40094D01*
X11819Y-40056D01*
X11780Y-39979D01*
X11742Y-39827D01*
X11742Y-39637D01*
X11780Y-39484D01*
X11819Y-39408D01*
X11857Y-39370D01*
X11933Y-39332D01*
X12542Y-40056D02*
X12581Y-40094D01*
X12542Y-40132D01*
X12504Y-40094D01*
X12542Y-40056D01*
X12542Y-40132D01*
X13076Y-39332D02*
X13152Y-39332D01*
X13228Y-39370D01*
X13266Y-39408D01*
X13304Y-39484D01*
X13343Y-39637D01*
X13343Y-39827D01*
X13304Y-39979D01*
X13266Y-40056D01*
X13228Y-40094D01*
X13152Y-40132D01*
X13076Y-40132D01*
X13000Y-40094D01*
X12962Y-40056D01*
X12923Y-39979D01*
X12885Y-39827D01*
X12885Y-39637D01*
X12923Y-39484D01*
X12962Y-39408D01*
X13000Y-39370D01*
X13076Y-39332D01*
X13609Y-39332D02*
X14105Y-39332D01*
X13838Y-39637D01*
X13952Y-39637D01*
X14028Y-39675D01*
X14066Y-39713D01*
X14105Y-39789D01*
X14105Y-39979D01*
X14066Y-40056D01*
X14028Y-40094D01*
X13952Y-40132D01*
X13724Y-40132D01*
X13647Y-40094D01*
X13609Y-40056D01*
X14409Y-39408D02*
X14447Y-39370D01*
X14524Y-39332D01*
X14714Y-39332D01*
X14790Y-39370D01*
X14828Y-39408D01*
X14867Y-39484D01*
X14867Y-39560D01*
X14828Y-39675D01*
X14371Y-40132D01*
X14867Y-40132D01*
X15171Y-39332D02*
X15171Y-39484D01*
X15476Y-39332D02*
X15476Y-39484D01*
X17001Y-39294D02*
X16315Y-40322D01*
X18030Y-39332D02*
X18106Y-39332D01*
X18182Y-39370D01*
X18220Y-39408D01*
X18258Y-39484D01*
X18297Y-39637D01*
X18297Y-39827D01*
X18258Y-39979D01*
X18220Y-40056D01*
X18182Y-40094D01*
X18106Y-40132D01*
X18030Y-40132D01*
X17954Y-40094D01*
X17916Y-40056D01*
X17877Y-39979D01*
X17839Y-39827D01*
X17839Y-39637D01*
X17877Y-39484D01*
X17916Y-39408D01*
X17954Y-39370D01*
X18030Y-39332D01*
X18639Y-40056D02*
X18678Y-40094D01*
X18639Y-40132D01*
X18601Y-40094D01*
X18639Y-40056D01*
X18639Y-40132D01*
X19135Y-39675D02*
X19059Y-39637D01*
X19020Y-39598D01*
X18982Y-39522D01*
X18982Y-39484D01*
X19020Y-39408D01*
X19059Y-39370D01*
X19135Y-39332D01*
X19287Y-39332D01*
X19363Y-39370D01*
X19401Y-39408D01*
X19440Y-39484D01*
X19440Y-39522D01*
X19401Y-39598D01*
X19363Y-39637D01*
X19287Y-39675D01*
X19135Y-39675D01*
X19059Y-39713D01*
X19020Y-39751D01*
X18982Y-39827D01*
X18982Y-39979D01*
X19020Y-40056D01*
X19059Y-40094D01*
X19135Y-40132D01*
X19287Y-40132D01*
X19363Y-40094D01*
X19401Y-40056D01*
X19440Y-39979D01*
X19440Y-39827D01*
X19401Y-39751D01*
X19363Y-39713D01*
X19287Y-39675D01*
X20202Y-40132D02*
X19744Y-40132D01*
X19973Y-40132D02*
X19973Y-39332D01*
X19897Y-39446D01*
X19821Y-39522D01*
X19744Y-39560D01*
X20544Y-40132D02*
X20544Y-39598D01*
X20544Y-39675D02*
X20583Y-39637D01*
X20659Y-39598D01*
X20773Y-39598D01*
X20849Y-39637D01*
X20887Y-39713D01*
X20887Y-40132D01*
X20887Y-39713D02*
X20925Y-39637D01*
X21002Y-39598D01*
X21116Y-39598D01*
X21192Y-39637D01*
X21230Y-39713D01*
X21230Y-40132D01*
X21611Y-40132D02*
X21611Y-39598D01*
X21611Y-39675D02*
X21650Y-39637D01*
X21726Y-39598D01*
X21840Y-39598D01*
X21916Y-39637D01*
X21954Y-39713D01*
X21954Y-40132D01*
X21954Y-39713D02*
X21992Y-39637D01*
X22069Y-39598D01*
X22183Y-39598D01*
X22259Y-39637D01*
X22297Y-39713D01*
X22297Y-40132D01*
X23517Y-40437D02*
X23479Y-40398D01*
X23403Y-40284D01*
X23365Y-40208D01*
X23327Y-40094D01*
X23288Y-39903D01*
X23288Y-39751D01*
X23327Y-39560D01*
X23365Y-39446D01*
X23403Y-39370D01*
X23479Y-39256D01*
X23517Y-39218D01*
X23783Y-39408D02*
X23821Y-39370D01*
X23898Y-39332D01*
X24088Y-39332D01*
X24164Y-39370D01*
X24202Y-39408D01*
X24241Y-39484D01*
X24241Y-39560D01*
X24202Y-39675D01*
X23745Y-40132D01*
X24241Y-40132D01*
X24926Y-39332D02*
X24774Y-39332D01*
X24698Y-39370D01*
X24660Y-39408D01*
X24583Y-39522D01*
X24545Y-39675D01*
X24545Y-39979D01*
X24583Y-40056D01*
X24622Y-40094D01*
X24698Y-40132D01*
X24850Y-40132D01*
X24926Y-40094D01*
X24964Y-40056D01*
X25003Y-39979D01*
X25003Y-39789D01*
X24964Y-39713D01*
X24926Y-39675D01*
X24850Y-39637D01*
X24698Y-39637D01*
X24622Y-39675D01*
X24583Y-39713D01*
X24545Y-39789D01*
X25955Y-40132D02*
X25955Y-39332D01*
X26298Y-40132D02*
X26298Y-39713D01*
X26260Y-39637D01*
X26184Y-39598D01*
X26070Y-39598D01*
X25994Y-39637D01*
X25955Y-39675D01*
X26794Y-40132D02*
X26718Y-40094D01*
X26679Y-40056D01*
X26641Y-39979D01*
X26641Y-39751D01*
X26679Y-39675D01*
X26718Y-39637D01*
X26794Y-39598D01*
X26908Y-39598D01*
X26984Y-39637D01*
X27022Y-39675D01*
X27060Y-39751D01*
X27060Y-39979D01*
X27022Y-40056D01*
X26984Y-40094D01*
X26908Y-40132D01*
X26794Y-40132D01*
X27518Y-40132D02*
X27442Y-40094D01*
X27403Y-40018D01*
X27403Y-39332D01*
X28127Y-40094D02*
X28051Y-40132D01*
X27899Y-40132D01*
X27822Y-40094D01*
X27784Y-40018D01*
X27784Y-39713D01*
X27822Y-39637D01*
X27899Y-39598D01*
X28051Y-39598D01*
X28127Y-39637D01*
X28165Y-39713D01*
X28165Y-39789D01*
X27784Y-39865D01*
X28470Y-40094D02*
X28547Y-40132D01*
X28699Y-40132D01*
X28775Y-40094D01*
X28813Y-40018D01*
X28813Y-39979D01*
X28775Y-39903D01*
X28699Y-39865D01*
X28585Y-39865D01*
X28508Y-39827D01*
X28470Y-39751D01*
X28470Y-39713D01*
X28508Y-39637D01*
X28585Y-39598D01*
X28699Y-39598D01*
X28775Y-39637D01*
X29080Y-40437D02*
X29118Y-40398D01*
X29195Y-40284D01*
X29233Y-40208D01*
X29271Y-40094D01*
X29309Y-39903D01*
X29309Y-39751D01*
X29271Y-39560D01*
X29233Y-39446D01*
X29195Y-39370D01*
X29118Y-39256D01*
X29080Y-39218D01*
G54D10*
X11390Y-40863D02*
X11386Y-40901D01*
X11374Y-40939D01*
X11356Y-40973D01*
X11331Y-41003D01*
X11301Y-41028D01*
X11267Y-41047D01*
X11230Y-41058D01*
X11191Y-41062D01*
X11153Y-41059D01*
X11116Y-41048D01*
X11081Y-41030D01*
X11051Y-41005D01*
X11025Y-40975D01*
X11007Y-40941D01*
X10995Y-40904D01*
X10991Y-40865D01*
X10994Y-40827D01*
X11005Y-40790D01*
X11022Y-40755D01*
X11047Y-40725D01*
X11076Y-40699D01*
X11110Y-40680D01*
X11148Y-40668D01*
X11186Y-40664D01*
X11224Y-40667D01*
X11262Y-40677D01*
X11297Y-40695D01*
X11327Y-40719D01*
X11353Y-40748D01*
X11372Y-40782D01*
X11385Y-40819D01*
X11389Y-40858D01*
X11390Y-40863D01*
X10990Y-40663D02*
X11390Y-41063D01*
X11390Y-40663D02*
X10990Y-41063D01*
G54D12*
X11933Y-40387D02*
X12009Y-40387D01*
X12085Y-40425D01*
X12123Y-40463D01*
X12161Y-40539D01*
X12200Y-40692D01*
X12200Y-40882D01*
X12161Y-41034D01*
X12123Y-41111D01*
X12085Y-41149D01*
X12009Y-41187D01*
X11933Y-41187D01*
X11857Y-41149D01*
X11819Y-41111D01*
X11780Y-41034D01*
X11742Y-40882D01*
X11742Y-40692D01*
X11780Y-40539D01*
X11819Y-40463D01*
X11857Y-40425D01*
X11933Y-40387D01*
X12542Y-41111D02*
X12581Y-41149D01*
X12542Y-41187D01*
X12504Y-41149D01*
X12542Y-41111D01*
X12542Y-41187D01*
X13076Y-40387D02*
X13152Y-40387D01*
X13228Y-40425D01*
X13266Y-40463D01*
X13304Y-40539D01*
X13343Y-40692D01*
X13343Y-40882D01*
X13304Y-41034D01*
X13266Y-41111D01*
X13228Y-41149D01*
X13152Y-41187D01*
X13076Y-41187D01*
X13000Y-41149D01*
X12962Y-41111D01*
X12923Y-41034D01*
X12885Y-40882D01*
X12885Y-40692D01*
X12923Y-40539D01*
X12962Y-40463D01*
X13000Y-40425D01*
X13076Y-40387D01*
X14028Y-40653D02*
X14028Y-41187D01*
X13838Y-40349D02*
X13647Y-40920D01*
X14143Y-40920D01*
X14600Y-40387D02*
X14676Y-40387D01*
X14752Y-40425D01*
X14790Y-40463D01*
X14828Y-40539D01*
X14867Y-40692D01*
X14867Y-40882D01*
X14828Y-41034D01*
X14790Y-41111D01*
X14752Y-41149D01*
X14676Y-41187D01*
X14600Y-41187D01*
X14524Y-41149D01*
X14486Y-41111D01*
X14447Y-41034D01*
X14409Y-40882D01*
X14409Y-40692D01*
X14447Y-40539D01*
X14486Y-40463D01*
X14524Y-40425D01*
X14600Y-40387D01*
X15171Y-40387D02*
X15171Y-40539D01*
X15476Y-40387D02*
X15476Y-40539D01*
X17001Y-40349D02*
X16315Y-41377D01*
X18297Y-41187D02*
X17839Y-41187D01*
X18068Y-41187D02*
X18068Y-40387D01*
X17992Y-40501D01*
X17916Y-40577D01*
X17839Y-40615D01*
X18639Y-41111D02*
X18678Y-41149D01*
X18639Y-41187D01*
X18601Y-41149D01*
X18639Y-41111D01*
X18639Y-41187D01*
X19173Y-40387D02*
X19249Y-40387D01*
X19325Y-40425D01*
X19363Y-40463D01*
X19401Y-40539D01*
X19440Y-40692D01*
X19440Y-40882D01*
X19401Y-41034D01*
X19363Y-41111D01*
X19325Y-41149D01*
X19249Y-41187D01*
X19173Y-41187D01*
X19097Y-41149D01*
X19059Y-41111D01*
X19020Y-41034D01*
X18982Y-40882D01*
X18982Y-40692D01*
X19020Y-40539D01*
X19059Y-40463D01*
X19097Y-40425D01*
X19173Y-40387D01*
X19744Y-40463D02*
X19782Y-40425D01*
X19859Y-40387D01*
X20049Y-40387D01*
X20125Y-40425D01*
X20163Y-40463D01*
X20202Y-40539D01*
X20202Y-40615D01*
X20163Y-40730D01*
X19706Y-41187D01*
X20202Y-41187D01*
X20544Y-41187D02*
X20544Y-40653D01*
X20544Y-40730D02*
X20583Y-40692D01*
X20659Y-40653D01*
X20773Y-40653D01*
X20849Y-40692D01*
X20887Y-40768D01*
X20887Y-41187D01*
X20887Y-40768D02*
X20925Y-40692D01*
X21002Y-40653D01*
X21116Y-40653D01*
X21192Y-40692D01*
X21230Y-40768D01*
X21230Y-41187D01*
X21611Y-41187D02*
X21611Y-40653D01*
X21611Y-40730D02*
X21650Y-40692D01*
X21726Y-40653D01*
X21840Y-40653D01*
X21916Y-40692D01*
X21954Y-40768D01*
X21954Y-41187D01*
X21954Y-40768D02*
X21992Y-40692D01*
X22069Y-40653D01*
X22183Y-40653D01*
X22259Y-40692D01*
X22297Y-40768D01*
X22297Y-41187D01*
X23517Y-41492D02*
X23479Y-41453D01*
X23403Y-41339D01*
X23365Y-41263D01*
X23327Y-41149D01*
X23288Y-40958D01*
X23288Y-40806D01*
X23327Y-40615D01*
X23365Y-40501D01*
X23403Y-40425D01*
X23479Y-40311D01*
X23517Y-40273D01*
X24241Y-41187D02*
X23783Y-41187D01*
X24012Y-41187D02*
X24012Y-40387D01*
X23936Y-40501D01*
X23860Y-40577D01*
X23783Y-40615D01*
X24736Y-40387D02*
X24812Y-40387D01*
X24888Y-40425D01*
X24926Y-40463D01*
X24964Y-40539D01*
X25003Y-40692D01*
X25003Y-40882D01*
X24964Y-41034D01*
X24926Y-41111D01*
X24888Y-41149D01*
X24812Y-41187D01*
X24736Y-41187D01*
X24660Y-41149D01*
X24622Y-41111D01*
X24583Y-41034D01*
X24545Y-40882D01*
X24545Y-40692D01*
X24583Y-40539D01*
X24622Y-40463D01*
X24660Y-40425D01*
X24736Y-40387D01*
X25955Y-41187D02*
X25955Y-40387D01*
X26298Y-41187D02*
X26298Y-40768D01*
X26260Y-40692D01*
X26184Y-40653D01*
X26070Y-40653D01*
X25994Y-40692D01*
X25955Y-40730D01*
X26794Y-41187D02*
X26718Y-41149D01*
X26679Y-41111D01*
X26641Y-41034D01*
X26641Y-40806D01*
X26679Y-40730D01*
X26718Y-40692D01*
X26794Y-40653D01*
X26908Y-40653D01*
X26984Y-40692D01*
X27022Y-40730D01*
X27060Y-40806D01*
X27060Y-41034D01*
X27022Y-41111D01*
X26984Y-41149D01*
X26908Y-41187D01*
X26794Y-41187D01*
X27518Y-41187D02*
X27442Y-41149D01*
X27403Y-41073D01*
X27403Y-40387D01*
X28127Y-41149D02*
X28051Y-41187D01*
X27899Y-41187D01*
X27822Y-41149D01*
X27784Y-41073D01*
X27784Y-40768D01*
X27822Y-40692D01*
X27899Y-40653D01*
X28051Y-40653D01*
X28127Y-40692D01*
X28165Y-40768D01*
X28165Y-40844D01*
X27784Y-40920D01*
X28470Y-41149D02*
X28547Y-41187D01*
X28699Y-41187D01*
X28775Y-41149D01*
X28813Y-41073D01*
X28813Y-41034D01*
X28775Y-40958D01*
X28699Y-40920D01*
X28585Y-40920D01*
X28508Y-40882D01*
X28470Y-40806D01*
X28470Y-40768D01*
X28508Y-40692D01*
X28585Y-40653D01*
X28699Y-40653D01*
X28775Y-40692D01*
X29080Y-41492D02*
X29118Y-41453D01*
X29195Y-41339D01*
X29233Y-41263D01*
X29271Y-41149D01*
X29309Y-40958D01*
X29309Y-40806D01*
X29271Y-40615D01*
X29233Y-40501D01*
X29195Y-40425D01*
X29118Y-40311D01*
X29080Y-40273D01*
G54D10*
X11390Y-41918D02*
X11380Y-42013D01*
X11352Y-42105D01*
X11307Y-42190D01*
X11247Y-42264D01*
X11173Y-42325D01*
X11088Y-42371D01*
X10996Y-42399D01*
X10901Y-42409D01*
X10806Y-42401D01*
X10714Y-42374D01*
X10629Y-42329D01*
X10554Y-42269D01*
X10493Y-42195D01*
X10446Y-42111D01*
X10417Y-42020D01*
X10407Y-41924D01*
X10415Y-41830D01*
X10441Y-41737D01*
X10485Y-41652D01*
X10545Y-41577D01*
X10618Y-41514D01*
X10702Y-41468D01*
X10793Y-41438D01*
X10888Y-41427D01*
X10983Y-41434D01*
X11075Y-41460D01*
X11161Y-41503D01*
X11237Y-41562D01*
X11300Y-41635D01*
X11347Y-41718D01*
X11377Y-41809D01*
X11389Y-41905D01*
X11390Y-41918D01*
X10406Y-41918D02*
X11390Y-41918D01*
G54D12*
X11933Y-41442D02*
X12009Y-41442D01*
X12085Y-41480D01*
X12123Y-41518D01*
X12161Y-41594D01*
X12200Y-41747D01*
X12200Y-41937D01*
X12161Y-42089D01*
X12123Y-42166D01*
X12085Y-42204D01*
X12009Y-42242D01*
X11933Y-42242D01*
X11857Y-42204D01*
X11819Y-42166D01*
X11780Y-42089D01*
X11742Y-41937D01*
X11742Y-41747D01*
X11780Y-41594D01*
X11819Y-41518D01*
X11857Y-41480D01*
X11933Y-41442D01*
X12542Y-42166D02*
X12581Y-42204D01*
X12542Y-42242D01*
X12504Y-42204D01*
X12542Y-42166D01*
X12542Y-42242D01*
X13076Y-41442D02*
X13152Y-41442D01*
X13228Y-41480D01*
X13266Y-41518D01*
X13304Y-41594D01*
X13343Y-41747D01*
X13343Y-41937D01*
X13304Y-42089D01*
X13266Y-42166D01*
X13228Y-42204D01*
X13152Y-42242D01*
X13076Y-42242D01*
X13000Y-42204D01*
X12962Y-42166D01*
X12923Y-42089D01*
X12885Y-41937D01*
X12885Y-41747D01*
X12923Y-41594D01*
X12962Y-41518D01*
X13000Y-41480D01*
X13076Y-41442D01*
X13724Y-42242D02*
X13876Y-42242D01*
X13952Y-42204D01*
X13990Y-42166D01*
X14066Y-42051D01*
X14105Y-41899D01*
X14105Y-41594D01*
X14066Y-41518D01*
X14028Y-41480D01*
X13952Y-41442D01*
X13800Y-41442D01*
X13724Y-41480D01*
X13685Y-41518D01*
X13647Y-41594D01*
X13647Y-41785D01*
X13685Y-41861D01*
X13724Y-41899D01*
X13800Y-41937D01*
X13952Y-41937D01*
X14028Y-41899D01*
X14066Y-41861D01*
X14105Y-41785D01*
X14562Y-41785D02*
X14486Y-41747D01*
X14447Y-41708D01*
X14409Y-41632D01*
X14409Y-41594D01*
X14447Y-41518D01*
X14486Y-41480D01*
X14562Y-41442D01*
X14714Y-41442D01*
X14790Y-41480D01*
X14828Y-41518D01*
X14867Y-41594D01*
X14867Y-41632D01*
X14828Y-41708D01*
X14790Y-41747D01*
X14714Y-41785D01*
X14562Y-41785D01*
X14486Y-41823D01*
X14447Y-41861D01*
X14409Y-41937D01*
X14409Y-42089D01*
X14447Y-42166D01*
X14486Y-42204D01*
X14562Y-42242D01*
X14714Y-42242D01*
X14790Y-42204D01*
X14828Y-42166D01*
X14867Y-42089D01*
X14867Y-41937D01*
X14828Y-41861D01*
X14790Y-41823D01*
X14714Y-41785D01*
X15171Y-41442D02*
X15171Y-41594D01*
X15476Y-41442D02*
X15476Y-41594D01*
X17001Y-41404D02*
X16315Y-42432D01*
X17839Y-41518D02*
X17877Y-41480D01*
X17954Y-41442D01*
X18144Y-41442D01*
X18220Y-41480D01*
X18258Y-41518D01*
X18297Y-41594D01*
X18297Y-41670D01*
X18258Y-41785D01*
X17801Y-42242D01*
X18297Y-42242D01*
X18639Y-42166D02*
X18678Y-42204D01*
X18639Y-42242D01*
X18601Y-42204D01*
X18639Y-42166D01*
X18639Y-42242D01*
X19401Y-41442D02*
X19020Y-41442D01*
X18982Y-41823D01*
X19020Y-41785D01*
X19097Y-41747D01*
X19287Y-41747D01*
X19363Y-41785D01*
X19401Y-41823D01*
X19440Y-41899D01*
X19440Y-42089D01*
X19401Y-42166D01*
X19363Y-42204D01*
X19287Y-42242D01*
X19097Y-42242D01*
X19020Y-42204D01*
X18982Y-42166D01*
X19935Y-41442D02*
X20011Y-41442D01*
X20087Y-41480D01*
X20125Y-41518D01*
X20163Y-41594D01*
X20202Y-41747D01*
X20202Y-41937D01*
X20163Y-42089D01*
X20125Y-42166D01*
X20087Y-42204D01*
X20011Y-42242D01*
X19935Y-42242D01*
X19859Y-42204D01*
X19821Y-42166D01*
X19782Y-42089D01*
X19744Y-41937D01*
X19744Y-41747D01*
X19782Y-41594D01*
X19821Y-41518D01*
X19859Y-41480D01*
X19935Y-41442D01*
X20544Y-42242D02*
X20544Y-41708D01*
X20544Y-41785D02*
X20583Y-41747D01*
X20659Y-41708D01*
X20773Y-41708D01*
X20849Y-41747D01*
X20887Y-41823D01*
X20887Y-42242D01*
X20887Y-41823D02*
X20925Y-41747D01*
X21002Y-41708D01*
X21116Y-41708D01*
X21192Y-41747D01*
X21230Y-41823D01*
X21230Y-42242D01*
X21611Y-42242D02*
X21611Y-41708D01*
X21611Y-41785D02*
X21650Y-41747D01*
X21726Y-41708D01*
X21840Y-41708D01*
X21916Y-41747D01*
X21954Y-41823D01*
X21954Y-42242D01*
X21954Y-41823D02*
X21992Y-41747D01*
X22069Y-41708D01*
X22183Y-41708D01*
X22259Y-41747D01*
X22297Y-41823D01*
X22297Y-42242D01*
X23517Y-42547D02*
X23479Y-42508D01*
X23403Y-42394D01*
X23365Y-42318D01*
X23327Y-42204D01*
X23288Y-42013D01*
X23288Y-41861D01*
X23327Y-41670D01*
X23365Y-41556D01*
X23403Y-41480D01*
X23479Y-41366D01*
X23517Y-41328D01*
X24202Y-41442D02*
X23821Y-41442D01*
X23783Y-41823D01*
X23821Y-41785D01*
X23898Y-41747D01*
X24088Y-41747D01*
X24164Y-41785D01*
X24202Y-41823D01*
X24241Y-41899D01*
X24241Y-42089D01*
X24202Y-42166D01*
X24164Y-42204D01*
X24088Y-42242D01*
X23898Y-42242D01*
X23821Y-42204D01*
X23783Y-42166D01*
X25193Y-42242D02*
X25193Y-41442D01*
X25536Y-42242D02*
X25536Y-41823D01*
X25498Y-41747D01*
X25422Y-41708D01*
X25308Y-41708D01*
X25232Y-41747D01*
X25193Y-41785D01*
X26032Y-42242D02*
X25956Y-42204D01*
X25917Y-42166D01*
X25879Y-42089D01*
X25879Y-41861D01*
X25917Y-41785D01*
X25956Y-41747D01*
X26032Y-41708D01*
X26146Y-41708D01*
X26222Y-41747D01*
X26260Y-41785D01*
X26298Y-41861D01*
X26298Y-42089D01*
X26260Y-42166D01*
X26222Y-42204D01*
X26146Y-42242D01*
X26032Y-42242D01*
X26756Y-42242D02*
X26680Y-42204D01*
X26641Y-42128D01*
X26641Y-41442D01*
X27365Y-42204D02*
X27289Y-42242D01*
X27137Y-42242D01*
X27060Y-42204D01*
X27022Y-42128D01*
X27022Y-41823D01*
X27060Y-41747D01*
X27137Y-41708D01*
X27289Y-41708D01*
X27365Y-41747D01*
X27403Y-41823D01*
X27403Y-41899D01*
X27022Y-41975D01*
X27708Y-42204D02*
X27785Y-42242D01*
X27937Y-42242D01*
X28013Y-42204D01*
X28051Y-42128D01*
X28051Y-42089D01*
X28013Y-42013D01*
X27937Y-41975D01*
X27823Y-41975D01*
X27746Y-41937D01*
X27708Y-41861D01*
X27708Y-41823D01*
X27746Y-41747D01*
X27823Y-41708D01*
X27937Y-41708D01*
X28013Y-41747D01*
X28318Y-42547D02*
X28356Y-42508D01*
X28433Y-42394D01*
X28471Y-42318D01*
X28509Y-42204D01*
X28547Y-42013D01*
X28547Y-41861D01*
X28509Y-41670D01*
X28471Y-41556D01*
X28433Y-41480D01*
X28356Y-41366D01*
X28318Y-41328D01*
G54D10*
X11390Y-43182D02*
X11378Y-43298D01*
X11344Y-43410D01*
X11289Y-43514D01*
X11215Y-43604D01*
X11125Y-43679D01*
X11022Y-43735D01*
X10910Y-43769D01*
X10794Y-43781D01*
X10678Y-43771D01*
X10566Y-43738D01*
X10462Y-43684D01*
X10371Y-43610D01*
X10295Y-43520D01*
X10239Y-43418D01*
X10204Y-43306D01*
X10191Y-43190D01*
X10200Y-43074D01*
X10233Y-42962D01*
X10286Y-42857D01*
X10359Y-42766D01*
X10448Y-42690D01*
X10550Y-42633D01*
X10662Y-42596D01*
X10778Y-42583D01*
X10894Y-42592D01*
X11006Y-42623D01*
X11111Y-42676D01*
X11203Y-42748D01*
X11280Y-42837D01*
X11338Y-42938D01*
X11375Y-43050D01*
X11389Y-43166D01*
X11390Y-43182D01*
X10790Y-42582D02*
X10790Y-43782D01*
G54D12*
X11933Y-42706D02*
X12009Y-42706D01*
X12085Y-42744D01*
X12123Y-42782D01*
X12161Y-42858D01*
X12200Y-43011D01*
X12200Y-43201D01*
X12161Y-43353D01*
X12123Y-43430D01*
X12085Y-43468D01*
X12009Y-43506D01*
X11933Y-43506D01*
X11857Y-43468D01*
X11819Y-43430D01*
X11780Y-43353D01*
X11742Y-43201D01*
X11742Y-43011D01*
X11780Y-42858D01*
X11819Y-42782D01*
X11857Y-42744D01*
X11933Y-42706D01*
X12542Y-43430D02*
X12581Y-43468D01*
X12542Y-43506D01*
X12504Y-43468D01*
X12542Y-43430D01*
X12542Y-43506D01*
X13343Y-43506D02*
X12885Y-43506D01*
X13114Y-43506D02*
X13114Y-42706D01*
X13038Y-42820D01*
X12962Y-42896D01*
X12885Y-42934D01*
X13647Y-42782D02*
X13685Y-42744D01*
X13762Y-42706D01*
X13952Y-42706D01*
X14028Y-42744D01*
X14066Y-42782D01*
X14105Y-42858D01*
X14105Y-42934D01*
X14066Y-43049D01*
X13609Y-43506D01*
X14105Y-43506D01*
X14600Y-42706D02*
X14676Y-42706D01*
X14752Y-42744D01*
X14790Y-42782D01*
X14828Y-42858D01*
X14867Y-43011D01*
X14867Y-43201D01*
X14828Y-43353D01*
X14790Y-43430D01*
X14752Y-43468D01*
X14676Y-43506D01*
X14600Y-43506D01*
X14524Y-43468D01*
X14486Y-43430D01*
X14447Y-43353D01*
X14409Y-43201D01*
X14409Y-43011D01*
X14447Y-42858D01*
X14486Y-42782D01*
X14524Y-42744D01*
X14600Y-42706D01*
X15171Y-42706D02*
X15171Y-42858D01*
X15476Y-42706D02*
X15476Y-42858D01*
X17001Y-42668D02*
X16315Y-43696D01*
X17801Y-42706D02*
X18297Y-42706D01*
X18030Y-43011D01*
X18144Y-43011D01*
X18220Y-43049D01*
X18258Y-43087D01*
X18297Y-43163D01*
X18297Y-43353D01*
X18258Y-43430D01*
X18220Y-43468D01*
X18144Y-43506D01*
X17916Y-43506D01*
X17839Y-43468D01*
X17801Y-43430D01*
X18639Y-43430D02*
X18678Y-43468D01*
X18639Y-43506D01*
X18601Y-43468D01*
X18639Y-43430D01*
X18639Y-43506D01*
X19173Y-42706D02*
X19249Y-42706D01*
X19325Y-42744D01*
X19363Y-42782D01*
X19401Y-42858D01*
X19440Y-43011D01*
X19440Y-43201D01*
X19401Y-43353D01*
X19363Y-43430D01*
X19325Y-43468D01*
X19249Y-43506D01*
X19173Y-43506D01*
X19097Y-43468D01*
X19059Y-43430D01*
X19020Y-43353D01*
X18982Y-43201D01*
X18982Y-43011D01*
X19020Y-42858D01*
X19059Y-42782D01*
X19097Y-42744D01*
X19173Y-42706D01*
X20163Y-42706D02*
X19782Y-42706D01*
X19744Y-43087D01*
X19782Y-43049D01*
X19859Y-43011D01*
X20049Y-43011D01*
X20125Y-43049D01*
X20163Y-43087D01*
X20202Y-43163D01*
X20202Y-43353D01*
X20163Y-43430D01*
X20125Y-43468D01*
X20049Y-43506D01*
X19859Y-43506D01*
X19782Y-43468D01*
X19744Y-43430D01*
X20544Y-43506D02*
X20544Y-42972D01*
X20544Y-43049D02*
X20583Y-43011D01*
X20659Y-42972D01*
X20773Y-42972D01*
X20849Y-43011D01*
X20887Y-43087D01*
X20887Y-43506D01*
X20887Y-43087D02*
X20925Y-43011D01*
X21002Y-42972D01*
X21116Y-42972D01*
X21192Y-43011D01*
X21230Y-43087D01*
X21230Y-43506D01*
X21611Y-43506D02*
X21611Y-42972D01*
X21611Y-43049D02*
X21650Y-43011D01*
X21726Y-42972D01*
X21840Y-42972D01*
X21916Y-43011D01*
X21954Y-43087D01*
X21954Y-43506D01*
X21954Y-43087D02*
X21992Y-43011D01*
X22069Y-42972D01*
X22183Y-42972D01*
X22259Y-43011D01*
X22297Y-43087D01*
X22297Y-43506D01*
X23517Y-43811D02*
X23479Y-43772D01*
X23403Y-43658D01*
X23365Y-43582D01*
X23327Y-43468D01*
X23288Y-43277D01*
X23288Y-43125D01*
X23327Y-42934D01*
X23365Y-42820D01*
X23403Y-42744D01*
X23479Y-42630D01*
X23517Y-42592D01*
X24164Y-42972D02*
X24164Y-43506D01*
X23974Y-42668D02*
X23783Y-43239D01*
X24279Y-43239D01*
X25193Y-43506D02*
X25193Y-42706D01*
X25536Y-43506D02*
X25536Y-43087D01*
X25498Y-43011D01*
X25422Y-42972D01*
X25308Y-42972D01*
X25232Y-43011D01*
X25193Y-43049D01*
X26032Y-43506D02*
X25956Y-43468D01*
X25917Y-43430D01*
X25879Y-43353D01*
X25879Y-43125D01*
X25917Y-43049D01*
X25956Y-43011D01*
X26032Y-42972D01*
X26146Y-42972D01*
X26222Y-43011D01*
X26260Y-43049D01*
X26298Y-43125D01*
X26298Y-43353D01*
X26260Y-43430D01*
X26222Y-43468D01*
X26146Y-43506D01*
X26032Y-43506D01*
X26756Y-43506D02*
X26680Y-43468D01*
X26641Y-43392D01*
X26641Y-42706D01*
X27365Y-43468D02*
X27289Y-43506D01*
X27137Y-43506D01*
X27060Y-43468D01*
X27022Y-43392D01*
X27022Y-43087D01*
X27060Y-43011D01*
X27137Y-42972D01*
X27289Y-42972D01*
X27365Y-43011D01*
X27403Y-43087D01*
X27403Y-43163D01*
X27022Y-43239D01*
X27708Y-43468D02*
X27785Y-43506D01*
X27937Y-43506D01*
X28013Y-43468D01*
X28051Y-43392D01*
X28051Y-43353D01*
X28013Y-43277D01*
X27937Y-43239D01*
X27823Y-43239D01*
X27746Y-43201D01*
X27708Y-43125D01*
X27708Y-43087D01*
X27746Y-43011D01*
X27823Y-42972D01*
X27937Y-42972D01*
X28013Y-43011D01*
X28318Y-43811D02*
X28356Y-43772D01*
X28433Y-43658D01*
X28471Y-43582D01*
X28509Y-43468D01*
X28547Y-43277D01*
X28547Y-43125D01*
X28509Y-42934D01*
X28471Y-42820D01*
X28433Y-42744D01*
X28356Y-42630D01*
X28318Y-42592D01*
M02*
