G04 (created by PCBNEW-RS274X (2012-01-19 BZR 3256)-stable) date Fri 23 Nov 2012 05:25:31 PM NZDT*
G01*
G70*
G90*
%MOIN*%
G04 Gerber Fmt 3.4, Leading zero omitted, Abs format*
%FSLAX34Y34*%
G04 APERTURE LIST*
%ADD10C,0.020000*%
%ADD11C,0.019700*%
G04 APERTURE END LIST*
G54D10*
G54D11*
X16167Y-33349D02*
X16013Y-33209D01*
X15848Y-33083D01*
X15672Y-32972D01*
X15487Y-32876D01*
X15295Y-32797D01*
X15096Y-32736D01*
X14893Y-32691D01*
X14687Y-32665D01*
X14480Y-32657D01*
X14397Y-32658D01*
X75802Y-32654D02*
X75595Y-32656D01*
X75387Y-32676D01*
X75183Y-32714D01*
X74982Y-32769D01*
X74787Y-32842D01*
X74599Y-32932D01*
X74419Y-33038D01*
X74250Y-33159D01*
X74092Y-33294D01*
X74017Y-33366D01*
X16181Y-33366D02*
X73986Y-33366D01*
X78248Y-11909D02*
X11909Y-11909D01*
X13091Y-30610D02*
X14390Y-32657D01*
X77264Y-30610D02*
X75807Y-32657D01*
X77264Y-21161D02*
X77264Y-30610D01*
X78248Y-19980D02*
X77264Y-21161D01*
X13091Y-21161D02*
X13091Y-30610D01*
X11909Y-19980D02*
X13091Y-21161D01*
X11909Y-11909D02*
X11909Y-19980D01*
X78248Y-11909D02*
X78248Y-19980D01*
M02*
