G04 (created by PCBNEW-RS274X (2011-11-27 BZR 3249)-stable) date 15/08/2012 9:50:50 p.m.*
G01*
G70*
G90*
%MOIN*%
G04 Gerber Fmt 3.4, Leading zero omitted, Abs format*
%FSLAX34Y34*%
G04 APERTURE LIST*
%ADD10C,0.006000*%
%ADD11C,0.012000*%
G04 APERTURE END LIST*
G54D10*
G54D11*
X40596Y-18065D02*
X40625Y-18027D01*
X40682Y-17989D01*
X40825Y-17989D01*
X40882Y-18027D01*
X40911Y-18065D01*
X40939Y-18141D01*
X40939Y-18217D01*
X40911Y-18332D01*
X40568Y-18789D01*
X40939Y-18789D01*
X41196Y-18713D02*
X41224Y-18751D01*
X41196Y-18789D01*
X41167Y-18751D01*
X41196Y-18713D01*
X41196Y-18789D01*
X41453Y-18065D02*
X41482Y-18027D01*
X41539Y-17989D01*
X41682Y-17989D01*
X41739Y-18027D01*
X41768Y-18065D01*
X41796Y-18141D01*
X41796Y-18217D01*
X41768Y-18332D01*
X41425Y-18789D01*
X41796Y-18789D01*
X42167Y-17989D02*
X42224Y-17989D01*
X42281Y-18027D01*
X42310Y-18065D01*
X42339Y-18141D01*
X42367Y-18294D01*
X42367Y-18484D01*
X42339Y-18636D01*
X42310Y-18713D01*
X42281Y-18751D01*
X42224Y-18789D01*
X42167Y-18789D01*
X42110Y-18751D01*
X42081Y-18713D01*
X42053Y-18636D01*
X42024Y-18484D01*
X42024Y-18294D01*
X42053Y-18141D01*
X42081Y-18065D01*
X42110Y-18027D01*
X42167Y-17989D01*
X42738Y-17989D02*
X42795Y-17989D01*
X42852Y-18027D01*
X42881Y-18065D01*
X42910Y-18141D01*
X42938Y-18294D01*
X42938Y-18484D01*
X42910Y-18636D01*
X42881Y-18713D01*
X42852Y-18751D01*
X42795Y-18789D01*
X42738Y-18789D01*
X42681Y-18751D01*
X42652Y-18713D01*
X42624Y-18636D01*
X42595Y-18484D01*
X42595Y-18294D01*
X42624Y-18141D01*
X42652Y-18065D01*
X42681Y-18027D01*
X42738Y-17989D01*
X43652Y-18789D02*
X43652Y-18255D01*
X43652Y-18332D02*
X43680Y-18294D01*
X43738Y-18255D01*
X43823Y-18255D01*
X43880Y-18294D01*
X43909Y-18370D01*
X43909Y-18789D01*
X43909Y-18370D02*
X43938Y-18294D01*
X43995Y-18255D01*
X44080Y-18255D01*
X44138Y-18294D01*
X44166Y-18370D01*
X44166Y-18789D01*
X44452Y-18789D02*
X44452Y-18255D01*
X44452Y-18332D02*
X44480Y-18294D01*
X44538Y-18255D01*
X44623Y-18255D01*
X44680Y-18294D01*
X44709Y-18370D01*
X44709Y-18789D01*
X44709Y-18370D02*
X44738Y-18294D01*
X44795Y-18255D01*
X44880Y-18255D01*
X44938Y-18294D01*
X44966Y-18370D01*
X44966Y-18789D01*
X39370Y-18387D02*
X40236Y-18387D01*
X39370Y-18937D02*
X39370Y-17107D01*
X40236Y-18937D02*
X40236Y-17107D01*
X40236Y-18387D02*
X39793Y-18617D01*
X40236Y-18387D02*
X39793Y-18157D01*
X39370Y-18387D02*
X39813Y-18617D01*
X39370Y-18387D02*
X39813Y-18157D01*
X15538Y-28595D02*
X15538Y-28224D01*
X15843Y-28424D01*
X15843Y-28338D01*
X15881Y-28281D01*
X15919Y-28252D01*
X15995Y-28224D01*
X16185Y-28224D01*
X16262Y-28252D01*
X16300Y-28281D01*
X16338Y-28338D01*
X16338Y-28510D01*
X16300Y-28567D01*
X16262Y-28595D01*
X15614Y-27996D02*
X15576Y-27967D01*
X15538Y-27910D01*
X15538Y-27767D01*
X15576Y-27710D01*
X15614Y-27681D01*
X15690Y-27653D01*
X15766Y-27653D01*
X15881Y-27681D01*
X16338Y-28024D01*
X16338Y-27653D01*
X16262Y-27396D02*
X16300Y-27368D01*
X16338Y-27396D01*
X16300Y-27425D01*
X16262Y-27396D01*
X16338Y-27396D01*
X15804Y-26853D02*
X16338Y-26853D01*
X15500Y-26996D02*
X16071Y-27139D01*
X16071Y-26767D01*
X16338Y-26511D02*
X16338Y-26396D01*
X16300Y-26339D01*
X16262Y-26311D01*
X16147Y-26253D01*
X15995Y-26225D01*
X15690Y-26225D01*
X15614Y-26253D01*
X15576Y-26282D01*
X15538Y-26339D01*
X15538Y-26453D01*
X15576Y-26511D01*
X15614Y-26539D01*
X15690Y-26568D01*
X15881Y-26568D01*
X15957Y-26539D01*
X15995Y-26511D01*
X16033Y-26453D01*
X16033Y-26339D01*
X15995Y-26282D01*
X15957Y-26253D01*
X15881Y-26225D01*
X16338Y-25940D02*
X16338Y-25825D01*
X16300Y-25768D01*
X16262Y-25740D01*
X16147Y-25682D01*
X15995Y-25654D01*
X15690Y-25654D01*
X15614Y-25682D01*
X15576Y-25711D01*
X15538Y-25768D01*
X15538Y-25882D01*
X15576Y-25940D01*
X15614Y-25968D01*
X15690Y-25997D01*
X15881Y-25997D01*
X15957Y-25968D01*
X15995Y-25940D01*
X16033Y-25882D01*
X16033Y-25768D01*
X15995Y-25711D01*
X15957Y-25682D01*
X15881Y-25654D01*
X16338Y-24940D02*
X15804Y-24940D01*
X15881Y-24940D02*
X15843Y-24912D01*
X15804Y-24854D01*
X15804Y-24769D01*
X15843Y-24712D01*
X15919Y-24683D01*
X16338Y-24683D01*
X15919Y-24683D02*
X15843Y-24654D01*
X15804Y-24597D01*
X15804Y-24512D01*
X15843Y-24454D01*
X15919Y-24426D01*
X16338Y-24426D01*
X16338Y-24140D02*
X15804Y-24140D01*
X15881Y-24140D02*
X15843Y-24112D01*
X15804Y-24054D01*
X15804Y-23969D01*
X15843Y-23912D01*
X15919Y-23883D01*
X16338Y-23883D01*
X15919Y-23883D02*
X15843Y-23854D01*
X15804Y-23797D01*
X15804Y-23712D01*
X15843Y-23654D01*
X15919Y-23626D01*
X16338Y-23626D01*
X16654Y-32480D02*
X16654Y-19685D01*
X17087Y-32480D02*
X15374Y-32480D01*
X17087Y-19685D02*
X15374Y-19685D01*
X16654Y-19685D02*
X16884Y-20128D01*
X16654Y-19685D02*
X16424Y-20128D01*
X16654Y-32480D02*
X16884Y-32037D01*
X16654Y-32480D02*
X16424Y-32037D01*
X41285Y-24340D02*
X41285Y-23540D01*
X41628Y-24340D01*
X41628Y-23540D01*
X42028Y-23540D02*
X42142Y-23540D01*
X42200Y-23578D01*
X42257Y-23654D01*
X42285Y-23806D01*
X42285Y-24073D01*
X42257Y-24226D01*
X42200Y-24302D01*
X42142Y-24340D01*
X42028Y-24340D01*
X41971Y-24302D01*
X41914Y-24226D01*
X41885Y-24073D01*
X41885Y-23806D01*
X41914Y-23654D01*
X41971Y-23578D01*
X42028Y-23540D01*
X42457Y-23540D02*
X42800Y-23540D01*
X42629Y-24340D02*
X42629Y-23540D01*
X43000Y-23921D02*
X43200Y-23921D01*
X43286Y-24340D02*
X43000Y-24340D01*
X43000Y-23540D01*
X43286Y-23540D01*
X43543Y-24264D02*
X43571Y-24302D01*
X43543Y-24340D01*
X43514Y-24302D01*
X43543Y-24264D01*
X43543Y-24340D01*
X43543Y-23845D02*
X43571Y-23883D01*
X43543Y-23921D01*
X43514Y-23883D01*
X43543Y-23845D01*
X43543Y-23921D01*
X44257Y-24302D02*
X44343Y-24340D01*
X44486Y-24340D01*
X44543Y-24302D01*
X44572Y-24264D01*
X44600Y-24187D01*
X44600Y-24111D01*
X44572Y-24035D01*
X44543Y-23997D01*
X44486Y-23959D01*
X44372Y-23921D01*
X44314Y-23883D01*
X44286Y-23845D01*
X44257Y-23768D01*
X44257Y-23692D01*
X44286Y-23616D01*
X44314Y-23578D01*
X44372Y-23540D01*
X44514Y-23540D01*
X44600Y-23578D01*
X44857Y-24340D02*
X44857Y-23540D01*
X45000Y-23540D01*
X45085Y-23578D01*
X45143Y-23654D01*
X45171Y-23730D01*
X45200Y-23883D01*
X45200Y-23997D01*
X45171Y-24149D01*
X45143Y-24226D01*
X45085Y-24302D01*
X45000Y-24340D01*
X44857Y-24340D01*
X45457Y-24035D02*
X45914Y-24035D01*
X46457Y-24302D02*
X46400Y-24340D01*
X46286Y-24340D01*
X46228Y-24302D01*
X46200Y-24264D01*
X46171Y-24187D01*
X46171Y-23959D01*
X46200Y-23883D01*
X46228Y-23845D01*
X46286Y-23806D01*
X46400Y-23806D01*
X46457Y-23845D01*
X46971Y-24340D02*
X46971Y-23921D01*
X46942Y-23845D01*
X46885Y-23806D01*
X46771Y-23806D01*
X46714Y-23845D01*
X46971Y-24302D02*
X46914Y-24340D01*
X46771Y-24340D01*
X46714Y-24302D01*
X46685Y-24226D01*
X46685Y-24149D01*
X46714Y-24073D01*
X46771Y-24035D01*
X46914Y-24035D01*
X46971Y-23997D01*
X47257Y-24340D02*
X47257Y-23806D01*
X47257Y-23959D02*
X47285Y-23883D01*
X47314Y-23845D01*
X47371Y-23806D01*
X47428Y-23806D01*
X47885Y-24340D02*
X47885Y-23540D01*
X47885Y-24302D02*
X47828Y-24340D01*
X47714Y-24340D01*
X47656Y-24302D01*
X47628Y-24264D01*
X47599Y-24187D01*
X47599Y-23959D01*
X47628Y-23883D01*
X47656Y-23845D01*
X47714Y-23806D01*
X47828Y-23806D01*
X47885Y-23845D01*
X41256Y-25542D02*
X41313Y-25580D01*
X41428Y-25580D01*
X41485Y-25542D01*
X41513Y-25466D01*
X41513Y-25427D01*
X41485Y-25351D01*
X41428Y-25313D01*
X41342Y-25313D01*
X41285Y-25275D01*
X41256Y-25199D01*
X41256Y-25161D01*
X41285Y-25085D01*
X41342Y-25046D01*
X41428Y-25046D01*
X41485Y-25085D01*
X41857Y-25580D02*
X41799Y-25542D01*
X41771Y-25504D01*
X41742Y-25427D01*
X41742Y-25199D01*
X41771Y-25123D01*
X41799Y-25085D01*
X41857Y-25046D01*
X41942Y-25046D01*
X41999Y-25085D01*
X42028Y-25123D01*
X42057Y-25199D01*
X42057Y-25427D01*
X42028Y-25504D01*
X41999Y-25542D01*
X41942Y-25580D01*
X41857Y-25580D01*
X42571Y-25542D02*
X42514Y-25580D01*
X42400Y-25580D01*
X42342Y-25542D01*
X42314Y-25504D01*
X42285Y-25427D01*
X42285Y-25199D01*
X42314Y-25123D01*
X42342Y-25085D01*
X42400Y-25046D01*
X42514Y-25046D01*
X42571Y-25085D01*
X42828Y-25580D02*
X42828Y-24780D01*
X42885Y-25275D02*
X43056Y-25580D01*
X43056Y-25046D02*
X42828Y-25351D01*
X43542Y-25542D02*
X43485Y-25580D01*
X43371Y-25580D01*
X43314Y-25542D01*
X43285Y-25466D01*
X43285Y-25161D01*
X43314Y-25085D01*
X43371Y-25046D01*
X43485Y-25046D01*
X43542Y-25085D01*
X43571Y-25161D01*
X43571Y-25237D01*
X43285Y-25313D01*
X43742Y-25046D02*
X43971Y-25046D01*
X43828Y-24780D02*
X43828Y-25466D01*
X43856Y-25542D01*
X43914Y-25580D01*
X43971Y-25580D01*
X44856Y-25542D02*
X44799Y-25580D01*
X44685Y-25580D01*
X44628Y-25542D01*
X44599Y-25466D01*
X44599Y-25161D01*
X44628Y-25085D01*
X44685Y-25046D01*
X44799Y-25046D01*
X44856Y-25085D01*
X44885Y-25161D01*
X44885Y-25237D01*
X44599Y-25313D01*
X45085Y-25580D02*
X45399Y-25046D01*
X45085Y-25046D02*
X45399Y-25580D01*
X45542Y-25046D02*
X45771Y-25046D01*
X45628Y-24780D02*
X45628Y-25466D01*
X45656Y-25542D01*
X45714Y-25580D01*
X45771Y-25580D01*
X46199Y-25542D02*
X46142Y-25580D01*
X46028Y-25580D01*
X45971Y-25542D01*
X45942Y-25466D01*
X45942Y-25161D01*
X45971Y-25085D01*
X46028Y-25046D01*
X46142Y-25046D01*
X46199Y-25085D01*
X46228Y-25161D01*
X46228Y-25237D01*
X45942Y-25313D01*
X46485Y-25046D02*
X46485Y-25580D01*
X46485Y-25123D02*
X46513Y-25085D01*
X46571Y-25046D01*
X46656Y-25046D01*
X46713Y-25085D01*
X46742Y-25161D01*
X46742Y-25580D01*
X47285Y-25580D02*
X47285Y-24780D01*
X47285Y-25542D02*
X47228Y-25580D01*
X47114Y-25580D01*
X47056Y-25542D01*
X47028Y-25504D01*
X46999Y-25427D01*
X46999Y-25199D01*
X47028Y-25123D01*
X47056Y-25085D01*
X47114Y-25046D01*
X47228Y-25046D01*
X47285Y-25085D01*
X47542Y-25542D02*
X47599Y-25580D01*
X47714Y-25580D01*
X47771Y-25542D01*
X47799Y-25466D01*
X47799Y-25427D01*
X47771Y-25351D01*
X47714Y-25313D01*
X47628Y-25313D01*
X47571Y-25275D01*
X47542Y-25199D01*
X47542Y-25161D01*
X47571Y-25085D01*
X47628Y-25046D01*
X47714Y-25046D01*
X47771Y-25085D01*
X41285Y-26820D02*
X41285Y-26020D01*
X41285Y-26325D02*
X41342Y-26286D01*
X41456Y-26286D01*
X41513Y-26325D01*
X41542Y-26363D01*
X41571Y-26439D01*
X41571Y-26667D01*
X41542Y-26744D01*
X41513Y-26782D01*
X41456Y-26820D01*
X41342Y-26820D01*
X41285Y-26782D01*
X42056Y-26782D02*
X41999Y-26820D01*
X41885Y-26820D01*
X41828Y-26782D01*
X41799Y-26706D01*
X41799Y-26401D01*
X41828Y-26325D01*
X41885Y-26286D01*
X41999Y-26286D01*
X42056Y-26325D01*
X42085Y-26401D01*
X42085Y-26477D01*
X41799Y-26553D01*
X42285Y-26286D02*
X42428Y-26820D01*
X42570Y-26286D02*
X42428Y-26820D01*
X42370Y-27010D01*
X42342Y-27048D01*
X42285Y-27086D01*
X42885Y-26820D02*
X42827Y-26782D01*
X42799Y-26744D01*
X42770Y-26667D01*
X42770Y-26439D01*
X42799Y-26363D01*
X42827Y-26325D01*
X42885Y-26286D01*
X42970Y-26286D01*
X43027Y-26325D01*
X43056Y-26363D01*
X43085Y-26439D01*
X43085Y-26667D01*
X43056Y-26744D01*
X43027Y-26782D01*
X42970Y-26820D01*
X42885Y-26820D01*
X43342Y-26286D02*
X43342Y-26820D01*
X43342Y-26363D02*
X43370Y-26325D01*
X43428Y-26286D01*
X43513Y-26286D01*
X43570Y-26325D01*
X43599Y-26401D01*
X43599Y-26820D01*
X44142Y-26820D02*
X44142Y-26020D01*
X44142Y-26782D02*
X44085Y-26820D01*
X43971Y-26820D01*
X43913Y-26782D01*
X43885Y-26744D01*
X43856Y-26667D01*
X43856Y-26439D01*
X43885Y-26363D01*
X43913Y-26325D01*
X43971Y-26286D01*
X44085Y-26286D01*
X44142Y-26325D01*
X44885Y-26820D02*
X44885Y-26020D01*
X44885Y-26325D02*
X44942Y-26286D01*
X45056Y-26286D01*
X45113Y-26325D01*
X45142Y-26363D01*
X45171Y-26439D01*
X45171Y-26667D01*
X45142Y-26744D01*
X45113Y-26782D01*
X45056Y-26820D01*
X44942Y-26820D01*
X44885Y-26782D01*
X45514Y-26820D02*
X45456Y-26782D01*
X45428Y-26744D01*
X45399Y-26667D01*
X45399Y-26439D01*
X45428Y-26363D01*
X45456Y-26325D01*
X45514Y-26286D01*
X45599Y-26286D01*
X45656Y-26325D01*
X45685Y-26363D01*
X45714Y-26439D01*
X45714Y-26667D01*
X45685Y-26744D01*
X45656Y-26782D01*
X45599Y-26820D01*
X45514Y-26820D01*
X46228Y-26820D02*
X46228Y-26401D01*
X46199Y-26325D01*
X46142Y-26286D01*
X46028Y-26286D01*
X45971Y-26325D01*
X46228Y-26782D02*
X46171Y-26820D01*
X46028Y-26820D01*
X45971Y-26782D01*
X45942Y-26706D01*
X45942Y-26629D01*
X45971Y-26553D01*
X46028Y-26515D01*
X46171Y-26515D01*
X46228Y-26477D01*
X46514Y-26820D02*
X46514Y-26286D01*
X46514Y-26439D02*
X46542Y-26363D01*
X46571Y-26325D01*
X46628Y-26286D01*
X46685Y-26286D01*
X47142Y-26820D02*
X47142Y-26020D01*
X47142Y-26782D02*
X47085Y-26820D01*
X46971Y-26820D01*
X46913Y-26782D01*
X46885Y-26744D01*
X46856Y-26667D01*
X46856Y-26439D01*
X46885Y-26363D01*
X46913Y-26325D01*
X46971Y-26286D01*
X47085Y-26286D01*
X47142Y-26325D01*
X41513Y-28022D02*
X41456Y-28060D01*
X41342Y-28060D01*
X41285Y-28022D01*
X41256Y-27946D01*
X41256Y-27641D01*
X41285Y-27565D01*
X41342Y-27526D01*
X41456Y-27526D01*
X41513Y-27565D01*
X41542Y-27641D01*
X41542Y-27717D01*
X41256Y-27793D01*
X42056Y-28060D02*
X42056Y-27260D01*
X42056Y-28022D02*
X41999Y-28060D01*
X41885Y-28060D01*
X41827Y-28022D01*
X41799Y-27984D01*
X41770Y-27907D01*
X41770Y-27679D01*
X41799Y-27603D01*
X41827Y-27565D01*
X41885Y-27526D01*
X41999Y-27526D01*
X42056Y-27565D01*
X42599Y-27526D02*
X42599Y-28174D01*
X42570Y-28250D01*
X42542Y-28288D01*
X42485Y-28326D01*
X42399Y-28326D01*
X42342Y-28288D01*
X42599Y-28022D02*
X42542Y-28060D01*
X42428Y-28060D01*
X42370Y-28022D01*
X42342Y-27984D01*
X42313Y-27907D01*
X42313Y-27679D01*
X42342Y-27603D01*
X42370Y-27565D01*
X42428Y-27526D01*
X42542Y-27526D01*
X42599Y-27565D01*
X43113Y-28022D02*
X43056Y-28060D01*
X42942Y-28060D01*
X42885Y-28022D01*
X42856Y-27946D01*
X42856Y-27641D01*
X42885Y-27565D01*
X42942Y-27526D01*
X43056Y-27526D01*
X43113Y-27565D01*
X43142Y-27641D01*
X43142Y-27717D01*
X42856Y-27793D01*
X43827Y-27336D02*
X43856Y-27298D01*
X43913Y-27260D01*
X44056Y-27260D01*
X44113Y-27298D01*
X44142Y-27336D01*
X44170Y-27412D01*
X44170Y-27488D01*
X44142Y-27603D01*
X43799Y-28060D01*
X44170Y-28060D01*
X44427Y-27984D02*
X44455Y-28022D01*
X44427Y-28060D01*
X44398Y-28022D01*
X44427Y-27984D01*
X44427Y-28060D01*
X44684Y-27336D02*
X44713Y-27298D01*
X44770Y-27260D01*
X44913Y-27260D01*
X44970Y-27298D01*
X44999Y-27336D01*
X45027Y-27412D01*
X45027Y-27488D01*
X44999Y-27603D01*
X44656Y-28060D01*
X45027Y-28060D01*
X45398Y-27260D02*
X45455Y-27260D01*
X45512Y-27298D01*
X45541Y-27336D01*
X45570Y-27412D01*
X45598Y-27565D01*
X45598Y-27755D01*
X45570Y-27907D01*
X45541Y-27984D01*
X45512Y-28022D01*
X45455Y-28060D01*
X45398Y-28060D01*
X45341Y-28022D01*
X45312Y-27984D01*
X45284Y-27907D01*
X45255Y-27755D01*
X45255Y-27565D01*
X45284Y-27412D01*
X45312Y-27336D01*
X45341Y-27298D01*
X45398Y-27260D01*
X45855Y-28060D02*
X45855Y-27526D01*
X45855Y-27603D02*
X45883Y-27565D01*
X45941Y-27526D01*
X46026Y-27526D01*
X46083Y-27565D01*
X46112Y-27641D01*
X46112Y-28060D01*
X46112Y-27641D02*
X46141Y-27565D01*
X46198Y-27526D01*
X46283Y-27526D01*
X46341Y-27565D01*
X46369Y-27641D01*
X46369Y-28060D01*
X46655Y-28060D02*
X46655Y-27526D01*
X46655Y-27603D02*
X46683Y-27565D01*
X46741Y-27526D01*
X46826Y-27526D01*
X46883Y-27565D01*
X46912Y-27641D01*
X46912Y-28060D01*
X46912Y-27641D02*
X46941Y-27565D01*
X46998Y-27526D01*
X47083Y-27526D01*
X47141Y-27565D01*
X47169Y-27641D01*
X47169Y-28060D01*
X27357Y-33531D02*
X27071Y-33531D01*
X27042Y-33912D01*
X27071Y-33874D01*
X27128Y-33836D01*
X27271Y-33836D01*
X27328Y-33874D01*
X27357Y-33912D01*
X27385Y-33988D01*
X27385Y-34178D01*
X27357Y-34255D01*
X27328Y-34293D01*
X27271Y-34331D01*
X27128Y-34331D01*
X27071Y-34293D01*
X27042Y-34255D01*
X27756Y-33531D02*
X27813Y-33531D01*
X27870Y-33569D01*
X27899Y-33607D01*
X27928Y-33683D01*
X27956Y-33836D01*
X27956Y-34026D01*
X27928Y-34178D01*
X27899Y-34255D01*
X27870Y-34293D01*
X27813Y-34331D01*
X27756Y-34331D01*
X27699Y-34293D01*
X27670Y-34255D01*
X27642Y-34178D01*
X27613Y-34026D01*
X27613Y-33836D01*
X27642Y-33683D01*
X27670Y-33607D01*
X27699Y-33569D01*
X27756Y-33531D01*
X28213Y-34255D02*
X28241Y-34293D01*
X28213Y-34331D01*
X28184Y-34293D01*
X28213Y-34255D01*
X28213Y-34331D01*
X28613Y-33531D02*
X28670Y-33531D01*
X28727Y-33569D01*
X28756Y-33607D01*
X28785Y-33683D01*
X28813Y-33836D01*
X28813Y-34026D01*
X28785Y-34178D01*
X28756Y-34255D01*
X28727Y-34293D01*
X28670Y-34331D01*
X28613Y-34331D01*
X28556Y-34293D01*
X28527Y-34255D01*
X28499Y-34178D01*
X28470Y-34026D01*
X28470Y-33836D01*
X28499Y-33683D01*
X28527Y-33607D01*
X28556Y-33569D01*
X28613Y-33531D01*
X29184Y-33531D02*
X29241Y-33531D01*
X29298Y-33569D01*
X29327Y-33607D01*
X29356Y-33683D01*
X29384Y-33836D01*
X29384Y-34026D01*
X29356Y-34178D01*
X29327Y-34255D01*
X29298Y-34293D01*
X29241Y-34331D01*
X29184Y-34331D01*
X29127Y-34293D01*
X29098Y-34255D01*
X29070Y-34178D01*
X29041Y-34026D01*
X29041Y-33836D01*
X29070Y-33683D01*
X29098Y-33607D01*
X29127Y-33569D01*
X29184Y-33531D01*
X29755Y-33531D02*
X29812Y-33531D01*
X29869Y-33569D01*
X29898Y-33607D01*
X29927Y-33683D01*
X29955Y-33836D01*
X29955Y-34026D01*
X29927Y-34178D01*
X29898Y-34255D01*
X29869Y-34293D01*
X29812Y-34331D01*
X29755Y-34331D01*
X29698Y-34293D01*
X29669Y-34255D01*
X29641Y-34178D01*
X29612Y-34026D01*
X29612Y-33836D01*
X29641Y-33683D01*
X29669Y-33607D01*
X29698Y-33569D01*
X29755Y-33531D01*
X30669Y-34331D02*
X30669Y-33797D01*
X30669Y-33874D02*
X30697Y-33836D01*
X30755Y-33797D01*
X30840Y-33797D01*
X30897Y-33836D01*
X30926Y-33912D01*
X30926Y-34331D01*
X30926Y-33912D02*
X30955Y-33836D01*
X31012Y-33797D01*
X31097Y-33797D01*
X31155Y-33836D01*
X31183Y-33912D01*
X31183Y-34331D01*
X31469Y-34331D02*
X31469Y-33797D01*
X31469Y-33874D02*
X31497Y-33836D01*
X31555Y-33797D01*
X31640Y-33797D01*
X31697Y-33836D01*
X31726Y-33912D01*
X31726Y-34331D01*
X31726Y-33912D02*
X31755Y-33836D01*
X31812Y-33797D01*
X31897Y-33797D01*
X31955Y-33836D01*
X31983Y-33912D01*
X31983Y-34331D01*
X19685Y-34647D02*
X39370Y-34647D01*
X19685Y-35433D02*
X19685Y-33367D01*
X39370Y-35433D02*
X39370Y-33367D01*
X39370Y-34647D02*
X38927Y-34877D01*
X39370Y-34647D02*
X38927Y-34417D01*
X19685Y-34647D02*
X20128Y-34877D01*
X19685Y-34647D02*
X20128Y-34417D01*
M02*
