G04 (created by PCBNEW-RS274X (2010-05-05 BZR 2356)-stable) date 4/07/2011 8:20:50 p.m.*
G01*
G70*
G90*
%MOIN*%
G04 Gerber Fmt 3.4, Leading zero omitted, Abs format*
%FSLAX34Y34*%
G04 APERTURE LIST*
%ADD10C,0.006000*%
%ADD11C,0.015000*%
%ADD12O,0.118100X0.059100*%
%ADD13R,0.118100X0.059100*%
%ADD14R,0.059100X0.039400*%
%ADD15R,0.086600X0.047200*%
%ADD16R,0.248000X0.055100*%
%ADD17R,0.078700X0.039400*%
%ADD18R,0.098400X0.039400*%
%ADD19R,0.078700X0.078700*%
%ADD20C,0.078700*%
%ADD21R,0.025000X0.031500*%
%ADD22R,0.031500X0.025000*%
%ADD23R,0.055000X0.035000*%
%ADD24R,0.045000X0.020000*%
%ADD25C,0.035000*%
%ADD26C,0.008000*%
%ADD27C,0.010000*%
G04 APERTURE END LIST*
G54D10*
G54D11*
X39291Y-32323D02*
X39291Y-19764D01*
X19685Y-32362D02*
X39291Y-32362D01*
X19685Y-19763D02*
X19685Y-32362D01*
X39291Y-19763D02*
X19685Y-19763D01*
G54D12*
X21102Y-25078D03*
X21102Y-25865D03*
G54D13*
X21102Y-26653D03*
G54D12*
X21102Y-24291D03*
X21102Y-23503D03*
X21102Y-22716D03*
X21102Y-21929D03*
X21102Y-21142D03*
G54D14*
X28465Y-26501D03*
X28465Y-27485D03*
X28465Y-28470D03*
X28465Y-29424D03*
X28465Y-30094D03*
X28465Y-31412D03*
X28465Y-25832D03*
X28465Y-25182D03*
X28465Y-22564D03*
X28465Y-23548D03*
X28465Y-24533D03*
G54D15*
X36762Y-20586D03*
X37205Y-31609D03*
G54D16*
X33229Y-31767D03*
G54D17*
X32795Y-22564D03*
G54D18*
X31673Y-23548D03*
G54D17*
X31998Y-24454D03*
G54D19*
X31959Y-25507D03*
G54D17*
X31998Y-26511D03*
X31939Y-27495D03*
X31919Y-28470D03*
X31929Y-29444D03*
X31929Y-30123D03*
G54D20*
X38032Y-31019D03*
X38032Y-21491D03*
G54D21*
X23842Y-20786D03*
X23242Y-20786D03*
X26944Y-23267D03*
X27544Y-23267D03*
X25684Y-24527D03*
X26284Y-24527D03*
X25684Y-27480D03*
X26284Y-27480D03*
G54D22*
X23031Y-22897D03*
X23031Y-22297D03*
G54D21*
X26314Y-28464D03*
X26914Y-28464D03*
X26314Y-25236D03*
X26914Y-25236D03*
X26826Y-20630D03*
X27426Y-20630D03*
X27042Y-30114D03*
X27642Y-30114D03*
G54D22*
X27386Y-26473D03*
X27386Y-25873D03*
G54D21*
X27544Y-24015D03*
X26944Y-24015D03*
X24502Y-20786D03*
X25102Y-20786D03*
G54D23*
X27283Y-21396D03*
X27283Y-22146D03*
G54D24*
X23792Y-23072D03*
X25892Y-23072D03*
X23792Y-22572D03*
X23792Y-22072D03*
X23792Y-21572D03*
X25892Y-22572D03*
X25892Y-22072D03*
X25892Y-21572D03*
G54D25*
X24055Y-24645D03*
X24055Y-26338D03*
X23110Y-25472D03*
X26260Y-20630D03*
X29764Y-21142D03*
X25709Y-20748D03*
X31417Y-20236D03*
X29764Y-20236D03*
X29645Y-31495D03*
X31260Y-31495D03*
X35669Y-31495D03*
X37992Y-28188D03*
X37992Y-26023D03*
X37992Y-24015D03*
X35433Y-20629D03*
X22638Y-20236D03*
X23701Y-20236D03*
X20984Y-31495D03*
X20118Y-31496D03*
X20118Y-28661D03*
X20118Y-30118D03*
X22559Y-31495D03*
X29330Y-25866D03*
X29409Y-28464D03*
X25039Y-22126D03*
G54D26*
X22428Y-22297D02*
X23031Y-22297D01*
X22009Y-22716D02*
X22428Y-22297D01*
X22968Y-22360D02*
X23031Y-22297D01*
X23031Y-22297D02*
X22819Y-22297D01*
X23031Y-22297D02*
X23031Y-22281D01*
X23240Y-22072D02*
X23792Y-22072D01*
X23031Y-22281D02*
X23240Y-22072D01*
X21102Y-22716D02*
X22009Y-22716D01*
X21102Y-21929D02*
X22205Y-21929D01*
X22562Y-21572D02*
X23792Y-21572D01*
X22205Y-21929D02*
X22562Y-21572D01*
X23502Y-21572D02*
X23792Y-21572D01*
X23791Y-21573D02*
X23792Y-21572D01*
X23242Y-20786D02*
X23242Y-21312D01*
X23791Y-21573D02*
X23792Y-21572D01*
X23242Y-21312D02*
X23502Y-21572D01*
X21102Y-23503D02*
X23269Y-23502D01*
X23269Y-23502D02*
X23861Y-24094D01*
X23861Y-24094D02*
X26062Y-24094D01*
X26062Y-24094D02*
X26889Y-23267D01*
X26889Y-23267D02*
X26944Y-23267D01*
X25881Y-29424D02*
X28465Y-29424D01*
X24055Y-27598D02*
X25881Y-29424D01*
X23622Y-24645D02*
X24055Y-24645D01*
X23267Y-24290D02*
X23622Y-24645D01*
X24055Y-26338D02*
X24055Y-27598D01*
X21102Y-24291D02*
X23267Y-24290D01*
X25134Y-25077D02*
X25684Y-24527D01*
X21102Y-25078D02*
X25134Y-25077D01*
X24803Y-27205D02*
X25078Y-27480D01*
X21102Y-25865D02*
X24486Y-25864D01*
X24803Y-26181D02*
X24803Y-27205D01*
X25078Y-27480D02*
X25684Y-27480D01*
X24486Y-25864D02*
X24803Y-26181D01*
X26260Y-20630D02*
X26260Y-20552D01*
X24134Y-20511D02*
X24134Y-20786D01*
X24330Y-20315D02*
X24134Y-20511D01*
X26023Y-20315D02*
X24330Y-20315D01*
X26260Y-20552D02*
X26023Y-20315D01*
X25393Y-25472D02*
X23110Y-25472D01*
X27370Y-26457D02*
X27386Y-26473D01*
X26378Y-26457D02*
X27370Y-26457D01*
X25393Y-25472D02*
X26378Y-26457D01*
X29764Y-23936D02*
X29764Y-21142D01*
X29326Y-30732D02*
X29791Y-30267D01*
X23031Y-22897D02*
X23031Y-22952D01*
X23151Y-23072D02*
X23792Y-23072D01*
X23031Y-22952D02*
X23151Y-23072D01*
X24502Y-20786D02*
X24134Y-20786D01*
X24134Y-20786D02*
X23842Y-20786D01*
X23792Y-23072D02*
X24288Y-23072D01*
X24288Y-23072D02*
X24502Y-22858D01*
X29685Y-24015D02*
X29724Y-24015D01*
X29724Y-24015D02*
X29791Y-24082D01*
X27544Y-24015D02*
X29685Y-24015D01*
X29685Y-24015D02*
X29764Y-23936D01*
X29764Y-23936D02*
X29791Y-23909D01*
X29791Y-23909D02*
X29791Y-24082D01*
X27386Y-26473D02*
X28437Y-26473D01*
X28437Y-26473D02*
X28465Y-26501D01*
X27042Y-30114D02*
X27042Y-30557D01*
X29791Y-26924D02*
X29368Y-26501D01*
X29791Y-30267D02*
X29791Y-26924D01*
X27217Y-30732D02*
X29326Y-30732D01*
X27042Y-30557D02*
X27217Y-30732D01*
X29368Y-26501D02*
X28465Y-26501D01*
X29791Y-26078D02*
X29368Y-26501D01*
X29791Y-24082D02*
X29791Y-26078D01*
X26260Y-20630D02*
X26826Y-20630D01*
X24502Y-22858D02*
X24502Y-20786D01*
X26747Y-20551D02*
X26826Y-20630D01*
X25709Y-20748D02*
X25671Y-20786D01*
X25671Y-20786D02*
X25102Y-20786D01*
X29645Y-31495D02*
X31260Y-31495D01*
X35669Y-31495D02*
X37992Y-29172D01*
X37992Y-29172D02*
X37992Y-28188D01*
X37992Y-26023D02*
X37992Y-24015D01*
X35433Y-20629D02*
X35040Y-20236D01*
X31417Y-20236D02*
X29764Y-20236D01*
X35040Y-20236D02*
X31417Y-20236D01*
X23701Y-20236D02*
X22638Y-20236D01*
X20118Y-30118D02*
X20118Y-28661D01*
X22559Y-31495D02*
X20984Y-31495D01*
X29330Y-25866D02*
X29296Y-25832D01*
X29296Y-25832D02*
X28465Y-25832D01*
X28465Y-28470D02*
X28076Y-28470D01*
X29409Y-28464D02*
X28076Y-28470D01*
X26914Y-25236D02*
X27166Y-25236D01*
X27166Y-25236D02*
X27386Y-25456D01*
X27386Y-25456D02*
X27386Y-25873D01*
X26914Y-28464D02*
X28459Y-28464D01*
X28459Y-28464D02*
X28465Y-28470D01*
X25102Y-20786D02*
X25102Y-21401D01*
X25102Y-21401D02*
X25273Y-21572D01*
X25273Y-21572D02*
X25892Y-21572D01*
X27386Y-25873D02*
X28424Y-25873D01*
X28424Y-25873D02*
X28465Y-25832D01*
X26286Y-22572D02*
X26574Y-22284D01*
X25892Y-22572D02*
X26286Y-22572D01*
X26753Y-21396D02*
X27283Y-21396D01*
X26574Y-21575D02*
X26753Y-21396D01*
X26574Y-22284D02*
X26574Y-21575D01*
X27544Y-23267D02*
X28184Y-23267D01*
X28184Y-23267D02*
X28465Y-23548D01*
X26944Y-23867D02*
X27544Y-23267D01*
X26944Y-24015D02*
X26944Y-23867D01*
X28462Y-23551D02*
X28465Y-23548D01*
X25039Y-22126D02*
X25093Y-22072D01*
X25093Y-22072D02*
X25892Y-22072D01*
X25919Y-22045D02*
X25892Y-22072D01*
X27026Y-22146D02*
X27283Y-22146D01*
X26100Y-23072D02*
X27026Y-22146D01*
X25910Y-23090D02*
X25892Y-23072D01*
X25892Y-23072D02*
X26100Y-23072D01*
X28458Y-27492D02*
X28465Y-27485D01*
X26284Y-27480D02*
X26284Y-28434D01*
X26284Y-28434D02*
X26314Y-28464D01*
X26284Y-27480D02*
X28458Y-27492D01*
X27642Y-30114D02*
X28445Y-30114D01*
X28445Y-30114D02*
X28465Y-30094D01*
X28465Y-21063D02*
X28465Y-22564D01*
X28032Y-20630D02*
X28465Y-21063D01*
X28446Y-22583D02*
X28465Y-22564D01*
X27426Y-20630D02*
X28032Y-20630D01*
X26284Y-25206D02*
X26314Y-25236D01*
X26284Y-24527D02*
X28463Y-24531D01*
X28463Y-24531D02*
X28465Y-24533D01*
X26284Y-24527D02*
X26284Y-25206D01*
G54D27*
X19960Y-20038D02*
X24264Y-20038D01*
X26088Y-20038D02*
X39016Y-20038D01*
X19960Y-20118D02*
X24117Y-20118D01*
X26236Y-20118D02*
X36239Y-20118D01*
X37286Y-20118D02*
X39016Y-20118D01*
X19960Y-20198D02*
X24037Y-20198D01*
X26316Y-20198D02*
X36129Y-20198D01*
X37395Y-20198D02*
X39016Y-20198D01*
X19960Y-20278D02*
X23957Y-20278D01*
X26509Y-20278D02*
X26544Y-20278D01*
X27108Y-20278D02*
X27144Y-20278D01*
X27708Y-20278D02*
X36090Y-20278D01*
X37435Y-20278D02*
X39016Y-20278D01*
X19960Y-20358D02*
X23894Y-20358D01*
X28123Y-20358D02*
X36080Y-20358D01*
X37444Y-20358D02*
X39016Y-20358D01*
X19960Y-20438D02*
X22956Y-20438D01*
X23528Y-20438D02*
X23555Y-20438D01*
X28250Y-20438D02*
X36080Y-20438D01*
X37444Y-20438D02*
X39016Y-20438D01*
X19960Y-20518D02*
X22894Y-20518D01*
X28330Y-20518D02*
X36080Y-20518D01*
X37444Y-20518D02*
X39016Y-20518D01*
X19960Y-20598D02*
X20708Y-20598D01*
X21052Y-20598D02*
X21152Y-20598D01*
X21497Y-20598D02*
X22868Y-20598D01*
X28410Y-20598D02*
X36080Y-20598D01*
X37444Y-20598D02*
X39016Y-20598D01*
X19960Y-20678D02*
X20507Y-20678D01*
X21052Y-20678D02*
X21152Y-20678D01*
X21698Y-20678D02*
X22868Y-20678D01*
X28490Y-20678D02*
X36080Y-20678D01*
X37444Y-20678D02*
X39016Y-20678D01*
X19960Y-20758D02*
X20424Y-20758D01*
X21052Y-20758D02*
X21152Y-20758D01*
X21781Y-20758D02*
X22868Y-20758D01*
X28570Y-20758D02*
X29581Y-20758D01*
X29948Y-20758D02*
X36080Y-20758D01*
X37444Y-20758D02*
X39016Y-20758D01*
X19960Y-20838D02*
X20349Y-20838D01*
X21052Y-20838D02*
X21152Y-20838D01*
X21856Y-20838D02*
X22868Y-20838D01*
X28650Y-20838D02*
X29467Y-20838D01*
X30061Y-20838D02*
X36080Y-20838D01*
X37444Y-20838D02*
X39016Y-20838D01*
X19960Y-20918D02*
X20316Y-20918D01*
X21052Y-20918D02*
X21152Y-20918D01*
X21889Y-20918D02*
X22868Y-20918D01*
X28711Y-20918D02*
X29397Y-20918D01*
X30132Y-20918D02*
X36099Y-20918D01*
X37424Y-20918D02*
X37737Y-20918D01*
X38328Y-20918D02*
X39016Y-20918D01*
X19960Y-20998D02*
X20284Y-20998D01*
X21052Y-20998D02*
X21152Y-20998D01*
X21921Y-20998D02*
X22870Y-20998D01*
X28743Y-20998D02*
X29364Y-20998D01*
X30165Y-20998D02*
X36153Y-20998D01*
X37371Y-20998D02*
X37617Y-20998D01*
X38448Y-20998D02*
X39016Y-20998D01*
X19960Y-21078D02*
X20319Y-21078D01*
X21052Y-21078D02*
X21152Y-21078D01*
X21885Y-21078D02*
X22903Y-21078D01*
X28755Y-21078D02*
X29339Y-21078D01*
X30189Y-21078D02*
X37537Y-21078D01*
X38528Y-21078D02*
X39016Y-21078D01*
X19960Y-21158D02*
X22952Y-21158D01*
X28755Y-21158D02*
X29339Y-21158D01*
X30189Y-21158D02*
X37475Y-21158D01*
X38590Y-21158D02*
X39016Y-21158D01*
X19960Y-21238D02*
X20301Y-21238D01*
X21904Y-21238D02*
X22952Y-21238D01*
X28755Y-21238D02*
X29343Y-21238D01*
X30184Y-21238D02*
X37442Y-21238D01*
X38623Y-21238D02*
X39016Y-21238D01*
X19960Y-21318D02*
X20296Y-21318D01*
X21907Y-21318D02*
X22431Y-21318D01*
X28755Y-21318D02*
X29376Y-21318D01*
X30151Y-21318D02*
X37408Y-21318D01*
X38656Y-21318D02*
X39016Y-21318D01*
X19960Y-21398D02*
X20328Y-21398D01*
X21875Y-21398D02*
X22326Y-21398D01*
X28755Y-21398D02*
X29419Y-21398D01*
X30109Y-21398D02*
X37389Y-21398D01*
X38675Y-21398D02*
X39016Y-21398D01*
X19960Y-21478D02*
X20373Y-21478D01*
X21829Y-21478D02*
X22246Y-21478D01*
X28755Y-21478D02*
X29474Y-21478D01*
X30054Y-21478D02*
X37389Y-21478D01*
X38675Y-21478D02*
X39016Y-21478D01*
X19960Y-21558D02*
X20405Y-21558D01*
X21799Y-21558D02*
X22166Y-21558D01*
X28755Y-21558D02*
X29474Y-21558D01*
X30054Y-21558D02*
X37389Y-21558D01*
X38675Y-21558D02*
X39016Y-21558D01*
X19960Y-21638D02*
X20333Y-21638D01*
X21872Y-21638D02*
X22086Y-21638D01*
X28755Y-21638D02*
X29474Y-21638D01*
X30054Y-21638D02*
X37397Y-21638D01*
X38667Y-21638D02*
X39016Y-21638D01*
X19960Y-21718D02*
X20300Y-21718D01*
X28755Y-21718D02*
X29474Y-21718D01*
X30054Y-21718D02*
X37430Y-21718D01*
X38633Y-21718D02*
X39016Y-21718D01*
X19960Y-21798D02*
X20267Y-21798D01*
X28755Y-21798D02*
X29474Y-21798D01*
X30054Y-21798D02*
X37463Y-21798D01*
X38600Y-21798D02*
X39016Y-21798D01*
X19960Y-21878D02*
X20256Y-21878D01*
X28755Y-21878D02*
X29474Y-21878D01*
X30054Y-21878D02*
X37510Y-21878D01*
X38553Y-21878D02*
X39016Y-21878D01*
X19960Y-21958D02*
X20256Y-21958D01*
X28755Y-21958D02*
X29474Y-21958D01*
X30054Y-21958D02*
X37590Y-21958D01*
X38473Y-21958D02*
X39016Y-21958D01*
X19960Y-22038D02*
X20257Y-22038D01*
X28755Y-22038D02*
X29474Y-22038D01*
X30054Y-22038D02*
X37674Y-22038D01*
X38390Y-22038D02*
X39016Y-22038D01*
X19960Y-22118D02*
X20290Y-22118D01*
X28810Y-22118D02*
X29474Y-22118D01*
X30054Y-22118D02*
X32353Y-22118D01*
X33238Y-22118D02*
X37864Y-22118D01*
X38197Y-22118D02*
X39016Y-22118D01*
X19960Y-22198D02*
X20323Y-22198D01*
X28943Y-22198D02*
X29474Y-22198D01*
X30054Y-22198D02*
X32219Y-22198D01*
X33371Y-22198D02*
X39016Y-22198D01*
X19960Y-22278D02*
X20383Y-22278D01*
X28993Y-22278D02*
X29474Y-22278D01*
X30054Y-22278D02*
X32170Y-22278D01*
X33421Y-22278D02*
X39016Y-22278D01*
X19960Y-22358D02*
X20393Y-22358D01*
X29009Y-22358D02*
X29474Y-22358D01*
X30054Y-22358D02*
X32153Y-22358D01*
X33437Y-22358D02*
X39016Y-22358D01*
X19960Y-22438D02*
X20328Y-22438D01*
X29009Y-22438D02*
X29474Y-22438D01*
X30054Y-22438D02*
X32153Y-22438D01*
X33437Y-22438D02*
X39016Y-22438D01*
X19960Y-22518D02*
X20295Y-22518D01*
X29009Y-22518D02*
X29474Y-22518D01*
X30054Y-22518D02*
X32153Y-22518D01*
X33437Y-22518D02*
X39016Y-22518D01*
X19960Y-22598D02*
X20261Y-22598D01*
X29009Y-22598D02*
X29474Y-22598D01*
X30054Y-22598D02*
X32153Y-22598D01*
X33437Y-22598D02*
X39016Y-22598D01*
X19960Y-22678D02*
X20256Y-22678D01*
X29009Y-22678D02*
X29474Y-22678D01*
X30054Y-22678D02*
X32153Y-22678D01*
X33437Y-22678D02*
X39016Y-22678D01*
X19960Y-22758D02*
X20256Y-22758D01*
X29009Y-22758D02*
X29474Y-22758D01*
X30054Y-22758D02*
X32153Y-22758D01*
X33437Y-22758D02*
X39016Y-22758D01*
X19960Y-22838D02*
X20262Y-22838D01*
X28997Y-22838D02*
X29474Y-22838D01*
X30054Y-22838D02*
X32164Y-22838D01*
X33425Y-22838D02*
X39016Y-22838D01*
X19960Y-22918D02*
X20295Y-22918D01*
X28955Y-22918D02*
X29474Y-22918D01*
X30054Y-22918D02*
X32207Y-22918D01*
X33383Y-22918D02*
X39016Y-22918D01*
X19960Y-22998D02*
X20328Y-22998D01*
X28838Y-22998D02*
X29474Y-22998D01*
X30054Y-22998D02*
X32323Y-22998D01*
X33266Y-22998D02*
X39016Y-22998D01*
X19960Y-23078D02*
X20396Y-23078D01*
X28405Y-23078D02*
X29474Y-23078D01*
X30054Y-23078D02*
X39016Y-23078D01*
X19960Y-23158D02*
X20380Y-23158D01*
X28919Y-23158D02*
X29474Y-23158D01*
X30054Y-23158D02*
X31022Y-23158D01*
X32325Y-23158D02*
X39016Y-23158D01*
X19960Y-23238D02*
X20323Y-23238D01*
X28983Y-23238D02*
X29474Y-23238D01*
X30054Y-23238D02*
X30959Y-23238D01*
X32388Y-23238D02*
X39016Y-23238D01*
X19960Y-23318D02*
X20289Y-23318D01*
X29009Y-23318D02*
X29474Y-23318D01*
X30054Y-23318D02*
X30932Y-23318D01*
X32414Y-23318D02*
X39016Y-23318D01*
X19960Y-23398D02*
X20256Y-23398D01*
X29009Y-23398D02*
X29474Y-23398D01*
X30054Y-23398D02*
X30932Y-23398D01*
X32414Y-23398D02*
X39016Y-23398D01*
X19960Y-23478D02*
X20256Y-23478D01*
X29009Y-23478D02*
X29474Y-23478D01*
X30054Y-23478D02*
X30932Y-23478D01*
X32414Y-23478D02*
X39016Y-23478D01*
X19960Y-23558D02*
X20256Y-23558D01*
X29009Y-23558D02*
X29474Y-23558D01*
X30054Y-23558D02*
X30932Y-23558D01*
X32414Y-23558D02*
X39016Y-23558D01*
X19960Y-23638D02*
X20267Y-23638D01*
X29009Y-23638D02*
X29474Y-23638D01*
X30054Y-23638D02*
X30932Y-23638D01*
X32414Y-23638D02*
X39016Y-23638D01*
X19960Y-23718D02*
X20300Y-23718D01*
X29009Y-23718D02*
X29474Y-23718D01*
X30054Y-23718D02*
X30932Y-23718D01*
X32414Y-23718D02*
X39016Y-23718D01*
X19960Y-23798D02*
X20333Y-23798D01*
X30059Y-23798D02*
X30933Y-23798D01*
X32412Y-23798D02*
X39016Y-23798D01*
X19960Y-23878D02*
X20409Y-23878D01*
X30075Y-23878D02*
X30966Y-23878D01*
X32379Y-23878D02*
X39016Y-23878D01*
X19960Y-23958D02*
X20368Y-23958D01*
X30081Y-23958D02*
X31044Y-23958D01*
X32301Y-23958D02*
X39016Y-23958D01*
X19960Y-24038D02*
X20318Y-24038D01*
X30081Y-24038D02*
X31484Y-24038D01*
X32513Y-24038D02*
X39016Y-24038D01*
X19960Y-24118D02*
X20284Y-24118D01*
X30081Y-24118D02*
X31394Y-24118D01*
X32603Y-24118D02*
X39016Y-24118D01*
X19960Y-24198D02*
X20256Y-24198D01*
X30081Y-24198D02*
X31360Y-24198D01*
X32636Y-24198D02*
X39016Y-24198D01*
X19960Y-24278D02*
X20256Y-24278D01*
X30081Y-24278D02*
X31356Y-24278D01*
X32640Y-24278D02*
X39016Y-24278D01*
X19960Y-24358D02*
X20256Y-24358D01*
X30081Y-24358D02*
X31356Y-24358D01*
X32640Y-24358D02*
X39016Y-24358D01*
X19960Y-24438D02*
X20272Y-24438D01*
X30081Y-24438D02*
X31356Y-24438D01*
X32640Y-24438D02*
X39016Y-24438D01*
X19960Y-24518D02*
X20305Y-24518D01*
X30081Y-24518D02*
X31356Y-24518D01*
X32640Y-24518D02*
X39016Y-24518D01*
X19960Y-24598D02*
X20341Y-24598D01*
X30081Y-24598D02*
X31356Y-24598D01*
X32640Y-24598D02*
X39016Y-24598D01*
X19960Y-24678D02*
X20421Y-24678D01*
X30081Y-24678D02*
X31356Y-24678D01*
X32640Y-24678D02*
X39016Y-24678D01*
X19960Y-24758D02*
X20355Y-24758D01*
X30081Y-24758D02*
X31379Y-24758D01*
X32616Y-24758D02*
X39016Y-24758D01*
X19960Y-24838D02*
X20312Y-24838D01*
X30081Y-24838D02*
X31440Y-24838D01*
X32556Y-24838D02*
X39016Y-24838D01*
X19960Y-24918D02*
X20279Y-24918D01*
X30081Y-24918D02*
X31410Y-24918D01*
X32508Y-24918D02*
X39016Y-24918D01*
X19960Y-24998D02*
X20256Y-24998D01*
X30081Y-24998D02*
X31345Y-24998D01*
X32574Y-24998D02*
X39016Y-24998D01*
X19960Y-25078D02*
X20256Y-25078D01*
X30081Y-25078D02*
X31317Y-25078D01*
X32601Y-25078D02*
X39016Y-25078D01*
X19960Y-25158D02*
X20256Y-25158D01*
X30081Y-25158D02*
X31317Y-25158D01*
X32601Y-25158D02*
X39016Y-25158D01*
X19960Y-25238D02*
X20278Y-25238D01*
X30081Y-25238D02*
X31317Y-25238D01*
X32601Y-25238D02*
X39016Y-25238D01*
X19960Y-25318D02*
X20311Y-25318D01*
X30081Y-25318D02*
X31317Y-25318D01*
X32601Y-25318D02*
X39016Y-25318D01*
X19960Y-25398D02*
X20354Y-25398D01*
X30081Y-25398D02*
X31317Y-25398D01*
X32601Y-25398D02*
X39016Y-25398D01*
X19960Y-25478D02*
X20422Y-25478D01*
X30081Y-25478D02*
X31317Y-25478D01*
X32601Y-25478D02*
X39016Y-25478D01*
X19960Y-25558D02*
X20342Y-25558D01*
X30081Y-25558D02*
X31317Y-25558D01*
X32601Y-25558D02*
X39016Y-25558D01*
X19960Y-25638D02*
X20307Y-25638D01*
X30081Y-25638D02*
X31317Y-25638D01*
X32601Y-25638D02*
X39016Y-25638D01*
X19960Y-25718D02*
X20273Y-25718D01*
X30081Y-25718D02*
X31317Y-25718D01*
X32601Y-25718D02*
X39016Y-25718D01*
X19960Y-25798D02*
X20256Y-25798D01*
X30081Y-25798D02*
X31317Y-25798D01*
X32601Y-25798D02*
X39016Y-25798D01*
X19960Y-25878D02*
X20256Y-25878D01*
X30081Y-25878D02*
X31317Y-25878D01*
X32601Y-25878D02*
X39016Y-25878D01*
X19960Y-25958D02*
X20256Y-25958D01*
X30081Y-25958D02*
X31320Y-25958D01*
X32597Y-25958D02*
X39016Y-25958D01*
X19960Y-26038D02*
X20283Y-26038D01*
X30081Y-26038D02*
X31353Y-26038D01*
X32564Y-26038D02*
X39016Y-26038D01*
X19960Y-26118D02*
X20316Y-26118D01*
X30073Y-26118D02*
X31441Y-26118D01*
X32547Y-26118D02*
X39016Y-26118D01*
X19960Y-26198D02*
X20320Y-26198D01*
X21884Y-26198D02*
X23653Y-26198D01*
X30052Y-26198D02*
X31384Y-26198D01*
X32613Y-26198D02*
X39016Y-26198D01*
X19960Y-26278D02*
X20276Y-26278D01*
X21929Y-26278D02*
X23630Y-26278D01*
X29999Y-26278D02*
X31356Y-26278D01*
X32640Y-26278D02*
X39016Y-26278D01*
X19960Y-26358D02*
X20263Y-26358D01*
X21941Y-26358D02*
X23630Y-26358D01*
X29920Y-26358D02*
X31356Y-26358D01*
X32640Y-26358D02*
X39016Y-26358D01*
X19960Y-26438D02*
X20263Y-26438D01*
X21941Y-26438D02*
X23636Y-26438D01*
X29839Y-26438D02*
X31356Y-26438D01*
X32640Y-26438D02*
X39016Y-26438D01*
X19960Y-26518D02*
X20263Y-26518D01*
X21941Y-26518D02*
X23669Y-26518D01*
X29795Y-26518D02*
X31356Y-26518D01*
X32640Y-26518D02*
X39016Y-26518D01*
X19960Y-26598D02*
X20263Y-26598D01*
X21941Y-26598D02*
X23714Y-26598D01*
X29875Y-26598D02*
X31356Y-26598D01*
X32640Y-26598D02*
X39016Y-26598D01*
X19960Y-26678D02*
X20263Y-26678D01*
X21941Y-26678D02*
X23765Y-26678D01*
X29955Y-26678D02*
X31356Y-26678D01*
X32640Y-26678D02*
X39016Y-26678D01*
X19960Y-26758D02*
X20263Y-26758D01*
X21941Y-26758D02*
X23765Y-26758D01*
X30023Y-26758D02*
X31356Y-26758D01*
X32640Y-26758D02*
X39016Y-26758D01*
X19960Y-26838D02*
X20263Y-26838D01*
X21941Y-26838D02*
X23765Y-26838D01*
X30064Y-26838D02*
X31389Y-26838D01*
X32606Y-26838D02*
X39016Y-26838D01*
X19960Y-26918D02*
X20263Y-26918D01*
X21941Y-26918D02*
X23765Y-26918D01*
X30080Y-26918D02*
X31463Y-26918D01*
X32533Y-26918D02*
X39016Y-26918D01*
X19960Y-26998D02*
X20263Y-26998D01*
X21941Y-26998D02*
X23765Y-26998D01*
X30081Y-26998D02*
X39016Y-26998D01*
X19960Y-27078D02*
X20296Y-27078D01*
X21907Y-27078D02*
X23765Y-27078D01*
X30081Y-27078D02*
X31427Y-27078D01*
X32452Y-27078D02*
X39016Y-27078D01*
X19960Y-27158D02*
X20370Y-27158D01*
X21834Y-27158D02*
X23765Y-27158D01*
X30081Y-27158D02*
X31335Y-27158D01*
X32544Y-27158D02*
X39016Y-27158D01*
X19960Y-27238D02*
X23765Y-27238D01*
X30081Y-27238D02*
X31302Y-27238D01*
X32577Y-27238D02*
X39016Y-27238D01*
X19960Y-27318D02*
X23765Y-27318D01*
X30081Y-27318D02*
X31297Y-27318D01*
X32581Y-27318D02*
X39016Y-27318D01*
X19960Y-27398D02*
X23765Y-27398D01*
X30081Y-27398D02*
X31297Y-27398D01*
X32581Y-27398D02*
X39016Y-27398D01*
X19960Y-27478D02*
X23765Y-27478D01*
X30081Y-27478D02*
X31297Y-27478D01*
X32581Y-27478D02*
X39016Y-27478D01*
X19960Y-27558D02*
X23765Y-27558D01*
X30081Y-27558D02*
X31297Y-27558D01*
X32581Y-27558D02*
X39016Y-27558D01*
X19960Y-27638D02*
X23772Y-27638D01*
X30081Y-27638D02*
X31297Y-27638D01*
X32581Y-27638D02*
X39016Y-27638D01*
X19960Y-27718D02*
X23793Y-27718D01*
X30081Y-27718D02*
X31297Y-27718D01*
X32581Y-27718D02*
X39016Y-27718D01*
X19960Y-27798D02*
X23846Y-27798D01*
X30081Y-27798D02*
X31320Y-27798D01*
X32557Y-27798D02*
X39016Y-27798D01*
X19960Y-27878D02*
X23925Y-27878D01*
X30081Y-27878D02*
X31380Y-27878D01*
X32498Y-27878D02*
X39016Y-27878D01*
X19960Y-27958D02*
X24005Y-27958D01*
X30081Y-27958D02*
X39016Y-27958D01*
X19960Y-28038D02*
X24085Y-28038D01*
X30081Y-28038D02*
X31444Y-28038D01*
X32396Y-28038D02*
X39016Y-28038D01*
X19960Y-28118D02*
X24165Y-28118D01*
X30081Y-28118D02*
X31329Y-28118D01*
X32509Y-28118D02*
X39016Y-28118D01*
X19960Y-28198D02*
X24245Y-28198D01*
X30081Y-28198D02*
X31288Y-28198D01*
X32551Y-28198D02*
X39016Y-28198D01*
X19960Y-28278D02*
X24325Y-28278D01*
X30081Y-28278D02*
X31277Y-28278D01*
X32561Y-28278D02*
X39016Y-28278D01*
X19960Y-28358D02*
X24405Y-28358D01*
X30081Y-28358D02*
X31277Y-28358D01*
X32561Y-28358D02*
X39016Y-28358D01*
X19960Y-28438D02*
X24485Y-28438D01*
X30081Y-28438D02*
X31277Y-28438D01*
X32561Y-28438D02*
X39016Y-28438D01*
X19960Y-28518D02*
X24565Y-28518D01*
X30081Y-28518D02*
X31277Y-28518D01*
X32561Y-28518D02*
X39016Y-28518D01*
X19960Y-28598D02*
X24645Y-28598D01*
X30081Y-28598D02*
X31277Y-28598D01*
X32561Y-28598D02*
X39016Y-28598D01*
X19960Y-28678D02*
X24725Y-28678D01*
X30081Y-28678D02*
X31277Y-28678D01*
X32561Y-28678D02*
X39016Y-28678D01*
X19960Y-28758D02*
X24805Y-28758D01*
X30081Y-28758D02*
X31294Y-28758D01*
X32543Y-28758D02*
X39016Y-28758D01*
X19960Y-28838D02*
X24885Y-28838D01*
X30081Y-28838D02*
X31345Y-28838D01*
X32493Y-28838D02*
X39016Y-28838D01*
X19960Y-28918D02*
X24965Y-28918D01*
X30081Y-28918D02*
X39016Y-28918D01*
X19960Y-28998D02*
X25045Y-28998D01*
X30081Y-28998D02*
X31487Y-28998D01*
X32372Y-28998D02*
X39016Y-28998D01*
X19960Y-29078D02*
X25125Y-29078D01*
X30081Y-29078D02*
X31353Y-29078D01*
X32505Y-29078D02*
X39016Y-29078D01*
X19960Y-29158D02*
X25205Y-29158D01*
X30081Y-29158D02*
X31304Y-29158D01*
X32555Y-29158D02*
X39016Y-29158D01*
X19960Y-29238D02*
X25285Y-29238D01*
X30081Y-29238D02*
X31287Y-29238D01*
X32571Y-29238D02*
X39016Y-29238D01*
X19960Y-29318D02*
X25365Y-29318D01*
X30081Y-29318D02*
X31287Y-29318D01*
X32571Y-29318D02*
X39016Y-29318D01*
X19960Y-29398D02*
X25445Y-29398D01*
X30081Y-29398D02*
X31287Y-29398D01*
X32571Y-29398D02*
X39016Y-29398D01*
X19960Y-29478D02*
X25525Y-29478D01*
X30081Y-29478D02*
X31287Y-29478D01*
X32571Y-29478D02*
X39016Y-29478D01*
X19960Y-29558D02*
X25605Y-29558D01*
X30081Y-29558D02*
X31287Y-29558D01*
X32571Y-29558D02*
X39016Y-29558D01*
X19960Y-29638D02*
X25689Y-29638D01*
X30081Y-29638D02*
X31287Y-29638D01*
X32571Y-29638D02*
X39016Y-29638D01*
X19960Y-29718D02*
X26844Y-29718D01*
X30081Y-29718D02*
X31298Y-29718D01*
X32559Y-29718D02*
X39016Y-29718D01*
X19960Y-29798D02*
X26724Y-29798D01*
X30081Y-29798D02*
X31320Y-29798D01*
X32539Y-29798D02*
X39016Y-29798D01*
X19960Y-29878D02*
X26681Y-29878D01*
X30081Y-29878D02*
X31287Y-29878D01*
X32571Y-29878D02*
X39016Y-29878D01*
X19960Y-29958D02*
X26668Y-29958D01*
X30081Y-29958D02*
X31287Y-29958D01*
X32571Y-29958D02*
X39016Y-29958D01*
X19960Y-30038D02*
X26668Y-30038D01*
X30081Y-30038D02*
X31287Y-30038D01*
X32571Y-30038D02*
X39016Y-30038D01*
X19960Y-30118D02*
X26668Y-30118D01*
X30081Y-30118D02*
X31287Y-30118D01*
X32571Y-30118D02*
X39016Y-30118D01*
X19960Y-30198D02*
X26668Y-30198D01*
X30081Y-30198D02*
X31287Y-30198D01*
X32571Y-30198D02*
X39016Y-30198D01*
X19960Y-30278D02*
X26668Y-30278D01*
X30078Y-30278D02*
X31287Y-30278D01*
X32571Y-30278D02*
X39016Y-30278D01*
X19960Y-30358D02*
X26683Y-30358D01*
X30062Y-30358D02*
X31287Y-30358D01*
X32571Y-30358D02*
X39016Y-30358D01*
X19960Y-30438D02*
X26732Y-30438D01*
X30018Y-30438D02*
X31315Y-30438D01*
X32542Y-30438D02*
X37755Y-30438D01*
X38309Y-30438D02*
X39016Y-30438D01*
X19960Y-30518D02*
X26752Y-30518D01*
X29950Y-30518D02*
X31382Y-30518D01*
X32476Y-30518D02*
X37625Y-30518D01*
X38440Y-30518D02*
X39016Y-30518D01*
X19960Y-30598D02*
X26760Y-30598D01*
X29870Y-30598D02*
X37545Y-30598D01*
X38520Y-30598D02*
X39016Y-30598D01*
X19960Y-30678D02*
X26780Y-30678D01*
X29790Y-30678D02*
X37478Y-30678D01*
X38587Y-30678D02*
X39016Y-30678D01*
X19960Y-30758D02*
X26834Y-30758D01*
X29710Y-30758D02*
X37445Y-30758D01*
X38620Y-30758D02*
X39016Y-30758D01*
X19960Y-30838D02*
X26913Y-30838D01*
X29630Y-30838D02*
X37411Y-30838D01*
X38653Y-30838D02*
X39016Y-30838D01*
X19960Y-30918D02*
X26993Y-30918D01*
X29550Y-30918D02*
X37389Y-30918D01*
X38675Y-30918D02*
X39016Y-30918D01*
X19960Y-30998D02*
X27103Y-30998D01*
X29439Y-30998D02*
X37389Y-30998D01*
X38675Y-30998D02*
X39016Y-30998D01*
X19960Y-31078D02*
X27958Y-31078D01*
X28973Y-31078D02*
X37389Y-31078D01*
X38675Y-31078D02*
X39016Y-31078D01*
X19960Y-31158D02*
X27924Y-31158D01*
X29006Y-31158D02*
X36641Y-31158D01*
X38670Y-31158D02*
X39016Y-31158D01*
X19960Y-31238D02*
X27921Y-31238D01*
X29009Y-31238D02*
X36559Y-31238D01*
X38637Y-31238D02*
X39016Y-31238D01*
X19960Y-31318D02*
X27921Y-31318D01*
X29009Y-31318D02*
X31811Y-31318D01*
X34647Y-31318D02*
X36526Y-31318D01*
X38603Y-31318D02*
X39016Y-31318D01*
X19960Y-31398D02*
X27921Y-31398D01*
X29009Y-31398D02*
X31759Y-31398D01*
X34700Y-31398D02*
X36523Y-31398D01*
X38561Y-31398D02*
X39016Y-31398D01*
X19960Y-31478D02*
X27921Y-31478D01*
X29009Y-31478D02*
X31740Y-31478D01*
X34718Y-31478D02*
X36523Y-31478D01*
X38481Y-31478D02*
X39016Y-31478D01*
X19960Y-31558D02*
X27921Y-31558D01*
X29009Y-31558D02*
X31740Y-31558D01*
X34718Y-31558D02*
X36523Y-31558D01*
X38401Y-31558D02*
X39016Y-31558D01*
X19960Y-31638D02*
X27921Y-31638D01*
X29009Y-31638D02*
X31740Y-31638D01*
X34718Y-31638D02*
X36523Y-31638D01*
X38216Y-31638D02*
X39016Y-31638D01*
X19960Y-31718D02*
X27945Y-31718D01*
X28984Y-31718D02*
X31740Y-31718D01*
X34718Y-31718D02*
X36523Y-31718D01*
X37887Y-31718D02*
X39016Y-31718D01*
X19960Y-31798D02*
X28007Y-31798D01*
X28923Y-31798D02*
X31740Y-31798D01*
X34718Y-31798D02*
X36523Y-31798D01*
X37887Y-31798D02*
X39016Y-31798D01*
X19960Y-31878D02*
X31740Y-31878D01*
X34718Y-31878D02*
X36523Y-31878D01*
X37887Y-31878D02*
X39016Y-31878D01*
X19960Y-31958D02*
X31740Y-31958D01*
X34718Y-31958D02*
X36549Y-31958D01*
X37860Y-31958D02*
X39016Y-31958D01*
X19960Y-32038D02*
X31740Y-32038D01*
X34718Y-32038D02*
X36613Y-32038D01*
X37797Y-32038D02*
X39016Y-32038D01*
X24793Y-25762D02*
X25273Y-25762D01*
X24874Y-25842D02*
X25353Y-25842D01*
X24954Y-25922D02*
X25433Y-25922D01*
X25026Y-26002D02*
X25513Y-26002D01*
X25074Y-26082D02*
X25593Y-26082D01*
X25090Y-26162D02*
X25673Y-26162D01*
X25093Y-26242D02*
X25753Y-26242D01*
X24480Y-26322D02*
X24513Y-26322D01*
X25093Y-26322D02*
X25833Y-26322D01*
X24480Y-26402D02*
X24513Y-26402D01*
X25093Y-26402D02*
X25913Y-26402D01*
X24455Y-26482D02*
X24513Y-26482D01*
X25093Y-26482D02*
X25993Y-26482D01*
X24422Y-26562D02*
X24513Y-26562D01*
X25093Y-26562D02*
X26073Y-26562D01*
X24352Y-26642D02*
X24513Y-26642D01*
X25093Y-26642D02*
X26153Y-26642D01*
X24345Y-26722D02*
X24513Y-26722D01*
X25093Y-26722D02*
X26262Y-26722D01*
X24345Y-26802D02*
X24513Y-26802D01*
X25093Y-26802D02*
X27080Y-26802D01*
X27690Y-26802D02*
X27943Y-26802D01*
X28986Y-26802D02*
X29259Y-26802D01*
X24345Y-26882D02*
X24513Y-26882D01*
X25093Y-26882D02*
X28002Y-26882D01*
X28928Y-26882D02*
X29339Y-26882D01*
X24345Y-26962D02*
X24513Y-26962D01*
X25093Y-26962D02*
X29419Y-26962D01*
X24345Y-27042D02*
X24513Y-27042D01*
X25093Y-27042D02*
X28114Y-27042D01*
X28818Y-27042D02*
X29499Y-27042D01*
X24345Y-27122D02*
X24513Y-27122D01*
X25130Y-27122D02*
X25408Y-27122D01*
X25960Y-27122D02*
X26008Y-27122D01*
X26560Y-27122D02*
X27984Y-27122D01*
X28946Y-27122D02*
X29501Y-27122D01*
X24345Y-27202D02*
X24513Y-27202D01*
X28994Y-27202D02*
X29501Y-27202D01*
X24345Y-27282D02*
X24528Y-27282D01*
X29009Y-27282D02*
X29501Y-27282D01*
X24345Y-27362D02*
X24565Y-27362D01*
X29009Y-27362D02*
X29501Y-27362D01*
X24345Y-27442D02*
X24630Y-27442D01*
X29009Y-27442D02*
X29501Y-27442D01*
X24389Y-27522D02*
X24710Y-27522D01*
X29009Y-27522D02*
X29501Y-27522D01*
X24469Y-27602D02*
X24790Y-27602D01*
X29009Y-27602D02*
X29501Y-27602D01*
X24549Y-27682D02*
X24870Y-27682D01*
X29009Y-27682D02*
X29501Y-27682D01*
X24629Y-27762D02*
X25037Y-27762D01*
X28996Y-27762D02*
X29501Y-27762D01*
X24709Y-27842D02*
X25412Y-27842D01*
X25955Y-27842D02*
X25994Y-27842D01*
X26574Y-27842D02*
X27978Y-27842D01*
X28952Y-27842D02*
X29501Y-27842D01*
X24789Y-27922D02*
X25994Y-27922D01*
X26574Y-27922D02*
X28098Y-27922D01*
X28830Y-27922D02*
X29501Y-27922D01*
X24869Y-28002D02*
X25994Y-28002D01*
X26574Y-28002D02*
X29501Y-28002D01*
X24949Y-28082D02*
X25994Y-28082D01*
X26574Y-28082D02*
X26682Y-28082D01*
X26827Y-28082D02*
X27001Y-28082D01*
X27147Y-28082D02*
X28009Y-28082D01*
X28412Y-28082D02*
X28518Y-28082D01*
X28921Y-28082D02*
X29501Y-28082D01*
X25029Y-28162D02*
X25982Y-28162D01*
X26864Y-28162D02*
X26964Y-28162D01*
X27246Y-28162D02*
X27947Y-28162D01*
X28415Y-28162D02*
X28515Y-28162D01*
X28984Y-28162D02*
X29501Y-28162D01*
X25109Y-28242D02*
X25947Y-28242D01*
X26864Y-28242D02*
X26964Y-28242D01*
X27282Y-28242D02*
X27921Y-28242D01*
X28415Y-28242D02*
X28515Y-28242D01*
X29010Y-28242D02*
X29501Y-28242D01*
X25189Y-28322D02*
X25940Y-28322D01*
X26864Y-28322D02*
X26964Y-28322D01*
X27288Y-28322D02*
X27921Y-28322D01*
X28415Y-28322D02*
X28515Y-28322D01*
X29010Y-28322D02*
X29501Y-28322D01*
X25269Y-28402D02*
X25940Y-28402D01*
X26864Y-28402D02*
X26964Y-28402D01*
X27239Y-28402D02*
X27964Y-28402D01*
X28415Y-28402D02*
X28515Y-28402D01*
X28966Y-28402D02*
X29501Y-28402D01*
X25349Y-28482D02*
X25940Y-28482D01*
X26864Y-28482D02*
X29501Y-28482D01*
X25429Y-28562D02*
X25940Y-28562D01*
X26864Y-28562D02*
X26964Y-28562D01*
X27275Y-28562D02*
X27940Y-28562D01*
X28415Y-28562D02*
X28515Y-28562D01*
X28990Y-28562D02*
X29501Y-28562D01*
X25509Y-28642D02*
X25940Y-28642D01*
X26864Y-28642D02*
X26964Y-28642D01*
X27288Y-28642D02*
X27920Y-28642D01*
X28415Y-28642D02*
X28515Y-28642D01*
X29009Y-28642D02*
X29501Y-28642D01*
X25589Y-28722D02*
X25961Y-28722D01*
X26864Y-28722D02*
X26964Y-28722D01*
X27266Y-28722D02*
X27923Y-28722D01*
X28415Y-28722D02*
X28515Y-28722D01*
X29006Y-28722D02*
X29501Y-28722D01*
X25669Y-28802D02*
X26018Y-28802D01*
X26608Y-28802D02*
X26618Y-28802D01*
X26864Y-28802D02*
X26964Y-28802D01*
X27210Y-28802D02*
X27956Y-28802D01*
X28415Y-28802D02*
X28515Y-28802D01*
X28973Y-28802D02*
X29501Y-28802D01*
X25749Y-28882D02*
X28038Y-28882D01*
X28388Y-28882D02*
X28542Y-28882D01*
X28891Y-28882D02*
X29501Y-28882D01*
X25829Y-28962D02*
X29501Y-28962D01*
X25909Y-29042D02*
X28003Y-29042D01*
X28927Y-29042D02*
X29501Y-29042D01*
X25989Y-29122D02*
X27943Y-29122D01*
X28986Y-29122D02*
X29501Y-29122D01*
X29009Y-29202D02*
X29501Y-29202D01*
X29009Y-29282D02*
X29501Y-29282D01*
X29009Y-29362D02*
X29501Y-29362D01*
X29009Y-29442D02*
X29501Y-29442D01*
X29009Y-29522D02*
X29501Y-29522D01*
X29009Y-29602D02*
X29501Y-29602D01*
X29004Y-29682D02*
X29501Y-29682D01*
X28974Y-29762D02*
X29501Y-29762D01*
X29007Y-29842D02*
X29501Y-29842D01*
X29009Y-29922D02*
X29501Y-29922D01*
X29009Y-30002D02*
X29501Y-30002D01*
X29009Y-30082D02*
X29501Y-30082D01*
X29009Y-30162D02*
X29486Y-30162D01*
X29009Y-30242D02*
X29406Y-30242D01*
X29009Y-30322D02*
X29326Y-30322D01*
X28983Y-30402D02*
X29246Y-30402D01*
X29009Y-24305D02*
X29501Y-24305D01*
X29009Y-24385D02*
X29501Y-24385D01*
X29009Y-24465D02*
X29501Y-24465D01*
X29009Y-24545D02*
X29501Y-24545D01*
X29009Y-24625D02*
X29501Y-24625D01*
X29009Y-24705D02*
X29501Y-24705D01*
X29006Y-24785D02*
X29501Y-24785D01*
X25978Y-24865D02*
X25988Y-24865D01*
X26579Y-24865D02*
X26656Y-24865D01*
X26838Y-24865D02*
X26990Y-24865D01*
X27173Y-24865D02*
X27950Y-24865D01*
X28980Y-24865D02*
X29501Y-24865D01*
X25675Y-24945D02*
X25976Y-24945D01*
X26864Y-24945D02*
X26964Y-24945D01*
X27253Y-24945D02*
X27921Y-24945D01*
X29009Y-24945D02*
X29501Y-24945D01*
X25595Y-25025D02*
X25942Y-25025D01*
X26864Y-25025D02*
X26964Y-25025D01*
X27287Y-25025D02*
X27921Y-25025D01*
X29009Y-25025D02*
X29501Y-25025D01*
X25515Y-25105D02*
X25940Y-25105D01*
X26864Y-25105D02*
X26964Y-25105D01*
X27288Y-25105D02*
X27921Y-25105D01*
X29009Y-25105D02*
X29501Y-25105D01*
X25435Y-25185D02*
X25940Y-25185D01*
X26864Y-25185D02*
X26964Y-25185D01*
X27228Y-25185D02*
X27921Y-25185D01*
X29009Y-25185D02*
X29501Y-25185D01*
X25596Y-25265D02*
X25940Y-25265D01*
X26864Y-25265D02*
X27921Y-25265D01*
X29009Y-25265D02*
X29501Y-25265D01*
X25676Y-25345D02*
X25940Y-25345D01*
X26864Y-25345D02*
X26964Y-25345D01*
X27286Y-25345D02*
X27921Y-25345D01*
X29009Y-25345D02*
X29501Y-25345D01*
X25756Y-25425D02*
X25940Y-25425D01*
X26864Y-25425D02*
X26964Y-25425D01*
X27288Y-25425D02*
X27921Y-25425D01*
X29009Y-25425D02*
X29501Y-25425D01*
X25836Y-25505D02*
X25966Y-25505D01*
X26864Y-25505D02*
X26964Y-25505D01*
X27281Y-25505D02*
X27491Y-25505D01*
X27608Y-25505D02*
X27952Y-25505D01*
X28976Y-25505D02*
X29501Y-25505D01*
X25916Y-25585D02*
X26029Y-25585D01*
X26597Y-25585D02*
X26629Y-25585D01*
X26860Y-25585D02*
X26968Y-25585D01*
X27336Y-25585D02*
X27436Y-25585D01*
X27732Y-25585D02*
X27922Y-25585D01*
X29009Y-25585D02*
X29501Y-25585D01*
X25996Y-25665D02*
X26994Y-25665D01*
X27336Y-25665D02*
X27436Y-25665D01*
X27778Y-25665D02*
X27921Y-25665D01*
X28415Y-25665D02*
X28515Y-25665D01*
X29010Y-25665D02*
X29501Y-25665D01*
X26076Y-25745D02*
X26980Y-25745D01*
X27336Y-25745D02*
X27436Y-25745D01*
X27793Y-25745D02*
X27945Y-25745D01*
X28415Y-25745D02*
X28515Y-25745D01*
X28985Y-25745D02*
X29501Y-25745D01*
X26156Y-25825D02*
X29501Y-25825D01*
X26236Y-25905D02*
X27959Y-25905D01*
X28971Y-25905D02*
X29501Y-25905D01*
X26316Y-25985D02*
X26979Y-25985D01*
X27793Y-25985D02*
X27920Y-25985D01*
X29009Y-25985D02*
X29474Y-25985D01*
X26396Y-26065D02*
X26987Y-26065D01*
X27784Y-26065D02*
X27920Y-26065D01*
X29009Y-26065D02*
X29394Y-26065D01*
X26476Y-26145D02*
X27024Y-26145D01*
X27747Y-26145D02*
X27948Y-26145D01*
X28980Y-26145D02*
X29314Y-26145D01*
X25476Y-20605D02*
X25835Y-20605D01*
X25466Y-20685D02*
X25835Y-20685D01*
X25052Y-20765D02*
X25855Y-20765D01*
X25052Y-20845D02*
X25152Y-20845D01*
X25424Y-20845D02*
X25888Y-20845D01*
X25052Y-20925D02*
X25152Y-20925D01*
X25476Y-20925D02*
X25954Y-20925D01*
X25052Y-21005D02*
X25152Y-21005D01*
X25470Y-21005D02*
X26055Y-21005D01*
X26465Y-21005D02*
X26576Y-21005D01*
X25052Y-21085D02*
X25152Y-21085D01*
X25437Y-21085D02*
X26795Y-21085D01*
X24792Y-21165D02*
X24862Y-21165D01*
X25018Y-21165D02*
X25186Y-21165D01*
X25341Y-21165D02*
X26587Y-21165D01*
X24792Y-21245D02*
X25565Y-21245D01*
X25803Y-21245D02*
X25981Y-21245D01*
X26220Y-21245D02*
X26494Y-21245D01*
X24792Y-21325D02*
X25462Y-21325D01*
X25842Y-21325D02*
X25942Y-21325D01*
X26322Y-21325D02*
X26414Y-21325D01*
X24792Y-21405D02*
X25426Y-21405D01*
X25842Y-21405D02*
X25942Y-21405D01*
X24792Y-21485D02*
X25442Y-21485D01*
X25842Y-21485D02*
X25942Y-21485D01*
X24792Y-21565D02*
X25942Y-21565D01*
X24792Y-21645D02*
X25456Y-21645D01*
X24792Y-21725D02*
X24897Y-21725D01*
X25183Y-21725D02*
X25419Y-21725D01*
X39016Y-32087D02*
X39016Y-20038D01*
X26088Y-20038D01*
X26134Y-20047D01*
X26228Y-20110D01*
X26322Y-20204D01*
X26345Y-20205D01*
X26501Y-20270D01*
X26526Y-20295D01*
X26560Y-20262D01*
X26652Y-20224D01*
X27001Y-20224D01*
X27092Y-20262D01*
X27125Y-20295D01*
X27160Y-20262D01*
X27252Y-20224D01*
X27601Y-20224D01*
X27692Y-20262D01*
X27762Y-20332D01*
X27765Y-20340D01*
X28032Y-20340D01*
X28143Y-20362D01*
X28237Y-20425D01*
X28670Y-20858D01*
X28733Y-20952D01*
X28755Y-21063D01*
X28755Y-22118D01*
X28810Y-22118D01*
X28901Y-22156D01*
X28971Y-22226D01*
X29009Y-22318D01*
X29009Y-22811D01*
X28971Y-22902D01*
X28901Y-22972D01*
X28809Y-23010D01*
X28311Y-23010D01*
X28389Y-23062D01*
X28429Y-23102D01*
X28810Y-23102D01*
X28901Y-23140D01*
X28971Y-23210D01*
X29009Y-23302D01*
X29009Y-23725D01*
X29474Y-23725D01*
X29474Y-21453D01*
X29403Y-21382D01*
X29339Y-21226D01*
X29339Y-21057D01*
X29404Y-20901D01*
X29524Y-20781D01*
X29680Y-20717D01*
X29849Y-20717D01*
X30005Y-20782D01*
X30125Y-20902D01*
X30189Y-21058D01*
X30189Y-21227D01*
X30124Y-21383D01*
X30054Y-21453D01*
X30054Y-23790D01*
X30059Y-23798D01*
X30081Y-23909D01*
X30081Y-26078D01*
X30059Y-26189D01*
X29996Y-26283D01*
X29777Y-26500D01*
X29996Y-26719D01*
X30059Y-26813D01*
X30081Y-26924D01*
X30081Y-30267D01*
X30059Y-30378D01*
X29996Y-30472D01*
X29531Y-30937D01*
X29437Y-31000D01*
X29326Y-31022D01*
X28919Y-31022D01*
X28971Y-31074D01*
X29009Y-31166D01*
X29009Y-31659D01*
X28971Y-31750D01*
X28901Y-31820D01*
X28809Y-31858D01*
X28120Y-31858D01*
X28029Y-31820D01*
X27959Y-31750D01*
X27921Y-31658D01*
X27921Y-31165D01*
X27959Y-31074D01*
X28011Y-31022D01*
X27217Y-31022D01*
X27106Y-31000D01*
X27011Y-30936D01*
X26837Y-30762D01*
X26774Y-30668D01*
X26752Y-30557D01*
X26752Y-30458D01*
X26706Y-30412D01*
X26668Y-30320D01*
X26668Y-29907D01*
X26706Y-29816D01*
X26776Y-29746D01*
X26853Y-29714D01*
X25881Y-29714D01*
X25770Y-29692D01*
X25675Y-29628D01*
X23850Y-27803D01*
X23787Y-27709D01*
X23765Y-27598D01*
X23765Y-26649D01*
X23694Y-26578D01*
X23630Y-26422D01*
X23630Y-26253D01*
X23670Y-26155D01*
X21871Y-26155D01*
X21866Y-26168D01*
X21860Y-26174D01*
X21903Y-26217D01*
X21941Y-26309D01*
X21941Y-26998D01*
X21903Y-27089D01*
X21833Y-27159D01*
X21741Y-27197D01*
X20462Y-27197D01*
X20371Y-27159D01*
X20301Y-27089D01*
X20263Y-26997D01*
X20263Y-26308D01*
X20301Y-26217D01*
X20343Y-26174D01*
X20337Y-26168D01*
X20256Y-25971D01*
X20256Y-25758D01*
X20338Y-25562D01*
X20428Y-25471D01*
X20337Y-25381D01*
X20256Y-25184D01*
X20256Y-24971D01*
X20338Y-24775D01*
X20428Y-24684D01*
X20337Y-24594D01*
X20256Y-24397D01*
X20256Y-24184D01*
X20338Y-23988D01*
X20428Y-23896D01*
X20337Y-23806D01*
X20256Y-23609D01*
X20256Y-23396D01*
X20338Y-23200D01*
X20428Y-23109D01*
X20337Y-23019D01*
X20256Y-22822D01*
X20256Y-22609D01*
X20338Y-22413D01*
X20428Y-22322D01*
X20337Y-22232D01*
X20256Y-22035D01*
X20256Y-21822D01*
X20338Y-21626D01*
X20430Y-21532D01*
X20353Y-21458D01*
X20279Y-21276D01*
X20327Y-21192D01*
X20327Y-21092D01*
X20279Y-21008D01*
X20353Y-20826D01*
X20509Y-20676D01*
X20710Y-20597D01*
X21052Y-20597D01*
X21052Y-21092D01*
X20327Y-21092D01*
X20327Y-21192D01*
X21052Y-21192D01*
X21152Y-21192D01*
X21152Y-21092D01*
X21152Y-20597D01*
X21494Y-20597D01*
X21695Y-20676D01*
X21851Y-20826D01*
X21925Y-21008D01*
X21877Y-21092D01*
X21152Y-21092D01*
X21152Y-21192D01*
X21877Y-21192D01*
X21925Y-21276D01*
X21851Y-21458D01*
X21773Y-21532D01*
X21867Y-21626D01*
X21872Y-21639D01*
X22085Y-21639D01*
X22356Y-21368D01*
X22356Y-21367D01*
X22357Y-21367D01*
X22451Y-21304D01*
X22562Y-21282D01*
X22952Y-21282D01*
X22952Y-21130D01*
X22906Y-21084D01*
X22868Y-20992D01*
X22868Y-20579D01*
X22906Y-20488D01*
X22976Y-20418D01*
X23068Y-20380D01*
X23417Y-20380D01*
X23508Y-20418D01*
X23541Y-20451D01*
X23576Y-20418D01*
X23668Y-20380D01*
X23879Y-20380D01*
X23929Y-20306D01*
X24124Y-20110D01*
X24219Y-20047D01*
X24264Y-20038D01*
X19960Y-20038D01*
X19960Y-32087D01*
X31131Y-32087D01*
X31131Y-23994D01*
X31040Y-23956D01*
X30970Y-23886D01*
X30932Y-23794D01*
X30932Y-23301D01*
X30970Y-23210D01*
X31040Y-23140D01*
X31132Y-23102D01*
X32215Y-23102D01*
X32306Y-23140D01*
X32352Y-23185D01*
X32352Y-23010D01*
X32261Y-22972D01*
X32191Y-22902D01*
X32153Y-22810D01*
X32153Y-22317D01*
X32191Y-22226D01*
X32261Y-22156D01*
X32353Y-22118D01*
X33238Y-22118D01*
X33329Y-22156D01*
X33399Y-22226D01*
X33437Y-22318D01*
X33437Y-22811D01*
X33399Y-22902D01*
X33329Y-22972D01*
X33237Y-23010D01*
X32352Y-23010D01*
X32352Y-23185D01*
X32376Y-23210D01*
X32414Y-23302D01*
X32414Y-23795D01*
X32376Y-23886D01*
X32306Y-23956D01*
X32214Y-23994D01*
X31131Y-23994D01*
X31131Y-32087D01*
X31486Y-32087D01*
X31486Y-30569D01*
X31395Y-30531D01*
X31325Y-30461D01*
X31287Y-30369D01*
X31287Y-29876D01*
X31325Y-29785D01*
X31326Y-29783D01*
X31325Y-29782D01*
X31287Y-29690D01*
X31287Y-29197D01*
X31325Y-29106D01*
X31395Y-29036D01*
X31476Y-29002D01*
X31476Y-28916D01*
X31385Y-28878D01*
X31315Y-28808D01*
X31277Y-28716D01*
X31277Y-28223D01*
X31315Y-28132D01*
X31385Y-28062D01*
X31477Y-28024D01*
X31496Y-28024D01*
X31496Y-27941D01*
X31405Y-27903D01*
X31335Y-27833D01*
X31297Y-27741D01*
X31297Y-27248D01*
X31335Y-27157D01*
X31405Y-27087D01*
X31497Y-27049D01*
X31555Y-27049D01*
X31555Y-26957D01*
X31464Y-26919D01*
X31394Y-26849D01*
X31356Y-26757D01*
X31356Y-26264D01*
X31394Y-26173D01*
X31446Y-26120D01*
X31425Y-26111D01*
X31355Y-26041D01*
X31317Y-25949D01*
X31317Y-25064D01*
X31355Y-24973D01*
X31425Y-24903D01*
X31493Y-24874D01*
X31464Y-24862D01*
X31394Y-24792D01*
X31356Y-24700D01*
X31356Y-24207D01*
X31394Y-24116D01*
X31464Y-24046D01*
X31556Y-24008D01*
X32441Y-24008D01*
X32532Y-24046D01*
X32602Y-24116D01*
X32640Y-24208D01*
X32640Y-24701D01*
X32602Y-24792D01*
X32532Y-24862D01*
X32463Y-24890D01*
X32493Y-24903D01*
X32563Y-24973D01*
X32601Y-25065D01*
X32601Y-25950D01*
X32563Y-26041D01*
X32510Y-26093D01*
X32532Y-26103D01*
X32602Y-26173D01*
X32640Y-26265D01*
X32640Y-26758D01*
X32602Y-26849D01*
X32532Y-26919D01*
X32440Y-26957D01*
X31555Y-26957D01*
X31555Y-27049D01*
X32382Y-27049D01*
X32473Y-27087D01*
X32543Y-27157D01*
X32581Y-27249D01*
X32581Y-27742D01*
X32543Y-27833D01*
X32473Y-27903D01*
X32381Y-27941D01*
X31496Y-27941D01*
X31496Y-28024D01*
X32362Y-28024D01*
X32453Y-28062D01*
X32523Y-28132D01*
X32561Y-28224D01*
X32561Y-28717D01*
X32523Y-28808D01*
X32453Y-28878D01*
X32361Y-28916D01*
X31476Y-28916D01*
X31476Y-29002D01*
X31487Y-28998D01*
X32372Y-28998D01*
X32463Y-29036D01*
X32533Y-29106D01*
X32571Y-29198D01*
X32571Y-29691D01*
X32533Y-29782D01*
X32531Y-29783D01*
X32533Y-29785D01*
X32571Y-29877D01*
X32571Y-30370D01*
X32533Y-30461D01*
X32463Y-30531D01*
X32371Y-30569D01*
X31486Y-30569D01*
X31486Y-32087D01*
X31740Y-32087D01*
X31740Y-31442D01*
X31778Y-31351D01*
X31848Y-31281D01*
X31940Y-31243D01*
X34519Y-31243D01*
X34610Y-31281D01*
X34680Y-31351D01*
X34718Y-31443D01*
X34718Y-32087D01*
X36279Y-32087D01*
X36279Y-21071D01*
X36188Y-21033D01*
X36118Y-20963D01*
X36080Y-20871D01*
X36080Y-20300D01*
X36118Y-20209D01*
X36188Y-20139D01*
X36280Y-20101D01*
X37245Y-20101D01*
X37336Y-20139D01*
X37406Y-20209D01*
X37444Y-20301D01*
X37444Y-20872D01*
X37406Y-20963D01*
X37336Y-21033D01*
X37244Y-21071D01*
X36279Y-21071D01*
X36279Y-32087D01*
X36705Y-32087D01*
X36631Y-32056D01*
X36561Y-31986D01*
X36523Y-31894D01*
X36523Y-31323D01*
X36561Y-31232D01*
X36631Y-31162D01*
X36723Y-31124D01*
X37389Y-31124D01*
X37389Y-30890D01*
X37488Y-30654D01*
X37669Y-30474D01*
X37903Y-30376D01*
X37903Y-22134D01*
X37667Y-22035D01*
X37487Y-21854D01*
X37389Y-21618D01*
X37389Y-21362D01*
X37488Y-21126D01*
X37669Y-20946D01*
X37905Y-20848D01*
X38161Y-20848D01*
X38397Y-20947D01*
X38577Y-21128D01*
X38675Y-21364D01*
X38675Y-21620D01*
X38576Y-21856D01*
X38395Y-22036D01*
X38159Y-22134D01*
X37903Y-22134D01*
X37903Y-30376D01*
X38161Y-30376D01*
X38397Y-30475D01*
X38577Y-30656D01*
X38675Y-30892D01*
X38675Y-31148D01*
X38576Y-31384D01*
X38395Y-31564D01*
X38159Y-31662D01*
X37903Y-31662D01*
X37887Y-31655D01*
X37887Y-31895D01*
X37849Y-31986D01*
X37779Y-32056D01*
X37703Y-32087D01*
X39016Y-32087D01*
X19960Y-20038D02*
X24264Y-20038D01*
X26088Y-20038D02*
X39016Y-20038D01*
X19960Y-20118D02*
X24117Y-20118D01*
X26236Y-20118D02*
X36239Y-20118D01*
X37286Y-20118D02*
X39016Y-20118D01*
X19960Y-20198D02*
X24037Y-20198D01*
X26316Y-20198D02*
X36129Y-20198D01*
X37395Y-20198D02*
X39016Y-20198D01*
X19960Y-20278D02*
X23957Y-20278D01*
X26509Y-20278D02*
X26544Y-20278D01*
X27108Y-20278D02*
X27144Y-20278D01*
X27708Y-20278D02*
X36090Y-20278D01*
X37435Y-20278D02*
X39016Y-20278D01*
X19960Y-20358D02*
X23894Y-20358D01*
X28123Y-20358D02*
X36080Y-20358D01*
X37444Y-20358D02*
X39016Y-20358D01*
X19960Y-20438D02*
X22956Y-20438D01*
X23528Y-20438D02*
X23555Y-20438D01*
X28250Y-20438D02*
X36080Y-20438D01*
X37444Y-20438D02*
X39016Y-20438D01*
X19960Y-20518D02*
X22894Y-20518D01*
X28330Y-20518D02*
X36080Y-20518D01*
X37444Y-20518D02*
X39016Y-20518D01*
X19960Y-20598D02*
X20708Y-20598D01*
X21052Y-20598D02*
X21152Y-20598D01*
X21497Y-20598D02*
X22868Y-20598D01*
X28410Y-20598D02*
X36080Y-20598D01*
X37444Y-20598D02*
X39016Y-20598D01*
X19960Y-20678D02*
X20507Y-20678D01*
X21052Y-20678D02*
X21152Y-20678D01*
X21698Y-20678D02*
X22868Y-20678D01*
X28490Y-20678D02*
X36080Y-20678D01*
X37444Y-20678D02*
X39016Y-20678D01*
X19960Y-20758D02*
X20424Y-20758D01*
X21052Y-20758D02*
X21152Y-20758D01*
X21781Y-20758D02*
X22868Y-20758D01*
X28570Y-20758D02*
X29581Y-20758D01*
X29948Y-20758D02*
X36080Y-20758D01*
X37444Y-20758D02*
X39016Y-20758D01*
X19960Y-20838D02*
X20349Y-20838D01*
X21052Y-20838D02*
X21152Y-20838D01*
X21856Y-20838D02*
X22868Y-20838D01*
X28650Y-20838D02*
X29467Y-20838D01*
X30061Y-20838D02*
X36080Y-20838D01*
X37444Y-20838D02*
X39016Y-20838D01*
X19960Y-20918D02*
X20316Y-20918D01*
X21052Y-20918D02*
X21152Y-20918D01*
X21889Y-20918D02*
X22868Y-20918D01*
X28711Y-20918D02*
X29397Y-20918D01*
X30132Y-20918D02*
X36099Y-20918D01*
X37424Y-20918D02*
X37737Y-20918D01*
X38328Y-20918D02*
X39016Y-20918D01*
X19960Y-20998D02*
X20284Y-20998D01*
X21052Y-20998D02*
X21152Y-20998D01*
X21921Y-20998D02*
X22870Y-20998D01*
X28743Y-20998D02*
X29364Y-20998D01*
X30165Y-20998D02*
X36153Y-20998D01*
X37371Y-20998D02*
X37617Y-20998D01*
X38448Y-20998D02*
X39016Y-20998D01*
X19960Y-21078D02*
X20319Y-21078D01*
X21052Y-21078D02*
X21152Y-21078D01*
X21885Y-21078D02*
X22903Y-21078D01*
X28755Y-21078D02*
X29339Y-21078D01*
X30189Y-21078D02*
X37537Y-21078D01*
X38528Y-21078D02*
X39016Y-21078D01*
X19960Y-21158D02*
X22952Y-21158D01*
X28755Y-21158D02*
X29339Y-21158D01*
X30189Y-21158D02*
X37475Y-21158D01*
X38590Y-21158D02*
X39016Y-21158D01*
X19960Y-21238D02*
X20301Y-21238D01*
X21904Y-21238D02*
X22952Y-21238D01*
X28755Y-21238D02*
X29343Y-21238D01*
X30184Y-21238D02*
X37442Y-21238D01*
X38623Y-21238D02*
X39016Y-21238D01*
X19960Y-21318D02*
X20296Y-21318D01*
X21907Y-21318D02*
X22431Y-21318D01*
X28755Y-21318D02*
X29376Y-21318D01*
X30151Y-21318D02*
X37408Y-21318D01*
X38656Y-21318D02*
X39016Y-21318D01*
X19960Y-21398D02*
X20328Y-21398D01*
X21875Y-21398D02*
X22326Y-21398D01*
X28755Y-21398D02*
X29419Y-21398D01*
X30109Y-21398D02*
X37389Y-21398D01*
X38675Y-21398D02*
X39016Y-21398D01*
X19960Y-21478D02*
X20373Y-21478D01*
X21829Y-21478D02*
X22246Y-21478D01*
X28755Y-21478D02*
X29474Y-21478D01*
X30054Y-21478D02*
X37389Y-21478D01*
X38675Y-21478D02*
X39016Y-21478D01*
X19960Y-21558D02*
X20405Y-21558D01*
X21799Y-21558D02*
X22166Y-21558D01*
X28755Y-21558D02*
X29474Y-21558D01*
X30054Y-21558D02*
X37389Y-21558D01*
X38675Y-21558D02*
X39016Y-21558D01*
X19960Y-21638D02*
X20333Y-21638D01*
X21872Y-21638D02*
X22086Y-21638D01*
X28755Y-21638D02*
X29474Y-21638D01*
X30054Y-21638D02*
X37397Y-21638D01*
X38667Y-21638D02*
X39016Y-21638D01*
X19960Y-21718D02*
X20300Y-21718D01*
X28755Y-21718D02*
X29474Y-21718D01*
X30054Y-21718D02*
X37430Y-21718D01*
X38633Y-21718D02*
X39016Y-21718D01*
X19960Y-21798D02*
X20267Y-21798D01*
X28755Y-21798D02*
X29474Y-21798D01*
X30054Y-21798D02*
X37463Y-21798D01*
X38600Y-21798D02*
X39016Y-21798D01*
X19960Y-21878D02*
X20256Y-21878D01*
X28755Y-21878D02*
X29474Y-21878D01*
X30054Y-21878D02*
X37510Y-21878D01*
X38553Y-21878D02*
X39016Y-21878D01*
X19960Y-21958D02*
X20256Y-21958D01*
X28755Y-21958D02*
X29474Y-21958D01*
X30054Y-21958D02*
X37590Y-21958D01*
X38473Y-21958D02*
X39016Y-21958D01*
X19960Y-22038D02*
X20257Y-22038D01*
X28755Y-22038D02*
X29474Y-22038D01*
X30054Y-22038D02*
X37674Y-22038D01*
X38390Y-22038D02*
X39016Y-22038D01*
X19960Y-22118D02*
X20290Y-22118D01*
X28810Y-22118D02*
X29474Y-22118D01*
X30054Y-22118D02*
X32353Y-22118D01*
X33238Y-22118D02*
X37864Y-22118D01*
X38197Y-22118D02*
X39016Y-22118D01*
X19960Y-22198D02*
X20323Y-22198D01*
X28943Y-22198D02*
X29474Y-22198D01*
X30054Y-22198D02*
X32219Y-22198D01*
X33371Y-22198D02*
X39016Y-22198D01*
X19960Y-22278D02*
X20383Y-22278D01*
X28993Y-22278D02*
X29474Y-22278D01*
X30054Y-22278D02*
X32170Y-22278D01*
X33421Y-22278D02*
X39016Y-22278D01*
X19960Y-22358D02*
X20393Y-22358D01*
X29009Y-22358D02*
X29474Y-22358D01*
X30054Y-22358D02*
X32153Y-22358D01*
X33437Y-22358D02*
X39016Y-22358D01*
X19960Y-22438D02*
X20328Y-22438D01*
X29009Y-22438D02*
X29474Y-22438D01*
X30054Y-22438D02*
X32153Y-22438D01*
X33437Y-22438D02*
X39016Y-22438D01*
X19960Y-22518D02*
X20295Y-22518D01*
X29009Y-22518D02*
X29474Y-22518D01*
X30054Y-22518D02*
X32153Y-22518D01*
X33437Y-22518D02*
X39016Y-22518D01*
X19960Y-22598D02*
X20261Y-22598D01*
X29009Y-22598D02*
X29474Y-22598D01*
X30054Y-22598D02*
X32153Y-22598D01*
X33437Y-22598D02*
X39016Y-22598D01*
X19960Y-22678D02*
X20256Y-22678D01*
X29009Y-22678D02*
X29474Y-22678D01*
X30054Y-22678D02*
X32153Y-22678D01*
X33437Y-22678D02*
X39016Y-22678D01*
X19960Y-22758D02*
X20256Y-22758D01*
X29009Y-22758D02*
X29474Y-22758D01*
X30054Y-22758D02*
X32153Y-22758D01*
X33437Y-22758D02*
X39016Y-22758D01*
X19960Y-22838D02*
X20262Y-22838D01*
X28997Y-22838D02*
X29474Y-22838D01*
X30054Y-22838D02*
X32164Y-22838D01*
X33425Y-22838D02*
X39016Y-22838D01*
X19960Y-22918D02*
X20295Y-22918D01*
X28955Y-22918D02*
X29474Y-22918D01*
X30054Y-22918D02*
X32207Y-22918D01*
X33383Y-22918D02*
X39016Y-22918D01*
X19960Y-22998D02*
X20328Y-22998D01*
X28838Y-22998D02*
X29474Y-22998D01*
X30054Y-22998D02*
X32323Y-22998D01*
X33266Y-22998D02*
X39016Y-22998D01*
X19960Y-23078D02*
X20396Y-23078D01*
X28405Y-23078D02*
X29474Y-23078D01*
X30054Y-23078D02*
X39016Y-23078D01*
X19960Y-23158D02*
X20380Y-23158D01*
X28919Y-23158D02*
X29474Y-23158D01*
X30054Y-23158D02*
X31022Y-23158D01*
X32325Y-23158D02*
X39016Y-23158D01*
X19960Y-23238D02*
X20323Y-23238D01*
X28983Y-23238D02*
X29474Y-23238D01*
X30054Y-23238D02*
X30959Y-23238D01*
X32388Y-23238D02*
X39016Y-23238D01*
X19960Y-23318D02*
X20289Y-23318D01*
X29009Y-23318D02*
X29474Y-23318D01*
X30054Y-23318D02*
X30932Y-23318D01*
X32414Y-23318D02*
X39016Y-23318D01*
X19960Y-23398D02*
X20256Y-23398D01*
X29009Y-23398D02*
X29474Y-23398D01*
X30054Y-23398D02*
X30932Y-23398D01*
X32414Y-23398D02*
X39016Y-23398D01*
X19960Y-23478D02*
X20256Y-23478D01*
X29009Y-23478D02*
X29474Y-23478D01*
X30054Y-23478D02*
X30932Y-23478D01*
X32414Y-23478D02*
X39016Y-23478D01*
X19960Y-23558D02*
X20256Y-23558D01*
X29009Y-23558D02*
X29474Y-23558D01*
X30054Y-23558D02*
X30932Y-23558D01*
X32414Y-23558D02*
X39016Y-23558D01*
X19960Y-23638D02*
X20267Y-23638D01*
X29009Y-23638D02*
X29474Y-23638D01*
X30054Y-23638D02*
X30932Y-23638D01*
X32414Y-23638D02*
X39016Y-23638D01*
X19960Y-23718D02*
X20300Y-23718D01*
X29009Y-23718D02*
X29474Y-23718D01*
X30054Y-23718D02*
X30932Y-23718D01*
X32414Y-23718D02*
X39016Y-23718D01*
X19960Y-23798D02*
X20333Y-23798D01*
X30059Y-23798D02*
X30933Y-23798D01*
X32412Y-23798D02*
X39016Y-23798D01*
X19960Y-23878D02*
X20409Y-23878D01*
X30075Y-23878D02*
X30966Y-23878D01*
X32379Y-23878D02*
X39016Y-23878D01*
X19960Y-23958D02*
X20368Y-23958D01*
X30081Y-23958D02*
X31044Y-23958D01*
X32301Y-23958D02*
X39016Y-23958D01*
X19960Y-24038D02*
X20318Y-24038D01*
X30081Y-24038D02*
X31484Y-24038D01*
X32513Y-24038D02*
X39016Y-24038D01*
X19960Y-24118D02*
X20284Y-24118D01*
X30081Y-24118D02*
X31394Y-24118D01*
X32603Y-24118D02*
X39016Y-24118D01*
X19960Y-24198D02*
X20256Y-24198D01*
X30081Y-24198D02*
X31360Y-24198D01*
X32636Y-24198D02*
X39016Y-24198D01*
X19960Y-24278D02*
X20256Y-24278D01*
X30081Y-24278D02*
X31356Y-24278D01*
X32640Y-24278D02*
X39016Y-24278D01*
X19960Y-24358D02*
X20256Y-24358D01*
X30081Y-24358D02*
X31356Y-24358D01*
X32640Y-24358D02*
X39016Y-24358D01*
X19960Y-24438D02*
X20272Y-24438D01*
X30081Y-24438D02*
X31356Y-24438D01*
X32640Y-24438D02*
X39016Y-24438D01*
X19960Y-24518D02*
X20305Y-24518D01*
X30081Y-24518D02*
X31356Y-24518D01*
X32640Y-24518D02*
X39016Y-24518D01*
X19960Y-24598D02*
X20341Y-24598D01*
X30081Y-24598D02*
X31356Y-24598D01*
X32640Y-24598D02*
X39016Y-24598D01*
X19960Y-24678D02*
X20421Y-24678D01*
X30081Y-24678D02*
X31356Y-24678D01*
X32640Y-24678D02*
X39016Y-24678D01*
X19960Y-24758D02*
X20355Y-24758D01*
X30081Y-24758D02*
X31379Y-24758D01*
X32616Y-24758D02*
X39016Y-24758D01*
X19960Y-24838D02*
X20312Y-24838D01*
X30081Y-24838D02*
X31440Y-24838D01*
X32556Y-24838D02*
X39016Y-24838D01*
X19960Y-24918D02*
X20279Y-24918D01*
X30081Y-24918D02*
X31410Y-24918D01*
X32508Y-24918D02*
X39016Y-24918D01*
X19960Y-24998D02*
X20256Y-24998D01*
X30081Y-24998D02*
X31345Y-24998D01*
X32574Y-24998D02*
X39016Y-24998D01*
X19960Y-25078D02*
X20256Y-25078D01*
X30081Y-25078D02*
X31317Y-25078D01*
X32601Y-25078D02*
X39016Y-25078D01*
X19960Y-25158D02*
X20256Y-25158D01*
X30081Y-25158D02*
X31317Y-25158D01*
X32601Y-25158D02*
X39016Y-25158D01*
X19960Y-25238D02*
X20278Y-25238D01*
X30081Y-25238D02*
X31317Y-25238D01*
X32601Y-25238D02*
X39016Y-25238D01*
X19960Y-25318D02*
X20311Y-25318D01*
X30081Y-25318D02*
X31317Y-25318D01*
X32601Y-25318D02*
X39016Y-25318D01*
X19960Y-25398D02*
X20354Y-25398D01*
X30081Y-25398D02*
X31317Y-25398D01*
X32601Y-25398D02*
X39016Y-25398D01*
X19960Y-25478D02*
X20422Y-25478D01*
X30081Y-25478D02*
X31317Y-25478D01*
X32601Y-25478D02*
X39016Y-25478D01*
X19960Y-25558D02*
X20342Y-25558D01*
X30081Y-25558D02*
X31317Y-25558D01*
X32601Y-25558D02*
X39016Y-25558D01*
X19960Y-25638D02*
X20307Y-25638D01*
X30081Y-25638D02*
X31317Y-25638D01*
X32601Y-25638D02*
X39016Y-25638D01*
X19960Y-25718D02*
X20273Y-25718D01*
X30081Y-25718D02*
X31317Y-25718D01*
X32601Y-25718D02*
X39016Y-25718D01*
X19960Y-25798D02*
X20256Y-25798D01*
X30081Y-25798D02*
X31317Y-25798D01*
X32601Y-25798D02*
X39016Y-25798D01*
X19960Y-25878D02*
X20256Y-25878D01*
X30081Y-25878D02*
X31317Y-25878D01*
X32601Y-25878D02*
X39016Y-25878D01*
X19960Y-25958D02*
X20256Y-25958D01*
X30081Y-25958D02*
X31320Y-25958D01*
X32597Y-25958D02*
X39016Y-25958D01*
X19960Y-26038D02*
X20283Y-26038D01*
X30081Y-26038D02*
X31353Y-26038D01*
X32564Y-26038D02*
X39016Y-26038D01*
X19960Y-26118D02*
X20316Y-26118D01*
X30073Y-26118D02*
X31441Y-26118D01*
X32547Y-26118D02*
X39016Y-26118D01*
X19960Y-26198D02*
X20320Y-26198D01*
X21884Y-26198D02*
X23653Y-26198D01*
X30052Y-26198D02*
X31384Y-26198D01*
X32613Y-26198D02*
X39016Y-26198D01*
X19960Y-26278D02*
X20276Y-26278D01*
X21929Y-26278D02*
X23630Y-26278D01*
X29999Y-26278D02*
X31356Y-26278D01*
X32640Y-26278D02*
X39016Y-26278D01*
X19960Y-26358D02*
X20263Y-26358D01*
X21941Y-26358D02*
X23630Y-26358D01*
X29920Y-26358D02*
X31356Y-26358D01*
X32640Y-26358D02*
X39016Y-26358D01*
X19960Y-26438D02*
X20263Y-26438D01*
X21941Y-26438D02*
X23636Y-26438D01*
X29839Y-26438D02*
X31356Y-26438D01*
X32640Y-26438D02*
X39016Y-26438D01*
X19960Y-26518D02*
X20263Y-26518D01*
X21941Y-26518D02*
X23669Y-26518D01*
X29795Y-26518D02*
X31356Y-26518D01*
X32640Y-26518D02*
X39016Y-26518D01*
X19960Y-26598D02*
X20263Y-26598D01*
X21941Y-26598D02*
X23714Y-26598D01*
X29875Y-26598D02*
X31356Y-26598D01*
X32640Y-26598D02*
X39016Y-26598D01*
X19960Y-26678D02*
X20263Y-26678D01*
X21941Y-26678D02*
X23765Y-26678D01*
X29955Y-26678D02*
X31356Y-26678D01*
X32640Y-26678D02*
X39016Y-26678D01*
X19960Y-26758D02*
X20263Y-26758D01*
X21941Y-26758D02*
X23765Y-26758D01*
X30023Y-26758D02*
X31356Y-26758D01*
X32640Y-26758D02*
X39016Y-26758D01*
X19960Y-26838D02*
X20263Y-26838D01*
X21941Y-26838D02*
X23765Y-26838D01*
X30064Y-26838D02*
X31389Y-26838D01*
X32606Y-26838D02*
X39016Y-26838D01*
X19960Y-26918D02*
X20263Y-26918D01*
X21941Y-26918D02*
X23765Y-26918D01*
X30080Y-26918D02*
X31463Y-26918D01*
X32533Y-26918D02*
X39016Y-26918D01*
X19960Y-26998D02*
X20263Y-26998D01*
X21941Y-26998D02*
X23765Y-26998D01*
X30081Y-26998D02*
X39016Y-26998D01*
X19960Y-27078D02*
X20296Y-27078D01*
X21907Y-27078D02*
X23765Y-27078D01*
X30081Y-27078D02*
X31427Y-27078D01*
X32452Y-27078D02*
X39016Y-27078D01*
X19960Y-27158D02*
X20370Y-27158D01*
X21834Y-27158D02*
X23765Y-27158D01*
X30081Y-27158D02*
X31335Y-27158D01*
X32544Y-27158D02*
X39016Y-27158D01*
X19960Y-27238D02*
X23765Y-27238D01*
X30081Y-27238D02*
X31302Y-27238D01*
X32577Y-27238D02*
X39016Y-27238D01*
X19960Y-27318D02*
X23765Y-27318D01*
X30081Y-27318D02*
X31297Y-27318D01*
X32581Y-27318D02*
X39016Y-27318D01*
X19960Y-27398D02*
X23765Y-27398D01*
X30081Y-27398D02*
X31297Y-27398D01*
X32581Y-27398D02*
X39016Y-27398D01*
X19960Y-27478D02*
X23765Y-27478D01*
X30081Y-27478D02*
X31297Y-27478D01*
X32581Y-27478D02*
X39016Y-27478D01*
X19960Y-27558D02*
X23765Y-27558D01*
X30081Y-27558D02*
X31297Y-27558D01*
X32581Y-27558D02*
X39016Y-27558D01*
X19960Y-27638D02*
X23772Y-27638D01*
X30081Y-27638D02*
X31297Y-27638D01*
X32581Y-27638D02*
X39016Y-27638D01*
X19960Y-27718D02*
X23793Y-27718D01*
X30081Y-27718D02*
X31297Y-27718D01*
X32581Y-27718D02*
X39016Y-27718D01*
X19960Y-27798D02*
X23846Y-27798D01*
X30081Y-27798D02*
X31320Y-27798D01*
X32557Y-27798D02*
X39016Y-27798D01*
X19960Y-27878D02*
X23925Y-27878D01*
X30081Y-27878D02*
X31380Y-27878D01*
X32498Y-27878D02*
X39016Y-27878D01*
X19960Y-27958D02*
X24005Y-27958D01*
X30081Y-27958D02*
X39016Y-27958D01*
X19960Y-28038D02*
X24085Y-28038D01*
X30081Y-28038D02*
X31444Y-28038D01*
X32396Y-28038D02*
X39016Y-28038D01*
X19960Y-28118D02*
X24165Y-28118D01*
X30081Y-28118D02*
X31329Y-28118D01*
X32509Y-28118D02*
X39016Y-28118D01*
X19960Y-28198D02*
X24245Y-28198D01*
X30081Y-28198D02*
X31288Y-28198D01*
X32551Y-28198D02*
X39016Y-28198D01*
X19960Y-28278D02*
X24325Y-28278D01*
X30081Y-28278D02*
X31277Y-28278D01*
X32561Y-28278D02*
X39016Y-28278D01*
X19960Y-28358D02*
X24405Y-28358D01*
X30081Y-28358D02*
X31277Y-28358D01*
X32561Y-28358D02*
X39016Y-28358D01*
X19960Y-28438D02*
X24485Y-28438D01*
X30081Y-28438D02*
X31277Y-28438D01*
X32561Y-28438D02*
X39016Y-28438D01*
X19960Y-28518D02*
X24565Y-28518D01*
X30081Y-28518D02*
X31277Y-28518D01*
X32561Y-28518D02*
X39016Y-28518D01*
X19960Y-28598D02*
X24645Y-28598D01*
X30081Y-28598D02*
X31277Y-28598D01*
X32561Y-28598D02*
X39016Y-28598D01*
X19960Y-28678D02*
X24725Y-28678D01*
X30081Y-28678D02*
X31277Y-28678D01*
X32561Y-28678D02*
X39016Y-28678D01*
X19960Y-28758D02*
X24805Y-28758D01*
X30081Y-28758D02*
X31294Y-28758D01*
X32543Y-28758D02*
X39016Y-28758D01*
X19960Y-28838D02*
X24885Y-28838D01*
X30081Y-28838D02*
X31345Y-28838D01*
X32493Y-28838D02*
X39016Y-28838D01*
X19960Y-28918D02*
X24965Y-28918D01*
X30081Y-28918D02*
X39016Y-28918D01*
X19960Y-28998D02*
X25045Y-28998D01*
X30081Y-28998D02*
X31487Y-28998D01*
X32372Y-28998D02*
X39016Y-28998D01*
X19960Y-29078D02*
X25125Y-29078D01*
X30081Y-29078D02*
X31353Y-29078D01*
X32505Y-29078D02*
X39016Y-29078D01*
X19960Y-29158D02*
X25205Y-29158D01*
X30081Y-29158D02*
X31304Y-29158D01*
X32555Y-29158D02*
X39016Y-29158D01*
X19960Y-29238D02*
X25285Y-29238D01*
X30081Y-29238D02*
X31287Y-29238D01*
X32571Y-29238D02*
X39016Y-29238D01*
X19960Y-29318D02*
X25365Y-29318D01*
X30081Y-29318D02*
X31287Y-29318D01*
X32571Y-29318D02*
X39016Y-29318D01*
X19960Y-29398D02*
X25445Y-29398D01*
X30081Y-29398D02*
X31287Y-29398D01*
X32571Y-29398D02*
X39016Y-29398D01*
X19960Y-29478D02*
X25525Y-29478D01*
X30081Y-29478D02*
X31287Y-29478D01*
X32571Y-29478D02*
X39016Y-29478D01*
X19960Y-29558D02*
X25605Y-29558D01*
X30081Y-29558D02*
X31287Y-29558D01*
X32571Y-29558D02*
X39016Y-29558D01*
X19960Y-29638D02*
X25689Y-29638D01*
X30081Y-29638D02*
X31287Y-29638D01*
X32571Y-29638D02*
X39016Y-29638D01*
X19960Y-29718D02*
X26844Y-29718D01*
X30081Y-29718D02*
X31298Y-29718D01*
X32559Y-29718D02*
X39016Y-29718D01*
X19960Y-29798D02*
X26724Y-29798D01*
X30081Y-29798D02*
X31320Y-29798D01*
X32539Y-29798D02*
X39016Y-29798D01*
X19960Y-29878D02*
X26681Y-29878D01*
X30081Y-29878D02*
X31287Y-29878D01*
X32571Y-29878D02*
X39016Y-29878D01*
X19960Y-29958D02*
X26668Y-29958D01*
X30081Y-29958D02*
X31287Y-29958D01*
X32571Y-29958D02*
X39016Y-29958D01*
X19960Y-30038D02*
X26668Y-30038D01*
X30081Y-30038D02*
X31287Y-30038D01*
X32571Y-30038D02*
X39016Y-30038D01*
X19960Y-30118D02*
X26668Y-30118D01*
X30081Y-30118D02*
X31287Y-30118D01*
X32571Y-30118D02*
X39016Y-30118D01*
X19960Y-30198D02*
X26668Y-30198D01*
X30081Y-30198D02*
X31287Y-30198D01*
X32571Y-30198D02*
X39016Y-30198D01*
X19960Y-30278D02*
X26668Y-30278D01*
X30078Y-30278D02*
X31287Y-30278D01*
X32571Y-30278D02*
X39016Y-30278D01*
X19960Y-30358D02*
X26683Y-30358D01*
X30062Y-30358D02*
X31287Y-30358D01*
X32571Y-30358D02*
X39016Y-30358D01*
X19960Y-30438D02*
X26732Y-30438D01*
X30018Y-30438D02*
X31315Y-30438D01*
X32542Y-30438D02*
X37755Y-30438D01*
X38309Y-30438D02*
X39016Y-30438D01*
X19960Y-30518D02*
X26752Y-30518D01*
X29950Y-30518D02*
X31382Y-30518D01*
X32476Y-30518D02*
X37625Y-30518D01*
X38440Y-30518D02*
X39016Y-30518D01*
X19960Y-30598D02*
X26760Y-30598D01*
X29870Y-30598D02*
X37545Y-30598D01*
X38520Y-30598D02*
X39016Y-30598D01*
X19960Y-30678D02*
X26780Y-30678D01*
X29790Y-30678D02*
X37478Y-30678D01*
X38587Y-30678D02*
X39016Y-30678D01*
X19960Y-30758D02*
X26834Y-30758D01*
X29710Y-30758D02*
X37445Y-30758D01*
X38620Y-30758D02*
X39016Y-30758D01*
X19960Y-30838D02*
X26913Y-30838D01*
X29630Y-30838D02*
X37411Y-30838D01*
X38653Y-30838D02*
X39016Y-30838D01*
X19960Y-30918D02*
X26993Y-30918D01*
X29550Y-30918D02*
X37389Y-30918D01*
X38675Y-30918D02*
X39016Y-30918D01*
X19960Y-30998D02*
X27103Y-30998D01*
X29439Y-30998D02*
X37389Y-30998D01*
X38675Y-30998D02*
X39016Y-30998D01*
X19960Y-31078D02*
X27958Y-31078D01*
X28973Y-31078D02*
X37389Y-31078D01*
X38675Y-31078D02*
X39016Y-31078D01*
X19960Y-31158D02*
X27924Y-31158D01*
X29006Y-31158D02*
X36641Y-31158D01*
X38670Y-31158D02*
X39016Y-31158D01*
X19960Y-31238D02*
X27921Y-31238D01*
X29009Y-31238D02*
X36559Y-31238D01*
X38637Y-31238D02*
X39016Y-31238D01*
X19960Y-31318D02*
X27921Y-31318D01*
X29009Y-31318D02*
X31811Y-31318D01*
X34647Y-31318D02*
X36526Y-31318D01*
X38603Y-31318D02*
X39016Y-31318D01*
X19960Y-31398D02*
X27921Y-31398D01*
X29009Y-31398D02*
X31759Y-31398D01*
X34700Y-31398D02*
X36523Y-31398D01*
X38561Y-31398D02*
X39016Y-31398D01*
X19960Y-31478D02*
X27921Y-31478D01*
X29009Y-31478D02*
X31740Y-31478D01*
X34718Y-31478D02*
X36523Y-31478D01*
X38481Y-31478D02*
X39016Y-31478D01*
X19960Y-31558D02*
X27921Y-31558D01*
X29009Y-31558D02*
X31740Y-31558D01*
X34718Y-31558D02*
X36523Y-31558D01*
X38401Y-31558D02*
X39016Y-31558D01*
X19960Y-31638D02*
X27921Y-31638D01*
X29009Y-31638D02*
X31740Y-31638D01*
X34718Y-31638D02*
X36523Y-31638D01*
X38216Y-31638D02*
X39016Y-31638D01*
X19960Y-31718D02*
X27945Y-31718D01*
X28984Y-31718D02*
X31740Y-31718D01*
X34718Y-31718D02*
X36523Y-31718D01*
X37887Y-31718D02*
X39016Y-31718D01*
X19960Y-31798D02*
X28007Y-31798D01*
X28923Y-31798D02*
X31740Y-31798D01*
X34718Y-31798D02*
X36523Y-31798D01*
X37887Y-31798D02*
X39016Y-31798D01*
X19960Y-31878D02*
X31740Y-31878D01*
X34718Y-31878D02*
X36523Y-31878D01*
X37887Y-31878D02*
X39016Y-31878D01*
X19960Y-31958D02*
X31740Y-31958D01*
X34718Y-31958D02*
X36549Y-31958D01*
X37860Y-31958D02*
X39016Y-31958D01*
X19960Y-32038D02*
X31740Y-32038D01*
X34718Y-32038D02*
X36613Y-32038D01*
X37797Y-32038D02*
X39016Y-32038D01*
X24793Y-25762D02*
X25273Y-25762D01*
X24874Y-25842D02*
X25353Y-25842D01*
X24954Y-25922D02*
X25433Y-25922D01*
X25026Y-26002D02*
X25513Y-26002D01*
X25074Y-26082D02*
X25593Y-26082D01*
X25090Y-26162D02*
X25673Y-26162D01*
X25093Y-26242D02*
X25753Y-26242D01*
X24480Y-26322D02*
X24513Y-26322D01*
X25093Y-26322D02*
X25833Y-26322D01*
X24480Y-26402D02*
X24513Y-26402D01*
X25093Y-26402D02*
X25913Y-26402D01*
X24455Y-26482D02*
X24513Y-26482D01*
X25093Y-26482D02*
X25993Y-26482D01*
X24422Y-26562D02*
X24513Y-26562D01*
X25093Y-26562D02*
X26073Y-26562D01*
X24352Y-26642D02*
X24513Y-26642D01*
X25093Y-26642D02*
X26153Y-26642D01*
X24345Y-26722D02*
X24513Y-26722D01*
X25093Y-26722D02*
X26262Y-26722D01*
X24345Y-26802D02*
X24513Y-26802D01*
X25093Y-26802D02*
X27080Y-26802D01*
X27690Y-26802D02*
X27943Y-26802D01*
X28986Y-26802D02*
X29259Y-26802D01*
X24345Y-26882D02*
X24513Y-26882D01*
X25093Y-26882D02*
X28002Y-26882D01*
X28928Y-26882D02*
X29339Y-26882D01*
X24345Y-26962D02*
X24513Y-26962D01*
X25093Y-26962D02*
X29419Y-26962D01*
X24345Y-27042D02*
X24513Y-27042D01*
X25093Y-27042D02*
X28114Y-27042D01*
X28818Y-27042D02*
X29499Y-27042D01*
X24345Y-27122D02*
X24513Y-27122D01*
X25130Y-27122D02*
X25408Y-27122D01*
X25960Y-27122D02*
X26008Y-27122D01*
X26560Y-27122D02*
X27984Y-27122D01*
X28946Y-27122D02*
X29501Y-27122D01*
X24345Y-27202D02*
X24513Y-27202D01*
X28994Y-27202D02*
X29501Y-27202D01*
X24345Y-27282D02*
X24528Y-27282D01*
X29009Y-27282D02*
X29501Y-27282D01*
X24345Y-27362D02*
X24565Y-27362D01*
X29009Y-27362D02*
X29501Y-27362D01*
X24345Y-27442D02*
X24630Y-27442D01*
X29009Y-27442D02*
X29501Y-27442D01*
X24389Y-27522D02*
X24710Y-27522D01*
X29009Y-27522D02*
X29501Y-27522D01*
X24469Y-27602D02*
X24790Y-27602D01*
X29009Y-27602D02*
X29501Y-27602D01*
X24549Y-27682D02*
X24870Y-27682D01*
X29009Y-27682D02*
X29501Y-27682D01*
X24629Y-27762D02*
X25037Y-27762D01*
X28996Y-27762D02*
X29501Y-27762D01*
X24709Y-27842D02*
X25412Y-27842D01*
X25955Y-27842D02*
X25994Y-27842D01*
X26574Y-27842D02*
X27978Y-27842D01*
X28952Y-27842D02*
X29501Y-27842D01*
X24789Y-27922D02*
X25994Y-27922D01*
X26574Y-27922D02*
X28098Y-27922D01*
X28830Y-27922D02*
X29501Y-27922D01*
X24869Y-28002D02*
X25994Y-28002D01*
X26574Y-28002D02*
X29501Y-28002D01*
X24949Y-28082D02*
X25994Y-28082D01*
X26574Y-28082D02*
X26682Y-28082D01*
X26827Y-28082D02*
X27001Y-28082D01*
X27147Y-28082D02*
X28009Y-28082D01*
X28412Y-28082D02*
X28518Y-28082D01*
X28921Y-28082D02*
X29501Y-28082D01*
X25029Y-28162D02*
X25982Y-28162D01*
X26864Y-28162D02*
X26964Y-28162D01*
X27246Y-28162D02*
X27947Y-28162D01*
X28415Y-28162D02*
X28515Y-28162D01*
X28984Y-28162D02*
X29501Y-28162D01*
X25109Y-28242D02*
X25947Y-28242D01*
X26864Y-28242D02*
X26964Y-28242D01*
X27282Y-28242D02*
X27921Y-28242D01*
X28415Y-28242D02*
X28515Y-28242D01*
X29010Y-28242D02*
X29501Y-28242D01*
X25189Y-28322D02*
X25940Y-28322D01*
X26864Y-28322D02*
X26964Y-28322D01*
X27288Y-28322D02*
X27921Y-28322D01*
X28415Y-28322D02*
X28515Y-28322D01*
X29010Y-28322D02*
X29501Y-28322D01*
X25269Y-28402D02*
X25940Y-28402D01*
X26864Y-28402D02*
X26964Y-28402D01*
X27239Y-28402D02*
X27964Y-28402D01*
X28415Y-28402D02*
X28515Y-28402D01*
X28966Y-28402D02*
X29501Y-28402D01*
X25349Y-28482D02*
X25940Y-28482D01*
X26864Y-28482D02*
X29501Y-28482D01*
X25429Y-28562D02*
X25940Y-28562D01*
X26864Y-28562D02*
X26964Y-28562D01*
X27275Y-28562D02*
X27940Y-28562D01*
X28415Y-28562D02*
X28515Y-28562D01*
X28990Y-28562D02*
X29501Y-28562D01*
X25509Y-28642D02*
X25940Y-28642D01*
X26864Y-28642D02*
X26964Y-28642D01*
X27288Y-28642D02*
X27920Y-28642D01*
X28415Y-28642D02*
X28515Y-28642D01*
X29009Y-28642D02*
X29501Y-28642D01*
X25589Y-28722D02*
X25961Y-28722D01*
X26864Y-28722D02*
X26964Y-28722D01*
X27266Y-28722D02*
X27923Y-28722D01*
X28415Y-28722D02*
X28515Y-28722D01*
X29006Y-28722D02*
X29501Y-28722D01*
X25669Y-28802D02*
X26018Y-28802D01*
X26608Y-28802D02*
X26618Y-28802D01*
X26864Y-28802D02*
X26964Y-28802D01*
X27210Y-28802D02*
X27956Y-28802D01*
X28415Y-28802D02*
X28515Y-28802D01*
X28973Y-28802D02*
X29501Y-28802D01*
X25749Y-28882D02*
X28038Y-28882D01*
X28388Y-28882D02*
X28542Y-28882D01*
X28891Y-28882D02*
X29501Y-28882D01*
X25829Y-28962D02*
X29501Y-28962D01*
X25909Y-29042D02*
X28003Y-29042D01*
X28927Y-29042D02*
X29501Y-29042D01*
X25989Y-29122D02*
X27943Y-29122D01*
X28986Y-29122D02*
X29501Y-29122D01*
X29009Y-29202D02*
X29501Y-29202D01*
X29009Y-29282D02*
X29501Y-29282D01*
X29009Y-29362D02*
X29501Y-29362D01*
X29009Y-29442D02*
X29501Y-29442D01*
X29009Y-29522D02*
X29501Y-29522D01*
X29009Y-29602D02*
X29501Y-29602D01*
X29004Y-29682D02*
X29501Y-29682D01*
X28974Y-29762D02*
X29501Y-29762D01*
X29007Y-29842D02*
X29501Y-29842D01*
X29009Y-29922D02*
X29501Y-29922D01*
X29009Y-30002D02*
X29501Y-30002D01*
X29009Y-30082D02*
X29501Y-30082D01*
X29009Y-30162D02*
X29486Y-30162D01*
X29009Y-30242D02*
X29406Y-30242D01*
X29009Y-30322D02*
X29326Y-30322D01*
X28983Y-30402D02*
X29246Y-30402D01*
X29009Y-24305D02*
X29501Y-24305D01*
X29009Y-24385D02*
X29501Y-24385D01*
X29009Y-24465D02*
X29501Y-24465D01*
X29009Y-24545D02*
X29501Y-24545D01*
X29009Y-24625D02*
X29501Y-24625D01*
X29009Y-24705D02*
X29501Y-24705D01*
X29006Y-24785D02*
X29501Y-24785D01*
X25978Y-24865D02*
X25988Y-24865D01*
X26579Y-24865D02*
X26656Y-24865D01*
X26838Y-24865D02*
X26990Y-24865D01*
X27173Y-24865D02*
X27950Y-24865D01*
X28980Y-24865D02*
X29501Y-24865D01*
X25675Y-24945D02*
X25976Y-24945D01*
X26864Y-24945D02*
X26964Y-24945D01*
X27253Y-24945D02*
X27921Y-24945D01*
X29009Y-24945D02*
X29501Y-24945D01*
X25595Y-25025D02*
X25942Y-25025D01*
X26864Y-25025D02*
X26964Y-25025D01*
X27287Y-25025D02*
X27921Y-25025D01*
X29009Y-25025D02*
X29501Y-25025D01*
X25515Y-25105D02*
X25940Y-25105D01*
X26864Y-25105D02*
X26964Y-25105D01*
X27288Y-25105D02*
X27921Y-25105D01*
X29009Y-25105D02*
X29501Y-25105D01*
X25435Y-25185D02*
X25940Y-25185D01*
X26864Y-25185D02*
X26964Y-25185D01*
X27228Y-25185D02*
X27921Y-25185D01*
X29009Y-25185D02*
X29501Y-25185D01*
X25596Y-25265D02*
X25940Y-25265D01*
X26864Y-25265D02*
X27921Y-25265D01*
X29009Y-25265D02*
X29501Y-25265D01*
X25676Y-25345D02*
X25940Y-25345D01*
X26864Y-25345D02*
X26964Y-25345D01*
X27286Y-25345D02*
X27921Y-25345D01*
X29009Y-25345D02*
X29501Y-25345D01*
X25756Y-25425D02*
X25940Y-25425D01*
X26864Y-25425D02*
X26964Y-25425D01*
X27288Y-25425D02*
X27921Y-25425D01*
X29009Y-25425D02*
X29501Y-25425D01*
X25836Y-25505D02*
X25966Y-25505D01*
X26864Y-25505D02*
X26964Y-25505D01*
X27281Y-25505D02*
X27491Y-25505D01*
X27608Y-25505D02*
X27952Y-25505D01*
X28976Y-25505D02*
X29501Y-25505D01*
X25916Y-25585D02*
X26029Y-25585D01*
X26597Y-25585D02*
X26629Y-25585D01*
X26860Y-25585D02*
X26968Y-25585D01*
X27336Y-25585D02*
X27436Y-25585D01*
X27732Y-25585D02*
X27922Y-25585D01*
X29009Y-25585D02*
X29501Y-25585D01*
X25996Y-25665D02*
X26994Y-25665D01*
X27336Y-25665D02*
X27436Y-25665D01*
X27778Y-25665D02*
X27921Y-25665D01*
X28415Y-25665D02*
X28515Y-25665D01*
X29010Y-25665D02*
X29501Y-25665D01*
X26076Y-25745D02*
X26980Y-25745D01*
X27336Y-25745D02*
X27436Y-25745D01*
X27793Y-25745D02*
X27945Y-25745D01*
X28415Y-25745D02*
X28515Y-25745D01*
X28985Y-25745D02*
X29501Y-25745D01*
X26156Y-25825D02*
X29501Y-25825D01*
X26236Y-25905D02*
X27959Y-25905D01*
X28971Y-25905D02*
X29501Y-25905D01*
X26316Y-25985D02*
X26979Y-25985D01*
X27793Y-25985D02*
X27920Y-25985D01*
X29009Y-25985D02*
X29474Y-25985D01*
X26396Y-26065D02*
X26987Y-26065D01*
X27784Y-26065D02*
X27920Y-26065D01*
X29009Y-26065D02*
X29394Y-26065D01*
X26476Y-26145D02*
X27024Y-26145D01*
X27747Y-26145D02*
X27948Y-26145D01*
X28980Y-26145D02*
X29314Y-26145D01*
X25476Y-20605D02*
X25835Y-20605D01*
X25466Y-20685D02*
X25835Y-20685D01*
X25052Y-20765D02*
X25855Y-20765D01*
X25052Y-20845D02*
X25152Y-20845D01*
X25424Y-20845D02*
X25888Y-20845D01*
X25052Y-20925D02*
X25152Y-20925D01*
X25476Y-20925D02*
X25954Y-20925D01*
X25052Y-21005D02*
X25152Y-21005D01*
X25470Y-21005D02*
X26055Y-21005D01*
X26465Y-21005D02*
X26576Y-21005D01*
X25052Y-21085D02*
X25152Y-21085D01*
X25437Y-21085D02*
X26795Y-21085D01*
X24792Y-21165D02*
X24862Y-21165D01*
X25018Y-21165D02*
X25186Y-21165D01*
X25341Y-21165D02*
X26587Y-21165D01*
X24792Y-21245D02*
X25565Y-21245D01*
X25803Y-21245D02*
X25981Y-21245D01*
X26220Y-21245D02*
X26494Y-21245D01*
X24792Y-21325D02*
X25462Y-21325D01*
X25842Y-21325D02*
X25942Y-21325D01*
X26322Y-21325D02*
X26414Y-21325D01*
X24792Y-21405D02*
X25426Y-21405D01*
X25842Y-21405D02*
X25942Y-21405D01*
X24792Y-21485D02*
X25442Y-21485D01*
X25842Y-21485D02*
X25942Y-21485D01*
X24792Y-21565D02*
X25942Y-21565D01*
X24792Y-21645D02*
X25456Y-21645D01*
X24792Y-21725D02*
X24897Y-21725D01*
X25183Y-21725D02*
X25419Y-21725D01*
X29205Y-30442D02*
X29501Y-30147D01*
X29501Y-27044D01*
X29248Y-26791D01*
X28991Y-26791D01*
X28971Y-26839D01*
X28901Y-26909D01*
X28809Y-26947D01*
X28120Y-26947D01*
X28029Y-26909D01*
X27959Y-26839D01*
X27927Y-26763D01*
X27729Y-26763D01*
X27684Y-26809D01*
X27592Y-26847D01*
X27179Y-26847D01*
X27088Y-26809D01*
X27025Y-26747D01*
X26378Y-26747D01*
X26267Y-26725D01*
X26172Y-26661D01*
X25273Y-25762D01*
X24793Y-25762D01*
X25008Y-25976D01*
X25071Y-26070D01*
X25093Y-26181D01*
X25093Y-27085D01*
X25198Y-27190D01*
X25344Y-27190D01*
X25348Y-27182D01*
X25418Y-27112D01*
X25510Y-27074D01*
X25859Y-27074D01*
X25950Y-27112D01*
X25983Y-27145D01*
X26018Y-27112D01*
X26110Y-27074D01*
X26459Y-27074D01*
X26550Y-27112D01*
X26620Y-27182D01*
X26624Y-27191D01*
X27937Y-27198D01*
X27959Y-27147D01*
X28029Y-27077D01*
X28121Y-27039D01*
X28810Y-27039D01*
X28901Y-27077D01*
X28971Y-27147D01*
X29009Y-27239D01*
X29009Y-27732D01*
X28971Y-27823D01*
X28901Y-27893D01*
X28809Y-27931D01*
X28120Y-27931D01*
X28029Y-27893D01*
X27959Y-27823D01*
X27940Y-27778D01*
X26622Y-27771D01*
X26620Y-27778D01*
X26574Y-27824D01*
X26574Y-28093D01*
X26580Y-28096D01*
X26613Y-28129D01*
X26648Y-28096D01*
X26740Y-28058D01*
X26802Y-28057D01*
X26864Y-28119D01*
X26864Y-28414D01*
X26864Y-28514D01*
X26864Y-28809D01*
X26802Y-28871D01*
X26740Y-28870D01*
X26648Y-28832D01*
X26613Y-28797D01*
X26580Y-28832D01*
X26488Y-28870D01*
X26139Y-28870D01*
X26048Y-28832D01*
X25978Y-28762D01*
X25940Y-28670D01*
X25940Y-28257D01*
X25978Y-28166D01*
X25994Y-28150D01*
X25994Y-27824D01*
X25983Y-27813D01*
X25950Y-27848D01*
X25858Y-27886D01*
X25509Y-27886D01*
X25418Y-27848D01*
X25348Y-27778D01*
X25344Y-27770D01*
X25078Y-27770D01*
X24967Y-27748D01*
X24873Y-27685D01*
X24598Y-27410D01*
X24535Y-27316D01*
X24513Y-27205D01*
X24513Y-26301D01*
X24480Y-26268D01*
X24480Y-26423D01*
X24415Y-26579D01*
X24345Y-26649D01*
X24345Y-27478D01*
X26000Y-29134D01*
X27026Y-29133D01*
X27026Y-28871D01*
X26964Y-28809D01*
X26964Y-28514D01*
X26964Y-28414D01*
X26964Y-28119D01*
X27026Y-28057D01*
X27088Y-28058D01*
X27180Y-28096D01*
X27250Y-28166D01*
X27288Y-28257D01*
X27288Y-28353D01*
X27289Y-28352D01*
X27288Y-28356D01*
X27288Y-28353D01*
X27227Y-28414D01*
X26964Y-28414D01*
X26964Y-28514D01*
X27227Y-28514D01*
X27288Y-28575D01*
X27288Y-28671D01*
X27250Y-28762D01*
X27180Y-28832D01*
X27088Y-28870D01*
X27026Y-28871D01*
X27026Y-29133D01*
X27938Y-29133D01*
X27959Y-29086D01*
X28029Y-29016D01*
X28121Y-28978D01*
X28353Y-28978D01*
X28353Y-28917D01*
X28219Y-28916D01*
X28120Y-28916D01*
X28029Y-28878D01*
X27959Y-28808D01*
X27921Y-28716D01*
X27920Y-28582D01*
X27982Y-28520D01*
X27982Y-28420D01*
X27920Y-28358D01*
X27921Y-28224D01*
X27959Y-28132D01*
X28029Y-28062D01*
X28120Y-28024D01*
X28219Y-28024D01*
X28353Y-28023D01*
X28415Y-28085D01*
X28415Y-28420D01*
X27982Y-28420D01*
X27982Y-28520D01*
X28415Y-28520D01*
X28415Y-28855D01*
X28353Y-28917D01*
X28353Y-28978D01*
X28577Y-28978D01*
X28577Y-28917D01*
X28515Y-28855D01*
X28515Y-28520D01*
X28515Y-28420D01*
X28515Y-28085D01*
X28577Y-28023D01*
X28711Y-28024D01*
X28810Y-28024D01*
X28901Y-28062D01*
X28971Y-28132D01*
X29009Y-28224D01*
X29010Y-28358D01*
X28948Y-28420D01*
X28515Y-28420D01*
X28515Y-28520D01*
X28948Y-28520D01*
X29010Y-28582D01*
X29009Y-28716D01*
X28971Y-28808D01*
X28901Y-28878D01*
X28810Y-28916D01*
X28711Y-28916D01*
X28577Y-28917D01*
X28577Y-28978D01*
X28810Y-28978D01*
X28901Y-29016D01*
X28971Y-29086D01*
X29009Y-29178D01*
X29009Y-29671D01*
X28972Y-29759D01*
X29009Y-29848D01*
X29009Y-30341D01*
X28971Y-30432D01*
X28960Y-30442D01*
X29205Y-30442D01*
X19960Y-20038D02*
X24264Y-20038D01*
X26088Y-20038D02*
X39016Y-20038D01*
X19960Y-20118D02*
X24117Y-20118D01*
X26236Y-20118D02*
X36239Y-20118D01*
X37286Y-20118D02*
X39016Y-20118D01*
X19960Y-20198D02*
X24037Y-20198D01*
X26316Y-20198D02*
X36129Y-20198D01*
X37395Y-20198D02*
X39016Y-20198D01*
X19960Y-20278D02*
X23957Y-20278D01*
X26509Y-20278D02*
X26544Y-20278D01*
X27108Y-20278D02*
X27144Y-20278D01*
X27708Y-20278D02*
X36090Y-20278D01*
X37435Y-20278D02*
X39016Y-20278D01*
X19960Y-20358D02*
X23894Y-20358D01*
X28123Y-20358D02*
X36080Y-20358D01*
X37444Y-20358D02*
X39016Y-20358D01*
X19960Y-20438D02*
X22956Y-20438D01*
X23528Y-20438D02*
X23555Y-20438D01*
X28250Y-20438D02*
X36080Y-20438D01*
X37444Y-20438D02*
X39016Y-20438D01*
X19960Y-20518D02*
X22894Y-20518D01*
X28330Y-20518D02*
X36080Y-20518D01*
X37444Y-20518D02*
X39016Y-20518D01*
X19960Y-20598D02*
X20708Y-20598D01*
X21052Y-20598D02*
X21152Y-20598D01*
X21497Y-20598D02*
X22868Y-20598D01*
X28410Y-20598D02*
X36080Y-20598D01*
X37444Y-20598D02*
X39016Y-20598D01*
X19960Y-20678D02*
X20507Y-20678D01*
X21052Y-20678D02*
X21152Y-20678D01*
X21698Y-20678D02*
X22868Y-20678D01*
X28490Y-20678D02*
X36080Y-20678D01*
X37444Y-20678D02*
X39016Y-20678D01*
X19960Y-20758D02*
X20424Y-20758D01*
X21052Y-20758D02*
X21152Y-20758D01*
X21781Y-20758D02*
X22868Y-20758D01*
X28570Y-20758D02*
X29581Y-20758D01*
X29948Y-20758D02*
X36080Y-20758D01*
X37444Y-20758D02*
X39016Y-20758D01*
X19960Y-20838D02*
X20349Y-20838D01*
X21052Y-20838D02*
X21152Y-20838D01*
X21856Y-20838D02*
X22868Y-20838D01*
X28650Y-20838D02*
X29467Y-20838D01*
X30061Y-20838D02*
X36080Y-20838D01*
X37444Y-20838D02*
X39016Y-20838D01*
X19960Y-20918D02*
X20316Y-20918D01*
X21052Y-20918D02*
X21152Y-20918D01*
X21889Y-20918D02*
X22868Y-20918D01*
X28711Y-20918D02*
X29397Y-20918D01*
X30132Y-20918D02*
X36099Y-20918D01*
X37424Y-20918D02*
X37737Y-20918D01*
X38328Y-20918D02*
X39016Y-20918D01*
X19960Y-20998D02*
X20284Y-20998D01*
X21052Y-20998D02*
X21152Y-20998D01*
X21921Y-20998D02*
X22870Y-20998D01*
X28743Y-20998D02*
X29364Y-20998D01*
X30165Y-20998D02*
X36153Y-20998D01*
X37371Y-20998D02*
X37617Y-20998D01*
X38448Y-20998D02*
X39016Y-20998D01*
X19960Y-21078D02*
X20319Y-21078D01*
X21052Y-21078D02*
X21152Y-21078D01*
X21885Y-21078D02*
X22903Y-21078D01*
X28755Y-21078D02*
X29339Y-21078D01*
X30189Y-21078D02*
X37537Y-21078D01*
X38528Y-21078D02*
X39016Y-21078D01*
X19960Y-21158D02*
X22952Y-21158D01*
X28755Y-21158D02*
X29339Y-21158D01*
X30189Y-21158D02*
X37475Y-21158D01*
X38590Y-21158D02*
X39016Y-21158D01*
X19960Y-21238D02*
X20301Y-21238D01*
X21904Y-21238D02*
X22952Y-21238D01*
X28755Y-21238D02*
X29343Y-21238D01*
X30184Y-21238D02*
X37442Y-21238D01*
X38623Y-21238D02*
X39016Y-21238D01*
X19960Y-21318D02*
X20296Y-21318D01*
X21907Y-21318D02*
X22431Y-21318D01*
X28755Y-21318D02*
X29376Y-21318D01*
X30151Y-21318D02*
X37408Y-21318D01*
X38656Y-21318D02*
X39016Y-21318D01*
X19960Y-21398D02*
X20328Y-21398D01*
X21875Y-21398D02*
X22326Y-21398D01*
X28755Y-21398D02*
X29419Y-21398D01*
X30109Y-21398D02*
X37389Y-21398D01*
X38675Y-21398D02*
X39016Y-21398D01*
X19960Y-21478D02*
X20373Y-21478D01*
X21829Y-21478D02*
X22246Y-21478D01*
X28755Y-21478D02*
X29474Y-21478D01*
X30054Y-21478D02*
X37389Y-21478D01*
X38675Y-21478D02*
X39016Y-21478D01*
X19960Y-21558D02*
X20405Y-21558D01*
X21799Y-21558D02*
X22166Y-21558D01*
X28755Y-21558D02*
X29474Y-21558D01*
X30054Y-21558D02*
X37389Y-21558D01*
X38675Y-21558D02*
X39016Y-21558D01*
X19960Y-21638D02*
X20333Y-21638D01*
X21872Y-21638D02*
X22086Y-21638D01*
X28755Y-21638D02*
X29474Y-21638D01*
X30054Y-21638D02*
X37397Y-21638D01*
X38667Y-21638D02*
X39016Y-21638D01*
X19960Y-21718D02*
X20300Y-21718D01*
X28755Y-21718D02*
X29474Y-21718D01*
X30054Y-21718D02*
X37430Y-21718D01*
X38633Y-21718D02*
X39016Y-21718D01*
X19960Y-21798D02*
X20267Y-21798D01*
X28755Y-21798D02*
X29474Y-21798D01*
X30054Y-21798D02*
X37463Y-21798D01*
X38600Y-21798D02*
X39016Y-21798D01*
X19960Y-21878D02*
X20256Y-21878D01*
X28755Y-21878D02*
X29474Y-21878D01*
X30054Y-21878D02*
X37510Y-21878D01*
X38553Y-21878D02*
X39016Y-21878D01*
X19960Y-21958D02*
X20256Y-21958D01*
X28755Y-21958D02*
X29474Y-21958D01*
X30054Y-21958D02*
X37590Y-21958D01*
X38473Y-21958D02*
X39016Y-21958D01*
X19960Y-22038D02*
X20257Y-22038D01*
X28755Y-22038D02*
X29474Y-22038D01*
X30054Y-22038D02*
X37674Y-22038D01*
X38390Y-22038D02*
X39016Y-22038D01*
X19960Y-22118D02*
X20290Y-22118D01*
X28810Y-22118D02*
X29474Y-22118D01*
X30054Y-22118D02*
X32353Y-22118D01*
X33238Y-22118D02*
X37864Y-22118D01*
X38197Y-22118D02*
X39016Y-22118D01*
X19960Y-22198D02*
X20323Y-22198D01*
X28943Y-22198D02*
X29474Y-22198D01*
X30054Y-22198D02*
X32219Y-22198D01*
X33371Y-22198D02*
X39016Y-22198D01*
X19960Y-22278D02*
X20383Y-22278D01*
X28993Y-22278D02*
X29474Y-22278D01*
X30054Y-22278D02*
X32170Y-22278D01*
X33421Y-22278D02*
X39016Y-22278D01*
X19960Y-22358D02*
X20393Y-22358D01*
X29009Y-22358D02*
X29474Y-22358D01*
X30054Y-22358D02*
X32153Y-22358D01*
X33437Y-22358D02*
X39016Y-22358D01*
X19960Y-22438D02*
X20328Y-22438D01*
X29009Y-22438D02*
X29474Y-22438D01*
X30054Y-22438D02*
X32153Y-22438D01*
X33437Y-22438D02*
X39016Y-22438D01*
X19960Y-22518D02*
X20295Y-22518D01*
X29009Y-22518D02*
X29474Y-22518D01*
X30054Y-22518D02*
X32153Y-22518D01*
X33437Y-22518D02*
X39016Y-22518D01*
X19960Y-22598D02*
X20261Y-22598D01*
X29009Y-22598D02*
X29474Y-22598D01*
X30054Y-22598D02*
X32153Y-22598D01*
X33437Y-22598D02*
X39016Y-22598D01*
X19960Y-22678D02*
X20256Y-22678D01*
X29009Y-22678D02*
X29474Y-22678D01*
X30054Y-22678D02*
X32153Y-22678D01*
X33437Y-22678D02*
X39016Y-22678D01*
X19960Y-22758D02*
X20256Y-22758D01*
X29009Y-22758D02*
X29474Y-22758D01*
X30054Y-22758D02*
X32153Y-22758D01*
X33437Y-22758D02*
X39016Y-22758D01*
X19960Y-22838D02*
X20262Y-22838D01*
X28997Y-22838D02*
X29474Y-22838D01*
X30054Y-22838D02*
X32164Y-22838D01*
X33425Y-22838D02*
X39016Y-22838D01*
X19960Y-22918D02*
X20295Y-22918D01*
X28955Y-22918D02*
X29474Y-22918D01*
X30054Y-22918D02*
X32207Y-22918D01*
X33383Y-22918D02*
X39016Y-22918D01*
X19960Y-22998D02*
X20328Y-22998D01*
X28838Y-22998D02*
X29474Y-22998D01*
X30054Y-22998D02*
X32323Y-22998D01*
X33266Y-22998D02*
X39016Y-22998D01*
X19960Y-23078D02*
X20396Y-23078D01*
X28405Y-23078D02*
X29474Y-23078D01*
X30054Y-23078D02*
X39016Y-23078D01*
X19960Y-23158D02*
X20380Y-23158D01*
X28919Y-23158D02*
X29474Y-23158D01*
X30054Y-23158D02*
X31022Y-23158D01*
X32325Y-23158D02*
X39016Y-23158D01*
X19960Y-23238D02*
X20323Y-23238D01*
X28983Y-23238D02*
X29474Y-23238D01*
X30054Y-23238D02*
X30959Y-23238D01*
X32388Y-23238D02*
X39016Y-23238D01*
X19960Y-23318D02*
X20289Y-23318D01*
X29009Y-23318D02*
X29474Y-23318D01*
X30054Y-23318D02*
X30932Y-23318D01*
X32414Y-23318D02*
X39016Y-23318D01*
X19960Y-23398D02*
X20256Y-23398D01*
X29009Y-23398D02*
X29474Y-23398D01*
X30054Y-23398D02*
X30932Y-23398D01*
X32414Y-23398D02*
X39016Y-23398D01*
X19960Y-23478D02*
X20256Y-23478D01*
X29009Y-23478D02*
X29474Y-23478D01*
X30054Y-23478D02*
X30932Y-23478D01*
X32414Y-23478D02*
X39016Y-23478D01*
X19960Y-23558D02*
X20256Y-23558D01*
X29009Y-23558D02*
X29474Y-23558D01*
X30054Y-23558D02*
X30932Y-23558D01*
X32414Y-23558D02*
X39016Y-23558D01*
X19960Y-23638D02*
X20267Y-23638D01*
X29009Y-23638D02*
X29474Y-23638D01*
X30054Y-23638D02*
X30932Y-23638D01*
X32414Y-23638D02*
X39016Y-23638D01*
X19960Y-23718D02*
X20300Y-23718D01*
X29009Y-23718D02*
X29474Y-23718D01*
X30054Y-23718D02*
X30932Y-23718D01*
X32414Y-23718D02*
X39016Y-23718D01*
X19960Y-23798D02*
X20333Y-23798D01*
X30059Y-23798D02*
X30933Y-23798D01*
X32412Y-23798D02*
X39016Y-23798D01*
X19960Y-23878D02*
X20409Y-23878D01*
X30075Y-23878D02*
X30966Y-23878D01*
X32379Y-23878D02*
X39016Y-23878D01*
X19960Y-23958D02*
X20368Y-23958D01*
X30081Y-23958D02*
X31044Y-23958D01*
X32301Y-23958D02*
X39016Y-23958D01*
X19960Y-24038D02*
X20318Y-24038D01*
X30081Y-24038D02*
X31484Y-24038D01*
X32513Y-24038D02*
X39016Y-24038D01*
X19960Y-24118D02*
X20284Y-24118D01*
X30081Y-24118D02*
X31394Y-24118D01*
X32603Y-24118D02*
X39016Y-24118D01*
X19960Y-24198D02*
X20256Y-24198D01*
X30081Y-24198D02*
X31360Y-24198D01*
X32636Y-24198D02*
X39016Y-24198D01*
X19960Y-24278D02*
X20256Y-24278D01*
X30081Y-24278D02*
X31356Y-24278D01*
X32640Y-24278D02*
X39016Y-24278D01*
X19960Y-24358D02*
X20256Y-24358D01*
X30081Y-24358D02*
X31356Y-24358D01*
X32640Y-24358D02*
X39016Y-24358D01*
X19960Y-24438D02*
X20272Y-24438D01*
X30081Y-24438D02*
X31356Y-24438D01*
X32640Y-24438D02*
X39016Y-24438D01*
X19960Y-24518D02*
X20305Y-24518D01*
X30081Y-24518D02*
X31356Y-24518D01*
X32640Y-24518D02*
X39016Y-24518D01*
X19960Y-24598D02*
X20341Y-24598D01*
X30081Y-24598D02*
X31356Y-24598D01*
X32640Y-24598D02*
X39016Y-24598D01*
X19960Y-24678D02*
X20421Y-24678D01*
X30081Y-24678D02*
X31356Y-24678D01*
X32640Y-24678D02*
X39016Y-24678D01*
X19960Y-24758D02*
X20355Y-24758D01*
X30081Y-24758D02*
X31379Y-24758D01*
X32616Y-24758D02*
X39016Y-24758D01*
X19960Y-24838D02*
X20312Y-24838D01*
X30081Y-24838D02*
X31440Y-24838D01*
X32556Y-24838D02*
X39016Y-24838D01*
X19960Y-24918D02*
X20279Y-24918D01*
X30081Y-24918D02*
X31410Y-24918D01*
X32508Y-24918D02*
X39016Y-24918D01*
X19960Y-24998D02*
X20256Y-24998D01*
X30081Y-24998D02*
X31345Y-24998D01*
X32574Y-24998D02*
X39016Y-24998D01*
X19960Y-25078D02*
X20256Y-25078D01*
X30081Y-25078D02*
X31317Y-25078D01*
X32601Y-25078D02*
X39016Y-25078D01*
X19960Y-25158D02*
X20256Y-25158D01*
X30081Y-25158D02*
X31317Y-25158D01*
X32601Y-25158D02*
X39016Y-25158D01*
X19960Y-25238D02*
X20278Y-25238D01*
X30081Y-25238D02*
X31317Y-25238D01*
X32601Y-25238D02*
X39016Y-25238D01*
X19960Y-25318D02*
X20311Y-25318D01*
X30081Y-25318D02*
X31317Y-25318D01*
X32601Y-25318D02*
X39016Y-25318D01*
X19960Y-25398D02*
X20354Y-25398D01*
X30081Y-25398D02*
X31317Y-25398D01*
X32601Y-25398D02*
X39016Y-25398D01*
X19960Y-25478D02*
X20422Y-25478D01*
X30081Y-25478D02*
X31317Y-25478D01*
X32601Y-25478D02*
X39016Y-25478D01*
X19960Y-25558D02*
X20342Y-25558D01*
X30081Y-25558D02*
X31317Y-25558D01*
X32601Y-25558D02*
X39016Y-25558D01*
X19960Y-25638D02*
X20307Y-25638D01*
X30081Y-25638D02*
X31317Y-25638D01*
X32601Y-25638D02*
X39016Y-25638D01*
X19960Y-25718D02*
X20273Y-25718D01*
X30081Y-25718D02*
X31317Y-25718D01*
X32601Y-25718D02*
X39016Y-25718D01*
X19960Y-25798D02*
X20256Y-25798D01*
X30081Y-25798D02*
X31317Y-25798D01*
X32601Y-25798D02*
X39016Y-25798D01*
X19960Y-25878D02*
X20256Y-25878D01*
X30081Y-25878D02*
X31317Y-25878D01*
X32601Y-25878D02*
X39016Y-25878D01*
X19960Y-25958D02*
X20256Y-25958D01*
X30081Y-25958D02*
X31320Y-25958D01*
X32597Y-25958D02*
X39016Y-25958D01*
X19960Y-26038D02*
X20283Y-26038D01*
X30081Y-26038D02*
X31353Y-26038D01*
X32564Y-26038D02*
X39016Y-26038D01*
X19960Y-26118D02*
X20316Y-26118D01*
X30073Y-26118D02*
X31441Y-26118D01*
X32547Y-26118D02*
X39016Y-26118D01*
X19960Y-26198D02*
X20320Y-26198D01*
X21884Y-26198D02*
X23653Y-26198D01*
X30052Y-26198D02*
X31384Y-26198D01*
X32613Y-26198D02*
X39016Y-26198D01*
X19960Y-26278D02*
X20276Y-26278D01*
X21929Y-26278D02*
X23630Y-26278D01*
X29999Y-26278D02*
X31356Y-26278D01*
X32640Y-26278D02*
X39016Y-26278D01*
X19960Y-26358D02*
X20263Y-26358D01*
X21941Y-26358D02*
X23630Y-26358D01*
X29920Y-26358D02*
X31356Y-26358D01*
X32640Y-26358D02*
X39016Y-26358D01*
X19960Y-26438D02*
X20263Y-26438D01*
X21941Y-26438D02*
X23636Y-26438D01*
X29839Y-26438D02*
X31356Y-26438D01*
X32640Y-26438D02*
X39016Y-26438D01*
X19960Y-26518D02*
X20263Y-26518D01*
X21941Y-26518D02*
X23669Y-26518D01*
X29795Y-26518D02*
X31356Y-26518D01*
X32640Y-26518D02*
X39016Y-26518D01*
X19960Y-26598D02*
X20263Y-26598D01*
X21941Y-26598D02*
X23714Y-26598D01*
X29875Y-26598D02*
X31356Y-26598D01*
X32640Y-26598D02*
X39016Y-26598D01*
X19960Y-26678D02*
X20263Y-26678D01*
X21941Y-26678D02*
X23765Y-26678D01*
X29955Y-26678D02*
X31356Y-26678D01*
X32640Y-26678D02*
X39016Y-26678D01*
X19960Y-26758D02*
X20263Y-26758D01*
X21941Y-26758D02*
X23765Y-26758D01*
X30023Y-26758D02*
X31356Y-26758D01*
X32640Y-26758D02*
X39016Y-26758D01*
X19960Y-26838D02*
X20263Y-26838D01*
X21941Y-26838D02*
X23765Y-26838D01*
X30064Y-26838D02*
X31389Y-26838D01*
X32606Y-26838D02*
X39016Y-26838D01*
X19960Y-26918D02*
X20263Y-26918D01*
X21941Y-26918D02*
X23765Y-26918D01*
X30080Y-26918D02*
X31463Y-26918D01*
X32533Y-26918D02*
X39016Y-26918D01*
X19960Y-26998D02*
X20263Y-26998D01*
X21941Y-26998D02*
X23765Y-26998D01*
X30081Y-26998D02*
X39016Y-26998D01*
X19960Y-27078D02*
X20296Y-27078D01*
X21907Y-27078D02*
X23765Y-27078D01*
X30081Y-27078D02*
X31427Y-27078D01*
X32452Y-27078D02*
X39016Y-27078D01*
X19960Y-27158D02*
X20370Y-27158D01*
X21834Y-27158D02*
X23765Y-27158D01*
X30081Y-27158D02*
X31335Y-27158D01*
X32544Y-27158D02*
X39016Y-27158D01*
X19960Y-27238D02*
X23765Y-27238D01*
X30081Y-27238D02*
X31302Y-27238D01*
X32577Y-27238D02*
X39016Y-27238D01*
X19960Y-27318D02*
X23765Y-27318D01*
X30081Y-27318D02*
X31297Y-27318D01*
X32581Y-27318D02*
X39016Y-27318D01*
X19960Y-27398D02*
X23765Y-27398D01*
X30081Y-27398D02*
X31297Y-27398D01*
X32581Y-27398D02*
X39016Y-27398D01*
X19960Y-27478D02*
X23765Y-27478D01*
X30081Y-27478D02*
X31297Y-27478D01*
X32581Y-27478D02*
X39016Y-27478D01*
X19960Y-27558D02*
X23765Y-27558D01*
X30081Y-27558D02*
X31297Y-27558D01*
X32581Y-27558D02*
X39016Y-27558D01*
X19960Y-27638D02*
X23772Y-27638D01*
X30081Y-27638D02*
X31297Y-27638D01*
X32581Y-27638D02*
X39016Y-27638D01*
X19960Y-27718D02*
X23793Y-27718D01*
X30081Y-27718D02*
X31297Y-27718D01*
X32581Y-27718D02*
X39016Y-27718D01*
X19960Y-27798D02*
X23846Y-27798D01*
X30081Y-27798D02*
X31320Y-27798D01*
X32557Y-27798D02*
X39016Y-27798D01*
X19960Y-27878D02*
X23925Y-27878D01*
X30081Y-27878D02*
X31380Y-27878D01*
X32498Y-27878D02*
X39016Y-27878D01*
X19960Y-27958D02*
X24005Y-27958D01*
X30081Y-27958D02*
X39016Y-27958D01*
X19960Y-28038D02*
X24085Y-28038D01*
X30081Y-28038D02*
X31444Y-28038D01*
X32396Y-28038D02*
X39016Y-28038D01*
X19960Y-28118D02*
X24165Y-28118D01*
X30081Y-28118D02*
X31329Y-28118D01*
X32509Y-28118D02*
X39016Y-28118D01*
X19960Y-28198D02*
X24245Y-28198D01*
X30081Y-28198D02*
X31288Y-28198D01*
X32551Y-28198D02*
X39016Y-28198D01*
X19960Y-28278D02*
X24325Y-28278D01*
X30081Y-28278D02*
X31277Y-28278D01*
X32561Y-28278D02*
X39016Y-28278D01*
X19960Y-28358D02*
X24405Y-28358D01*
X30081Y-28358D02*
X31277Y-28358D01*
X32561Y-28358D02*
X39016Y-28358D01*
X19960Y-28438D02*
X24485Y-28438D01*
X30081Y-28438D02*
X31277Y-28438D01*
X32561Y-28438D02*
X39016Y-28438D01*
X19960Y-28518D02*
X24565Y-28518D01*
X30081Y-28518D02*
X31277Y-28518D01*
X32561Y-28518D02*
X39016Y-28518D01*
X19960Y-28598D02*
X24645Y-28598D01*
X30081Y-28598D02*
X31277Y-28598D01*
X32561Y-28598D02*
X39016Y-28598D01*
X19960Y-28678D02*
X24725Y-28678D01*
X30081Y-28678D02*
X31277Y-28678D01*
X32561Y-28678D02*
X39016Y-28678D01*
X19960Y-28758D02*
X24805Y-28758D01*
X30081Y-28758D02*
X31294Y-28758D01*
X32543Y-28758D02*
X39016Y-28758D01*
X19960Y-28838D02*
X24885Y-28838D01*
X30081Y-28838D02*
X31345Y-28838D01*
X32493Y-28838D02*
X39016Y-28838D01*
X19960Y-28918D02*
X24965Y-28918D01*
X30081Y-28918D02*
X39016Y-28918D01*
X19960Y-28998D02*
X25045Y-28998D01*
X30081Y-28998D02*
X31487Y-28998D01*
X32372Y-28998D02*
X39016Y-28998D01*
X19960Y-29078D02*
X25125Y-29078D01*
X30081Y-29078D02*
X31353Y-29078D01*
X32505Y-29078D02*
X39016Y-29078D01*
X19960Y-29158D02*
X25205Y-29158D01*
X30081Y-29158D02*
X31304Y-29158D01*
X32555Y-29158D02*
X39016Y-29158D01*
X19960Y-29238D02*
X25285Y-29238D01*
X30081Y-29238D02*
X31287Y-29238D01*
X32571Y-29238D02*
X39016Y-29238D01*
X19960Y-29318D02*
X25365Y-29318D01*
X30081Y-29318D02*
X31287Y-29318D01*
X32571Y-29318D02*
X39016Y-29318D01*
X19960Y-29398D02*
X25445Y-29398D01*
X30081Y-29398D02*
X31287Y-29398D01*
X32571Y-29398D02*
X39016Y-29398D01*
X19960Y-29478D02*
X25525Y-29478D01*
X30081Y-29478D02*
X31287Y-29478D01*
X32571Y-29478D02*
X39016Y-29478D01*
X19960Y-29558D02*
X25605Y-29558D01*
X30081Y-29558D02*
X31287Y-29558D01*
X32571Y-29558D02*
X39016Y-29558D01*
X19960Y-29638D02*
X25689Y-29638D01*
X30081Y-29638D02*
X31287Y-29638D01*
X32571Y-29638D02*
X39016Y-29638D01*
X19960Y-29718D02*
X26844Y-29718D01*
X30081Y-29718D02*
X31298Y-29718D01*
X32559Y-29718D02*
X39016Y-29718D01*
X19960Y-29798D02*
X26724Y-29798D01*
X30081Y-29798D02*
X31320Y-29798D01*
X32539Y-29798D02*
X39016Y-29798D01*
X19960Y-29878D02*
X26681Y-29878D01*
X30081Y-29878D02*
X31287Y-29878D01*
X32571Y-29878D02*
X39016Y-29878D01*
X19960Y-29958D02*
X26668Y-29958D01*
X30081Y-29958D02*
X31287Y-29958D01*
X32571Y-29958D02*
X39016Y-29958D01*
X19960Y-30038D02*
X26668Y-30038D01*
X30081Y-30038D02*
X31287Y-30038D01*
X32571Y-30038D02*
X39016Y-30038D01*
X19960Y-30118D02*
X26668Y-30118D01*
X30081Y-30118D02*
X31287Y-30118D01*
X32571Y-30118D02*
X39016Y-30118D01*
X19960Y-30198D02*
X26668Y-30198D01*
X30081Y-30198D02*
X31287Y-30198D01*
X32571Y-30198D02*
X39016Y-30198D01*
X19960Y-30278D02*
X26668Y-30278D01*
X30078Y-30278D02*
X31287Y-30278D01*
X32571Y-30278D02*
X39016Y-30278D01*
X19960Y-30358D02*
X26683Y-30358D01*
X30062Y-30358D02*
X31287Y-30358D01*
X32571Y-30358D02*
X39016Y-30358D01*
X19960Y-30438D02*
X26732Y-30438D01*
X30018Y-30438D02*
X31315Y-30438D01*
X32542Y-30438D02*
X37755Y-30438D01*
X38309Y-30438D02*
X39016Y-30438D01*
X19960Y-30518D02*
X26752Y-30518D01*
X29950Y-30518D02*
X31382Y-30518D01*
X32476Y-30518D02*
X37625Y-30518D01*
X38440Y-30518D02*
X39016Y-30518D01*
X19960Y-30598D02*
X26760Y-30598D01*
X29870Y-30598D02*
X37545Y-30598D01*
X38520Y-30598D02*
X39016Y-30598D01*
X19960Y-30678D02*
X26780Y-30678D01*
X29790Y-30678D02*
X37478Y-30678D01*
X38587Y-30678D02*
X39016Y-30678D01*
X19960Y-30758D02*
X26834Y-30758D01*
X29710Y-30758D02*
X37445Y-30758D01*
X38620Y-30758D02*
X39016Y-30758D01*
X19960Y-30838D02*
X26913Y-30838D01*
X29630Y-30838D02*
X37411Y-30838D01*
X38653Y-30838D02*
X39016Y-30838D01*
X19960Y-30918D02*
X26993Y-30918D01*
X29550Y-30918D02*
X37389Y-30918D01*
X38675Y-30918D02*
X39016Y-30918D01*
X19960Y-30998D02*
X27103Y-30998D01*
X29439Y-30998D02*
X37389Y-30998D01*
X38675Y-30998D02*
X39016Y-30998D01*
X19960Y-31078D02*
X27958Y-31078D01*
X28973Y-31078D02*
X37389Y-31078D01*
X38675Y-31078D02*
X39016Y-31078D01*
X19960Y-31158D02*
X27924Y-31158D01*
X29006Y-31158D02*
X36641Y-31158D01*
X38670Y-31158D02*
X39016Y-31158D01*
X19960Y-31238D02*
X27921Y-31238D01*
X29009Y-31238D02*
X36559Y-31238D01*
X38637Y-31238D02*
X39016Y-31238D01*
X19960Y-31318D02*
X27921Y-31318D01*
X29009Y-31318D02*
X31811Y-31318D01*
X34647Y-31318D02*
X36526Y-31318D01*
X38603Y-31318D02*
X39016Y-31318D01*
X19960Y-31398D02*
X27921Y-31398D01*
X29009Y-31398D02*
X31759Y-31398D01*
X34700Y-31398D02*
X36523Y-31398D01*
X38561Y-31398D02*
X39016Y-31398D01*
X19960Y-31478D02*
X27921Y-31478D01*
X29009Y-31478D02*
X31740Y-31478D01*
X34718Y-31478D02*
X36523Y-31478D01*
X38481Y-31478D02*
X39016Y-31478D01*
X19960Y-31558D02*
X27921Y-31558D01*
X29009Y-31558D02*
X31740Y-31558D01*
X34718Y-31558D02*
X36523Y-31558D01*
X38401Y-31558D02*
X39016Y-31558D01*
X19960Y-31638D02*
X27921Y-31638D01*
X29009Y-31638D02*
X31740Y-31638D01*
X34718Y-31638D02*
X36523Y-31638D01*
X38216Y-31638D02*
X39016Y-31638D01*
X19960Y-31718D02*
X27945Y-31718D01*
X28984Y-31718D02*
X31740Y-31718D01*
X34718Y-31718D02*
X36523Y-31718D01*
X37887Y-31718D02*
X39016Y-31718D01*
X19960Y-31798D02*
X28007Y-31798D01*
X28923Y-31798D02*
X31740Y-31798D01*
X34718Y-31798D02*
X36523Y-31798D01*
X37887Y-31798D02*
X39016Y-31798D01*
X19960Y-31878D02*
X31740Y-31878D01*
X34718Y-31878D02*
X36523Y-31878D01*
X37887Y-31878D02*
X39016Y-31878D01*
X19960Y-31958D02*
X31740Y-31958D01*
X34718Y-31958D02*
X36549Y-31958D01*
X37860Y-31958D02*
X39016Y-31958D01*
X19960Y-32038D02*
X31740Y-32038D01*
X34718Y-32038D02*
X36613Y-32038D01*
X37797Y-32038D02*
X39016Y-32038D01*
X24793Y-25762D02*
X25273Y-25762D01*
X24874Y-25842D02*
X25353Y-25842D01*
X24954Y-25922D02*
X25433Y-25922D01*
X25026Y-26002D02*
X25513Y-26002D01*
X25074Y-26082D02*
X25593Y-26082D01*
X25090Y-26162D02*
X25673Y-26162D01*
X25093Y-26242D02*
X25753Y-26242D01*
X24480Y-26322D02*
X24513Y-26322D01*
X25093Y-26322D02*
X25833Y-26322D01*
X24480Y-26402D02*
X24513Y-26402D01*
X25093Y-26402D02*
X25913Y-26402D01*
X24455Y-26482D02*
X24513Y-26482D01*
X25093Y-26482D02*
X25993Y-26482D01*
X24422Y-26562D02*
X24513Y-26562D01*
X25093Y-26562D02*
X26073Y-26562D01*
X24352Y-26642D02*
X24513Y-26642D01*
X25093Y-26642D02*
X26153Y-26642D01*
X24345Y-26722D02*
X24513Y-26722D01*
X25093Y-26722D02*
X26262Y-26722D01*
X24345Y-26802D02*
X24513Y-26802D01*
X25093Y-26802D02*
X27080Y-26802D01*
X27690Y-26802D02*
X27943Y-26802D01*
X28986Y-26802D02*
X29259Y-26802D01*
X24345Y-26882D02*
X24513Y-26882D01*
X25093Y-26882D02*
X28002Y-26882D01*
X28928Y-26882D02*
X29339Y-26882D01*
X24345Y-26962D02*
X24513Y-26962D01*
X25093Y-26962D02*
X29419Y-26962D01*
X24345Y-27042D02*
X24513Y-27042D01*
X25093Y-27042D02*
X28114Y-27042D01*
X28818Y-27042D02*
X29499Y-27042D01*
X24345Y-27122D02*
X24513Y-27122D01*
X25130Y-27122D02*
X25408Y-27122D01*
X25960Y-27122D02*
X26008Y-27122D01*
X26560Y-27122D02*
X27984Y-27122D01*
X28946Y-27122D02*
X29501Y-27122D01*
X24345Y-27202D02*
X24513Y-27202D01*
X28994Y-27202D02*
X29501Y-27202D01*
X24345Y-27282D02*
X24528Y-27282D01*
X29009Y-27282D02*
X29501Y-27282D01*
X24345Y-27362D02*
X24565Y-27362D01*
X29009Y-27362D02*
X29501Y-27362D01*
X24345Y-27442D02*
X24630Y-27442D01*
X29009Y-27442D02*
X29501Y-27442D01*
X24389Y-27522D02*
X24710Y-27522D01*
X29009Y-27522D02*
X29501Y-27522D01*
X24469Y-27602D02*
X24790Y-27602D01*
X29009Y-27602D02*
X29501Y-27602D01*
X24549Y-27682D02*
X24870Y-27682D01*
X29009Y-27682D02*
X29501Y-27682D01*
X24629Y-27762D02*
X25037Y-27762D01*
X28996Y-27762D02*
X29501Y-27762D01*
X24709Y-27842D02*
X25412Y-27842D01*
X25955Y-27842D02*
X25994Y-27842D01*
X26574Y-27842D02*
X27978Y-27842D01*
X28952Y-27842D02*
X29501Y-27842D01*
X24789Y-27922D02*
X25994Y-27922D01*
X26574Y-27922D02*
X28098Y-27922D01*
X28830Y-27922D02*
X29501Y-27922D01*
X24869Y-28002D02*
X25994Y-28002D01*
X26574Y-28002D02*
X29501Y-28002D01*
X24949Y-28082D02*
X25994Y-28082D01*
X26574Y-28082D02*
X26682Y-28082D01*
X26827Y-28082D02*
X27001Y-28082D01*
X27147Y-28082D02*
X28009Y-28082D01*
X28412Y-28082D02*
X28518Y-28082D01*
X28921Y-28082D02*
X29501Y-28082D01*
X25029Y-28162D02*
X25982Y-28162D01*
X26864Y-28162D02*
X26964Y-28162D01*
X27246Y-28162D02*
X27947Y-28162D01*
X28415Y-28162D02*
X28515Y-28162D01*
X28984Y-28162D02*
X29501Y-28162D01*
X25109Y-28242D02*
X25947Y-28242D01*
X26864Y-28242D02*
X26964Y-28242D01*
X27282Y-28242D02*
X27921Y-28242D01*
X28415Y-28242D02*
X28515Y-28242D01*
X29010Y-28242D02*
X29501Y-28242D01*
X25189Y-28322D02*
X25940Y-28322D01*
X26864Y-28322D02*
X26964Y-28322D01*
X27288Y-28322D02*
X27921Y-28322D01*
X28415Y-28322D02*
X28515Y-28322D01*
X29010Y-28322D02*
X29501Y-28322D01*
X25269Y-28402D02*
X25940Y-28402D01*
X26864Y-28402D02*
X26964Y-28402D01*
X27239Y-28402D02*
X27964Y-28402D01*
X28415Y-28402D02*
X28515Y-28402D01*
X28966Y-28402D02*
X29501Y-28402D01*
X25349Y-28482D02*
X25940Y-28482D01*
X26864Y-28482D02*
X29501Y-28482D01*
X25429Y-28562D02*
X25940Y-28562D01*
X26864Y-28562D02*
X26964Y-28562D01*
X27275Y-28562D02*
X27940Y-28562D01*
X28415Y-28562D02*
X28515Y-28562D01*
X28990Y-28562D02*
X29501Y-28562D01*
X25509Y-28642D02*
X25940Y-28642D01*
X26864Y-28642D02*
X26964Y-28642D01*
X27288Y-28642D02*
X27920Y-28642D01*
X28415Y-28642D02*
X28515Y-28642D01*
X29009Y-28642D02*
X29501Y-28642D01*
X25589Y-28722D02*
X25961Y-28722D01*
X26864Y-28722D02*
X26964Y-28722D01*
X27266Y-28722D02*
X27923Y-28722D01*
X28415Y-28722D02*
X28515Y-28722D01*
X29006Y-28722D02*
X29501Y-28722D01*
X25669Y-28802D02*
X26018Y-28802D01*
X26608Y-28802D02*
X26618Y-28802D01*
X26864Y-28802D02*
X26964Y-28802D01*
X27210Y-28802D02*
X27956Y-28802D01*
X28415Y-28802D02*
X28515Y-28802D01*
X28973Y-28802D02*
X29501Y-28802D01*
X25749Y-28882D02*
X28038Y-28882D01*
X28388Y-28882D02*
X28542Y-28882D01*
X28891Y-28882D02*
X29501Y-28882D01*
X25829Y-28962D02*
X29501Y-28962D01*
X25909Y-29042D02*
X28003Y-29042D01*
X28927Y-29042D02*
X29501Y-29042D01*
X25989Y-29122D02*
X27943Y-29122D01*
X28986Y-29122D02*
X29501Y-29122D01*
X29009Y-29202D02*
X29501Y-29202D01*
X29009Y-29282D02*
X29501Y-29282D01*
X29009Y-29362D02*
X29501Y-29362D01*
X29009Y-29442D02*
X29501Y-29442D01*
X29009Y-29522D02*
X29501Y-29522D01*
X29009Y-29602D02*
X29501Y-29602D01*
X29004Y-29682D02*
X29501Y-29682D01*
X28974Y-29762D02*
X29501Y-29762D01*
X29007Y-29842D02*
X29501Y-29842D01*
X29009Y-29922D02*
X29501Y-29922D01*
X29009Y-30002D02*
X29501Y-30002D01*
X29009Y-30082D02*
X29501Y-30082D01*
X29009Y-30162D02*
X29486Y-30162D01*
X29009Y-30242D02*
X29406Y-30242D01*
X29009Y-30322D02*
X29326Y-30322D01*
X28983Y-30402D02*
X29246Y-30402D01*
X29009Y-24305D02*
X29501Y-24305D01*
X29009Y-24385D02*
X29501Y-24385D01*
X29009Y-24465D02*
X29501Y-24465D01*
X29009Y-24545D02*
X29501Y-24545D01*
X29009Y-24625D02*
X29501Y-24625D01*
X29009Y-24705D02*
X29501Y-24705D01*
X29006Y-24785D02*
X29501Y-24785D01*
X25978Y-24865D02*
X25988Y-24865D01*
X26579Y-24865D02*
X26656Y-24865D01*
X26838Y-24865D02*
X26990Y-24865D01*
X27173Y-24865D02*
X27950Y-24865D01*
X28980Y-24865D02*
X29501Y-24865D01*
X25675Y-24945D02*
X25976Y-24945D01*
X26864Y-24945D02*
X26964Y-24945D01*
X27253Y-24945D02*
X27921Y-24945D01*
X29009Y-24945D02*
X29501Y-24945D01*
X25595Y-25025D02*
X25942Y-25025D01*
X26864Y-25025D02*
X26964Y-25025D01*
X27287Y-25025D02*
X27921Y-25025D01*
X29009Y-25025D02*
X29501Y-25025D01*
X25515Y-25105D02*
X25940Y-25105D01*
X26864Y-25105D02*
X26964Y-25105D01*
X27288Y-25105D02*
X27921Y-25105D01*
X29009Y-25105D02*
X29501Y-25105D01*
X25435Y-25185D02*
X25940Y-25185D01*
X26864Y-25185D02*
X26964Y-25185D01*
X27228Y-25185D02*
X27921Y-25185D01*
X29009Y-25185D02*
X29501Y-25185D01*
X25596Y-25265D02*
X25940Y-25265D01*
X26864Y-25265D02*
X27921Y-25265D01*
X29009Y-25265D02*
X29501Y-25265D01*
X25676Y-25345D02*
X25940Y-25345D01*
X26864Y-25345D02*
X26964Y-25345D01*
X27286Y-25345D02*
X27921Y-25345D01*
X29009Y-25345D02*
X29501Y-25345D01*
X25756Y-25425D02*
X25940Y-25425D01*
X26864Y-25425D02*
X26964Y-25425D01*
X27288Y-25425D02*
X27921Y-25425D01*
X29009Y-25425D02*
X29501Y-25425D01*
X25836Y-25505D02*
X25966Y-25505D01*
X26864Y-25505D02*
X26964Y-25505D01*
X27281Y-25505D02*
X27491Y-25505D01*
X27608Y-25505D02*
X27952Y-25505D01*
X28976Y-25505D02*
X29501Y-25505D01*
X25916Y-25585D02*
X26029Y-25585D01*
X26597Y-25585D02*
X26629Y-25585D01*
X26860Y-25585D02*
X26968Y-25585D01*
X27336Y-25585D02*
X27436Y-25585D01*
X27732Y-25585D02*
X27922Y-25585D01*
X29009Y-25585D02*
X29501Y-25585D01*
X25996Y-25665D02*
X26994Y-25665D01*
X27336Y-25665D02*
X27436Y-25665D01*
X27778Y-25665D02*
X27921Y-25665D01*
X28415Y-25665D02*
X28515Y-25665D01*
X29010Y-25665D02*
X29501Y-25665D01*
X26076Y-25745D02*
X26980Y-25745D01*
X27336Y-25745D02*
X27436Y-25745D01*
X27793Y-25745D02*
X27945Y-25745D01*
X28415Y-25745D02*
X28515Y-25745D01*
X28985Y-25745D02*
X29501Y-25745D01*
X26156Y-25825D02*
X29501Y-25825D01*
X26236Y-25905D02*
X27959Y-25905D01*
X28971Y-25905D02*
X29501Y-25905D01*
X26316Y-25985D02*
X26979Y-25985D01*
X27793Y-25985D02*
X27920Y-25985D01*
X29009Y-25985D02*
X29474Y-25985D01*
X26396Y-26065D02*
X26987Y-26065D01*
X27784Y-26065D02*
X27920Y-26065D01*
X29009Y-26065D02*
X29394Y-26065D01*
X26476Y-26145D02*
X27024Y-26145D01*
X27747Y-26145D02*
X27948Y-26145D01*
X28980Y-26145D02*
X29314Y-26145D01*
X25476Y-20605D02*
X25835Y-20605D01*
X25466Y-20685D02*
X25835Y-20685D01*
X25052Y-20765D02*
X25855Y-20765D01*
X25052Y-20845D02*
X25152Y-20845D01*
X25424Y-20845D02*
X25888Y-20845D01*
X25052Y-20925D02*
X25152Y-20925D01*
X25476Y-20925D02*
X25954Y-20925D01*
X25052Y-21005D02*
X25152Y-21005D01*
X25470Y-21005D02*
X26055Y-21005D01*
X26465Y-21005D02*
X26576Y-21005D01*
X25052Y-21085D02*
X25152Y-21085D01*
X25437Y-21085D02*
X26795Y-21085D01*
X24792Y-21165D02*
X24862Y-21165D01*
X25018Y-21165D02*
X25186Y-21165D01*
X25341Y-21165D02*
X26587Y-21165D01*
X24792Y-21245D02*
X25565Y-21245D01*
X25803Y-21245D02*
X25981Y-21245D01*
X26220Y-21245D02*
X26494Y-21245D01*
X24792Y-21325D02*
X25462Y-21325D01*
X25842Y-21325D02*
X25942Y-21325D01*
X26322Y-21325D02*
X26414Y-21325D01*
X24792Y-21405D02*
X25426Y-21405D01*
X25842Y-21405D02*
X25942Y-21405D01*
X24792Y-21485D02*
X25442Y-21485D01*
X25842Y-21485D02*
X25942Y-21485D01*
X24792Y-21565D02*
X25942Y-21565D01*
X24792Y-21645D02*
X25456Y-21645D01*
X24792Y-21725D02*
X24897Y-21725D01*
X25183Y-21725D02*
X25419Y-21725D01*
X29247Y-26211D02*
X29501Y-25958D01*
X29501Y-24305D01*
X29009Y-24305D01*
X29009Y-24780D01*
X28976Y-24857D01*
X29009Y-24936D01*
X29009Y-25429D01*
X28976Y-25507D01*
X29009Y-25586D01*
X29010Y-25720D01*
X28948Y-25782D01*
X28515Y-25782D01*
X28515Y-25628D01*
X28415Y-25628D01*
X28415Y-25782D01*
X27982Y-25782D01*
X27920Y-25720D01*
X27921Y-25586D01*
X27953Y-25507D01*
X27921Y-25428D01*
X27921Y-24935D01*
X27953Y-24857D01*
X27937Y-24820D01*
X26623Y-24817D01*
X26620Y-24825D01*
X26577Y-24867D01*
X26580Y-24868D01*
X26613Y-24901D01*
X26648Y-24868D01*
X26740Y-24830D01*
X26802Y-24829D01*
X26864Y-24891D01*
X26864Y-25186D01*
X26864Y-25286D01*
X26864Y-25581D01*
X26802Y-25643D01*
X26740Y-25642D01*
X26648Y-25604D01*
X26613Y-25569D01*
X26580Y-25604D01*
X26488Y-25642D01*
X26139Y-25642D01*
X26048Y-25604D01*
X25978Y-25534D01*
X25940Y-25442D01*
X25940Y-25029D01*
X25978Y-24938D01*
X25994Y-24922D01*
X25994Y-24871D01*
X25983Y-24860D01*
X25950Y-24895D01*
X25858Y-24933D01*
X25688Y-24933D01*
X25431Y-25189D01*
X25504Y-25204D01*
X25598Y-25267D01*
X26498Y-26167D01*
X27046Y-26167D01*
X27018Y-26139D01*
X26980Y-26047D01*
X26979Y-25985D01*
X27041Y-25923D01*
X27041Y-25823D01*
X26979Y-25761D01*
X26980Y-25699D01*
X27009Y-25626D01*
X26964Y-25581D01*
X26964Y-25286D01*
X26964Y-25186D01*
X26964Y-24891D01*
X27026Y-24829D01*
X27088Y-24830D01*
X27180Y-24868D01*
X27250Y-24938D01*
X27288Y-25029D01*
X27288Y-25125D01*
X27227Y-25186D01*
X26964Y-25186D01*
X26964Y-25286D01*
X27227Y-25286D01*
X27288Y-25347D01*
X27288Y-25443D01*
X27264Y-25499D01*
X27275Y-25499D01*
X27274Y-25498D01*
X27278Y-25499D01*
X27275Y-25499D01*
X27336Y-25560D01*
X27336Y-25823D01*
X27041Y-25823D01*
X27041Y-25923D01*
X27336Y-25923D01*
X27436Y-25923D01*
X27436Y-25823D01*
X27436Y-25560D01*
X27497Y-25499D01*
X27494Y-25499D01*
X27498Y-25498D01*
X27497Y-25499D01*
X27593Y-25499D01*
X27684Y-25537D01*
X27754Y-25607D01*
X27792Y-25699D01*
X27793Y-25761D01*
X27731Y-25823D01*
X27436Y-25823D01*
X27436Y-25923D01*
X27731Y-25923D01*
X27793Y-25985D01*
X27792Y-26047D01*
X27754Y-26139D01*
X27719Y-26173D01*
X27729Y-26183D01*
X27950Y-26183D01*
X27957Y-26166D01*
X27921Y-26078D01*
X27920Y-25944D01*
X27982Y-25882D01*
X28415Y-25882D01*
X28515Y-25882D01*
X28948Y-25882D01*
X29010Y-25944D01*
X29009Y-26078D01*
X28972Y-26166D01*
X28990Y-26211D01*
X29247Y-26211D01*
X19960Y-20038D02*
X24264Y-20038D01*
X26088Y-20038D02*
X39016Y-20038D01*
X19960Y-20118D02*
X24117Y-20118D01*
X26236Y-20118D02*
X36239Y-20118D01*
X37286Y-20118D02*
X39016Y-20118D01*
X19960Y-20198D02*
X24037Y-20198D01*
X26316Y-20198D02*
X36129Y-20198D01*
X37395Y-20198D02*
X39016Y-20198D01*
X19960Y-20278D02*
X23957Y-20278D01*
X26509Y-20278D02*
X26544Y-20278D01*
X27108Y-20278D02*
X27144Y-20278D01*
X27708Y-20278D02*
X36090Y-20278D01*
X37435Y-20278D02*
X39016Y-20278D01*
X19960Y-20358D02*
X23894Y-20358D01*
X28123Y-20358D02*
X36080Y-20358D01*
X37444Y-20358D02*
X39016Y-20358D01*
X19960Y-20438D02*
X22956Y-20438D01*
X23528Y-20438D02*
X23555Y-20438D01*
X28250Y-20438D02*
X36080Y-20438D01*
X37444Y-20438D02*
X39016Y-20438D01*
X19960Y-20518D02*
X22894Y-20518D01*
X28330Y-20518D02*
X36080Y-20518D01*
X37444Y-20518D02*
X39016Y-20518D01*
X19960Y-20598D02*
X20708Y-20598D01*
X21052Y-20598D02*
X21152Y-20598D01*
X21497Y-20598D02*
X22868Y-20598D01*
X28410Y-20598D02*
X36080Y-20598D01*
X37444Y-20598D02*
X39016Y-20598D01*
X19960Y-20678D02*
X20507Y-20678D01*
X21052Y-20678D02*
X21152Y-20678D01*
X21698Y-20678D02*
X22868Y-20678D01*
X28490Y-20678D02*
X36080Y-20678D01*
X37444Y-20678D02*
X39016Y-20678D01*
X19960Y-20758D02*
X20424Y-20758D01*
X21052Y-20758D02*
X21152Y-20758D01*
X21781Y-20758D02*
X22868Y-20758D01*
X28570Y-20758D02*
X29581Y-20758D01*
X29948Y-20758D02*
X36080Y-20758D01*
X37444Y-20758D02*
X39016Y-20758D01*
X19960Y-20838D02*
X20349Y-20838D01*
X21052Y-20838D02*
X21152Y-20838D01*
X21856Y-20838D02*
X22868Y-20838D01*
X28650Y-20838D02*
X29467Y-20838D01*
X30061Y-20838D02*
X36080Y-20838D01*
X37444Y-20838D02*
X39016Y-20838D01*
X19960Y-20918D02*
X20316Y-20918D01*
X21052Y-20918D02*
X21152Y-20918D01*
X21889Y-20918D02*
X22868Y-20918D01*
X28711Y-20918D02*
X29397Y-20918D01*
X30132Y-20918D02*
X36099Y-20918D01*
X37424Y-20918D02*
X37737Y-20918D01*
X38328Y-20918D02*
X39016Y-20918D01*
X19960Y-20998D02*
X20284Y-20998D01*
X21052Y-20998D02*
X21152Y-20998D01*
X21921Y-20998D02*
X22870Y-20998D01*
X28743Y-20998D02*
X29364Y-20998D01*
X30165Y-20998D02*
X36153Y-20998D01*
X37371Y-20998D02*
X37617Y-20998D01*
X38448Y-20998D02*
X39016Y-20998D01*
X19960Y-21078D02*
X20319Y-21078D01*
X21052Y-21078D02*
X21152Y-21078D01*
X21885Y-21078D02*
X22903Y-21078D01*
X28755Y-21078D02*
X29339Y-21078D01*
X30189Y-21078D02*
X37537Y-21078D01*
X38528Y-21078D02*
X39016Y-21078D01*
X19960Y-21158D02*
X22952Y-21158D01*
X28755Y-21158D02*
X29339Y-21158D01*
X30189Y-21158D02*
X37475Y-21158D01*
X38590Y-21158D02*
X39016Y-21158D01*
X19960Y-21238D02*
X20301Y-21238D01*
X21904Y-21238D02*
X22952Y-21238D01*
X28755Y-21238D02*
X29343Y-21238D01*
X30184Y-21238D02*
X37442Y-21238D01*
X38623Y-21238D02*
X39016Y-21238D01*
X19960Y-21318D02*
X20296Y-21318D01*
X21907Y-21318D02*
X22431Y-21318D01*
X28755Y-21318D02*
X29376Y-21318D01*
X30151Y-21318D02*
X37408Y-21318D01*
X38656Y-21318D02*
X39016Y-21318D01*
X19960Y-21398D02*
X20328Y-21398D01*
X21875Y-21398D02*
X22326Y-21398D01*
X28755Y-21398D02*
X29419Y-21398D01*
X30109Y-21398D02*
X37389Y-21398D01*
X38675Y-21398D02*
X39016Y-21398D01*
X19960Y-21478D02*
X20373Y-21478D01*
X21829Y-21478D02*
X22246Y-21478D01*
X28755Y-21478D02*
X29474Y-21478D01*
X30054Y-21478D02*
X37389Y-21478D01*
X38675Y-21478D02*
X39016Y-21478D01*
X19960Y-21558D02*
X20405Y-21558D01*
X21799Y-21558D02*
X22166Y-21558D01*
X28755Y-21558D02*
X29474Y-21558D01*
X30054Y-21558D02*
X37389Y-21558D01*
X38675Y-21558D02*
X39016Y-21558D01*
X19960Y-21638D02*
X20333Y-21638D01*
X21872Y-21638D02*
X22086Y-21638D01*
X28755Y-21638D02*
X29474Y-21638D01*
X30054Y-21638D02*
X37397Y-21638D01*
X38667Y-21638D02*
X39016Y-21638D01*
X19960Y-21718D02*
X20300Y-21718D01*
X28755Y-21718D02*
X29474Y-21718D01*
X30054Y-21718D02*
X37430Y-21718D01*
X38633Y-21718D02*
X39016Y-21718D01*
X19960Y-21798D02*
X20267Y-21798D01*
X28755Y-21798D02*
X29474Y-21798D01*
X30054Y-21798D02*
X37463Y-21798D01*
X38600Y-21798D02*
X39016Y-21798D01*
X19960Y-21878D02*
X20256Y-21878D01*
X28755Y-21878D02*
X29474Y-21878D01*
X30054Y-21878D02*
X37510Y-21878D01*
X38553Y-21878D02*
X39016Y-21878D01*
X19960Y-21958D02*
X20256Y-21958D01*
X28755Y-21958D02*
X29474Y-21958D01*
X30054Y-21958D02*
X37590Y-21958D01*
X38473Y-21958D02*
X39016Y-21958D01*
X19960Y-22038D02*
X20257Y-22038D01*
X28755Y-22038D02*
X29474Y-22038D01*
X30054Y-22038D02*
X37674Y-22038D01*
X38390Y-22038D02*
X39016Y-22038D01*
X19960Y-22118D02*
X20290Y-22118D01*
X28810Y-22118D02*
X29474Y-22118D01*
X30054Y-22118D02*
X32353Y-22118D01*
X33238Y-22118D02*
X37864Y-22118D01*
X38197Y-22118D02*
X39016Y-22118D01*
X19960Y-22198D02*
X20323Y-22198D01*
X28943Y-22198D02*
X29474Y-22198D01*
X30054Y-22198D02*
X32219Y-22198D01*
X33371Y-22198D02*
X39016Y-22198D01*
X19960Y-22278D02*
X20383Y-22278D01*
X28993Y-22278D02*
X29474Y-22278D01*
X30054Y-22278D02*
X32170Y-22278D01*
X33421Y-22278D02*
X39016Y-22278D01*
X19960Y-22358D02*
X20393Y-22358D01*
X29009Y-22358D02*
X29474Y-22358D01*
X30054Y-22358D02*
X32153Y-22358D01*
X33437Y-22358D02*
X39016Y-22358D01*
X19960Y-22438D02*
X20328Y-22438D01*
X29009Y-22438D02*
X29474Y-22438D01*
X30054Y-22438D02*
X32153Y-22438D01*
X33437Y-22438D02*
X39016Y-22438D01*
X19960Y-22518D02*
X20295Y-22518D01*
X29009Y-22518D02*
X29474Y-22518D01*
X30054Y-22518D02*
X32153Y-22518D01*
X33437Y-22518D02*
X39016Y-22518D01*
X19960Y-22598D02*
X20261Y-22598D01*
X29009Y-22598D02*
X29474Y-22598D01*
X30054Y-22598D02*
X32153Y-22598D01*
X33437Y-22598D02*
X39016Y-22598D01*
X19960Y-22678D02*
X20256Y-22678D01*
X29009Y-22678D02*
X29474Y-22678D01*
X30054Y-22678D02*
X32153Y-22678D01*
X33437Y-22678D02*
X39016Y-22678D01*
X19960Y-22758D02*
X20256Y-22758D01*
X29009Y-22758D02*
X29474Y-22758D01*
X30054Y-22758D02*
X32153Y-22758D01*
X33437Y-22758D02*
X39016Y-22758D01*
X19960Y-22838D02*
X20262Y-22838D01*
X28997Y-22838D02*
X29474Y-22838D01*
X30054Y-22838D02*
X32164Y-22838D01*
X33425Y-22838D02*
X39016Y-22838D01*
X19960Y-22918D02*
X20295Y-22918D01*
X28955Y-22918D02*
X29474Y-22918D01*
X30054Y-22918D02*
X32207Y-22918D01*
X33383Y-22918D02*
X39016Y-22918D01*
X19960Y-22998D02*
X20328Y-22998D01*
X28838Y-22998D02*
X29474Y-22998D01*
X30054Y-22998D02*
X32323Y-22998D01*
X33266Y-22998D02*
X39016Y-22998D01*
X19960Y-23078D02*
X20396Y-23078D01*
X28405Y-23078D02*
X29474Y-23078D01*
X30054Y-23078D02*
X39016Y-23078D01*
X19960Y-23158D02*
X20380Y-23158D01*
X28919Y-23158D02*
X29474Y-23158D01*
X30054Y-23158D02*
X31022Y-23158D01*
X32325Y-23158D02*
X39016Y-23158D01*
X19960Y-23238D02*
X20323Y-23238D01*
X28983Y-23238D02*
X29474Y-23238D01*
X30054Y-23238D02*
X30959Y-23238D01*
X32388Y-23238D02*
X39016Y-23238D01*
X19960Y-23318D02*
X20289Y-23318D01*
X29009Y-23318D02*
X29474Y-23318D01*
X30054Y-23318D02*
X30932Y-23318D01*
X32414Y-23318D02*
X39016Y-23318D01*
X19960Y-23398D02*
X20256Y-23398D01*
X29009Y-23398D02*
X29474Y-23398D01*
X30054Y-23398D02*
X30932Y-23398D01*
X32414Y-23398D02*
X39016Y-23398D01*
X19960Y-23478D02*
X20256Y-23478D01*
X29009Y-23478D02*
X29474Y-23478D01*
X30054Y-23478D02*
X30932Y-23478D01*
X32414Y-23478D02*
X39016Y-23478D01*
X19960Y-23558D02*
X20256Y-23558D01*
X29009Y-23558D02*
X29474Y-23558D01*
X30054Y-23558D02*
X30932Y-23558D01*
X32414Y-23558D02*
X39016Y-23558D01*
X19960Y-23638D02*
X20267Y-23638D01*
X29009Y-23638D02*
X29474Y-23638D01*
X30054Y-23638D02*
X30932Y-23638D01*
X32414Y-23638D02*
X39016Y-23638D01*
X19960Y-23718D02*
X20300Y-23718D01*
X29009Y-23718D02*
X29474Y-23718D01*
X30054Y-23718D02*
X30932Y-23718D01*
X32414Y-23718D02*
X39016Y-23718D01*
X19960Y-23798D02*
X20333Y-23798D01*
X30059Y-23798D02*
X30933Y-23798D01*
X32412Y-23798D02*
X39016Y-23798D01*
X19960Y-23878D02*
X20409Y-23878D01*
X30075Y-23878D02*
X30966Y-23878D01*
X32379Y-23878D02*
X39016Y-23878D01*
X19960Y-23958D02*
X20368Y-23958D01*
X30081Y-23958D02*
X31044Y-23958D01*
X32301Y-23958D02*
X39016Y-23958D01*
X19960Y-24038D02*
X20318Y-24038D01*
X30081Y-24038D02*
X31484Y-24038D01*
X32513Y-24038D02*
X39016Y-24038D01*
X19960Y-24118D02*
X20284Y-24118D01*
X30081Y-24118D02*
X31394Y-24118D01*
X32603Y-24118D02*
X39016Y-24118D01*
X19960Y-24198D02*
X20256Y-24198D01*
X30081Y-24198D02*
X31360Y-24198D01*
X32636Y-24198D02*
X39016Y-24198D01*
X19960Y-24278D02*
X20256Y-24278D01*
X30081Y-24278D02*
X31356Y-24278D01*
X32640Y-24278D02*
X39016Y-24278D01*
X19960Y-24358D02*
X20256Y-24358D01*
X30081Y-24358D02*
X31356Y-24358D01*
X32640Y-24358D02*
X39016Y-24358D01*
X19960Y-24438D02*
X20272Y-24438D01*
X30081Y-24438D02*
X31356Y-24438D01*
X32640Y-24438D02*
X39016Y-24438D01*
X19960Y-24518D02*
X20305Y-24518D01*
X30081Y-24518D02*
X31356Y-24518D01*
X32640Y-24518D02*
X39016Y-24518D01*
X19960Y-24598D02*
X20341Y-24598D01*
X30081Y-24598D02*
X31356Y-24598D01*
X32640Y-24598D02*
X39016Y-24598D01*
X19960Y-24678D02*
X20421Y-24678D01*
X30081Y-24678D02*
X31356Y-24678D01*
X32640Y-24678D02*
X39016Y-24678D01*
X19960Y-24758D02*
X20355Y-24758D01*
X30081Y-24758D02*
X31379Y-24758D01*
X32616Y-24758D02*
X39016Y-24758D01*
X19960Y-24838D02*
X20312Y-24838D01*
X30081Y-24838D02*
X31440Y-24838D01*
X32556Y-24838D02*
X39016Y-24838D01*
X19960Y-24918D02*
X20279Y-24918D01*
X30081Y-24918D02*
X31410Y-24918D01*
X32508Y-24918D02*
X39016Y-24918D01*
X19960Y-24998D02*
X20256Y-24998D01*
X30081Y-24998D02*
X31345Y-24998D01*
X32574Y-24998D02*
X39016Y-24998D01*
X19960Y-25078D02*
X20256Y-25078D01*
X30081Y-25078D02*
X31317Y-25078D01*
X32601Y-25078D02*
X39016Y-25078D01*
X19960Y-25158D02*
X20256Y-25158D01*
X30081Y-25158D02*
X31317Y-25158D01*
X32601Y-25158D02*
X39016Y-25158D01*
X19960Y-25238D02*
X20278Y-25238D01*
X30081Y-25238D02*
X31317Y-25238D01*
X32601Y-25238D02*
X39016Y-25238D01*
X19960Y-25318D02*
X20311Y-25318D01*
X30081Y-25318D02*
X31317Y-25318D01*
X32601Y-25318D02*
X39016Y-25318D01*
X19960Y-25398D02*
X20354Y-25398D01*
X30081Y-25398D02*
X31317Y-25398D01*
X32601Y-25398D02*
X39016Y-25398D01*
X19960Y-25478D02*
X20422Y-25478D01*
X30081Y-25478D02*
X31317Y-25478D01*
X32601Y-25478D02*
X39016Y-25478D01*
X19960Y-25558D02*
X20342Y-25558D01*
X30081Y-25558D02*
X31317Y-25558D01*
X32601Y-25558D02*
X39016Y-25558D01*
X19960Y-25638D02*
X20307Y-25638D01*
X30081Y-25638D02*
X31317Y-25638D01*
X32601Y-25638D02*
X39016Y-25638D01*
X19960Y-25718D02*
X20273Y-25718D01*
X30081Y-25718D02*
X31317Y-25718D01*
X32601Y-25718D02*
X39016Y-25718D01*
X19960Y-25798D02*
X20256Y-25798D01*
X30081Y-25798D02*
X31317Y-25798D01*
X32601Y-25798D02*
X39016Y-25798D01*
X19960Y-25878D02*
X20256Y-25878D01*
X30081Y-25878D02*
X31317Y-25878D01*
X32601Y-25878D02*
X39016Y-25878D01*
X19960Y-25958D02*
X20256Y-25958D01*
X30081Y-25958D02*
X31320Y-25958D01*
X32597Y-25958D02*
X39016Y-25958D01*
X19960Y-26038D02*
X20283Y-26038D01*
X30081Y-26038D02*
X31353Y-26038D01*
X32564Y-26038D02*
X39016Y-26038D01*
X19960Y-26118D02*
X20316Y-26118D01*
X30073Y-26118D02*
X31441Y-26118D01*
X32547Y-26118D02*
X39016Y-26118D01*
X19960Y-26198D02*
X20320Y-26198D01*
X21884Y-26198D02*
X23653Y-26198D01*
X30052Y-26198D02*
X31384Y-26198D01*
X32613Y-26198D02*
X39016Y-26198D01*
X19960Y-26278D02*
X20276Y-26278D01*
X21929Y-26278D02*
X23630Y-26278D01*
X29999Y-26278D02*
X31356Y-26278D01*
X32640Y-26278D02*
X39016Y-26278D01*
X19960Y-26358D02*
X20263Y-26358D01*
X21941Y-26358D02*
X23630Y-26358D01*
X29920Y-26358D02*
X31356Y-26358D01*
X32640Y-26358D02*
X39016Y-26358D01*
X19960Y-26438D02*
X20263Y-26438D01*
X21941Y-26438D02*
X23636Y-26438D01*
X29839Y-26438D02*
X31356Y-26438D01*
X32640Y-26438D02*
X39016Y-26438D01*
X19960Y-26518D02*
X20263Y-26518D01*
X21941Y-26518D02*
X23669Y-26518D01*
X29795Y-26518D02*
X31356Y-26518D01*
X32640Y-26518D02*
X39016Y-26518D01*
X19960Y-26598D02*
X20263Y-26598D01*
X21941Y-26598D02*
X23714Y-26598D01*
X29875Y-26598D02*
X31356Y-26598D01*
X32640Y-26598D02*
X39016Y-26598D01*
X19960Y-26678D02*
X20263Y-26678D01*
X21941Y-26678D02*
X23765Y-26678D01*
X29955Y-26678D02*
X31356Y-26678D01*
X32640Y-26678D02*
X39016Y-26678D01*
X19960Y-26758D02*
X20263Y-26758D01*
X21941Y-26758D02*
X23765Y-26758D01*
X30023Y-26758D02*
X31356Y-26758D01*
X32640Y-26758D02*
X39016Y-26758D01*
X19960Y-26838D02*
X20263Y-26838D01*
X21941Y-26838D02*
X23765Y-26838D01*
X30064Y-26838D02*
X31389Y-26838D01*
X32606Y-26838D02*
X39016Y-26838D01*
X19960Y-26918D02*
X20263Y-26918D01*
X21941Y-26918D02*
X23765Y-26918D01*
X30080Y-26918D02*
X31463Y-26918D01*
X32533Y-26918D02*
X39016Y-26918D01*
X19960Y-26998D02*
X20263Y-26998D01*
X21941Y-26998D02*
X23765Y-26998D01*
X30081Y-26998D02*
X39016Y-26998D01*
X19960Y-27078D02*
X20296Y-27078D01*
X21907Y-27078D02*
X23765Y-27078D01*
X30081Y-27078D02*
X31427Y-27078D01*
X32452Y-27078D02*
X39016Y-27078D01*
X19960Y-27158D02*
X20370Y-27158D01*
X21834Y-27158D02*
X23765Y-27158D01*
X30081Y-27158D02*
X31335Y-27158D01*
X32544Y-27158D02*
X39016Y-27158D01*
X19960Y-27238D02*
X23765Y-27238D01*
X30081Y-27238D02*
X31302Y-27238D01*
X32577Y-27238D02*
X39016Y-27238D01*
X19960Y-27318D02*
X23765Y-27318D01*
X30081Y-27318D02*
X31297Y-27318D01*
X32581Y-27318D02*
X39016Y-27318D01*
X19960Y-27398D02*
X23765Y-27398D01*
X30081Y-27398D02*
X31297Y-27398D01*
X32581Y-27398D02*
X39016Y-27398D01*
X19960Y-27478D02*
X23765Y-27478D01*
X30081Y-27478D02*
X31297Y-27478D01*
X32581Y-27478D02*
X39016Y-27478D01*
X19960Y-27558D02*
X23765Y-27558D01*
X30081Y-27558D02*
X31297Y-27558D01*
X32581Y-27558D02*
X39016Y-27558D01*
X19960Y-27638D02*
X23772Y-27638D01*
X30081Y-27638D02*
X31297Y-27638D01*
X32581Y-27638D02*
X39016Y-27638D01*
X19960Y-27718D02*
X23793Y-27718D01*
X30081Y-27718D02*
X31297Y-27718D01*
X32581Y-27718D02*
X39016Y-27718D01*
X19960Y-27798D02*
X23846Y-27798D01*
X30081Y-27798D02*
X31320Y-27798D01*
X32557Y-27798D02*
X39016Y-27798D01*
X19960Y-27878D02*
X23925Y-27878D01*
X30081Y-27878D02*
X31380Y-27878D01*
X32498Y-27878D02*
X39016Y-27878D01*
X19960Y-27958D02*
X24005Y-27958D01*
X30081Y-27958D02*
X39016Y-27958D01*
X19960Y-28038D02*
X24085Y-28038D01*
X30081Y-28038D02*
X31444Y-28038D01*
X32396Y-28038D02*
X39016Y-28038D01*
X19960Y-28118D02*
X24165Y-28118D01*
X30081Y-28118D02*
X31329Y-28118D01*
X32509Y-28118D02*
X39016Y-28118D01*
X19960Y-28198D02*
X24245Y-28198D01*
X30081Y-28198D02*
X31288Y-28198D01*
X32551Y-28198D02*
X39016Y-28198D01*
X19960Y-28278D02*
X24325Y-28278D01*
X30081Y-28278D02*
X31277Y-28278D01*
X32561Y-28278D02*
X39016Y-28278D01*
X19960Y-28358D02*
X24405Y-28358D01*
X30081Y-28358D02*
X31277Y-28358D01*
X32561Y-28358D02*
X39016Y-28358D01*
X19960Y-28438D02*
X24485Y-28438D01*
X30081Y-28438D02*
X31277Y-28438D01*
X32561Y-28438D02*
X39016Y-28438D01*
X19960Y-28518D02*
X24565Y-28518D01*
X30081Y-28518D02*
X31277Y-28518D01*
X32561Y-28518D02*
X39016Y-28518D01*
X19960Y-28598D02*
X24645Y-28598D01*
X30081Y-28598D02*
X31277Y-28598D01*
X32561Y-28598D02*
X39016Y-28598D01*
X19960Y-28678D02*
X24725Y-28678D01*
X30081Y-28678D02*
X31277Y-28678D01*
X32561Y-28678D02*
X39016Y-28678D01*
X19960Y-28758D02*
X24805Y-28758D01*
X30081Y-28758D02*
X31294Y-28758D01*
X32543Y-28758D02*
X39016Y-28758D01*
X19960Y-28838D02*
X24885Y-28838D01*
X30081Y-28838D02*
X31345Y-28838D01*
X32493Y-28838D02*
X39016Y-28838D01*
X19960Y-28918D02*
X24965Y-28918D01*
X30081Y-28918D02*
X39016Y-28918D01*
X19960Y-28998D02*
X25045Y-28998D01*
X30081Y-28998D02*
X31487Y-28998D01*
X32372Y-28998D02*
X39016Y-28998D01*
X19960Y-29078D02*
X25125Y-29078D01*
X30081Y-29078D02*
X31353Y-29078D01*
X32505Y-29078D02*
X39016Y-29078D01*
X19960Y-29158D02*
X25205Y-29158D01*
X30081Y-29158D02*
X31304Y-29158D01*
X32555Y-29158D02*
X39016Y-29158D01*
X19960Y-29238D02*
X25285Y-29238D01*
X30081Y-29238D02*
X31287Y-29238D01*
X32571Y-29238D02*
X39016Y-29238D01*
X19960Y-29318D02*
X25365Y-29318D01*
X30081Y-29318D02*
X31287Y-29318D01*
X32571Y-29318D02*
X39016Y-29318D01*
X19960Y-29398D02*
X25445Y-29398D01*
X30081Y-29398D02*
X31287Y-29398D01*
X32571Y-29398D02*
X39016Y-29398D01*
X19960Y-29478D02*
X25525Y-29478D01*
X30081Y-29478D02*
X31287Y-29478D01*
X32571Y-29478D02*
X39016Y-29478D01*
X19960Y-29558D02*
X25605Y-29558D01*
X30081Y-29558D02*
X31287Y-29558D01*
X32571Y-29558D02*
X39016Y-29558D01*
X19960Y-29638D02*
X25689Y-29638D01*
X30081Y-29638D02*
X31287Y-29638D01*
X32571Y-29638D02*
X39016Y-29638D01*
X19960Y-29718D02*
X26844Y-29718D01*
X30081Y-29718D02*
X31298Y-29718D01*
X32559Y-29718D02*
X39016Y-29718D01*
X19960Y-29798D02*
X26724Y-29798D01*
X30081Y-29798D02*
X31320Y-29798D01*
X32539Y-29798D02*
X39016Y-29798D01*
X19960Y-29878D02*
X26681Y-29878D01*
X30081Y-29878D02*
X31287Y-29878D01*
X32571Y-29878D02*
X39016Y-29878D01*
X19960Y-29958D02*
X26668Y-29958D01*
X30081Y-29958D02*
X31287Y-29958D01*
X32571Y-29958D02*
X39016Y-29958D01*
X19960Y-30038D02*
X26668Y-30038D01*
X30081Y-30038D02*
X31287Y-30038D01*
X32571Y-30038D02*
X39016Y-30038D01*
X19960Y-30118D02*
X26668Y-30118D01*
X30081Y-30118D02*
X31287Y-30118D01*
X32571Y-30118D02*
X39016Y-30118D01*
X19960Y-30198D02*
X26668Y-30198D01*
X30081Y-30198D02*
X31287Y-30198D01*
X32571Y-30198D02*
X39016Y-30198D01*
X19960Y-30278D02*
X26668Y-30278D01*
X30078Y-30278D02*
X31287Y-30278D01*
X32571Y-30278D02*
X39016Y-30278D01*
X19960Y-30358D02*
X26683Y-30358D01*
X30062Y-30358D02*
X31287Y-30358D01*
X32571Y-30358D02*
X39016Y-30358D01*
X19960Y-30438D02*
X26732Y-30438D01*
X30018Y-30438D02*
X31315Y-30438D01*
X32542Y-30438D02*
X37755Y-30438D01*
X38309Y-30438D02*
X39016Y-30438D01*
X19960Y-30518D02*
X26752Y-30518D01*
X29950Y-30518D02*
X31382Y-30518D01*
X32476Y-30518D02*
X37625Y-30518D01*
X38440Y-30518D02*
X39016Y-30518D01*
X19960Y-30598D02*
X26760Y-30598D01*
X29870Y-30598D02*
X37545Y-30598D01*
X38520Y-30598D02*
X39016Y-30598D01*
X19960Y-30678D02*
X26780Y-30678D01*
X29790Y-30678D02*
X37478Y-30678D01*
X38587Y-30678D02*
X39016Y-30678D01*
X19960Y-30758D02*
X26834Y-30758D01*
X29710Y-30758D02*
X37445Y-30758D01*
X38620Y-30758D02*
X39016Y-30758D01*
X19960Y-30838D02*
X26913Y-30838D01*
X29630Y-30838D02*
X37411Y-30838D01*
X38653Y-30838D02*
X39016Y-30838D01*
X19960Y-30918D02*
X26993Y-30918D01*
X29550Y-30918D02*
X37389Y-30918D01*
X38675Y-30918D02*
X39016Y-30918D01*
X19960Y-30998D02*
X27103Y-30998D01*
X29439Y-30998D02*
X37389Y-30998D01*
X38675Y-30998D02*
X39016Y-30998D01*
X19960Y-31078D02*
X27958Y-31078D01*
X28973Y-31078D02*
X37389Y-31078D01*
X38675Y-31078D02*
X39016Y-31078D01*
X19960Y-31158D02*
X27924Y-31158D01*
X29006Y-31158D02*
X36641Y-31158D01*
X38670Y-31158D02*
X39016Y-31158D01*
X19960Y-31238D02*
X27921Y-31238D01*
X29009Y-31238D02*
X36559Y-31238D01*
X38637Y-31238D02*
X39016Y-31238D01*
X19960Y-31318D02*
X27921Y-31318D01*
X29009Y-31318D02*
X31811Y-31318D01*
X34647Y-31318D02*
X36526Y-31318D01*
X38603Y-31318D02*
X39016Y-31318D01*
X19960Y-31398D02*
X27921Y-31398D01*
X29009Y-31398D02*
X31759Y-31398D01*
X34700Y-31398D02*
X36523Y-31398D01*
X38561Y-31398D02*
X39016Y-31398D01*
X19960Y-31478D02*
X27921Y-31478D01*
X29009Y-31478D02*
X31740Y-31478D01*
X34718Y-31478D02*
X36523Y-31478D01*
X38481Y-31478D02*
X39016Y-31478D01*
X19960Y-31558D02*
X27921Y-31558D01*
X29009Y-31558D02*
X31740Y-31558D01*
X34718Y-31558D02*
X36523Y-31558D01*
X38401Y-31558D02*
X39016Y-31558D01*
X19960Y-31638D02*
X27921Y-31638D01*
X29009Y-31638D02*
X31740Y-31638D01*
X34718Y-31638D02*
X36523Y-31638D01*
X38216Y-31638D02*
X39016Y-31638D01*
X19960Y-31718D02*
X27945Y-31718D01*
X28984Y-31718D02*
X31740Y-31718D01*
X34718Y-31718D02*
X36523Y-31718D01*
X37887Y-31718D02*
X39016Y-31718D01*
X19960Y-31798D02*
X28007Y-31798D01*
X28923Y-31798D02*
X31740Y-31798D01*
X34718Y-31798D02*
X36523Y-31798D01*
X37887Y-31798D02*
X39016Y-31798D01*
X19960Y-31878D02*
X31740Y-31878D01*
X34718Y-31878D02*
X36523Y-31878D01*
X37887Y-31878D02*
X39016Y-31878D01*
X19960Y-31958D02*
X31740Y-31958D01*
X34718Y-31958D02*
X36549Y-31958D01*
X37860Y-31958D02*
X39016Y-31958D01*
X19960Y-32038D02*
X31740Y-32038D01*
X34718Y-32038D02*
X36613Y-32038D01*
X37797Y-32038D02*
X39016Y-32038D01*
X24793Y-25762D02*
X25273Y-25762D01*
X24874Y-25842D02*
X25353Y-25842D01*
X24954Y-25922D02*
X25433Y-25922D01*
X25026Y-26002D02*
X25513Y-26002D01*
X25074Y-26082D02*
X25593Y-26082D01*
X25090Y-26162D02*
X25673Y-26162D01*
X25093Y-26242D02*
X25753Y-26242D01*
X24480Y-26322D02*
X24513Y-26322D01*
X25093Y-26322D02*
X25833Y-26322D01*
X24480Y-26402D02*
X24513Y-26402D01*
X25093Y-26402D02*
X25913Y-26402D01*
X24455Y-26482D02*
X24513Y-26482D01*
X25093Y-26482D02*
X25993Y-26482D01*
X24422Y-26562D02*
X24513Y-26562D01*
X25093Y-26562D02*
X26073Y-26562D01*
X24352Y-26642D02*
X24513Y-26642D01*
X25093Y-26642D02*
X26153Y-26642D01*
X24345Y-26722D02*
X24513Y-26722D01*
X25093Y-26722D02*
X26262Y-26722D01*
X24345Y-26802D02*
X24513Y-26802D01*
X25093Y-26802D02*
X27080Y-26802D01*
X27690Y-26802D02*
X27943Y-26802D01*
X28986Y-26802D02*
X29259Y-26802D01*
X24345Y-26882D02*
X24513Y-26882D01*
X25093Y-26882D02*
X28002Y-26882D01*
X28928Y-26882D02*
X29339Y-26882D01*
X24345Y-26962D02*
X24513Y-26962D01*
X25093Y-26962D02*
X29419Y-26962D01*
X24345Y-27042D02*
X24513Y-27042D01*
X25093Y-27042D02*
X28114Y-27042D01*
X28818Y-27042D02*
X29499Y-27042D01*
X24345Y-27122D02*
X24513Y-27122D01*
X25130Y-27122D02*
X25408Y-27122D01*
X25960Y-27122D02*
X26008Y-27122D01*
X26560Y-27122D02*
X27984Y-27122D01*
X28946Y-27122D02*
X29501Y-27122D01*
X24345Y-27202D02*
X24513Y-27202D01*
X28994Y-27202D02*
X29501Y-27202D01*
X24345Y-27282D02*
X24528Y-27282D01*
X29009Y-27282D02*
X29501Y-27282D01*
X24345Y-27362D02*
X24565Y-27362D01*
X29009Y-27362D02*
X29501Y-27362D01*
X24345Y-27442D02*
X24630Y-27442D01*
X29009Y-27442D02*
X29501Y-27442D01*
X24389Y-27522D02*
X24710Y-27522D01*
X29009Y-27522D02*
X29501Y-27522D01*
X24469Y-27602D02*
X24790Y-27602D01*
X29009Y-27602D02*
X29501Y-27602D01*
X24549Y-27682D02*
X24870Y-27682D01*
X29009Y-27682D02*
X29501Y-27682D01*
X24629Y-27762D02*
X25037Y-27762D01*
X28996Y-27762D02*
X29501Y-27762D01*
X24709Y-27842D02*
X25412Y-27842D01*
X25955Y-27842D02*
X25994Y-27842D01*
X26574Y-27842D02*
X27978Y-27842D01*
X28952Y-27842D02*
X29501Y-27842D01*
X24789Y-27922D02*
X25994Y-27922D01*
X26574Y-27922D02*
X28098Y-27922D01*
X28830Y-27922D02*
X29501Y-27922D01*
X24869Y-28002D02*
X25994Y-28002D01*
X26574Y-28002D02*
X29501Y-28002D01*
X24949Y-28082D02*
X25994Y-28082D01*
X26574Y-28082D02*
X26682Y-28082D01*
X26827Y-28082D02*
X27001Y-28082D01*
X27147Y-28082D02*
X28009Y-28082D01*
X28412Y-28082D02*
X28518Y-28082D01*
X28921Y-28082D02*
X29501Y-28082D01*
X25029Y-28162D02*
X25982Y-28162D01*
X26864Y-28162D02*
X26964Y-28162D01*
X27246Y-28162D02*
X27947Y-28162D01*
X28415Y-28162D02*
X28515Y-28162D01*
X28984Y-28162D02*
X29501Y-28162D01*
X25109Y-28242D02*
X25947Y-28242D01*
X26864Y-28242D02*
X26964Y-28242D01*
X27282Y-28242D02*
X27921Y-28242D01*
X28415Y-28242D02*
X28515Y-28242D01*
X29010Y-28242D02*
X29501Y-28242D01*
X25189Y-28322D02*
X25940Y-28322D01*
X26864Y-28322D02*
X26964Y-28322D01*
X27288Y-28322D02*
X27921Y-28322D01*
X28415Y-28322D02*
X28515Y-28322D01*
X29010Y-28322D02*
X29501Y-28322D01*
X25269Y-28402D02*
X25940Y-28402D01*
X26864Y-28402D02*
X26964Y-28402D01*
X27239Y-28402D02*
X27964Y-28402D01*
X28415Y-28402D02*
X28515Y-28402D01*
X28966Y-28402D02*
X29501Y-28402D01*
X25349Y-28482D02*
X25940Y-28482D01*
X26864Y-28482D02*
X29501Y-28482D01*
X25429Y-28562D02*
X25940Y-28562D01*
X26864Y-28562D02*
X26964Y-28562D01*
X27275Y-28562D02*
X27940Y-28562D01*
X28415Y-28562D02*
X28515Y-28562D01*
X28990Y-28562D02*
X29501Y-28562D01*
X25509Y-28642D02*
X25940Y-28642D01*
X26864Y-28642D02*
X26964Y-28642D01*
X27288Y-28642D02*
X27920Y-28642D01*
X28415Y-28642D02*
X28515Y-28642D01*
X29009Y-28642D02*
X29501Y-28642D01*
X25589Y-28722D02*
X25961Y-28722D01*
X26864Y-28722D02*
X26964Y-28722D01*
X27266Y-28722D02*
X27923Y-28722D01*
X28415Y-28722D02*
X28515Y-28722D01*
X29006Y-28722D02*
X29501Y-28722D01*
X25669Y-28802D02*
X26018Y-28802D01*
X26608Y-28802D02*
X26618Y-28802D01*
X26864Y-28802D02*
X26964Y-28802D01*
X27210Y-28802D02*
X27956Y-28802D01*
X28415Y-28802D02*
X28515Y-28802D01*
X28973Y-28802D02*
X29501Y-28802D01*
X25749Y-28882D02*
X28038Y-28882D01*
X28388Y-28882D02*
X28542Y-28882D01*
X28891Y-28882D02*
X29501Y-28882D01*
X25829Y-28962D02*
X29501Y-28962D01*
X25909Y-29042D02*
X28003Y-29042D01*
X28927Y-29042D02*
X29501Y-29042D01*
X25989Y-29122D02*
X27943Y-29122D01*
X28986Y-29122D02*
X29501Y-29122D01*
X29009Y-29202D02*
X29501Y-29202D01*
X29009Y-29282D02*
X29501Y-29282D01*
X29009Y-29362D02*
X29501Y-29362D01*
X29009Y-29442D02*
X29501Y-29442D01*
X29009Y-29522D02*
X29501Y-29522D01*
X29009Y-29602D02*
X29501Y-29602D01*
X29004Y-29682D02*
X29501Y-29682D01*
X28974Y-29762D02*
X29501Y-29762D01*
X29007Y-29842D02*
X29501Y-29842D01*
X29009Y-29922D02*
X29501Y-29922D01*
X29009Y-30002D02*
X29501Y-30002D01*
X29009Y-30082D02*
X29501Y-30082D01*
X29009Y-30162D02*
X29486Y-30162D01*
X29009Y-30242D02*
X29406Y-30242D01*
X29009Y-30322D02*
X29326Y-30322D01*
X28983Y-30402D02*
X29246Y-30402D01*
X29009Y-24305D02*
X29501Y-24305D01*
X29009Y-24385D02*
X29501Y-24385D01*
X29009Y-24465D02*
X29501Y-24465D01*
X29009Y-24545D02*
X29501Y-24545D01*
X29009Y-24625D02*
X29501Y-24625D01*
X29009Y-24705D02*
X29501Y-24705D01*
X29006Y-24785D02*
X29501Y-24785D01*
X25978Y-24865D02*
X25988Y-24865D01*
X26579Y-24865D02*
X26656Y-24865D01*
X26838Y-24865D02*
X26990Y-24865D01*
X27173Y-24865D02*
X27950Y-24865D01*
X28980Y-24865D02*
X29501Y-24865D01*
X25675Y-24945D02*
X25976Y-24945D01*
X26864Y-24945D02*
X26964Y-24945D01*
X27253Y-24945D02*
X27921Y-24945D01*
X29009Y-24945D02*
X29501Y-24945D01*
X25595Y-25025D02*
X25942Y-25025D01*
X26864Y-25025D02*
X26964Y-25025D01*
X27287Y-25025D02*
X27921Y-25025D01*
X29009Y-25025D02*
X29501Y-25025D01*
X25515Y-25105D02*
X25940Y-25105D01*
X26864Y-25105D02*
X26964Y-25105D01*
X27288Y-25105D02*
X27921Y-25105D01*
X29009Y-25105D02*
X29501Y-25105D01*
X25435Y-25185D02*
X25940Y-25185D01*
X26864Y-25185D02*
X26964Y-25185D01*
X27228Y-25185D02*
X27921Y-25185D01*
X29009Y-25185D02*
X29501Y-25185D01*
X25596Y-25265D02*
X25940Y-25265D01*
X26864Y-25265D02*
X27921Y-25265D01*
X29009Y-25265D02*
X29501Y-25265D01*
X25676Y-25345D02*
X25940Y-25345D01*
X26864Y-25345D02*
X26964Y-25345D01*
X27286Y-25345D02*
X27921Y-25345D01*
X29009Y-25345D02*
X29501Y-25345D01*
X25756Y-25425D02*
X25940Y-25425D01*
X26864Y-25425D02*
X26964Y-25425D01*
X27288Y-25425D02*
X27921Y-25425D01*
X29009Y-25425D02*
X29501Y-25425D01*
X25836Y-25505D02*
X25966Y-25505D01*
X26864Y-25505D02*
X26964Y-25505D01*
X27281Y-25505D02*
X27491Y-25505D01*
X27608Y-25505D02*
X27952Y-25505D01*
X28976Y-25505D02*
X29501Y-25505D01*
X25916Y-25585D02*
X26029Y-25585D01*
X26597Y-25585D02*
X26629Y-25585D01*
X26860Y-25585D02*
X26968Y-25585D01*
X27336Y-25585D02*
X27436Y-25585D01*
X27732Y-25585D02*
X27922Y-25585D01*
X29009Y-25585D02*
X29501Y-25585D01*
X25996Y-25665D02*
X26994Y-25665D01*
X27336Y-25665D02*
X27436Y-25665D01*
X27778Y-25665D02*
X27921Y-25665D01*
X28415Y-25665D02*
X28515Y-25665D01*
X29010Y-25665D02*
X29501Y-25665D01*
X26076Y-25745D02*
X26980Y-25745D01*
X27336Y-25745D02*
X27436Y-25745D01*
X27793Y-25745D02*
X27945Y-25745D01*
X28415Y-25745D02*
X28515Y-25745D01*
X28985Y-25745D02*
X29501Y-25745D01*
X26156Y-25825D02*
X29501Y-25825D01*
X26236Y-25905D02*
X27959Y-25905D01*
X28971Y-25905D02*
X29501Y-25905D01*
X26316Y-25985D02*
X26979Y-25985D01*
X27793Y-25985D02*
X27920Y-25985D01*
X29009Y-25985D02*
X29474Y-25985D01*
X26396Y-26065D02*
X26987Y-26065D01*
X27784Y-26065D02*
X27920Y-26065D01*
X29009Y-26065D02*
X29394Y-26065D01*
X26476Y-26145D02*
X27024Y-26145D01*
X27747Y-26145D02*
X27948Y-26145D01*
X28980Y-26145D02*
X29314Y-26145D01*
X25476Y-20605D02*
X25835Y-20605D01*
X25466Y-20685D02*
X25835Y-20685D01*
X25052Y-20765D02*
X25855Y-20765D01*
X25052Y-20845D02*
X25152Y-20845D01*
X25424Y-20845D02*
X25888Y-20845D01*
X25052Y-20925D02*
X25152Y-20925D01*
X25476Y-20925D02*
X25954Y-20925D01*
X25052Y-21005D02*
X25152Y-21005D01*
X25470Y-21005D02*
X26055Y-21005D01*
X26465Y-21005D02*
X26576Y-21005D01*
X25052Y-21085D02*
X25152Y-21085D01*
X25437Y-21085D02*
X26795Y-21085D01*
X24792Y-21165D02*
X24862Y-21165D01*
X25018Y-21165D02*
X25186Y-21165D01*
X25341Y-21165D02*
X26587Y-21165D01*
X24792Y-21245D02*
X25565Y-21245D01*
X25803Y-21245D02*
X25981Y-21245D01*
X26220Y-21245D02*
X26494Y-21245D01*
X24792Y-21325D02*
X25462Y-21325D01*
X25842Y-21325D02*
X25942Y-21325D01*
X26322Y-21325D02*
X26414Y-21325D01*
X24792Y-21405D02*
X25426Y-21405D01*
X25842Y-21405D02*
X25942Y-21405D01*
X24792Y-21485D02*
X25442Y-21485D01*
X25842Y-21485D02*
X25942Y-21485D01*
X24792Y-21565D02*
X25942Y-21565D01*
X24792Y-21645D02*
X25456Y-21645D01*
X24792Y-21725D02*
X24897Y-21725D01*
X25183Y-21725D02*
X25419Y-21725D01*
X25443Y-21782D02*
X25418Y-21721D01*
X25417Y-21684D01*
X25479Y-21622D01*
X25479Y-21522D01*
X25417Y-21460D01*
X25418Y-21423D01*
X25456Y-21331D01*
X25476Y-21310D01*
X25476Y-20678D01*
X25476Y-20675D01*
X25477Y-20674D01*
X25476Y-20678D01*
X25476Y-21310D01*
X25526Y-21261D01*
X25617Y-21223D01*
X25716Y-21223D01*
X25780Y-21222D01*
X25842Y-21284D01*
X25842Y-21522D01*
X25479Y-21522D01*
X25479Y-21622D01*
X25842Y-21622D01*
X25942Y-21622D01*
X25942Y-21522D01*
X25942Y-21284D01*
X26004Y-21222D01*
X26068Y-21223D01*
X26167Y-21223D01*
X26258Y-21261D01*
X26328Y-21331D01*
X26353Y-21392D01*
X26369Y-21370D01*
X26548Y-21191D01*
X26642Y-21128D01*
X26753Y-21106D01*
X26786Y-21106D01*
X26797Y-21080D01*
X26841Y-21036D01*
X26651Y-21036D01*
X26560Y-20998D01*
X26526Y-20964D01*
X26500Y-20991D01*
X26344Y-21055D01*
X26175Y-21055D01*
X26019Y-20990D01*
X25899Y-20870D01*
X25835Y-20714D01*
X25835Y-20605D01*
X25476Y-20605D01*
X25476Y-20675D01*
X25415Y-20736D01*
X25152Y-20736D01*
X25052Y-20736D01*
X25052Y-20836D01*
X25052Y-21131D01*
X24990Y-21193D01*
X24928Y-21192D01*
X24836Y-21154D01*
X24801Y-21119D01*
X24792Y-21130D01*
X24792Y-21772D01*
X24799Y-21765D01*
X24955Y-21701D01*
X25124Y-21701D01*
X25214Y-21738D01*
X25214Y-21193D01*
X25152Y-21131D01*
X25152Y-20836D01*
X25415Y-20836D01*
X25476Y-20897D01*
X25476Y-20993D01*
X25438Y-21084D01*
X25368Y-21154D01*
X25276Y-21192D01*
X25214Y-21193D01*
X25214Y-21738D01*
X25280Y-21766D01*
X25296Y-21782D01*
X25443Y-21782D01*
M02*
