M48
;DRILL file {PCBnew (2011-07-08 BZR 3044)-stable} date 17/10/2011 18:07:26
;FORMAT={-:-/ absolute / inch / decimal}
FMAT,2
INCH,TZ
T1C0.016
T2C0.020
T3C0.028
T4C0.032
T5C0.035
T6C0.040
T7C0.098
T8C0.118
%
G90
G05
M72
T1
X3.964Y-1.882
X4.021Y-1.882
X4.082Y-1.882
X4.144Y-1.881
X4.195Y-1.319
X4.211Y-1.882
X4.243Y-1.380
X4.275Y-1.881
X4.281Y-1.358
X4.324Y-1.364
X4.336Y-1.880
X4.365Y-1.369
X4.397Y-1.882
X4.406Y-1.384
X4.528Y-1.881
X4.587Y-1.880
X4.604Y-1.302
X4.612Y-1.528
X4.634Y-1.565
X4.647Y-1.324
X4.650Y-1.880
X4.653Y-1.608
X4.682Y-1.296
X4.714Y-1.883
X4.745Y-1.334
X4.765Y-1.375
X4.776Y-1.882
X4.783Y-1.302
T2
X1.361Y-2.567
X1.386Y-2.032
X1.417Y-3.153
X1.435Y-1.652
X1.490Y-1.306
X1.498Y-2.565
X1.517Y-1.249
X1.524Y-1.355
X1.535Y-2.112
X1.570Y-1.432
X1.574Y-2.041
X1.620Y-1.365
X1.621Y-1.988
X1.632Y-1.603
X1.640Y-2.071
X1.644Y-1.490
X1.649Y-3.282
X1.682Y-1.935
X1.703Y-2.767
X1.709Y-1.629
X1.715Y-2.218
X1.717Y-2.297
X1.717Y-2.374
X1.718Y-2.037
X1.738Y-2.562
X1.741Y-1.348
X1.767Y-2.778
X1.780Y-3.090
X1.787Y-3.164
X1.802Y-3.277
X1.802Y-2.099
X1.813Y-2.447
X1.824Y-2.771
X1.856Y-1.601
X1.859Y-3.221
X1.865Y-3.008
X1.865Y-3.267
X1.878Y-1.784
X1.890Y-2.253
X1.923Y-2.664
X1.930Y-1.607
X1.931Y-1.845
X1.935Y-2.733
X1.936Y-1.482
X1.941Y-3.171
X1.947Y-3.263
X1.963Y-2.252
X1.995Y-2.311
X2.000Y-3.168
X2.007Y-2.468
X2.015Y-1.603
X2.015Y-1.784
X2.092Y-1.600
X2.157Y-3.037
X2.176Y-1.600
X2.177Y-1.823
X2.190Y-2.918
X2.235Y-2.825
X2.255Y-2.404
X2.258Y-1.722
X2.264Y-1.648
X2.287Y-2.869
X2.308Y-3.060
X2.311Y-3.002
X2.337Y-3.189
X2.355Y-2.769
X2.360Y-2.139
X2.372Y-2.214
X2.376Y-2.297
X2.376Y-2.535
X2.376Y-3.256
X2.395Y-3.042
X2.404Y-1.658
X2.412Y-2.716
X2.454Y-2.765
X2.463Y-1.660
X2.470Y-1.964
X2.471Y-2.202
X2.489Y-2.344
X2.490Y-2.920
X2.528Y-2.958
X2.545Y-2.059
X2.563Y-2.535
X2.565Y-2.682
X2.565Y-2.197
X2.567Y-2.369
X2.567Y-2.769
X2.577Y-2.005
X2.577Y-2.984
X2.589Y-1.913
X2.602Y-3.094
X2.607Y-1.409
X2.635Y-2.193
X2.654Y-2.350
X2.655Y-2.658
X2.655Y-2.957
X2.656Y-2.495
X2.672Y-2.288
X2.675Y-2.031
X2.715Y-1.984
X2.717Y-2.799
X2.719Y-2.930
X2.727Y-2.748
X2.748Y-2.388
X2.756Y-2.030
X2.766Y-2.607
X2.771Y-2.920
X2.771Y-2.535
X2.773Y-2.473
X2.783Y-2.343
X2.793Y-1.977
X2.825Y-2.721
X2.833Y-2.949
X2.835Y-2.023
X2.848Y-1.830
X2.855Y-1.304
X2.868Y-2.613
X2.874Y-1.968
X2.888Y-3.079
X2.894Y-2.795
X2.904Y-2.481
X2.910Y-2.015
X2.917Y-2.553
X2.920Y-2.955
X2.932Y-3.242
X2.950Y-1.972
X2.954Y-1.474
X2.964Y-3.196
X2.968Y-3.002
X2.983Y-2.413
X2.984Y-2.019
X3.013Y-2.664
X3.034Y-3.289
X3.039Y-2.031
X3.050Y-1.468
X3.087Y-2.058
X3.092Y-1.964
X3.092Y-2.690
X3.097Y-3.198
X3.104Y-2.793
X3.137Y-1.795
X3.141Y-2.038
X3.143Y-2.553
X3.146Y-2.235
X3.148Y-2.676
X3.148Y-3.241
X3.159Y-2.113
X3.195Y-1.895
X3.200Y-1.762
X3.219Y-3.198
X3.298Y-2.793
X3.299Y-2.031
X3.299Y-2.237
X3.299Y-2.553
X3.299Y-2.673
X3.358Y-2.977
X3.364Y-1.747
X3.371Y-2.029
X3.416Y-1.468
X3.419Y-2.211
X3.422Y-2.367
X3.461Y-1.815
X3.484Y-2.553
X3.489Y-2.671
X3.516Y-1.868
X3.535Y-1.468
X3.541Y-1.921
X3.543Y-2.091
X3.557Y-2.816
X3.564Y-1.744
X3.591Y-2.091
X3.621Y-1.468
X3.699Y-2.745
X3.702Y-1.704
X3.718Y-2.352
X3.721Y-2.548
X3.722Y-2.416
X3.722Y-2.481
X3.724Y-2.615
X3.738Y-2.680
X3.747Y-2.808
X3.797Y-3.179
X3.836Y-1.575
X3.860Y-3.178
X3.884Y-1.433
X3.907Y-2.015
X3.922Y-3.177
X3.944Y-1.270
X3.949Y-2.978
X3.966Y-1.634
X3.982Y-3.083
X3.996Y-2.970
X4.006Y-3.258
X4.017Y-1.484
X4.019Y-2.532
X4.041Y-2.802
X4.043Y-2.952
X4.077Y-2.731
X4.080Y-2.542
X4.091Y-2.687
X4.119Y-2.800
X4.177Y-2.163
X4.186Y-1.375
X4.213Y-2.389
X4.216Y-2.609
X4.226Y-2.436
X4.227Y-2.486
X4.234Y-2.298
X4.237Y-2.908
X4.250Y-3.105
X4.258Y-2.632
X4.274Y-2.677
X4.292Y-2.300
X4.318Y-2.369
X4.325Y-2.691
X4.326Y-3.245
X4.350Y-2.405
X4.352Y-2.891
X4.360Y-2.649
X4.367Y-2.848
X4.382Y-2.370
X4.402Y-2.892
X4.410Y-1.682
X4.414Y-2.413
X4.447Y-2.310
X4.448Y-2.360
X4.452Y-1.385
X4.467Y-2.413
X4.478Y-2.014
X4.482Y-2.708
X4.485Y-2.611
X4.502Y-1.386
X4.515Y-2.454
X4.548Y-2.247
X4.558Y-2.475
X4.581Y-2.613
X4.593Y-2.235
X4.605Y-2.570
X4.611Y-2.336
X4.612Y-2.520
X4.647Y-2.467
X4.653Y-2.315
X4.655Y-3.022
X4.686Y-2.279
X4.696Y-2.636
X4.698Y-2.587
X4.705Y-2.687
X4.708Y-2.847
X4.759Y-2.866
X4.813Y-2.201
X4.823Y-2.732
X4.827Y-2.686
X4.840Y-2.779
X4.853Y-2.985
X4.854Y-3.040
X4.878Y-1.688
X4.899Y-2.145
X4.913Y-1.501
X4.930Y-1.886
X4.933Y-1.441
X4.963Y-2.658
X4.971Y-1.904
X4.975Y-2.134
X4.995Y-1.834
X5.013Y-2.104
X5.031Y-1.539
X5.053Y-1.876
X5.055Y-2.076
X5.070Y-2.978
X5.093Y-1.472
X5.099Y-2.769
X5.100Y-1.847
X5.100Y-2.060
X5.111Y-2.609
X5.120Y-2.963
X5.122Y-2.314
X5.128Y-2.013
X5.141Y-2.092
X5.150Y-1.917
X5.155Y-2.848
X5.157Y-2.276
X5.204Y-2.018
X5.210Y-2.273
X5.240Y-1.570
X5.259Y-2.002
X5.282Y-2.111
X5.285Y-2.604
X5.296Y-2.655
X5.304Y-1.422
X5.304Y-1.562
X5.320Y-1.717
X5.342Y-2.115
X5.356Y-2.164
X5.373Y-2.911
X5.384Y-2.226
X5.405Y-2.289
X5.427Y-2.889
X5.429Y-3.055
X5.463Y-2.001
X5.498Y-2.288
X5.517Y-1.628
X5.532Y-3.004
X5.539Y-1.290
X5.550Y-2.172
X5.550Y-2.229
X5.552Y-2.115
X5.555Y-2.058
X5.560Y-1.685
X5.564Y-2.638
X5.600Y-2.993
X5.606Y-1.574
X5.616Y-2.588
X5.643Y-1.676
X5.654Y-2.793
X5.665Y-2.647
X5.673Y-2.982
X5.697Y-2.285
X5.726Y-3.305
X5.729Y-2.037
X5.751Y-3.039
X5.752Y-1.572
X5.765Y-1.704
X5.765Y-3.200
X5.766Y-2.586
X5.792Y-1.995
X5.860Y-1.835
X5.865Y-2.274
X5.870Y-1.948
X5.887Y-3.043
X5.887Y-3.195
X5.933Y-1.872
X5.936Y-2.704
X5.937Y-2.759
X5.937Y-2.591
X5.938Y-2.648
X6.026Y-1.920
X6.045Y-2.027
X6.066Y-1.813
X6.069Y-3.287
X6.078Y-1.410
X6.086Y-3.071
X6.117Y-2.647
X6.121Y-2.758
X6.122Y-2.703
X6.146Y-1.276
X6.158Y-1.923
X6.167Y-2.361
X6.184Y-2.632
X6.195Y-1.960
X6.204Y-2.793
X6.211Y-2.384
X6.256Y-2.408
X6.277Y-1.511
X6.280Y-2.028
X6.288Y-2.611
X6.294Y-3.290
X6.303Y-1.830
X6.316Y-2.700
X6.317Y-2.066
X6.350Y-1.491
X6.378Y-1.848
X6.383Y-2.055
X6.443Y-2.637
X6.447Y-2.326
X6.460Y-2.047
X6.480Y-2.787
X6.487Y-1.484
X6.506Y-1.626
X6.538Y-2.591
X6.548Y-2.741
X6.551Y-2.474
X6.595Y-3.003
X6.605Y-1.850
X6.606Y-1.989
X6.690Y-1.363
X6.709Y-2.391
X6.715Y-1.524
X6.733Y-2.190
X6.757Y-2.048
X6.767Y-3.075
X6.792Y-3.302
X6.802Y-1.585
X6.812Y-3.224
X6.841Y-2.339
X6.861Y-1.533
X6.875Y-2.112
X6.880Y-1.624
X6.938Y-2.411
X6.945Y-1.571
X6.961Y-2.257
X6.985Y-1.421
X6.986Y-3.121
X6.992Y-3.026
X7.006Y-3.182
X7.111Y-2.528
X7.115Y-2.670
X7.130Y-2.943
X7.141Y-1.518
X7.159Y-1.873
X7.161Y-2.411
X7.218Y-2.085
X7.224Y-1.496
X7.230Y-2.446
X7.230Y-2.827
X7.260Y-2.963
X7.266Y-2.536
X7.282Y-2.736
X7.295Y-1.915
X7.307Y-1.496
X7.323Y-3.276
X7.332Y-2.613
X7.334Y-1.593
X7.334Y-2.791
X7.374Y-1.918
X7.453Y-1.932
X7.492Y-1.480
X7.505Y-1.252
X7.505Y-1.389
X7.578Y-3.178
X7.584Y-3.094
X7.614Y-2.056
X7.742Y-2.030
T3
X5.013Y-2.603
X5.206Y-2.603
T4
X1.314Y-1.593
X1.314Y-1.672
X1.314Y-1.750
X1.314Y-1.829
X1.314Y-1.908
X1.434Y-2.216
X1.434Y-2.295
X1.434Y-2.373
X1.434Y-2.452
X1.440Y-2.887
X1.440Y-2.965
X1.859Y-1.326
X1.938Y-1.326
X2.016Y-1.326
X2.095Y-1.326
X2.174Y-1.326
X2.252Y-1.326
X2.331Y-1.326
X2.410Y-1.326
X2.489Y-1.326
X2.954Y-1.352
X3.033Y-1.352
X3.111Y-1.352
X3.190Y-1.352
X3.269Y-1.352
X3.348Y-1.352
X3.426Y-1.352
X3.505Y-1.352
X3.584Y-1.352
X3.663Y-1.352
X3.741Y-1.352
X3.820Y-1.352
X4.073Y-3.213
X4.152Y-3.213
X4.231Y-3.213
X4.939Y-3.220
X5.018Y-3.220
X5.035Y-1.322
X5.096Y-3.220
X5.114Y-1.322
X5.175Y-3.220
X5.192Y-1.322
X5.254Y-3.220
X5.271Y-1.322
X5.333Y-3.220
X5.350Y-1.322
X5.411Y-3.220
X5.429Y-1.322
X5.490Y-3.220
X5.532Y-1.791
X5.611Y-1.791
X5.715Y-1.324
X5.794Y-1.324
X5.873Y-1.324
X5.952Y-1.324
X6.030Y-1.324
X6.437Y-1.372
X6.441Y-3.063
X6.441Y-3.141
X6.441Y-3.220
X6.516Y-1.372
X6.595Y-1.372
X6.788Y-1.333
X6.867Y-1.333
X6.945Y-1.333
X7.024Y-1.333
X7.103Y-1.333
X7.125Y-3.061
X7.125Y-3.140
X7.125Y-3.219
X7.182Y-1.333
X7.216Y-1.688
X7.260Y-1.333
X7.295Y-1.688
X7.339Y-1.333
X7.373Y-1.688
X7.418Y-1.333
X7.452Y-1.688
X7.680Y-1.548
X7.680Y-1.627
X7.680Y-1.706
X7.680Y-1.784
X7.680Y-1.863
X7.680Y-1.942
T5
X2.020Y-1.969
X2.020Y-2.126
X2.020Y-2.547
X2.020Y-2.705
X2.256Y-1.969
X2.256Y-2.126
X2.256Y-2.547
X2.256Y-2.705
X6.335Y-2.169
X6.335Y-2.327
X6.571Y-2.169
X6.571Y-2.327
X6.689Y-1.819
X6.689Y-1.976
X6.689Y-2.528
X6.689Y-2.685
X6.925Y-1.819
X6.925Y-1.976
X6.925Y-2.528
X6.925Y-2.685
X7.043Y-2.169
X7.043Y-2.327
X7.280Y-2.169
X7.280Y-2.327
T6
X2.697Y-1.615
X2.844Y-1.615
X2.992Y-1.615
X3.440Y-3.234
X3.540Y-3.234
X3.640Y-3.234
X4.413Y-3.139
X4.413Y-3.239
X4.513Y-3.139
X4.513Y-3.239
X4.613Y-3.139
X4.613Y-3.239
X4.713Y-3.139
X4.713Y-3.239
X7.470Y-2.755
X7.470Y-2.855
X7.470Y-2.955
X7.474Y-2.167
X7.474Y-2.267
X7.474Y-2.367
X7.474Y-2.467
X7.474Y-2.567
X7.570Y-2.755
X7.570Y-2.855
X7.570Y-2.955
X7.574Y-2.167
X7.574Y-2.267
X7.574Y-2.367
X7.574Y-2.467
X7.574Y-2.567
T7
X2.142Y-2.343
X2.748Y-1.378
X2.748Y-3.197
X6.181Y-3.197
X6.236Y-1.378
T8
X1.350Y-1.343
X1.571Y-3.154
X7.437Y-3.165
X7.658Y-1.343
T0
M30
