G04 (created by PCBNEW-RS274X (2011-11-27 BZR 3249)-stable) date 21/02/2012 2:37:18 p.m.*
G01*
G70*
G90*
%MOIN*%
G04 Gerber Fmt 3.4, Leading zero omitted, Abs format*
%FSLAX34Y34*%
G04 APERTURE LIST*
%ADD10C,0.006000*%
%ADD11R,0.100000X0.200800*%
%ADD12C,0.551200*%
%ADD13C,0.078700*%
%ADD14O,0.118100X0.059100*%
%ADD15R,0.118100X0.059100*%
%ADD16C,0.035000*%
%ADD17C,0.008000*%
%ADD18C,0.010000*%
G04 APERTURE END LIST*
G54D10*
G54D11*
X22874Y-28622D03*
X31890Y-28622D03*
G54D12*
X27402Y-28622D03*
G54D13*
X38032Y-31019D03*
X38032Y-21491D03*
G54D14*
X21126Y-22725D03*
X21126Y-21938D03*
G54D15*
X21126Y-21150D03*
G54D14*
X21126Y-23512D03*
X21126Y-24300D03*
X21126Y-25087D03*
X21126Y-25874D03*
X21126Y-26661D03*
G54D16*
X24055Y-24645D03*
X24055Y-26338D03*
X23110Y-25472D03*
X29764Y-21142D03*
X26260Y-20630D03*
X20984Y-31495D03*
X22559Y-31495D03*
X20118Y-28661D03*
X25709Y-20748D03*
X20118Y-30118D03*
X29330Y-25866D03*
X29409Y-28464D03*
X29645Y-31495D03*
X37992Y-24015D03*
X31260Y-31495D03*
X37992Y-26023D03*
X37992Y-28188D03*
X35433Y-20629D03*
X23701Y-20236D03*
X29764Y-20236D03*
X22638Y-20236D03*
X35669Y-31495D03*
X31417Y-20236D03*
X20118Y-31496D03*
X25039Y-22126D03*
G54D17*
X24055Y-24645D02*
X24055Y-26338D01*
X26378Y-20748D02*
X26260Y-20630D01*
X29370Y-20748D02*
X26378Y-20748D01*
X22433Y-26661D02*
X22441Y-26653D01*
X22441Y-26653D02*
X23110Y-25984D01*
X23110Y-25984D02*
X23110Y-25472D01*
X21126Y-26661D02*
X22433Y-26661D01*
X29764Y-21142D02*
X29370Y-20748D01*
X20118Y-31496D02*
X20118Y-30118D01*
X29409Y-28464D02*
X29409Y-25945D01*
X27402Y-28622D02*
X25393Y-28661D01*
X27402Y-28622D02*
X27402Y-22520D01*
X20984Y-31495D02*
X20118Y-31496D01*
X27402Y-22520D02*
X26023Y-21141D01*
X25906Y-21141D02*
X25906Y-20945D01*
X26023Y-21141D02*
X25906Y-21141D01*
X21299Y-20236D02*
X21102Y-20433D01*
X29409Y-25945D02*
X29330Y-25866D01*
X37992Y-24015D02*
X35433Y-21456D01*
X31260Y-31495D02*
X35669Y-31495D01*
X29764Y-20236D02*
X23701Y-20236D01*
X21102Y-20433D02*
X21102Y-21126D01*
X27402Y-31495D02*
X27402Y-28622D01*
X35433Y-21456D02*
X35433Y-20629D01*
X37992Y-28188D02*
X37992Y-26023D01*
X22559Y-31495D02*
X27402Y-31495D01*
X25906Y-20945D02*
X25709Y-20748D01*
X25897Y-21150D02*
X25906Y-21141D01*
X21126Y-21150D02*
X25897Y-21150D01*
X21102Y-21126D02*
X21126Y-21150D01*
X22638Y-20236D02*
X21299Y-20236D01*
X27402Y-31495D02*
X29645Y-31495D01*
X25039Y-23150D02*
X25039Y-22126D01*
X23583Y-25905D02*
X23583Y-24606D01*
X23583Y-26496D02*
X23583Y-25905D01*
X22874Y-28622D02*
X22874Y-27205D01*
X23583Y-24606D02*
X25039Y-23150D01*
X22874Y-27205D02*
X23583Y-26496D01*
G54D18*
X20010Y-20088D02*
X38966Y-20088D01*
X20010Y-20168D02*
X38966Y-20168D01*
X20010Y-20248D02*
X26071Y-20248D01*
X26448Y-20248D02*
X38966Y-20248D01*
X20010Y-20328D02*
X25961Y-20328D01*
X26559Y-20328D02*
X38966Y-20328D01*
X20010Y-20408D02*
X25892Y-20408D01*
X26628Y-20408D02*
X38966Y-20408D01*
X20010Y-20488D02*
X25858Y-20488D01*
X29492Y-20488D02*
X38966Y-20488D01*
X20010Y-20568D02*
X25835Y-20568D01*
X29600Y-20568D02*
X38966Y-20568D01*
X20010Y-20648D02*
X20391Y-20648D01*
X21057Y-20648D02*
X21195Y-20648D01*
X21861Y-20648D02*
X25835Y-20648D01*
X29680Y-20648D02*
X38966Y-20648D01*
X20010Y-20728D02*
X20319Y-20728D01*
X21076Y-20728D02*
X21176Y-20728D01*
X21932Y-20728D02*
X25841Y-20728D01*
X29875Y-20728D02*
X38966Y-20728D01*
X20010Y-20808D02*
X20286Y-20808D01*
X21076Y-20808D02*
X21176Y-20808D01*
X21965Y-20808D02*
X25874Y-20808D01*
X30031Y-20808D02*
X38966Y-20808D01*
X20010Y-20888D02*
X20286Y-20888D01*
X21076Y-20888D02*
X21176Y-20888D01*
X21965Y-20888D02*
X25917Y-20888D01*
X30111Y-20888D02*
X37808Y-20888D01*
X38256Y-20888D02*
X38966Y-20888D01*
X20010Y-20968D02*
X20286Y-20968D01*
X21076Y-20968D02*
X21176Y-20968D01*
X21965Y-20968D02*
X25997Y-20968D01*
X30152Y-20968D02*
X37646Y-20968D01*
X38417Y-20968D02*
X38966Y-20968D01*
X20010Y-21048D02*
X20296Y-21048D01*
X21076Y-21048D02*
X21176Y-21048D01*
X21956Y-21048D02*
X21966Y-21048D01*
X21966Y-21048D02*
X26159Y-21048D01*
X26361Y-21048D02*
X29260Y-21048D01*
X30184Y-21048D02*
X37566Y-21048D01*
X38497Y-21048D02*
X38966Y-21048D01*
X20010Y-21128D02*
X21076Y-21128D01*
X21076Y-21128D02*
X21966Y-21128D01*
X21966Y-21128D02*
X29339Y-21128D01*
X30189Y-21128D02*
X37487Y-21128D01*
X38577Y-21128D02*
X38966Y-21128D01*
X20010Y-21208D02*
X20340Y-21208D01*
X21912Y-21208D02*
X21966Y-21208D01*
X21966Y-21208D02*
X29339Y-21208D01*
X30189Y-21208D02*
X37453Y-21208D01*
X38610Y-21208D02*
X38966Y-21208D01*
X20010Y-21288D02*
X20287Y-21288D01*
X21966Y-21288D02*
X29365Y-21288D01*
X30164Y-21288D02*
X30189Y-21288D01*
X30189Y-21288D02*
X37420Y-21288D01*
X38643Y-21288D02*
X38966Y-21288D01*
X20010Y-21368D02*
X20287Y-21368D01*
X21966Y-21368D02*
X29398Y-21368D01*
X30131Y-21368D02*
X30189Y-21368D01*
X30189Y-21368D02*
X37389Y-21368D01*
X38675Y-21368D02*
X38966Y-21368D01*
X20010Y-21448D02*
X20287Y-21448D01*
X21966Y-21448D02*
X29469Y-21448D01*
X30059Y-21448D02*
X30189Y-21448D01*
X30189Y-21448D02*
X37389Y-21448D01*
X38675Y-21448D02*
X38966Y-21448D01*
X20010Y-21528D02*
X20302Y-21528D01*
X21951Y-21528D02*
X29586Y-21528D01*
X29944Y-21528D02*
X30189Y-21528D01*
X30189Y-21528D02*
X37389Y-21528D01*
X38675Y-21528D02*
X38966Y-21528D01*
X20010Y-21608D02*
X20347Y-21608D01*
X21905Y-21608D02*
X30189Y-21608D01*
X30189Y-21608D02*
X37389Y-21608D01*
X38675Y-21608D02*
X38966Y-21608D01*
X20010Y-21688D02*
X20339Y-21688D01*
X21912Y-21688D02*
X30189Y-21688D01*
X30189Y-21688D02*
X37419Y-21688D01*
X38647Y-21688D02*
X38675Y-21688D01*
X38675Y-21688D02*
X38966Y-21688D01*
X20010Y-21768D02*
X20306Y-21768D01*
X21945Y-21768D02*
X24796Y-21768D01*
X25282Y-21768D02*
X30189Y-21768D01*
X30189Y-21768D02*
X37452Y-21768D01*
X38613Y-21768D02*
X38675Y-21768D01*
X38675Y-21768D02*
X38966Y-21768D01*
X20010Y-21848D02*
X20280Y-21848D01*
X21972Y-21848D02*
X24716Y-21848D01*
X25362Y-21848D02*
X30189Y-21848D01*
X30189Y-21848D02*
X37485Y-21848D01*
X38580Y-21848D02*
X38675Y-21848D01*
X38675Y-21848D02*
X38966Y-21848D01*
X20010Y-21928D02*
X20280Y-21928D01*
X21972Y-21928D02*
X24661Y-21928D01*
X25417Y-21928D02*
X30189Y-21928D01*
X30189Y-21928D02*
X37561Y-21928D01*
X38504Y-21928D02*
X38675Y-21928D01*
X38675Y-21928D02*
X38966Y-21928D01*
X20010Y-22008D02*
X20280Y-22008D01*
X21972Y-22008D02*
X24627Y-22008D01*
X25450Y-22008D02*
X30189Y-22008D01*
X30189Y-22008D02*
X37641Y-22008D01*
X38424Y-22008D02*
X38675Y-22008D01*
X38675Y-22008D02*
X38966Y-22008D01*
X20010Y-22088D02*
X20299Y-22088D01*
X21955Y-22088D02*
X24614Y-22088D01*
X25464Y-22088D02*
X30189Y-22088D01*
X30189Y-22088D02*
X37794Y-22088D01*
X38270Y-22088D02*
X38675Y-22088D01*
X38675Y-22088D02*
X38966Y-22088D01*
X20010Y-22168D02*
X20331Y-22168D01*
X21921Y-22168D02*
X24614Y-22168D01*
X25464Y-22168D02*
X30189Y-22168D01*
X30189Y-22168D02*
X38675Y-22168D01*
X38675Y-22168D02*
X38966Y-22168D01*
X20010Y-22248D02*
X20369Y-22248D01*
X21883Y-22248D02*
X24630Y-22248D01*
X25449Y-22248D02*
X25464Y-22248D01*
X25464Y-22248D02*
X30189Y-22248D01*
X30189Y-22248D02*
X38675Y-22248D01*
X38675Y-22248D02*
X38966Y-22248D01*
X20010Y-22328D02*
X20449Y-22328D01*
X21803Y-22328D02*
X24663Y-22328D01*
X25416Y-22328D02*
X25464Y-22328D01*
X25464Y-22328D02*
X30189Y-22328D01*
X30189Y-22328D02*
X38675Y-22328D01*
X38675Y-22328D02*
X38966Y-22328D01*
X20010Y-22408D02*
X20375Y-22408D01*
X21876Y-22408D02*
X24720Y-22408D01*
X25358Y-22408D02*
X25464Y-22408D01*
X25464Y-22408D02*
X30189Y-22408D01*
X30189Y-22408D02*
X38675Y-22408D01*
X38675Y-22408D02*
X38966Y-22408D01*
X20010Y-22488D02*
X20334Y-22488D01*
X21918Y-22488D02*
X24749Y-22488D01*
X25329Y-22488D02*
X25464Y-22488D01*
X25464Y-22488D02*
X30189Y-22488D01*
X30189Y-22488D02*
X38675Y-22488D01*
X38675Y-22488D02*
X38966Y-22488D01*
X20010Y-22568D02*
X20300Y-22568D01*
X21951Y-22568D02*
X24749Y-22568D01*
X25329Y-22568D02*
X25464Y-22568D01*
X25464Y-22568D02*
X30189Y-22568D01*
X30189Y-22568D02*
X38675Y-22568D01*
X38675Y-22568D02*
X38966Y-22568D01*
X20010Y-22648D02*
X20280Y-22648D01*
X21972Y-22648D02*
X24749Y-22648D01*
X25329Y-22648D02*
X25464Y-22648D01*
X25464Y-22648D02*
X30189Y-22648D01*
X30189Y-22648D02*
X38675Y-22648D01*
X38675Y-22648D02*
X38966Y-22648D01*
X20010Y-22728D02*
X20280Y-22728D01*
X21972Y-22728D02*
X24749Y-22728D01*
X25329Y-22728D02*
X25464Y-22728D01*
X25464Y-22728D02*
X30189Y-22728D01*
X30189Y-22728D02*
X38675Y-22728D01*
X38675Y-22728D02*
X38966Y-22728D01*
X20010Y-22808D02*
X20280Y-22808D01*
X21972Y-22808D02*
X24749Y-22808D01*
X25329Y-22808D02*
X25464Y-22808D01*
X25464Y-22808D02*
X30189Y-22808D01*
X30189Y-22808D02*
X38675Y-22808D01*
X38675Y-22808D02*
X38966Y-22808D01*
X20010Y-22888D02*
X20304Y-22888D01*
X21949Y-22888D02*
X24749Y-22888D01*
X25329Y-22888D02*
X25464Y-22888D01*
X25464Y-22888D02*
X30189Y-22888D01*
X30189Y-22888D02*
X38675Y-22888D01*
X38675Y-22888D02*
X38966Y-22888D01*
X20010Y-22968D02*
X20337Y-22968D01*
X21916Y-22968D02*
X24749Y-22968D01*
X25329Y-22968D02*
X25464Y-22968D01*
X25464Y-22968D02*
X30189Y-22968D01*
X30189Y-22968D02*
X38675Y-22968D01*
X38675Y-22968D02*
X38966Y-22968D01*
X20010Y-23048D02*
X20382Y-23048D01*
X21870Y-23048D02*
X24731Y-23048D01*
X25329Y-23048D02*
X25464Y-23048D01*
X25464Y-23048D02*
X30189Y-23048D01*
X30189Y-23048D02*
X38675Y-23048D01*
X38675Y-23048D02*
X38966Y-23048D01*
X20010Y-23128D02*
X20442Y-23128D01*
X21809Y-23128D02*
X24651Y-23128D01*
X25329Y-23128D02*
X25464Y-23128D01*
X25464Y-23128D02*
X30189Y-23128D01*
X30189Y-23128D02*
X38675Y-23128D01*
X38675Y-23128D02*
X38966Y-23128D01*
X20010Y-23208D02*
X20362Y-23208D01*
X21889Y-23208D02*
X24571Y-23208D01*
X25318Y-23208D02*
X25464Y-23208D01*
X25464Y-23208D02*
X30189Y-23208D01*
X30189Y-23208D02*
X38675Y-23208D01*
X38675Y-23208D02*
X38966Y-23208D01*
X20010Y-23288D02*
X20328Y-23288D01*
X21923Y-23288D02*
X24491Y-23288D01*
X25289Y-23288D02*
X25464Y-23288D01*
X25464Y-23288D02*
X30189Y-23288D01*
X30189Y-23288D02*
X38675Y-23288D01*
X38675Y-23288D02*
X38966Y-23288D01*
X20010Y-23368D02*
X20295Y-23368D01*
X21956Y-23368D02*
X24411Y-23368D01*
X25231Y-23368D02*
X25464Y-23368D01*
X25464Y-23368D02*
X30189Y-23368D01*
X30189Y-23368D02*
X38675Y-23368D01*
X38675Y-23368D02*
X38966Y-23368D01*
X20010Y-23448D02*
X20280Y-23448D01*
X21972Y-23448D02*
X24331Y-23448D01*
X25151Y-23448D02*
X25464Y-23448D01*
X25464Y-23448D02*
X30189Y-23448D01*
X30189Y-23448D02*
X38675Y-23448D01*
X38675Y-23448D02*
X38966Y-23448D01*
X20010Y-23528D02*
X20280Y-23528D01*
X21972Y-23528D02*
X24251Y-23528D01*
X25071Y-23528D02*
X25464Y-23528D01*
X25464Y-23528D02*
X30189Y-23528D01*
X30189Y-23528D02*
X38675Y-23528D01*
X38675Y-23528D02*
X38966Y-23528D01*
X20010Y-23608D02*
X20280Y-23608D01*
X21972Y-23608D02*
X24171Y-23608D01*
X24991Y-23608D02*
X25464Y-23608D01*
X25464Y-23608D02*
X30189Y-23608D01*
X30189Y-23608D02*
X38675Y-23608D01*
X38675Y-23608D02*
X38966Y-23608D01*
X20010Y-23688D02*
X20309Y-23688D01*
X21944Y-23688D02*
X24091Y-23688D01*
X24911Y-23688D02*
X25464Y-23688D01*
X25464Y-23688D02*
X30189Y-23688D01*
X30189Y-23688D02*
X38675Y-23688D01*
X38675Y-23688D02*
X38966Y-23688D01*
X20010Y-23768D02*
X20342Y-23768D01*
X21910Y-23768D02*
X24011Y-23768D01*
X24831Y-23768D02*
X25464Y-23768D01*
X25464Y-23768D02*
X30189Y-23768D01*
X30189Y-23768D02*
X38675Y-23768D01*
X38675Y-23768D02*
X38966Y-23768D01*
X20010Y-23848D02*
X20395Y-23848D01*
X21857Y-23848D02*
X23931Y-23848D01*
X24751Y-23848D02*
X25464Y-23848D01*
X25464Y-23848D02*
X30189Y-23848D01*
X30189Y-23848D02*
X38675Y-23848D01*
X38675Y-23848D02*
X38966Y-23848D01*
X20010Y-23928D02*
X20429Y-23928D01*
X21821Y-23928D02*
X23851Y-23928D01*
X24671Y-23928D02*
X25464Y-23928D01*
X25464Y-23928D02*
X30189Y-23928D01*
X30189Y-23928D02*
X38675Y-23928D01*
X38675Y-23928D02*
X38966Y-23928D01*
X20010Y-24008D02*
X20357Y-24008D01*
X21895Y-24008D02*
X23771Y-24008D01*
X24591Y-24008D02*
X25464Y-24008D01*
X25464Y-24008D02*
X30189Y-24008D01*
X30189Y-24008D02*
X38675Y-24008D01*
X38675Y-24008D02*
X38966Y-24008D01*
X20010Y-24088D02*
X20323Y-24088D01*
X21928Y-24088D02*
X23691Y-24088D01*
X24511Y-24088D02*
X25464Y-24088D01*
X25464Y-24088D02*
X30189Y-24088D01*
X30189Y-24088D02*
X38675Y-24088D01*
X38675Y-24088D02*
X38966Y-24088D01*
X20010Y-24168D02*
X20290Y-24168D01*
X21961Y-24168D02*
X23611Y-24168D01*
X24431Y-24168D02*
X25464Y-24168D01*
X25464Y-24168D02*
X30189Y-24168D01*
X30189Y-24168D02*
X38675Y-24168D01*
X38675Y-24168D02*
X38966Y-24168D01*
X20010Y-24248D02*
X20280Y-24248D01*
X21972Y-24248D02*
X23531Y-24248D01*
X24351Y-24248D02*
X25464Y-24248D01*
X25464Y-24248D02*
X30189Y-24248D01*
X30189Y-24248D02*
X38675Y-24248D01*
X38675Y-24248D02*
X38966Y-24248D01*
X20010Y-24328D02*
X20280Y-24328D01*
X21972Y-24328D02*
X23451Y-24328D01*
X24339Y-24328D02*
X25464Y-24328D01*
X25464Y-24328D02*
X30189Y-24328D01*
X30189Y-24328D02*
X38675Y-24328D01*
X38675Y-24328D02*
X38966Y-24328D01*
X20010Y-24408D02*
X20281Y-24408D01*
X21972Y-24408D02*
X23373Y-24408D01*
X24417Y-24408D02*
X25464Y-24408D01*
X25464Y-24408D02*
X30189Y-24408D01*
X30189Y-24408D02*
X38675Y-24408D01*
X38675Y-24408D02*
X38966Y-24408D01*
X20010Y-24488D02*
X20314Y-24488D01*
X21939Y-24488D02*
X23319Y-24488D01*
X24450Y-24488D02*
X25464Y-24488D01*
X25464Y-24488D02*
X30189Y-24488D01*
X30189Y-24488D02*
X38675Y-24488D01*
X38675Y-24488D02*
X38966Y-24488D01*
X20010Y-24568D02*
X20347Y-24568D01*
X21905Y-24568D02*
X23300Y-24568D01*
X24480Y-24568D02*
X25464Y-24568D01*
X25464Y-24568D02*
X30189Y-24568D01*
X30189Y-24568D02*
X38675Y-24568D01*
X38675Y-24568D02*
X38966Y-24568D01*
X20010Y-24648D02*
X20407Y-24648D01*
X21845Y-24648D02*
X23293Y-24648D01*
X24480Y-24648D02*
X25464Y-24648D01*
X25464Y-24648D02*
X30189Y-24648D01*
X30189Y-24648D02*
X38675Y-24648D01*
X38675Y-24648D02*
X38966Y-24648D01*
X20010Y-24728D02*
X20417Y-24728D01*
X21834Y-24728D02*
X23293Y-24728D01*
X24480Y-24728D02*
X25464Y-24728D01*
X25464Y-24728D02*
X30189Y-24728D01*
X30189Y-24728D02*
X38675Y-24728D01*
X38675Y-24728D02*
X38966Y-24728D01*
X20010Y-24808D02*
X20351Y-24808D01*
X21900Y-24808D02*
X23293Y-24808D01*
X24448Y-24808D02*
X25464Y-24808D01*
X25464Y-24808D02*
X30189Y-24808D01*
X30189Y-24808D02*
X38675Y-24808D01*
X38675Y-24808D02*
X38966Y-24808D01*
X20010Y-24888D02*
X20318Y-24888D01*
X21933Y-24888D02*
X23293Y-24888D01*
X24413Y-24888D02*
X25464Y-24888D01*
X25464Y-24888D02*
X30189Y-24888D01*
X30189Y-24888D02*
X38675Y-24888D01*
X38675Y-24888D02*
X38966Y-24888D01*
X20010Y-24968D02*
X20285Y-24968D01*
X21966Y-24968D02*
X23293Y-24968D01*
X24345Y-24968D02*
X25464Y-24968D01*
X25464Y-24968D02*
X30189Y-24968D01*
X30189Y-24968D02*
X38675Y-24968D01*
X38675Y-24968D02*
X38966Y-24968D01*
X20010Y-25048D02*
X20280Y-25048D01*
X21972Y-25048D02*
X23023Y-25048D01*
X23197Y-25048D02*
X23293Y-25048D01*
X24345Y-25048D02*
X25464Y-25048D01*
X25464Y-25048D02*
X30189Y-25048D01*
X30189Y-25048D02*
X38675Y-25048D01*
X38675Y-25048D02*
X38966Y-25048D01*
X20010Y-25128D02*
X20280Y-25128D01*
X21972Y-25128D02*
X22853Y-25128D01*
X24345Y-25128D02*
X25464Y-25128D01*
X25464Y-25128D02*
X30189Y-25128D01*
X30189Y-25128D02*
X38675Y-25128D01*
X38675Y-25128D02*
X38966Y-25128D01*
X20010Y-25208D02*
X20287Y-25208D01*
X21967Y-25208D02*
X22773Y-25208D01*
X24345Y-25208D02*
X25464Y-25208D01*
X25464Y-25208D02*
X30189Y-25208D01*
X30189Y-25208D02*
X38675Y-25208D01*
X38675Y-25208D02*
X38966Y-25208D01*
X20010Y-25288D02*
X20320Y-25288D01*
X21933Y-25288D02*
X22726Y-25288D01*
X24345Y-25288D02*
X25464Y-25288D01*
X25464Y-25288D02*
X30189Y-25288D01*
X30189Y-25288D02*
X38675Y-25288D01*
X38675Y-25288D02*
X38966Y-25288D01*
X20010Y-25368D02*
X20352Y-25368D01*
X21900Y-25368D02*
X22692Y-25368D01*
X24345Y-25368D02*
X25464Y-25368D01*
X25464Y-25368D02*
X30189Y-25368D01*
X30189Y-25368D02*
X38675Y-25368D01*
X38675Y-25368D02*
X38966Y-25368D01*
X20010Y-25448D02*
X20420Y-25448D01*
X21832Y-25448D02*
X22685Y-25448D01*
X24345Y-25448D02*
X25464Y-25448D01*
X25464Y-25448D02*
X30189Y-25448D01*
X30189Y-25448D02*
X38675Y-25448D01*
X38675Y-25448D02*
X38966Y-25448D01*
X20010Y-25528D02*
X20404Y-25528D01*
X21847Y-25528D02*
X22685Y-25528D01*
X24345Y-25528D02*
X25464Y-25528D01*
X25464Y-25528D02*
X30189Y-25528D01*
X30189Y-25528D02*
X38675Y-25528D01*
X38675Y-25528D02*
X38966Y-25528D01*
X20010Y-25608D02*
X20346Y-25608D01*
X21906Y-25608D02*
X22707Y-25608D01*
X24345Y-25608D02*
X25464Y-25608D01*
X25464Y-25608D02*
X30189Y-25608D01*
X30189Y-25608D02*
X38675Y-25608D01*
X38675Y-25608D02*
X38966Y-25608D01*
X20010Y-25688D02*
X20313Y-25688D01*
X21939Y-25688D02*
X22740Y-25688D01*
X24345Y-25688D02*
X25464Y-25688D01*
X25464Y-25688D02*
X26815Y-25688D01*
X28011Y-25688D02*
X30189Y-25688D01*
X30189Y-25688D02*
X38675Y-25688D01*
X38675Y-25688D02*
X38966Y-25688D01*
X20010Y-25768D02*
X20280Y-25768D01*
X21972Y-25768D02*
X22805Y-25768D01*
X24345Y-25768D02*
X25464Y-25768D01*
X25464Y-25768D02*
X26609Y-25768D01*
X28234Y-25768D02*
X30189Y-25768D01*
X30189Y-25768D02*
X38675Y-25768D01*
X38675Y-25768D02*
X38966Y-25768D01*
X20010Y-25848D02*
X20280Y-25848D01*
X21972Y-25848D02*
X22820Y-25848D01*
X24345Y-25848D02*
X25464Y-25848D01*
X25464Y-25848D02*
X26403Y-25848D01*
X28415Y-25848D02*
X30189Y-25848D01*
X30189Y-25848D02*
X38675Y-25848D01*
X38675Y-25848D02*
X38966Y-25848D01*
X20010Y-25928D02*
X20280Y-25928D01*
X21972Y-25928D02*
X22756Y-25928D01*
X24345Y-25928D02*
X25464Y-25928D01*
X25464Y-25928D02*
X26197Y-25928D01*
X28597Y-25928D02*
X30189Y-25928D01*
X30189Y-25928D02*
X38675Y-25928D01*
X38675Y-25928D02*
X38966Y-25928D01*
X20010Y-26008D02*
X20292Y-26008D01*
X21961Y-26008D02*
X22676Y-26008D01*
X24345Y-26008D02*
X25464Y-26008D01*
X25464Y-26008D02*
X25991Y-26008D01*
X28778Y-26008D02*
X30189Y-26008D01*
X30189Y-26008D02*
X38675Y-26008D01*
X38675Y-26008D02*
X38966Y-26008D01*
X20010Y-26088D02*
X20325Y-26088D01*
X21928Y-26088D02*
X22596Y-26088D01*
X24406Y-26088D02*
X25464Y-26088D01*
X25464Y-26088D02*
X25787Y-26088D01*
X28960Y-26088D02*
X30189Y-26088D01*
X30189Y-26088D02*
X38675Y-26088D01*
X38675Y-26088D02*
X38966Y-26088D01*
X20010Y-26168D02*
X20358Y-26168D01*
X21894Y-26168D02*
X22516Y-26168D01*
X24444Y-26168D02*
X25464Y-26168D01*
X25464Y-26168D02*
X25670Y-26168D01*
X29133Y-26168D02*
X30189Y-26168D01*
X30189Y-26168D02*
X38675Y-26168D01*
X38675Y-26168D02*
X38966Y-26168D01*
X20010Y-26248D02*
X20433Y-26248D01*
X21819Y-26248D02*
X22436Y-26248D01*
X23256Y-26248D02*
X23293Y-26248D01*
X24477Y-26248D02*
X25464Y-26248D01*
X25464Y-26248D02*
X25595Y-26248D01*
X29208Y-26248D02*
X30189Y-26248D01*
X30189Y-26248D02*
X38675Y-26248D01*
X38675Y-26248D02*
X38966Y-26248D01*
X20010Y-26328D02*
X20391Y-26328D01*
X21860Y-26328D02*
X22356Y-26328D01*
X23176Y-26328D02*
X23293Y-26328D01*
X24480Y-26328D02*
X25464Y-26328D01*
X25464Y-26328D02*
X25520Y-26328D01*
X29282Y-26328D02*
X30189Y-26328D01*
X30189Y-26328D02*
X38675Y-26328D01*
X38675Y-26328D02*
X38966Y-26328D01*
X20010Y-26408D02*
X20341Y-26408D01*
X23096Y-26408D02*
X23260Y-26408D01*
X24480Y-26408D02*
X25446Y-26408D01*
X29356Y-26408D02*
X30189Y-26408D01*
X30189Y-26408D02*
X38675Y-26408D01*
X38675Y-26408D02*
X38966Y-26408D01*
X20010Y-26488D02*
X20307Y-26488D01*
X23016Y-26488D02*
X23180Y-26488D01*
X24453Y-26488D02*
X25372Y-26488D01*
X29431Y-26488D02*
X30189Y-26488D01*
X30189Y-26488D02*
X38675Y-26488D01*
X38675Y-26488D02*
X38966Y-26488D01*
X20010Y-26568D02*
X20280Y-26568D01*
X22936Y-26568D02*
X23100Y-26568D01*
X24420Y-26568D02*
X25419Y-26568D01*
X29386Y-26568D02*
X29448Y-26568D01*
X29448Y-26568D02*
X30189Y-26568D01*
X30189Y-26568D02*
X38675Y-26568D01*
X38675Y-26568D02*
X38966Y-26568D01*
X20010Y-26648D02*
X20280Y-26648D01*
X22856Y-26648D02*
X23020Y-26648D01*
X24346Y-26648D02*
X25208Y-26648D01*
X25357Y-26648D02*
X25499Y-26648D01*
X29306Y-26648D02*
X29446Y-26648D01*
X29595Y-26648D02*
X30189Y-26648D01*
X30189Y-26648D02*
X38675Y-26648D01*
X38675Y-26648D02*
X38966Y-26648D01*
X20010Y-26728D02*
X20280Y-26728D01*
X22776Y-26728D02*
X22940Y-26728D01*
X23762Y-26728D02*
X23886Y-26728D01*
X24225Y-26728D02*
X25122Y-26728D01*
X25437Y-26728D02*
X25579Y-26728D01*
X29226Y-26728D02*
X29366Y-26728D01*
X29681Y-26728D02*
X30189Y-26728D01*
X30189Y-26728D02*
X38675Y-26728D01*
X38675Y-26728D02*
X38966Y-26728D01*
X20010Y-26808D02*
X20297Y-26808D01*
X22696Y-26808D02*
X22860Y-26808D01*
X23682Y-26808D02*
X25036Y-26808D01*
X25517Y-26808D02*
X25659Y-26808D01*
X29146Y-26808D02*
X29286Y-26808D01*
X29767Y-26808D02*
X30189Y-26808D01*
X30189Y-26808D02*
X38675Y-26808D01*
X38675Y-26808D02*
X38966Y-26808D01*
X20010Y-26888D02*
X20330Y-26888D01*
X22606Y-26888D02*
X22780Y-26888D01*
X23602Y-26888D02*
X24950Y-26888D01*
X25597Y-26888D02*
X25739Y-26888D01*
X29066Y-26888D02*
X29206Y-26888D01*
X29853Y-26888D02*
X30189Y-26888D01*
X30189Y-26888D02*
X38675Y-26888D01*
X38675Y-26888D02*
X38966Y-26888D01*
X20010Y-26968D02*
X20366Y-26968D01*
X21887Y-26968D02*
X22700Y-26968D01*
X23522Y-26968D02*
X24910Y-26968D01*
X25677Y-26968D02*
X25819Y-26968D01*
X28986Y-26968D02*
X29126Y-26968D01*
X29910Y-26968D02*
X30189Y-26968D01*
X30189Y-26968D02*
X38675Y-26968D01*
X38675Y-26968D02*
X38966Y-26968D01*
X20010Y-27048D02*
X20446Y-27048D01*
X21807Y-27048D02*
X22636Y-27048D01*
X23442Y-27048D02*
X24874Y-27048D01*
X25757Y-27048D02*
X25899Y-27048D01*
X28906Y-27048D02*
X29046Y-27048D01*
X29952Y-27048D02*
X30189Y-27048D01*
X30189Y-27048D02*
X38675Y-27048D01*
X38675Y-27048D02*
X38966Y-27048D01*
X20010Y-27128D02*
X20546Y-27128D01*
X21709Y-27128D02*
X22599Y-27128D01*
X23362Y-27128D02*
X24839Y-27128D01*
X25837Y-27128D02*
X25979Y-27128D01*
X28826Y-27128D02*
X28966Y-27128D01*
X29983Y-27128D02*
X30189Y-27128D01*
X30189Y-27128D02*
X38675Y-27128D01*
X38675Y-27128D02*
X38966Y-27128D01*
X20010Y-27208D02*
X22584Y-27208D01*
X23282Y-27208D02*
X24804Y-27208D01*
X25917Y-27208D02*
X26059Y-27208D01*
X28746Y-27208D02*
X28886Y-27208D01*
X30014Y-27208D02*
X30189Y-27208D01*
X30189Y-27208D02*
X38675Y-27208D01*
X38675Y-27208D02*
X38966Y-27208D01*
X20010Y-27288D02*
X22584Y-27288D01*
X23202Y-27288D02*
X24769Y-27288D01*
X25997Y-27288D02*
X26139Y-27288D01*
X28666Y-27288D02*
X28806Y-27288D01*
X30045Y-27288D02*
X30189Y-27288D01*
X30189Y-27288D02*
X38675Y-27288D01*
X38675Y-27288D02*
X38966Y-27288D01*
X20010Y-27368D02*
X22584Y-27368D01*
X23164Y-27368D02*
X24733Y-27368D01*
X26077Y-27368D02*
X26219Y-27368D01*
X28586Y-27368D02*
X28726Y-27368D01*
X30076Y-27368D02*
X30189Y-27368D01*
X30189Y-27368D02*
X38675Y-27368D01*
X38675Y-27368D02*
X38966Y-27368D01*
X20010Y-27448D02*
X22192Y-27448D01*
X23556Y-27448D02*
X24698Y-27448D01*
X26157Y-27448D02*
X26299Y-27448D01*
X28506Y-27448D02*
X28646Y-27448D01*
X30107Y-27448D02*
X30189Y-27448D01*
X30189Y-27448D02*
X31208Y-27448D01*
X32572Y-27448D02*
X38675Y-27448D01*
X38675Y-27448D02*
X38966Y-27448D01*
X20010Y-27528D02*
X22141Y-27528D01*
X23606Y-27528D02*
X24663Y-27528D01*
X26237Y-27528D02*
X26379Y-27528D01*
X28426Y-27528D02*
X28566Y-27528D01*
X30138Y-27528D02*
X30189Y-27528D01*
X30189Y-27528D02*
X31157Y-27528D01*
X32622Y-27528D02*
X38675Y-27528D01*
X38675Y-27528D02*
X38966Y-27528D01*
X20010Y-27608D02*
X22125Y-27608D01*
X23623Y-27608D02*
X24628Y-27608D01*
X26317Y-27608D02*
X26459Y-27608D01*
X28346Y-27608D02*
X28486Y-27608D01*
X30169Y-27608D02*
X30189Y-27608D01*
X30189Y-27608D02*
X31141Y-27608D01*
X32639Y-27608D02*
X38675Y-27608D01*
X38675Y-27608D02*
X38966Y-27608D01*
X20010Y-27688D02*
X22125Y-27688D01*
X23623Y-27688D02*
X24592Y-27688D01*
X26397Y-27688D02*
X26539Y-27688D01*
X28266Y-27688D02*
X28406Y-27688D01*
X30201Y-27688D02*
X31141Y-27688D01*
X32639Y-27688D02*
X38675Y-27688D01*
X38675Y-27688D02*
X38966Y-27688D01*
X20010Y-27768D02*
X22125Y-27768D01*
X23623Y-27768D02*
X24557Y-27768D01*
X26477Y-27768D02*
X26619Y-27768D01*
X28186Y-27768D02*
X28326Y-27768D01*
X30232Y-27768D02*
X31141Y-27768D01*
X32639Y-27768D02*
X38675Y-27768D01*
X38675Y-27768D02*
X38966Y-27768D01*
X20010Y-27848D02*
X22125Y-27848D01*
X23623Y-27848D02*
X24522Y-27848D01*
X26557Y-27848D02*
X26699Y-27848D01*
X28106Y-27848D02*
X28246Y-27848D01*
X30263Y-27848D02*
X31141Y-27848D01*
X32639Y-27848D02*
X38675Y-27848D01*
X38675Y-27848D02*
X38966Y-27848D01*
X20010Y-27928D02*
X22125Y-27928D01*
X23623Y-27928D02*
X24487Y-27928D01*
X26637Y-27928D02*
X26779Y-27928D01*
X28026Y-27928D02*
X28166Y-27928D01*
X30294Y-27928D02*
X31141Y-27928D01*
X32639Y-27928D02*
X38675Y-27928D01*
X38675Y-27928D02*
X38966Y-27928D01*
X20010Y-28008D02*
X22125Y-28008D01*
X23623Y-28008D02*
X24468Y-28008D01*
X26717Y-28008D02*
X26859Y-28008D01*
X27946Y-28008D02*
X28086Y-28008D01*
X30325Y-28008D02*
X31141Y-28008D01*
X32639Y-28008D02*
X38675Y-28008D01*
X38675Y-28008D02*
X38966Y-28008D01*
X20010Y-28088D02*
X22125Y-28088D01*
X23623Y-28088D02*
X24466Y-28088D01*
X26797Y-28088D02*
X26939Y-28088D01*
X27866Y-28088D02*
X28006Y-28088D01*
X30356Y-28088D02*
X31141Y-28088D01*
X32639Y-28088D02*
X38675Y-28088D01*
X38675Y-28088D02*
X38966Y-28088D01*
X20010Y-28168D02*
X22125Y-28168D01*
X23623Y-28168D02*
X24464Y-28168D01*
X26877Y-28168D02*
X27019Y-28168D01*
X27786Y-28168D02*
X27926Y-28168D01*
X30361Y-28168D02*
X30362Y-28168D01*
X30362Y-28168D02*
X31141Y-28168D01*
X32639Y-28168D02*
X38675Y-28168D01*
X38675Y-28168D02*
X38966Y-28168D01*
X20010Y-28248D02*
X22125Y-28248D01*
X23623Y-28248D02*
X24462Y-28248D01*
X26957Y-28248D02*
X27099Y-28248D01*
X27706Y-28248D02*
X27846Y-28248D01*
X30359Y-28248D02*
X30362Y-28248D01*
X30362Y-28248D02*
X31141Y-28248D01*
X32639Y-28248D02*
X38675Y-28248D01*
X38675Y-28248D02*
X38966Y-28248D01*
X20010Y-28328D02*
X22125Y-28328D01*
X23623Y-28328D02*
X24460Y-28328D01*
X27037Y-28328D02*
X27179Y-28328D01*
X27626Y-28328D02*
X27766Y-28328D01*
X30357Y-28328D02*
X30362Y-28328D01*
X30362Y-28328D02*
X31141Y-28328D01*
X32639Y-28328D02*
X38675Y-28328D01*
X38675Y-28328D02*
X38966Y-28328D01*
X20010Y-28408D02*
X22125Y-28408D01*
X23623Y-28408D02*
X24458Y-28408D01*
X27117Y-28408D02*
X27259Y-28408D01*
X27546Y-28408D02*
X27686Y-28408D01*
X30355Y-28408D02*
X30362Y-28408D01*
X30362Y-28408D02*
X31141Y-28408D01*
X32639Y-28408D02*
X38675Y-28408D01*
X38675Y-28408D02*
X38966Y-28408D01*
X20010Y-28488D02*
X22125Y-28488D01*
X23623Y-28488D02*
X24457Y-28488D01*
X27197Y-28488D02*
X27339Y-28488D01*
X27466Y-28488D02*
X27606Y-28488D01*
X30354Y-28488D02*
X30362Y-28488D01*
X30362Y-28488D02*
X31141Y-28488D01*
X32639Y-28488D02*
X38675Y-28488D01*
X38675Y-28488D02*
X38966Y-28488D01*
X20010Y-28568D02*
X22125Y-28568D01*
X23623Y-28568D02*
X24455Y-28568D01*
X27277Y-28568D02*
X27526Y-28568D01*
X30352Y-28568D02*
X30362Y-28568D01*
X30362Y-28568D02*
X31141Y-28568D01*
X32639Y-28568D02*
X38675Y-28568D01*
X38675Y-28568D02*
X38966Y-28568D01*
X20010Y-28648D02*
X22125Y-28648D01*
X23623Y-28648D02*
X24453Y-28648D01*
X27306Y-28648D02*
X27331Y-28648D01*
X27331Y-28648D02*
X27499Y-28648D01*
X30350Y-28648D02*
X30362Y-28648D01*
X30362Y-28648D02*
X31141Y-28648D01*
X32639Y-28648D02*
X38675Y-28648D01*
X38675Y-28648D02*
X38966Y-28648D01*
X20010Y-28728D02*
X22125Y-28728D01*
X23623Y-28728D02*
X24451Y-28728D01*
X27226Y-28728D02*
X27331Y-28728D01*
X27331Y-28728D02*
X27366Y-28728D01*
X27437Y-28728D02*
X27579Y-28728D01*
X30348Y-28728D02*
X30362Y-28728D01*
X30362Y-28728D02*
X31141Y-28728D01*
X32639Y-28728D02*
X38675Y-28728D01*
X38675Y-28728D02*
X38966Y-28728D01*
X20010Y-28808D02*
X22125Y-28808D01*
X23623Y-28808D02*
X24449Y-28808D01*
X27146Y-28808D02*
X27286Y-28808D01*
X27517Y-28808D02*
X27659Y-28808D01*
X30346Y-28808D02*
X30362Y-28808D01*
X30362Y-28808D02*
X31141Y-28808D01*
X32639Y-28808D02*
X38675Y-28808D01*
X38675Y-28808D02*
X38966Y-28808D01*
X20010Y-28888D02*
X22125Y-28888D01*
X23623Y-28888D02*
X24447Y-28888D01*
X27066Y-28888D02*
X27206Y-28888D01*
X27597Y-28888D02*
X27739Y-28888D01*
X30344Y-28888D02*
X30362Y-28888D01*
X30362Y-28888D02*
X31141Y-28888D01*
X32639Y-28888D02*
X38675Y-28888D01*
X38675Y-28888D02*
X38966Y-28888D01*
X20010Y-28968D02*
X22125Y-28968D01*
X23623Y-28968D02*
X24445Y-28968D01*
X26986Y-28968D02*
X27126Y-28968D01*
X27677Y-28968D02*
X27819Y-28968D01*
X30343Y-28968D02*
X30362Y-28968D01*
X30362Y-28968D02*
X31141Y-28968D01*
X32639Y-28968D02*
X38675Y-28968D01*
X38675Y-28968D02*
X38966Y-28968D01*
X20010Y-29048D02*
X22125Y-29048D01*
X23623Y-29048D02*
X24444Y-29048D01*
X26906Y-29048D02*
X27046Y-29048D01*
X27757Y-29048D02*
X27899Y-29048D01*
X30341Y-29048D02*
X30362Y-29048D01*
X30362Y-29048D02*
X31141Y-29048D01*
X32639Y-29048D02*
X38675Y-29048D01*
X38675Y-29048D02*
X38966Y-29048D01*
X20010Y-29128D02*
X22125Y-29128D01*
X23623Y-29128D02*
X24442Y-29128D01*
X26826Y-29128D02*
X26966Y-29128D01*
X27837Y-29128D02*
X27979Y-29128D01*
X30339Y-29128D02*
X30362Y-29128D01*
X30362Y-29128D02*
X31141Y-29128D01*
X32639Y-29128D02*
X38675Y-29128D01*
X38675Y-29128D02*
X38966Y-29128D01*
X20010Y-29208D02*
X22125Y-29208D01*
X23623Y-29208D02*
X24468Y-29208D01*
X26746Y-29208D02*
X26886Y-29208D01*
X27917Y-29208D02*
X28059Y-29208D01*
X30337Y-29208D02*
X30362Y-29208D01*
X30362Y-29208D02*
X31141Y-29208D01*
X32639Y-29208D02*
X38675Y-29208D01*
X38675Y-29208D02*
X38966Y-29208D01*
X20010Y-29288D02*
X22125Y-29288D01*
X23623Y-29288D02*
X24500Y-29288D01*
X26666Y-29288D02*
X26806Y-29288D01*
X27997Y-29288D02*
X28139Y-29288D01*
X30330Y-29288D02*
X30362Y-29288D01*
X30362Y-29288D02*
X31141Y-29288D01*
X32639Y-29288D02*
X38675Y-29288D01*
X38675Y-29288D02*
X38966Y-29288D01*
X20010Y-29368D02*
X22125Y-29368D01*
X23623Y-29368D02*
X24531Y-29368D01*
X26586Y-29368D02*
X26726Y-29368D01*
X28077Y-29368D02*
X28219Y-29368D01*
X30295Y-29368D02*
X30362Y-29368D01*
X30362Y-29368D02*
X31141Y-29368D01*
X32639Y-29368D02*
X38675Y-29368D01*
X38675Y-29368D02*
X38966Y-29368D01*
X20010Y-29448D02*
X22125Y-29448D01*
X23623Y-29448D02*
X24562Y-29448D01*
X26506Y-29448D02*
X26646Y-29448D01*
X28157Y-29448D02*
X28299Y-29448D01*
X30259Y-29448D02*
X30362Y-29448D01*
X30362Y-29448D02*
X31141Y-29448D01*
X32639Y-29448D02*
X38675Y-29448D01*
X38675Y-29448D02*
X38966Y-29448D01*
X20010Y-29528D02*
X22125Y-29528D01*
X23623Y-29528D02*
X24593Y-29528D01*
X26426Y-29528D02*
X26566Y-29528D01*
X28237Y-29528D02*
X28379Y-29528D01*
X30224Y-29528D02*
X30362Y-29528D01*
X30362Y-29528D02*
X31141Y-29528D01*
X32639Y-29528D02*
X38675Y-29528D01*
X38675Y-29528D02*
X38966Y-29528D01*
X20010Y-29608D02*
X22125Y-29608D01*
X23623Y-29608D02*
X24624Y-29608D01*
X26346Y-29608D02*
X26486Y-29608D01*
X28317Y-29608D02*
X28459Y-29608D01*
X30189Y-29608D02*
X30362Y-29608D01*
X30362Y-29608D02*
X31141Y-29608D01*
X32639Y-29608D02*
X38675Y-29608D01*
X38675Y-29608D02*
X38966Y-29608D01*
X20010Y-29688D02*
X22131Y-29688D01*
X23618Y-29688D02*
X24655Y-29688D01*
X26266Y-29688D02*
X26406Y-29688D01*
X28397Y-29688D02*
X28539Y-29688D01*
X30153Y-29688D02*
X30362Y-29688D01*
X30362Y-29688D02*
X31147Y-29688D01*
X32634Y-29688D02*
X32639Y-29688D01*
X32639Y-29688D02*
X38675Y-29688D01*
X38675Y-29688D02*
X38966Y-29688D01*
X20010Y-29768D02*
X22164Y-29768D01*
X23584Y-29768D02*
X24686Y-29768D01*
X26186Y-29768D02*
X26326Y-29768D01*
X28477Y-29768D02*
X28619Y-29768D01*
X30118Y-29768D02*
X30362Y-29768D01*
X30362Y-29768D02*
X31180Y-29768D01*
X32600Y-29768D02*
X32639Y-29768D01*
X32639Y-29768D02*
X38675Y-29768D01*
X38675Y-29768D02*
X38966Y-29768D01*
X20010Y-29848D02*
X22260Y-29848D01*
X23489Y-29848D02*
X24717Y-29848D01*
X26106Y-29848D02*
X26246Y-29848D01*
X28557Y-29848D02*
X28699Y-29848D01*
X30083Y-29848D02*
X30362Y-29848D01*
X30362Y-29848D02*
X31276Y-29848D01*
X32505Y-29848D02*
X32639Y-29848D01*
X32639Y-29848D02*
X38675Y-29848D01*
X38675Y-29848D02*
X38966Y-29848D01*
X20010Y-29928D02*
X24748Y-29928D01*
X26026Y-29928D02*
X26166Y-29928D01*
X28637Y-29928D02*
X28779Y-29928D01*
X30048Y-29928D02*
X30362Y-29928D01*
X30362Y-29928D02*
X32639Y-29928D01*
X32639Y-29928D02*
X38675Y-29928D01*
X38675Y-29928D02*
X38966Y-29928D01*
X20010Y-30008D02*
X24779Y-30008D01*
X25946Y-30008D02*
X26086Y-30008D01*
X28717Y-30008D02*
X28859Y-30008D01*
X30012Y-30008D02*
X30362Y-30008D01*
X30362Y-30008D02*
X32639Y-30008D01*
X32639Y-30008D02*
X38675Y-30008D01*
X38675Y-30008D02*
X38966Y-30008D01*
X20010Y-30088D02*
X24810Y-30088D01*
X25866Y-30088D02*
X26006Y-30088D01*
X28797Y-30088D02*
X28939Y-30088D01*
X29977Y-30088D02*
X30362Y-30088D01*
X30362Y-30088D02*
X32639Y-30088D01*
X32639Y-30088D02*
X38675Y-30088D01*
X38675Y-30088D02*
X38966Y-30088D01*
X20010Y-30168D02*
X24841Y-30168D01*
X25786Y-30168D02*
X25926Y-30168D01*
X28877Y-30168D02*
X29019Y-30168D01*
X29942Y-30168D02*
X30362Y-30168D01*
X30362Y-30168D02*
X32639Y-30168D01*
X32639Y-30168D02*
X38675Y-30168D01*
X38675Y-30168D02*
X38966Y-30168D01*
X20010Y-30248D02*
X24876Y-30248D01*
X25706Y-30248D02*
X25846Y-30248D01*
X28957Y-30248D02*
X29099Y-30248D01*
X29907Y-30248D02*
X30362Y-30248D01*
X30362Y-30248D02*
X32639Y-30248D01*
X32639Y-30248D02*
X38675Y-30248D01*
X38675Y-30248D02*
X38966Y-30248D01*
X20010Y-30328D02*
X24929Y-30328D01*
X25626Y-30328D02*
X25766Y-30328D01*
X29037Y-30328D02*
X29179Y-30328D01*
X29871Y-30328D02*
X30362Y-30328D01*
X30362Y-30328D02*
X32639Y-30328D01*
X32639Y-30328D02*
X38675Y-30328D01*
X38675Y-30328D02*
X38966Y-30328D01*
X20010Y-30408D02*
X25007Y-30408D01*
X25546Y-30408D02*
X25686Y-30408D01*
X29117Y-30408D02*
X29259Y-30408D01*
X29798Y-30408D02*
X30362Y-30408D01*
X30362Y-30408D02*
X32639Y-30408D01*
X32639Y-30408D02*
X37827Y-30408D01*
X38237Y-30408D02*
X38675Y-30408D01*
X38675Y-30408D02*
X38966Y-30408D01*
X20010Y-30488D02*
X25093Y-30488D01*
X25466Y-30488D02*
X25606Y-30488D01*
X29197Y-30488D02*
X29339Y-30488D01*
X29712Y-30488D02*
X30362Y-30488D01*
X30362Y-30488D02*
X32639Y-30488D01*
X32639Y-30488D02*
X37654Y-30488D01*
X38409Y-30488D02*
X38675Y-30488D01*
X38675Y-30488D02*
X38966Y-30488D01*
X20010Y-30568D02*
X25179Y-30568D01*
X25386Y-30568D02*
X25526Y-30568D01*
X29277Y-30568D02*
X29419Y-30568D01*
X29626Y-30568D02*
X30362Y-30568D01*
X30362Y-30568D02*
X32639Y-30568D01*
X32639Y-30568D02*
X37574Y-30568D01*
X38489Y-30568D02*
X38675Y-30568D01*
X38675Y-30568D02*
X38966Y-30568D01*
X20010Y-30648D02*
X25265Y-30648D01*
X25306Y-30648D02*
X25446Y-30648D01*
X29357Y-30648D02*
X29499Y-30648D01*
X29540Y-30648D02*
X30362Y-30648D01*
X30362Y-30648D02*
X32639Y-30648D01*
X32639Y-30648D02*
X37494Y-30648D01*
X38569Y-30648D02*
X38675Y-30648D01*
X38675Y-30648D02*
X38966Y-30648D01*
X20010Y-30728D02*
X25366Y-30728D01*
X29437Y-30728D02*
X30362Y-30728D01*
X30362Y-30728D02*
X32639Y-30728D01*
X32639Y-30728D02*
X37456Y-30728D01*
X38606Y-30728D02*
X38675Y-30728D01*
X38675Y-30728D02*
X38966Y-30728D01*
X20010Y-30808D02*
X25422Y-30808D01*
X29383Y-30808D02*
X29448Y-30808D01*
X29448Y-30808D02*
X30362Y-30808D01*
X30362Y-30808D02*
X32639Y-30808D01*
X32639Y-30808D02*
X37423Y-30808D01*
X38640Y-30808D02*
X38675Y-30808D01*
X38675Y-30808D02*
X38966Y-30808D01*
X20010Y-30888D02*
X25496Y-30888D01*
X29309Y-30888D02*
X29448Y-30888D01*
X29448Y-30888D02*
X30362Y-30888D01*
X30362Y-30888D02*
X32639Y-30888D01*
X32639Y-30888D02*
X37389Y-30888D01*
X38673Y-30888D02*
X38675Y-30888D01*
X38675Y-30888D02*
X38966Y-30888D01*
X20010Y-30968D02*
X25570Y-30968D01*
X29235Y-30968D02*
X29448Y-30968D01*
X29448Y-30968D02*
X30362Y-30968D01*
X30362Y-30968D02*
X32639Y-30968D01*
X32639Y-30968D02*
X37389Y-30968D01*
X38675Y-30968D02*
X38966Y-30968D01*
X20010Y-31048D02*
X25645Y-31048D01*
X29160Y-31048D02*
X29448Y-31048D01*
X29448Y-31048D02*
X30362Y-31048D01*
X30362Y-31048D02*
X32639Y-31048D01*
X32639Y-31048D02*
X37389Y-31048D01*
X38675Y-31048D02*
X38966Y-31048D01*
X20010Y-31128D02*
X25781Y-31128D01*
X29059Y-31128D02*
X29448Y-31128D01*
X29448Y-31128D02*
X30362Y-31128D01*
X30362Y-31128D02*
X32639Y-31128D01*
X32639Y-31128D02*
X37389Y-31128D01*
X38675Y-31128D02*
X38966Y-31128D01*
X20010Y-31208D02*
X25962Y-31208D01*
X28886Y-31208D02*
X29448Y-31208D01*
X29448Y-31208D02*
X30362Y-31208D01*
X30362Y-31208D02*
X32639Y-31208D01*
X32639Y-31208D02*
X37415Y-31208D01*
X38650Y-31208D02*
X38675Y-31208D01*
X38675Y-31208D02*
X38966Y-31208D01*
X20010Y-31288D02*
X26144Y-31288D01*
X28679Y-31288D02*
X29448Y-31288D01*
X29448Y-31288D02*
X30362Y-31288D01*
X30362Y-31288D02*
X32639Y-31288D01*
X32639Y-31288D02*
X37448Y-31288D01*
X38617Y-31288D02*
X38675Y-31288D01*
X38675Y-31288D02*
X38966Y-31288D01*
X20010Y-31368D02*
X26325Y-31368D01*
X28473Y-31368D02*
X29448Y-31368D01*
X29448Y-31368D02*
X30362Y-31368D01*
X30362Y-31368D02*
X32639Y-31368D01*
X32639Y-31368D02*
X37482Y-31368D01*
X38583Y-31368D02*
X38675Y-31368D01*
X38675Y-31368D02*
X38966Y-31368D01*
X20010Y-31448D02*
X26507Y-31448D01*
X28267Y-31448D02*
X29448Y-31448D01*
X29448Y-31448D02*
X30362Y-31448D01*
X30362Y-31448D02*
X32639Y-31448D01*
X32639Y-31448D02*
X37553Y-31448D01*
X38512Y-31448D02*
X38675Y-31448D01*
X38675Y-31448D02*
X38966Y-31448D01*
X20010Y-31528D02*
X26688Y-31528D01*
X28061Y-31528D02*
X29448Y-31528D01*
X29448Y-31528D02*
X30362Y-31528D01*
X30362Y-31528D02*
X32639Y-31528D01*
X32639Y-31528D02*
X37633Y-31528D01*
X38432Y-31528D02*
X38675Y-31528D01*
X38675Y-31528D02*
X38966Y-31528D01*
X20010Y-31608D02*
X29448Y-31608D01*
X29448Y-31608D02*
X30362Y-31608D01*
X30362Y-31608D02*
X32639Y-31608D01*
X32639Y-31608D02*
X37775Y-31608D01*
X38290Y-31608D02*
X38675Y-31608D01*
X38675Y-31608D02*
X38966Y-31608D01*
X20010Y-31688D02*
X29448Y-31688D01*
X29448Y-31688D02*
X30362Y-31688D01*
X30362Y-31688D02*
X32639Y-31688D01*
X32639Y-31688D02*
X38675Y-31688D01*
X38675Y-31688D02*
X38966Y-31688D01*
X20010Y-31768D02*
X29448Y-31768D01*
X29448Y-31768D02*
X30362Y-31768D01*
X30362Y-31768D02*
X32639Y-31768D01*
X32639Y-31768D02*
X38675Y-31768D01*
X38675Y-31768D02*
X38966Y-31768D01*
X20010Y-31848D02*
X29448Y-31848D01*
X29448Y-31848D02*
X30362Y-31848D01*
X30362Y-31848D02*
X32639Y-31848D01*
X32639Y-31848D02*
X38675Y-31848D01*
X38675Y-31848D02*
X38966Y-31848D01*
X20010Y-31928D02*
X29448Y-31928D01*
X29448Y-31928D02*
X30362Y-31928D01*
X30362Y-31928D02*
X32639Y-31928D01*
X32639Y-31928D02*
X38675Y-31928D01*
X38675Y-31928D02*
X38966Y-31928D01*
X20010Y-32008D02*
X29448Y-32008D01*
X29448Y-32008D02*
X30362Y-32008D01*
X30362Y-32008D02*
X32639Y-32008D01*
X32639Y-32008D02*
X38675Y-32008D01*
X38675Y-32008D02*
X38966Y-32008D01*
X38966Y-32037D02*
X38675Y-32037D01*
X38675Y-31148D01*
X38675Y-30892D01*
X38675Y-21620D01*
X38675Y-21364D01*
X38577Y-21128D01*
X38397Y-20947D01*
X38161Y-20848D01*
X37905Y-20848D01*
X37669Y-20946D01*
X37488Y-21126D01*
X37389Y-21362D01*
X37389Y-21618D01*
X37487Y-21854D01*
X37667Y-22035D01*
X37903Y-22134D01*
X38159Y-22134D01*
X38395Y-22036D01*
X38576Y-21856D01*
X38675Y-21620D01*
X38675Y-30892D01*
X38577Y-30656D01*
X38397Y-30475D01*
X38161Y-30376D01*
X37905Y-30376D01*
X37669Y-30474D01*
X37488Y-30654D01*
X37389Y-30890D01*
X37389Y-31146D01*
X37487Y-31382D01*
X37667Y-31563D01*
X37903Y-31662D01*
X38159Y-31662D01*
X38395Y-31564D01*
X38576Y-31384D01*
X38675Y-31148D01*
X38675Y-32037D01*
X32639Y-32037D01*
X32639Y-29676D01*
X32639Y-29577D01*
X32639Y-27569D01*
X32601Y-27477D01*
X32531Y-27407D01*
X32440Y-27369D01*
X32341Y-27369D01*
X31341Y-27369D01*
X31249Y-27407D01*
X31179Y-27477D01*
X31141Y-27568D01*
X31141Y-27667D01*
X31141Y-29675D01*
X31179Y-29767D01*
X31249Y-29837D01*
X31340Y-29875D01*
X31439Y-29875D01*
X32439Y-29875D01*
X32531Y-29837D01*
X32601Y-29767D01*
X32639Y-29676D01*
X32639Y-32037D01*
X30362Y-32037D01*
X30362Y-28103D01*
X30189Y-27657D01*
X30189Y-21227D01*
X30189Y-21058D01*
X30125Y-20902D01*
X30005Y-20782D01*
X29849Y-20717D01*
X29749Y-20717D01*
X29575Y-20543D01*
X29481Y-20480D01*
X29370Y-20458D01*
X26648Y-20458D01*
X26621Y-20390D01*
X26501Y-20270D01*
X26345Y-20205D01*
X26176Y-20205D01*
X26020Y-20269D01*
X25900Y-20389D01*
X25835Y-20545D01*
X25835Y-20714D01*
X25899Y-20870D01*
X26019Y-20990D01*
X26175Y-21055D01*
X26344Y-21055D01*
X26385Y-21038D01*
X29250Y-21038D01*
X29339Y-21127D01*
X29339Y-21226D01*
X29403Y-21382D01*
X29523Y-21502D01*
X29679Y-21567D01*
X29848Y-21567D01*
X30004Y-21503D01*
X30124Y-21383D01*
X30189Y-21227D01*
X30189Y-27657D01*
X29938Y-27010D01*
X29862Y-26896D01*
X29518Y-26576D01*
X29448Y-26646D01*
X29448Y-26506D01*
X29128Y-26162D01*
X28055Y-25689D01*
X26883Y-25662D01*
X25790Y-26086D01*
X25676Y-26162D01*
X25464Y-26389D01*
X25464Y-22211D01*
X25464Y-22042D01*
X25400Y-21886D01*
X25280Y-21766D01*
X25124Y-21701D01*
X24955Y-21701D01*
X24799Y-21765D01*
X24679Y-21885D01*
X24614Y-22041D01*
X24614Y-22210D01*
X24678Y-22366D01*
X24749Y-22437D01*
X24749Y-23030D01*
X23378Y-24401D01*
X23315Y-24495D01*
X23293Y-24606D01*
X23293Y-25087D01*
X23195Y-25047D01*
X23026Y-25047D01*
X22870Y-25111D01*
X22750Y-25231D01*
X22685Y-25387D01*
X22685Y-25556D01*
X22749Y-25712D01*
X22820Y-25783D01*
X22820Y-25864D01*
X22313Y-26371D01*
X21896Y-26371D01*
X21891Y-26358D01*
X21799Y-26267D01*
X21890Y-26177D01*
X21972Y-25981D01*
X21972Y-25768D01*
X21891Y-25571D01*
X21799Y-25480D01*
X21890Y-25390D01*
X21972Y-25194D01*
X21972Y-24981D01*
X21891Y-24784D01*
X21799Y-24693D01*
X21890Y-24603D01*
X21972Y-24407D01*
X21972Y-24194D01*
X21891Y-23997D01*
X21799Y-23906D01*
X21890Y-23815D01*
X21972Y-23619D01*
X21972Y-23406D01*
X21891Y-23209D01*
X21799Y-23118D01*
X21890Y-23028D01*
X21972Y-22832D01*
X21972Y-22619D01*
X21891Y-22422D01*
X21799Y-22331D01*
X21890Y-22241D01*
X21972Y-22045D01*
X21972Y-21832D01*
X21891Y-21635D01*
X21884Y-21628D01*
X21927Y-21586D01*
X21965Y-21494D01*
X21966Y-21262D01*
X21966Y-21038D01*
X21965Y-20806D01*
X21927Y-20714D01*
X21857Y-20644D01*
X21766Y-20606D01*
X21667Y-20606D01*
X21238Y-20605D01*
X21176Y-20667D01*
X21176Y-21100D01*
X21904Y-21100D01*
X21966Y-21038D01*
X21966Y-21262D01*
X21904Y-21200D01*
X21226Y-21200D01*
X21176Y-21200D01*
X21076Y-21200D01*
X21076Y-21100D01*
X21076Y-20667D01*
X21014Y-20605D01*
X20585Y-20606D01*
X20486Y-20606D01*
X20395Y-20644D01*
X20325Y-20714D01*
X20287Y-20806D01*
X20286Y-21038D01*
X20348Y-21100D01*
X21076Y-21100D01*
X21076Y-21200D01*
X21026Y-21200D01*
X20348Y-21200D01*
X20286Y-21262D01*
X20287Y-21494D01*
X20325Y-21586D01*
X20367Y-21628D01*
X20362Y-21635D01*
X20280Y-21831D01*
X20280Y-22044D01*
X20361Y-22241D01*
X20452Y-22331D01*
X20362Y-22422D01*
X20280Y-22618D01*
X20280Y-22831D01*
X20361Y-23028D01*
X20452Y-23118D01*
X20362Y-23209D01*
X20280Y-23405D01*
X20280Y-23618D01*
X20361Y-23815D01*
X20452Y-23905D01*
X20362Y-23997D01*
X20280Y-24193D01*
X20280Y-24406D01*
X20361Y-24603D01*
X20452Y-24693D01*
X20362Y-24784D01*
X20280Y-24980D01*
X20280Y-25193D01*
X20361Y-25390D01*
X20452Y-25480D01*
X20362Y-25571D01*
X20280Y-25767D01*
X20280Y-25980D01*
X20361Y-26177D01*
X20452Y-26267D01*
X20362Y-26358D01*
X20280Y-26554D01*
X20280Y-26767D01*
X20361Y-26964D01*
X20512Y-27114D01*
X20708Y-27196D01*
X20921Y-27196D01*
X21543Y-27196D01*
X21740Y-27115D01*
X21890Y-26964D01*
X21895Y-26951D01*
X22433Y-26951D01*
X22544Y-26929D01*
X22638Y-26866D01*
X22646Y-26858D01*
X23293Y-26211D01*
X23293Y-26375D01*
X22669Y-27000D01*
X22606Y-27094D01*
X22584Y-27205D01*
X22584Y-27369D01*
X22325Y-27369D01*
X22233Y-27407D01*
X22163Y-27477D01*
X22125Y-27568D01*
X22125Y-27667D01*
X22125Y-29675D01*
X22163Y-29767D01*
X22233Y-29837D01*
X22324Y-29875D01*
X22423Y-29875D01*
X23423Y-29875D01*
X23515Y-29837D01*
X23585Y-29767D01*
X23623Y-29676D01*
X23623Y-29577D01*
X23623Y-27569D01*
X23585Y-27477D01*
X23515Y-27407D01*
X23424Y-27369D01*
X23325Y-27369D01*
X23164Y-27369D01*
X23164Y-27325D01*
X23788Y-26702D01*
X23788Y-26701D01*
X23799Y-26683D01*
X23814Y-26698D01*
X23970Y-26763D01*
X24139Y-26763D01*
X24295Y-26699D01*
X24415Y-26579D01*
X24480Y-26423D01*
X24480Y-26254D01*
X24416Y-26098D01*
X24345Y-26027D01*
X24345Y-24956D01*
X24415Y-24886D01*
X24480Y-24730D01*
X24480Y-24561D01*
X24416Y-24405D01*
X24305Y-24294D01*
X25244Y-23355D01*
X25307Y-23261D01*
X25329Y-23150D01*
X25329Y-22437D01*
X25399Y-22367D01*
X25464Y-22211D01*
X25464Y-26389D01*
X25356Y-26506D01*
X27402Y-28551D01*
X29448Y-26506D01*
X29448Y-26646D01*
X27473Y-28622D01*
X29518Y-30668D01*
X29862Y-30348D01*
X30335Y-29275D01*
X30362Y-28103D01*
X30362Y-32037D01*
X29448Y-32037D01*
X29448Y-30738D01*
X27402Y-28693D01*
X27331Y-28763D01*
X27331Y-28622D01*
X25286Y-26576D01*
X24942Y-26896D01*
X24469Y-27969D01*
X24442Y-29141D01*
X24866Y-30234D01*
X24942Y-30348D01*
X25286Y-30668D01*
X27331Y-28622D01*
X27331Y-28763D01*
X25356Y-30738D01*
X25676Y-31082D01*
X26749Y-31555D01*
X27921Y-31582D01*
X29014Y-31158D01*
X29128Y-31082D01*
X29448Y-30738D01*
X29448Y-32037D01*
X20010Y-32037D01*
X20010Y-20088D01*
X38966Y-20088D01*
X38966Y-32037D01*
M02*
