G04 (created by PCBNEW-RS274X (2011-11-27 BZR 3249)-stable) date 15/08/2012 9:50:50 p.m.*
G01*
G70*
G90*
%MOIN*%
G04 Gerber Fmt 3.4, Leading zero omitted, Abs format*
%FSLAX34Y34*%
G04 APERTURE LIST*
%ADD10C,0.006000*%
%ADD11C,0.012000*%
%ADD12C,0.015000*%
G04 APERTURE END LIST*
G54D10*
G54D11*
X35172Y-28949D02*
X35134Y-29006D01*
X35134Y-29092D01*
X35172Y-29177D01*
X35248Y-29235D01*
X35324Y-29263D01*
X35477Y-29292D01*
X35591Y-29292D01*
X35743Y-29263D01*
X35820Y-29235D01*
X35896Y-29177D01*
X35934Y-29092D01*
X35934Y-29035D01*
X35896Y-28949D01*
X35858Y-28920D01*
X35591Y-28920D01*
X35591Y-29035D01*
X35934Y-28635D02*
X35934Y-28520D01*
X35896Y-28463D01*
X35858Y-28435D01*
X35743Y-28377D01*
X35591Y-28349D01*
X35286Y-28349D01*
X35210Y-28377D01*
X35172Y-28406D01*
X35134Y-28463D01*
X35134Y-28577D01*
X35172Y-28635D01*
X35210Y-28663D01*
X35286Y-28692D01*
X35477Y-28692D01*
X35553Y-28663D01*
X35591Y-28635D01*
X35629Y-28577D01*
X35629Y-28463D01*
X35591Y-28406D01*
X35553Y-28377D01*
X35477Y-28349D01*
X35134Y-28149D02*
X35934Y-27749D01*
X35134Y-27749D02*
X35934Y-28149D01*
X35896Y-27550D02*
X35934Y-27464D01*
X35934Y-27321D01*
X35896Y-27264D01*
X35858Y-27235D01*
X35781Y-27207D01*
X35705Y-27207D01*
X35629Y-27235D01*
X35591Y-27264D01*
X35553Y-27321D01*
X35515Y-27435D01*
X35477Y-27493D01*
X35439Y-27521D01*
X35362Y-27550D01*
X35286Y-27550D01*
X35210Y-27521D01*
X35172Y-27493D01*
X35134Y-27435D01*
X35134Y-27293D01*
X35172Y-27207D01*
X35934Y-26950D02*
X35134Y-26950D01*
X35134Y-26807D01*
X35172Y-26722D01*
X35248Y-26664D01*
X35324Y-26636D01*
X35477Y-26607D01*
X35591Y-26607D01*
X35743Y-26636D01*
X35820Y-26664D01*
X35896Y-26722D01*
X35934Y-26807D01*
X35934Y-26950D01*
X35629Y-26350D02*
X35629Y-25893D01*
X35934Y-25607D02*
X35134Y-25607D01*
X35934Y-25264D01*
X35134Y-25264D01*
X35134Y-25035D02*
X35134Y-24635D01*
X35934Y-25035D01*
X35934Y-24635D01*
X35400Y-24007D02*
X35934Y-23864D01*
X35400Y-23722D01*
X35400Y-23236D02*
X35934Y-23236D01*
X35096Y-23379D02*
X35667Y-23522D01*
X35667Y-23150D01*
X35858Y-22922D02*
X35896Y-22894D01*
X35934Y-22922D01*
X35896Y-22951D01*
X35858Y-22922D01*
X35934Y-22922D01*
X35210Y-22665D02*
X35172Y-22636D01*
X35134Y-22579D01*
X35134Y-22436D01*
X35172Y-22379D01*
X35210Y-22350D01*
X35286Y-22322D01*
X35362Y-22322D01*
X35477Y-22350D01*
X35934Y-22693D01*
X35934Y-22322D01*
G54D12*
X30985Y-28622D02*
X30916Y-29317D01*
X30714Y-29987D01*
X30386Y-30604D01*
X29944Y-31146D01*
X29405Y-31592D01*
X28790Y-31925D01*
X28122Y-32131D01*
X27427Y-32204D01*
X26731Y-32141D01*
X26060Y-31944D01*
X25441Y-31620D01*
X24896Y-31181D01*
X24446Y-30646D01*
X24109Y-30033D01*
X23898Y-29366D01*
X23820Y-28672D01*
X23878Y-27976D01*
X24071Y-27304D01*
X24391Y-26682D01*
X24825Y-26134D01*
X25358Y-25680D01*
X25968Y-25339D01*
X26633Y-25123D01*
X27327Y-25040D01*
X28024Y-25094D01*
X28697Y-25282D01*
X29321Y-25597D01*
X29872Y-26028D01*
X30329Y-26557D01*
X30675Y-27165D01*
X30895Y-27829D01*
X30983Y-28522D01*
X30985Y-28622D01*
G54D11*
X23067Y-31052D02*
X23096Y-31080D01*
X23182Y-31109D01*
X23239Y-31109D01*
X23324Y-31080D01*
X23382Y-31023D01*
X23410Y-30966D01*
X23439Y-30852D01*
X23439Y-30766D01*
X23410Y-30652D01*
X23382Y-30595D01*
X23324Y-30537D01*
X23239Y-30509D01*
X23182Y-30509D01*
X23096Y-30537D01*
X23067Y-30566D01*
X22467Y-31109D02*
X22667Y-30823D01*
X22810Y-31109D02*
X22810Y-30509D01*
X22582Y-30509D01*
X22524Y-30537D01*
X22496Y-30566D01*
X22467Y-30623D01*
X22467Y-30709D01*
X22496Y-30766D01*
X22524Y-30795D01*
X22582Y-30823D01*
X22810Y-30823D01*
X22239Y-30566D02*
X22210Y-30537D01*
X22153Y-30509D01*
X22010Y-30509D01*
X21953Y-30537D01*
X21924Y-30566D01*
X21896Y-30623D01*
X21896Y-30680D01*
X21924Y-30766D01*
X22267Y-31109D01*
X21896Y-31109D01*
X21525Y-30509D02*
X21468Y-30509D01*
X21411Y-30537D01*
X21382Y-30566D01*
X21353Y-30623D01*
X21325Y-30737D01*
X21325Y-30880D01*
X21353Y-30995D01*
X21382Y-31052D01*
X21411Y-31080D01*
X21468Y-31109D01*
X21525Y-31109D01*
X21582Y-31080D01*
X21611Y-31052D01*
X21639Y-30995D01*
X21668Y-30880D01*
X21668Y-30737D01*
X21639Y-30623D01*
X21611Y-30566D01*
X21582Y-30537D01*
X21525Y-30509D01*
X21125Y-30509D02*
X20754Y-30509D01*
X20954Y-30737D01*
X20868Y-30737D01*
X20811Y-30766D01*
X20782Y-30795D01*
X20754Y-30852D01*
X20754Y-30995D01*
X20782Y-31052D01*
X20811Y-31080D01*
X20868Y-31109D01*
X21040Y-31109D01*
X21097Y-31080D01*
X21125Y-31052D01*
X20526Y-30566D02*
X20497Y-30537D01*
X20440Y-30509D01*
X20297Y-30509D01*
X20240Y-30537D01*
X20211Y-30566D01*
X20183Y-30623D01*
X20183Y-30680D01*
X20211Y-30766D01*
X20554Y-31109D01*
X20183Y-31109D01*
M02*
