G04 (created by PCBNEW-RS274X (2011-11-27 BZR 3249)-stable) date 21/02/2012 2:37:18 p.m.*
G01*
G70*
G90*
%MOIN*%
G04 Gerber Fmt 3.4, Leading zero omitted, Abs format*
%FSLAX34Y34*%
G04 APERTURE LIST*
%ADD10C,0.006000*%
%ADD11C,0.012000*%
%ADD12C,0.015000*%
G04 APERTURE END LIST*
G54D10*
G54D11*
X35172Y-28949D02*
X35134Y-29006D01*
X35134Y-29092D01*
X35172Y-29177D01*
X35248Y-29235D01*
X35324Y-29263D01*
X35477Y-29292D01*
X35591Y-29292D01*
X35743Y-29263D01*
X35820Y-29235D01*
X35896Y-29177D01*
X35934Y-29092D01*
X35934Y-29035D01*
X35896Y-28949D01*
X35858Y-28920D01*
X35591Y-28920D01*
X35591Y-29035D01*
X35934Y-28635D02*
X35934Y-28520D01*
X35896Y-28463D01*
X35858Y-28435D01*
X35743Y-28377D01*
X35591Y-28349D01*
X35286Y-28349D01*
X35210Y-28377D01*
X35172Y-28406D01*
X35134Y-28463D01*
X35134Y-28577D01*
X35172Y-28635D01*
X35210Y-28663D01*
X35286Y-28692D01*
X35477Y-28692D01*
X35553Y-28663D01*
X35591Y-28635D01*
X35629Y-28577D01*
X35629Y-28463D01*
X35591Y-28406D01*
X35553Y-28377D01*
X35477Y-28349D01*
X35134Y-28149D02*
X35934Y-27749D01*
X35134Y-27749D02*
X35934Y-28149D01*
X35896Y-27550D02*
X35934Y-27464D01*
X35934Y-27321D01*
X35896Y-27264D01*
X35858Y-27235D01*
X35781Y-27207D01*
X35705Y-27207D01*
X35629Y-27235D01*
X35591Y-27264D01*
X35553Y-27321D01*
X35515Y-27435D01*
X35477Y-27493D01*
X35439Y-27521D01*
X35362Y-27550D01*
X35286Y-27550D01*
X35210Y-27521D01*
X35172Y-27493D01*
X35134Y-27435D01*
X35134Y-27293D01*
X35172Y-27207D01*
X35934Y-26950D02*
X35134Y-26950D01*
X35134Y-26807D01*
X35172Y-26722D01*
X35248Y-26664D01*
X35324Y-26636D01*
X35477Y-26607D01*
X35591Y-26607D01*
X35743Y-26636D01*
X35820Y-26664D01*
X35896Y-26722D01*
X35934Y-26807D01*
X35934Y-26950D01*
X35629Y-26350D02*
X35629Y-25893D01*
X35934Y-25607D02*
X35134Y-25607D01*
X35934Y-25264D01*
X35134Y-25264D01*
X35134Y-25035D02*
X35134Y-24635D01*
X35934Y-25035D01*
X35934Y-24635D01*
X35400Y-24007D02*
X35934Y-23864D01*
X35400Y-23722D01*
X35400Y-23236D02*
X35934Y-23236D01*
X35096Y-23379D02*
X35667Y-23522D01*
X35667Y-23150D01*
X35858Y-22922D02*
X35896Y-22894D01*
X35934Y-22922D01*
X35896Y-22951D01*
X35858Y-22922D01*
X35934Y-22922D01*
X35934Y-22322D02*
X35934Y-22665D01*
X35934Y-22493D02*
X35134Y-22493D01*
X35248Y-22550D01*
X35324Y-22608D01*
X35362Y-22665D01*
G54D12*
X30985Y-28622D02*
X30916Y-29317D01*
X30714Y-29987D01*
X30386Y-30604D01*
X29944Y-31146D01*
X29405Y-31592D01*
X28790Y-31925D01*
X28122Y-32131D01*
X27427Y-32204D01*
X26731Y-32141D01*
X26060Y-31944D01*
X25441Y-31620D01*
X24896Y-31181D01*
X24446Y-30646D01*
X24109Y-30033D01*
X23898Y-29366D01*
X23820Y-28672D01*
X23878Y-27976D01*
X24071Y-27304D01*
X24391Y-26682D01*
X24825Y-26134D01*
X25358Y-25680D01*
X25968Y-25339D01*
X26633Y-25123D01*
X27327Y-25040D01*
X28024Y-25094D01*
X28697Y-25282D01*
X29321Y-25597D01*
X29872Y-26028D01*
X30329Y-26557D01*
X30675Y-27165D01*
X30895Y-27829D01*
X30983Y-28522D01*
X30985Y-28622D01*
G54D11*
X28555Y-24367D02*
X28584Y-24395D01*
X28670Y-24424D01*
X28727Y-24424D01*
X28812Y-24395D01*
X28870Y-24338D01*
X28898Y-24281D01*
X28927Y-24167D01*
X28927Y-24081D01*
X28898Y-23967D01*
X28870Y-23910D01*
X28812Y-23852D01*
X28727Y-23824D01*
X28670Y-23824D01*
X28584Y-23852D01*
X28555Y-23881D01*
X27955Y-24424D02*
X28155Y-24138D01*
X28298Y-24424D02*
X28298Y-23824D01*
X28070Y-23824D01*
X28012Y-23852D01*
X27984Y-23881D01*
X27955Y-23938D01*
X27955Y-24024D01*
X27984Y-24081D01*
X28012Y-24110D01*
X28070Y-24138D01*
X28298Y-24138D01*
X27727Y-23881D02*
X27698Y-23852D01*
X27641Y-23824D01*
X27498Y-23824D01*
X27441Y-23852D01*
X27412Y-23881D01*
X27384Y-23938D01*
X27384Y-23995D01*
X27412Y-24081D01*
X27755Y-24424D01*
X27384Y-24424D01*
X27013Y-23824D02*
X26956Y-23824D01*
X26899Y-23852D01*
X26870Y-23881D01*
X26841Y-23938D01*
X26813Y-24052D01*
X26813Y-24195D01*
X26841Y-24310D01*
X26870Y-24367D01*
X26899Y-24395D01*
X26956Y-24424D01*
X27013Y-24424D01*
X27070Y-24395D01*
X27099Y-24367D01*
X27127Y-24310D01*
X27156Y-24195D01*
X27156Y-24052D01*
X27127Y-23938D01*
X27099Y-23881D01*
X27070Y-23852D01*
X27013Y-23824D01*
X26613Y-23824D02*
X26242Y-23824D01*
X26442Y-24052D01*
X26356Y-24052D01*
X26299Y-24081D01*
X26270Y-24110D01*
X26242Y-24167D01*
X26242Y-24310D01*
X26270Y-24367D01*
X26299Y-24395D01*
X26356Y-24424D01*
X26528Y-24424D01*
X26585Y-24395D01*
X26613Y-24367D01*
X26014Y-23881D02*
X25985Y-23852D01*
X25928Y-23824D01*
X25785Y-23824D01*
X25728Y-23852D01*
X25699Y-23881D01*
X25671Y-23938D01*
X25671Y-23995D01*
X25699Y-24081D01*
X26042Y-24424D01*
X25671Y-24424D01*
M02*
