G04 (created by PCBNEW-RS274X (2011-11-27 BZR 3249)-stable) date 21/02/2012 2:37:18 p.m.*
G01*
G70*
G90*
%MOIN*%
G04 Gerber Fmt 3.4, Leading zero omitted, Abs format*
%FSLAX34Y34*%
G04 APERTURE LIST*
%ADD10C,0.006000*%
%ADD11R,0.045000X0.051500*%
%ADD12R,0.079100X0.059400*%
%ADD13R,0.106600X0.067200*%
%ADD14R,0.268000X0.075100*%
%ADD15R,0.098700X0.059400*%
%ADD16R,0.118400X0.059400*%
%ADD17R,0.098700X0.098700*%
%ADD18C,0.098700*%
%ADD19R,0.051500X0.045000*%
%ADD20R,0.075000X0.055000*%
%ADD21R,0.065000X0.040000*%
%ADD22O,0.138100X0.079100*%
%ADD23R,0.138100X0.079100*%
%ADD24C,0.055000*%
G04 APERTURE END LIST*
G54D10*
G54D11*
X23842Y-20786D03*
X23242Y-20786D03*
G54D12*
X28465Y-26501D03*
X28465Y-27485D03*
X28465Y-28470D03*
X28465Y-29424D03*
X28465Y-30094D03*
X28465Y-31412D03*
X28465Y-25832D03*
X28465Y-25182D03*
X28465Y-22564D03*
X28465Y-23548D03*
X28465Y-24533D03*
G54D13*
X36762Y-20586D03*
X37205Y-31609D03*
G54D14*
X33229Y-31767D03*
G54D15*
X32795Y-22564D03*
G54D16*
X31673Y-23548D03*
G54D15*
X31998Y-24454D03*
G54D17*
X31959Y-25507D03*
G54D15*
X31998Y-26511D03*
X31939Y-27495D03*
X31919Y-28470D03*
X31929Y-29444D03*
X31929Y-30123D03*
G54D18*
X38032Y-31019D03*
X38032Y-21491D03*
G54D11*
X26944Y-23267D03*
X27544Y-23267D03*
X25684Y-24527D03*
X26284Y-24527D03*
X25684Y-27480D03*
X26284Y-27480D03*
G54D19*
X23031Y-22897D03*
X23031Y-22297D03*
G54D11*
X26314Y-28464D03*
X26914Y-28464D03*
X26314Y-25236D03*
X26914Y-25236D03*
X26826Y-20630D03*
X27426Y-20630D03*
X27042Y-30114D03*
X27642Y-30114D03*
G54D19*
X27386Y-26473D03*
X27386Y-25873D03*
G54D11*
X27544Y-24015D03*
X26944Y-24015D03*
X24502Y-20786D03*
X25102Y-20786D03*
G54D20*
X27283Y-21396D03*
X27283Y-22146D03*
G54D21*
X23792Y-23072D03*
X25892Y-23072D03*
X23792Y-22572D03*
X23792Y-22072D03*
X23792Y-21572D03*
X25892Y-22572D03*
X25892Y-22072D03*
X25892Y-21572D03*
G54D22*
X21126Y-22725D03*
X21126Y-21938D03*
G54D23*
X21126Y-21150D03*
G54D22*
X21126Y-23512D03*
X21126Y-24300D03*
X21126Y-25087D03*
X21126Y-25874D03*
X21126Y-26661D03*
G54D24*
X24055Y-24645D03*
X24055Y-26338D03*
X23110Y-25472D03*
X29764Y-21142D03*
X26260Y-20630D03*
X20984Y-31495D03*
X22559Y-31495D03*
X20118Y-28661D03*
X25709Y-20748D03*
X20118Y-30118D03*
X29330Y-25866D03*
X29409Y-28464D03*
X29645Y-31495D03*
X37992Y-24015D03*
X31260Y-31495D03*
X37992Y-26023D03*
X37992Y-28188D03*
X35433Y-20629D03*
X23701Y-20236D03*
X29764Y-20236D03*
X22638Y-20236D03*
X35669Y-31495D03*
X31417Y-20236D03*
X20118Y-31496D03*
X25039Y-22126D03*
M02*
