M48
;DRILL file {Pcbnew (2011-11-27 BZR 3249)-stable} date 21/02/2012 2:37:28 p.m.
;FORMAT={-:-/ absolute / metric / decimal}
FMAT,2
METRIC,TZ
T1C0.635
T2C0.800
T3C1.501
%
G90
G05
M71
T1
X51.100Y-72.799
X51.100Y-76.500
X51.100Y-80.000
X53.299Y-79.997
X57.300Y-79.997
X57.501Y-51.399
X58.699Y-64.699
X60.201Y-51.399
X61.100Y-62.598
X61.100Y-66.899
X63.599Y-56.200
X65.301Y-52.700
X66.700Y-52.400
X74.498Y-65.700
X74.699Y-72.299
X75.298Y-79.997
X75.601Y-51.399
X75.601Y-53.701
X79.400Y-79.997
X79.799Y-51.399
X90.000Y-52.398
X90.599Y-79.997
X96.500Y-60.998
X96.500Y-66.098
X96.500Y-71.598
T2
X53.660Y-53.721
X53.660Y-55.723
X53.660Y-57.722
X53.660Y-59.720
X53.660Y-61.722
X53.660Y-63.721
X53.660Y-65.720
X53.660Y-67.719
T3
X96.601Y-54.587
X96.601Y-78.788
T0
M30
