G04 (created by PCBNEW-RS274X (2011-11-27 BZR 3249)-stable) date 19/07/2012 7:59:34 p.m.*
G01*
G70*
G90*
%MOIN*%
G04 Gerber Fmt 3.4, Leading zero omitted, Abs format*
%FSLAX34Y34*%
G04 APERTURE LIST*
%ADD10C,0.006000*%
%ADD11R,0.100000X0.200800*%
%ADD12C,0.551200*%
%ADD13C,0.078700*%
%ADD14O,0.118100X0.059100*%
%ADD15R,0.118100X0.059100*%
%ADD16C,0.035000*%
%ADD17C,0.008000*%
%ADD18C,0.010000*%
G04 APERTURE END LIST*
G54D10*
G54D11*
X22874Y-28622D03*
X31890Y-28622D03*
G54D12*
X27402Y-28622D03*
G54D13*
X38032Y-31019D03*
X38032Y-21491D03*
G54D14*
X21126Y-22725D03*
X21126Y-21938D03*
G54D15*
X21126Y-21150D03*
G54D14*
X21126Y-23512D03*
X21126Y-24300D03*
X21126Y-25087D03*
X21126Y-25874D03*
X21126Y-26661D03*
G54D16*
X26110Y-23799D03*
X23579Y-24945D03*
X23579Y-27209D03*
X23012Y-23957D03*
X22894Y-25091D03*
X29764Y-21142D03*
X22650Y-26118D03*
X26260Y-20630D03*
X22319Y-25500D03*
X22472Y-23811D03*
X22350Y-22846D03*
X22303Y-24720D03*
X20984Y-31495D03*
X20118Y-31496D03*
X25709Y-20748D03*
X20118Y-28661D03*
X29330Y-25866D03*
X29409Y-28464D03*
X22559Y-31495D03*
X29645Y-31495D03*
X37992Y-24015D03*
X31260Y-31495D03*
X20118Y-30118D03*
X37992Y-28188D03*
X37992Y-26023D03*
X31417Y-20236D03*
X35669Y-31495D03*
X22638Y-20236D03*
X29764Y-20236D03*
X23701Y-20236D03*
X35433Y-20629D03*
X25039Y-22126D03*
G54D17*
X22169Y-23512D02*
X21126Y-23512D01*
X24102Y-21579D02*
X22169Y-23512D01*
X25599Y-21579D02*
X24102Y-21579D01*
X26118Y-22098D02*
X25599Y-21579D01*
X26118Y-23791D02*
X26118Y-22098D01*
X26110Y-23799D02*
X26118Y-23791D01*
X23579Y-24945D02*
X23579Y-27209D01*
X23012Y-23957D02*
X22894Y-24075D01*
X22894Y-24075D02*
X22894Y-25091D01*
X26378Y-20748D02*
X26260Y-20630D01*
X29764Y-21142D02*
X29370Y-20748D01*
X29370Y-20748D02*
X26378Y-20748D01*
X22650Y-26118D02*
X22107Y-26661D01*
X22107Y-26661D02*
X21126Y-26661D01*
X22303Y-24720D02*
X22303Y-25484D01*
X22303Y-25484D02*
X22319Y-25500D01*
X22409Y-22787D02*
X22350Y-22846D01*
X22409Y-21150D02*
X22409Y-22787D01*
X22335Y-24720D02*
X22303Y-24720D01*
X22472Y-23811D02*
X22335Y-24720D01*
X25906Y-21141D02*
X25906Y-20945D01*
X27402Y-22520D02*
X26023Y-21141D01*
X20984Y-31495D02*
X20118Y-31496D01*
X27402Y-28622D02*
X27402Y-22520D01*
X27402Y-28622D02*
X25393Y-28661D01*
X29409Y-28464D02*
X29409Y-25945D01*
X20118Y-31496D02*
X20118Y-30118D01*
X37992Y-24015D02*
X35433Y-21456D01*
X31260Y-31495D02*
X35669Y-31495D01*
X29764Y-20236D02*
X23701Y-20236D01*
X21299Y-20236D02*
X21102Y-20433D01*
X29409Y-25945D02*
X29330Y-25866D01*
X21102Y-20433D02*
X21102Y-21126D01*
X26023Y-21141D02*
X25906Y-21141D01*
X22559Y-31495D02*
X27402Y-31495D01*
X37992Y-28188D02*
X37992Y-26023D01*
X35433Y-21456D02*
X35433Y-20629D01*
X27402Y-31495D02*
X27402Y-28622D01*
X25906Y-20945D02*
X25709Y-20748D01*
X25897Y-21150D02*
X25906Y-21141D01*
X21126Y-21150D02*
X22409Y-21150D01*
X22409Y-21150D02*
X25897Y-21150D01*
X21102Y-21126D02*
X21126Y-21150D01*
X22638Y-20236D02*
X21299Y-20236D01*
X27402Y-31495D02*
X29645Y-31495D01*
X23244Y-26209D02*
X23244Y-24755D01*
X22874Y-26579D02*
X23244Y-26209D01*
X23244Y-24755D02*
X25039Y-22960D01*
X22874Y-28622D02*
X22874Y-26579D01*
X25039Y-22960D02*
X25039Y-22126D01*
G54D18*
X24222Y-21869D02*
X24695Y-21869D01*
X24142Y-21949D02*
X24652Y-21949D01*
X24062Y-22029D02*
X24619Y-22029D01*
X23982Y-22109D02*
X24614Y-22109D01*
X23902Y-22189D02*
X24614Y-22189D01*
X23822Y-22269D02*
X24639Y-22269D01*
X23742Y-22349D02*
X24672Y-22349D01*
X23662Y-22429D02*
X24741Y-22429D01*
X23582Y-22509D02*
X24749Y-22509D01*
X23502Y-22589D02*
X24749Y-22589D01*
X23422Y-22669D02*
X24749Y-22669D01*
X23342Y-22749D02*
X24749Y-22749D01*
X23262Y-22829D02*
X24749Y-22829D01*
X23182Y-22909D02*
X24680Y-22909D01*
X23102Y-22989D02*
X24600Y-22989D01*
X23022Y-23069D02*
X24520Y-23069D01*
X22942Y-23149D02*
X24440Y-23149D01*
X22862Y-23229D02*
X24360Y-23229D01*
X22782Y-23309D02*
X24280Y-23309D01*
X22702Y-23389D02*
X24200Y-23389D01*
X22622Y-23469D02*
X24120Y-23469D01*
X22542Y-23549D02*
X24040Y-23549D01*
X22462Y-23629D02*
X23960Y-23629D01*
X22382Y-23709D02*
X23880Y-23709D01*
X22235Y-23789D02*
X23800Y-23789D01*
X21836Y-23869D02*
X23720Y-23869D01*
X21842Y-23949D02*
X23640Y-23949D01*
X21904Y-24029D02*
X23560Y-24029D01*
X21937Y-24109D02*
X23480Y-24109D01*
X21969Y-24189D02*
X23400Y-24189D01*
X21972Y-24269D02*
X23320Y-24269D01*
X21972Y-24349D02*
X23240Y-24349D01*
X21963Y-24429D02*
X23186Y-24429D01*
X21930Y-24509D02*
X23163Y-24509D01*
X21896Y-24589D02*
X23155Y-24589D01*
X21824Y-24669D02*
X23155Y-24669D01*
X21855Y-24749D02*
X23155Y-24749D01*
X21909Y-24829D02*
X23155Y-24829D01*
X21942Y-24909D02*
X23155Y-24909D01*
X21972Y-24989D02*
X23155Y-24989D01*
X21972Y-25069D02*
X22972Y-25069D01*
X21972Y-25149D02*
X22832Y-25149D01*
X21958Y-25229D02*
X22752Y-25229D01*
X21924Y-25309D02*
X22717Y-25309D01*
X21891Y-25389D02*
X22685Y-25389D01*
X21811Y-25469D02*
X22685Y-25469D01*
X21868Y-25549D02*
X22685Y-25549D01*
X21914Y-25629D02*
X22715Y-25629D01*
X21947Y-25709D02*
X22748Y-25709D01*
X21972Y-25789D02*
X22820Y-25789D01*
X21972Y-25869D02*
X22815Y-25869D01*
X21972Y-25949D02*
X22735Y-25949D01*
X21952Y-26029D02*
X22655Y-26029D01*
X21919Y-26109D02*
X22575Y-26109D01*
X21878Y-26189D02*
X22495Y-26189D01*
X21801Y-26269D02*
X22415Y-26269D01*
X21881Y-26349D02*
X22335Y-26349D01*
X20010Y-20088D02*
X38966Y-20088D01*
X20010Y-20168D02*
X38966Y-20168D01*
X20010Y-20248D02*
X26071Y-20248D01*
X26448Y-20248D02*
X38966Y-20248D01*
X20010Y-20328D02*
X25961Y-20328D01*
X26559Y-20328D02*
X38966Y-20328D01*
X20010Y-20408D02*
X25892Y-20408D01*
X26628Y-20408D02*
X38966Y-20408D01*
X20010Y-20488D02*
X25858Y-20488D01*
X29492Y-20488D02*
X38966Y-20488D01*
X20010Y-20568D02*
X25835Y-20568D01*
X29600Y-20568D02*
X38966Y-20568D01*
X20010Y-20648D02*
X20391Y-20648D01*
X21057Y-20648D02*
X21195Y-20648D01*
X21861Y-20648D02*
X25835Y-20648D01*
X29680Y-20648D02*
X38966Y-20648D01*
X20010Y-20728D02*
X20319Y-20728D01*
X21076Y-20728D02*
X21176Y-20728D01*
X21932Y-20728D02*
X25841Y-20728D01*
X29875Y-20728D02*
X38966Y-20728D01*
X20010Y-20808D02*
X20286Y-20808D01*
X21076Y-20808D02*
X21176Y-20808D01*
X21965Y-20808D02*
X25874Y-20808D01*
X30031Y-20808D02*
X38966Y-20808D01*
X20010Y-20888D02*
X20286Y-20888D01*
X21076Y-20888D02*
X21176Y-20888D01*
X21965Y-20888D02*
X25917Y-20888D01*
X30111Y-20888D02*
X37808Y-20888D01*
X38256Y-20888D02*
X38966Y-20888D01*
X20010Y-20968D02*
X20286Y-20968D01*
X21076Y-20968D02*
X21176Y-20968D01*
X21965Y-20968D02*
X25997Y-20968D01*
X30152Y-20968D02*
X37646Y-20968D01*
X38417Y-20968D02*
X38966Y-20968D01*
X20010Y-21048D02*
X20296Y-21048D01*
X21076Y-21048D02*
X21176Y-21048D01*
X21956Y-21048D02*
X21966Y-21048D01*
X21966Y-21048D02*
X26159Y-21048D01*
X26361Y-21048D02*
X29260Y-21048D01*
X30184Y-21048D02*
X37566Y-21048D01*
X38497Y-21048D02*
X38966Y-21048D01*
X20010Y-21128D02*
X21076Y-21128D01*
X21076Y-21128D02*
X21966Y-21128D01*
X21966Y-21128D02*
X29339Y-21128D01*
X30189Y-21128D02*
X37487Y-21128D01*
X38577Y-21128D02*
X38966Y-21128D01*
X20010Y-21208D02*
X20340Y-21208D01*
X21912Y-21208D02*
X21966Y-21208D01*
X21966Y-21208D02*
X29339Y-21208D01*
X30189Y-21208D02*
X37453Y-21208D01*
X38610Y-21208D02*
X38966Y-21208D01*
X20010Y-21288D02*
X20287Y-21288D01*
X21966Y-21288D02*
X29365Y-21288D01*
X30164Y-21288D02*
X30189Y-21288D01*
X30189Y-21288D02*
X37420Y-21288D01*
X38643Y-21288D02*
X38966Y-21288D01*
X20010Y-21368D02*
X20287Y-21368D01*
X21966Y-21368D02*
X23905Y-21368D01*
X25795Y-21368D02*
X29398Y-21368D01*
X30131Y-21368D02*
X30189Y-21368D01*
X30189Y-21368D02*
X37389Y-21368D01*
X38675Y-21368D02*
X38966Y-21368D01*
X20010Y-21448D02*
X20287Y-21448D01*
X21966Y-21448D02*
X23822Y-21448D01*
X25878Y-21448D02*
X29469Y-21448D01*
X30059Y-21448D02*
X30189Y-21448D01*
X30189Y-21448D02*
X37389Y-21448D01*
X38675Y-21448D02*
X38966Y-21448D01*
X20010Y-21528D02*
X20302Y-21528D01*
X21951Y-21528D02*
X23742Y-21528D01*
X25958Y-21528D02*
X29586Y-21528D01*
X29944Y-21528D02*
X30189Y-21528D01*
X30189Y-21528D02*
X37389Y-21528D01*
X38675Y-21528D02*
X38966Y-21528D01*
X20010Y-21608D02*
X20347Y-21608D01*
X21905Y-21608D02*
X23662Y-21608D01*
X26038Y-21608D02*
X30189Y-21608D01*
X30189Y-21608D02*
X37389Y-21608D01*
X38675Y-21608D02*
X38966Y-21608D01*
X20010Y-21688D02*
X20339Y-21688D01*
X21912Y-21688D02*
X23582Y-21688D01*
X26118Y-21688D02*
X30189Y-21688D01*
X30189Y-21688D02*
X37419Y-21688D01*
X38647Y-21688D02*
X38675Y-21688D01*
X38675Y-21688D02*
X38966Y-21688D01*
X20010Y-21768D02*
X20306Y-21768D01*
X21945Y-21768D02*
X23502Y-21768D01*
X26198Y-21768D02*
X30189Y-21768D01*
X30189Y-21768D02*
X37452Y-21768D01*
X38613Y-21768D02*
X38675Y-21768D01*
X38675Y-21768D02*
X38966Y-21768D01*
X20010Y-21848D02*
X20280Y-21848D01*
X21972Y-21848D02*
X23422Y-21848D01*
X26278Y-21848D02*
X30189Y-21848D01*
X30189Y-21848D02*
X37485Y-21848D01*
X38580Y-21848D02*
X38675Y-21848D01*
X38675Y-21848D02*
X38966Y-21848D01*
X20010Y-21928D02*
X20280Y-21928D01*
X21972Y-21928D02*
X23342Y-21928D01*
X25417Y-21928D02*
X25538Y-21928D01*
X26346Y-21928D02*
X30189Y-21928D01*
X30189Y-21928D02*
X37561Y-21928D01*
X38504Y-21928D02*
X38675Y-21928D01*
X38675Y-21928D02*
X38966Y-21928D01*
X20010Y-22008D02*
X20280Y-22008D01*
X21972Y-22008D02*
X23262Y-22008D01*
X25450Y-22008D02*
X25618Y-22008D01*
X26390Y-22008D02*
X30189Y-22008D01*
X30189Y-22008D02*
X37641Y-22008D01*
X38424Y-22008D02*
X38675Y-22008D01*
X38675Y-22008D02*
X38966Y-22008D01*
X20010Y-22088D02*
X20299Y-22088D01*
X21955Y-22088D02*
X23182Y-22088D01*
X25464Y-22088D02*
X25698Y-22088D01*
X26405Y-22088D02*
X30189Y-22088D01*
X30189Y-22088D02*
X37794Y-22088D01*
X38270Y-22088D02*
X38675Y-22088D01*
X38675Y-22088D02*
X38966Y-22088D01*
X20010Y-22168D02*
X20331Y-22168D01*
X21921Y-22168D02*
X23102Y-22168D01*
X25464Y-22168D02*
X25778Y-22168D01*
X26408Y-22168D02*
X30189Y-22168D01*
X30189Y-22168D02*
X38675Y-22168D01*
X38675Y-22168D02*
X38966Y-22168D01*
X20010Y-22248D02*
X20369Y-22248D01*
X21883Y-22248D02*
X23022Y-22248D01*
X25449Y-22248D02*
X25828Y-22248D01*
X26408Y-22248D02*
X30189Y-22248D01*
X30189Y-22248D02*
X38675Y-22248D01*
X38675Y-22248D02*
X38966Y-22248D01*
X20010Y-22328D02*
X20449Y-22328D01*
X21803Y-22328D02*
X22942Y-22328D01*
X25416Y-22328D02*
X25828Y-22328D01*
X26408Y-22328D02*
X30189Y-22328D01*
X30189Y-22328D02*
X38675Y-22328D01*
X38675Y-22328D02*
X38966Y-22328D01*
X20010Y-22408D02*
X20375Y-22408D01*
X21876Y-22408D02*
X22862Y-22408D01*
X25358Y-22408D02*
X25828Y-22408D01*
X26408Y-22408D02*
X30189Y-22408D01*
X30189Y-22408D02*
X38675Y-22408D01*
X38675Y-22408D02*
X38966Y-22408D01*
X20010Y-22488D02*
X20334Y-22488D01*
X21918Y-22488D02*
X22782Y-22488D01*
X25329Y-22488D02*
X25828Y-22488D01*
X26408Y-22488D02*
X30189Y-22488D01*
X30189Y-22488D02*
X38675Y-22488D01*
X38675Y-22488D02*
X38966Y-22488D01*
X20010Y-22568D02*
X20300Y-22568D01*
X21951Y-22568D02*
X22702Y-22568D01*
X25329Y-22568D02*
X25828Y-22568D01*
X26408Y-22568D02*
X30189Y-22568D01*
X30189Y-22568D02*
X38675Y-22568D01*
X38675Y-22568D02*
X38966Y-22568D01*
X20010Y-22648D02*
X20280Y-22648D01*
X21972Y-22648D02*
X22622Y-22648D01*
X25329Y-22648D02*
X25828Y-22648D01*
X26408Y-22648D02*
X30189Y-22648D01*
X30189Y-22648D02*
X38675Y-22648D01*
X38675Y-22648D02*
X38966Y-22648D01*
X20010Y-22728D02*
X20280Y-22728D01*
X21972Y-22728D02*
X22542Y-22728D01*
X25329Y-22728D02*
X25828Y-22728D01*
X26408Y-22728D02*
X30189Y-22728D01*
X30189Y-22728D02*
X38675Y-22728D01*
X38675Y-22728D02*
X38966Y-22728D01*
X20010Y-22808D02*
X20280Y-22808D01*
X21972Y-22808D02*
X22462Y-22808D01*
X25329Y-22808D02*
X25828Y-22808D01*
X26408Y-22808D02*
X30189Y-22808D01*
X30189Y-22808D02*
X38675Y-22808D01*
X38675Y-22808D02*
X38966Y-22808D01*
X20010Y-22888D02*
X20304Y-22888D01*
X21949Y-22888D02*
X22382Y-22888D01*
X25329Y-22888D02*
X25828Y-22888D01*
X26408Y-22888D02*
X30189Y-22888D01*
X30189Y-22888D02*
X38675Y-22888D01*
X38675Y-22888D02*
X38966Y-22888D01*
X20010Y-22968D02*
X20337Y-22968D01*
X21916Y-22968D02*
X22302Y-22968D01*
X25328Y-22968D02*
X25828Y-22968D01*
X26408Y-22968D02*
X30189Y-22968D01*
X30189Y-22968D02*
X38675Y-22968D01*
X38675Y-22968D02*
X38966Y-22968D01*
X20010Y-23048D02*
X20382Y-23048D01*
X21870Y-23048D02*
X22222Y-23048D01*
X25312Y-23048D02*
X25828Y-23048D01*
X26408Y-23048D02*
X30189Y-23048D01*
X30189Y-23048D02*
X38675Y-23048D01*
X38675Y-23048D02*
X38966Y-23048D01*
X20010Y-23128D02*
X20442Y-23128D01*
X21809Y-23128D02*
X22142Y-23128D01*
X25269Y-23128D02*
X25828Y-23128D01*
X26408Y-23128D02*
X30189Y-23128D01*
X30189Y-23128D02*
X38675Y-23128D01*
X38675Y-23128D02*
X38966Y-23128D01*
X20010Y-23208D02*
X20362Y-23208D01*
X21889Y-23208D02*
X22062Y-23208D01*
X25201Y-23208D02*
X25828Y-23208D01*
X26408Y-23208D02*
X30189Y-23208D01*
X30189Y-23208D02*
X38675Y-23208D01*
X38675Y-23208D02*
X38966Y-23208D01*
X20010Y-23288D02*
X20328Y-23288D01*
X25121Y-23288D02*
X25828Y-23288D01*
X26408Y-23288D02*
X30189Y-23288D01*
X30189Y-23288D02*
X38675Y-23288D01*
X38675Y-23288D02*
X38966Y-23288D01*
X20010Y-23368D02*
X20295Y-23368D01*
X25041Y-23368D02*
X25828Y-23368D01*
X26408Y-23368D02*
X30189Y-23368D01*
X30189Y-23368D02*
X38675Y-23368D01*
X38675Y-23368D02*
X38966Y-23368D01*
X20010Y-23448D02*
X20280Y-23448D01*
X24961Y-23448D02*
X25828Y-23448D01*
X26408Y-23448D02*
X30189Y-23448D01*
X30189Y-23448D02*
X38675Y-23448D01*
X38675Y-23448D02*
X38966Y-23448D01*
X20010Y-23528D02*
X20280Y-23528D01*
X24881Y-23528D02*
X25780Y-23528D01*
X26440Y-23528D02*
X30189Y-23528D01*
X30189Y-23528D02*
X38675Y-23528D01*
X38675Y-23528D02*
X38966Y-23528D01*
X20010Y-23608D02*
X20280Y-23608D01*
X24801Y-23608D02*
X25729Y-23608D01*
X26491Y-23608D02*
X30189Y-23608D01*
X30189Y-23608D02*
X38675Y-23608D01*
X38675Y-23608D02*
X38966Y-23608D01*
X20010Y-23688D02*
X20309Y-23688D01*
X24721Y-23688D02*
X25695Y-23688D01*
X26523Y-23688D02*
X30189Y-23688D01*
X30189Y-23688D02*
X38675Y-23688D01*
X38675Y-23688D02*
X38966Y-23688D01*
X20010Y-23768D02*
X20342Y-23768D01*
X24641Y-23768D02*
X25685Y-23768D01*
X26535Y-23768D02*
X30189Y-23768D01*
X30189Y-23768D02*
X38675Y-23768D01*
X38675Y-23768D02*
X38966Y-23768D01*
X20010Y-23848D02*
X20395Y-23848D01*
X24561Y-23848D02*
X25685Y-23848D01*
X26535Y-23848D02*
X30189Y-23848D01*
X30189Y-23848D02*
X38675Y-23848D01*
X38675Y-23848D02*
X38966Y-23848D01*
X20010Y-23928D02*
X20429Y-23928D01*
X24481Y-23928D02*
X25704Y-23928D01*
X26517Y-23928D02*
X26535Y-23928D01*
X26535Y-23928D02*
X30189Y-23928D01*
X30189Y-23928D02*
X38675Y-23928D01*
X38675Y-23928D02*
X38966Y-23928D01*
X20010Y-24008D02*
X20357Y-24008D01*
X24401Y-24008D02*
X25737Y-24008D01*
X26484Y-24008D02*
X26535Y-24008D01*
X26535Y-24008D02*
X30189Y-24008D01*
X30189Y-24008D02*
X38675Y-24008D01*
X38675Y-24008D02*
X38966Y-24008D01*
X20010Y-24088D02*
X20323Y-24088D01*
X24321Y-24088D02*
X25798Y-24088D01*
X26422Y-24088D02*
X26535Y-24088D01*
X26535Y-24088D02*
X30189Y-24088D01*
X30189Y-24088D02*
X38675Y-24088D01*
X38675Y-24088D02*
X38966Y-24088D01*
X20010Y-24168D02*
X20290Y-24168D01*
X24241Y-24168D02*
X25891Y-24168D01*
X26331Y-24168D02*
X26535Y-24168D01*
X26535Y-24168D02*
X30189Y-24168D01*
X30189Y-24168D02*
X38675Y-24168D01*
X38675Y-24168D02*
X38966Y-24168D01*
X20010Y-24248D02*
X20280Y-24248D01*
X24161Y-24248D02*
X26535Y-24248D01*
X26535Y-24248D02*
X30189Y-24248D01*
X30189Y-24248D02*
X38675Y-24248D01*
X38675Y-24248D02*
X38966Y-24248D01*
X20010Y-24328D02*
X20280Y-24328D01*
X24122Y-24328D02*
X26535Y-24328D01*
X26535Y-24328D02*
X30189Y-24328D01*
X30189Y-24328D02*
X38675Y-24328D01*
X38675Y-24328D02*
X38966Y-24328D01*
X20010Y-24408D02*
X20281Y-24408D01*
X24202Y-24408D02*
X26535Y-24408D01*
X26535Y-24408D02*
X30189Y-24408D01*
X30189Y-24408D02*
X38675Y-24408D01*
X38675Y-24408D02*
X38966Y-24408D01*
X20010Y-24488D02*
X20314Y-24488D01*
X24249Y-24488D02*
X26535Y-24488D01*
X26535Y-24488D02*
X30189Y-24488D01*
X30189Y-24488D02*
X38675Y-24488D01*
X38675Y-24488D02*
X38966Y-24488D01*
X20010Y-24568D02*
X20347Y-24568D01*
X24282Y-24568D02*
X26535Y-24568D01*
X26535Y-24568D02*
X30189Y-24568D01*
X30189Y-24568D02*
X38675Y-24568D01*
X38675Y-24568D02*
X38966Y-24568D01*
X20010Y-24648D02*
X20407Y-24648D01*
X24291Y-24648D02*
X26535Y-24648D01*
X26535Y-24648D02*
X30189Y-24648D01*
X30189Y-24648D02*
X38675Y-24648D01*
X38675Y-24648D02*
X38966Y-24648D01*
X20010Y-24728D02*
X20417Y-24728D01*
X24291Y-24728D02*
X26535Y-24728D01*
X26535Y-24728D02*
X30189Y-24728D01*
X30189Y-24728D02*
X38675Y-24728D01*
X38675Y-24728D02*
X38966Y-24728D01*
X20010Y-24808D02*
X20351Y-24808D01*
X24271Y-24808D02*
X26535Y-24808D01*
X26535Y-24808D02*
X30189Y-24808D01*
X30189Y-24808D02*
X38675Y-24808D01*
X38675Y-24808D02*
X38966Y-24808D01*
X20010Y-24888D02*
X20318Y-24888D01*
X24237Y-24888D02*
X26535Y-24888D01*
X26535Y-24888D02*
X30189Y-24888D01*
X30189Y-24888D02*
X38675Y-24888D01*
X38675Y-24888D02*
X38966Y-24888D01*
X20010Y-24968D02*
X20285Y-24968D01*
X24172Y-24968D02*
X26535Y-24968D01*
X26535Y-24968D02*
X30189Y-24968D01*
X30189Y-24968D02*
X38675Y-24968D01*
X38675Y-24968D02*
X38966Y-24968D01*
X20010Y-25048D02*
X20280Y-25048D01*
X24156Y-25048D02*
X26535Y-25048D01*
X26535Y-25048D02*
X30189Y-25048D01*
X30189Y-25048D02*
X38675Y-25048D01*
X38675Y-25048D02*
X38966Y-25048D01*
X20010Y-25128D02*
X20280Y-25128D01*
X24156Y-25128D02*
X26535Y-25128D01*
X26535Y-25128D02*
X30189Y-25128D01*
X30189Y-25128D02*
X38675Y-25128D01*
X38675Y-25128D02*
X38966Y-25128D01*
X20010Y-25208D02*
X20287Y-25208D01*
X24156Y-25208D02*
X26535Y-25208D01*
X26535Y-25208D02*
X30189Y-25208D01*
X30189Y-25208D02*
X38675Y-25208D01*
X38675Y-25208D02*
X38966Y-25208D01*
X20010Y-25288D02*
X20320Y-25288D01*
X24156Y-25288D02*
X26535Y-25288D01*
X26535Y-25288D02*
X30189Y-25288D01*
X30189Y-25288D02*
X38675Y-25288D01*
X38675Y-25288D02*
X38966Y-25288D01*
X20010Y-25368D02*
X20352Y-25368D01*
X24156Y-25368D02*
X26535Y-25368D01*
X26535Y-25368D02*
X30189Y-25368D01*
X30189Y-25368D02*
X38675Y-25368D01*
X38675Y-25368D02*
X38966Y-25368D01*
X20010Y-25448D02*
X20420Y-25448D01*
X24156Y-25448D02*
X26535Y-25448D01*
X26535Y-25448D02*
X30189Y-25448D01*
X30189Y-25448D02*
X38675Y-25448D01*
X38675Y-25448D02*
X38966Y-25448D01*
X20010Y-25528D02*
X20404Y-25528D01*
X24156Y-25528D02*
X26535Y-25528D01*
X26535Y-25528D02*
X30189Y-25528D01*
X30189Y-25528D02*
X38675Y-25528D01*
X38675Y-25528D02*
X38966Y-25528D01*
X20010Y-25608D02*
X20346Y-25608D01*
X24156Y-25608D02*
X26535Y-25608D01*
X26535Y-25608D02*
X30189Y-25608D01*
X30189Y-25608D02*
X38675Y-25608D01*
X38675Y-25608D02*
X38966Y-25608D01*
X20010Y-25688D02*
X20313Y-25688D01*
X24156Y-25688D02*
X26535Y-25688D01*
X26535Y-25688D02*
X26815Y-25688D01*
X28011Y-25688D02*
X30189Y-25688D01*
X30189Y-25688D02*
X38675Y-25688D01*
X38675Y-25688D02*
X38966Y-25688D01*
X20010Y-25768D02*
X20280Y-25768D01*
X24156Y-25768D02*
X26535Y-25768D01*
X26535Y-25768D02*
X26607Y-25768D01*
X28234Y-25768D02*
X30189Y-25768D01*
X30189Y-25768D02*
X38675Y-25768D01*
X38675Y-25768D02*
X38966Y-25768D01*
X20010Y-25848D02*
X20280Y-25848D01*
X24156Y-25848D02*
X26401Y-25848D01*
X28415Y-25848D02*
X30189Y-25848D01*
X30189Y-25848D02*
X38675Y-25848D01*
X38675Y-25848D02*
X38966Y-25848D01*
X20010Y-25928D02*
X20280Y-25928D01*
X24156Y-25928D02*
X26195Y-25928D01*
X28597Y-25928D02*
X30189Y-25928D01*
X30189Y-25928D02*
X38675Y-25928D01*
X38675Y-25928D02*
X38966Y-25928D01*
X20010Y-26008D02*
X20292Y-26008D01*
X24164Y-26008D02*
X25990Y-26008D01*
X28778Y-26008D02*
X30189Y-26008D01*
X30189Y-26008D02*
X38675Y-26008D01*
X38675Y-26008D02*
X38966Y-26008D01*
X20010Y-26088D02*
X20325Y-26088D01*
X24233Y-26088D02*
X25787Y-26088D01*
X28960Y-26088D02*
X30189Y-26088D01*
X30189Y-26088D02*
X38675Y-26088D01*
X38675Y-26088D02*
X38966Y-26088D01*
X20010Y-26168D02*
X20358Y-26168D01*
X24266Y-26168D02*
X25670Y-26168D01*
X29133Y-26168D02*
X30189Y-26168D01*
X30189Y-26168D02*
X38675Y-26168D01*
X38675Y-26168D02*
X38966Y-26168D01*
X20010Y-26248D02*
X20433Y-26248D01*
X24291Y-26248D02*
X25596Y-26248D01*
X29208Y-26248D02*
X30189Y-26248D01*
X30189Y-26248D02*
X38675Y-26248D01*
X38675Y-26248D02*
X38966Y-26248D01*
X20010Y-26328D02*
X20391Y-26328D01*
X24291Y-26328D02*
X25521Y-26328D01*
X29282Y-26328D02*
X30189Y-26328D01*
X30189Y-26328D02*
X38675Y-26328D01*
X38675Y-26328D02*
X38966Y-26328D01*
X20010Y-26408D02*
X20341Y-26408D01*
X23096Y-26408D02*
X23155Y-26408D01*
X24286Y-26408D02*
X25447Y-26408D01*
X29356Y-26408D02*
X30189Y-26408D01*
X30189Y-26408D02*
X38675Y-26408D01*
X38675Y-26408D02*
X38966Y-26408D01*
X20010Y-26488D02*
X20307Y-26488D01*
X23016Y-26488D02*
X23155Y-26488D01*
X24253Y-26488D02*
X25372Y-26488D01*
X29431Y-26488D02*
X30189Y-26488D01*
X30189Y-26488D02*
X38675Y-26488D01*
X38675Y-26488D02*
X38966Y-26488D01*
X20010Y-26568D02*
X20280Y-26568D01*
X22936Y-26568D02*
X23101Y-26568D01*
X24210Y-26568D02*
X25419Y-26568D01*
X29386Y-26568D02*
X29448Y-26568D01*
X29448Y-26568D02*
X30189Y-26568D01*
X30189Y-26568D02*
X38675Y-26568D01*
X38675Y-26568D02*
X38966Y-26568D01*
X20010Y-26648D02*
X20280Y-26648D01*
X22856Y-26648D02*
X23021Y-26648D01*
X24130Y-26648D02*
X25208Y-26648D01*
X25357Y-26648D02*
X25499Y-26648D01*
X29306Y-26648D02*
X29446Y-26648D01*
X29595Y-26648D02*
X30189Y-26648D01*
X30189Y-26648D02*
X38675Y-26648D01*
X38675Y-26648D02*
X38966Y-26648D01*
X20010Y-26728D02*
X20280Y-26728D01*
X22776Y-26728D02*
X22941Y-26728D01*
X23716Y-26728D02*
X23762Y-26728D01*
X23970Y-26728D02*
X25122Y-26728D01*
X25437Y-26728D02*
X25579Y-26728D01*
X29226Y-26728D02*
X29366Y-26728D01*
X29681Y-26728D02*
X30189Y-26728D01*
X30189Y-26728D02*
X38675Y-26728D01*
X38675Y-26728D02*
X38966Y-26728D01*
X20010Y-26808D02*
X20297Y-26808D01*
X22696Y-26808D02*
X22861Y-26808D01*
X23671Y-26808D02*
X25036Y-26808D01*
X25517Y-26808D02*
X25659Y-26808D01*
X29146Y-26808D02*
X29286Y-26808D01*
X29767Y-26808D02*
X30189Y-26808D01*
X30189Y-26808D02*
X38675Y-26808D01*
X38675Y-26808D02*
X38966Y-26808D01*
X20010Y-26888D02*
X20330Y-26888D01*
X22606Y-26888D02*
X22781Y-26888D01*
X23601Y-26888D02*
X24950Y-26888D01*
X25597Y-26888D02*
X25739Y-26888D01*
X29066Y-26888D02*
X29206Y-26888D01*
X29853Y-26888D02*
X30189Y-26888D01*
X30189Y-26888D02*
X38675Y-26888D01*
X38675Y-26888D02*
X38966Y-26888D01*
X20010Y-26968D02*
X20366Y-26968D01*
X21887Y-26968D02*
X22701Y-26968D01*
X23521Y-26968D02*
X24910Y-26968D01*
X25677Y-26968D02*
X25819Y-26968D01*
X28986Y-26968D02*
X29126Y-26968D01*
X29910Y-26968D02*
X30189Y-26968D01*
X30189Y-26968D02*
X38675Y-26968D01*
X38675Y-26968D02*
X38966Y-26968D01*
X20010Y-27048D02*
X20446Y-27048D01*
X21807Y-27048D02*
X22636Y-27048D01*
X23441Y-27048D02*
X24874Y-27048D01*
X25757Y-27048D02*
X25899Y-27048D01*
X28906Y-27048D02*
X29046Y-27048D01*
X29952Y-27048D02*
X30189Y-27048D01*
X30189Y-27048D02*
X38675Y-27048D01*
X38675Y-27048D02*
X38966Y-27048D01*
X20010Y-27128D02*
X20546Y-27128D01*
X21709Y-27128D02*
X22599Y-27128D01*
X23361Y-27128D02*
X24839Y-27128D01*
X25837Y-27128D02*
X25979Y-27128D01*
X28826Y-27128D02*
X28966Y-27128D01*
X29983Y-27128D02*
X30189Y-27128D01*
X30189Y-27128D02*
X38675Y-27128D01*
X38675Y-27128D02*
X38966Y-27128D01*
X20010Y-27208D02*
X22584Y-27208D01*
X23281Y-27208D02*
X24804Y-27208D01*
X25917Y-27208D02*
X26059Y-27208D01*
X28746Y-27208D02*
X28886Y-27208D01*
X30014Y-27208D02*
X30189Y-27208D01*
X30189Y-27208D02*
X38675Y-27208D01*
X38675Y-27208D02*
X38966Y-27208D01*
X20010Y-27288D02*
X22584Y-27288D01*
X23201Y-27288D02*
X24769Y-27288D01*
X25997Y-27288D02*
X26139Y-27288D01*
X28666Y-27288D02*
X28806Y-27288D01*
X30045Y-27288D02*
X30189Y-27288D01*
X30189Y-27288D02*
X38675Y-27288D01*
X38675Y-27288D02*
X38966Y-27288D01*
X20010Y-27368D02*
X22584Y-27368D01*
X23164Y-27368D02*
X24733Y-27368D01*
X26077Y-27368D02*
X26219Y-27368D01*
X28586Y-27368D02*
X28726Y-27368D01*
X30076Y-27368D02*
X30189Y-27368D01*
X30189Y-27368D02*
X38675Y-27368D01*
X38675Y-27368D02*
X38966Y-27368D01*
X20010Y-27448D02*
X22192Y-27448D01*
X23556Y-27448D02*
X24698Y-27448D01*
X26157Y-27448D02*
X26299Y-27448D01*
X28506Y-27448D02*
X28646Y-27448D01*
X30107Y-27448D02*
X30189Y-27448D01*
X30189Y-27448D02*
X31208Y-27448D01*
X32572Y-27448D02*
X38675Y-27448D01*
X38675Y-27448D02*
X38966Y-27448D01*
X20010Y-27528D02*
X22141Y-27528D01*
X23606Y-27528D02*
X24663Y-27528D01*
X26237Y-27528D02*
X26379Y-27528D01*
X28426Y-27528D02*
X28566Y-27528D01*
X30138Y-27528D02*
X30189Y-27528D01*
X30189Y-27528D02*
X31157Y-27528D01*
X32622Y-27528D02*
X38675Y-27528D01*
X38675Y-27528D02*
X38966Y-27528D01*
X20010Y-27608D02*
X22125Y-27608D01*
X23623Y-27608D02*
X24628Y-27608D01*
X26317Y-27608D02*
X26459Y-27608D01*
X28346Y-27608D02*
X28486Y-27608D01*
X30169Y-27608D02*
X30189Y-27608D01*
X30189Y-27608D02*
X31141Y-27608D01*
X32639Y-27608D02*
X38675Y-27608D01*
X38675Y-27608D02*
X38966Y-27608D01*
X20010Y-27688D02*
X22125Y-27688D01*
X23623Y-27688D02*
X24592Y-27688D01*
X26397Y-27688D02*
X26539Y-27688D01*
X28266Y-27688D02*
X28406Y-27688D01*
X30201Y-27688D02*
X31141Y-27688D01*
X32639Y-27688D02*
X38675Y-27688D01*
X38675Y-27688D02*
X38966Y-27688D01*
X20010Y-27768D02*
X22125Y-27768D01*
X23623Y-27768D02*
X24557Y-27768D01*
X26477Y-27768D02*
X26619Y-27768D01*
X28186Y-27768D02*
X28326Y-27768D01*
X30232Y-27768D02*
X31141Y-27768D01*
X32639Y-27768D02*
X38675Y-27768D01*
X38675Y-27768D02*
X38966Y-27768D01*
X20010Y-27848D02*
X22125Y-27848D01*
X23623Y-27848D02*
X24522Y-27848D01*
X26557Y-27848D02*
X26699Y-27848D01*
X28106Y-27848D02*
X28246Y-27848D01*
X30263Y-27848D02*
X31141Y-27848D01*
X32639Y-27848D02*
X38675Y-27848D01*
X38675Y-27848D02*
X38966Y-27848D01*
X20010Y-27928D02*
X22125Y-27928D01*
X23623Y-27928D02*
X24487Y-27928D01*
X26637Y-27928D02*
X26779Y-27928D01*
X28026Y-27928D02*
X28166Y-27928D01*
X30294Y-27928D02*
X31141Y-27928D01*
X32639Y-27928D02*
X38675Y-27928D01*
X38675Y-27928D02*
X38966Y-27928D01*
X20010Y-28008D02*
X22125Y-28008D01*
X23623Y-28008D02*
X24468Y-28008D01*
X26717Y-28008D02*
X26859Y-28008D01*
X27946Y-28008D02*
X28086Y-28008D01*
X30325Y-28008D02*
X31141Y-28008D01*
X32639Y-28008D02*
X38675Y-28008D01*
X38675Y-28008D02*
X38966Y-28008D01*
X20010Y-28088D02*
X22125Y-28088D01*
X23623Y-28088D02*
X24466Y-28088D01*
X26797Y-28088D02*
X26939Y-28088D01*
X27866Y-28088D02*
X28006Y-28088D01*
X30356Y-28088D02*
X31141Y-28088D01*
X32639Y-28088D02*
X38675Y-28088D01*
X38675Y-28088D02*
X38966Y-28088D01*
X20010Y-28168D02*
X22125Y-28168D01*
X23623Y-28168D02*
X24464Y-28168D01*
X26877Y-28168D02*
X27019Y-28168D01*
X27786Y-28168D02*
X27926Y-28168D01*
X30361Y-28168D02*
X30362Y-28168D01*
X30362Y-28168D02*
X31141Y-28168D01*
X32639Y-28168D02*
X38675Y-28168D01*
X38675Y-28168D02*
X38966Y-28168D01*
X20010Y-28248D02*
X22125Y-28248D01*
X23623Y-28248D02*
X24462Y-28248D01*
X26957Y-28248D02*
X27099Y-28248D01*
X27706Y-28248D02*
X27846Y-28248D01*
X30359Y-28248D02*
X30362Y-28248D01*
X30362Y-28248D02*
X31141Y-28248D01*
X32639Y-28248D02*
X38675Y-28248D01*
X38675Y-28248D02*
X38966Y-28248D01*
X20010Y-28328D02*
X22125Y-28328D01*
X23623Y-28328D02*
X24460Y-28328D01*
X27037Y-28328D02*
X27179Y-28328D01*
X27626Y-28328D02*
X27766Y-28328D01*
X30357Y-28328D02*
X30362Y-28328D01*
X30362Y-28328D02*
X31141Y-28328D01*
X32639Y-28328D02*
X38675Y-28328D01*
X38675Y-28328D02*
X38966Y-28328D01*
X20010Y-28408D02*
X22125Y-28408D01*
X23623Y-28408D02*
X24458Y-28408D01*
X27117Y-28408D02*
X27259Y-28408D01*
X27546Y-28408D02*
X27686Y-28408D01*
X30355Y-28408D02*
X30362Y-28408D01*
X30362Y-28408D02*
X31141Y-28408D01*
X32639Y-28408D02*
X38675Y-28408D01*
X38675Y-28408D02*
X38966Y-28408D01*
X20010Y-28488D02*
X22125Y-28488D01*
X23623Y-28488D02*
X24457Y-28488D01*
X27197Y-28488D02*
X27339Y-28488D01*
X27466Y-28488D02*
X27606Y-28488D01*
X30354Y-28488D02*
X30362Y-28488D01*
X30362Y-28488D02*
X31141Y-28488D01*
X32639Y-28488D02*
X38675Y-28488D01*
X38675Y-28488D02*
X38966Y-28488D01*
X20010Y-28568D02*
X22125Y-28568D01*
X23623Y-28568D02*
X24455Y-28568D01*
X27277Y-28568D02*
X27526Y-28568D01*
X30352Y-28568D02*
X30362Y-28568D01*
X30362Y-28568D02*
X31141Y-28568D01*
X32639Y-28568D02*
X38675Y-28568D01*
X38675Y-28568D02*
X38966Y-28568D01*
X20010Y-28648D02*
X22125Y-28648D01*
X23623Y-28648D02*
X24453Y-28648D01*
X27306Y-28648D02*
X27331Y-28648D01*
X27331Y-28648D02*
X27499Y-28648D01*
X30350Y-28648D02*
X30362Y-28648D01*
X30362Y-28648D02*
X31141Y-28648D01*
X32639Y-28648D02*
X38675Y-28648D01*
X38675Y-28648D02*
X38966Y-28648D01*
X20010Y-28728D02*
X22125Y-28728D01*
X23623Y-28728D02*
X24451Y-28728D01*
X27226Y-28728D02*
X27331Y-28728D01*
X27331Y-28728D02*
X27366Y-28728D01*
X27437Y-28728D02*
X27579Y-28728D01*
X30348Y-28728D02*
X30362Y-28728D01*
X30362Y-28728D02*
X31141Y-28728D01*
X32639Y-28728D02*
X38675Y-28728D01*
X38675Y-28728D02*
X38966Y-28728D01*
X20010Y-28808D02*
X22125Y-28808D01*
X23623Y-28808D02*
X24449Y-28808D01*
X27146Y-28808D02*
X27286Y-28808D01*
X27517Y-28808D02*
X27659Y-28808D01*
X30346Y-28808D02*
X30362Y-28808D01*
X30362Y-28808D02*
X31141Y-28808D01*
X32639Y-28808D02*
X38675Y-28808D01*
X38675Y-28808D02*
X38966Y-28808D01*
X20010Y-28888D02*
X22125Y-28888D01*
X23623Y-28888D02*
X24447Y-28888D01*
X27066Y-28888D02*
X27206Y-28888D01*
X27597Y-28888D02*
X27739Y-28888D01*
X30344Y-28888D02*
X30362Y-28888D01*
X30362Y-28888D02*
X31141Y-28888D01*
X32639Y-28888D02*
X38675Y-28888D01*
X38675Y-28888D02*
X38966Y-28888D01*
X20010Y-28968D02*
X22125Y-28968D01*
X23623Y-28968D02*
X24445Y-28968D01*
X26986Y-28968D02*
X27126Y-28968D01*
X27677Y-28968D02*
X27819Y-28968D01*
X30343Y-28968D02*
X30362Y-28968D01*
X30362Y-28968D02*
X31141Y-28968D01*
X32639Y-28968D02*
X38675Y-28968D01*
X38675Y-28968D02*
X38966Y-28968D01*
X20010Y-29048D02*
X22125Y-29048D01*
X23623Y-29048D02*
X24444Y-29048D01*
X26906Y-29048D02*
X27046Y-29048D01*
X27757Y-29048D02*
X27899Y-29048D01*
X30341Y-29048D02*
X30362Y-29048D01*
X30362Y-29048D02*
X31141Y-29048D01*
X32639Y-29048D02*
X38675Y-29048D01*
X38675Y-29048D02*
X38966Y-29048D01*
X20010Y-29128D02*
X22125Y-29128D01*
X23623Y-29128D02*
X24442Y-29128D01*
X26826Y-29128D02*
X26966Y-29128D01*
X27837Y-29128D02*
X27979Y-29128D01*
X30339Y-29128D02*
X30362Y-29128D01*
X30362Y-29128D02*
X31141Y-29128D01*
X32639Y-29128D02*
X38675Y-29128D01*
X38675Y-29128D02*
X38966Y-29128D01*
X20010Y-29208D02*
X22125Y-29208D01*
X23623Y-29208D02*
X24468Y-29208D01*
X26746Y-29208D02*
X26886Y-29208D01*
X27917Y-29208D02*
X28059Y-29208D01*
X30337Y-29208D02*
X30362Y-29208D01*
X30362Y-29208D02*
X31141Y-29208D01*
X32639Y-29208D02*
X38675Y-29208D01*
X38675Y-29208D02*
X38966Y-29208D01*
X20010Y-29288D02*
X22125Y-29288D01*
X23623Y-29288D02*
X24500Y-29288D01*
X26666Y-29288D02*
X26806Y-29288D01*
X27997Y-29288D02*
X28139Y-29288D01*
X30330Y-29288D02*
X30362Y-29288D01*
X30362Y-29288D02*
X31141Y-29288D01*
X32639Y-29288D02*
X38675Y-29288D01*
X38675Y-29288D02*
X38966Y-29288D01*
X20010Y-29368D02*
X22125Y-29368D01*
X23623Y-29368D02*
X24531Y-29368D01*
X26586Y-29368D02*
X26726Y-29368D01*
X28077Y-29368D02*
X28219Y-29368D01*
X30295Y-29368D02*
X30362Y-29368D01*
X30362Y-29368D02*
X31141Y-29368D01*
X32639Y-29368D02*
X38675Y-29368D01*
X38675Y-29368D02*
X38966Y-29368D01*
X20010Y-29448D02*
X22125Y-29448D01*
X23623Y-29448D02*
X24562Y-29448D01*
X26506Y-29448D02*
X26646Y-29448D01*
X28157Y-29448D02*
X28299Y-29448D01*
X30259Y-29448D02*
X30362Y-29448D01*
X30362Y-29448D02*
X31141Y-29448D01*
X32639Y-29448D02*
X38675Y-29448D01*
X38675Y-29448D02*
X38966Y-29448D01*
X20010Y-29528D02*
X22125Y-29528D01*
X23623Y-29528D02*
X24593Y-29528D01*
X26426Y-29528D02*
X26566Y-29528D01*
X28237Y-29528D02*
X28379Y-29528D01*
X30224Y-29528D02*
X30362Y-29528D01*
X30362Y-29528D02*
X31141Y-29528D01*
X32639Y-29528D02*
X38675Y-29528D01*
X38675Y-29528D02*
X38966Y-29528D01*
X20010Y-29608D02*
X22125Y-29608D01*
X23623Y-29608D02*
X24624Y-29608D01*
X26346Y-29608D02*
X26486Y-29608D01*
X28317Y-29608D02*
X28459Y-29608D01*
X30189Y-29608D02*
X30362Y-29608D01*
X30362Y-29608D02*
X31141Y-29608D01*
X32639Y-29608D02*
X38675Y-29608D01*
X38675Y-29608D02*
X38966Y-29608D01*
X20010Y-29688D02*
X22131Y-29688D01*
X23618Y-29688D02*
X24655Y-29688D01*
X26266Y-29688D02*
X26406Y-29688D01*
X28397Y-29688D02*
X28539Y-29688D01*
X30153Y-29688D02*
X30362Y-29688D01*
X30362Y-29688D02*
X31147Y-29688D01*
X32634Y-29688D02*
X32639Y-29688D01*
X32639Y-29688D02*
X38675Y-29688D01*
X38675Y-29688D02*
X38966Y-29688D01*
X20010Y-29768D02*
X22164Y-29768D01*
X23584Y-29768D02*
X24686Y-29768D01*
X26186Y-29768D02*
X26326Y-29768D01*
X28477Y-29768D02*
X28619Y-29768D01*
X30118Y-29768D02*
X30362Y-29768D01*
X30362Y-29768D02*
X31180Y-29768D01*
X32600Y-29768D02*
X32639Y-29768D01*
X32639Y-29768D02*
X38675Y-29768D01*
X38675Y-29768D02*
X38966Y-29768D01*
X20010Y-29848D02*
X22260Y-29848D01*
X23489Y-29848D02*
X24717Y-29848D01*
X26106Y-29848D02*
X26246Y-29848D01*
X28557Y-29848D02*
X28699Y-29848D01*
X30083Y-29848D02*
X30362Y-29848D01*
X30362Y-29848D02*
X31276Y-29848D01*
X32505Y-29848D02*
X32639Y-29848D01*
X32639Y-29848D02*
X38675Y-29848D01*
X38675Y-29848D02*
X38966Y-29848D01*
X20010Y-29928D02*
X24748Y-29928D01*
X26026Y-29928D02*
X26166Y-29928D01*
X28637Y-29928D02*
X28779Y-29928D01*
X30048Y-29928D02*
X30362Y-29928D01*
X30362Y-29928D02*
X32639Y-29928D01*
X32639Y-29928D02*
X38675Y-29928D01*
X38675Y-29928D02*
X38966Y-29928D01*
X20010Y-30008D02*
X24779Y-30008D01*
X25946Y-30008D02*
X26086Y-30008D01*
X28717Y-30008D02*
X28859Y-30008D01*
X30012Y-30008D02*
X30362Y-30008D01*
X30362Y-30008D02*
X32639Y-30008D01*
X32639Y-30008D02*
X38675Y-30008D01*
X38675Y-30008D02*
X38966Y-30008D01*
X20010Y-30088D02*
X24810Y-30088D01*
X25866Y-30088D02*
X26006Y-30088D01*
X28797Y-30088D02*
X28939Y-30088D01*
X29977Y-30088D02*
X30362Y-30088D01*
X30362Y-30088D02*
X32639Y-30088D01*
X32639Y-30088D02*
X38675Y-30088D01*
X38675Y-30088D02*
X38966Y-30088D01*
X20010Y-30168D02*
X24841Y-30168D01*
X25786Y-30168D02*
X25926Y-30168D01*
X28877Y-30168D02*
X29019Y-30168D01*
X29942Y-30168D02*
X30362Y-30168D01*
X30362Y-30168D02*
X32639Y-30168D01*
X32639Y-30168D02*
X38675Y-30168D01*
X38675Y-30168D02*
X38966Y-30168D01*
X20010Y-30248D02*
X24876Y-30248D01*
X25706Y-30248D02*
X25846Y-30248D01*
X28957Y-30248D02*
X29099Y-30248D01*
X29907Y-30248D02*
X30362Y-30248D01*
X30362Y-30248D02*
X32639Y-30248D01*
X32639Y-30248D02*
X38675Y-30248D01*
X38675Y-30248D02*
X38966Y-30248D01*
X20010Y-30328D02*
X24929Y-30328D01*
X25626Y-30328D02*
X25766Y-30328D01*
X29037Y-30328D02*
X29179Y-30328D01*
X29871Y-30328D02*
X30362Y-30328D01*
X30362Y-30328D02*
X32639Y-30328D01*
X32639Y-30328D02*
X38675Y-30328D01*
X38675Y-30328D02*
X38966Y-30328D01*
X20010Y-30408D02*
X25007Y-30408D01*
X25546Y-30408D02*
X25686Y-30408D01*
X29117Y-30408D02*
X29259Y-30408D01*
X29798Y-30408D02*
X30362Y-30408D01*
X30362Y-30408D02*
X32639Y-30408D01*
X32639Y-30408D02*
X37827Y-30408D01*
X38237Y-30408D02*
X38675Y-30408D01*
X38675Y-30408D02*
X38966Y-30408D01*
X20010Y-30488D02*
X25093Y-30488D01*
X25466Y-30488D02*
X25606Y-30488D01*
X29197Y-30488D02*
X29339Y-30488D01*
X29712Y-30488D02*
X30362Y-30488D01*
X30362Y-30488D02*
X32639Y-30488D01*
X32639Y-30488D02*
X37654Y-30488D01*
X38409Y-30488D02*
X38675Y-30488D01*
X38675Y-30488D02*
X38966Y-30488D01*
X20010Y-30568D02*
X25179Y-30568D01*
X25386Y-30568D02*
X25526Y-30568D01*
X29277Y-30568D02*
X29419Y-30568D01*
X29626Y-30568D02*
X30362Y-30568D01*
X30362Y-30568D02*
X32639Y-30568D01*
X32639Y-30568D02*
X37574Y-30568D01*
X38489Y-30568D02*
X38675Y-30568D01*
X38675Y-30568D02*
X38966Y-30568D01*
X20010Y-30648D02*
X25265Y-30648D01*
X25306Y-30648D02*
X25446Y-30648D01*
X29357Y-30648D02*
X29499Y-30648D01*
X29540Y-30648D02*
X30362Y-30648D01*
X30362Y-30648D02*
X32639Y-30648D01*
X32639Y-30648D02*
X37494Y-30648D01*
X38569Y-30648D02*
X38675Y-30648D01*
X38675Y-30648D02*
X38966Y-30648D01*
X20010Y-30728D02*
X25366Y-30728D01*
X29437Y-30728D02*
X30362Y-30728D01*
X30362Y-30728D02*
X32639Y-30728D01*
X32639Y-30728D02*
X37456Y-30728D01*
X38606Y-30728D02*
X38675Y-30728D01*
X38675Y-30728D02*
X38966Y-30728D01*
X20010Y-30808D02*
X25422Y-30808D01*
X29383Y-30808D02*
X29448Y-30808D01*
X29448Y-30808D02*
X30362Y-30808D01*
X30362Y-30808D02*
X32639Y-30808D01*
X32639Y-30808D02*
X37423Y-30808D01*
X38640Y-30808D02*
X38675Y-30808D01*
X38675Y-30808D02*
X38966Y-30808D01*
X20010Y-30888D02*
X25496Y-30888D01*
X29309Y-30888D02*
X29448Y-30888D01*
X29448Y-30888D02*
X30362Y-30888D01*
X30362Y-30888D02*
X32639Y-30888D01*
X32639Y-30888D02*
X37389Y-30888D01*
X38673Y-30888D02*
X38675Y-30888D01*
X38675Y-30888D02*
X38966Y-30888D01*
X20010Y-30968D02*
X25570Y-30968D01*
X29235Y-30968D02*
X29448Y-30968D01*
X29448Y-30968D02*
X30362Y-30968D01*
X30362Y-30968D02*
X32639Y-30968D01*
X32639Y-30968D02*
X37389Y-30968D01*
X38675Y-30968D02*
X38966Y-30968D01*
X20010Y-31048D02*
X25645Y-31048D01*
X29160Y-31048D02*
X29448Y-31048D01*
X29448Y-31048D02*
X30362Y-31048D01*
X30362Y-31048D02*
X32639Y-31048D01*
X32639Y-31048D02*
X37389Y-31048D01*
X38675Y-31048D02*
X38966Y-31048D01*
X20010Y-31128D02*
X25781Y-31128D01*
X29059Y-31128D02*
X29448Y-31128D01*
X29448Y-31128D02*
X30362Y-31128D01*
X30362Y-31128D02*
X32639Y-31128D01*
X32639Y-31128D02*
X37389Y-31128D01*
X38675Y-31128D02*
X38966Y-31128D01*
X20010Y-31208D02*
X25962Y-31208D01*
X28886Y-31208D02*
X29448Y-31208D01*
X29448Y-31208D02*
X30362Y-31208D01*
X30362Y-31208D02*
X32639Y-31208D01*
X32639Y-31208D02*
X37415Y-31208D01*
X38650Y-31208D02*
X38675Y-31208D01*
X38675Y-31208D02*
X38966Y-31208D01*
X20010Y-31288D02*
X26144Y-31288D01*
X28679Y-31288D02*
X29448Y-31288D01*
X29448Y-31288D02*
X30362Y-31288D01*
X30362Y-31288D02*
X32639Y-31288D01*
X32639Y-31288D02*
X37448Y-31288D01*
X38617Y-31288D02*
X38675Y-31288D01*
X38675Y-31288D02*
X38966Y-31288D01*
X20010Y-31368D02*
X26325Y-31368D01*
X28473Y-31368D02*
X29448Y-31368D01*
X29448Y-31368D02*
X30362Y-31368D01*
X30362Y-31368D02*
X32639Y-31368D01*
X32639Y-31368D02*
X37482Y-31368D01*
X38583Y-31368D02*
X38675Y-31368D01*
X38675Y-31368D02*
X38966Y-31368D01*
X20010Y-31448D02*
X26507Y-31448D01*
X28267Y-31448D02*
X29448Y-31448D01*
X29448Y-31448D02*
X30362Y-31448D01*
X30362Y-31448D02*
X32639Y-31448D01*
X32639Y-31448D02*
X37553Y-31448D01*
X38512Y-31448D02*
X38675Y-31448D01*
X38675Y-31448D02*
X38966Y-31448D01*
X20010Y-31528D02*
X26688Y-31528D01*
X28061Y-31528D02*
X29448Y-31528D01*
X29448Y-31528D02*
X30362Y-31528D01*
X30362Y-31528D02*
X32639Y-31528D01*
X32639Y-31528D02*
X37633Y-31528D01*
X38432Y-31528D02*
X38675Y-31528D01*
X38675Y-31528D02*
X38966Y-31528D01*
X20010Y-31608D02*
X29448Y-31608D01*
X29448Y-31608D02*
X30362Y-31608D01*
X30362Y-31608D02*
X32639Y-31608D01*
X32639Y-31608D02*
X37775Y-31608D01*
X38290Y-31608D02*
X38675Y-31608D01*
X38675Y-31608D02*
X38966Y-31608D01*
X20010Y-31688D02*
X29448Y-31688D01*
X29448Y-31688D02*
X30362Y-31688D01*
X30362Y-31688D02*
X32639Y-31688D01*
X32639Y-31688D02*
X38675Y-31688D01*
X38675Y-31688D02*
X38966Y-31688D01*
X20010Y-31768D02*
X29448Y-31768D01*
X29448Y-31768D02*
X30362Y-31768D01*
X30362Y-31768D02*
X32639Y-31768D01*
X32639Y-31768D02*
X38675Y-31768D01*
X38675Y-31768D02*
X38966Y-31768D01*
X20010Y-31848D02*
X29448Y-31848D01*
X29448Y-31848D02*
X30362Y-31848D01*
X30362Y-31848D02*
X32639Y-31848D01*
X32639Y-31848D02*
X38675Y-31848D01*
X38675Y-31848D02*
X38966Y-31848D01*
X20010Y-31928D02*
X29448Y-31928D01*
X29448Y-31928D02*
X30362Y-31928D01*
X30362Y-31928D02*
X32639Y-31928D01*
X32639Y-31928D02*
X38675Y-31928D01*
X38675Y-31928D02*
X38966Y-31928D01*
X20010Y-32008D02*
X29448Y-32008D01*
X29448Y-32008D02*
X30362Y-32008D01*
X30362Y-32008D02*
X32639Y-32008D01*
X32639Y-32008D02*
X38675Y-32008D01*
X38675Y-32008D02*
X38966Y-32008D01*
X24749Y-22840D02*
X23240Y-24349D01*
X23177Y-24443D01*
X23155Y-24554D01*
X23155Y-25047D01*
X23026Y-25047D01*
X22870Y-25111D01*
X22750Y-25231D01*
X22685Y-25387D01*
X22685Y-25556D01*
X22749Y-25712D01*
X22820Y-25783D01*
X22820Y-25864D01*
X22313Y-26371D01*
X21896Y-26371D01*
X21891Y-26358D01*
X21799Y-26267D01*
X21890Y-26177D01*
X21972Y-25981D01*
X21972Y-25768D01*
X21891Y-25571D01*
X21799Y-25480D01*
X21890Y-25390D01*
X21972Y-25194D01*
X21972Y-24981D01*
X21891Y-24784D01*
X21799Y-24693D01*
X21890Y-24603D01*
X21972Y-24407D01*
X21972Y-24194D01*
X21891Y-23997D01*
X21799Y-23906D01*
X21890Y-23815D01*
X21895Y-23802D01*
X22169Y-23802D01*
X22280Y-23780D01*
X22374Y-23717D01*
X24222Y-21869D01*
X24695Y-21869D01*
X24679Y-21885D01*
X24614Y-22041D01*
X24614Y-22210D01*
X24678Y-22366D01*
X24749Y-22437D01*
X24749Y-22840D01*
X24222Y-21869D02*
X24695Y-21869D01*
X24142Y-21949D02*
X24652Y-21949D01*
X24062Y-22029D02*
X24619Y-22029D01*
X23982Y-22109D02*
X24614Y-22109D01*
X23902Y-22189D02*
X24614Y-22189D01*
X23822Y-22269D02*
X24639Y-22269D01*
X23742Y-22349D02*
X24672Y-22349D01*
X23662Y-22429D02*
X24741Y-22429D01*
X23582Y-22509D02*
X24749Y-22509D01*
X23502Y-22589D02*
X24749Y-22589D01*
X23422Y-22669D02*
X24749Y-22669D01*
X23342Y-22749D02*
X24749Y-22749D01*
X23262Y-22829D02*
X24749Y-22829D01*
X23182Y-22909D02*
X24680Y-22909D01*
X23102Y-22989D02*
X24600Y-22989D01*
X23022Y-23069D02*
X24520Y-23069D01*
X22942Y-23149D02*
X24440Y-23149D01*
X22862Y-23229D02*
X24360Y-23229D01*
X22782Y-23309D02*
X24280Y-23309D01*
X22702Y-23389D02*
X24200Y-23389D01*
X22622Y-23469D02*
X24120Y-23469D01*
X22542Y-23549D02*
X24040Y-23549D01*
X22462Y-23629D02*
X23960Y-23629D01*
X22382Y-23709D02*
X23880Y-23709D01*
X22235Y-23789D02*
X23800Y-23789D01*
X21836Y-23869D02*
X23720Y-23869D01*
X21842Y-23949D02*
X23640Y-23949D01*
X21904Y-24029D02*
X23560Y-24029D01*
X21937Y-24109D02*
X23480Y-24109D01*
X21969Y-24189D02*
X23400Y-24189D01*
X21972Y-24269D02*
X23320Y-24269D01*
X21972Y-24349D02*
X23240Y-24349D01*
X21963Y-24429D02*
X23186Y-24429D01*
X21930Y-24509D02*
X23163Y-24509D01*
X21896Y-24589D02*
X23155Y-24589D01*
X21824Y-24669D02*
X23155Y-24669D01*
X21855Y-24749D02*
X23155Y-24749D01*
X21909Y-24829D02*
X23155Y-24829D01*
X21942Y-24909D02*
X23155Y-24909D01*
X21972Y-24989D02*
X23155Y-24989D01*
X21972Y-25069D02*
X22972Y-25069D01*
X21972Y-25149D02*
X22832Y-25149D01*
X21958Y-25229D02*
X22752Y-25229D01*
X21924Y-25309D02*
X22717Y-25309D01*
X21891Y-25389D02*
X22685Y-25389D01*
X21811Y-25469D02*
X22685Y-25469D01*
X21868Y-25549D02*
X22685Y-25549D01*
X21914Y-25629D02*
X22715Y-25629D01*
X21947Y-25709D02*
X22748Y-25709D01*
X21972Y-25789D02*
X22820Y-25789D01*
X21972Y-25869D02*
X22815Y-25869D01*
X21972Y-25949D02*
X22735Y-25949D01*
X21952Y-26029D02*
X22655Y-26029D01*
X21919Y-26109D02*
X22575Y-26109D01*
X21878Y-26189D02*
X22495Y-26189D01*
X21801Y-26269D02*
X22415Y-26269D01*
X21881Y-26349D02*
X22335Y-26349D01*
X20010Y-20088D02*
X38966Y-20088D01*
X20010Y-20168D02*
X38966Y-20168D01*
X20010Y-20248D02*
X26071Y-20248D01*
X26448Y-20248D02*
X38966Y-20248D01*
X20010Y-20328D02*
X25961Y-20328D01*
X26559Y-20328D02*
X38966Y-20328D01*
X20010Y-20408D02*
X25892Y-20408D01*
X26628Y-20408D02*
X38966Y-20408D01*
X20010Y-20488D02*
X25858Y-20488D01*
X29492Y-20488D02*
X38966Y-20488D01*
X20010Y-20568D02*
X25835Y-20568D01*
X29600Y-20568D02*
X38966Y-20568D01*
X20010Y-20648D02*
X20391Y-20648D01*
X21057Y-20648D02*
X21195Y-20648D01*
X21861Y-20648D02*
X25835Y-20648D01*
X29680Y-20648D02*
X38966Y-20648D01*
X20010Y-20728D02*
X20319Y-20728D01*
X21076Y-20728D02*
X21176Y-20728D01*
X21932Y-20728D02*
X25841Y-20728D01*
X29875Y-20728D02*
X38966Y-20728D01*
X20010Y-20808D02*
X20286Y-20808D01*
X21076Y-20808D02*
X21176Y-20808D01*
X21965Y-20808D02*
X25874Y-20808D01*
X30031Y-20808D02*
X38966Y-20808D01*
X20010Y-20888D02*
X20286Y-20888D01*
X21076Y-20888D02*
X21176Y-20888D01*
X21965Y-20888D02*
X25917Y-20888D01*
X30111Y-20888D02*
X37808Y-20888D01*
X38256Y-20888D02*
X38966Y-20888D01*
X20010Y-20968D02*
X20286Y-20968D01*
X21076Y-20968D02*
X21176Y-20968D01*
X21965Y-20968D02*
X25997Y-20968D01*
X30152Y-20968D02*
X37646Y-20968D01*
X38417Y-20968D02*
X38966Y-20968D01*
X20010Y-21048D02*
X20296Y-21048D01*
X21076Y-21048D02*
X21176Y-21048D01*
X21956Y-21048D02*
X21966Y-21048D01*
X21966Y-21048D02*
X26159Y-21048D01*
X26361Y-21048D02*
X29260Y-21048D01*
X30184Y-21048D02*
X37566Y-21048D01*
X38497Y-21048D02*
X38966Y-21048D01*
X20010Y-21128D02*
X21076Y-21128D01*
X21076Y-21128D02*
X21966Y-21128D01*
X21966Y-21128D02*
X29339Y-21128D01*
X30189Y-21128D02*
X37487Y-21128D01*
X38577Y-21128D02*
X38966Y-21128D01*
X20010Y-21208D02*
X20340Y-21208D01*
X21912Y-21208D02*
X21966Y-21208D01*
X21966Y-21208D02*
X29339Y-21208D01*
X30189Y-21208D02*
X37453Y-21208D01*
X38610Y-21208D02*
X38966Y-21208D01*
X20010Y-21288D02*
X20287Y-21288D01*
X21966Y-21288D02*
X29365Y-21288D01*
X30164Y-21288D02*
X30189Y-21288D01*
X30189Y-21288D02*
X37420Y-21288D01*
X38643Y-21288D02*
X38966Y-21288D01*
X20010Y-21368D02*
X20287Y-21368D01*
X21966Y-21368D02*
X23905Y-21368D01*
X25795Y-21368D02*
X29398Y-21368D01*
X30131Y-21368D02*
X30189Y-21368D01*
X30189Y-21368D02*
X37389Y-21368D01*
X38675Y-21368D02*
X38966Y-21368D01*
X20010Y-21448D02*
X20287Y-21448D01*
X21966Y-21448D02*
X23822Y-21448D01*
X25878Y-21448D02*
X29469Y-21448D01*
X30059Y-21448D02*
X30189Y-21448D01*
X30189Y-21448D02*
X37389Y-21448D01*
X38675Y-21448D02*
X38966Y-21448D01*
X20010Y-21528D02*
X20302Y-21528D01*
X21951Y-21528D02*
X23742Y-21528D01*
X25958Y-21528D02*
X29586Y-21528D01*
X29944Y-21528D02*
X30189Y-21528D01*
X30189Y-21528D02*
X37389Y-21528D01*
X38675Y-21528D02*
X38966Y-21528D01*
X20010Y-21608D02*
X20347Y-21608D01*
X21905Y-21608D02*
X23662Y-21608D01*
X26038Y-21608D02*
X30189Y-21608D01*
X30189Y-21608D02*
X37389Y-21608D01*
X38675Y-21608D02*
X38966Y-21608D01*
X20010Y-21688D02*
X20339Y-21688D01*
X21912Y-21688D02*
X23582Y-21688D01*
X26118Y-21688D02*
X30189Y-21688D01*
X30189Y-21688D02*
X37419Y-21688D01*
X38647Y-21688D02*
X38675Y-21688D01*
X38675Y-21688D02*
X38966Y-21688D01*
X20010Y-21768D02*
X20306Y-21768D01*
X21945Y-21768D02*
X23502Y-21768D01*
X26198Y-21768D02*
X30189Y-21768D01*
X30189Y-21768D02*
X37452Y-21768D01*
X38613Y-21768D02*
X38675Y-21768D01*
X38675Y-21768D02*
X38966Y-21768D01*
X20010Y-21848D02*
X20280Y-21848D01*
X21972Y-21848D02*
X23422Y-21848D01*
X26278Y-21848D02*
X30189Y-21848D01*
X30189Y-21848D02*
X37485Y-21848D01*
X38580Y-21848D02*
X38675Y-21848D01*
X38675Y-21848D02*
X38966Y-21848D01*
X20010Y-21928D02*
X20280Y-21928D01*
X21972Y-21928D02*
X23342Y-21928D01*
X25417Y-21928D02*
X25538Y-21928D01*
X26346Y-21928D02*
X30189Y-21928D01*
X30189Y-21928D02*
X37561Y-21928D01*
X38504Y-21928D02*
X38675Y-21928D01*
X38675Y-21928D02*
X38966Y-21928D01*
X20010Y-22008D02*
X20280Y-22008D01*
X21972Y-22008D02*
X23262Y-22008D01*
X25450Y-22008D02*
X25618Y-22008D01*
X26390Y-22008D02*
X30189Y-22008D01*
X30189Y-22008D02*
X37641Y-22008D01*
X38424Y-22008D02*
X38675Y-22008D01*
X38675Y-22008D02*
X38966Y-22008D01*
X20010Y-22088D02*
X20299Y-22088D01*
X21955Y-22088D02*
X23182Y-22088D01*
X25464Y-22088D02*
X25698Y-22088D01*
X26405Y-22088D02*
X30189Y-22088D01*
X30189Y-22088D02*
X37794Y-22088D01*
X38270Y-22088D02*
X38675Y-22088D01*
X38675Y-22088D02*
X38966Y-22088D01*
X20010Y-22168D02*
X20331Y-22168D01*
X21921Y-22168D02*
X23102Y-22168D01*
X25464Y-22168D02*
X25778Y-22168D01*
X26408Y-22168D02*
X30189Y-22168D01*
X30189Y-22168D02*
X38675Y-22168D01*
X38675Y-22168D02*
X38966Y-22168D01*
X20010Y-22248D02*
X20369Y-22248D01*
X21883Y-22248D02*
X23022Y-22248D01*
X25449Y-22248D02*
X25828Y-22248D01*
X26408Y-22248D02*
X30189Y-22248D01*
X30189Y-22248D02*
X38675Y-22248D01*
X38675Y-22248D02*
X38966Y-22248D01*
X20010Y-22328D02*
X20449Y-22328D01*
X21803Y-22328D02*
X22942Y-22328D01*
X25416Y-22328D02*
X25828Y-22328D01*
X26408Y-22328D02*
X30189Y-22328D01*
X30189Y-22328D02*
X38675Y-22328D01*
X38675Y-22328D02*
X38966Y-22328D01*
X20010Y-22408D02*
X20375Y-22408D01*
X21876Y-22408D02*
X22862Y-22408D01*
X25358Y-22408D02*
X25828Y-22408D01*
X26408Y-22408D02*
X30189Y-22408D01*
X30189Y-22408D02*
X38675Y-22408D01*
X38675Y-22408D02*
X38966Y-22408D01*
X20010Y-22488D02*
X20334Y-22488D01*
X21918Y-22488D02*
X22782Y-22488D01*
X25329Y-22488D02*
X25828Y-22488D01*
X26408Y-22488D02*
X30189Y-22488D01*
X30189Y-22488D02*
X38675Y-22488D01*
X38675Y-22488D02*
X38966Y-22488D01*
X20010Y-22568D02*
X20300Y-22568D01*
X21951Y-22568D02*
X22702Y-22568D01*
X25329Y-22568D02*
X25828Y-22568D01*
X26408Y-22568D02*
X30189Y-22568D01*
X30189Y-22568D02*
X38675Y-22568D01*
X38675Y-22568D02*
X38966Y-22568D01*
X20010Y-22648D02*
X20280Y-22648D01*
X21972Y-22648D02*
X22622Y-22648D01*
X25329Y-22648D02*
X25828Y-22648D01*
X26408Y-22648D02*
X30189Y-22648D01*
X30189Y-22648D02*
X38675Y-22648D01*
X38675Y-22648D02*
X38966Y-22648D01*
X20010Y-22728D02*
X20280Y-22728D01*
X21972Y-22728D02*
X22542Y-22728D01*
X25329Y-22728D02*
X25828Y-22728D01*
X26408Y-22728D02*
X30189Y-22728D01*
X30189Y-22728D02*
X38675Y-22728D01*
X38675Y-22728D02*
X38966Y-22728D01*
X20010Y-22808D02*
X20280Y-22808D01*
X21972Y-22808D02*
X22462Y-22808D01*
X25329Y-22808D02*
X25828Y-22808D01*
X26408Y-22808D02*
X30189Y-22808D01*
X30189Y-22808D02*
X38675Y-22808D01*
X38675Y-22808D02*
X38966Y-22808D01*
X20010Y-22888D02*
X20304Y-22888D01*
X21949Y-22888D02*
X22382Y-22888D01*
X25329Y-22888D02*
X25828Y-22888D01*
X26408Y-22888D02*
X30189Y-22888D01*
X30189Y-22888D02*
X38675Y-22888D01*
X38675Y-22888D02*
X38966Y-22888D01*
X20010Y-22968D02*
X20337Y-22968D01*
X21916Y-22968D02*
X22302Y-22968D01*
X25328Y-22968D02*
X25828Y-22968D01*
X26408Y-22968D02*
X30189Y-22968D01*
X30189Y-22968D02*
X38675Y-22968D01*
X38675Y-22968D02*
X38966Y-22968D01*
X20010Y-23048D02*
X20382Y-23048D01*
X21870Y-23048D02*
X22222Y-23048D01*
X25312Y-23048D02*
X25828Y-23048D01*
X26408Y-23048D02*
X30189Y-23048D01*
X30189Y-23048D02*
X38675Y-23048D01*
X38675Y-23048D02*
X38966Y-23048D01*
X20010Y-23128D02*
X20442Y-23128D01*
X21809Y-23128D02*
X22142Y-23128D01*
X25269Y-23128D02*
X25828Y-23128D01*
X26408Y-23128D02*
X30189Y-23128D01*
X30189Y-23128D02*
X38675Y-23128D01*
X38675Y-23128D02*
X38966Y-23128D01*
X20010Y-23208D02*
X20362Y-23208D01*
X21889Y-23208D02*
X22062Y-23208D01*
X25201Y-23208D02*
X25828Y-23208D01*
X26408Y-23208D02*
X30189Y-23208D01*
X30189Y-23208D02*
X38675Y-23208D01*
X38675Y-23208D02*
X38966Y-23208D01*
X20010Y-23288D02*
X20328Y-23288D01*
X25121Y-23288D02*
X25828Y-23288D01*
X26408Y-23288D02*
X30189Y-23288D01*
X30189Y-23288D02*
X38675Y-23288D01*
X38675Y-23288D02*
X38966Y-23288D01*
X20010Y-23368D02*
X20295Y-23368D01*
X25041Y-23368D02*
X25828Y-23368D01*
X26408Y-23368D02*
X30189Y-23368D01*
X30189Y-23368D02*
X38675Y-23368D01*
X38675Y-23368D02*
X38966Y-23368D01*
X20010Y-23448D02*
X20280Y-23448D01*
X24961Y-23448D02*
X25828Y-23448D01*
X26408Y-23448D02*
X30189Y-23448D01*
X30189Y-23448D02*
X38675Y-23448D01*
X38675Y-23448D02*
X38966Y-23448D01*
X20010Y-23528D02*
X20280Y-23528D01*
X24881Y-23528D02*
X25780Y-23528D01*
X26440Y-23528D02*
X30189Y-23528D01*
X30189Y-23528D02*
X38675Y-23528D01*
X38675Y-23528D02*
X38966Y-23528D01*
X20010Y-23608D02*
X20280Y-23608D01*
X24801Y-23608D02*
X25729Y-23608D01*
X26491Y-23608D02*
X30189Y-23608D01*
X30189Y-23608D02*
X38675Y-23608D01*
X38675Y-23608D02*
X38966Y-23608D01*
X20010Y-23688D02*
X20309Y-23688D01*
X24721Y-23688D02*
X25695Y-23688D01*
X26523Y-23688D02*
X30189Y-23688D01*
X30189Y-23688D02*
X38675Y-23688D01*
X38675Y-23688D02*
X38966Y-23688D01*
X20010Y-23768D02*
X20342Y-23768D01*
X24641Y-23768D02*
X25685Y-23768D01*
X26535Y-23768D02*
X30189Y-23768D01*
X30189Y-23768D02*
X38675Y-23768D01*
X38675Y-23768D02*
X38966Y-23768D01*
X20010Y-23848D02*
X20395Y-23848D01*
X24561Y-23848D02*
X25685Y-23848D01*
X26535Y-23848D02*
X30189Y-23848D01*
X30189Y-23848D02*
X38675Y-23848D01*
X38675Y-23848D02*
X38966Y-23848D01*
X20010Y-23928D02*
X20429Y-23928D01*
X24481Y-23928D02*
X25704Y-23928D01*
X26517Y-23928D02*
X26535Y-23928D01*
X26535Y-23928D02*
X30189Y-23928D01*
X30189Y-23928D02*
X38675Y-23928D01*
X38675Y-23928D02*
X38966Y-23928D01*
X20010Y-24008D02*
X20357Y-24008D01*
X24401Y-24008D02*
X25737Y-24008D01*
X26484Y-24008D02*
X26535Y-24008D01*
X26535Y-24008D02*
X30189Y-24008D01*
X30189Y-24008D02*
X38675Y-24008D01*
X38675Y-24008D02*
X38966Y-24008D01*
X20010Y-24088D02*
X20323Y-24088D01*
X24321Y-24088D02*
X25798Y-24088D01*
X26422Y-24088D02*
X26535Y-24088D01*
X26535Y-24088D02*
X30189Y-24088D01*
X30189Y-24088D02*
X38675Y-24088D01*
X38675Y-24088D02*
X38966Y-24088D01*
X20010Y-24168D02*
X20290Y-24168D01*
X24241Y-24168D02*
X25891Y-24168D01*
X26331Y-24168D02*
X26535Y-24168D01*
X26535Y-24168D02*
X30189Y-24168D01*
X30189Y-24168D02*
X38675Y-24168D01*
X38675Y-24168D02*
X38966Y-24168D01*
X20010Y-24248D02*
X20280Y-24248D01*
X24161Y-24248D02*
X26535Y-24248D01*
X26535Y-24248D02*
X30189Y-24248D01*
X30189Y-24248D02*
X38675Y-24248D01*
X38675Y-24248D02*
X38966Y-24248D01*
X20010Y-24328D02*
X20280Y-24328D01*
X24122Y-24328D02*
X26535Y-24328D01*
X26535Y-24328D02*
X30189Y-24328D01*
X30189Y-24328D02*
X38675Y-24328D01*
X38675Y-24328D02*
X38966Y-24328D01*
X20010Y-24408D02*
X20281Y-24408D01*
X24202Y-24408D02*
X26535Y-24408D01*
X26535Y-24408D02*
X30189Y-24408D01*
X30189Y-24408D02*
X38675Y-24408D01*
X38675Y-24408D02*
X38966Y-24408D01*
X20010Y-24488D02*
X20314Y-24488D01*
X24249Y-24488D02*
X26535Y-24488D01*
X26535Y-24488D02*
X30189Y-24488D01*
X30189Y-24488D02*
X38675Y-24488D01*
X38675Y-24488D02*
X38966Y-24488D01*
X20010Y-24568D02*
X20347Y-24568D01*
X24282Y-24568D02*
X26535Y-24568D01*
X26535Y-24568D02*
X30189Y-24568D01*
X30189Y-24568D02*
X38675Y-24568D01*
X38675Y-24568D02*
X38966Y-24568D01*
X20010Y-24648D02*
X20407Y-24648D01*
X24291Y-24648D02*
X26535Y-24648D01*
X26535Y-24648D02*
X30189Y-24648D01*
X30189Y-24648D02*
X38675Y-24648D01*
X38675Y-24648D02*
X38966Y-24648D01*
X20010Y-24728D02*
X20417Y-24728D01*
X24291Y-24728D02*
X26535Y-24728D01*
X26535Y-24728D02*
X30189Y-24728D01*
X30189Y-24728D02*
X38675Y-24728D01*
X38675Y-24728D02*
X38966Y-24728D01*
X20010Y-24808D02*
X20351Y-24808D01*
X24271Y-24808D02*
X26535Y-24808D01*
X26535Y-24808D02*
X30189Y-24808D01*
X30189Y-24808D02*
X38675Y-24808D01*
X38675Y-24808D02*
X38966Y-24808D01*
X20010Y-24888D02*
X20318Y-24888D01*
X24237Y-24888D02*
X26535Y-24888D01*
X26535Y-24888D02*
X30189Y-24888D01*
X30189Y-24888D02*
X38675Y-24888D01*
X38675Y-24888D02*
X38966Y-24888D01*
X20010Y-24968D02*
X20285Y-24968D01*
X24172Y-24968D02*
X26535Y-24968D01*
X26535Y-24968D02*
X30189Y-24968D01*
X30189Y-24968D02*
X38675Y-24968D01*
X38675Y-24968D02*
X38966Y-24968D01*
X20010Y-25048D02*
X20280Y-25048D01*
X24156Y-25048D02*
X26535Y-25048D01*
X26535Y-25048D02*
X30189Y-25048D01*
X30189Y-25048D02*
X38675Y-25048D01*
X38675Y-25048D02*
X38966Y-25048D01*
X20010Y-25128D02*
X20280Y-25128D01*
X24156Y-25128D02*
X26535Y-25128D01*
X26535Y-25128D02*
X30189Y-25128D01*
X30189Y-25128D02*
X38675Y-25128D01*
X38675Y-25128D02*
X38966Y-25128D01*
X20010Y-25208D02*
X20287Y-25208D01*
X24156Y-25208D02*
X26535Y-25208D01*
X26535Y-25208D02*
X30189Y-25208D01*
X30189Y-25208D02*
X38675Y-25208D01*
X38675Y-25208D02*
X38966Y-25208D01*
X20010Y-25288D02*
X20320Y-25288D01*
X24156Y-25288D02*
X26535Y-25288D01*
X26535Y-25288D02*
X30189Y-25288D01*
X30189Y-25288D02*
X38675Y-25288D01*
X38675Y-25288D02*
X38966Y-25288D01*
X20010Y-25368D02*
X20352Y-25368D01*
X24156Y-25368D02*
X26535Y-25368D01*
X26535Y-25368D02*
X30189Y-25368D01*
X30189Y-25368D02*
X38675Y-25368D01*
X38675Y-25368D02*
X38966Y-25368D01*
X20010Y-25448D02*
X20420Y-25448D01*
X24156Y-25448D02*
X26535Y-25448D01*
X26535Y-25448D02*
X30189Y-25448D01*
X30189Y-25448D02*
X38675Y-25448D01*
X38675Y-25448D02*
X38966Y-25448D01*
X20010Y-25528D02*
X20404Y-25528D01*
X24156Y-25528D02*
X26535Y-25528D01*
X26535Y-25528D02*
X30189Y-25528D01*
X30189Y-25528D02*
X38675Y-25528D01*
X38675Y-25528D02*
X38966Y-25528D01*
X20010Y-25608D02*
X20346Y-25608D01*
X24156Y-25608D02*
X26535Y-25608D01*
X26535Y-25608D02*
X30189Y-25608D01*
X30189Y-25608D02*
X38675Y-25608D01*
X38675Y-25608D02*
X38966Y-25608D01*
X20010Y-25688D02*
X20313Y-25688D01*
X24156Y-25688D02*
X26535Y-25688D01*
X26535Y-25688D02*
X26815Y-25688D01*
X28011Y-25688D02*
X30189Y-25688D01*
X30189Y-25688D02*
X38675Y-25688D01*
X38675Y-25688D02*
X38966Y-25688D01*
X20010Y-25768D02*
X20280Y-25768D01*
X24156Y-25768D02*
X26535Y-25768D01*
X26535Y-25768D02*
X26607Y-25768D01*
X28234Y-25768D02*
X30189Y-25768D01*
X30189Y-25768D02*
X38675Y-25768D01*
X38675Y-25768D02*
X38966Y-25768D01*
X20010Y-25848D02*
X20280Y-25848D01*
X24156Y-25848D02*
X26401Y-25848D01*
X28415Y-25848D02*
X30189Y-25848D01*
X30189Y-25848D02*
X38675Y-25848D01*
X38675Y-25848D02*
X38966Y-25848D01*
X20010Y-25928D02*
X20280Y-25928D01*
X24156Y-25928D02*
X26195Y-25928D01*
X28597Y-25928D02*
X30189Y-25928D01*
X30189Y-25928D02*
X38675Y-25928D01*
X38675Y-25928D02*
X38966Y-25928D01*
X20010Y-26008D02*
X20292Y-26008D01*
X24164Y-26008D02*
X25990Y-26008D01*
X28778Y-26008D02*
X30189Y-26008D01*
X30189Y-26008D02*
X38675Y-26008D01*
X38675Y-26008D02*
X38966Y-26008D01*
X20010Y-26088D02*
X20325Y-26088D01*
X24233Y-26088D02*
X25787Y-26088D01*
X28960Y-26088D02*
X30189Y-26088D01*
X30189Y-26088D02*
X38675Y-26088D01*
X38675Y-26088D02*
X38966Y-26088D01*
X20010Y-26168D02*
X20358Y-26168D01*
X24266Y-26168D02*
X25670Y-26168D01*
X29133Y-26168D02*
X30189Y-26168D01*
X30189Y-26168D02*
X38675Y-26168D01*
X38675Y-26168D02*
X38966Y-26168D01*
X20010Y-26248D02*
X20433Y-26248D01*
X24291Y-26248D02*
X25596Y-26248D01*
X29208Y-26248D02*
X30189Y-26248D01*
X30189Y-26248D02*
X38675Y-26248D01*
X38675Y-26248D02*
X38966Y-26248D01*
X20010Y-26328D02*
X20391Y-26328D01*
X24291Y-26328D02*
X25521Y-26328D01*
X29282Y-26328D02*
X30189Y-26328D01*
X30189Y-26328D02*
X38675Y-26328D01*
X38675Y-26328D02*
X38966Y-26328D01*
X20010Y-26408D02*
X20341Y-26408D01*
X23096Y-26408D02*
X23155Y-26408D01*
X24286Y-26408D02*
X25447Y-26408D01*
X29356Y-26408D02*
X30189Y-26408D01*
X30189Y-26408D02*
X38675Y-26408D01*
X38675Y-26408D02*
X38966Y-26408D01*
X20010Y-26488D02*
X20307Y-26488D01*
X23016Y-26488D02*
X23155Y-26488D01*
X24253Y-26488D02*
X25372Y-26488D01*
X29431Y-26488D02*
X30189Y-26488D01*
X30189Y-26488D02*
X38675Y-26488D01*
X38675Y-26488D02*
X38966Y-26488D01*
X20010Y-26568D02*
X20280Y-26568D01*
X22936Y-26568D02*
X23101Y-26568D01*
X24210Y-26568D02*
X25419Y-26568D01*
X29386Y-26568D02*
X29448Y-26568D01*
X29448Y-26568D02*
X30189Y-26568D01*
X30189Y-26568D02*
X38675Y-26568D01*
X38675Y-26568D02*
X38966Y-26568D01*
X20010Y-26648D02*
X20280Y-26648D01*
X22856Y-26648D02*
X23021Y-26648D01*
X24130Y-26648D02*
X25208Y-26648D01*
X25357Y-26648D02*
X25499Y-26648D01*
X29306Y-26648D02*
X29446Y-26648D01*
X29595Y-26648D02*
X30189Y-26648D01*
X30189Y-26648D02*
X38675Y-26648D01*
X38675Y-26648D02*
X38966Y-26648D01*
X20010Y-26728D02*
X20280Y-26728D01*
X22776Y-26728D02*
X22941Y-26728D01*
X23716Y-26728D02*
X23762Y-26728D01*
X23970Y-26728D02*
X25122Y-26728D01*
X25437Y-26728D02*
X25579Y-26728D01*
X29226Y-26728D02*
X29366Y-26728D01*
X29681Y-26728D02*
X30189Y-26728D01*
X30189Y-26728D02*
X38675Y-26728D01*
X38675Y-26728D02*
X38966Y-26728D01*
X20010Y-26808D02*
X20297Y-26808D01*
X22696Y-26808D02*
X22861Y-26808D01*
X23671Y-26808D02*
X25036Y-26808D01*
X25517Y-26808D02*
X25659Y-26808D01*
X29146Y-26808D02*
X29286Y-26808D01*
X29767Y-26808D02*
X30189Y-26808D01*
X30189Y-26808D02*
X38675Y-26808D01*
X38675Y-26808D02*
X38966Y-26808D01*
X20010Y-26888D02*
X20330Y-26888D01*
X22606Y-26888D02*
X22781Y-26888D01*
X23601Y-26888D02*
X24950Y-26888D01*
X25597Y-26888D02*
X25739Y-26888D01*
X29066Y-26888D02*
X29206Y-26888D01*
X29853Y-26888D02*
X30189Y-26888D01*
X30189Y-26888D02*
X38675Y-26888D01*
X38675Y-26888D02*
X38966Y-26888D01*
X20010Y-26968D02*
X20366Y-26968D01*
X21887Y-26968D02*
X22701Y-26968D01*
X23521Y-26968D02*
X24910Y-26968D01*
X25677Y-26968D02*
X25819Y-26968D01*
X28986Y-26968D02*
X29126Y-26968D01*
X29910Y-26968D02*
X30189Y-26968D01*
X30189Y-26968D02*
X38675Y-26968D01*
X38675Y-26968D02*
X38966Y-26968D01*
X20010Y-27048D02*
X20446Y-27048D01*
X21807Y-27048D02*
X22636Y-27048D01*
X23441Y-27048D02*
X24874Y-27048D01*
X25757Y-27048D02*
X25899Y-27048D01*
X28906Y-27048D02*
X29046Y-27048D01*
X29952Y-27048D02*
X30189Y-27048D01*
X30189Y-27048D02*
X38675Y-27048D01*
X38675Y-27048D02*
X38966Y-27048D01*
X20010Y-27128D02*
X20546Y-27128D01*
X21709Y-27128D02*
X22599Y-27128D01*
X23361Y-27128D02*
X24839Y-27128D01*
X25837Y-27128D02*
X25979Y-27128D01*
X28826Y-27128D02*
X28966Y-27128D01*
X29983Y-27128D02*
X30189Y-27128D01*
X30189Y-27128D02*
X38675Y-27128D01*
X38675Y-27128D02*
X38966Y-27128D01*
X20010Y-27208D02*
X22584Y-27208D01*
X23281Y-27208D02*
X24804Y-27208D01*
X25917Y-27208D02*
X26059Y-27208D01*
X28746Y-27208D02*
X28886Y-27208D01*
X30014Y-27208D02*
X30189Y-27208D01*
X30189Y-27208D02*
X38675Y-27208D01*
X38675Y-27208D02*
X38966Y-27208D01*
X20010Y-27288D02*
X22584Y-27288D01*
X23201Y-27288D02*
X24769Y-27288D01*
X25997Y-27288D02*
X26139Y-27288D01*
X28666Y-27288D02*
X28806Y-27288D01*
X30045Y-27288D02*
X30189Y-27288D01*
X30189Y-27288D02*
X38675Y-27288D01*
X38675Y-27288D02*
X38966Y-27288D01*
X20010Y-27368D02*
X22584Y-27368D01*
X23164Y-27368D02*
X24733Y-27368D01*
X26077Y-27368D02*
X26219Y-27368D01*
X28586Y-27368D02*
X28726Y-27368D01*
X30076Y-27368D02*
X30189Y-27368D01*
X30189Y-27368D02*
X38675Y-27368D01*
X38675Y-27368D02*
X38966Y-27368D01*
X20010Y-27448D02*
X22192Y-27448D01*
X23556Y-27448D02*
X24698Y-27448D01*
X26157Y-27448D02*
X26299Y-27448D01*
X28506Y-27448D02*
X28646Y-27448D01*
X30107Y-27448D02*
X30189Y-27448D01*
X30189Y-27448D02*
X31208Y-27448D01*
X32572Y-27448D02*
X38675Y-27448D01*
X38675Y-27448D02*
X38966Y-27448D01*
X20010Y-27528D02*
X22141Y-27528D01*
X23606Y-27528D02*
X24663Y-27528D01*
X26237Y-27528D02*
X26379Y-27528D01*
X28426Y-27528D02*
X28566Y-27528D01*
X30138Y-27528D02*
X30189Y-27528D01*
X30189Y-27528D02*
X31157Y-27528D01*
X32622Y-27528D02*
X38675Y-27528D01*
X38675Y-27528D02*
X38966Y-27528D01*
X20010Y-27608D02*
X22125Y-27608D01*
X23623Y-27608D02*
X24628Y-27608D01*
X26317Y-27608D02*
X26459Y-27608D01*
X28346Y-27608D02*
X28486Y-27608D01*
X30169Y-27608D02*
X30189Y-27608D01*
X30189Y-27608D02*
X31141Y-27608D01*
X32639Y-27608D02*
X38675Y-27608D01*
X38675Y-27608D02*
X38966Y-27608D01*
X20010Y-27688D02*
X22125Y-27688D01*
X23623Y-27688D02*
X24592Y-27688D01*
X26397Y-27688D02*
X26539Y-27688D01*
X28266Y-27688D02*
X28406Y-27688D01*
X30201Y-27688D02*
X31141Y-27688D01*
X32639Y-27688D02*
X38675Y-27688D01*
X38675Y-27688D02*
X38966Y-27688D01*
X20010Y-27768D02*
X22125Y-27768D01*
X23623Y-27768D02*
X24557Y-27768D01*
X26477Y-27768D02*
X26619Y-27768D01*
X28186Y-27768D02*
X28326Y-27768D01*
X30232Y-27768D02*
X31141Y-27768D01*
X32639Y-27768D02*
X38675Y-27768D01*
X38675Y-27768D02*
X38966Y-27768D01*
X20010Y-27848D02*
X22125Y-27848D01*
X23623Y-27848D02*
X24522Y-27848D01*
X26557Y-27848D02*
X26699Y-27848D01*
X28106Y-27848D02*
X28246Y-27848D01*
X30263Y-27848D02*
X31141Y-27848D01*
X32639Y-27848D02*
X38675Y-27848D01*
X38675Y-27848D02*
X38966Y-27848D01*
X20010Y-27928D02*
X22125Y-27928D01*
X23623Y-27928D02*
X24487Y-27928D01*
X26637Y-27928D02*
X26779Y-27928D01*
X28026Y-27928D02*
X28166Y-27928D01*
X30294Y-27928D02*
X31141Y-27928D01*
X32639Y-27928D02*
X38675Y-27928D01*
X38675Y-27928D02*
X38966Y-27928D01*
X20010Y-28008D02*
X22125Y-28008D01*
X23623Y-28008D02*
X24468Y-28008D01*
X26717Y-28008D02*
X26859Y-28008D01*
X27946Y-28008D02*
X28086Y-28008D01*
X30325Y-28008D02*
X31141Y-28008D01*
X32639Y-28008D02*
X38675Y-28008D01*
X38675Y-28008D02*
X38966Y-28008D01*
X20010Y-28088D02*
X22125Y-28088D01*
X23623Y-28088D02*
X24466Y-28088D01*
X26797Y-28088D02*
X26939Y-28088D01*
X27866Y-28088D02*
X28006Y-28088D01*
X30356Y-28088D02*
X31141Y-28088D01*
X32639Y-28088D02*
X38675Y-28088D01*
X38675Y-28088D02*
X38966Y-28088D01*
X20010Y-28168D02*
X22125Y-28168D01*
X23623Y-28168D02*
X24464Y-28168D01*
X26877Y-28168D02*
X27019Y-28168D01*
X27786Y-28168D02*
X27926Y-28168D01*
X30361Y-28168D02*
X30362Y-28168D01*
X30362Y-28168D02*
X31141Y-28168D01*
X32639Y-28168D02*
X38675Y-28168D01*
X38675Y-28168D02*
X38966Y-28168D01*
X20010Y-28248D02*
X22125Y-28248D01*
X23623Y-28248D02*
X24462Y-28248D01*
X26957Y-28248D02*
X27099Y-28248D01*
X27706Y-28248D02*
X27846Y-28248D01*
X30359Y-28248D02*
X30362Y-28248D01*
X30362Y-28248D02*
X31141Y-28248D01*
X32639Y-28248D02*
X38675Y-28248D01*
X38675Y-28248D02*
X38966Y-28248D01*
X20010Y-28328D02*
X22125Y-28328D01*
X23623Y-28328D02*
X24460Y-28328D01*
X27037Y-28328D02*
X27179Y-28328D01*
X27626Y-28328D02*
X27766Y-28328D01*
X30357Y-28328D02*
X30362Y-28328D01*
X30362Y-28328D02*
X31141Y-28328D01*
X32639Y-28328D02*
X38675Y-28328D01*
X38675Y-28328D02*
X38966Y-28328D01*
X20010Y-28408D02*
X22125Y-28408D01*
X23623Y-28408D02*
X24458Y-28408D01*
X27117Y-28408D02*
X27259Y-28408D01*
X27546Y-28408D02*
X27686Y-28408D01*
X30355Y-28408D02*
X30362Y-28408D01*
X30362Y-28408D02*
X31141Y-28408D01*
X32639Y-28408D02*
X38675Y-28408D01*
X38675Y-28408D02*
X38966Y-28408D01*
X20010Y-28488D02*
X22125Y-28488D01*
X23623Y-28488D02*
X24457Y-28488D01*
X27197Y-28488D02*
X27339Y-28488D01*
X27466Y-28488D02*
X27606Y-28488D01*
X30354Y-28488D02*
X30362Y-28488D01*
X30362Y-28488D02*
X31141Y-28488D01*
X32639Y-28488D02*
X38675Y-28488D01*
X38675Y-28488D02*
X38966Y-28488D01*
X20010Y-28568D02*
X22125Y-28568D01*
X23623Y-28568D02*
X24455Y-28568D01*
X27277Y-28568D02*
X27526Y-28568D01*
X30352Y-28568D02*
X30362Y-28568D01*
X30362Y-28568D02*
X31141Y-28568D01*
X32639Y-28568D02*
X38675Y-28568D01*
X38675Y-28568D02*
X38966Y-28568D01*
X20010Y-28648D02*
X22125Y-28648D01*
X23623Y-28648D02*
X24453Y-28648D01*
X27306Y-28648D02*
X27331Y-28648D01*
X27331Y-28648D02*
X27499Y-28648D01*
X30350Y-28648D02*
X30362Y-28648D01*
X30362Y-28648D02*
X31141Y-28648D01*
X32639Y-28648D02*
X38675Y-28648D01*
X38675Y-28648D02*
X38966Y-28648D01*
X20010Y-28728D02*
X22125Y-28728D01*
X23623Y-28728D02*
X24451Y-28728D01*
X27226Y-28728D02*
X27331Y-28728D01*
X27331Y-28728D02*
X27366Y-28728D01*
X27437Y-28728D02*
X27579Y-28728D01*
X30348Y-28728D02*
X30362Y-28728D01*
X30362Y-28728D02*
X31141Y-28728D01*
X32639Y-28728D02*
X38675Y-28728D01*
X38675Y-28728D02*
X38966Y-28728D01*
X20010Y-28808D02*
X22125Y-28808D01*
X23623Y-28808D02*
X24449Y-28808D01*
X27146Y-28808D02*
X27286Y-28808D01*
X27517Y-28808D02*
X27659Y-28808D01*
X30346Y-28808D02*
X30362Y-28808D01*
X30362Y-28808D02*
X31141Y-28808D01*
X32639Y-28808D02*
X38675Y-28808D01*
X38675Y-28808D02*
X38966Y-28808D01*
X20010Y-28888D02*
X22125Y-28888D01*
X23623Y-28888D02*
X24447Y-28888D01*
X27066Y-28888D02*
X27206Y-28888D01*
X27597Y-28888D02*
X27739Y-28888D01*
X30344Y-28888D02*
X30362Y-28888D01*
X30362Y-28888D02*
X31141Y-28888D01*
X32639Y-28888D02*
X38675Y-28888D01*
X38675Y-28888D02*
X38966Y-28888D01*
X20010Y-28968D02*
X22125Y-28968D01*
X23623Y-28968D02*
X24445Y-28968D01*
X26986Y-28968D02*
X27126Y-28968D01*
X27677Y-28968D02*
X27819Y-28968D01*
X30343Y-28968D02*
X30362Y-28968D01*
X30362Y-28968D02*
X31141Y-28968D01*
X32639Y-28968D02*
X38675Y-28968D01*
X38675Y-28968D02*
X38966Y-28968D01*
X20010Y-29048D02*
X22125Y-29048D01*
X23623Y-29048D02*
X24444Y-29048D01*
X26906Y-29048D02*
X27046Y-29048D01*
X27757Y-29048D02*
X27899Y-29048D01*
X30341Y-29048D02*
X30362Y-29048D01*
X30362Y-29048D02*
X31141Y-29048D01*
X32639Y-29048D02*
X38675Y-29048D01*
X38675Y-29048D02*
X38966Y-29048D01*
X20010Y-29128D02*
X22125Y-29128D01*
X23623Y-29128D02*
X24442Y-29128D01*
X26826Y-29128D02*
X26966Y-29128D01*
X27837Y-29128D02*
X27979Y-29128D01*
X30339Y-29128D02*
X30362Y-29128D01*
X30362Y-29128D02*
X31141Y-29128D01*
X32639Y-29128D02*
X38675Y-29128D01*
X38675Y-29128D02*
X38966Y-29128D01*
X20010Y-29208D02*
X22125Y-29208D01*
X23623Y-29208D02*
X24468Y-29208D01*
X26746Y-29208D02*
X26886Y-29208D01*
X27917Y-29208D02*
X28059Y-29208D01*
X30337Y-29208D02*
X30362Y-29208D01*
X30362Y-29208D02*
X31141Y-29208D01*
X32639Y-29208D02*
X38675Y-29208D01*
X38675Y-29208D02*
X38966Y-29208D01*
X20010Y-29288D02*
X22125Y-29288D01*
X23623Y-29288D02*
X24500Y-29288D01*
X26666Y-29288D02*
X26806Y-29288D01*
X27997Y-29288D02*
X28139Y-29288D01*
X30330Y-29288D02*
X30362Y-29288D01*
X30362Y-29288D02*
X31141Y-29288D01*
X32639Y-29288D02*
X38675Y-29288D01*
X38675Y-29288D02*
X38966Y-29288D01*
X20010Y-29368D02*
X22125Y-29368D01*
X23623Y-29368D02*
X24531Y-29368D01*
X26586Y-29368D02*
X26726Y-29368D01*
X28077Y-29368D02*
X28219Y-29368D01*
X30295Y-29368D02*
X30362Y-29368D01*
X30362Y-29368D02*
X31141Y-29368D01*
X32639Y-29368D02*
X38675Y-29368D01*
X38675Y-29368D02*
X38966Y-29368D01*
X20010Y-29448D02*
X22125Y-29448D01*
X23623Y-29448D02*
X24562Y-29448D01*
X26506Y-29448D02*
X26646Y-29448D01*
X28157Y-29448D02*
X28299Y-29448D01*
X30259Y-29448D02*
X30362Y-29448D01*
X30362Y-29448D02*
X31141Y-29448D01*
X32639Y-29448D02*
X38675Y-29448D01*
X38675Y-29448D02*
X38966Y-29448D01*
X20010Y-29528D02*
X22125Y-29528D01*
X23623Y-29528D02*
X24593Y-29528D01*
X26426Y-29528D02*
X26566Y-29528D01*
X28237Y-29528D02*
X28379Y-29528D01*
X30224Y-29528D02*
X30362Y-29528D01*
X30362Y-29528D02*
X31141Y-29528D01*
X32639Y-29528D02*
X38675Y-29528D01*
X38675Y-29528D02*
X38966Y-29528D01*
X20010Y-29608D02*
X22125Y-29608D01*
X23623Y-29608D02*
X24624Y-29608D01*
X26346Y-29608D02*
X26486Y-29608D01*
X28317Y-29608D02*
X28459Y-29608D01*
X30189Y-29608D02*
X30362Y-29608D01*
X30362Y-29608D02*
X31141Y-29608D01*
X32639Y-29608D02*
X38675Y-29608D01*
X38675Y-29608D02*
X38966Y-29608D01*
X20010Y-29688D02*
X22131Y-29688D01*
X23618Y-29688D02*
X24655Y-29688D01*
X26266Y-29688D02*
X26406Y-29688D01*
X28397Y-29688D02*
X28539Y-29688D01*
X30153Y-29688D02*
X30362Y-29688D01*
X30362Y-29688D02*
X31147Y-29688D01*
X32634Y-29688D02*
X32639Y-29688D01*
X32639Y-29688D02*
X38675Y-29688D01*
X38675Y-29688D02*
X38966Y-29688D01*
X20010Y-29768D02*
X22164Y-29768D01*
X23584Y-29768D02*
X24686Y-29768D01*
X26186Y-29768D02*
X26326Y-29768D01*
X28477Y-29768D02*
X28619Y-29768D01*
X30118Y-29768D02*
X30362Y-29768D01*
X30362Y-29768D02*
X31180Y-29768D01*
X32600Y-29768D02*
X32639Y-29768D01*
X32639Y-29768D02*
X38675Y-29768D01*
X38675Y-29768D02*
X38966Y-29768D01*
X20010Y-29848D02*
X22260Y-29848D01*
X23489Y-29848D02*
X24717Y-29848D01*
X26106Y-29848D02*
X26246Y-29848D01*
X28557Y-29848D02*
X28699Y-29848D01*
X30083Y-29848D02*
X30362Y-29848D01*
X30362Y-29848D02*
X31276Y-29848D01*
X32505Y-29848D02*
X32639Y-29848D01*
X32639Y-29848D02*
X38675Y-29848D01*
X38675Y-29848D02*
X38966Y-29848D01*
X20010Y-29928D02*
X24748Y-29928D01*
X26026Y-29928D02*
X26166Y-29928D01*
X28637Y-29928D02*
X28779Y-29928D01*
X30048Y-29928D02*
X30362Y-29928D01*
X30362Y-29928D02*
X32639Y-29928D01*
X32639Y-29928D02*
X38675Y-29928D01*
X38675Y-29928D02*
X38966Y-29928D01*
X20010Y-30008D02*
X24779Y-30008D01*
X25946Y-30008D02*
X26086Y-30008D01*
X28717Y-30008D02*
X28859Y-30008D01*
X30012Y-30008D02*
X30362Y-30008D01*
X30362Y-30008D02*
X32639Y-30008D01*
X32639Y-30008D02*
X38675Y-30008D01*
X38675Y-30008D02*
X38966Y-30008D01*
X20010Y-30088D02*
X24810Y-30088D01*
X25866Y-30088D02*
X26006Y-30088D01*
X28797Y-30088D02*
X28939Y-30088D01*
X29977Y-30088D02*
X30362Y-30088D01*
X30362Y-30088D02*
X32639Y-30088D01*
X32639Y-30088D02*
X38675Y-30088D01*
X38675Y-30088D02*
X38966Y-30088D01*
X20010Y-30168D02*
X24841Y-30168D01*
X25786Y-30168D02*
X25926Y-30168D01*
X28877Y-30168D02*
X29019Y-30168D01*
X29942Y-30168D02*
X30362Y-30168D01*
X30362Y-30168D02*
X32639Y-30168D01*
X32639Y-30168D02*
X38675Y-30168D01*
X38675Y-30168D02*
X38966Y-30168D01*
X20010Y-30248D02*
X24876Y-30248D01*
X25706Y-30248D02*
X25846Y-30248D01*
X28957Y-30248D02*
X29099Y-30248D01*
X29907Y-30248D02*
X30362Y-30248D01*
X30362Y-30248D02*
X32639Y-30248D01*
X32639Y-30248D02*
X38675Y-30248D01*
X38675Y-30248D02*
X38966Y-30248D01*
X20010Y-30328D02*
X24929Y-30328D01*
X25626Y-30328D02*
X25766Y-30328D01*
X29037Y-30328D02*
X29179Y-30328D01*
X29871Y-30328D02*
X30362Y-30328D01*
X30362Y-30328D02*
X32639Y-30328D01*
X32639Y-30328D02*
X38675Y-30328D01*
X38675Y-30328D02*
X38966Y-30328D01*
X20010Y-30408D02*
X25007Y-30408D01*
X25546Y-30408D02*
X25686Y-30408D01*
X29117Y-30408D02*
X29259Y-30408D01*
X29798Y-30408D02*
X30362Y-30408D01*
X30362Y-30408D02*
X32639Y-30408D01*
X32639Y-30408D02*
X37827Y-30408D01*
X38237Y-30408D02*
X38675Y-30408D01*
X38675Y-30408D02*
X38966Y-30408D01*
X20010Y-30488D02*
X25093Y-30488D01*
X25466Y-30488D02*
X25606Y-30488D01*
X29197Y-30488D02*
X29339Y-30488D01*
X29712Y-30488D02*
X30362Y-30488D01*
X30362Y-30488D02*
X32639Y-30488D01*
X32639Y-30488D02*
X37654Y-30488D01*
X38409Y-30488D02*
X38675Y-30488D01*
X38675Y-30488D02*
X38966Y-30488D01*
X20010Y-30568D02*
X25179Y-30568D01*
X25386Y-30568D02*
X25526Y-30568D01*
X29277Y-30568D02*
X29419Y-30568D01*
X29626Y-30568D02*
X30362Y-30568D01*
X30362Y-30568D02*
X32639Y-30568D01*
X32639Y-30568D02*
X37574Y-30568D01*
X38489Y-30568D02*
X38675Y-30568D01*
X38675Y-30568D02*
X38966Y-30568D01*
X20010Y-30648D02*
X25265Y-30648D01*
X25306Y-30648D02*
X25446Y-30648D01*
X29357Y-30648D02*
X29499Y-30648D01*
X29540Y-30648D02*
X30362Y-30648D01*
X30362Y-30648D02*
X32639Y-30648D01*
X32639Y-30648D02*
X37494Y-30648D01*
X38569Y-30648D02*
X38675Y-30648D01*
X38675Y-30648D02*
X38966Y-30648D01*
X20010Y-30728D02*
X25366Y-30728D01*
X29437Y-30728D02*
X30362Y-30728D01*
X30362Y-30728D02*
X32639Y-30728D01*
X32639Y-30728D02*
X37456Y-30728D01*
X38606Y-30728D02*
X38675Y-30728D01*
X38675Y-30728D02*
X38966Y-30728D01*
X20010Y-30808D02*
X25422Y-30808D01*
X29383Y-30808D02*
X29448Y-30808D01*
X29448Y-30808D02*
X30362Y-30808D01*
X30362Y-30808D02*
X32639Y-30808D01*
X32639Y-30808D02*
X37423Y-30808D01*
X38640Y-30808D02*
X38675Y-30808D01*
X38675Y-30808D02*
X38966Y-30808D01*
X20010Y-30888D02*
X25496Y-30888D01*
X29309Y-30888D02*
X29448Y-30888D01*
X29448Y-30888D02*
X30362Y-30888D01*
X30362Y-30888D02*
X32639Y-30888D01*
X32639Y-30888D02*
X37389Y-30888D01*
X38673Y-30888D02*
X38675Y-30888D01*
X38675Y-30888D02*
X38966Y-30888D01*
X20010Y-30968D02*
X25570Y-30968D01*
X29235Y-30968D02*
X29448Y-30968D01*
X29448Y-30968D02*
X30362Y-30968D01*
X30362Y-30968D02*
X32639Y-30968D01*
X32639Y-30968D02*
X37389Y-30968D01*
X38675Y-30968D02*
X38966Y-30968D01*
X20010Y-31048D02*
X25645Y-31048D01*
X29160Y-31048D02*
X29448Y-31048D01*
X29448Y-31048D02*
X30362Y-31048D01*
X30362Y-31048D02*
X32639Y-31048D01*
X32639Y-31048D02*
X37389Y-31048D01*
X38675Y-31048D02*
X38966Y-31048D01*
X20010Y-31128D02*
X25781Y-31128D01*
X29059Y-31128D02*
X29448Y-31128D01*
X29448Y-31128D02*
X30362Y-31128D01*
X30362Y-31128D02*
X32639Y-31128D01*
X32639Y-31128D02*
X37389Y-31128D01*
X38675Y-31128D02*
X38966Y-31128D01*
X20010Y-31208D02*
X25962Y-31208D01*
X28886Y-31208D02*
X29448Y-31208D01*
X29448Y-31208D02*
X30362Y-31208D01*
X30362Y-31208D02*
X32639Y-31208D01*
X32639Y-31208D02*
X37415Y-31208D01*
X38650Y-31208D02*
X38675Y-31208D01*
X38675Y-31208D02*
X38966Y-31208D01*
X20010Y-31288D02*
X26144Y-31288D01*
X28679Y-31288D02*
X29448Y-31288D01*
X29448Y-31288D02*
X30362Y-31288D01*
X30362Y-31288D02*
X32639Y-31288D01*
X32639Y-31288D02*
X37448Y-31288D01*
X38617Y-31288D02*
X38675Y-31288D01*
X38675Y-31288D02*
X38966Y-31288D01*
X20010Y-31368D02*
X26325Y-31368D01*
X28473Y-31368D02*
X29448Y-31368D01*
X29448Y-31368D02*
X30362Y-31368D01*
X30362Y-31368D02*
X32639Y-31368D01*
X32639Y-31368D02*
X37482Y-31368D01*
X38583Y-31368D02*
X38675Y-31368D01*
X38675Y-31368D02*
X38966Y-31368D01*
X20010Y-31448D02*
X26507Y-31448D01*
X28267Y-31448D02*
X29448Y-31448D01*
X29448Y-31448D02*
X30362Y-31448D01*
X30362Y-31448D02*
X32639Y-31448D01*
X32639Y-31448D02*
X37553Y-31448D01*
X38512Y-31448D02*
X38675Y-31448D01*
X38675Y-31448D02*
X38966Y-31448D01*
X20010Y-31528D02*
X26688Y-31528D01*
X28061Y-31528D02*
X29448Y-31528D01*
X29448Y-31528D02*
X30362Y-31528D01*
X30362Y-31528D02*
X32639Y-31528D01*
X32639Y-31528D02*
X37633Y-31528D01*
X38432Y-31528D02*
X38675Y-31528D01*
X38675Y-31528D02*
X38966Y-31528D01*
X20010Y-31608D02*
X29448Y-31608D01*
X29448Y-31608D02*
X30362Y-31608D01*
X30362Y-31608D02*
X32639Y-31608D01*
X32639Y-31608D02*
X37775Y-31608D01*
X38290Y-31608D02*
X38675Y-31608D01*
X38675Y-31608D02*
X38966Y-31608D01*
X20010Y-31688D02*
X29448Y-31688D01*
X29448Y-31688D02*
X30362Y-31688D01*
X30362Y-31688D02*
X32639Y-31688D01*
X32639Y-31688D02*
X38675Y-31688D01*
X38675Y-31688D02*
X38966Y-31688D01*
X20010Y-31768D02*
X29448Y-31768D01*
X29448Y-31768D02*
X30362Y-31768D01*
X30362Y-31768D02*
X32639Y-31768D01*
X32639Y-31768D02*
X38675Y-31768D01*
X38675Y-31768D02*
X38966Y-31768D01*
X20010Y-31848D02*
X29448Y-31848D01*
X29448Y-31848D02*
X30362Y-31848D01*
X30362Y-31848D02*
X32639Y-31848D01*
X32639Y-31848D02*
X38675Y-31848D01*
X38675Y-31848D02*
X38966Y-31848D01*
X20010Y-31928D02*
X29448Y-31928D01*
X29448Y-31928D02*
X30362Y-31928D01*
X30362Y-31928D02*
X32639Y-31928D01*
X32639Y-31928D02*
X38675Y-31928D01*
X38675Y-31928D02*
X38966Y-31928D01*
X20010Y-32008D02*
X29448Y-32008D01*
X29448Y-32008D02*
X30362Y-32008D01*
X30362Y-32008D02*
X32639Y-32008D01*
X32639Y-32008D02*
X38675Y-32008D01*
X38675Y-32008D02*
X38966Y-32008D01*
X38966Y-32037D02*
X38675Y-32037D01*
X38675Y-31148D01*
X38675Y-30892D01*
X38675Y-21620D01*
X38675Y-21364D01*
X38577Y-21128D01*
X38397Y-20947D01*
X38161Y-20848D01*
X37905Y-20848D01*
X37669Y-20946D01*
X37488Y-21126D01*
X37389Y-21362D01*
X37389Y-21618D01*
X37487Y-21854D01*
X37667Y-22035D01*
X37903Y-22134D01*
X38159Y-22134D01*
X38395Y-22036D01*
X38576Y-21856D01*
X38675Y-21620D01*
X38675Y-30892D01*
X38577Y-30656D01*
X38397Y-30475D01*
X38161Y-30376D01*
X37905Y-30376D01*
X37669Y-30474D01*
X37488Y-30654D01*
X37389Y-30890D01*
X37389Y-31146D01*
X37487Y-31382D01*
X37667Y-31563D01*
X37903Y-31662D01*
X38159Y-31662D01*
X38395Y-31564D01*
X38576Y-31384D01*
X38675Y-31148D01*
X38675Y-32037D01*
X32639Y-32037D01*
X32639Y-29676D01*
X32639Y-29577D01*
X32639Y-27569D01*
X32601Y-27477D01*
X32531Y-27407D01*
X32440Y-27369D01*
X32341Y-27369D01*
X31341Y-27369D01*
X31249Y-27407D01*
X31179Y-27477D01*
X31141Y-27568D01*
X31141Y-27667D01*
X31141Y-29675D01*
X31179Y-29767D01*
X31249Y-29837D01*
X31340Y-29875D01*
X31439Y-29875D01*
X32439Y-29875D01*
X32531Y-29837D01*
X32601Y-29767D01*
X32639Y-29676D01*
X32639Y-32037D01*
X30362Y-32037D01*
X30362Y-28103D01*
X30189Y-27657D01*
X30189Y-21227D01*
X30189Y-21058D01*
X30125Y-20902D01*
X30005Y-20782D01*
X29849Y-20717D01*
X29749Y-20717D01*
X29575Y-20543D01*
X29481Y-20480D01*
X29370Y-20458D01*
X26648Y-20458D01*
X26621Y-20390D01*
X26501Y-20270D01*
X26345Y-20205D01*
X26176Y-20205D01*
X26020Y-20269D01*
X25900Y-20389D01*
X25835Y-20545D01*
X25835Y-20714D01*
X25899Y-20870D01*
X26019Y-20990D01*
X26175Y-21055D01*
X26344Y-21055D01*
X26385Y-21038D01*
X29250Y-21038D01*
X29339Y-21127D01*
X29339Y-21226D01*
X29403Y-21382D01*
X29523Y-21502D01*
X29679Y-21567D01*
X29848Y-21567D01*
X30004Y-21503D01*
X30124Y-21383D01*
X30189Y-21227D01*
X30189Y-27657D01*
X29938Y-27010D01*
X29862Y-26896D01*
X29518Y-26576D01*
X29448Y-26646D01*
X29448Y-26506D01*
X29128Y-26162D01*
X28055Y-25689D01*
X26883Y-25662D01*
X26535Y-25796D01*
X26535Y-23884D01*
X26535Y-23715D01*
X26471Y-23559D01*
X26408Y-23496D01*
X26408Y-22098D01*
X26407Y-22097D01*
X26386Y-21987D01*
X26385Y-21986D01*
X26323Y-21893D01*
X26322Y-21892D01*
X25804Y-21374D01*
X25710Y-21311D01*
X25599Y-21289D01*
X24102Y-21289D01*
X23991Y-21311D01*
X23896Y-21374D01*
X22048Y-23222D01*
X21896Y-23222D01*
X21891Y-23209D01*
X21799Y-23118D01*
X21890Y-23028D01*
X21972Y-22832D01*
X21972Y-22619D01*
X21891Y-22422D01*
X21799Y-22331D01*
X21890Y-22241D01*
X21972Y-22045D01*
X21972Y-21832D01*
X21891Y-21635D01*
X21884Y-21628D01*
X21927Y-21586D01*
X21965Y-21494D01*
X21966Y-21262D01*
X21966Y-21038D01*
X21965Y-20806D01*
X21927Y-20714D01*
X21857Y-20644D01*
X21766Y-20606D01*
X21667Y-20606D01*
X21238Y-20605D01*
X21176Y-20667D01*
X21176Y-21100D01*
X21904Y-21100D01*
X21966Y-21038D01*
X21966Y-21262D01*
X21904Y-21200D01*
X21226Y-21200D01*
X21176Y-21200D01*
X21076Y-21200D01*
X21076Y-21100D01*
X21076Y-20667D01*
X21014Y-20605D01*
X20585Y-20606D01*
X20486Y-20606D01*
X20395Y-20644D01*
X20325Y-20714D01*
X20287Y-20806D01*
X20286Y-21038D01*
X20348Y-21100D01*
X21076Y-21100D01*
X21076Y-21200D01*
X21026Y-21200D01*
X20348Y-21200D01*
X20286Y-21262D01*
X20287Y-21494D01*
X20325Y-21586D01*
X20367Y-21628D01*
X20362Y-21635D01*
X20280Y-21831D01*
X20280Y-22044D01*
X20361Y-22241D01*
X20452Y-22331D01*
X20362Y-22422D01*
X20280Y-22618D01*
X20280Y-22831D01*
X20361Y-23028D01*
X20452Y-23118D01*
X20362Y-23209D01*
X20280Y-23405D01*
X20280Y-23618D01*
X20361Y-23815D01*
X20452Y-23905D01*
X20362Y-23997D01*
X20280Y-24193D01*
X20280Y-24406D01*
X20361Y-24603D01*
X20452Y-24693D01*
X20362Y-24784D01*
X20280Y-24980D01*
X20280Y-25193D01*
X20361Y-25390D01*
X20452Y-25480D01*
X20362Y-25571D01*
X20280Y-25767D01*
X20280Y-25980D01*
X20361Y-26177D01*
X20452Y-26267D01*
X20362Y-26358D01*
X20280Y-26554D01*
X20280Y-26767D01*
X20361Y-26964D01*
X20512Y-27114D01*
X20708Y-27196D01*
X20921Y-27196D01*
X21543Y-27196D01*
X21740Y-27115D01*
X21890Y-26964D01*
X21895Y-26951D01*
X22433Y-26951D01*
X22544Y-26929D01*
X22638Y-26866D01*
X22646Y-26858D01*
X23155Y-26349D01*
X23155Y-26514D01*
X22669Y-27000D01*
X22606Y-27094D01*
X22584Y-27205D01*
X22584Y-27369D01*
X22325Y-27369D01*
X22233Y-27407D01*
X22163Y-27477D01*
X22125Y-27568D01*
X22125Y-27667D01*
X22125Y-29675D01*
X22163Y-29767D01*
X22233Y-29837D01*
X22324Y-29875D01*
X22423Y-29875D01*
X23423Y-29875D01*
X23515Y-29837D01*
X23585Y-29767D01*
X23623Y-29676D01*
X23623Y-29577D01*
X23623Y-27569D01*
X23585Y-27477D01*
X23515Y-27407D01*
X23424Y-27369D01*
X23325Y-27369D01*
X23164Y-27369D01*
X23164Y-27325D01*
X23650Y-26839D01*
X23713Y-26745D01*
X23719Y-26710D01*
X23781Y-26736D01*
X23950Y-26736D01*
X24106Y-26672D01*
X24226Y-26552D01*
X24291Y-26396D01*
X24291Y-26227D01*
X24227Y-26071D01*
X24156Y-26000D01*
X24156Y-24984D01*
X24226Y-24914D01*
X24291Y-24758D01*
X24291Y-24589D01*
X24227Y-24433D01*
X24107Y-24313D01*
X24099Y-24309D01*
X25244Y-23165D01*
X25307Y-23071D01*
X25329Y-22960D01*
X25329Y-22437D01*
X25399Y-22367D01*
X25464Y-22211D01*
X25464Y-22042D01*
X25400Y-21886D01*
X25383Y-21869D01*
X25479Y-21869D01*
X25828Y-22218D01*
X25828Y-23480D01*
X25750Y-23558D01*
X25685Y-23714D01*
X25685Y-23883D01*
X25749Y-24039D01*
X25869Y-24159D01*
X26025Y-24224D01*
X26194Y-24224D01*
X26350Y-24160D01*
X26470Y-24040D01*
X26535Y-23884D01*
X26535Y-25796D01*
X25790Y-26086D01*
X25676Y-26162D01*
X25356Y-26506D01*
X27402Y-28551D01*
X29448Y-26506D01*
X29448Y-26646D01*
X27473Y-28622D01*
X29518Y-30668D01*
X29862Y-30348D01*
X30335Y-29275D01*
X30362Y-28103D01*
X30362Y-32037D01*
X29448Y-32037D01*
X29448Y-30738D01*
X27402Y-28693D01*
X27331Y-28763D01*
X27331Y-28622D01*
X25286Y-26576D01*
X24942Y-26896D01*
X24469Y-27969D01*
X24442Y-29141D01*
X24866Y-30234D01*
X24942Y-30348D01*
X25286Y-30668D01*
X27331Y-28622D01*
X27331Y-28763D01*
X25356Y-30738D01*
X25676Y-31082D01*
X26749Y-31555D01*
X27921Y-31582D01*
X29014Y-31158D01*
X29128Y-31082D01*
X29448Y-30738D01*
X29448Y-32037D01*
X20010Y-32037D01*
X20010Y-20088D01*
X38966Y-20088D01*
X38966Y-32037D01*
M02*
