G04 (created by PCBNEW-RS274X (2011-11-27 BZR 3249)-stable) date 17/09/2012 7:08:21 p.m.*
G01*
G70*
G90*
%MOIN*%
G04 Gerber Fmt 3.4, Leading zero omitted, Abs format*
%FSLAX34Y34*%
G04 APERTURE LIST*
%ADD10C,0.006000*%
%ADD11C,0.007900*%
%ADD12C,0.035400*%
%ADD13C,0.088600*%
%ADD14C,0.197500*%
%ADD15C,0.173900*%
%ADD16C,0.056000*%
%ADD17C,0.060000*%
%ADD18R,0.060000X0.060000*%
G04 APERTURE END LIST*
G54D10*
G54D11*
X24660Y-03232D02*
X24345Y-03232D01*
X24435Y-03232D02*
X24390Y-03211D01*
X24368Y-03191D01*
X24345Y-03149D01*
X24345Y-03108D01*
X24660Y-02902D02*
X24638Y-02943D01*
X24615Y-02964D01*
X24570Y-02985D01*
X24435Y-02985D01*
X24390Y-02964D01*
X24368Y-02943D01*
X24345Y-02902D01*
X24345Y-02840D01*
X24368Y-02799D01*
X24390Y-02778D01*
X24435Y-02758D01*
X24570Y-02758D01*
X24615Y-02778D01*
X24638Y-02799D01*
X24660Y-02840D01*
X24660Y-02902D01*
X24345Y-02386D02*
X24660Y-02386D01*
X24345Y-02572D02*
X24593Y-02572D01*
X24638Y-02551D01*
X24660Y-02510D01*
X24660Y-02448D01*
X24638Y-02407D01*
X24615Y-02386D01*
X24345Y-02242D02*
X24345Y-02077D01*
X24188Y-02180D02*
X24593Y-02180D01*
X24638Y-02159D01*
X24660Y-02118D01*
X24660Y-02077D01*
X24638Y-01768D02*
X24660Y-01809D01*
X24660Y-01892D01*
X24638Y-01933D01*
X24593Y-01954D01*
X24413Y-01954D01*
X24368Y-01933D01*
X24345Y-01892D01*
X24345Y-01809D01*
X24368Y-01768D01*
X24413Y-01747D01*
X24458Y-01747D01*
X24503Y-01954D01*
X24386Y-04305D02*
X24386Y-03990D01*
X24386Y-04080D02*
X24407Y-04035D01*
X24427Y-04013D01*
X24469Y-03990D01*
X24510Y-03990D01*
X24716Y-04305D02*
X24675Y-04283D01*
X24654Y-04260D01*
X24633Y-04215D01*
X24633Y-04080D01*
X24654Y-04035D01*
X24675Y-04013D01*
X24716Y-03990D01*
X24778Y-03990D01*
X24819Y-04013D01*
X24840Y-04035D01*
X24860Y-04080D01*
X24860Y-04215D01*
X24840Y-04260D01*
X24819Y-04283D01*
X24778Y-04305D01*
X24716Y-04305D01*
X25232Y-03990D02*
X25232Y-04305D01*
X25046Y-03990D02*
X25046Y-04238D01*
X25067Y-04283D01*
X25108Y-04305D01*
X25170Y-04305D01*
X25211Y-04283D01*
X25232Y-04260D01*
X25376Y-03990D02*
X25541Y-03990D01*
X25438Y-03833D02*
X25438Y-04238D01*
X25459Y-04283D01*
X25500Y-04305D01*
X25541Y-04305D01*
X25850Y-04283D02*
X25809Y-04305D01*
X25726Y-04305D01*
X25685Y-04283D01*
X25664Y-04238D01*
X25664Y-04058D01*
X25685Y-04013D01*
X25726Y-03990D01*
X25809Y-03990D01*
X25850Y-04013D01*
X25871Y-04058D01*
X25871Y-04103D01*
X25664Y-04148D01*
X22880Y-08225D02*
X23195Y-08225D01*
X23105Y-08225D02*
X23150Y-08246D01*
X23172Y-08266D01*
X23195Y-08308D01*
X23195Y-08349D01*
X22880Y-08555D02*
X22902Y-08514D01*
X22925Y-08493D01*
X22970Y-08472D01*
X23105Y-08472D01*
X23150Y-08493D01*
X23172Y-08514D01*
X23195Y-08555D01*
X23195Y-08617D01*
X23172Y-08658D01*
X23150Y-08679D01*
X23105Y-08699D01*
X22970Y-08699D01*
X22925Y-08679D01*
X22902Y-08658D01*
X22880Y-08617D01*
X22880Y-08555D01*
X23195Y-09071D02*
X22880Y-09071D01*
X23195Y-08885D02*
X22947Y-08885D01*
X22902Y-08906D01*
X22880Y-08947D01*
X22880Y-09009D01*
X22902Y-09050D01*
X22925Y-09071D01*
X23195Y-09215D02*
X23195Y-09380D01*
X23352Y-09277D02*
X22947Y-09277D01*
X22902Y-09298D01*
X22880Y-09339D01*
X22880Y-09380D01*
X22902Y-09689D02*
X22880Y-09648D01*
X22880Y-09565D01*
X22902Y-09524D01*
X22947Y-09503D01*
X23127Y-09503D01*
X23172Y-09524D01*
X23195Y-09565D01*
X23195Y-09648D01*
X23172Y-09689D01*
X23127Y-09710D01*
X23082Y-09710D01*
X23037Y-09503D01*
X17083Y-07986D02*
X17083Y-07671D01*
X17083Y-07761D02*
X17104Y-07716D01*
X17124Y-07694D01*
X17166Y-07671D01*
X17207Y-07671D01*
X17413Y-07986D02*
X17372Y-07964D01*
X17351Y-07941D01*
X17330Y-07896D01*
X17330Y-07761D01*
X17351Y-07716D01*
X17372Y-07694D01*
X17413Y-07671D01*
X17475Y-07671D01*
X17516Y-07694D01*
X17537Y-07716D01*
X17557Y-07761D01*
X17557Y-07896D01*
X17537Y-07941D01*
X17516Y-07964D01*
X17475Y-07986D01*
X17413Y-07986D01*
X17929Y-07671D02*
X17929Y-07986D01*
X17743Y-07671D02*
X17743Y-07919D01*
X17764Y-07964D01*
X17805Y-07986D01*
X17867Y-07986D01*
X17908Y-07964D01*
X17929Y-07941D01*
X18073Y-07671D02*
X18238Y-07671D01*
X18135Y-07514D02*
X18135Y-07919D01*
X18156Y-07964D01*
X18197Y-07986D01*
X18238Y-07986D01*
X18547Y-07964D02*
X18506Y-07986D01*
X18423Y-07986D01*
X18382Y-07964D01*
X18361Y-07919D01*
X18361Y-07739D01*
X18382Y-07694D01*
X18423Y-07671D01*
X18506Y-07671D01*
X18547Y-07694D01*
X18568Y-07739D01*
X18568Y-07784D01*
X18361Y-07829D01*
X13222Y-09689D02*
X12907Y-09689D01*
X12997Y-09689D02*
X12952Y-09668D01*
X12930Y-09648D01*
X12907Y-09606D01*
X12907Y-09565D01*
X13222Y-09359D02*
X13200Y-09400D01*
X13177Y-09421D01*
X13132Y-09442D01*
X12997Y-09442D01*
X12952Y-09421D01*
X12930Y-09400D01*
X12907Y-09359D01*
X12907Y-09297D01*
X12930Y-09256D01*
X12952Y-09235D01*
X12997Y-09215D01*
X13132Y-09215D01*
X13177Y-09235D01*
X13200Y-09256D01*
X13222Y-09297D01*
X13222Y-09359D01*
X12907Y-08843D02*
X13222Y-08843D01*
X12907Y-09029D02*
X13155Y-09029D01*
X13200Y-09008D01*
X13222Y-08967D01*
X13222Y-08905D01*
X13200Y-08864D01*
X13177Y-08843D01*
X12907Y-08699D02*
X12907Y-08534D01*
X12750Y-08637D02*
X13155Y-08637D01*
X13200Y-08616D01*
X13222Y-08575D01*
X13222Y-08534D01*
X13200Y-08225D02*
X13222Y-08266D01*
X13222Y-08349D01*
X13200Y-08390D01*
X13155Y-08411D01*
X12975Y-08411D01*
X12930Y-08390D01*
X12907Y-08349D01*
X12907Y-08266D01*
X12930Y-08225D01*
X12975Y-08204D01*
X13020Y-08204D01*
X13065Y-08411D01*
X02063Y-01097D02*
X02063Y-00782D01*
X02063Y-00872D02*
X02084Y-00827D01*
X02104Y-00805D01*
X02146Y-00782D01*
X02187Y-00782D01*
X02393Y-01097D02*
X02352Y-01075D01*
X02331Y-01052D01*
X02310Y-01007D01*
X02310Y-00872D01*
X02331Y-00827D01*
X02352Y-00805D01*
X02393Y-00782D01*
X02455Y-00782D01*
X02496Y-00805D01*
X02517Y-00827D01*
X02537Y-00872D01*
X02537Y-01007D01*
X02517Y-01052D01*
X02496Y-01075D01*
X02455Y-01097D01*
X02393Y-01097D01*
X02909Y-00782D02*
X02909Y-01097D01*
X02723Y-00782D02*
X02723Y-01030D01*
X02744Y-01075D01*
X02785Y-01097D01*
X02847Y-01097D01*
X02888Y-01075D01*
X02909Y-01052D01*
X03053Y-00782D02*
X03218Y-00782D01*
X03115Y-00625D02*
X03115Y-01030D01*
X03136Y-01075D01*
X03177Y-01097D01*
X03218Y-01097D01*
X03527Y-01075D02*
X03486Y-01097D01*
X03403Y-01097D01*
X03362Y-01075D01*
X03341Y-01030D01*
X03341Y-00850D01*
X03362Y-00805D01*
X03403Y-00782D01*
X03486Y-00782D01*
X03527Y-00805D01*
X03548Y-00850D01*
X03548Y-00895D01*
X03341Y-00940D01*
X05059Y-08651D02*
X05037Y-08629D01*
X05014Y-08584D01*
X05014Y-08471D01*
X05037Y-08426D01*
X05059Y-08404D01*
X05104Y-08381D01*
X05149Y-08381D01*
X05216Y-08404D01*
X05486Y-08674D01*
X05486Y-08381D01*
X05441Y-08179D02*
X05464Y-08156D01*
X05486Y-08179D01*
X05464Y-08201D01*
X05441Y-08179D01*
X05486Y-08179D01*
X05171Y-07751D02*
X05486Y-07751D01*
X04992Y-07864D02*
X05329Y-07976D01*
X05329Y-07684D01*
X05486Y-07504D02*
X05171Y-07504D01*
X05216Y-07504D02*
X05194Y-07481D01*
X05171Y-07436D01*
X05171Y-07369D01*
X05194Y-07324D01*
X05239Y-07301D01*
X05486Y-07301D01*
X05239Y-07301D02*
X05194Y-07279D01*
X05171Y-07234D01*
X05171Y-07166D01*
X05194Y-07122D01*
X05239Y-07099D01*
X05486Y-07099D01*
X05486Y-06875D02*
X05171Y-06875D01*
X05216Y-06875D02*
X05194Y-06852D01*
X05171Y-06807D01*
X05171Y-06740D01*
X05194Y-06695D01*
X05239Y-06672D01*
X05486Y-06672D01*
X05239Y-06672D02*
X05194Y-06650D01*
X05171Y-06605D01*
X05171Y-06537D01*
X05194Y-06493D01*
X05239Y-06470D01*
X05486Y-06470D01*
X05486Y-05886D02*
X05171Y-05886D01*
X05261Y-05886D02*
X05216Y-05863D01*
X05194Y-05841D01*
X05171Y-05796D01*
X05171Y-05751D01*
X05486Y-05526D02*
X05464Y-05571D01*
X05441Y-05594D01*
X05396Y-05616D01*
X05261Y-05616D01*
X05216Y-05594D01*
X05194Y-05571D01*
X05171Y-05526D01*
X05171Y-05459D01*
X05194Y-05414D01*
X05216Y-05391D01*
X05261Y-05369D01*
X05396Y-05369D01*
X05441Y-05391D01*
X05464Y-05414D01*
X05486Y-05459D01*
X05486Y-05526D01*
X05171Y-04964D02*
X05486Y-04964D01*
X05171Y-05167D02*
X05419Y-05167D01*
X05464Y-05144D01*
X05486Y-05099D01*
X05486Y-05032D01*
X05464Y-04987D01*
X05441Y-04964D01*
X05171Y-04807D02*
X05171Y-04627D01*
X05014Y-04740D02*
X05419Y-04740D01*
X05464Y-04717D01*
X05486Y-04672D01*
X05486Y-04627D01*
X05486Y-04470D02*
X05171Y-04470D01*
X05014Y-04470D02*
X05037Y-04492D01*
X05059Y-04470D01*
X05037Y-04447D01*
X05014Y-04470D01*
X05059Y-04470D01*
X05171Y-04245D02*
X05486Y-04245D01*
X05216Y-04245D02*
X05194Y-04222D01*
X05171Y-04177D01*
X05171Y-04110D01*
X05194Y-04065D01*
X05239Y-04042D01*
X05486Y-04042D01*
X05171Y-03615D02*
X05553Y-03615D01*
X05598Y-03638D01*
X05621Y-03660D01*
X05643Y-03705D01*
X05643Y-03773D01*
X05621Y-03818D01*
X05464Y-03615D02*
X05486Y-03660D01*
X05486Y-03750D01*
X05464Y-03795D01*
X05441Y-03818D01*
X05396Y-03840D01*
X05261Y-03840D01*
X05216Y-03818D01*
X05194Y-03795D01*
X05171Y-03750D01*
X05171Y-03660D01*
X05194Y-03615D01*
%LPC*%
G54D12*
X03740Y-08760D03*
X02008Y-08760D03*
G54D13*
X02283Y-03644D03*
G54D14*
X24462Y-09573D03*
G54D15*
X11812Y-09823D03*
G54D16*
X11382Y-04523D03*
X11382Y-02523D03*
G54D17*
X12962Y-05683D03*
X13962Y-05683D03*
X14962Y-06683D03*
X14962Y-05683D03*
G54D18*
X06522Y-02943D03*
G54D17*
X06522Y-03943D03*
X06522Y-04943D03*
X06522Y-05943D03*
G54D13*
X02381Y-05317D03*
X03562Y-04333D03*
X03464Y-02758D03*
G54D18*
X25697Y-05575D03*
G54D17*
X24697Y-05575D03*
X25697Y-06575D03*
X24697Y-06575D03*
X25697Y-07575D03*
X24697Y-07575D03*
M02*
