G04 (created by PCBNEW-RS274X (2011-11-27 BZR 3249)-stable) date 17/09/2012 7:08:21 p.m.*
G01*
G70*
G90*
%MOIN*%
G04 Gerber Fmt 3.4, Leading zero omitted, Abs format*
%FSLAX34Y34*%
G04 APERTURE LIST*
%ADD10C,0.006000*%
%ADD11R,0.055000X0.017000*%
%ADD12R,0.078700X0.017700*%
%ADD13R,0.017700X0.078700*%
%ADD14R,0.059100X0.098400*%
%ADD15R,0.019700X0.090600*%
%ADD16R,0.060000X0.060000*%
%ADD17C,0.060000*%
%ADD18R,0.031500X0.025000*%
%ADD19R,0.080000X0.060000*%
%ADD20R,0.060000X0.080000*%
%ADD21R,0.100000X0.050000*%
%ADD22R,0.025000X0.031500*%
G04 APERTURE END LIST*
G54D10*
G54D11*
X21112Y-05063D03*
X21112Y-05313D03*
X21112Y-05573D03*
X21112Y-05823D03*
X21112Y-06083D03*
X21112Y-06338D03*
X21112Y-06593D03*
X23312Y-06593D03*
X23312Y-06338D03*
X23312Y-06083D03*
X23312Y-05823D03*
X23312Y-05568D03*
X23312Y-05313D03*
X23312Y-05058D03*
G54D12*
X16266Y-04806D03*
X16266Y-04491D03*
X16266Y-04176D03*
X16266Y-03861D03*
X16266Y-03546D03*
X16266Y-03231D03*
X16266Y-02916D03*
X16266Y-02601D03*
X20032Y-02603D03*
X20032Y-04813D03*
X20032Y-04493D03*
X20032Y-04173D03*
X20032Y-03863D03*
X20032Y-03543D03*
X20032Y-03233D03*
X20032Y-02913D03*
G54D13*
X17050Y-01813D03*
X17364Y-01813D03*
X17680Y-01813D03*
X17994Y-01813D03*
X18310Y-01813D03*
X18624Y-01813D03*
X18940Y-01813D03*
X19254Y-01813D03*
X17052Y-05593D03*
X17362Y-05593D03*
X17682Y-05593D03*
X17992Y-05593D03*
X18302Y-05593D03*
X18622Y-05593D03*
X18942Y-05593D03*
X19262Y-05593D03*
G54D14*
X04587Y-09941D03*
X01161Y-09941D03*
X04587Y-07776D03*
X01161Y-07776D03*
G54D15*
X02874Y-07776D03*
X02559Y-07776D03*
X02244Y-07776D03*
X03189Y-07776D03*
X03504Y-07776D03*
G54D16*
X12962Y-06683D03*
G54D17*
X13962Y-06683D03*
G54D18*
X07402Y-08433D03*
X07402Y-07833D03*
X08122Y-08433D03*
X08122Y-07833D03*
G54D19*
X09072Y-08293D03*
X09072Y-06993D03*
X10222Y-08293D03*
X10222Y-06993D03*
G54D20*
X21822Y-03613D03*
X23122Y-03613D03*
G54D19*
X22952Y-01343D03*
X22952Y-02643D03*
X21892Y-01343D03*
X21892Y-02643D03*
G54D21*
X09082Y-01413D03*
X09082Y-02613D03*
G54D22*
X21062Y-01233D03*
X20462Y-01233D03*
X21062Y-01803D03*
X20462Y-01803D03*
G54D18*
X07702Y-06063D03*
X07702Y-05463D03*
G54D22*
X08522Y-04543D03*
X07922Y-04543D03*
X10502Y-06073D03*
X09902Y-06073D03*
X09122Y-05243D03*
X08522Y-05243D03*
G54D18*
X13002Y-04313D03*
X13002Y-03713D03*
G54D22*
X08782Y-03563D03*
X09382Y-03563D03*
G54D18*
X07842Y-03023D03*
X07842Y-03623D03*
X12992Y-02523D03*
X12992Y-03123D03*
G54D22*
X14102Y-02213D03*
X14702Y-02213D03*
X22268Y-04449D03*
X21668Y-04449D03*
G54D18*
X15082Y-03263D03*
X15082Y-03863D03*
M02*
