G04 (created by PCBNEW-RS274X (2011-11-27 BZR 3249)-stable) date 17/09/2012 7:08:21 p.m.*
G01*
G70*
G90*
%MOIN*%
G04 Gerber Fmt 3.4, Leading zero omitted, Abs format*
%FSLAX34Y34*%
G04 APERTURE LIST*
%ADD10C,0.006000*%
%ADD11C,0.007900*%
%ADD12C,0.019700*%
%ADD13C,0.005000*%
%ADD14C,0.008000*%
%ADD15C,0.015000*%
%ADD16C,0.012500*%
%ADD17C,0.012000*%
%ADD18C,0.005900*%
%ADD19C,0.007100*%
%ADD20C,0.010000*%
%ADD21C,0.003900*%
%ADD22C,0.004500*%
%ADD23R,0.055000X0.017000*%
%ADD24R,0.078700X0.017700*%
%ADD25R,0.017700X0.078700*%
%ADD26C,0.035400*%
%ADD27R,0.059100X0.098400*%
%ADD28R,0.019700X0.090600*%
%ADD29C,0.088600*%
%ADD30C,0.197500*%
%ADD31C,0.173900*%
%ADD32C,0.056000*%
%ADD33R,0.060000X0.060000*%
%ADD34C,0.060000*%
%ADD35R,0.031500X0.025000*%
%ADD36R,0.080000X0.060000*%
%ADD37R,0.060000X0.080000*%
%ADD38R,0.100000X0.050000*%
%ADD39R,0.025000X0.031500*%
G04 APERTURE END LIST*
G54D10*
G54D11*
X04216Y-03013D02*
X04197Y-03050D01*
X04197Y-03107D01*
X04216Y-03163D01*
X04254Y-03200D01*
X04291Y-03219D01*
X04366Y-03238D01*
X04423Y-03238D01*
X04498Y-03219D01*
X04535Y-03200D01*
X04573Y-03163D01*
X04591Y-03107D01*
X04591Y-03069D01*
X04573Y-03013D01*
X04554Y-02994D01*
X04423Y-02994D01*
X04423Y-03069D01*
X04591Y-02825D02*
X04197Y-02825D01*
X04591Y-02600D01*
X04197Y-02600D01*
X04591Y-02412D02*
X04197Y-02412D01*
X04197Y-02318D01*
X04216Y-02262D01*
X04254Y-02225D01*
X04291Y-02206D01*
X04366Y-02187D01*
X04423Y-02187D01*
X04498Y-02206D01*
X04535Y-02225D01*
X04573Y-02262D01*
X04591Y-02318D01*
X04591Y-02412D01*
X04615Y-04651D02*
X04221Y-04651D01*
X04221Y-04557D01*
X04240Y-04501D01*
X04278Y-04464D01*
X04315Y-04445D01*
X04390Y-04426D01*
X04447Y-04426D01*
X04522Y-04445D01*
X04559Y-04464D01*
X04597Y-04501D01*
X04615Y-04557D01*
X04615Y-04651D01*
X04465Y-04257D02*
X04465Y-03957D01*
X04615Y-04107D02*
X04315Y-04107D01*
X01611Y-05643D02*
X01217Y-05643D01*
X01217Y-05549D01*
X01236Y-05493D01*
X01274Y-05456D01*
X01311Y-05437D01*
X01386Y-05418D01*
X01443Y-05418D01*
X01518Y-05437D01*
X01555Y-05456D01*
X01593Y-05493D01*
X01611Y-05549D01*
X01611Y-05643D01*
X01461Y-05249D02*
X01461Y-04949D01*
X01417Y-04278D02*
X01417Y-03978D01*
X01567Y-04128D02*
X01267Y-04128D01*
X01173Y-03603D02*
X01173Y-03790D01*
X01361Y-03809D01*
X01342Y-03790D01*
X01324Y-03753D01*
X01324Y-03659D01*
X01342Y-03621D01*
X01361Y-03603D01*
X01399Y-03584D01*
X01492Y-03584D01*
X01530Y-03603D01*
X01549Y-03621D01*
X01567Y-03659D01*
X01567Y-03753D01*
X01549Y-03790D01*
X01530Y-03809D01*
X01173Y-03471D02*
X01567Y-03340D01*
X01173Y-03209D01*
G54D12*
X07141Y-02154D02*
X07741Y-02154D01*
X07441Y-02604D02*
X07441Y-01704D01*
G54D13*
X21762Y-05173D02*
X21759Y-05202D01*
X21750Y-05230D01*
X21736Y-05256D01*
X21718Y-05278D01*
X21695Y-05297D01*
X21670Y-05311D01*
X21642Y-05319D01*
X21613Y-05322D01*
X21584Y-05320D01*
X21556Y-05312D01*
X21530Y-05298D01*
X21508Y-05280D01*
X21489Y-05257D01*
X21475Y-05232D01*
X21466Y-05204D01*
X21463Y-05175D01*
X21465Y-05146D01*
X21473Y-05118D01*
X21486Y-05092D01*
X21505Y-05069D01*
X21527Y-05050D01*
X21552Y-05036D01*
X21580Y-05027D01*
X21609Y-05024D01*
X21638Y-05026D01*
X21666Y-05034D01*
X21692Y-05047D01*
X21715Y-05065D01*
X21734Y-05087D01*
X21749Y-05112D01*
X21758Y-05140D01*
X21761Y-05169D01*
X21762Y-05173D01*
G54D14*
X21312Y-04873D02*
X21312Y-06773D01*
X21312Y-06773D02*
X23112Y-06773D01*
X23112Y-06773D02*
X23112Y-04873D01*
X23112Y-04873D02*
X21312Y-04873D01*
G54D10*
X20142Y-04803D02*
X19692Y-04803D01*
X20142Y-02623D02*
X19702Y-02623D01*
X20142Y-04803D02*
X20142Y-02623D01*
X19262Y-05273D02*
X19262Y-05703D01*
X17052Y-05283D02*
X17052Y-05703D01*
X17042Y-05703D02*
X19262Y-05713D01*
X17062Y-01733D02*
X19232Y-01723D01*
X16632Y-02423D02*
X16632Y-05253D01*
X19242Y-01733D02*
X19242Y-02143D01*
X16882Y-02183D02*
X19662Y-02183D01*
X19682Y-05263D02*
X19682Y-02223D01*
X16632Y-05263D02*
X19632Y-05263D01*
X16182Y-02593D02*
X16182Y-04813D01*
X16182Y-04813D02*
X16632Y-04813D01*
X16636Y-02413D02*
X16866Y-02183D01*
X16184Y-02593D02*
X16636Y-02593D01*
X17062Y-02183D02*
X17062Y-01731D01*
X17232Y-02587D02*
X17228Y-02623D01*
X17217Y-02658D01*
X17200Y-02691D01*
X17177Y-02719D01*
X17149Y-02742D01*
X17116Y-02760D01*
X17081Y-02771D01*
X17045Y-02774D01*
X17009Y-02771D01*
X16974Y-02761D01*
X16942Y-02744D01*
X16913Y-02721D01*
X16889Y-02693D01*
X16872Y-02661D01*
X16861Y-02626D01*
X16857Y-02589D01*
X16860Y-02554D01*
X16870Y-02518D01*
X16886Y-02486D01*
X16909Y-02457D01*
X16937Y-02433D01*
X16969Y-02415D01*
X17004Y-02404D01*
X17041Y-02400D01*
X17076Y-02402D01*
X17111Y-02412D01*
X17144Y-02429D01*
X17173Y-02451D01*
X17197Y-02479D01*
X17215Y-02511D01*
X17227Y-02546D01*
X17231Y-02582D01*
X17232Y-02587D01*
G54D15*
X04272Y-07205D02*
X01476Y-07205D01*
X01476Y-07205D02*
X01476Y-10827D01*
X01476Y-10827D02*
X04272Y-10827D01*
X04272Y-10827D02*
X04272Y-07205D01*
X02794Y-03644D02*
X02784Y-03743D01*
X02755Y-03838D01*
X02708Y-03926D01*
X02645Y-04004D01*
X02568Y-04067D01*
X02481Y-04115D01*
X02385Y-04144D01*
X02286Y-04154D01*
X02188Y-04145D01*
X02092Y-04117D01*
X02004Y-04071D01*
X01926Y-04009D01*
X01862Y-03932D01*
X01814Y-03845D01*
X01784Y-03750D01*
X01773Y-03651D01*
X01781Y-03552D01*
X01808Y-03456D01*
X01854Y-03368D01*
X01916Y-03290D01*
X01992Y-03225D01*
X02079Y-03176D01*
X02174Y-03145D01*
X02273Y-03134D01*
X02371Y-03141D01*
X02467Y-03168D01*
X02556Y-03213D01*
X02635Y-03274D01*
X02700Y-03350D01*
X02749Y-03437D01*
X02781Y-03531D01*
X02793Y-03630D01*
X02794Y-03644D01*
G54D16*
X12382Y-04773D02*
X12382Y-02273D01*
X10382Y-04773D02*
X10382Y-02273D01*
X11382Y-01273D02*
X11295Y-01277D01*
X11209Y-01289D01*
X11124Y-01308D01*
X11040Y-01334D01*
X10960Y-01367D01*
X10883Y-01407D01*
X10809Y-01454D01*
X10740Y-01507D01*
X10675Y-01566D01*
X10616Y-01631D01*
X10563Y-01700D01*
X10516Y-01774D01*
X10476Y-01851D01*
X10443Y-01931D01*
X10417Y-02015D01*
X10398Y-02100D01*
X10386Y-02186D01*
X10382Y-02273D01*
X12382Y-02273D02*
X12378Y-02186D01*
X12366Y-02100D01*
X12347Y-02015D01*
X12321Y-01931D01*
X12288Y-01851D01*
X12248Y-01774D01*
X12201Y-01700D01*
X12148Y-01631D01*
X12089Y-01566D01*
X12024Y-01507D01*
X11955Y-01454D01*
X11882Y-01407D01*
X11804Y-01367D01*
X11724Y-01334D01*
X11640Y-01308D01*
X11555Y-01289D01*
X11469Y-01277D01*
X11382Y-01273D01*
X10382Y-04773D02*
X10386Y-04860D01*
X10398Y-04946D01*
X10417Y-05031D01*
X10443Y-05115D01*
X10476Y-05195D01*
X10516Y-05272D01*
X10563Y-05346D01*
X10616Y-05415D01*
X10675Y-05480D01*
X10740Y-05539D01*
X10809Y-05592D01*
X10883Y-05639D01*
X10960Y-05679D01*
X11040Y-05712D01*
X11124Y-05738D01*
X11209Y-05757D01*
X11295Y-05769D01*
X11382Y-05773D01*
X11382Y-05773D02*
X11469Y-05769D01*
X11555Y-05757D01*
X11640Y-05738D01*
X11724Y-05712D01*
X11804Y-05679D01*
X11882Y-05639D01*
X11955Y-05592D01*
X12024Y-05539D01*
X12089Y-05480D01*
X12148Y-05415D01*
X12201Y-05346D01*
X12248Y-05272D01*
X12288Y-05195D01*
X12321Y-05115D01*
X12347Y-05031D01*
X12366Y-04946D01*
X12378Y-04860D01*
X12382Y-04773D01*
G54D14*
X15462Y-07183D02*
X12462Y-07183D01*
X12462Y-05183D02*
X15462Y-05183D01*
X15462Y-05183D02*
X15462Y-07183D01*
X12462Y-07183D02*
X12462Y-05183D01*
G54D17*
X07022Y-02443D02*
X07022Y-02443D01*
X06022Y-02443D02*
X07022Y-02443D01*
X07022Y-02443D02*
X07022Y-02443D01*
X07022Y-02443D02*
X07022Y-06443D01*
X07022Y-06443D02*
X06022Y-06443D01*
X06022Y-06443D02*
X06022Y-02443D01*
X06022Y-03443D02*
X07022Y-03443D01*
G54D15*
X02892Y-05317D02*
X02882Y-05416D01*
X02853Y-05511D01*
X02806Y-05599D01*
X02743Y-05677D01*
X02666Y-05740D01*
X02579Y-05788D01*
X02483Y-05817D01*
X02384Y-05827D01*
X02286Y-05818D01*
X02190Y-05790D01*
X02102Y-05744D01*
X02024Y-05682D01*
X01960Y-05605D01*
X01912Y-05518D01*
X01882Y-05423D01*
X01871Y-05324D01*
X01879Y-05225D01*
X01906Y-05129D01*
X01952Y-05041D01*
X02014Y-04963D01*
X02090Y-04898D01*
X02177Y-04849D01*
X02272Y-04818D01*
X02371Y-04807D01*
X02469Y-04814D01*
X02565Y-04841D01*
X02654Y-04886D01*
X02733Y-04947D01*
X02798Y-05023D01*
X02847Y-05110D01*
X02879Y-05204D01*
X02891Y-05303D01*
X02892Y-05317D01*
X04073Y-04333D02*
X04063Y-04432D01*
X04034Y-04527D01*
X03987Y-04615D01*
X03924Y-04693D01*
X03847Y-04756D01*
X03760Y-04804D01*
X03664Y-04833D01*
X03565Y-04843D01*
X03467Y-04834D01*
X03371Y-04806D01*
X03283Y-04760D01*
X03205Y-04698D01*
X03141Y-04621D01*
X03093Y-04534D01*
X03063Y-04439D01*
X03052Y-04340D01*
X03060Y-04241D01*
X03087Y-04145D01*
X03133Y-04057D01*
X03195Y-03979D01*
X03271Y-03914D01*
X03358Y-03865D01*
X03453Y-03834D01*
X03552Y-03823D01*
X03650Y-03830D01*
X03746Y-03857D01*
X03835Y-03902D01*
X03914Y-03963D01*
X03979Y-04039D01*
X04028Y-04126D01*
X04060Y-04220D01*
X04072Y-04319D01*
X04073Y-04333D01*
X03975Y-02758D02*
X03965Y-02857D01*
X03936Y-02952D01*
X03889Y-03040D01*
X03826Y-03118D01*
X03749Y-03181D01*
X03662Y-03229D01*
X03566Y-03258D01*
X03467Y-03268D01*
X03369Y-03259D01*
X03273Y-03231D01*
X03185Y-03185D01*
X03107Y-03123D01*
X03043Y-03046D01*
X02995Y-02959D01*
X02965Y-02864D01*
X02954Y-02765D01*
X02962Y-02666D01*
X02989Y-02570D01*
X03035Y-02482D01*
X03097Y-02404D01*
X03173Y-02339D01*
X03260Y-02290D01*
X03355Y-02259D01*
X03454Y-02248D01*
X03552Y-02255D01*
X03648Y-02282D01*
X03737Y-02327D01*
X03816Y-02388D01*
X03881Y-02464D01*
X03930Y-02551D01*
X03962Y-02645D01*
X03974Y-02744D01*
X03975Y-02758D01*
G54D18*
X07628Y-07769D02*
X07195Y-07769D01*
G54D13*
X07638Y-08645D02*
X07638Y-07641D01*
X07166Y-07621D02*
X07166Y-08645D01*
X07166Y-08645D02*
X07638Y-08645D01*
X07170Y-07632D02*
X07630Y-07632D01*
G54D18*
X08348Y-07769D02*
X07915Y-07769D01*
G54D13*
X08358Y-08645D02*
X08358Y-07641D01*
X07886Y-07621D02*
X07886Y-08645D01*
X07886Y-08645D02*
X08358Y-08645D01*
X07890Y-07632D02*
X08350Y-07632D01*
G54D19*
X09515Y-06856D02*
X08649Y-06856D01*
G54D13*
X08622Y-08643D02*
X09522Y-08643D01*
X09522Y-08643D02*
X09522Y-07993D01*
X08622Y-07293D02*
X08622Y-06643D01*
X08622Y-06643D02*
X09522Y-06643D01*
X09522Y-06643D02*
X09522Y-07293D01*
X08622Y-07993D02*
X08622Y-08643D01*
G54D19*
X10655Y-06846D02*
X09799Y-06846D01*
G54D13*
X09772Y-08643D02*
X10672Y-08643D01*
X10672Y-08643D02*
X10672Y-07993D01*
X09772Y-07293D02*
X09772Y-06643D01*
X09772Y-06643D02*
X10672Y-06643D01*
X10672Y-06643D02*
X10672Y-07293D01*
X09772Y-07993D02*
X09772Y-08643D01*
G54D19*
X23220Y-04027D02*
X23220Y-03200D01*
G54D13*
X21472Y-03163D02*
X21472Y-04063D01*
X21472Y-04063D02*
X22122Y-04063D01*
X22822Y-03163D02*
X23472Y-03163D01*
X23472Y-03163D02*
X23472Y-04063D01*
X23472Y-04063D02*
X22822Y-04063D01*
X22122Y-03163D02*
X21472Y-03163D01*
G54D19*
X22509Y-02790D02*
X23385Y-02790D01*
G54D13*
X23402Y-00993D02*
X22502Y-00993D01*
X22502Y-00993D02*
X22502Y-01643D01*
X23402Y-02343D02*
X23402Y-02993D01*
X23402Y-02993D02*
X22502Y-02993D01*
X22502Y-02993D02*
X22502Y-02343D01*
X23402Y-01643D02*
X23402Y-00993D01*
G54D19*
X21449Y-02800D02*
X22325Y-02800D01*
G54D13*
X22342Y-00993D02*
X21442Y-00993D01*
X21442Y-00993D02*
X21442Y-01643D01*
X22342Y-02343D02*
X22342Y-02993D01*
X22342Y-02993D02*
X21442Y-02993D01*
X21442Y-02993D02*
X21442Y-02343D01*
X22342Y-01643D02*
X22342Y-00993D01*
X08552Y-01063D02*
X08550Y-01076D01*
X08546Y-01089D01*
X08540Y-01101D01*
X08531Y-01112D01*
X08521Y-01121D01*
X08509Y-01127D01*
X08496Y-01131D01*
X08482Y-01132D01*
X08469Y-01131D01*
X08456Y-01127D01*
X08444Y-01121D01*
X08434Y-01113D01*
X08425Y-01102D01*
X08418Y-01090D01*
X08414Y-01077D01*
X08413Y-01063D01*
X08414Y-01051D01*
X08417Y-01038D01*
X08424Y-01026D01*
X08432Y-01015D01*
X08443Y-01006D01*
X08454Y-00999D01*
X08467Y-00995D01*
X08481Y-00994D01*
X08494Y-00995D01*
X08507Y-00998D01*
X08519Y-01004D01*
X08530Y-01013D01*
X08539Y-01023D01*
X08545Y-01035D01*
X08550Y-01048D01*
X08551Y-01062D01*
X08552Y-01063D01*
X09632Y-01713D02*
X09632Y-01113D01*
X09632Y-01113D02*
X08532Y-01113D01*
X08532Y-01113D02*
X08532Y-01713D01*
X08532Y-02313D02*
X08532Y-02913D01*
X08532Y-02913D02*
X09632Y-02913D01*
X09632Y-02913D02*
X09632Y-02313D01*
X21274Y-00997D02*
X20270Y-00997D01*
X20250Y-01469D02*
X21274Y-01469D01*
X21274Y-01469D02*
X21274Y-00997D01*
X20261Y-01465D02*
X20261Y-01005D01*
X21274Y-01567D02*
X20270Y-01567D01*
X20250Y-02039D02*
X21274Y-02039D01*
X21274Y-02039D02*
X21274Y-01567D01*
X20261Y-02035D02*
X20261Y-01575D01*
X07938Y-06275D02*
X07938Y-05271D01*
X07466Y-05251D02*
X07466Y-06275D01*
X07466Y-06275D02*
X07938Y-06275D01*
X07470Y-05262D02*
X07930Y-05262D01*
X08734Y-04307D02*
X07730Y-04307D01*
X07710Y-04779D02*
X08734Y-04779D01*
X08734Y-04779D02*
X08734Y-04307D01*
X07721Y-04775D02*
X07721Y-04315D01*
X10714Y-05837D02*
X09710Y-05837D01*
X09690Y-06309D02*
X10714Y-06309D01*
X10714Y-06309D02*
X10714Y-05837D01*
X09701Y-06305D02*
X09701Y-05845D01*
X09334Y-05007D02*
X08330Y-05007D01*
X08310Y-05479D02*
X09334Y-05479D01*
X09334Y-05479D02*
X09334Y-05007D01*
X08321Y-05475D02*
X08321Y-05015D01*
X13238Y-04525D02*
X13238Y-03521D01*
X12766Y-03501D02*
X12766Y-04525D01*
X12766Y-04525D02*
X13238Y-04525D01*
X12770Y-03512D02*
X13230Y-03512D01*
X08570Y-03799D02*
X09574Y-03799D01*
X09594Y-03327D02*
X08570Y-03327D01*
X08570Y-03327D02*
X08570Y-03799D01*
X09583Y-03331D02*
X09583Y-03791D01*
X07606Y-02811D02*
X07606Y-03815D01*
X08078Y-03835D02*
X08078Y-02811D01*
X08078Y-02811D02*
X07606Y-02811D01*
X08074Y-03824D02*
X07614Y-03824D01*
X12756Y-02311D02*
X12756Y-03315D01*
X13228Y-03335D02*
X13228Y-02311D01*
X13228Y-02311D02*
X12756Y-02311D01*
X13224Y-03324D02*
X12764Y-03324D01*
X13890Y-02449D02*
X14894Y-02449D01*
X14914Y-01977D02*
X13890Y-01977D01*
X13890Y-01977D02*
X13890Y-02449D01*
X14903Y-01981D02*
X14903Y-02441D01*
X22480Y-04213D02*
X21476Y-04213D01*
X21456Y-04685D02*
X22480Y-04685D01*
X22480Y-04685D02*
X22480Y-04213D01*
X21467Y-04681D02*
X21467Y-04221D01*
X14846Y-03051D02*
X14846Y-04055D01*
X15318Y-04075D02*
X15318Y-03051D01*
X15318Y-03051D02*
X14846Y-03051D01*
X15314Y-04064D02*
X14854Y-04064D01*
G54D14*
X22284Y-06872D02*
X22284Y-07155D01*
X22301Y-07188D01*
X22318Y-07205D01*
X22351Y-07222D01*
X22418Y-07222D01*
X22451Y-07205D01*
X22468Y-07188D01*
X22484Y-07155D01*
X22484Y-06872D01*
X22835Y-07222D02*
X22635Y-07222D01*
X22735Y-07222D02*
X22735Y-06872D01*
X22701Y-06922D01*
X22668Y-06955D01*
X22635Y-06972D01*
G54D13*
X21833Y-06802D02*
X21833Y-06602D01*
X22133Y-06731D01*
X21933Y-06359D02*
X22133Y-06359D01*
X21819Y-06430D02*
X22033Y-06502D01*
X22033Y-06316D01*
X22133Y-06202D02*
X21833Y-06202D01*
X21976Y-06202D02*
X21976Y-06030D01*
X22133Y-06030D02*
X21833Y-06030D01*
X22105Y-05716D02*
X22119Y-05730D01*
X22133Y-05773D01*
X22133Y-05802D01*
X22119Y-05845D01*
X22091Y-05873D01*
X22062Y-05888D01*
X22005Y-05902D01*
X21962Y-05902D01*
X21905Y-05888D01*
X21876Y-05873D01*
X21848Y-05845D01*
X21833Y-05802D01*
X21833Y-05773D01*
X21848Y-05730D01*
X21862Y-05716D01*
X22133Y-05430D02*
X22133Y-05602D01*
X22133Y-05516D02*
X21833Y-05516D01*
X21876Y-05545D01*
X21905Y-05573D01*
X21919Y-05602D01*
X21862Y-05316D02*
X21848Y-05302D01*
X21833Y-05273D01*
X21833Y-05202D01*
X21848Y-05173D01*
X21862Y-05159D01*
X21891Y-05144D01*
X21919Y-05144D01*
X21962Y-05159D01*
X22133Y-05330D01*
X22133Y-05144D01*
X21833Y-04887D02*
X21833Y-04944D01*
X21848Y-04973D01*
X21862Y-04987D01*
X21905Y-05016D01*
X21962Y-05030D01*
X22076Y-05030D01*
X22105Y-05016D01*
X22119Y-05001D01*
X22133Y-04973D01*
X22133Y-04916D01*
X22119Y-04887D01*
X22105Y-04873D01*
X22076Y-04858D01*
X22005Y-04858D01*
X21976Y-04873D01*
X21962Y-04887D01*
X21948Y-04916D01*
X21948Y-04973D01*
X21962Y-05001D01*
X21976Y-05016D01*
X22005Y-05030D01*
G54D14*
X18637Y-03695D02*
X18637Y-03195D01*
X19056Y-03648D02*
X19037Y-03672D01*
X18980Y-03695D01*
X18942Y-03695D01*
X18884Y-03672D01*
X18846Y-03624D01*
X18827Y-03576D01*
X18808Y-03481D01*
X18808Y-03410D01*
X18827Y-03314D01*
X18846Y-03267D01*
X18884Y-03219D01*
X18942Y-03195D01*
X18980Y-03195D01*
X19037Y-03219D01*
X19056Y-03243D01*
X19437Y-03695D02*
X19208Y-03695D01*
X19322Y-03695D02*
X19322Y-03195D01*
X19284Y-03267D01*
X19246Y-03314D01*
X19208Y-03338D01*
X16708Y-04738D02*
X16899Y-04738D01*
X16670Y-04880D02*
X16803Y-04380D01*
X16937Y-04880D01*
X17013Y-04380D02*
X17242Y-04380D01*
X17127Y-04880D02*
X17127Y-04380D01*
X17375Y-04880D02*
X17375Y-04380D01*
X17509Y-04738D01*
X17642Y-04380D01*
X17642Y-04880D01*
X17832Y-04618D02*
X17966Y-04618D01*
X18023Y-04880D02*
X17832Y-04880D01*
X17832Y-04380D01*
X18023Y-04380D01*
X18404Y-04404D02*
X18366Y-04380D01*
X18309Y-04380D01*
X18251Y-04404D01*
X18213Y-04452D01*
X18194Y-04499D01*
X18175Y-04595D01*
X18175Y-04666D01*
X18194Y-04761D01*
X18213Y-04809D01*
X18251Y-04857D01*
X18309Y-04880D01*
X18347Y-04880D01*
X18404Y-04857D01*
X18423Y-04833D01*
X18423Y-04666D01*
X18347Y-04666D01*
X18575Y-04738D02*
X18766Y-04738D01*
X18537Y-04880D02*
X18670Y-04380D01*
X18804Y-04880D01*
X18994Y-04595D02*
X18956Y-04571D01*
X18937Y-04547D01*
X18918Y-04499D01*
X18918Y-04476D01*
X18937Y-04428D01*
X18956Y-04404D01*
X18994Y-04380D01*
X19071Y-04380D01*
X19109Y-04404D01*
X19128Y-04428D01*
X19147Y-04476D01*
X19147Y-04499D01*
X19128Y-04547D01*
X19109Y-04571D01*
X19071Y-04595D01*
X18994Y-04595D01*
X18956Y-04618D01*
X18937Y-04642D01*
X18918Y-04690D01*
X18918Y-04785D01*
X18937Y-04833D01*
X18956Y-04857D01*
X18994Y-04880D01*
X19071Y-04880D01*
X19109Y-04857D01*
X19128Y-04833D01*
X19147Y-04785D01*
X19147Y-04690D01*
X19128Y-04642D01*
X19109Y-04618D01*
X19071Y-04595D01*
X19375Y-04595D02*
X19337Y-04571D01*
X19318Y-04547D01*
X19299Y-04499D01*
X19299Y-04476D01*
X19318Y-04428D01*
X19337Y-04404D01*
X19375Y-04380D01*
X19452Y-04380D01*
X19490Y-04404D01*
X19509Y-04428D01*
X19528Y-04476D01*
X19528Y-04499D01*
X19509Y-04547D01*
X19490Y-04571D01*
X19452Y-04595D01*
X19375Y-04595D01*
X19337Y-04618D01*
X19318Y-04642D01*
X19299Y-04690D01*
X19299Y-04785D01*
X19318Y-04833D01*
X19337Y-04857D01*
X19375Y-04880D01*
X19452Y-04880D01*
X19490Y-04857D01*
X19509Y-04833D01*
X19528Y-04785D01*
X19528Y-04690D01*
X19509Y-04642D01*
X19490Y-04618D01*
X19452Y-04595D01*
X19699Y-04880D02*
X19699Y-04380D01*
X19852Y-04380D01*
X19890Y-04404D01*
X19909Y-04428D01*
X19928Y-04476D01*
X19928Y-04547D01*
X19909Y-04595D01*
X19890Y-04618D01*
X19852Y-04642D01*
X19699Y-04642D01*
G54D17*
X02674Y-09663D02*
X02674Y-10091D01*
X02646Y-10177D01*
X02589Y-10234D01*
X02503Y-10263D01*
X02446Y-10263D01*
X03274Y-10263D02*
X02931Y-10263D01*
X03103Y-10263D02*
X03103Y-09663D01*
X03046Y-09749D01*
X02988Y-09806D01*
X02931Y-09834D01*
X11079Y-03903D02*
X11679Y-03503D01*
X11079Y-03503D02*
X11679Y-03903D01*
X11679Y-02961D02*
X11679Y-03304D01*
X11679Y-03132D02*
X11079Y-03132D01*
X11165Y-03189D01*
X11222Y-03247D01*
X11250Y-03304D01*
G54D11*
X10198Y-04281D02*
X10198Y-04506D01*
X10198Y-04393D02*
X09804Y-04393D01*
X09861Y-04431D01*
X09898Y-04468D01*
X09917Y-04506D01*
X09842Y-04131D02*
X09823Y-04112D01*
X09804Y-04075D01*
X09804Y-03981D01*
X09823Y-03943D01*
X09842Y-03925D01*
X09880Y-03906D01*
X09917Y-03906D01*
X09973Y-03925D01*
X10198Y-04150D01*
X10198Y-03906D01*
X10198Y-03737D02*
X09804Y-03737D01*
X10086Y-03606D01*
X09804Y-03475D01*
X10198Y-03475D01*
X10198Y-03287D02*
X09804Y-03287D01*
X09992Y-03287D02*
X09992Y-03062D01*
X10198Y-03062D02*
X09804Y-03062D01*
X09936Y-02912D02*
X09936Y-02705D01*
X10198Y-02912D01*
X10198Y-02705D01*
G54D18*
X13759Y-04976D02*
X13759Y-04677D01*
X13887Y-04961D02*
X13930Y-04976D01*
X14001Y-04976D01*
X14029Y-04961D01*
X14044Y-04947D01*
X14058Y-04919D01*
X14058Y-04890D01*
X14044Y-04862D01*
X14029Y-04847D01*
X14001Y-04833D01*
X13944Y-04819D01*
X13915Y-04805D01*
X13901Y-04790D01*
X13887Y-04762D01*
X13887Y-04733D01*
X13901Y-04705D01*
X13915Y-04691D01*
X13944Y-04677D01*
X14015Y-04677D01*
X14058Y-04691D01*
X14186Y-04976D02*
X14186Y-04677D01*
X14300Y-04677D01*
X14329Y-04691D01*
X14343Y-04705D01*
X14357Y-04733D01*
X14357Y-04776D01*
X14343Y-04805D01*
X14329Y-04819D01*
X14300Y-04833D01*
X14186Y-04833D01*
X14414Y-05004D02*
X14642Y-05004D01*
X14685Y-04976D02*
X14841Y-04776D01*
X14685Y-04776D02*
X14841Y-04976D01*
X14998Y-04805D02*
X14969Y-04790D01*
X14955Y-04776D01*
X14941Y-04748D01*
X14941Y-04733D01*
X14955Y-04705D01*
X14969Y-04691D01*
X14998Y-04677D01*
X15055Y-04677D01*
X15083Y-04691D01*
X15098Y-04705D01*
X15112Y-04733D01*
X15112Y-04748D01*
X15098Y-04776D01*
X15083Y-04790D01*
X15055Y-04805D01*
X14998Y-04805D01*
X14969Y-04819D01*
X14955Y-04833D01*
X14941Y-04862D01*
X14941Y-04919D01*
X14955Y-04947D01*
X14969Y-04961D01*
X14998Y-04976D01*
X15055Y-04976D01*
X15083Y-04961D01*
X15098Y-04947D01*
X15112Y-04919D01*
X15112Y-04862D01*
X15098Y-04833D01*
X15083Y-04819D01*
X15055Y-04805D01*
X15283Y-04805D02*
X15254Y-04790D01*
X15240Y-04776D01*
X15226Y-04748D01*
X15226Y-04733D01*
X15240Y-04705D01*
X15254Y-04691D01*
X15283Y-04677D01*
X15340Y-04677D01*
X15368Y-04691D01*
X15383Y-04705D01*
X15397Y-04733D01*
X15397Y-04748D01*
X15383Y-04776D01*
X15368Y-04790D01*
X15340Y-04805D01*
X15283Y-04805D01*
X15254Y-04819D01*
X15240Y-04833D01*
X15226Y-04862D01*
X15226Y-04919D01*
X15240Y-04947D01*
X15254Y-04961D01*
X15283Y-04976D01*
X15340Y-04976D01*
X15368Y-04961D01*
X15383Y-04947D01*
X15397Y-04919D01*
X15397Y-04862D01*
X15383Y-04833D01*
X15368Y-04819D01*
X15340Y-04805D01*
G54D20*
X06142Y-06741D02*
X06142Y-07227D01*
X06161Y-07284D01*
X06180Y-07312D01*
X06218Y-07341D01*
X06295Y-07341D01*
X06333Y-07312D01*
X06352Y-07284D01*
X06371Y-07227D01*
X06371Y-06741D01*
X06542Y-07312D02*
X06599Y-07341D01*
X06695Y-07341D01*
X06733Y-07312D01*
X06752Y-07284D01*
X06771Y-07227D01*
X06771Y-07169D01*
X06752Y-07112D01*
X06733Y-07084D01*
X06695Y-07055D01*
X06618Y-07027D01*
X06580Y-06998D01*
X06561Y-06969D01*
X06542Y-06912D01*
X06542Y-06855D01*
X06561Y-06798D01*
X06580Y-06769D01*
X06618Y-06741D01*
X06714Y-06741D01*
X06771Y-06769D01*
X07076Y-07027D02*
X07133Y-07055D01*
X07152Y-07084D01*
X07171Y-07141D01*
X07171Y-07227D01*
X07152Y-07284D01*
X07133Y-07312D01*
X07095Y-07341D01*
X06942Y-07341D01*
X06942Y-06741D01*
X07076Y-06741D01*
X07114Y-06769D01*
X07133Y-06798D01*
X07152Y-06855D01*
X07152Y-06912D01*
X07133Y-06969D01*
X07114Y-06998D01*
X07076Y-07027D01*
X06942Y-07027D01*
G54D21*
X07525Y-08971D02*
X07284Y-08971D01*
X07284Y-08933D01*
X07296Y-08911D01*
X07318Y-08896D01*
X07341Y-08888D01*
X07387Y-08881D01*
X07422Y-08881D01*
X07468Y-08888D01*
X07491Y-08896D01*
X07514Y-08911D01*
X07525Y-08933D01*
X07525Y-08971D01*
X07525Y-08731D02*
X07525Y-08821D01*
X07525Y-08776D02*
X07284Y-08776D01*
X07318Y-08791D01*
X07341Y-08806D01*
X07353Y-08821D01*
G54D22*
X07502Y-08454D02*
X07515Y-08428D01*
X07515Y-08385D01*
X07502Y-08368D01*
X07489Y-08359D01*
X07462Y-08351D01*
X07435Y-08351D01*
X07409Y-08359D01*
X07395Y-08368D01*
X07382Y-08385D01*
X07369Y-08419D01*
X07355Y-08437D01*
X07342Y-08445D01*
X07315Y-08454D01*
X07289Y-08454D01*
X07262Y-08445D01*
X07249Y-08437D01*
X07235Y-08419D01*
X07235Y-08377D01*
X07249Y-08351D01*
X07502Y-08197D02*
X07515Y-08214D01*
X07515Y-08248D01*
X07502Y-08266D01*
X07489Y-08274D01*
X07462Y-08283D01*
X07382Y-08283D01*
X07355Y-08274D01*
X07342Y-08266D01*
X07329Y-08248D01*
X07329Y-08214D01*
X07342Y-08197D01*
X07329Y-08146D02*
X07329Y-08077D01*
X07235Y-08120D02*
X07475Y-08120D01*
X07502Y-08112D01*
X07515Y-08094D01*
X07515Y-08077D01*
X07515Y-08017D02*
X07235Y-08017D01*
X07409Y-08000D02*
X07515Y-07949D01*
X07329Y-07949D02*
X07435Y-08017D01*
X07329Y-07888D02*
X07515Y-07845D01*
X07329Y-07803D02*
X07515Y-07845D01*
X07582Y-07863D01*
X07595Y-07871D01*
X07609Y-07888D01*
G54D21*
X08246Y-08979D02*
X08005Y-08979D01*
X08005Y-08941D01*
X08017Y-08919D01*
X08039Y-08904D01*
X08062Y-08896D01*
X08108Y-08889D01*
X08143Y-08889D01*
X08189Y-08896D01*
X08212Y-08904D01*
X08235Y-08919D01*
X08246Y-08941D01*
X08246Y-08979D01*
X08028Y-08829D02*
X08017Y-08822D01*
X08005Y-08807D01*
X08005Y-08769D01*
X08017Y-08754D01*
X08028Y-08747D01*
X08051Y-08739D01*
X08074Y-08739D01*
X08108Y-08747D01*
X08246Y-08837D01*
X08246Y-08739D01*
G54D22*
X08222Y-08454D02*
X08235Y-08428D01*
X08235Y-08385D01*
X08222Y-08368D01*
X08209Y-08359D01*
X08182Y-08351D01*
X08155Y-08351D01*
X08129Y-08359D01*
X08115Y-08368D01*
X08102Y-08385D01*
X08089Y-08419D01*
X08075Y-08437D01*
X08062Y-08445D01*
X08035Y-08454D01*
X08009Y-08454D01*
X07982Y-08445D01*
X07969Y-08437D01*
X07955Y-08419D01*
X07955Y-08377D01*
X07969Y-08351D01*
X08222Y-08197D02*
X08235Y-08214D01*
X08235Y-08248D01*
X08222Y-08266D01*
X08209Y-08274D01*
X08182Y-08283D01*
X08102Y-08283D01*
X08075Y-08274D01*
X08062Y-08266D01*
X08049Y-08248D01*
X08049Y-08214D01*
X08062Y-08197D01*
X08049Y-08146D02*
X08049Y-08077D01*
X07955Y-08120D02*
X08195Y-08120D01*
X08222Y-08112D01*
X08235Y-08094D01*
X08235Y-08077D01*
X08235Y-08017D02*
X07955Y-08017D01*
X08129Y-08000D02*
X08235Y-07949D01*
X08049Y-07949D02*
X08155Y-08017D01*
X08049Y-07888D02*
X08235Y-07845D01*
X08049Y-07803D02*
X08235Y-07845D01*
X08302Y-07863D01*
X08315Y-07871D01*
X08329Y-07888D01*
G54D13*
X09317Y-09110D02*
X09317Y-08810D01*
X09389Y-08810D01*
X09432Y-08825D01*
X09460Y-08853D01*
X09475Y-08882D01*
X09489Y-08939D01*
X09489Y-08982D01*
X09475Y-09039D01*
X09460Y-09068D01*
X09432Y-09096D01*
X09389Y-09110D01*
X09317Y-09110D01*
X09589Y-08810D02*
X09775Y-08810D01*
X09675Y-08925D01*
X09717Y-08925D01*
X09746Y-08939D01*
X09760Y-08953D01*
X09775Y-08982D01*
X09775Y-09053D01*
X09760Y-09082D01*
X09746Y-09096D01*
X09717Y-09110D01*
X09632Y-09110D01*
X09603Y-09096D01*
X09589Y-09082D01*
X08893Y-08593D02*
X08893Y-08407D01*
X09008Y-08507D01*
X09008Y-08465D01*
X09022Y-08436D01*
X09036Y-08422D01*
X09065Y-08407D01*
X09136Y-08407D01*
X09165Y-08422D01*
X09179Y-08436D01*
X09193Y-08465D01*
X09193Y-08550D01*
X09179Y-08579D01*
X09165Y-08593D01*
X09165Y-08279D02*
X09179Y-08264D01*
X09193Y-08279D01*
X09179Y-08293D01*
X09165Y-08279D01*
X09193Y-08279D01*
X08893Y-08007D02*
X08893Y-08064D01*
X08908Y-08093D01*
X08922Y-08107D01*
X08965Y-08136D01*
X09022Y-08150D01*
X09136Y-08150D01*
X09165Y-08136D01*
X09179Y-08121D01*
X09193Y-08093D01*
X09193Y-08036D01*
X09179Y-08007D01*
X09165Y-07993D01*
X09136Y-07978D01*
X09065Y-07978D01*
X09036Y-07993D01*
X09022Y-08007D01*
X09008Y-08036D01*
X09008Y-08093D01*
X09022Y-08121D01*
X09036Y-08136D01*
X09065Y-08150D01*
X08993Y-07878D02*
X09193Y-07807D01*
X08993Y-07735D01*
X09222Y-07692D02*
X09222Y-07463D01*
X08893Y-07420D02*
X08893Y-07220D01*
X09193Y-07420D01*
X09193Y-07220D01*
X09179Y-06991D02*
X09193Y-07020D01*
X09193Y-07077D01*
X09179Y-07106D01*
X09151Y-07120D01*
X09036Y-07120D01*
X09008Y-07106D01*
X08993Y-07077D01*
X08993Y-07020D01*
X09008Y-06991D01*
X09036Y-06977D01*
X09065Y-06977D01*
X09093Y-07120D01*
X08993Y-06849D02*
X09193Y-06849D01*
X09022Y-06849D02*
X09008Y-06834D01*
X08993Y-06806D01*
X08993Y-06763D01*
X09008Y-06734D01*
X09036Y-06720D01*
X09193Y-06720D01*
X10415Y-09102D02*
X10415Y-08802D01*
X10487Y-08802D01*
X10530Y-08817D01*
X10558Y-08845D01*
X10573Y-08874D01*
X10587Y-08931D01*
X10587Y-08974D01*
X10573Y-09031D01*
X10558Y-09060D01*
X10530Y-09088D01*
X10487Y-09102D01*
X10415Y-09102D01*
X10844Y-08902D02*
X10844Y-09102D01*
X10773Y-08788D02*
X10701Y-09002D01*
X10887Y-09002D01*
X10043Y-08593D02*
X10043Y-08407D01*
X10158Y-08507D01*
X10158Y-08465D01*
X10172Y-08436D01*
X10186Y-08422D01*
X10215Y-08407D01*
X10286Y-08407D01*
X10315Y-08422D01*
X10329Y-08436D01*
X10343Y-08465D01*
X10343Y-08550D01*
X10329Y-08579D01*
X10315Y-08593D01*
X10315Y-08279D02*
X10329Y-08264D01*
X10343Y-08279D01*
X10329Y-08293D01*
X10315Y-08279D01*
X10343Y-08279D01*
X10043Y-08007D02*
X10043Y-08064D01*
X10058Y-08093D01*
X10072Y-08107D01*
X10115Y-08136D01*
X10172Y-08150D01*
X10286Y-08150D01*
X10315Y-08136D01*
X10329Y-08121D01*
X10343Y-08093D01*
X10343Y-08036D01*
X10329Y-08007D01*
X10315Y-07993D01*
X10286Y-07978D01*
X10215Y-07978D01*
X10186Y-07993D01*
X10172Y-08007D01*
X10158Y-08036D01*
X10158Y-08093D01*
X10172Y-08121D01*
X10186Y-08136D01*
X10215Y-08150D01*
X10143Y-07878D02*
X10343Y-07807D01*
X10143Y-07735D01*
X10372Y-07692D02*
X10372Y-07463D01*
X10043Y-07420D02*
X10043Y-07220D01*
X10343Y-07420D01*
X10343Y-07220D01*
X10329Y-06991D02*
X10343Y-07020D01*
X10343Y-07077D01*
X10329Y-07106D01*
X10301Y-07120D01*
X10186Y-07120D01*
X10158Y-07106D01*
X10143Y-07077D01*
X10143Y-07020D01*
X10158Y-06991D01*
X10186Y-06977D01*
X10215Y-06977D01*
X10243Y-07120D01*
X10143Y-06849D02*
X10343Y-06849D01*
X10172Y-06849D02*
X10158Y-06834D01*
X10143Y-06806D01*
X10143Y-06763D01*
X10158Y-06734D01*
X10186Y-06720D01*
X10343Y-06720D01*
X23179Y-04499D02*
X23179Y-04199D01*
X23251Y-04199D01*
X23294Y-04214D01*
X23322Y-04242D01*
X23337Y-04271D01*
X23351Y-04328D01*
X23351Y-04371D01*
X23337Y-04428D01*
X23322Y-04457D01*
X23294Y-04485D01*
X23251Y-04499D01*
X23179Y-04499D01*
X23451Y-04199D02*
X23651Y-04199D01*
X23522Y-04499D01*
X21429Y-03734D02*
X21429Y-03434D01*
X21501Y-03434D01*
X21544Y-03449D01*
X21572Y-03477D01*
X21587Y-03506D01*
X21601Y-03563D01*
X21601Y-03606D01*
X21587Y-03663D01*
X21572Y-03692D01*
X21544Y-03720D01*
X21501Y-03734D01*
X21429Y-03734D01*
X21729Y-03734D02*
X21729Y-03434D01*
X21930Y-03434D02*
X21987Y-03434D01*
X22015Y-03449D01*
X22044Y-03477D01*
X22058Y-03534D01*
X22058Y-03634D01*
X22044Y-03692D01*
X22015Y-03720D01*
X21987Y-03734D01*
X21930Y-03734D01*
X21901Y-03720D01*
X21872Y-03692D01*
X21858Y-03634D01*
X21858Y-03534D01*
X21872Y-03477D01*
X21901Y-03449D01*
X21930Y-03434D01*
X22186Y-03734D02*
X22186Y-03434D01*
X22258Y-03434D01*
X22301Y-03449D01*
X22329Y-03477D01*
X22344Y-03506D01*
X22358Y-03563D01*
X22358Y-03606D01*
X22344Y-03663D01*
X22329Y-03692D01*
X22301Y-03720D01*
X22258Y-03734D01*
X22186Y-03734D01*
X22486Y-03577D02*
X22586Y-03577D01*
X22629Y-03734D02*
X22486Y-03734D01*
X22486Y-03434D01*
X22629Y-03434D01*
X22743Y-03720D02*
X22786Y-03734D01*
X22857Y-03734D01*
X22886Y-03720D01*
X22900Y-03706D01*
X22915Y-03677D01*
X22915Y-03649D01*
X22900Y-03620D01*
X22886Y-03606D01*
X22857Y-03592D01*
X22800Y-03577D01*
X22772Y-03563D01*
X22757Y-03549D01*
X22743Y-03520D01*
X22743Y-03492D01*
X22757Y-03463D01*
X22772Y-03449D01*
X22800Y-03434D01*
X22872Y-03434D01*
X22915Y-03449D01*
X23215Y-03706D02*
X23201Y-03720D01*
X23158Y-03734D01*
X23129Y-03734D01*
X23086Y-03720D01*
X23058Y-03692D01*
X23043Y-03663D01*
X23029Y-03606D01*
X23029Y-03563D01*
X23043Y-03506D01*
X23058Y-03477D01*
X23086Y-03449D01*
X23129Y-03434D01*
X23158Y-03434D01*
X23201Y-03449D01*
X23215Y-03463D01*
X23343Y-03734D02*
X23343Y-03434D01*
X23343Y-03577D02*
X23515Y-03577D01*
X23515Y-03734D02*
X23515Y-03434D01*
X23782Y-02199D02*
X23482Y-02199D01*
X23482Y-02127D01*
X23497Y-02084D01*
X23525Y-02056D01*
X23554Y-02041D01*
X23611Y-02027D01*
X23654Y-02027D01*
X23711Y-02041D01*
X23740Y-02056D01*
X23768Y-02084D01*
X23782Y-02127D01*
X23782Y-02199D01*
X23482Y-01770D02*
X23482Y-01827D01*
X23497Y-01856D01*
X23511Y-01870D01*
X23554Y-01899D01*
X23611Y-01913D01*
X23725Y-01913D01*
X23754Y-01899D01*
X23768Y-01884D01*
X23782Y-01856D01*
X23782Y-01799D01*
X23768Y-01770D01*
X23754Y-01756D01*
X23725Y-01741D01*
X23654Y-01741D01*
X23625Y-01756D01*
X23611Y-01770D01*
X23597Y-01799D01*
X23597Y-01856D01*
X23611Y-01884D01*
X23625Y-01899D01*
X23654Y-01913D01*
X22788Y-02221D02*
X22773Y-02250D01*
X22773Y-02293D01*
X22788Y-02336D01*
X22816Y-02364D01*
X22845Y-02379D01*
X22902Y-02393D01*
X22945Y-02393D01*
X23002Y-02379D01*
X23031Y-02364D01*
X23059Y-02336D01*
X23073Y-02293D01*
X23073Y-02264D01*
X23059Y-02221D01*
X23045Y-02207D01*
X22945Y-02207D01*
X22945Y-02264D01*
X23073Y-01907D02*
X22931Y-02007D01*
X23073Y-02079D02*
X22773Y-02079D01*
X22773Y-01964D01*
X22788Y-01936D01*
X22802Y-01921D01*
X22831Y-01907D01*
X22873Y-01907D01*
X22902Y-01921D01*
X22916Y-01936D01*
X22931Y-01964D01*
X22931Y-02079D01*
X23073Y-01779D02*
X22773Y-01779D01*
X23073Y-01607D01*
X22773Y-01607D01*
X20888Y-02984D02*
X20888Y-02684D01*
X20960Y-02684D01*
X21003Y-02699D01*
X21031Y-02727D01*
X21046Y-02756D01*
X21060Y-02813D01*
X21060Y-02856D01*
X21046Y-02913D01*
X21031Y-02942D01*
X21003Y-02970D01*
X20960Y-02984D01*
X20888Y-02984D01*
X21331Y-02684D02*
X21188Y-02684D01*
X21174Y-02827D01*
X21188Y-02813D01*
X21217Y-02799D01*
X21288Y-02799D01*
X21317Y-02813D01*
X21331Y-02827D01*
X21346Y-02856D01*
X21346Y-02927D01*
X21331Y-02956D01*
X21317Y-02970D01*
X21288Y-02984D01*
X21217Y-02984D01*
X21188Y-02970D01*
X21174Y-02956D01*
X22013Y-02185D02*
X21871Y-02285D01*
X22013Y-02357D02*
X21713Y-02357D01*
X21713Y-02242D01*
X21728Y-02214D01*
X21742Y-02199D01*
X21771Y-02185D01*
X21813Y-02185D01*
X21842Y-02199D01*
X21856Y-02214D01*
X21871Y-02242D01*
X21871Y-02357D01*
X21856Y-02057D02*
X21856Y-01957D01*
X22013Y-01914D02*
X22013Y-02057D01*
X21713Y-02057D01*
X21713Y-01914D01*
X22013Y-01786D02*
X21713Y-01786D01*
X21713Y-01714D01*
X21728Y-01671D01*
X21756Y-01643D01*
X21785Y-01628D01*
X21842Y-01614D01*
X21885Y-01614D01*
X21942Y-01628D01*
X21971Y-01643D01*
X21999Y-01671D01*
X22013Y-01714D01*
X22013Y-01786D01*
X10053Y-02043D02*
X10067Y-02057D01*
X10081Y-02100D01*
X10081Y-02129D01*
X10067Y-02172D01*
X10039Y-02200D01*
X10010Y-02215D01*
X09953Y-02229D01*
X09910Y-02229D01*
X09853Y-02215D01*
X09824Y-02200D01*
X09796Y-02172D01*
X09781Y-02129D01*
X09781Y-02100D01*
X09796Y-02057D01*
X09810Y-02043D01*
X09810Y-01929D02*
X09796Y-01915D01*
X09781Y-01886D01*
X09781Y-01815D01*
X09796Y-01786D01*
X09810Y-01772D01*
X09839Y-01757D01*
X09867Y-01757D01*
X09910Y-01772D01*
X10081Y-01943D01*
X10081Y-01757D01*
X08928Y-02357D02*
X08914Y-02343D01*
X08899Y-02314D01*
X08899Y-02243D01*
X08914Y-02214D01*
X08928Y-02200D01*
X08957Y-02185D01*
X08985Y-02185D01*
X09028Y-02200D01*
X09199Y-02371D01*
X09199Y-02185D01*
X08928Y-02071D02*
X08914Y-02057D01*
X08899Y-02028D01*
X08899Y-01957D01*
X08914Y-01928D01*
X08928Y-01914D01*
X08957Y-01899D01*
X08985Y-01899D01*
X09028Y-01914D01*
X09199Y-02085D01*
X09199Y-01899D01*
X08999Y-01642D02*
X09199Y-01642D01*
X08999Y-01771D02*
X09157Y-01771D01*
X09185Y-01756D01*
X09199Y-01728D01*
X09199Y-01685D01*
X09185Y-01656D01*
X09171Y-01642D01*
G54D21*
X19973Y-01385D02*
X19921Y-01270D01*
X19883Y-01385D02*
X19883Y-01144D01*
X19943Y-01144D01*
X19958Y-01156D01*
X19966Y-01167D01*
X19973Y-01190D01*
X19973Y-01224D01*
X19966Y-01247D01*
X19958Y-01259D01*
X19943Y-01270D01*
X19883Y-01270D01*
X20108Y-01224D02*
X20108Y-01385D01*
X20070Y-01133D02*
X20033Y-01305D01*
X20130Y-01305D01*
G54D22*
X20724Y-01346D02*
X20621Y-01346D01*
X20673Y-01346D02*
X20673Y-01066D01*
X20656Y-01106D01*
X20638Y-01133D01*
X20621Y-01146D01*
X20801Y-01346D02*
X20801Y-01066D01*
X20904Y-01346D02*
X20827Y-01186D01*
X20904Y-01066D02*
X20801Y-01226D01*
G54D21*
X20725Y-02378D02*
X20673Y-02263D01*
X20635Y-02378D02*
X20635Y-02137D01*
X20695Y-02137D01*
X20710Y-02149D01*
X20718Y-02160D01*
X20725Y-02183D01*
X20725Y-02217D01*
X20718Y-02240D01*
X20710Y-02252D01*
X20695Y-02263D01*
X20635Y-02263D01*
X20800Y-02378D02*
X20830Y-02378D01*
X20845Y-02367D01*
X20852Y-02355D01*
X20867Y-02321D01*
X20875Y-02275D01*
X20875Y-02183D01*
X20867Y-02160D01*
X20860Y-02149D01*
X20845Y-02137D01*
X20815Y-02137D01*
X20800Y-02149D01*
X20792Y-02160D01*
X20785Y-02183D01*
X20785Y-02240D01*
X20792Y-02263D01*
X20800Y-02275D01*
X20815Y-02286D01*
X20845Y-02286D01*
X20860Y-02275D01*
X20867Y-02263D01*
X20875Y-02240D01*
G54D22*
X20724Y-01916D02*
X20621Y-01916D01*
X20673Y-01916D02*
X20673Y-01636D01*
X20656Y-01676D01*
X20638Y-01703D01*
X20621Y-01716D01*
X20801Y-01916D02*
X20801Y-01636D01*
X20904Y-01916D02*
X20827Y-01756D01*
X20904Y-01636D02*
X20801Y-01796D01*
G54D21*
X07817Y-06472D02*
X07702Y-06524D01*
X07817Y-06562D02*
X07576Y-06562D01*
X07576Y-06502D01*
X07588Y-06487D01*
X07599Y-06479D01*
X07622Y-06472D01*
X07656Y-06472D01*
X07679Y-06479D01*
X07691Y-06487D01*
X07702Y-06502D01*
X07702Y-06562D01*
X07817Y-06322D02*
X07817Y-06412D01*
X07817Y-06367D02*
X07576Y-06367D01*
X07610Y-06382D01*
X07633Y-06397D01*
X07645Y-06412D01*
G54D22*
X07562Y-05990D02*
X07549Y-05981D01*
X07535Y-05964D01*
X07535Y-05921D01*
X07549Y-05904D01*
X07562Y-05895D01*
X07589Y-05887D01*
X07615Y-05887D01*
X07655Y-05895D01*
X07815Y-05998D01*
X07815Y-05887D01*
X07535Y-05827D02*
X07535Y-05707D01*
X07815Y-05784D01*
X07815Y-05536D02*
X07682Y-05596D01*
X07815Y-05639D02*
X07535Y-05639D01*
X07535Y-05571D01*
X07549Y-05553D01*
X07562Y-05545D01*
X07589Y-05536D01*
X07629Y-05536D01*
X07655Y-05545D01*
X07669Y-05553D01*
X07682Y-05571D01*
X07682Y-05639D01*
G54D21*
X07493Y-04779D02*
X07441Y-04664D01*
X07403Y-04779D02*
X07403Y-04538D01*
X07463Y-04538D01*
X07478Y-04550D01*
X07486Y-04561D01*
X07493Y-04584D01*
X07493Y-04618D01*
X07486Y-04641D01*
X07478Y-04653D01*
X07463Y-04664D01*
X07403Y-04664D01*
X07553Y-04561D02*
X07560Y-04550D01*
X07575Y-04538D01*
X07613Y-04538D01*
X07628Y-04550D01*
X07635Y-04561D01*
X07643Y-04584D01*
X07643Y-04607D01*
X07635Y-04641D01*
X07545Y-04779D01*
X07643Y-04779D01*
G54D22*
X07995Y-04403D02*
X08004Y-04390D01*
X08021Y-04376D01*
X08064Y-04376D01*
X08081Y-04390D01*
X08090Y-04403D01*
X08098Y-04430D01*
X08098Y-04456D01*
X08090Y-04496D01*
X07987Y-04656D01*
X08098Y-04656D01*
X08158Y-04376D02*
X08278Y-04376D01*
X08201Y-04656D01*
X08449Y-04656D02*
X08389Y-04523D01*
X08346Y-04656D02*
X08346Y-04376D01*
X08414Y-04376D01*
X08432Y-04390D01*
X08440Y-04403D01*
X08449Y-04430D01*
X08449Y-04470D01*
X08440Y-04496D01*
X08432Y-04510D01*
X08414Y-04523D01*
X08346Y-04523D01*
G54D21*
X10902Y-06193D02*
X10850Y-06078D01*
X10812Y-06193D02*
X10812Y-05952D01*
X10872Y-05952D01*
X10887Y-05964D01*
X10895Y-05975D01*
X10902Y-05998D01*
X10902Y-06032D01*
X10895Y-06055D01*
X10887Y-06067D01*
X10872Y-06078D01*
X10812Y-06078D01*
X11044Y-05952D02*
X10969Y-05952D01*
X10962Y-06067D01*
X10969Y-06055D01*
X10984Y-06044D01*
X11022Y-06044D01*
X11037Y-06055D01*
X11044Y-06067D01*
X11052Y-06090D01*
X11052Y-06147D01*
X11044Y-06170D01*
X11037Y-06182D01*
X11022Y-06193D01*
X10984Y-06193D01*
X10969Y-06182D01*
X10962Y-06170D01*
G54D22*
X10061Y-06000D02*
X10061Y-06186D01*
X10018Y-05893D02*
X09975Y-06093D01*
X10087Y-06093D01*
X10138Y-05906D02*
X10258Y-05906D01*
X10181Y-06186D01*
X10429Y-06186D02*
X10369Y-06053D01*
X10326Y-06186D02*
X10326Y-05906D01*
X10394Y-05906D01*
X10412Y-05920D01*
X10420Y-05933D01*
X10429Y-05960D01*
X10429Y-06000D01*
X10420Y-06026D01*
X10412Y-06040D01*
X10394Y-06053D01*
X10326Y-06053D01*
G54D21*
X09513Y-05409D02*
X09461Y-05294D01*
X09423Y-05409D02*
X09423Y-05168D01*
X09483Y-05168D01*
X09498Y-05180D01*
X09506Y-05191D01*
X09513Y-05214D01*
X09513Y-05248D01*
X09506Y-05271D01*
X09498Y-05283D01*
X09483Y-05294D01*
X09423Y-05294D01*
X09648Y-05168D02*
X09618Y-05168D01*
X09603Y-05180D01*
X09595Y-05191D01*
X09580Y-05225D01*
X09573Y-05271D01*
X09573Y-05363D01*
X09580Y-05386D01*
X09588Y-05398D01*
X09603Y-05409D01*
X09633Y-05409D01*
X09648Y-05398D01*
X09655Y-05386D01*
X09663Y-05363D01*
X09663Y-05306D01*
X09655Y-05283D01*
X09648Y-05271D01*
X09633Y-05260D01*
X09603Y-05260D01*
X09588Y-05271D01*
X09580Y-05283D01*
X09573Y-05306D01*
G54D22*
X08681Y-05170D02*
X08681Y-05356D01*
X08638Y-05063D02*
X08595Y-05263D01*
X08707Y-05263D01*
X08758Y-05076D02*
X08878Y-05076D01*
X08801Y-05356D01*
X09049Y-05356D02*
X08989Y-05223D01*
X08946Y-05356D02*
X08946Y-05076D01*
X09014Y-05076D01*
X09032Y-05090D01*
X09040Y-05103D01*
X09049Y-05130D01*
X09049Y-05170D01*
X09040Y-05196D01*
X09032Y-05210D01*
X09014Y-05223D01*
X08946Y-05223D01*
G54D21*
X13518Y-04047D02*
X13530Y-04054D01*
X13541Y-04077D01*
X13541Y-04092D01*
X13530Y-04114D01*
X13507Y-04129D01*
X13484Y-04137D01*
X13438Y-04144D01*
X13403Y-04144D01*
X13357Y-04137D01*
X13334Y-04129D01*
X13312Y-04114D01*
X13300Y-04092D01*
X13300Y-04077D01*
X13312Y-04054D01*
X13323Y-04047D01*
X13300Y-03995D02*
X13300Y-03897D01*
X13392Y-03950D01*
X13392Y-03927D01*
X13403Y-03912D01*
X13415Y-03905D01*
X13438Y-03897D01*
X13495Y-03897D01*
X13518Y-03905D01*
X13530Y-03912D01*
X13541Y-03927D01*
X13541Y-03972D01*
X13530Y-03987D01*
X13518Y-03995D01*
G54D22*
X13115Y-04128D02*
X13115Y-04231D01*
X13115Y-04179D02*
X12835Y-04179D01*
X12875Y-04196D01*
X12902Y-04214D01*
X12915Y-04231D01*
X12955Y-04025D02*
X12942Y-04043D01*
X12929Y-04051D01*
X12902Y-04060D01*
X12889Y-04060D01*
X12862Y-04051D01*
X12849Y-04043D01*
X12835Y-04025D01*
X12835Y-03991D01*
X12849Y-03974D01*
X12862Y-03965D01*
X12889Y-03957D01*
X12902Y-03957D01*
X12929Y-03965D01*
X12942Y-03974D01*
X12955Y-03991D01*
X12955Y-04025D01*
X12969Y-04043D01*
X12982Y-04051D01*
X13009Y-04060D01*
X13062Y-04060D01*
X13089Y-04051D01*
X13102Y-04043D01*
X13115Y-04025D01*
X13115Y-03991D01*
X13102Y-03974D01*
X13089Y-03965D01*
X13062Y-03957D01*
X13009Y-03957D01*
X12982Y-03965D01*
X12969Y-03974D01*
X12955Y-03991D01*
X12929Y-03880D02*
X13209Y-03880D01*
X12942Y-03880D02*
X12929Y-03863D01*
X12929Y-03829D01*
X12942Y-03812D01*
X12955Y-03803D01*
X12982Y-03794D01*
X13062Y-03794D01*
X13089Y-03803D01*
X13102Y-03812D01*
X13115Y-03829D01*
X13115Y-03863D01*
X13102Y-03880D01*
G54D21*
X08678Y-04098D02*
X08671Y-04110D01*
X08648Y-04121D01*
X08633Y-04121D01*
X08611Y-04110D01*
X08596Y-04087D01*
X08588Y-04064D01*
X08581Y-04018D01*
X08581Y-03983D01*
X08588Y-03937D01*
X08596Y-03914D01*
X08611Y-03892D01*
X08633Y-03880D01*
X08648Y-03880D01*
X08671Y-03892D01*
X08678Y-03903D01*
X08828Y-04121D02*
X08738Y-04121D01*
X08783Y-04121D02*
X08783Y-03880D01*
X08768Y-03914D01*
X08753Y-03937D01*
X08738Y-03949D01*
G54D22*
X08907Y-03396D02*
X08924Y-03396D01*
X08941Y-03410D01*
X08950Y-03423D01*
X08959Y-03450D01*
X08967Y-03503D01*
X08967Y-03570D01*
X08959Y-03623D01*
X08950Y-03650D01*
X08941Y-03663D01*
X08924Y-03676D01*
X08907Y-03676D01*
X08890Y-03663D01*
X08881Y-03650D01*
X08873Y-03623D01*
X08864Y-03570D01*
X08864Y-03503D01*
X08873Y-03450D01*
X08881Y-03423D01*
X08890Y-03410D01*
X08907Y-03396D01*
X09121Y-03490D02*
X09121Y-03676D01*
X09044Y-03490D02*
X09044Y-03636D01*
X09052Y-03663D01*
X09070Y-03676D01*
X09095Y-03676D01*
X09112Y-03663D01*
X09121Y-03650D01*
X09301Y-03676D02*
X09198Y-03676D01*
X09250Y-03676D02*
X09250Y-03396D01*
X09233Y-03436D01*
X09215Y-03463D01*
X09198Y-03476D01*
G54D21*
X08396Y-03539D02*
X08281Y-03591D01*
X08396Y-03629D02*
X08155Y-03629D01*
X08155Y-03569D01*
X08167Y-03554D01*
X08178Y-03546D01*
X08201Y-03539D01*
X08235Y-03539D01*
X08258Y-03546D01*
X08270Y-03554D01*
X08281Y-03569D01*
X08281Y-03629D01*
X08155Y-03487D02*
X08155Y-03389D01*
X08247Y-03442D01*
X08247Y-03419D01*
X08258Y-03404D01*
X08270Y-03397D01*
X08293Y-03389D01*
X08350Y-03389D01*
X08373Y-03397D01*
X08385Y-03404D01*
X08396Y-03419D01*
X08396Y-03464D01*
X08385Y-03479D01*
X08373Y-03487D01*
G54D22*
X07675Y-03558D02*
X07675Y-03447D01*
X07782Y-03507D01*
X07782Y-03481D01*
X07795Y-03464D01*
X07809Y-03455D01*
X07835Y-03447D01*
X07902Y-03447D01*
X07929Y-03455D01*
X07942Y-03464D01*
X07955Y-03481D01*
X07955Y-03533D01*
X07942Y-03550D01*
X07929Y-03558D01*
X07955Y-03370D02*
X07675Y-03370D01*
X07955Y-03267D02*
X07795Y-03344D01*
X07675Y-03267D02*
X07835Y-03370D01*
X07955Y-03182D02*
X07955Y-03147D01*
X07942Y-03130D01*
X07929Y-03122D01*
X07889Y-03104D01*
X07835Y-03096D01*
X07729Y-03096D01*
X07702Y-03104D01*
X07689Y-03113D01*
X07675Y-03130D01*
X07675Y-03164D01*
X07689Y-03182D01*
X07702Y-03190D01*
X07729Y-03199D01*
X07795Y-03199D01*
X07822Y-03190D01*
X07835Y-03182D01*
X07849Y-03164D01*
X07849Y-03130D01*
X07835Y-03113D01*
X07822Y-03104D01*
X07795Y-03096D01*
G54D21*
X13534Y-02862D02*
X13546Y-02869D01*
X13557Y-02892D01*
X13557Y-02907D01*
X13546Y-02929D01*
X13523Y-02944D01*
X13500Y-02952D01*
X13454Y-02959D01*
X13419Y-02959D01*
X13373Y-02952D01*
X13350Y-02944D01*
X13328Y-02929D01*
X13316Y-02907D01*
X13316Y-02892D01*
X13328Y-02869D01*
X13339Y-02862D01*
X13396Y-02727D02*
X13557Y-02727D01*
X13305Y-02765D02*
X13477Y-02802D01*
X13477Y-02705D01*
G54D22*
X13105Y-02938D02*
X13105Y-03041D01*
X13105Y-02989D02*
X12825Y-02989D01*
X12865Y-03006D01*
X12892Y-03024D01*
X12905Y-03041D01*
X12945Y-02835D02*
X12932Y-02853D01*
X12919Y-02861D01*
X12892Y-02870D01*
X12879Y-02870D01*
X12852Y-02861D01*
X12839Y-02853D01*
X12825Y-02835D01*
X12825Y-02801D01*
X12839Y-02784D01*
X12852Y-02775D01*
X12879Y-02767D01*
X12892Y-02767D01*
X12919Y-02775D01*
X12932Y-02784D01*
X12945Y-02801D01*
X12945Y-02835D01*
X12959Y-02853D01*
X12972Y-02861D01*
X12999Y-02870D01*
X13052Y-02870D01*
X13079Y-02861D01*
X13092Y-02853D01*
X13105Y-02835D01*
X13105Y-02801D01*
X13092Y-02784D01*
X13079Y-02775D01*
X13052Y-02767D01*
X12999Y-02767D01*
X12972Y-02775D01*
X12959Y-02784D01*
X12945Y-02801D01*
X12919Y-02690D02*
X13199Y-02690D01*
X12932Y-02690D02*
X12919Y-02673D01*
X12919Y-02639D01*
X12932Y-02622D01*
X12945Y-02613D01*
X12972Y-02604D01*
X13052Y-02604D01*
X13079Y-02613D01*
X13092Y-02622D01*
X13105Y-02639D01*
X13105Y-02673D01*
X13092Y-02690D01*
G54D21*
X13631Y-02330D02*
X13579Y-02215D01*
X13541Y-02330D02*
X13541Y-02089D01*
X13601Y-02089D01*
X13616Y-02101D01*
X13624Y-02112D01*
X13631Y-02135D01*
X13631Y-02169D01*
X13624Y-02192D01*
X13616Y-02204D01*
X13601Y-02215D01*
X13541Y-02215D01*
X13683Y-02089D02*
X13788Y-02089D01*
X13721Y-02330D01*
G54D22*
X14270Y-02046D02*
X14184Y-02046D01*
X14175Y-02180D01*
X14184Y-02166D01*
X14201Y-02153D01*
X14244Y-02153D01*
X14261Y-02166D01*
X14270Y-02180D01*
X14278Y-02206D01*
X14278Y-02273D01*
X14270Y-02300D01*
X14261Y-02313D01*
X14244Y-02326D01*
X14201Y-02326D01*
X14184Y-02313D01*
X14175Y-02300D01*
X14355Y-02326D02*
X14355Y-02046D01*
X14458Y-02326D02*
X14381Y-02166D01*
X14458Y-02046D02*
X14355Y-02206D01*
X14612Y-02046D02*
X14578Y-02046D01*
X14561Y-02060D01*
X14552Y-02073D01*
X14535Y-02113D01*
X14526Y-02166D01*
X14526Y-02273D01*
X14535Y-02300D01*
X14543Y-02313D01*
X14561Y-02326D01*
X14595Y-02326D01*
X14612Y-02313D01*
X14621Y-02300D01*
X14629Y-02273D01*
X14629Y-02206D01*
X14621Y-02180D01*
X14612Y-02166D01*
X14595Y-02153D01*
X14561Y-02153D01*
X14543Y-02166D01*
X14535Y-02180D01*
X14526Y-02206D01*
G54D21*
X22684Y-04524D02*
X22632Y-04409D01*
X22594Y-04524D02*
X22594Y-04283D01*
X22654Y-04283D01*
X22669Y-04295D01*
X22677Y-04306D01*
X22684Y-04329D01*
X22684Y-04363D01*
X22677Y-04386D01*
X22669Y-04398D01*
X22654Y-04409D01*
X22594Y-04409D01*
X22774Y-04386D02*
X22759Y-04375D01*
X22751Y-04363D01*
X22744Y-04340D01*
X22744Y-04329D01*
X22751Y-04306D01*
X22759Y-04295D01*
X22774Y-04283D01*
X22804Y-04283D01*
X22819Y-04295D01*
X22826Y-04306D01*
X22834Y-04329D01*
X22834Y-04340D01*
X22826Y-04363D01*
X22819Y-04375D01*
X22804Y-04386D01*
X22774Y-04386D01*
X22759Y-04398D01*
X22751Y-04409D01*
X22744Y-04432D01*
X22744Y-04478D01*
X22751Y-04501D01*
X22759Y-04513D01*
X22774Y-04524D01*
X22804Y-04524D01*
X22819Y-04513D01*
X22826Y-04501D01*
X22834Y-04478D01*
X22834Y-04432D01*
X22826Y-04409D01*
X22819Y-04398D01*
X22804Y-04386D01*
G54D22*
X21836Y-04282D02*
X21750Y-04282D01*
X21741Y-04416D01*
X21750Y-04402D01*
X21767Y-04389D01*
X21810Y-04389D01*
X21827Y-04402D01*
X21836Y-04416D01*
X21844Y-04442D01*
X21844Y-04509D01*
X21836Y-04536D01*
X21827Y-04549D01*
X21810Y-04562D01*
X21767Y-04562D01*
X21750Y-04549D01*
X21741Y-04536D01*
X21921Y-04562D02*
X21921Y-04282D01*
X22024Y-04562D02*
X21947Y-04402D01*
X22024Y-04282D02*
X21921Y-04442D01*
X22178Y-04282D02*
X22144Y-04282D01*
X22127Y-04296D01*
X22118Y-04309D01*
X22101Y-04349D01*
X22092Y-04402D01*
X22092Y-04509D01*
X22101Y-04536D01*
X22109Y-04549D01*
X22127Y-04562D01*
X22161Y-04562D01*
X22178Y-04549D01*
X22187Y-04536D01*
X22195Y-04509D01*
X22195Y-04442D01*
X22187Y-04416D01*
X22178Y-04402D01*
X22161Y-04389D01*
X22127Y-04389D01*
X22109Y-04402D01*
X22101Y-04416D01*
X22092Y-04442D01*
G54D21*
X15184Y-04346D02*
X15196Y-04353D01*
X15207Y-04376D01*
X15207Y-04391D01*
X15196Y-04413D01*
X15173Y-04428D01*
X15150Y-04436D01*
X15104Y-04443D01*
X15069Y-04443D01*
X15023Y-04436D01*
X15000Y-04428D01*
X14978Y-04413D01*
X14966Y-04391D01*
X14966Y-04376D01*
X14978Y-04353D01*
X14989Y-04346D01*
X14966Y-04204D02*
X14966Y-04279D01*
X15081Y-04286D01*
X15069Y-04279D01*
X15058Y-04264D01*
X15058Y-04226D01*
X15069Y-04211D01*
X15081Y-04204D01*
X15104Y-04196D01*
X15161Y-04196D01*
X15184Y-04204D01*
X15196Y-04211D01*
X15207Y-04226D01*
X15207Y-04264D01*
X15196Y-04279D01*
X15184Y-04286D01*
G54D22*
X14915Y-03738D02*
X14915Y-03721D01*
X14929Y-03704D01*
X14942Y-03695D01*
X14969Y-03686D01*
X15022Y-03678D01*
X15089Y-03678D01*
X15142Y-03686D01*
X15169Y-03695D01*
X15182Y-03704D01*
X15195Y-03721D01*
X15195Y-03738D01*
X15182Y-03755D01*
X15169Y-03764D01*
X15142Y-03772D01*
X15089Y-03781D01*
X15022Y-03781D01*
X14969Y-03772D01*
X14942Y-03764D01*
X14929Y-03755D01*
X14915Y-03738D01*
X15009Y-03524D02*
X15195Y-03524D01*
X15009Y-03601D02*
X15155Y-03601D01*
X15182Y-03593D01*
X15195Y-03575D01*
X15195Y-03550D01*
X15182Y-03533D01*
X15169Y-03524D01*
X15195Y-03344D02*
X15195Y-03447D01*
X15195Y-03395D02*
X14915Y-03395D01*
X14955Y-03412D01*
X14982Y-03430D01*
X14995Y-03447D01*
%LPC*%
G54D23*
X21112Y-05063D03*
X21112Y-05313D03*
X21112Y-05573D03*
X21112Y-05823D03*
X21112Y-06083D03*
X21112Y-06338D03*
X21112Y-06593D03*
X23312Y-06593D03*
X23312Y-06338D03*
X23312Y-06083D03*
X23312Y-05823D03*
X23312Y-05568D03*
X23312Y-05313D03*
X23312Y-05058D03*
G54D24*
X16266Y-04806D03*
X16266Y-04491D03*
X16266Y-04176D03*
X16266Y-03861D03*
X16266Y-03546D03*
X16266Y-03231D03*
X16266Y-02916D03*
X16266Y-02601D03*
X20032Y-02603D03*
X20032Y-04813D03*
X20032Y-04493D03*
X20032Y-04173D03*
X20032Y-03863D03*
X20032Y-03543D03*
X20032Y-03233D03*
X20032Y-02913D03*
G54D25*
X17050Y-01813D03*
X17364Y-01813D03*
X17680Y-01813D03*
X17994Y-01813D03*
X18310Y-01813D03*
X18624Y-01813D03*
X18940Y-01813D03*
X19254Y-01813D03*
X17052Y-05593D03*
X17362Y-05593D03*
X17682Y-05593D03*
X17992Y-05593D03*
X18302Y-05593D03*
X18622Y-05593D03*
X18942Y-05593D03*
X19262Y-05593D03*
G54D26*
X03740Y-08760D03*
X02008Y-08760D03*
G54D27*
X04587Y-09941D03*
X01161Y-09941D03*
X04587Y-07776D03*
X01161Y-07776D03*
G54D28*
X02874Y-07776D03*
X02559Y-07776D03*
X02244Y-07776D03*
X03189Y-07776D03*
X03504Y-07776D03*
G54D29*
X02283Y-03644D03*
G54D30*
X24462Y-09573D03*
G54D31*
X11812Y-09823D03*
G54D32*
X11382Y-04523D03*
X11382Y-02523D03*
G54D33*
X12962Y-06683D03*
G54D34*
X12962Y-05683D03*
X13962Y-06683D03*
X13962Y-05683D03*
X14962Y-06683D03*
X14962Y-05683D03*
G54D33*
X06522Y-02943D03*
G54D34*
X06522Y-03943D03*
X06522Y-04943D03*
X06522Y-05943D03*
G54D29*
X02381Y-05317D03*
X03562Y-04333D03*
X03464Y-02758D03*
G54D35*
X07402Y-08433D03*
X07402Y-07833D03*
X08122Y-08433D03*
X08122Y-07833D03*
G54D36*
X09072Y-08293D03*
X09072Y-06993D03*
X10222Y-08293D03*
X10222Y-06993D03*
G54D37*
X21822Y-03613D03*
X23122Y-03613D03*
G54D36*
X22952Y-01343D03*
X22952Y-02643D03*
X21892Y-01343D03*
X21892Y-02643D03*
G54D33*
X25697Y-05575D03*
G54D34*
X24697Y-05575D03*
X25697Y-06575D03*
X24697Y-06575D03*
X25697Y-07575D03*
X24697Y-07575D03*
G54D38*
X09082Y-01413D03*
X09082Y-02613D03*
G54D39*
X21062Y-01233D03*
X20462Y-01233D03*
X21062Y-01803D03*
X20462Y-01803D03*
G54D35*
X07702Y-06063D03*
X07702Y-05463D03*
G54D39*
X08522Y-04543D03*
X07922Y-04543D03*
X10502Y-06073D03*
X09902Y-06073D03*
X09122Y-05243D03*
X08522Y-05243D03*
G54D35*
X13002Y-04313D03*
X13002Y-03713D03*
G54D39*
X08782Y-03563D03*
X09382Y-03563D03*
G54D35*
X07842Y-03023D03*
X07842Y-03623D03*
X12992Y-02523D03*
X12992Y-03123D03*
G54D39*
X14102Y-02213D03*
X14702Y-02213D03*
X22268Y-04449D03*
X21668Y-04449D03*
G54D35*
X15082Y-03263D03*
X15082Y-03863D03*
M02*
