G04 (created by PCBNEW-RS274X (2011-11-27 BZR 3249)-stable) date 17/09/2012 7:08:21 p.m.*
G01*
G70*
G90*
%MOIN*%
G04 Gerber Fmt 3.4, Leading zero omitted, Abs format*
%FSLAX34Y34*%
G04 APERTURE LIST*
%ADD10C,0.006000*%
%ADD11C,0.005100*%
%ADD12C,0.007900*%
%ADD13C,0.012000*%
%ADD14C,0.008000*%
%ADD15C,0.035400*%
%ADD16C,0.088600*%
%ADD17C,0.197500*%
%ADD18C,0.173900*%
%ADD19C,0.056000*%
%ADD20C,0.060000*%
%ADD21R,0.060000X0.060000*%
G04 APERTURE END LIST*
G54D10*
G54D11*
X23969Y-07274D02*
X23969Y-07154D01*
X24074Y-07229D02*
X23804Y-07229D01*
X23774Y-07214D01*
X23759Y-07184D01*
X23759Y-07154D01*
X23759Y-06914D02*
X23924Y-06914D01*
X23954Y-06929D01*
X23969Y-06959D01*
X23969Y-07019D01*
X23954Y-07049D01*
X23774Y-06914D02*
X23759Y-06944D01*
X23759Y-07019D01*
X23774Y-07049D01*
X23804Y-07064D01*
X23834Y-07064D01*
X23864Y-07049D01*
X23879Y-07019D01*
X23879Y-06944D01*
X23894Y-06914D01*
X23759Y-06764D02*
X23969Y-06764D01*
X23909Y-06764D02*
X23939Y-06749D01*
X23954Y-06734D01*
X23969Y-06704D01*
X23969Y-06674D01*
X23969Y-06434D02*
X23714Y-06434D01*
X23684Y-06449D01*
X23669Y-06464D01*
X23654Y-06494D01*
X23654Y-06539D01*
X23669Y-06569D01*
X23774Y-06434D02*
X23759Y-06464D01*
X23759Y-06524D01*
X23774Y-06554D01*
X23789Y-06569D01*
X23819Y-06584D01*
X23909Y-06584D01*
X23939Y-06569D01*
X23954Y-06554D01*
X23969Y-06524D01*
X23969Y-06464D01*
X23954Y-06434D01*
X23774Y-06164D02*
X23759Y-06194D01*
X23759Y-06254D01*
X23774Y-06284D01*
X23804Y-06299D01*
X23924Y-06299D01*
X23954Y-06284D01*
X23969Y-06254D01*
X23969Y-06194D01*
X23954Y-06164D01*
X23924Y-06149D01*
X23894Y-06149D01*
X23864Y-06299D01*
X23969Y-06059D02*
X23969Y-05939D01*
X24074Y-06014D02*
X23804Y-06014D01*
X23774Y-05999D01*
X23759Y-05969D01*
X23759Y-05939D01*
G54D12*
X19166Y-01252D02*
X19166Y-01666D01*
X19189Y-01715D01*
X19211Y-01740D01*
X19256Y-01764D01*
X19324Y-01764D01*
X19369Y-01740D01*
X19166Y-01569D02*
X19211Y-01593D01*
X19301Y-01593D01*
X19346Y-01569D01*
X19369Y-01544D01*
X19391Y-01496D01*
X19391Y-01349D01*
X19369Y-01301D01*
X19346Y-01276D01*
X19301Y-01252D01*
X19211Y-01252D01*
X19166Y-01276D01*
X18942Y-01593D02*
X18942Y-01252D01*
X18942Y-01349D02*
X18919Y-01301D01*
X18897Y-01276D01*
X18852Y-01252D01*
X18807Y-01252D01*
X18447Y-01252D02*
X18447Y-01593D01*
X18650Y-01252D02*
X18650Y-01520D01*
X18627Y-01569D01*
X18582Y-01593D01*
X18515Y-01593D01*
X18470Y-01569D01*
X18447Y-01544D01*
X18268Y-01252D02*
X18155Y-01593D01*
X18043Y-01252D01*
X17863Y-01593D02*
X17863Y-01252D01*
X17863Y-01081D02*
X17885Y-01106D01*
X17863Y-01130D01*
X17840Y-01106D01*
X17863Y-01081D01*
X17863Y-01130D01*
X17638Y-01252D02*
X17638Y-01593D01*
X17638Y-01301D02*
X17615Y-01276D01*
X17570Y-01252D01*
X17503Y-01252D01*
X17458Y-01276D01*
X17435Y-01325D01*
X17435Y-01593D01*
X17188Y-01593D02*
X17098Y-01593D01*
X17053Y-01569D01*
X17031Y-01544D01*
X16986Y-01471D01*
X16963Y-01374D01*
X16963Y-01179D01*
X16986Y-01130D01*
X17008Y-01106D01*
X17053Y-01081D01*
X17143Y-01081D01*
X17188Y-01106D01*
X17211Y-01130D01*
X17233Y-01179D01*
X17233Y-01301D01*
X17211Y-01349D01*
X17188Y-01374D01*
X17143Y-01398D01*
X17053Y-01398D01*
X17008Y-01374D01*
X16986Y-01349D01*
X16963Y-01301D01*
X16806Y-01593D02*
X16558Y-01252D01*
X16806Y-01252D02*
X16558Y-01593D01*
X16379Y-01544D02*
X16356Y-01569D01*
X16379Y-01593D01*
X16401Y-01569D01*
X16379Y-01544D01*
X16379Y-01593D01*
X15951Y-01252D02*
X15951Y-01666D01*
X15974Y-01715D01*
X15996Y-01740D01*
X16041Y-01764D01*
X16109Y-01764D01*
X16154Y-01740D01*
X15951Y-01569D02*
X15996Y-01593D01*
X16086Y-01593D01*
X16131Y-01569D01*
X16154Y-01544D01*
X16176Y-01496D01*
X16176Y-01349D01*
X16154Y-01301D01*
X16131Y-01276D01*
X16086Y-01252D01*
X15996Y-01252D01*
X15951Y-01276D01*
X15659Y-01593D02*
X15704Y-01569D01*
X15727Y-01544D01*
X15749Y-01496D01*
X15749Y-01349D01*
X15727Y-01301D01*
X15704Y-01276D01*
X15659Y-01252D01*
X15592Y-01252D01*
X15547Y-01276D01*
X15524Y-01301D01*
X15502Y-01349D01*
X15502Y-01496D01*
X15524Y-01544D01*
X15547Y-01569D01*
X15592Y-01593D01*
X15659Y-01593D01*
X15232Y-01593D02*
X15277Y-01569D01*
X15300Y-01544D01*
X15322Y-01496D01*
X15322Y-01349D01*
X15300Y-01301D01*
X15277Y-01276D01*
X15232Y-01252D01*
X15165Y-01252D01*
X15120Y-01276D01*
X15097Y-01301D01*
X15075Y-01349D01*
X15075Y-01496D01*
X15097Y-01544D01*
X15120Y-01569D01*
X15165Y-01593D01*
X15232Y-01593D01*
X14670Y-01252D02*
X14670Y-01666D01*
X14693Y-01715D01*
X14715Y-01740D01*
X14760Y-01764D01*
X14828Y-01764D01*
X14873Y-01740D01*
X14670Y-01569D02*
X14715Y-01593D01*
X14805Y-01593D01*
X14850Y-01569D01*
X14873Y-01544D01*
X14895Y-01496D01*
X14895Y-01349D01*
X14873Y-01301D01*
X14850Y-01276D01*
X14805Y-01252D01*
X14715Y-01252D01*
X14670Y-01276D01*
X14378Y-01593D02*
X14423Y-01569D01*
X14446Y-01520D01*
X14446Y-01081D01*
X14019Y-01569D02*
X14064Y-01593D01*
X14154Y-01593D01*
X14199Y-01569D01*
X14221Y-01520D01*
X14221Y-01325D01*
X14199Y-01276D01*
X14154Y-01252D01*
X14064Y-01252D01*
X14019Y-01276D01*
X13996Y-01325D01*
X13996Y-01374D01*
X14221Y-01423D01*
X13591Y-01569D02*
X13636Y-01593D01*
X13726Y-01593D01*
X13771Y-01569D01*
X13794Y-01544D01*
X13816Y-01496D01*
X13816Y-01349D01*
X13794Y-01301D01*
X13771Y-01276D01*
X13726Y-01252D01*
X13636Y-01252D01*
X13591Y-01276D01*
X13321Y-01593D02*
X13366Y-01569D01*
X13389Y-01544D01*
X13411Y-01496D01*
X13411Y-01349D01*
X13389Y-01301D01*
X13366Y-01276D01*
X13321Y-01252D01*
X13254Y-01252D01*
X13209Y-01276D01*
X13186Y-01301D01*
X13164Y-01349D01*
X13164Y-01496D01*
X13186Y-01544D01*
X13209Y-01569D01*
X13254Y-01593D01*
X13321Y-01593D01*
X12759Y-01593D02*
X12759Y-01081D01*
X12759Y-01569D02*
X12804Y-01593D01*
X12894Y-01593D01*
X12939Y-01569D01*
X12962Y-01544D01*
X12984Y-01496D01*
X12984Y-01349D01*
X12962Y-01301D01*
X12939Y-01276D01*
X12894Y-01252D01*
X12804Y-01252D01*
X12759Y-01276D01*
X12355Y-01569D02*
X12400Y-01593D01*
X12490Y-01593D01*
X12535Y-01569D01*
X12557Y-01520D01*
X12557Y-01325D01*
X12535Y-01276D01*
X12490Y-01252D01*
X12400Y-01252D01*
X12355Y-01276D01*
X12332Y-01325D01*
X12332Y-01374D01*
X12557Y-01423D01*
X12130Y-01544D02*
X12107Y-01569D01*
X12130Y-01593D01*
X12152Y-01569D01*
X12130Y-01544D01*
X12130Y-01593D01*
X11702Y-01569D02*
X11747Y-01593D01*
X11837Y-01593D01*
X11882Y-01569D01*
X11905Y-01544D01*
X11927Y-01496D01*
X11927Y-01349D01*
X11905Y-01301D01*
X11882Y-01276D01*
X11837Y-01252D01*
X11747Y-01252D01*
X11702Y-01276D01*
X11432Y-01593D02*
X11477Y-01569D01*
X11500Y-01544D01*
X11522Y-01496D01*
X11522Y-01349D01*
X11500Y-01301D01*
X11477Y-01276D01*
X11432Y-01252D01*
X11365Y-01252D01*
X11320Y-01276D01*
X11297Y-01301D01*
X11275Y-01349D01*
X11275Y-01496D01*
X11297Y-01544D01*
X11320Y-01569D01*
X11365Y-01593D01*
X11432Y-01593D01*
X11073Y-01593D02*
X11073Y-01252D01*
X11073Y-01301D02*
X11050Y-01276D01*
X11005Y-01252D01*
X10938Y-01252D01*
X10893Y-01276D01*
X10870Y-01325D01*
X10870Y-01593D01*
X10870Y-01325D02*
X10848Y-01276D01*
X10803Y-01252D01*
X10735Y-01252D01*
X10691Y-01276D01*
X10668Y-01325D01*
X10668Y-01593D01*
G54D13*
X16589Y-03188D02*
X16589Y-03836D01*
X16618Y-03912D01*
X16646Y-03950D01*
X16703Y-03988D01*
X16789Y-03988D01*
X16846Y-03950D01*
X16589Y-03684D02*
X16646Y-03722D01*
X16760Y-03722D01*
X16818Y-03684D01*
X16846Y-03646D01*
X16875Y-03569D01*
X16875Y-03341D01*
X16846Y-03265D01*
X16818Y-03227D01*
X16760Y-03188D01*
X16646Y-03188D01*
X16589Y-03227D01*
X16303Y-03188D02*
X16303Y-03988D01*
X16303Y-03227D02*
X16246Y-03188D01*
X16132Y-03188D01*
X16075Y-03227D01*
X16046Y-03265D01*
X16017Y-03341D01*
X16017Y-03569D01*
X16046Y-03646D01*
X16075Y-03684D01*
X16132Y-03722D01*
X16246Y-03722D01*
X16303Y-03684D01*
X15760Y-03722D02*
X15760Y-03188D01*
X15760Y-03341D02*
X15732Y-03265D01*
X15703Y-03227D01*
X15646Y-03188D01*
X15589Y-03188D01*
X15303Y-03722D02*
X15361Y-03684D01*
X15389Y-03646D01*
X15418Y-03569D01*
X15418Y-03341D01*
X15389Y-03265D01*
X15361Y-03227D01*
X15303Y-03188D01*
X15218Y-03188D01*
X15161Y-03227D01*
X15132Y-03265D01*
X15103Y-03341D01*
X15103Y-03569D01*
X15132Y-03646D01*
X15161Y-03684D01*
X15218Y-03722D01*
X15303Y-03722D01*
X14589Y-03188D02*
X14589Y-03836D01*
X14618Y-03912D01*
X14646Y-03950D01*
X14703Y-03988D01*
X14789Y-03988D01*
X14846Y-03950D01*
X14589Y-03684D02*
X14646Y-03722D01*
X14760Y-03722D01*
X14818Y-03684D01*
X14846Y-03646D01*
X14875Y-03569D01*
X14875Y-03341D01*
X14846Y-03265D01*
X14818Y-03227D01*
X14760Y-03188D01*
X14646Y-03188D01*
X14589Y-03227D01*
X13903Y-03188D02*
X13760Y-03722D01*
X13618Y-03188D01*
X13132Y-03188D02*
X13132Y-03722D01*
X13275Y-02884D02*
X13418Y-03455D01*
X13046Y-03455D01*
X12818Y-03646D02*
X12790Y-03684D01*
X12818Y-03722D01*
X12847Y-03684D01*
X12818Y-03646D01*
X12818Y-03722D01*
X12561Y-02998D02*
X12532Y-02960D01*
X12475Y-02922D01*
X12332Y-02922D01*
X12275Y-02960D01*
X12246Y-02998D01*
X12218Y-03074D01*
X12218Y-03150D01*
X12246Y-03265D01*
X12589Y-03722D01*
X12218Y-03722D01*
G54D14*
X26197Y-08075D02*
X26197Y-05075D01*
X24197Y-05075D02*
X24197Y-08075D01*
X24197Y-08075D02*
X26197Y-08075D01*
X26197Y-05075D02*
X24197Y-05075D01*
X25222Y-08707D02*
X25222Y-08307D01*
X25069Y-08307D01*
X25031Y-08326D01*
X25012Y-08345D01*
X24993Y-08383D01*
X24993Y-08440D01*
X25012Y-08478D01*
X25031Y-08497D01*
X25069Y-08516D01*
X25222Y-08516D01*
X24612Y-08707D02*
X24841Y-08707D01*
X24727Y-08707D02*
X24727Y-08307D01*
X24765Y-08364D01*
X24803Y-08402D01*
X24841Y-08421D01*
%LPC*%
G54D15*
X03740Y-08760D03*
X02008Y-08760D03*
G54D16*
X02283Y-03644D03*
G54D17*
X24462Y-09573D03*
G54D18*
X11812Y-09823D03*
G54D19*
X11382Y-04523D03*
X11382Y-02523D03*
G54D20*
X12962Y-05683D03*
X13962Y-05683D03*
X14962Y-06683D03*
X14962Y-05683D03*
G54D21*
X06522Y-02943D03*
G54D20*
X06522Y-03943D03*
X06522Y-04943D03*
X06522Y-05943D03*
G54D16*
X02381Y-05317D03*
X03562Y-04333D03*
X03464Y-02758D03*
G54D21*
X25697Y-05575D03*
G54D20*
X24697Y-05575D03*
X25697Y-06575D03*
X24697Y-06575D03*
X25697Y-07575D03*
X24697Y-07575D03*
M02*
