G04 (created by PCBNEW-RS274X (2011-11-27 BZR 3249)-stable) date 17/09/2012 7:08:21 p.m.*
G01*
G70*
G90*
%MOIN*%
G04 Gerber Fmt 3.4, Leading zero omitted, Abs format*
%FSLAX34Y34*%
G04 APERTURE LIST*
%ADD10C,0.006000*%
%ADD11C,0.015000*%
%ADD12C,0.035400*%
%ADD13C,0.088600*%
%ADD14C,0.197500*%
%ADD15C,0.173900*%
%ADD16C,0.056000*%
%ADD17C,0.060000*%
%ADD18R,0.060000X0.060000*%
G04 APERTURE END LIST*
G54D10*
G54D11*
X26042Y-04567D02*
X26023Y-04567D01*
X26220Y-04745D02*
X26042Y-04567D01*
X23465Y-10355D02*
X23464Y-10355D01*
X23681Y-10571D02*
X23465Y-10355D01*
X12362Y-10808D02*
X12559Y-10611D01*
X00904Y-00827D02*
X00904Y-00867D01*
X01180Y-00827D02*
X00904Y-00827D01*
X01613Y-01260D02*
X01180Y-00827D01*
X04133Y-01260D02*
X01613Y-01260D01*
X04566Y-00827D02*
X04133Y-01260D01*
X04841Y-00827D02*
X04566Y-00827D01*
X04841Y-10827D02*
X04841Y-00827D01*
X00904Y-10827D02*
X04841Y-10827D01*
X06823Y-10804D02*
X06815Y-10804D01*
X05925Y-09906D02*
X06823Y-10813D01*
X05925Y-01323D02*
X05925Y-09906D01*
X06425Y-00823D02*
X05925Y-01323D01*
X00904Y-10827D02*
X00904Y-00823D01*
X12562Y-07339D02*
X12562Y-10611D01*
X23468Y-07339D02*
X12562Y-07339D01*
X23468Y-10355D02*
X23468Y-07339D01*
X23962Y-01323D02*
X23462Y-00823D01*
X23962Y-04573D02*
X26042Y-04573D01*
X23962Y-01323D02*
X23962Y-04573D01*
X24962Y-10573D02*
X26212Y-09323D01*
X23681Y-10573D02*
X24962Y-10573D01*
X12362Y-10813D02*
X06823Y-10813D01*
X26212Y-04745D02*
X26212Y-09323D01*
X06425Y-00823D02*
X23462Y-00823D01*
%LPC*%
G54D12*
X03740Y-08760D03*
X02008Y-08760D03*
G54D13*
X02283Y-03644D03*
G54D14*
X24462Y-09573D03*
G54D15*
X11812Y-09823D03*
G54D16*
X11382Y-04523D03*
X11382Y-02523D03*
G54D17*
X12962Y-05683D03*
X13962Y-05683D03*
X14962Y-06683D03*
X14962Y-05683D03*
G54D18*
X06522Y-02943D03*
G54D17*
X06522Y-03943D03*
X06522Y-04943D03*
X06522Y-05943D03*
G54D13*
X02381Y-05317D03*
X03562Y-04333D03*
X03464Y-02758D03*
G54D18*
X25697Y-05575D03*
G54D17*
X24697Y-05575D03*
X25697Y-06575D03*
X24697Y-06575D03*
X25697Y-07575D03*
X24697Y-07575D03*
M02*
