G04 (created by PCBNEW-RS274X (2011-11-27 BZR 3249)-stable) date 13/09/2012 10:29:59 a.m.*
G01*
G70*
G90*
%MOIN*%
G04 Gerber Fmt 3.4, Leading zero omitted, Abs format*
%FSLAX34Y34*%
G04 APERTURE LIST*
%ADD10C,0.006000*%
%ADD11C,0.012000*%
%ADD12C,0.007900*%
%ADD13C,0.035400*%
%ADD14C,0.088600*%
%ADD15C,0.157500*%
%ADD16C,0.133900*%
%ADD17C,0.056000*%
%ADD18C,0.060000*%
%ADD19R,0.060000X0.060000*%
%ADD20C,0.035000*%
%ADD21C,0.031500*%
%ADD22C,0.030000*%
%ADD23C,0.030000*%
%ADD24C,0.015700*%
%ADD25C,0.008000*%
%ADD26C,0.010000*%
G04 APERTURE END LIST*
G54D10*
G54D11*
X19283Y-04794D02*
X19283Y-05442D01*
X19312Y-05518D01*
X19340Y-05556D01*
X19397Y-05594D01*
X19483Y-05594D01*
X19540Y-05556D01*
X19283Y-05290D02*
X19340Y-05328D01*
X19454Y-05328D01*
X19512Y-05290D01*
X19540Y-05252D01*
X19569Y-05175D01*
X19569Y-04947D01*
X19540Y-04871D01*
X19512Y-04833D01*
X19454Y-04794D01*
X19340Y-04794D01*
X19283Y-04833D01*
X18997Y-05328D02*
X18997Y-04794D01*
X18997Y-04947D02*
X18969Y-04871D01*
X18940Y-04833D01*
X18883Y-04794D01*
X18826Y-04794D01*
X18369Y-04794D02*
X18369Y-05328D01*
X18626Y-04794D02*
X18626Y-05214D01*
X18598Y-05290D01*
X18540Y-05328D01*
X18455Y-05328D01*
X18398Y-05290D01*
X18369Y-05252D01*
X18140Y-04794D02*
X17997Y-05328D01*
X17855Y-04794D01*
X17626Y-05328D02*
X17626Y-04794D01*
X17626Y-04528D02*
X17655Y-04566D01*
X17626Y-04604D01*
X17598Y-04566D01*
X17626Y-04528D01*
X17626Y-04604D01*
X17340Y-04794D02*
X17340Y-05328D01*
X17340Y-04871D02*
X17312Y-04833D01*
X17254Y-04794D01*
X17169Y-04794D01*
X17112Y-04833D01*
X17083Y-04909D01*
X17083Y-05328D01*
X16769Y-05328D02*
X16654Y-05328D01*
X16597Y-05290D01*
X16569Y-05252D01*
X16511Y-05137D01*
X16483Y-04985D01*
X16483Y-04680D01*
X16511Y-04604D01*
X16540Y-04566D01*
X16597Y-04528D01*
X16711Y-04528D01*
X16769Y-04566D01*
X16797Y-04604D01*
X16826Y-04680D01*
X16826Y-04871D01*
X16797Y-04947D01*
X16769Y-04985D01*
X16711Y-05023D01*
X16597Y-05023D01*
X16540Y-04985D01*
X16511Y-04947D01*
X16483Y-04871D01*
X16283Y-05328D02*
X15969Y-04794D01*
X16283Y-04794D02*
X15969Y-05328D01*
X15740Y-05252D02*
X15712Y-05290D01*
X15740Y-05328D01*
X15769Y-05290D01*
X15740Y-05252D01*
X15740Y-05328D01*
X15197Y-04794D02*
X15197Y-05442D01*
X15226Y-05518D01*
X15254Y-05556D01*
X15311Y-05594D01*
X15397Y-05594D01*
X15454Y-05556D01*
X15197Y-05290D02*
X15254Y-05328D01*
X15368Y-05328D01*
X15426Y-05290D01*
X15454Y-05252D01*
X15483Y-05175D01*
X15483Y-04947D01*
X15454Y-04871D01*
X15426Y-04833D01*
X15368Y-04794D01*
X15254Y-04794D01*
X15197Y-04833D01*
X14825Y-05328D02*
X14883Y-05290D01*
X14911Y-05252D01*
X14940Y-05175D01*
X14940Y-04947D01*
X14911Y-04871D01*
X14883Y-04833D01*
X14825Y-04794D01*
X14740Y-04794D01*
X14683Y-04833D01*
X14654Y-04871D01*
X14625Y-04947D01*
X14625Y-05175D01*
X14654Y-05252D01*
X14683Y-05290D01*
X14740Y-05328D01*
X14825Y-05328D01*
X14282Y-05328D02*
X14340Y-05290D01*
X14368Y-05252D01*
X14397Y-05175D01*
X14397Y-04947D01*
X14368Y-04871D01*
X14340Y-04833D01*
X14282Y-04794D01*
X14197Y-04794D01*
X14140Y-04833D01*
X14111Y-04871D01*
X14082Y-04947D01*
X14082Y-05175D01*
X14111Y-05252D01*
X14140Y-05290D01*
X14197Y-05328D01*
X14282Y-05328D01*
X13568Y-04794D02*
X13568Y-05442D01*
X13597Y-05518D01*
X13625Y-05556D01*
X13682Y-05594D01*
X13768Y-05594D01*
X13825Y-05556D01*
X13568Y-05290D02*
X13625Y-05328D01*
X13739Y-05328D01*
X13797Y-05290D01*
X13825Y-05252D01*
X13854Y-05175D01*
X13854Y-04947D01*
X13825Y-04871D01*
X13797Y-04833D01*
X13739Y-04794D01*
X13625Y-04794D01*
X13568Y-04833D01*
X13196Y-05328D02*
X13254Y-05290D01*
X13282Y-05214D01*
X13282Y-04528D01*
X12740Y-05290D02*
X12797Y-05328D01*
X12911Y-05328D01*
X12968Y-05290D01*
X12997Y-05214D01*
X12997Y-04909D01*
X12968Y-04833D01*
X12911Y-04794D01*
X12797Y-04794D01*
X12740Y-04833D01*
X12711Y-04909D01*
X12711Y-04985D01*
X12997Y-05061D01*
X12197Y-05290D02*
X12254Y-05328D01*
X12368Y-05328D01*
X12426Y-05290D01*
X12454Y-05252D01*
X12483Y-05175D01*
X12483Y-04947D01*
X12454Y-04871D01*
X12426Y-04833D01*
X12368Y-04794D01*
X12254Y-04794D01*
X12197Y-04833D01*
X11854Y-05328D02*
X11912Y-05290D01*
X11940Y-05252D01*
X11969Y-05175D01*
X11969Y-04947D01*
X11940Y-04871D01*
X11912Y-04833D01*
X11854Y-04794D01*
X11769Y-04794D01*
X11712Y-04833D01*
X11683Y-04871D01*
X11654Y-04947D01*
X11654Y-05175D01*
X11683Y-05252D01*
X11712Y-05290D01*
X11769Y-05328D01*
X11854Y-05328D01*
X11140Y-05328D02*
X11140Y-04528D01*
X11140Y-05290D02*
X11197Y-05328D01*
X11311Y-05328D01*
X11369Y-05290D01*
X11397Y-05252D01*
X11426Y-05175D01*
X11426Y-04947D01*
X11397Y-04871D01*
X11369Y-04833D01*
X11311Y-04794D01*
X11197Y-04794D01*
X11140Y-04833D01*
X10626Y-05290D02*
X10683Y-05328D01*
X10797Y-05328D01*
X10854Y-05290D01*
X10883Y-05214D01*
X10883Y-04909D01*
X10854Y-04833D01*
X10797Y-04794D01*
X10683Y-04794D01*
X10626Y-04833D01*
X10597Y-04909D01*
X10597Y-04985D01*
X10883Y-05061D01*
X10340Y-05252D02*
X10312Y-05290D01*
X10340Y-05328D01*
X10369Y-05290D01*
X10340Y-05252D01*
X10340Y-05328D01*
X09797Y-05290D02*
X09854Y-05328D01*
X09968Y-05328D01*
X10026Y-05290D01*
X10054Y-05252D01*
X10083Y-05175D01*
X10083Y-04947D01*
X10054Y-04871D01*
X10026Y-04833D01*
X09968Y-04794D01*
X09854Y-04794D01*
X09797Y-04833D01*
X09454Y-05328D02*
X09512Y-05290D01*
X09540Y-05252D01*
X09569Y-05175D01*
X09569Y-04947D01*
X09540Y-04871D01*
X09512Y-04833D01*
X09454Y-04794D01*
X09369Y-04794D01*
X09312Y-04833D01*
X09283Y-04871D01*
X09254Y-04947D01*
X09254Y-05175D01*
X09283Y-05252D01*
X09312Y-05290D01*
X09369Y-05328D01*
X09454Y-05328D01*
X08997Y-05328D02*
X08997Y-04794D01*
X08997Y-04871D02*
X08969Y-04833D01*
X08911Y-04794D01*
X08826Y-04794D01*
X08769Y-04833D01*
X08740Y-04909D01*
X08740Y-05328D01*
X08740Y-04909D02*
X08711Y-04833D01*
X08654Y-04794D01*
X08569Y-04794D01*
X08511Y-04833D01*
X08483Y-04909D01*
X08483Y-05328D01*
G54D12*
X14911Y-04220D02*
X14911Y-04634D01*
X14934Y-04683D01*
X14956Y-04708D01*
X15001Y-04732D01*
X15069Y-04732D01*
X15114Y-04708D01*
X14911Y-04537D02*
X14956Y-04561D01*
X15046Y-04561D01*
X15091Y-04537D01*
X15114Y-04512D01*
X15136Y-04464D01*
X15136Y-04317D01*
X15114Y-04269D01*
X15091Y-04244D01*
X15046Y-04220D01*
X14956Y-04220D01*
X14911Y-04244D01*
X14687Y-04561D02*
X14687Y-04220D01*
X14687Y-04317D02*
X14664Y-04269D01*
X14642Y-04244D01*
X14597Y-04220D01*
X14552Y-04220D01*
X14192Y-04220D02*
X14192Y-04561D01*
X14395Y-04220D02*
X14395Y-04488D01*
X14372Y-04537D01*
X14327Y-04561D01*
X14260Y-04561D01*
X14215Y-04537D01*
X14192Y-04512D01*
X14013Y-04220D02*
X13900Y-04561D01*
X13788Y-04220D01*
X13608Y-04561D02*
X13608Y-04220D01*
X13608Y-04049D02*
X13630Y-04074D01*
X13608Y-04098D01*
X13585Y-04074D01*
X13608Y-04049D01*
X13608Y-04098D01*
X13383Y-04220D02*
X13383Y-04561D01*
X13383Y-04269D02*
X13360Y-04244D01*
X13315Y-04220D01*
X13248Y-04220D01*
X13203Y-04244D01*
X13180Y-04293D01*
X13180Y-04561D01*
X12933Y-04561D02*
X12843Y-04561D01*
X12798Y-04537D01*
X12776Y-04512D01*
X12731Y-04439D01*
X12708Y-04342D01*
X12708Y-04147D01*
X12731Y-04098D01*
X12753Y-04074D01*
X12798Y-04049D01*
X12888Y-04049D01*
X12933Y-04074D01*
X12956Y-04098D01*
X12978Y-04147D01*
X12978Y-04269D01*
X12956Y-04317D01*
X12933Y-04342D01*
X12888Y-04366D01*
X12798Y-04366D01*
X12753Y-04342D01*
X12731Y-04317D01*
X12708Y-04269D01*
X12551Y-04561D02*
X12303Y-04220D01*
X12551Y-04220D02*
X12303Y-04561D01*
X12124Y-04512D02*
X12101Y-04537D01*
X12124Y-04561D01*
X12146Y-04537D01*
X12124Y-04512D01*
X12124Y-04561D01*
X11696Y-04220D02*
X11696Y-04634D01*
X11719Y-04683D01*
X11741Y-04708D01*
X11786Y-04732D01*
X11854Y-04732D01*
X11899Y-04708D01*
X11696Y-04537D02*
X11741Y-04561D01*
X11831Y-04561D01*
X11876Y-04537D01*
X11899Y-04512D01*
X11921Y-04464D01*
X11921Y-04317D01*
X11899Y-04269D01*
X11876Y-04244D01*
X11831Y-04220D01*
X11741Y-04220D01*
X11696Y-04244D01*
X11404Y-04561D02*
X11449Y-04537D01*
X11472Y-04512D01*
X11494Y-04464D01*
X11494Y-04317D01*
X11472Y-04269D01*
X11449Y-04244D01*
X11404Y-04220D01*
X11337Y-04220D01*
X11292Y-04244D01*
X11269Y-04269D01*
X11247Y-04317D01*
X11247Y-04464D01*
X11269Y-04512D01*
X11292Y-04537D01*
X11337Y-04561D01*
X11404Y-04561D01*
X10977Y-04561D02*
X11022Y-04537D01*
X11045Y-04512D01*
X11067Y-04464D01*
X11067Y-04317D01*
X11045Y-04269D01*
X11022Y-04244D01*
X10977Y-04220D01*
X10910Y-04220D01*
X10865Y-04244D01*
X10842Y-04269D01*
X10820Y-04317D01*
X10820Y-04464D01*
X10842Y-04512D01*
X10865Y-04537D01*
X10910Y-04561D01*
X10977Y-04561D01*
X10415Y-04220D02*
X10415Y-04634D01*
X10438Y-04683D01*
X10460Y-04708D01*
X10505Y-04732D01*
X10573Y-04732D01*
X10618Y-04708D01*
X10415Y-04537D02*
X10460Y-04561D01*
X10550Y-04561D01*
X10595Y-04537D01*
X10618Y-04512D01*
X10640Y-04464D01*
X10640Y-04317D01*
X10618Y-04269D01*
X10595Y-04244D01*
X10550Y-04220D01*
X10460Y-04220D01*
X10415Y-04244D01*
X10123Y-04561D02*
X10168Y-04537D01*
X10191Y-04488D01*
X10191Y-04049D01*
X09764Y-04537D02*
X09809Y-04561D01*
X09899Y-04561D01*
X09944Y-04537D01*
X09966Y-04488D01*
X09966Y-04293D01*
X09944Y-04244D01*
X09899Y-04220D01*
X09809Y-04220D01*
X09764Y-04244D01*
X09741Y-04293D01*
X09741Y-04342D01*
X09966Y-04391D01*
X09336Y-04537D02*
X09381Y-04561D01*
X09471Y-04561D01*
X09516Y-04537D01*
X09539Y-04512D01*
X09561Y-04464D01*
X09561Y-04317D01*
X09539Y-04269D01*
X09516Y-04244D01*
X09471Y-04220D01*
X09381Y-04220D01*
X09336Y-04244D01*
X09066Y-04561D02*
X09111Y-04537D01*
X09134Y-04512D01*
X09156Y-04464D01*
X09156Y-04317D01*
X09134Y-04269D01*
X09111Y-04244D01*
X09066Y-04220D01*
X08999Y-04220D01*
X08954Y-04244D01*
X08931Y-04269D01*
X08909Y-04317D01*
X08909Y-04464D01*
X08931Y-04512D01*
X08954Y-04537D01*
X08999Y-04561D01*
X09066Y-04561D01*
X08504Y-04561D02*
X08504Y-04049D01*
X08504Y-04537D02*
X08549Y-04561D01*
X08639Y-04561D01*
X08684Y-04537D01*
X08707Y-04512D01*
X08729Y-04464D01*
X08729Y-04317D01*
X08707Y-04269D01*
X08684Y-04244D01*
X08639Y-04220D01*
X08549Y-04220D01*
X08504Y-04244D01*
X08100Y-04537D02*
X08145Y-04561D01*
X08235Y-04561D01*
X08280Y-04537D01*
X08302Y-04488D01*
X08302Y-04293D01*
X08280Y-04244D01*
X08235Y-04220D01*
X08145Y-04220D01*
X08100Y-04244D01*
X08077Y-04293D01*
X08077Y-04342D01*
X08302Y-04391D01*
X07875Y-04512D02*
X07852Y-04537D01*
X07875Y-04561D01*
X07897Y-04537D01*
X07875Y-04512D01*
X07875Y-04561D01*
X07447Y-04537D02*
X07492Y-04561D01*
X07582Y-04561D01*
X07627Y-04537D01*
X07650Y-04512D01*
X07672Y-04464D01*
X07672Y-04317D01*
X07650Y-04269D01*
X07627Y-04244D01*
X07582Y-04220D01*
X07492Y-04220D01*
X07447Y-04244D01*
X07177Y-04561D02*
X07222Y-04537D01*
X07245Y-04512D01*
X07267Y-04464D01*
X07267Y-04317D01*
X07245Y-04269D01*
X07222Y-04244D01*
X07177Y-04220D01*
X07110Y-04220D01*
X07065Y-04244D01*
X07042Y-04269D01*
X07020Y-04317D01*
X07020Y-04464D01*
X07042Y-04512D01*
X07065Y-04537D01*
X07110Y-04561D01*
X07177Y-04561D01*
X06818Y-04561D02*
X06818Y-04220D01*
X06818Y-04269D02*
X06795Y-04244D01*
X06750Y-04220D01*
X06683Y-04220D01*
X06638Y-04244D01*
X06615Y-04293D01*
X06615Y-04561D01*
X06615Y-04293D02*
X06593Y-04244D01*
X06548Y-04220D01*
X06480Y-04220D01*
X06436Y-04244D01*
X06413Y-04293D01*
X06413Y-04561D01*
X19056Y-04988D02*
X19056Y-05402D01*
X19079Y-05451D01*
X19101Y-05476D01*
X19146Y-05500D01*
X19214Y-05500D01*
X19259Y-05476D01*
X19056Y-05305D02*
X19101Y-05329D01*
X19191Y-05329D01*
X19236Y-05305D01*
X19259Y-05280D01*
X19281Y-05232D01*
X19281Y-05085D01*
X19259Y-05037D01*
X19236Y-05012D01*
X19191Y-04988D01*
X19101Y-04988D01*
X19056Y-05012D01*
X18832Y-05329D02*
X18832Y-04988D01*
X18832Y-05085D02*
X18809Y-05037D01*
X18787Y-05012D01*
X18742Y-04988D01*
X18697Y-04988D01*
X18337Y-04988D02*
X18337Y-05329D01*
X18540Y-04988D02*
X18540Y-05256D01*
X18517Y-05305D01*
X18472Y-05329D01*
X18405Y-05329D01*
X18360Y-05305D01*
X18337Y-05280D01*
X18158Y-04988D02*
X18045Y-05329D01*
X17933Y-04988D01*
X17753Y-05329D02*
X17753Y-04988D01*
X17753Y-04817D02*
X17775Y-04842D01*
X17753Y-04866D01*
X17730Y-04842D01*
X17753Y-04817D01*
X17753Y-04866D01*
X17528Y-04988D02*
X17528Y-05329D01*
X17528Y-05037D02*
X17505Y-05012D01*
X17460Y-04988D01*
X17393Y-04988D01*
X17348Y-05012D01*
X17325Y-05061D01*
X17325Y-05329D01*
X17078Y-05329D02*
X16988Y-05329D01*
X16943Y-05305D01*
X16921Y-05280D01*
X16876Y-05207D01*
X16853Y-05110D01*
X16853Y-04915D01*
X16876Y-04866D01*
X16898Y-04842D01*
X16943Y-04817D01*
X17033Y-04817D01*
X17078Y-04842D01*
X17101Y-04866D01*
X17123Y-04915D01*
X17123Y-05037D01*
X17101Y-05085D01*
X17078Y-05110D01*
X17033Y-05134D01*
X16943Y-05134D01*
X16898Y-05110D01*
X16876Y-05085D01*
X16853Y-05037D01*
X16696Y-05329D02*
X16448Y-04988D01*
X16696Y-04988D02*
X16448Y-05329D01*
X16269Y-05280D02*
X16246Y-05305D01*
X16269Y-05329D01*
X16291Y-05305D01*
X16269Y-05280D01*
X16269Y-05329D01*
X15841Y-04988D02*
X15841Y-05402D01*
X15864Y-05451D01*
X15886Y-05476D01*
X15931Y-05500D01*
X15999Y-05500D01*
X16044Y-05476D01*
X15841Y-05305D02*
X15886Y-05329D01*
X15976Y-05329D01*
X16021Y-05305D01*
X16044Y-05280D01*
X16066Y-05232D01*
X16066Y-05085D01*
X16044Y-05037D01*
X16021Y-05012D01*
X15976Y-04988D01*
X15886Y-04988D01*
X15841Y-05012D01*
X15549Y-05329D02*
X15594Y-05305D01*
X15617Y-05280D01*
X15639Y-05232D01*
X15639Y-05085D01*
X15617Y-05037D01*
X15594Y-05012D01*
X15549Y-04988D01*
X15482Y-04988D01*
X15437Y-05012D01*
X15414Y-05037D01*
X15392Y-05085D01*
X15392Y-05232D01*
X15414Y-05280D01*
X15437Y-05305D01*
X15482Y-05329D01*
X15549Y-05329D01*
X15122Y-05329D02*
X15167Y-05305D01*
X15190Y-05280D01*
X15212Y-05232D01*
X15212Y-05085D01*
X15190Y-05037D01*
X15167Y-05012D01*
X15122Y-04988D01*
X15055Y-04988D01*
X15010Y-05012D01*
X14987Y-05037D01*
X14965Y-05085D01*
X14965Y-05232D01*
X14987Y-05280D01*
X15010Y-05305D01*
X15055Y-05329D01*
X15122Y-05329D01*
X14560Y-04988D02*
X14560Y-05402D01*
X14583Y-05451D01*
X14605Y-05476D01*
X14650Y-05500D01*
X14718Y-05500D01*
X14763Y-05476D01*
X14560Y-05305D02*
X14605Y-05329D01*
X14695Y-05329D01*
X14740Y-05305D01*
X14763Y-05280D01*
X14785Y-05232D01*
X14785Y-05085D01*
X14763Y-05037D01*
X14740Y-05012D01*
X14695Y-04988D01*
X14605Y-04988D01*
X14560Y-05012D01*
X14268Y-05329D02*
X14313Y-05305D01*
X14336Y-05256D01*
X14336Y-04817D01*
X13909Y-05305D02*
X13954Y-05329D01*
X14044Y-05329D01*
X14089Y-05305D01*
X14111Y-05256D01*
X14111Y-05061D01*
X14089Y-05012D01*
X14044Y-04988D01*
X13954Y-04988D01*
X13909Y-05012D01*
X13886Y-05061D01*
X13886Y-05110D01*
X14111Y-05159D01*
X13481Y-05305D02*
X13526Y-05329D01*
X13616Y-05329D01*
X13661Y-05305D01*
X13684Y-05280D01*
X13706Y-05232D01*
X13706Y-05085D01*
X13684Y-05037D01*
X13661Y-05012D01*
X13616Y-04988D01*
X13526Y-04988D01*
X13481Y-05012D01*
X13211Y-05329D02*
X13256Y-05305D01*
X13279Y-05280D01*
X13301Y-05232D01*
X13301Y-05085D01*
X13279Y-05037D01*
X13256Y-05012D01*
X13211Y-04988D01*
X13144Y-04988D01*
X13099Y-05012D01*
X13076Y-05037D01*
X13054Y-05085D01*
X13054Y-05232D01*
X13076Y-05280D01*
X13099Y-05305D01*
X13144Y-05329D01*
X13211Y-05329D01*
X12649Y-05329D02*
X12649Y-04817D01*
X12649Y-05305D02*
X12694Y-05329D01*
X12784Y-05329D01*
X12829Y-05305D01*
X12852Y-05280D01*
X12874Y-05232D01*
X12874Y-05085D01*
X12852Y-05037D01*
X12829Y-05012D01*
X12784Y-04988D01*
X12694Y-04988D01*
X12649Y-05012D01*
X12245Y-05305D02*
X12290Y-05329D01*
X12380Y-05329D01*
X12425Y-05305D01*
X12447Y-05256D01*
X12447Y-05061D01*
X12425Y-05012D01*
X12380Y-04988D01*
X12290Y-04988D01*
X12245Y-05012D01*
X12222Y-05061D01*
X12222Y-05110D01*
X12447Y-05159D01*
X12020Y-05280D02*
X11997Y-05305D01*
X12020Y-05329D01*
X12042Y-05305D01*
X12020Y-05280D01*
X12020Y-05329D01*
X11592Y-05305D02*
X11637Y-05329D01*
X11727Y-05329D01*
X11772Y-05305D01*
X11795Y-05280D01*
X11817Y-05232D01*
X11817Y-05085D01*
X11795Y-05037D01*
X11772Y-05012D01*
X11727Y-04988D01*
X11637Y-04988D01*
X11592Y-05012D01*
X11322Y-05329D02*
X11367Y-05305D01*
X11390Y-05280D01*
X11412Y-05232D01*
X11412Y-05085D01*
X11390Y-05037D01*
X11367Y-05012D01*
X11322Y-04988D01*
X11255Y-04988D01*
X11210Y-05012D01*
X11187Y-05037D01*
X11165Y-05085D01*
X11165Y-05232D01*
X11187Y-05280D01*
X11210Y-05305D01*
X11255Y-05329D01*
X11322Y-05329D01*
X10963Y-05329D02*
X10963Y-04988D01*
X10963Y-05037D02*
X10940Y-05012D01*
X10895Y-04988D01*
X10828Y-04988D01*
X10783Y-05012D01*
X10760Y-05061D01*
X10760Y-05329D01*
X10760Y-05061D02*
X10738Y-05012D01*
X10693Y-04988D01*
X10625Y-04988D01*
X10581Y-05012D01*
X10558Y-05061D01*
X10558Y-05329D01*
G54D13*
X03622Y-08169D03*
X01890Y-08169D03*
G54D14*
X02166Y-03053D03*
G54D15*
X23478Y-08982D03*
G54D16*
X10828Y-09232D03*
G54D17*
X10398Y-03932D03*
X10398Y-01932D03*
G54D18*
X11978Y-05092D03*
X12978Y-05092D03*
X13978Y-06092D03*
X13978Y-05092D03*
G54D19*
X05538Y-02352D03*
G54D18*
X05538Y-03352D03*
X05538Y-04352D03*
X05538Y-05352D03*
G54D14*
X02264Y-04726D03*
X03445Y-03742D03*
X03347Y-02167D03*
G54D19*
X24713Y-04984D03*
G54D18*
X23713Y-04984D03*
X24713Y-05984D03*
X23713Y-05984D03*
X24713Y-06984D03*
X23713Y-06984D03*
G54D20*
X19976Y-02898D03*
X16308Y-03902D03*
X11978Y-01302D03*
G54D21*
X16308Y-02972D03*
G54D20*
X18878Y-01282D03*
G54D21*
X17958Y-02082D03*
X19978Y-03962D03*
X17328Y-04232D03*
X17318Y-02592D03*
X21654Y-05157D03*
X18937Y-05984D03*
X21668Y-05842D03*
X17788Y-05772D03*
X17018Y-02082D03*
X14268Y-01612D03*
X13588Y-02172D03*
X21178Y-04732D03*
G54D22*
X20758Y-06342D03*
G54D21*
X05408Y-01582D03*
X10236Y-05032D03*
X15598Y-01362D03*
X08088Y-09552D03*
X06178Y-09542D03*
X06558Y-00792D03*
X05528Y-08862D03*
X16928Y-02952D03*
X17758Y-03542D03*
G54D20*
X13528Y-03262D03*
G54D21*
X15078Y-06282D03*
X08088Y-08462D03*
X09788Y-09532D03*
X05658Y-00812D03*
X08425Y-05221D03*
X05518Y-07472D03*
X18258Y-06292D03*
X14658Y-01362D03*
X10937Y-07264D03*
X19978Y-03452D03*
X19488Y-06002D03*
X17488Y-02062D03*
X14248Y-02132D03*
X08088Y-03712D03*
X07168Y-06202D03*
X07528Y-05212D03*
X21188Y-05862D03*
X20928Y-05092D03*
X12638Y-03543D03*
X12638Y-02323D03*
G54D23*
X18878Y-02136D02*
X19640Y-02898D01*
X11978Y-01302D02*
X11978Y-05092D01*
X19640Y-02898D02*
X19976Y-02898D01*
X18878Y-01282D02*
X18878Y-02136D01*
G54D24*
X16308Y-02972D02*
X16308Y-03902D01*
G54D25*
X19978Y-03962D02*
X18738Y-03962D01*
X18738Y-03962D02*
X17958Y-03182D01*
X17958Y-02082D02*
X17958Y-03182D01*
X17318Y-02592D02*
X17328Y-02602D01*
X17328Y-02602D02*
X17328Y-04232D01*
X19039Y-06362D02*
X18937Y-06260D01*
X18937Y-06260D02*
X18937Y-05984D01*
X21654Y-04528D02*
X21654Y-05157D01*
X20635Y-04335D02*
X20638Y-04332D01*
X19298Y-06362D02*
X19888Y-06362D01*
X20058Y-06192D02*
X20058Y-04912D01*
X19888Y-06362D02*
X20058Y-06192D01*
X19298Y-06362D02*
X19039Y-06362D01*
X21461Y-04335D02*
X21654Y-04528D01*
X20058Y-04912D02*
X20635Y-04335D01*
X20635Y-04335D02*
X21461Y-04335D01*
X12658Y-06592D02*
X16808Y-06592D01*
X21509Y-06641D02*
X17957Y-06641D01*
X12978Y-05092D02*
X12478Y-05592D01*
X16808Y-06592D02*
X16968Y-06592D01*
X12478Y-05592D02*
X12478Y-06412D01*
X17788Y-06472D02*
X17788Y-05772D01*
X21688Y-06462D02*
X21509Y-06641D01*
X21688Y-05862D02*
X21688Y-06462D01*
X12478Y-06412D02*
X12658Y-06592D01*
X17957Y-06641D02*
X17788Y-06472D01*
X16968Y-06592D02*
X17788Y-05772D01*
X21668Y-05842D02*
X21688Y-05862D01*
X13478Y-04592D02*
X13118Y-04232D01*
X13118Y-02642D02*
X13588Y-02172D01*
X14718Y-02082D02*
X17018Y-02082D01*
X13478Y-05692D02*
X13478Y-04592D01*
X14268Y-01632D02*
X14718Y-02082D01*
X13878Y-06092D02*
X13478Y-05692D01*
X13978Y-06092D02*
X13878Y-06092D01*
X14268Y-01612D02*
X14268Y-01632D01*
X13118Y-04232D02*
X13118Y-02642D01*
X20588Y-06142D02*
X20588Y-04942D01*
X20588Y-04942D02*
X20588Y-04862D01*
X20718Y-04732D02*
X21178Y-04732D01*
X20588Y-04862D02*
X20718Y-04732D01*
X20588Y-06172D02*
X20758Y-06342D01*
X20588Y-06172D02*
X20588Y-06142D01*
X20588Y-06152D02*
X20588Y-06142D01*
X16108Y-05252D02*
X16928Y-04432D01*
X22683Y-05867D02*
X22578Y-05762D01*
X13978Y-04432D02*
X13528Y-03982D01*
X06248Y-01962D02*
X05868Y-01582D01*
X20448Y-03922D02*
X19978Y-03452D01*
X17758Y-03442D02*
X17638Y-03322D01*
X08088Y-09552D02*
X06188Y-09552D01*
X17638Y-02362D02*
X17488Y-02212D01*
X06248Y-02952D02*
X06248Y-03952D01*
X05528Y-08862D02*
X05518Y-08852D01*
X05538Y-05352D02*
X05608Y-05352D01*
X05678Y-00792D02*
X06558Y-00792D01*
X17758Y-03542D02*
X17758Y-03442D01*
X22683Y-07297D02*
X22683Y-05867D01*
X22683Y-07297D02*
X23178Y-07792D01*
X16928Y-04432D02*
X16928Y-02952D01*
X22018Y-04452D02*
X21658Y-04092D01*
X19678Y-05652D02*
X19678Y-04862D01*
X24728Y-07532D02*
X24713Y-07547D01*
X10236Y-06563D02*
X10236Y-05032D01*
X22578Y-05762D02*
X22018Y-05202D01*
X16788Y-01362D02*
X17488Y-02062D01*
X08088Y-08462D02*
X08088Y-09552D01*
X24468Y-07792D02*
X23178Y-07792D01*
X20448Y-04092D02*
X21658Y-04092D01*
X13978Y-05092D02*
X13978Y-04432D01*
X17488Y-02212D02*
X17488Y-02062D01*
X22578Y-05762D02*
X22578Y-05712D01*
X05608Y-05352D02*
X06248Y-04712D01*
X13528Y-02852D02*
X14248Y-02132D01*
X15598Y-01362D02*
X14658Y-01362D01*
X22018Y-05202D02*
X22018Y-04452D01*
X22683Y-07297D02*
X22648Y-07262D01*
X05868Y-01582D02*
X05408Y-01582D01*
X06248Y-04712D02*
X06248Y-03952D01*
X06248Y-02952D02*
X06248Y-01962D01*
X20448Y-04092D02*
X20448Y-03922D01*
X17638Y-03322D02*
X17638Y-02362D01*
X24713Y-07547D02*
X24468Y-07792D01*
X05658Y-00812D02*
X05678Y-00792D01*
X24728Y-07532D02*
X24728Y-06999D01*
X06188Y-09552D02*
X06178Y-09542D01*
X24728Y-06999D02*
X24713Y-06984D01*
X08088Y-08462D02*
X08088Y-03712D01*
X10937Y-07264D02*
X10236Y-06563D01*
X05518Y-08852D02*
X05518Y-07472D01*
X15598Y-01362D02*
X16788Y-01362D01*
X14658Y-01362D02*
X14678Y-01342D01*
X19488Y-05842D02*
X19488Y-06002D01*
X19488Y-05842D02*
X19678Y-05652D01*
X13528Y-03262D02*
X13528Y-02852D01*
X13528Y-03982D02*
X13528Y-03262D01*
X14188Y-05252D02*
X16108Y-05252D01*
X07168Y-05572D02*
X07168Y-06202D01*
X07528Y-05212D02*
X07168Y-05572D01*
X21188Y-05862D02*
X20928Y-05602D01*
X20928Y-05602D02*
X20928Y-05092D01*
X12638Y-02323D02*
X12638Y-03543D01*
G54D10*
G36*
X24903Y-08597D02*
X24494Y-09006D01*
X24492Y-08771D01*
X24344Y-08414D01*
X24201Y-08329D01*
X24131Y-08399D01*
X23549Y-08982D01*
X23478Y-09053D01*
X23407Y-08982D01*
X23478Y-08911D01*
X23513Y-08876D01*
X24131Y-08259D01*
X24046Y-08116D01*
X23671Y-07964D01*
X23267Y-07968D01*
X22910Y-08116D01*
X22851Y-08214D01*
X22809Y-08172D01*
X22809Y-06748D01*
X22784Y-06624D01*
X22714Y-06518D01*
X22608Y-06448D01*
X22484Y-06423D01*
X21978Y-06423D01*
X21978Y-06106D01*
X22012Y-06073D01*
X22074Y-05923D01*
X22074Y-05762D01*
X22012Y-05613D01*
X21899Y-05498D01*
X21889Y-05494D01*
X21998Y-05388D01*
X22060Y-05238D01*
X22060Y-05077D01*
X21998Y-04928D01*
X21944Y-04873D01*
X21944Y-04528D01*
X21943Y-04527D01*
X21922Y-04417D01*
X21921Y-04416D01*
X21859Y-04323D01*
X21858Y-04322D01*
X21666Y-04130D01*
X21572Y-04067D01*
X21461Y-04045D01*
X20653Y-04045D01*
X20638Y-04042D01*
X20527Y-04064D01*
X20433Y-04127D01*
X20430Y-04130D01*
X20401Y-04159D01*
X20401Y-02983D01*
X20401Y-02814D01*
X20337Y-02658D01*
X20217Y-02538D01*
X20061Y-02473D01*
X19892Y-02473D01*
X19831Y-02498D01*
X19805Y-02498D01*
X19278Y-01970D01*
X19278Y-01427D01*
X19303Y-01367D01*
X19303Y-01198D01*
X19239Y-01042D01*
X19119Y-00922D01*
X18963Y-00857D01*
X18794Y-00857D01*
X18638Y-00921D01*
X18518Y-01041D01*
X18453Y-01197D01*
X18453Y-01366D01*
X18478Y-01426D01*
X18478Y-02136D01*
X18508Y-02289D01*
X18595Y-02419D01*
X19354Y-03177D01*
X19357Y-03181D01*
X19486Y-03267D01*
X19487Y-03268D01*
X19640Y-03298D01*
X19831Y-03298D01*
X19891Y-03323D01*
X20060Y-03323D01*
X20216Y-03259D01*
X20336Y-03139D01*
X20401Y-02983D01*
X20401Y-04159D01*
X20384Y-04176D01*
X20384Y-04043D01*
X20384Y-03882D01*
X20322Y-03733D01*
X20209Y-03618D01*
X20059Y-03556D01*
X19898Y-03556D01*
X19749Y-03618D01*
X19694Y-03672D01*
X18858Y-03672D01*
X18248Y-03062D01*
X18248Y-02366D01*
X18302Y-02313D01*
X18364Y-02163D01*
X18364Y-02002D01*
X18302Y-01853D01*
X18189Y-01738D01*
X18039Y-01676D01*
X17878Y-01676D01*
X17729Y-01738D01*
X17614Y-01851D01*
X17552Y-02001D01*
X17552Y-02162D01*
X17614Y-02311D01*
X17668Y-02365D01*
X17668Y-02377D01*
X17662Y-02363D01*
X17549Y-02248D01*
X17412Y-02191D01*
X17424Y-02163D01*
X17424Y-02002D01*
X17362Y-01853D01*
X17249Y-01738D01*
X17099Y-01676D01*
X16938Y-01676D01*
X16789Y-01738D01*
X16734Y-01792D01*
X14838Y-01792D01*
X14674Y-01628D01*
X14674Y-01532D01*
X14612Y-01383D01*
X14499Y-01268D01*
X14349Y-01206D01*
X14188Y-01206D01*
X14039Y-01268D01*
X13924Y-01381D01*
X13862Y-01531D01*
X13862Y-01692D01*
X13924Y-01841D01*
X14037Y-01956D01*
X14187Y-02018D01*
X14244Y-02018D01*
X14513Y-02287D01*
X14607Y-02350D01*
X14718Y-02372D01*
X16733Y-02372D01*
X16787Y-02426D01*
X16923Y-02482D01*
X16912Y-02511D01*
X16912Y-02672D01*
X16974Y-02821D01*
X17038Y-02886D01*
X17038Y-03947D01*
X16984Y-04001D01*
X16922Y-04151D01*
X16922Y-04312D01*
X16984Y-04461D01*
X17097Y-04576D01*
X17247Y-04638D01*
X17408Y-04638D01*
X17557Y-04576D01*
X17672Y-04463D01*
X17734Y-04313D01*
X17734Y-04152D01*
X17672Y-04003D01*
X17618Y-03948D01*
X17618Y-02866D01*
X17662Y-02823D01*
X17668Y-02808D01*
X17668Y-03182D01*
X17690Y-03293D01*
X17753Y-03387D01*
X18533Y-04167D01*
X18627Y-04230D01*
X18738Y-04252D01*
X19693Y-04252D01*
X19747Y-04306D01*
X19897Y-04368D01*
X20058Y-04368D01*
X20207Y-04306D01*
X20322Y-04193D01*
X20384Y-04043D01*
X20384Y-04176D01*
X19853Y-04707D01*
X19790Y-04801D01*
X19768Y-04912D01*
X19768Y-06072D01*
X19340Y-06072D01*
X19343Y-06065D01*
X19343Y-05904D01*
X19281Y-05755D01*
X19168Y-05640D01*
X19018Y-05578D01*
X18857Y-05578D01*
X18708Y-05640D01*
X18593Y-05753D01*
X18531Y-05903D01*
X18531Y-06064D01*
X18593Y-06213D01*
X18648Y-06269D01*
X18665Y-06351D01*
X18078Y-06351D01*
X18078Y-06056D01*
X18132Y-06003D01*
X18194Y-05853D01*
X18194Y-05692D01*
X18132Y-05543D01*
X18019Y-05428D01*
X17869Y-05366D01*
X17708Y-05366D01*
X17559Y-05428D01*
X17444Y-05541D01*
X17382Y-05691D01*
X17382Y-05767D01*
X16847Y-06302D01*
X16808Y-06302D01*
X16733Y-06302D01*
X16733Y-03987D01*
X16733Y-03818D01*
X16669Y-03662D01*
X16636Y-03629D01*
X16636Y-03218D01*
X16652Y-03203D01*
X16714Y-03053D01*
X16714Y-02892D01*
X16652Y-02743D01*
X16539Y-02628D01*
X16389Y-02566D01*
X16228Y-02566D01*
X16079Y-02628D01*
X15964Y-02741D01*
X15902Y-02891D01*
X15902Y-03052D01*
X15964Y-03201D01*
X15980Y-03217D01*
X15980Y-03629D01*
X15948Y-03661D01*
X15883Y-03817D01*
X15883Y-03986D01*
X15947Y-04142D01*
X16067Y-04262D01*
X16223Y-04327D01*
X16392Y-04327D01*
X16548Y-04263D01*
X16668Y-04143D01*
X16733Y-03987D01*
X16733Y-06302D01*
X14485Y-06302D01*
X14527Y-06201D01*
X14527Y-05983D01*
X14521Y-05968D01*
X14521Y-05171D01*
X14510Y-04958D01*
X14450Y-04811D01*
X14356Y-04784D01*
X14049Y-05092D01*
X14356Y-05400D01*
X14450Y-05373D01*
X14521Y-05171D01*
X14521Y-05968D01*
X14443Y-05781D01*
X14289Y-05627D01*
X14197Y-05589D01*
X14259Y-05564D01*
X14286Y-05470D01*
X14013Y-05198D01*
X13978Y-05163D01*
X13907Y-05092D01*
X13978Y-05021D01*
X14013Y-04986D01*
X14286Y-04714D01*
X14259Y-04620D01*
X14057Y-04549D01*
X13844Y-04560D01*
X13767Y-04591D01*
X13746Y-04481D01*
X13683Y-04387D01*
X13408Y-04112D01*
X13408Y-02762D01*
X13592Y-02578D01*
X13668Y-02578D01*
X13817Y-02516D01*
X13932Y-02403D01*
X13994Y-02253D01*
X13994Y-02092D01*
X13932Y-01943D01*
X13819Y-01828D01*
X13669Y-01766D01*
X13508Y-01766D01*
X13359Y-01828D01*
X13244Y-01941D01*
X13182Y-02091D01*
X13182Y-02167D01*
X13044Y-02305D01*
X13044Y-02243D01*
X12982Y-02094D01*
X12869Y-01979D01*
X12719Y-01917D01*
X12558Y-01917D01*
X12409Y-01979D01*
X12378Y-02009D01*
X12378Y-01447D01*
X12403Y-01387D01*
X12403Y-01218D01*
X12339Y-01062D01*
X12219Y-00942D01*
X12063Y-00877D01*
X11894Y-00877D01*
X11738Y-00941D01*
X11618Y-01061D01*
X11553Y-01217D01*
X11553Y-01386D01*
X11578Y-01446D01*
X11578Y-04716D01*
X11513Y-04781D01*
X11429Y-04983D01*
X11429Y-05201D01*
X11513Y-05403D01*
X11667Y-05557D01*
X11869Y-05641D01*
X12087Y-05641D01*
X12188Y-05599D01*
X12188Y-06412D01*
X12190Y-06423D01*
X11578Y-06423D01*
X11454Y-06448D01*
X11348Y-06518D01*
X11278Y-06624D01*
X11253Y-06748D01*
X11253Y-08431D01*
X10993Y-08328D01*
X10928Y-08328D01*
X10928Y-04038D01*
X10928Y-03827D01*
X10928Y-02038D01*
X10928Y-01827D01*
X10847Y-01632D01*
X10699Y-01483D01*
X10504Y-01402D01*
X10293Y-01402D01*
X10098Y-01483D01*
X09949Y-01631D01*
X09868Y-01826D01*
X09868Y-02037D01*
X09949Y-02232D01*
X10097Y-02381D01*
X10292Y-02462D01*
X10503Y-02462D01*
X10698Y-02381D01*
X10847Y-02233D01*
X10928Y-02038D01*
X10928Y-03827D01*
X10847Y-03632D01*
X10699Y-03483D01*
X10504Y-03402D01*
X10293Y-03402D01*
X10098Y-03483D01*
X09949Y-03631D01*
X09868Y-03826D01*
X09868Y-04037D01*
X09949Y-04232D01*
X10097Y-04381D01*
X10292Y-04462D01*
X10503Y-04462D01*
X10698Y-04381D01*
X10847Y-04233D01*
X10928Y-04038D01*
X10928Y-08328D01*
X10635Y-08333D01*
X10329Y-08461D01*
X10259Y-08592D01*
X10793Y-09126D01*
X10828Y-09161D01*
X10899Y-09232D01*
X10828Y-09303D01*
X10793Y-09338D01*
X10757Y-09374D01*
X10757Y-09232D01*
X10188Y-08663D01*
X10057Y-08733D01*
X09924Y-09067D01*
X09929Y-09425D01*
X10057Y-09731D01*
X10188Y-09801D01*
X10757Y-09232D01*
X10757Y-09374D01*
X10259Y-09872D01*
X10272Y-09897D01*
X07934Y-09897D01*
X07934Y-05293D01*
X07934Y-05132D01*
X07872Y-04983D01*
X07759Y-04868D01*
X07609Y-04806D01*
X07448Y-04806D01*
X07299Y-04868D01*
X07184Y-04981D01*
X07122Y-05131D01*
X07122Y-05208D01*
X06963Y-05367D01*
X06900Y-05461D01*
X06878Y-05572D01*
X06878Y-05917D01*
X06824Y-05971D01*
X06762Y-06121D01*
X06762Y-06282D01*
X06824Y-06431D01*
X06937Y-06546D01*
X07087Y-06608D01*
X07248Y-06608D01*
X07397Y-06546D01*
X07512Y-06433D01*
X07574Y-06283D01*
X07574Y-06122D01*
X07512Y-05973D01*
X07458Y-05918D01*
X07458Y-05692D01*
X07532Y-05618D01*
X07608Y-05618D01*
X07757Y-05556D01*
X07872Y-05443D01*
X07934Y-05293D01*
X07934Y-09897D01*
X06087Y-09897D01*
X06087Y-04461D01*
X06087Y-04243D01*
X06003Y-04041D01*
X05849Y-03887D01*
X05764Y-03852D01*
X05849Y-03817D01*
X06003Y-03663D01*
X06087Y-03461D01*
X06087Y-03243D01*
X06003Y-03041D01*
X05863Y-02901D01*
X05887Y-02901D01*
X05979Y-02863D01*
X06049Y-02793D01*
X06087Y-02702D01*
X06087Y-02603D01*
X06087Y-02003D01*
X06049Y-01911D01*
X05979Y-01841D01*
X05888Y-01803D01*
X05789Y-01803D01*
X05189Y-01803D01*
X05097Y-01841D01*
X05027Y-01911D01*
X04989Y-02002D01*
X04989Y-02101D01*
X04989Y-02701D01*
X05027Y-02793D01*
X05097Y-02863D01*
X05188Y-02901D01*
X05213Y-02901D01*
X05073Y-03041D01*
X04989Y-03243D01*
X04989Y-03461D01*
X05073Y-03663D01*
X05227Y-03817D01*
X05311Y-03852D01*
X05227Y-03887D01*
X05073Y-04041D01*
X04989Y-04243D01*
X04989Y-04461D01*
X05073Y-04663D01*
X05227Y-04817D01*
X05318Y-04854D01*
X05257Y-04880D01*
X05230Y-04974D01*
X05538Y-05281D01*
X05846Y-04974D01*
X05819Y-04880D01*
X05753Y-04856D01*
X05849Y-04817D01*
X06003Y-04663D01*
X06087Y-04461D01*
X06087Y-09897D01*
X06081Y-09897D01*
X06081Y-05431D01*
X06070Y-05218D01*
X06010Y-05071D01*
X05916Y-05044D01*
X05609Y-05352D01*
X05916Y-05660D01*
X06010Y-05633D01*
X06081Y-05431D01*
X06081Y-09897D01*
X05846Y-09897D01*
X05846Y-05730D01*
X05538Y-05423D01*
X05467Y-05493D01*
X05467Y-05352D01*
X05160Y-05044D01*
X05066Y-05071D01*
X04995Y-05273D01*
X05006Y-05486D01*
X05066Y-05633D01*
X05160Y-05660D01*
X05467Y-05352D01*
X05467Y-05493D01*
X05230Y-05730D01*
X05257Y-05824D01*
X05459Y-05895D01*
X05672Y-05884D01*
X05819Y-05824D01*
X05846Y-05730D01*
X05846Y-09897D01*
X05514Y-09897D01*
X04778Y-09187D01*
X04778Y-00794D01*
X04789Y-00794D01*
X05009Y-00557D01*
X22343Y-00557D01*
X22653Y-00867D01*
X22653Y-03982D01*
X22678Y-04106D01*
X22748Y-04212D01*
X22854Y-04282D01*
X22978Y-04307D01*
X24903Y-04307D01*
X24903Y-04435D01*
X24364Y-04435D01*
X24272Y-04473D01*
X24202Y-04543D01*
X24164Y-04634D01*
X24164Y-04659D01*
X24024Y-04519D01*
X23822Y-04435D01*
X23604Y-04435D01*
X23402Y-04519D01*
X23248Y-04673D01*
X23164Y-04875D01*
X23164Y-05093D01*
X23248Y-05295D01*
X23402Y-05449D01*
X23486Y-05484D01*
X23402Y-05519D01*
X23248Y-05673D01*
X23164Y-05875D01*
X23164Y-06093D01*
X23248Y-06295D01*
X23402Y-06449D01*
X23486Y-06484D01*
X23402Y-06519D01*
X23248Y-06673D01*
X23164Y-06875D01*
X23164Y-07093D01*
X23248Y-07295D01*
X23402Y-07449D01*
X23604Y-07533D01*
X23822Y-07533D01*
X24024Y-07449D01*
X24178Y-07295D01*
X24215Y-07203D01*
X24241Y-07265D01*
X24335Y-07292D01*
X24642Y-06984D01*
X24335Y-06676D01*
X24241Y-06703D01*
X24217Y-06768D01*
X24178Y-06673D01*
X24024Y-06519D01*
X23939Y-06484D01*
X24024Y-06449D01*
X24178Y-06295D01*
X24213Y-06210D01*
X24248Y-06295D01*
X24402Y-06449D01*
X24493Y-06486D01*
X24432Y-06512D01*
X24405Y-06606D01*
X24678Y-06878D01*
X24713Y-06913D01*
X24784Y-06984D01*
X24713Y-07055D01*
X24405Y-07362D01*
X24432Y-07456D01*
X24634Y-07527D01*
X24847Y-07516D01*
X24903Y-07493D01*
X24903Y-08597D01*
X24903Y-08597D01*
G37*
G54D26*
X24903Y-08597D02*
X24494Y-09006D01*
X24492Y-08771D01*
X24344Y-08414D01*
X24201Y-08329D01*
X24131Y-08399D01*
X23549Y-08982D01*
X23478Y-09053D01*
X23407Y-08982D01*
X23478Y-08911D01*
X23513Y-08876D01*
X24131Y-08259D01*
X24046Y-08116D01*
X23671Y-07964D01*
X23267Y-07968D01*
X22910Y-08116D01*
X22851Y-08214D01*
X22809Y-08172D01*
X22809Y-06748D01*
X22784Y-06624D01*
X22714Y-06518D01*
X22608Y-06448D01*
X22484Y-06423D01*
X21978Y-06423D01*
X21978Y-06106D01*
X22012Y-06073D01*
X22074Y-05923D01*
X22074Y-05762D01*
X22012Y-05613D01*
X21899Y-05498D01*
X21889Y-05494D01*
X21998Y-05388D01*
X22060Y-05238D01*
X22060Y-05077D01*
X21998Y-04928D01*
X21944Y-04873D01*
X21944Y-04528D01*
X21943Y-04527D01*
X21922Y-04417D01*
X21921Y-04416D01*
X21859Y-04323D01*
X21858Y-04322D01*
X21666Y-04130D01*
X21572Y-04067D01*
X21461Y-04045D01*
X20653Y-04045D01*
X20638Y-04042D01*
X20527Y-04064D01*
X20433Y-04127D01*
X20430Y-04130D01*
X20401Y-04159D01*
X20401Y-02983D01*
X20401Y-02814D01*
X20337Y-02658D01*
X20217Y-02538D01*
X20061Y-02473D01*
X19892Y-02473D01*
X19831Y-02498D01*
X19805Y-02498D01*
X19278Y-01970D01*
X19278Y-01427D01*
X19303Y-01367D01*
X19303Y-01198D01*
X19239Y-01042D01*
X19119Y-00922D01*
X18963Y-00857D01*
X18794Y-00857D01*
X18638Y-00921D01*
X18518Y-01041D01*
X18453Y-01197D01*
X18453Y-01366D01*
X18478Y-01426D01*
X18478Y-02136D01*
X18508Y-02289D01*
X18595Y-02419D01*
X19354Y-03177D01*
X19357Y-03181D01*
X19486Y-03267D01*
X19487Y-03268D01*
X19640Y-03298D01*
X19831Y-03298D01*
X19891Y-03323D01*
X20060Y-03323D01*
X20216Y-03259D01*
X20336Y-03139D01*
X20401Y-02983D01*
X20401Y-04159D01*
X20384Y-04176D01*
X20384Y-04043D01*
X20384Y-03882D01*
X20322Y-03733D01*
X20209Y-03618D01*
X20059Y-03556D01*
X19898Y-03556D01*
X19749Y-03618D01*
X19694Y-03672D01*
X18858Y-03672D01*
X18248Y-03062D01*
X18248Y-02366D01*
X18302Y-02313D01*
X18364Y-02163D01*
X18364Y-02002D01*
X18302Y-01853D01*
X18189Y-01738D01*
X18039Y-01676D01*
X17878Y-01676D01*
X17729Y-01738D01*
X17614Y-01851D01*
X17552Y-02001D01*
X17552Y-02162D01*
X17614Y-02311D01*
X17668Y-02365D01*
X17668Y-02377D01*
X17662Y-02363D01*
X17549Y-02248D01*
X17412Y-02191D01*
X17424Y-02163D01*
X17424Y-02002D01*
X17362Y-01853D01*
X17249Y-01738D01*
X17099Y-01676D01*
X16938Y-01676D01*
X16789Y-01738D01*
X16734Y-01792D01*
X14838Y-01792D01*
X14674Y-01628D01*
X14674Y-01532D01*
X14612Y-01383D01*
X14499Y-01268D01*
X14349Y-01206D01*
X14188Y-01206D01*
X14039Y-01268D01*
X13924Y-01381D01*
X13862Y-01531D01*
X13862Y-01692D01*
X13924Y-01841D01*
X14037Y-01956D01*
X14187Y-02018D01*
X14244Y-02018D01*
X14513Y-02287D01*
X14607Y-02350D01*
X14718Y-02372D01*
X16733Y-02372D01*
X16787Y-02426D01*
X16923Y-02482D01*
X16912Y-02511D01*
X16912Y-02672D01*
X16974Y-02821D01*
X17038Y-02886D01*
X17038Y-03947D01*
X16984Y-04001D01*
X16922Y-04151D01*
X16922Y-04312D01*
X16984Y-04461D01*
X17097Y-04576D01*
X17247Y-04638D01*
X17408Y-04638D01*
X17557Y-04576D01*
X17672Y-04463D01*
X17734Y-04313D01*
X17734Y-04152D01*
X17672Y-04003D01*
X17618Y-03948D01*
X17618Y-02866D01*
X17662Y-02823D01*
X17668Y-02808D01*
X17668Y-03182D01*
X17690Y-03293D01*
X17753Y-03387D01*
X18533Y-04167D01*
X18627Y-04230D01*
X18738Y-04252D01*
X19693Y-04252D01*
X19747Y-04306D01*
X19897Y-04368D01*
X20058Y-04368D01*
X20207Y-04306D01*
X20322Y-04193D01*
X20384Y-04043D01*
X20384Y-04176D01*
X19853Y-04707D01*
X19790Y-04801D01*
X19768Y-04912D01*
X19768Y-06072D01*
X19340Y-06072D01*
X19343Y-06065D01*
X19343Y-05904D01*
X19281Y-05755D01*
X19168Y-05640D01*
X19018Y-05578D01*
X18857Y-05578D01*
X18708Y-05640D01*
X18593Y-05753D01*
X18531Y-05903D01*
X18531Y-06064D01*
X18593Y-06213D01*
X18648Y-06269D01*
X18665Y-06351D01*
X18078Y-06351D01*
X18078Y-06056D01*
X18132Y-06003D01*
X18194Y-05853D01*
X18194Y-05692D01*
X18132Y-05543D01*
X18019Y-05428D01*
X17869Y-05366D01*
X17708Y-05366D01*
X17559Y-05428D01*
X17444Y-05541D01*
X17382Y-05691D01*
X17382Y-05767D01*
X16847Y-06302D01*
X16808Y-06302D01*
X16733Y-06302D01*
X16733Y-03987D01*
X16733Y-03818D01*
X16669Y-03662D01*
X16636Y-03629D01*
X16636Y-03218D01*
X16652Y-03203D01*
X16714Y-03053D01*
X16714Y-02892D01*
X16652Y-02743D01*
X16539Y-02628D01*
X16389Y-02566D01*
X16228Y-02566D01*
X16079Y-02628D01*
X15964Y-02741D01*
X15902Y-02891D01*
X15902Y-03052D01*
X15964Y-03201D01*
X15980Y-03217D01*
X15980Y-03629D01*
X15948Y-03661D01*
X15883Y-03817D01*
X15883Y-03986D01*
X15947Y-04142D01*
X16067Y-04262D01*
X16223Y-04327D01*
X16392Y-04327D01*
X16548Y-04263D01*
X16668Y-04143D01*
X16733Y-03987D01*
X16733Y-06302D01*
X14485Y-06302D01*
X14527Y-06201D01*
X14527Y-05983D01*
X14521Y-05968D01*
X14521Y-05171D01*
X14510Y-04958D01*
X14450Y-04811D01*
X14356Y-04784D01*
X14049Y-05092D01*
X14356Y-05400D01*
X14450Y-05373D01*
X14521Y-05171D01*
X14521Y-05968D01*
X14443Y-05781D01*
X14289Y-05627D01*
X14197Y-05589D01*
X14259Y-05564D01*
X14286Y-05470D01*
X14013Y-05198D01*
X13978Y-05163D01*
X13907Y-05092D01*
X13978Y-05021D01*
X14013Y-04986D01*
X14286Y-04714D01*
X14259Y-04620D01*
X14057Y-04549D01*
X13844Y-04560D01*
X13767Y-04591D01*
X13746Y-04481D01*
X13683Y-04387D01*
X13408Y-04112D01*
X13408Y-02762D01*
X13592Y-02578D01*
X13668Y-02578D01*
X13817Y-02516D01*
X13932Y-02403D01*
X13994Y-02253D01*
X13994Y-02092D01*
X13932Y-01943D01*
X13819Y-01828D01*
X13669Y-01766D01*
X13508Y-01766D01*
X13359Y-01828D01*
X13244Y-01941D01*
X13182Y-02091D01*
X13182Y-02167D01*
X13044Y-02305D01*
X13044Y-02243D01*
X12982Y-02094D01*
X12869Y-01979D01*
X12719Y-01917D01*
X12558Y-01917D01*
X12409Y-01979D01*
X12378Y-02009D01*
X12378Y-01447D01*
X12403Y-01387D01*
X12403Y-01218D01*
X12339Y-01062D01*
X12219Y-00942D01*
X12063Y-00877D01*
X11894Y-00877D01*
X11738Y-00941D01*
X11618Y-01061D01*
X11553Y-01217D01*
X11553Y-01386D01*
X11578Y-01446D01*
X11578Y-04716D01*
X11513Y-04781D01*
X11429Y-04983D01*
X11429Y-05201D01*
X11513Y-05403D01*
X11667Y-05557D01*
X11869Y-05641D01*
X12087Y-05641D01*
X12188Y-05599D01*
X12188Y-06412D01*
X12190Y-06423D01*
X11578Y-06423D01*
X11454Y-06448D01*
X11348Y-06518D01*
X11278Y-06624D01*
X11253Y-06748D01*
X11253Y-08431D01*
X10993Y-08328D01*
X10928Y-08328D01*
X10928Y-04038D01*
X10928Y-03827D01*
X10928Y-02038D01*
X10928Y-01827D01*
X10847Y-01632D01*
X10699Y-01483D01*
X10504Y-01402D01*
X10293Y-01402D01*
X10098Y-01483D01*
X09949Y-01631D01*
X09868Y-01826D01*
X09868Y-02037D01*
X09949Y-02232D01*
X10097Y-02381D01*
X10292Y-02462D01*
X10503Y-02462D01*
X10698Y-02381D01*
X10847Y-02233D01*
X10928Y-02038D01*
X10928Y-03827D01*
X10847Y-03632D01*
X10699Y-03483D01*
X10504Y-03402D01*
X10293Y-03402D01*
X10098Y-03483D01*
X09949Y-03631D01*
X09868Y-03826D01*
X09868Y-04037D01*
X09949Y-04232D01*
X10097Y-04381D01*
X10292Y-04462D01*
X10503Y-04462D01*
X10698Y-04381D01*
X10847Y-04233D01*
X10928Y-04038D01*
X10928Y-08328D01*
X10635Y-08333D01*
X10329Y-08461D01*
X10259Y-08592D01*
X10793Y-09126D01*
X10828Y-09161D01*
X10899Y-09232D01*
X10828Y-09303D01*
X10793Y-09338D01*
X10757Y-09374D01*
X10757Y-09232D01*
X10188Y-08663D01*
X10057Y-08733D01*
X09924Y-09067D01*
X09929Y-09425D01*
X10057Y-09731D01*
X10188Y-09801D01*
X10757Y-09232D01*
X10757Y-09374D01*
X10259Y-09872D01*
X10272Y-09897D01*
X07934Y-09897D01*
X07934Y-05293D01*
X07934Y-05132D01*
X07872Y-04983D01*
X07759Y-04868D01*
X07609Y-04806D01*
X07448Y-04806D01*
X07299Y-04868D01*
X07184Y-04981D01*
X07122Y-05131D01*
X07122Y-05208D01*
X06963Y-05367D01*
X06900Y-05461D01*
X06878Y-05572D01*
X06878Y-05917D01*
X06824Y-05971D01*
X06762Y-06121D01*
X06762Y-06282D01*
X06824Y-06431D01*
X06937Y-06546D01*
X07087Y-06608D01*
X07248Y-06608D01*
X07397Y-06546D01*
X07512Y-06433D01*
X07574Y-06283D01*
X07574Y-06122D01*
X07512Y-05973D01*
X07458Y-05918D01*
X07458Y-05692D01*
X07532Y-05618D01*
X07608Y-05618D01*
X07757Y-05556D01*
X07872Y-05443D01*
X07934Y-05293D01*
X07934Y-09897D01*
X06087Y-09897D01*
X06087Y-04461D01*
X06087Y-04243D01*
X06003Y-04041D01*
X05849Y-03887D01*
X05764Y-03852D01*
X05849Y-03817D01*
X06003Y-03663D01*
X06087Y-03461D01*
X06087Y-03243D01*
X06003Y-03041D01*
X05863Y-02901D01*
X05887Y-02901D01*
X05979Y-02863D01*
X06049Y-02793D01*
X06087Y-02702D01*
X06087Y-02603D01*
X06087Y-02003D01*
X06049Y-01911D01*
X05979Y-01841D01*
X05888Y-01803D01*
X05789Y-01803D01*
X05189Y-01803D01*
X05097Y-01841D01*
X05027Y-01911D01*
X04989Y-02002D01*
X04989Y-02101D01*
X04989Y-02701D01*
X05027Y-02793D01*
X05097Y-02863D01*
X05188Y-02901D01*
X05213Y-02901D01*
X05073Y-03041D01*
X04989Y-03243D01*
X04989Y-03461D01*
X05073Y-03663D01*
X05227Y-03817D01*
X05311Y-03852D01*
X05227Y-03887D01*
X05073Y-04041D01*
X04989Y-04243D01*
X04989Y-04461D01*
X05073Y-04663D01*
X05227Y-04817D01*
X05318Y-04854D01*
X05257Y-04880D01*
X05230Y-04974D01*
X05538Y-05281D01*
X05846Y-04974D01*
X05819Y-04880D01*
X05753Y-04856D01*
X05849Y-04817D01*
X06003Y-04663D01*
X06087Y-04461D01*
X06087Y-09897D01*
X06081Y-09897D01*
X06081Y-05431D01*
X06070Y-05218D01*
X06010Y-05071D01*
X05916Y-05044D01*
X05609Y-05352D01*
X05916Y-05660D01*
X06010Y-05633D01*
X06081Y-05431D01*
X06081Y-09897D01*
X05846Y-09897D01*
X05846Y-05730D01*
X05538Y-05423D01*
X05467Y-05493D01*
X05467Y-05352D01*
X05160Y-05044D01*
X05066Y-05071D01*
X04995Y-05273D01*
X05006Y-05486D01*
X05066Y-05633D01*
X05160Y-05660D01*
X05467Y-05352D01*
X05467Y-05493D01*
X05230Y-05730D01*
X05257Y-05824D01*
X05459Y-05895D01*
X05672Y-05884D01*
X05819Y-05824D01*
X05846Y-05730D01*
X05846Y-09897D01*
X05514Y-09897D01*
X04778Y-09187D01*
X04778Y-00794D01*
X04789Y-00794D01*
X05009Y-00557D01*
X22343Y-00557D01*
X22653Y-00867D01*
X22653Y-03982D01*
X22678Y-04106D01*
X22748Y-04212D01*
X22854Y-04282D01*
X22978Y-04307D01*
X24903Y-04307D01*
X24903Y-04435D01*
X24364Y-04435D01*
X24272Y-04473D01*
X24202Y-04543D01*
X24164Y-04634D01*
X24164Y-04659D01*
X24024Y-04519D01*
X23822Y-04435D01*
X23604Y-04435D01*
X23402Y-04519D01*
X23248Y-04673D01*
X23164Y-04875D01*
X23164Y-05093D01*
X23248Y-05295D01*
X23402Y-05449D01*
X23486Y-05484D01*
X23402Y-05519D01*
X23248Y-05673D01*
X23164Y-05875D01*
X23164Y-06093D01*
X23248Y-06295D01*
X23402Y-06449D01*
X23486Y-06484D01*
X23402Y-06519D01*
X23248Y-06673D01*
X23164Y-06875D01*
X23164Y-07093D01*
X23248Y-07295D01*
X23402Y-07449D01*
X23604Y-07533D01*
X23822Y-07533D01*
X24024Y-07449D01*
X24178Y-07295D01*
X24215Y-07203D01*
X24241Y-07265D01*
X24335Y-07292D01*
X24642Y-06984D01*
X24335Y-06676D01*
X24241Y-06703D01*
X24217Y-06768D01*
X24178Y-06673D01*
X24024Y-06519D01*
X23939Y-06484D01*
X24024Y-06449D01*
X24178Y-06295D01*
X24213Y-06210D01*
X24248Y-06295D01*
X24402Y-06449D01*
X24493Y-06486D01*
X24432Y-06512D01*
X24405Y-06606D01*
X24678Y-06878D01*
X24713Y-06913D01*
X24784Y-06984D01*
X24713Y-07055D01*
X24405Y-07362D01*
X24432Y-07456D01*
X24634Y-07527D01*
X24847Y-07516D01*
X24903Y-07493D01*
X24903Y-08597D01*
M02*
