G04 (created by PCBNEW-RS274X (2011-11-27 BZR 3249)-stable) date 22/12/2011 5:08:56 p.m.*
G01*
G70*
G90*
%MOIN*%
G04 Gerber Fmt 3.4, Leading zero omitted, Abs format*
%FSLAX34Y34*%
G04 APERTURE LIST*
%ADD10C,0.006000*%
%ADD11R,0.065600X0.098400*%
%ADD12R,0.019700X0.090600*%
%ADD13R,0.031500X0.025000*%
%ADD14R,0.080000X0.060000*%
%ADD15R,0.060000X0.080000*%
%ADD16R,0.100000X0.050000*%
%ADD17R,0.055000X0.017000*%
%ADD18R,0.078700X0.017700*%
%ADD19R,0.017700X0.078700*%
%ADD20R,0.025000X0.031500*%
G04 APERTURE END LIST*
G54D10*
G54D11*
X04488Y-09350D03*
X01004Y-09350D03*
X04508Y-07185D03*
X01004Y-07185D03*
G54D12*
X02756Y-07185D03*
X02441Y-07185D03*
X02126Y-07185D03*
X03071Y-07185D03*
X03386Y-07185D03*
G54D13*
X06418Y-07842D03*
X06418Y-07242D03*
X07138Y-07842D03*
X07138Y-07242D03*
G54D14*
X08088Y-07702D03*
X08088Y-06402D03*
X09238Y-07702D03*
X09238Y-06402D03*
G54D15*
X20838Y-03022D03*
X22138Y-03022D03*
G54D14*
X21968Y-00752D03*
X21968Y-02052D03*
X20908Y-00752D03*
X20908Y-02052D03*
G54D16*
X08098Y-00822D03*
X08098Y-02022D03*
G54D17*
X20128Y-04472D03*
X20128Y-04722D03*
X20128Y-04982D03*
X20128Y-05232D03*
X20128Y-05492D03*
X20128Y-05747D03*
X20128Y-06002D03*
X22328Y-06002D03*
X22328Y-05747D03*
X22328Y-05492D03*
X22328Y-05232D03*
X22328Y-04977D03*
X22328Y-04722D03*
X22328Y-04467D03*
G54D18*
X15282Y-04215D03*
X15282Y-03900D03*
X15282Y-03585D03*
X15282Y-03270D03*
X15282Y-02955D03*
X15282Y-02640D03*
X15282Y-02325D03*
X15282Y-02010D03*
X19048Y-02012D03*
X19048Y-04222D03*
X19048Y-03902D03*
X19048Y-03582D03*
X19048Y-03272D03*
X19048Y-02952D03*
X19048Y-02642D03*
X19048Y-02322D03*
G54D19*
X16066Y-01222D03*
X16380Y-01222D03*
X16696Y-01222D03*
X17010Y-01222D03*
X17326Y-01222D03*
X17640Y-01222D03*
X17956Y-01222D03*
X18270Y-01222D03*
X16068Y-05002D03*
X16378Y-05002D03*
X16698Y-05002D03*
X17008Y-05002D03*
X17318Y-05002D03*
X17638Y-05002D03*
X17958Y-05002D03*
X18278Y-05002D03*
G54D20*
X20078Y-00642D03*
X19478Y-00642D03*
X20078Y-01212D03*
X19478Y-01212D03*
G54D13*
X06718Y-05472D03*
X06718Y-04872D03*
G54D20*
X07538Y-03952D03*
X06938Y-03952D03*
X09518Y-05482D03*
X08918Y-05482D03*
X08138Y-04652D03*
X07538Y-04652D03*
G54D13*
X12018Y-03722D03*
X12018Y-03122D03*
G54D20*
X07798Y-02972D03*
X08398Y-02972D03*
G54D13*
X06858Y-02432D03*
X06858Y-03032D03*
X12008Y-01932D03*
X12008Y-02532D03*
G54D20*
X13118Y-01622D03*
X13718Y-01622D03*
X21288Y-03872D03*
X21888Y-03872D03*
G54D13*
X14098Y-02672D03*
X14098Y-03272D03*
M02*
