G04 (created by PCBNEW-RS274X (2011-11-27 BZR 3249)-stable) date 23/01/2012 4:55:23 p.m.*
G01*
G70*
G90*
%MOIN*%
G04 Gerber Fmt 3.4, Leading zero omitted, Abs format*
%FSLAX34Y34*%
G04 APERTURE LIST*
%ADD10C,0.006000*%
%ADD11C,0.015000*%
%ADD12C,0.012500*%
%ADD13C,0.008000*%
%ADD14C,0.012000*%
%ADD15C,0.005900*%
%ADD16C,0.005000*%
%ADD17C,0.007100*%
%ADD18C,0.009800*%
%ADD19C,0.010000*%
%ADD20C,0.003900*%
%ADD21C,0.004500*%
G04 APERTURE END LIST*
G54D10*
G54D11*
X04921Y-00787D02*
X05413Y-00295D01*
X04921Y-09252D02*
X04921Y-00787D01*
X05906Y-10236D02*
X04922Y-09252D01*
X04428Y-00235D02*
X04724Y-00235D01*
X04035Y-00629D02*
X04428Y-00236D01*
X01476Y-00668D02*
X04035Y-00668D01*
X01083Y-00236D02*
X01476Y-00629D01*
X00787Y-00276D02*
X01083Y-00276D01*
X00788Y-10236D02*
X00788Y-00235D01*
X04725Y-10236D02*
X00788Y-10236D01*
X04724Y-00235D02*
X04724Y-10236D01*
X02677Y-03053D02*
X02667Y-03152D01*
X02638Y-03247D01*
X02591Y-03335D01*
X02528Y-03413D01*
X02451Y-03476D01*
X02364Y-03524D01*
X02268Y-03553D01*
X02169Y-03563D01*
X02071Y-03554D01*
X01975Y-03526D01*
X01887Y-03480D01*
X01809Y-03418D01*
X01745Y-03341D01*
X01697Y-03254D01*
X01667Y-03159D01*
X01656Y-03060D01*
X01664Y-02961D01*
X01691Y-02865D01*
X01737Y-02777D01*
X01799Y-02699D01*
X01875Y-02634D01*
X01962Y-02585D01*
X02057Y-02554D01*
X02156Y-02543D01*
X02254Y-02550D01*
X02350Y-02577D01*
X02439Y-02622D01*
X02518Y-02683D01*
X02583Y-02759D01*
X02632Y-02846D01*
X02664Y-02940D01*
X02676Y-03039D01*
X02677Y-03053D01*
G54D12*
X11398Y-04182D02*
X11398Y-01682D01*
X09398Y-04182D02*
X09398Y-01682D01*
X10398Y-00682D02*
X10311Y-00686D01*
X10225Y-00698D01*
X10140Y-00717D01*
X10056Y-00743D01*
X09976Y-00776D01*
X09899Y-00816D01*
X09825Y-00863D01*
X09756Y-00916D01*
X09691Y-00975D01*
X09632Y-01040D01*
X09579Y-01109D01*
X09532Y-01183D01*
X09492Y-01260D01*
X09459Y-01340D01*
X09433Y-01424D01*
X09414Y-01509D01*
X09402Y-01595D01*
X09398Y-01682D01*
X11398Y-01682D02*
X11394Y-01595D01*
X11382Y-01509D01*
X11363Y-01424D01*
X11337Y-01340D01*
X11304Y-01260D01*
X11264Y-01183D01*
X11217Y-01109D01*
X11164Y-01040D01*
X11105Y-00975D01*
X11040Y-00916D01*
X10971Y-00863D01*
X10898Y-00816D01*
X10820Y-00776D01*
X10740Y-00743D01*
X10656Y-00717D01*
X10571Y-00698D01*
X10485Y-00686D01*
X10398Y-00682D01*
X09398Y-04182D02*
X09402Y-04269D01*
X09414Y-04355D01*
X09433Y-04440D01*
X09459Y-04524D01*
X09492Y-04604D01*
X09532Y-04681D01*
X09579Y-04755D01*
X09632Y-04824D01*
X09691Y-04889D01*
X09756Y-04948D01*
X09825Y-05001D01*
X09899Y-05048D01*
X09976Y-05088D01*
X10056Y-05121D01*
X10140Y-05147D01*
X10225Y-05166D01*
X10311Y-05178D01*
X10398Y-05182D01*
X10398Y-05182D02*
X10485Y-05178D01*
X10571Y-05166D01*
X10656Y-05147D01*
X10740Y-05121D01*
X10820Y-05088D01*
X10898Y-05048D01*
X10971Y-05001D01*
X11040Y-04948D01*
X11105Y-04889D01*
X11164Y-04824D01*
X11217Y-04755D01*
X11264Y-04681D01*
X11304Y-04604D01*
X11337Y-04524D01*
X11363Y-04440D01*
X11382Y-04355D01*
X11394Y-04269D01*
X11398Y-04182D01*
G54D13*
X14478Y-06592D02*
X11478Y-06592D01*
X11478Y-04592D02*
X14478Y-04592D01*
X14478Y-04592D02*
X14478Y-06592D01*
X11478Y-06592D02*
X11478Y-04592D01*
G54D14*
X06038Y-01852D02*
X06038Y-01852D01*
X05038Y-01852D02*
X06038Y-01852D01*
X06038Y-01852D02*
X06038Y-01852D01*
X06038Y-01852D02*
X06038Y-05852D01*
X06038Y-05852D02*
X05038Y-05852D01*
X05038Y-05852D02*
X05038Y-01852D01*
X05038Y-02852D02*
X06038Y-02852D01*
G54D11*
X04154Y-06614D02*
X01358Y-06614D01*
X01358Y-06614D02*
X01358Y-10236D01*
X01358Y-10236D02*
X04154Y-10236D01*
X04154Y-10236D02*
X04154Y-06614D01*
X02775Y-04726D02*
X02765Y-04825D01*
X02736Y-04920D01*
X02689Y-05008D01*
X02626Y-05086D01*
X02549Y-05149D01*
X02462Y-05197D01*
X02366Y-05226D01*
X02267Y-05236D01*
X02169Y-05227D01*
X02073Y-05199D01*
X01985Y-05153D01*
X01907Y-05091D01*
X01843Y-05014D01*
X01795Y-04927D01*
X01765Y-04832D01*
X01754Y-04733D01*
X01762Y-04634D01*
X01789Y-04538D01*
X01835Y-04450D01*
X01897Y-04372D01*
X01973Y-04307D01*
X02060Y-04258D01*
X02155Y-04227D01*
X02254Y-04216D01*
X02352Y-04223D01*
X02448Y-04250D01*
X02537Y-04295D01*
X02616Y-04356D01*
X02681Y-04432D01*
X02730Y-04519D01*
X02762Y-04613D01*
X02774Y-04712D01*
X02775Y-04726D01*
X03956Y-03742D02*
X03946Y-03841D01*
X03917Y-03936D01*
X03870Y-04024D01*
X03807Y-04102D01*
X03730Y-04165D01*
X03643Y-04213D01*
X03547Y-04242D01*
X03448Y-04252D01*
X03350Y-04243D01*
X03254Y-04215D01*
X03166Y-04169D01*
X03088Y-04107D01*
X03024Y-04030D01*
X02976Y-03943D01*
X02946Y-03848D01*
X02935Y-03749D01*
X02943Y-03650D01*
X02970Y-03554D01*
X03016Y-03466D01*
X03078Y-03388D01*
X03154Y-03323D01*
X03241Y-03274D01*
X03336Y-03243D01*
X03435Y-03232D01*
X03533Y-03239D01*
X03629Y-03266D01*
X03718Y-03311D01*
X03797Y-03372D01*
X03862Y-03448D01*
X03911Y-03535D01*
X03943Y-03629D01*
X03955Y-03728D01*
X03956Y-03742D01*
X03858Y-02167D02*
X03848Y-02266D01*
X03819Y-02361D01*
X03772Y-02449D01*
X03709Y-02527D01*
X03632Y-02590D01*
X03545Y-02638D01*
X03449Y-02667D01*
X03350Y-02677D01*
X03252Y-02668D01*
X03156Y-02640D01*
X03068Y-02594D01*
X02990Y-02532D01*
X02926Y-02455D01*
X02878Y-02368D01*
X02848Y-02273D01*
X02837Y-02174D01*
X02845Y-02075D01*
X02872Y-01979D01*
X02918Y-01891D01*
X02980Y-01813D01*
X03056Y-01748D01*
X03143Y-01699D01*
X03238Y-01668D01*
X03337Y-01657D01*
X03435Y-01664D01*
X03531Y-01691D01*
X03620Y-01736D01*
X03699Y-01797D01*
X03764Y-01873D01*
X03813Y-01960D01*
X03845Y-02054D01*
X03857Y-02153D01*
X03858Y-02167D01*
G54D15*
X06644Y-07178D02*
X06211Y-07178D01*
G54D16*
X06654Y-08054D02*
X06654Y-07050D01*
X06182Y-07030D02*
X06182Y-08054D01*
X06182Y-08054D02*
X06654Y-08054D01*
X06186Y-07041D02*
X06646Y-07041D01*
G54D15*
X07364Y-07178D02*
X06931Y-07178D01*
G54D16*
X07374Y-08054D02*
X07374Y-07050D01*
X06902Y-07030D02*
X06902Y-08054D01*
X06902Y-08054D02*
X07374Y-08054D01*
X06906Y-07041D02*
X07366Y-07041D01*
G54D17*
X08531Y-06265D02*
X07665Y-06265D01*
G54D16*
X07638Y-08052D02*
X08538Y-08052D01*
X08538Y-08052D02*
X08538Y-07402D01*
X07638Y-06702D02*
X07638Y-06052D01*
X07638Y-06052D02*
X08538Y-06052D01*
X08538Y-06052D02*
X08538Y-06702D01*
X07638Y-07402D02*
X07638Y-08052D01*
G54D17*
X09671Y-06255D02*
X08815Y-06255D01*
G54D16*
X08788Y-08052D02*
X09688Y-08052D01*
X09688Y-08052D02*
X09688Y-07402D01*
X08788Y-06702D02*
X08788Y-06052D01*
X08788Y-06052D02*
X09688Y-06052D01*
X09688Y-06052D02*
X09688Y-06702D01*
X08788Y-07402D02*
X08788Y-08052D01*
G54D17*
X22236Y-03436D02*
X22236Y-02609D01*
G54D16*
X20488Y-02572D02*
X20488Y-03472D01*
X20488Y-03472D02*
X21138Y-03472D01*
X21838Y-02572D02*
X22488Y-02572D01*
X22488Y-02572D02*
X22488Y-03472D01*
X22488Y-03472D02*
X21838Y-03472D01*
X21138Y-02572D02*
X20488Y-02572D01*
G54D17*
X21525Y-02199D02*
X22401Y-02199D01*
G54D16*
X22418Y-00402D02*
X21518Y-00402D01*
X21518Y-00402D02*
X21518Y-01052D01*
X22418Y-01752D02*
X22418Y-02402D01*
X22418Y-02402D02*
X21518Y-02402D01*
X21518Y-02402D02*
X21518Y-01752D01*
X22418Y-01052D02*
X22418Y-00402D01*
G54D17*
X20465Y-02209D02*
X21341Y-02209D01*
G54D16*
X21358Y-00402D02*
X20458Y-00402D01*
X20458Y-00402D02*
X20458Y-01052D01*
X21358Y-01752D02*
X21358Y-02402D01*
X21358Y-02402D02*
X20458Y-02402D01*
X20458Y-02402D02*
X20458Y-01752D01*
X21358Y-01052D02*
X21358Y-00402D01*
G54D13*
X23228Y-07482D02*
X23228Y-04482D01*
X25228Y-04482D02*
X25228Y-07482D01*
X25228Y-07482D02*
X23228Y-07482D01*
X23228Y-04482D02*
X25228Y-04482D01*
G54D16*
X07568Y-00472D02*
X07566Y-00485D01*
X07562Y-00498D01*
X07556Y-00510D01*
X07547Y-00521D01*
X07537Y-00530D01*
X07525Y-00536D01*
X07512Y-00540D01*
X07498Y-00541D01*
X07485Y-00540D01*
X07472Y-00536D01*
X07460Y-00530D01*
X07450Y-00522D01*
X07441Y-00511D01*
X07434Y-00499D01*
X07430Y-00486D01*
X07429Y-00472D01*
X07430Y-00460D01*
X07433Y-00447D01*
X07440Y-00435D01*
X07448Y-00424D01*
X07459Y-00415D01*
X07470Y-00408D01*
X07483Y-00404D01*
X07497Y-00403D01*
X07510Y-00404D01*
X07523Y-00407D01*
X07535Y-00413D01*
X07546Y-00422D01*
X07555Y-00432D01*
X07561Y-00444D01*
X07566Y-00457D01*
X07567Y-00471D01*
X07568Y-00472D01*
X08648Y-01122D02*
X08648Y-00522D01*
X08648Y-00522D02*
X07548Y-00522D01*
X07548Y-00522D02*
X07548Y-01122D01*
X07548Y-01722D02*
X07548Y-02322D01*
X07548Y-02322D02*
X08648Y-02322D01*
X08648Y-02322D02*
X08648Y-01722D01*
X20778Y-04582D02*
X20775Y-04611D01*
X20766Y-04639D01*
X20752Y-04665D01*
X20734Y-04687D01*
X20711Y-04706D01*
X20686Y-04720D01*
X20658Y-04728D01*
X20629Y-04731D01*
X20600Y-04729D01*
X20572Y-04721D01*
X20546Y-04707D01*
X20524Y-04689D01*
X20505Y-04666D01*
X20491Y-04641D01*
X20482Y-04613D01*
X20479Y-04584D01*
X20481Y-04555D01*
X20489Y-04527D01*
X20502Y-04501D01*
X20521Y-04478D01*
X20543Y-04459D01*
X20568Y-04445D01*
X20596Y-04436D01*
X20625Y-04433D01*
X20654Y-04435D01*
X20682Y-04443D01*
X20708Y-04456D01*
X20731Y-04474D01*
X20750Y-04496D01*
X20765Y-04521D01*
X20774Y-04549D01*
X20777Y-04578D01*
X20778Y-04582D01*
G54D13*
X20328Y-04282D02*
X20328Y-06182D01*
X20328Y-06182D02*
X22128Y-06182D01*
X22128Y-06182D02*
X22128Y-04282D01*
X22128Y-04282D02*
X20328Y-04282D01*
G54D10*
X19158Y-04212D02*
X18708Y-04212D01*
X19158Y-02032D02*
X18718Y-02032D01*
X19158Y-04212D02*
X19158Y-02032D01*
X18278Y-04682D02*
X18278Y-05112D01*
X16068Y-04692D02*
X16068Y-05112D01*
X16058Y-05112D02*
X18278Y-05122D01*
X16078Y-01142D02*
X18248Y-01132D01*
X15648Y-01832D02*
X15648Y-04662D01*
X18258Y-01142D02*
X18258Y-01552D01*
X15898Y-01592D02*
X18678Y-01592D01*
X18698Y-04672D02*
X18698Y-01632D01*
X15648Y-04672D02*
X18648Y-04672D01*
X15198Y-02002D02*
X15198Y-04222D01*
X15198Y-04222D02*
X15648Y-04222D01*
X15652Y-01822D02*
X15882Y-01592D01*
X15200Y-02002D02*
X15652Y-02002D01*
X16078Y-01592D02*
X16078Y-01140D01*
X16248Y-01996D02*
X16244Y-02032D01*
X16233Y-02067D01*
X16216Y-02100D01*
X16193Y-02128D01*
X16165Y-02151D01*
X16132Y-02169D01*
X16097Y-02180D01*
X16061Y-02183D01*
X16025Y-02180D01*
X15990Y-02170D01*
X15958Y-02153D01*
X15929Y-02130D01*
X15905Y-02102D01*
X15888Y-02070D01*
X15877Y-02035D01*
X15873Y-01998D01*
X15876Y-01963D01*
X15886Y-01927D01*
X15902Y-01895D01*
X15925Y-01866D01*
X15953Y-01842D01*
X15985Y-01824D01*
X16020Y-01813D01*
X16057Y-01809D01*
X16092Y-01811D01*
X16127Y-01821D01*
X16160Y-01838D01*
X16189Y-01860D01*
X16213Y-01888D01*
X16231Y-01920D01*
X16243Y-01955D01*
X16247Y-01991D01*
X16248Y-01996D01*
G54D16*
X20290Y-00406D02*
X19286Y-00406D01*
X19266Y-00878D02*
X20290Y-00878D01*
X20290Y-00878D02*
X20290Y-00406D01*
X19277Y-00874D02*
X19277Y-00414D01*
X20290Y-00976D02*
X19286Y-00976D01*
X19266Y-01448D02*
X20290Y-01448D01*
X20290Y-01448D02*
X20290Y-00976D01*
X19277Y-01444D02*
X19277Y-00984D01*
X06954Y-05684D02*
X06954Y-04680D01*
X06482Y-04660D02*
X06482Y-05684D01*
X06482Y-05684D02*
X06954Y-05684D01*
X06486Y-04671D02*
X06946Y-04671D01*
X07750Y-03716D02*
X06746Y-03716D01*
X06726Y-04188D02*
X07750Y-04188D01*
X07750Y-04188D02*
X07750Y-03716D01*
X06737Y-04184D02*
X06737Y-03724D01*
X09730Y-05246D02*
X08726Y-05246D01*
X08706Y-05718D02*
X09730Y-05718D01*
X09730Y-05718D02*
X09730Y-05246D01*
X08717Y-05714D02*
X08717Y-05254D01*
X08350Y-04416D02*
X07346Y-04416D01*
X07326Y-04888D02*
X08350Y-04888D01*
X08350Y-04888D02*
X08350Y-04416D01*
X07337Y-04884D02*
X07337Y-04424D01*
X12254Y-03934D02*
X12254Y-02930D01*
X11782Y-02910D02*
X11782Y-03934D01*
X11782Y-03934D02*
X12254Y-03934D01*
X11786Y-02921D02*
X12246Y-02921D01*
X07586Y-03208D02*
X08590Y-03208D01*
X08610Y-02736D02*
X07586Y-02736D01*
X07586Y-02736D02*
X07586Y-03208D01*
X08599Y-02740D02*
X08599Y-03200D01*
X06622Y-02220D02*
X06622Y-03224D01*
X07094Y-03244D02*
X07094Y-02220D01*
X07094Y-02220D02*
X06622Y-02220D01*
X07090Y-03233D02*
X06630Y-03233D01*
X11772Y-01720D02*
X11772Y-02724D01*
X12244Y-02744D02*
X12244Y-01720D01*
X12244Y-01720D02*
X11772Y-01720D01*
X12240Y-02733D02*
X11780Y-02733D01*
X12906Y-01858D02*
X13910Y-01858D01*
X13930Y-01386D02*
X12906Y-01386D01*
X12906Y-01386D02*
X12906Y-01858D01*
X13919Y-01390D02*
X13919Y-01850D01*
X21076Y-04108D02*
X22080Y-04108D01*
X22100Y-03636D02*
X21076Y-03636D01*
X21076Y-03636D02*
X21076Y-04108D01*
X22089Y-03640D02*
X22089Y-04100D01*
X13862Y-02460D02*
X13862Y-03464D01*
X14334Y-03484D02*
X14334Y-02460D01*
X14334Y-02460D02*
X13862Y-02460D01*
X14330Y-03473D02*
X13870Y-03473D01*
G54D14*
X10095Y-03312D02*
X10695Y-02912D01*
X10095Y-02912D02*
X10695Y-03312D01*
X10695Y-02370D02*
X10695Y-02713D01*
X10695Y-02541D02*
X10095Y-02541D01*
X10181Y-02598D01*
X10238Y-02656D01*
X10266Y-02713D01*
G54D18*
X09262Y-03889D02*
X09262Y-04181D01*
X09262Y-04035D02*
X08750Y-04035D01*
X08823Y-04084D01*
X08872Y-04133D01*
X08897Y-04181D01*
X08799Y-03693D02*
X08775Y-03669D01*
X08750Y-03620D01*
X08750Y-03498D01*
X08775Y-03450D01*
X08799Y-03425D01*
X08848Y-03401D01*
X08897Y-03401D01*
X08970Y-03425D01*
X09262Y-03718D01*
X09262Y-03401D01*
X09262Y-03181D02*
X08750Y-03181D01*
X09116Y-03010D01*
X08750Y-02840D01*
X09262Y-02840D01*
X09262Y-02596D02*
X08750Y-02596D01*
X08994Y-02596D02*
X08994Y-02304D01*
X09262Y-02304D02*
X08750Y-02304D01*
X08921Y-02109D02*
X08921Y-01841D01*
X09262Y-02109D01*
X09262Y-01841D01*
G54D13*
X14606Y-05796D02*
X14606Y-05396D01*
X14777Y-05777D02*
X14834Y-05796D01*
X14930Y-05796D01*
X14968Y-05777D01*
X14987Y-05758D01*
X15006Y-05720D01*
X15006Y-05682D01*
X14987Y-05644D01*
X14968Y-05624D01*
X14930Y-05605D01*
X14853Y-05586D01*
X14815Y-05567D01*
X14796Y-05548D01*
X14777Y-05510D01*
X14777Y-05472D01*
X14796Y-05434D01*
X14815Y-05415D01*
X14853Y-05396D01*
X14949Y-05396D01*
X15006Y-05415D01*
X15177Y-05796D02*
X15177Y-05396D01*
X15330Y-05396D01*
X15368Y-05415D01*
X15387Y-05434D01*
X15406Y-05472D01*
X15406Y-05529D01*
X15387Y-05567D01*
X15368Y-05586D01*
X15330Y-05605D01*
X15177Y-05605D01*
G54D19*
X05158Y-06150D02*
X05158Y-06636D01*
X05177Y-06693D01*
X05196Y-06721D01*
X05234Y-06750D01*
X05311Y-06750D01*
X05349Y-06721D01*
X05368Y-06693D01*
X05387Y-06636D01*
X05387Y-06150D01*
X05558Y-06721D02*
X05615Y-06750D01*
X05711Y-06750D01*
X05749Y-06721D01*
X05768Y-06693D01*
X05787Y-06636D01*
X05787Y-06578D01*
X05768Y-06521D01*
X05749Y-06493D01*
X05711Y-06464D01*
X05634Y-06436D01*
X05596Y-06407D01*
X05577Y-06378D01*
X05558Y-06321D01*
X05558Y-06264D01*
X05577Y-06207D01*
X05596Y-06178D01*
X05634Y-06150D01*
X05730Y-06150D01*
X05787Y-06178D01*
X06092Y-06436D02*
X06149Y-06464D01*
X06168Y-06493D01*
X06187Y-06550D01*
X06187Y-06636D01*
X06168Y-06693D01*
X06149Y-06721D01*
X06111Y-06750D01*
X05958Y-06750D01*
X05958Y-06150D01*
X06092Y-06150D01*
X06130Y-06178D01*
X06149Y-06207D01*
X06168Y-06264D01*
X06168Y-06321D01*
X06149Y-06378D01*
X06130Y-06407D01*
X06092Y-06436D01*
X05958Y-06436D01*
G54D14*
X01999Y-09072D02*
X01999Y-09558D01*
X02027Y-09615D01*
X02056Y-09643D01*
X02113Y-09672D01*
X02227Y-09672D01*
X02285Y-09643D01*
X02313Y-09615D01*
X02342Y-09558D01*
X02342Y-09072D01*
X02599Y-09643D02*
X02685Y-09672D01*
X02828Y-09672D01*
X02885Y-09643D01*
X02914Y-09615D01*
X02942Y-09558D01*
X02942Y-09500D01*
X02914Y-09443D01*
X02885Y-09415D01*
X02828Y-09386D01*
X02714Y-09358D01*
X02656Y-09329D01*
X02628Y-09300D01*
X02599Y-09243D01*
X02599Y-09186D01*
X02628Y-09129D01*
X02656Y-09100D01*
X02714Y-09072D01*
X02856Y-09072D01*
X02942Y-09100D01*
X03399Y-09358D02*
X03485Y-09386D01*
X03513Y-09415D01*
X03542Y-09472D01*
X03542Y-09558D01*
X03513Y-09615D01*
X03485Y-09643D01*
X03427Y-09672D01*
X03199Y-09672D01*
X03199Y-09072D01*
X03399Y-09072D01*
X03456Y-09100D01*
X03485Y-09129D01*
X03513Y-09186D01*
X03513Y-09243D01*
X03485Y-09300D01*
X03456Y-09329D01*
X03399Y-09358D01*
X03199Y-09358D01*
G54D20*
X06541Y-08380D02*
X06300Y-08380D01*
X06300Y-08342D01*
X06312Y-08320D01*
X06334Y-08305D01*
X06357Y-08297D01*
X06403Y-08290D01*
X06438Y-08290D01*
X06484Y-08297D01*
X06507Y-08305D01*
X06530Y-08320D01*
X06541Y-08342D01*
X06541Y-08380D01*
X06541Y-08140D02*
X06541Y-08230D01*
X06541Y-08185D02*
X06300Y-08185D01*
X06334Y-08200D01*
X06357Y-08215D01*
X06369Y-08230D01*
G54D21*
X06518Y-07863D02*
X06531Y-07837D01*
X06531Y-07794D01*
X06518Y-07777D01*
X06505Y-07768D01*
X06478Y-07760D01*
X06451Y-07760D01*
X06425Y-07768D01*
X06411Y-07777D01*
X06398Y-07794D01*
X06385Y-07828D01*
X06371Y-07846D01*
X06358Y-07854D01*
X06331Y-07863D01*
X06305Y-07863D01*
X06278Y-07854D01*
X06265Y-07846D01*
X06251Y-07828D01*
X06251Y-07786D01*
X06265Y-07760D01*
X06518Y-07606D02*
X06531Y-07623D01*
X06531Y-07657D01*
X06518Y-07675D01*
X06505Y-07683D01*
X06478Y-07692D01*
X06398Y-07692D01*
X06371Y-07683D01*
X06358Y-07675D01*
X06345Y-07657D01*
X06345Y-07623D01*
X06358Y-07606D01*
X06345Y-07555D02*
X06345Y-07486D01*
X06251Y-07529D02*
X06491Y-07529D01*
X06518Y-07521D01*
X06531Y-07503D01*
X06531Y-07486D01*
X06531Y-07426D02*
X06251Y-07426D01*
X06425Y-07409D02*
X06531Y-07358D01*
X06345Y-07358D02*
X06451Y-07426D01*
X06345Y-07297D02*
X06531Y-07254D01*
X06345Y-07212D02*
X06531Y-07254D01*
X06598Y-07272D01*
X06611Y-07280D01*
X06625Y-07297D01*
G54D20*
X07262Y-08388D02*
X07021Y-08388D01*
X07021Y-08350D01*
X07033Y-08328D01*
X07055Y-08313D01*
X07078Y-08305D01*
X07124Y-08298D01*
X07159Y-08298D01*
X07205Y-08305D01*
X07228Y-08313D01*
X07251Y-08328D01*
X07262Y-08350D01*
X07262Y-08388D01*
X07044Y-08238D02*
X07033Y-08231D01*
X07021Y-08216D01*
X07021Y-08178D01*
X07033Y-08163D01*
X07044Y-08156D01*
X07067Y-08148D01*
X07090Y-08148D01*
X07124Y-08156D01*
X07262Y-08246D01*
X07262Y-08148D01*
G54D21*
X07238Y-07863D02*
X07251Y-07837D01*
X07251Y-07794D01*
X07238Y-07777D01*
X07225Y-07768D01*
X07198Y-07760D01*
X07171Y-07760D01*
X07145Y-07768D01*
X07131Y-07777D01*
X07118Y-07794D01*
X07105Y-07828D01*
X07091Y-07846D01*
X07078Y-07854D01*
X07051Y-07863D01*
X07025Y-07863D01*
X06998Y-07854D01*
X06985Y-07846D01*
X06971Y-07828D01*
X06971Y-07786D01*
X06985Y-07760D01*
X07238Y-07606D02*
X07251Y-07623D01*
X07251Y-07657D01*
X07238Y-07675D01*
X07225Y-07683D01*
X07198Y-07692D01*
X07118Y-07692D01*
X07091Y-07683D01*
X07078Y-07675D01*
X07065Y-07657D01*
X07065Y-07623D01*
X07078Y-07606D01*
X07065Y-07555D02*
X07065Y-07486D01*
X06971Y-07529D02*
X07211Y-07529D01*
X07238Y-07521D01*
X07251Y-07503D01*
X07251Y-07486D01*
X07251Y-07426D02*
X06971Y-07426D01*
X07145Y-07409D02*
X07251Y-07358D01*
X07065Y-07358D02*
X07171Y-07426D01*
X07065Y-07297D02*
X07251Y-07254D01*
X07065Y-07212D02*
X07251Y-07254D01*
X07318Y-07272D01*
X07331Y-07280D01*
X07345Y-07297D01*
G54D16*
X08333Y-08519D02*
X08333Y-08219D01*
X08405Y-08219D01*
X08448Y-08234D01*
X08476Y-08262D01*
X08491Y-08291D01*
X08505Y-08348D01*
X08505Y-08391D01*
X08491Y-08448D01*
X08476Y-08477D01*
X08448Y-08505D01*
X08405Y-08519D01*
X08333Y-08519D01*
X08605Y-08219D02*
X08791Y-08219D01*
X08691Y-08334D01*
X08733Y-08334D01*
X08762Y-08348D01*
X08776Y-08362D01*
X08791Y-08391D01*
X08791Y-08462D01*
X08776Y-08491D01*
X08762Y-08505D01*
X08733Y-08519D01*
X08648Y-08519D01*
X08619Y-08505D01*
X08605Y-08491D01*
X07909Y-08002D02*
X07909Y-07816D01*
X08024Y-07916D01*
X08024Y-07874D01*
X08038Y-07845D01*
X08052Y-07831D01*
X08081Y-07816D01*
X08152Y-07816D01*
X08181Y-07831D01*
X08195Y-07845D01*
X08209Y-07874D01*
X08209Y-07959D01*
X08195Y-07988D01*
X08181Y-08002D01*
X08181Y-07688D02*
X08195Y-07673D01*
X08209Y-07688D01*
X08195Y-07702D01*
X08181Y-07688D01*
X08209Y-07688D01*
X07909Y-07416D02*
X07909Y-07473D01*
X07924Y-07502D01*
X07938Y-07516D01*
X07981Y-07545D01*
X08038Y-07559D01*
X08152Y-07559D01*
X08181Y-07545D01*
X08195Y-07530D01*
X08209Y-07502D01*
X08209Y-07445D01*
X08195Y-07416D01*
X08181Y-07402D01*
X08152Y-07387D01*
X08081Y-07387D01*
X08052Y-07402D01*
X08038Y-07416D01*
X08024Y-07445D01*
X08024Y-07502D01*
X08038Y-07530D01*
X08052Y-07545D01*
X08081Y-07559D01*
X08009Y-07287D02*
X08209Y-07216D01*
X08009Y-07144D01*
X08238Y-07101D02*
X08238Y-06872D01*
X07909Y-06829D02*
X07909Y-06629D01*
X08209Y-06829D01*
X08209Y-06629D01*
X08195Y-06400D02*
X08209Y-06429D01*
X08209Y-06486D01*
X08195Y-06515D01*
X08167Y-06529D01*
X08052Y-06529D01*
X08024Y-06515D01*
X08009Y-06486D01*
X08009Y-06429D01*
X08024Y-06400D01*
X08052Y-06386D01*
X08081Y-06386D01*
X08109Y-06529D01*
X08009Y-06258D02*
X08209Y-06258D01*
X08038Y-06258D02*
X08024Y-06243D01*
X08009Y-06215D01*
X08009Y-06172D01*
X08024Y-06143D01*
X08052Y-06129D01*
X08209Y-06129D01*
X09431Y-08511D02*
X09431Y-08211D01*
X09503Y-08211D01*
X09546Y-08226D01*
X09574Y-08254D01*
X09589Y-08283D01*
X09603Y-08340D01*
X09603Y-08383D01*
X09589Y-08440D01*
X09574Y-08469D01*
X09546Y-08497D01*
X09503Y-08511D01*
X09431Y-08511D01*
X09860Y-08311D02*
X09860Y-08511D01*
X09789Y-08197D02*
X09717Y-08411D01*
X09903Y-08411D01*
X09059Y-08002D02*
X09059Y-07816D01*
X09174Y-07916D01*
X09174Y-07874D01*
X09188Y-07845D01*
X09202Y-07831D01*
X09231Y-07816D01*
X09302Y-07816D01*
X09331Y-07831D01*
X09345Y-07845D01*
X09359Y-07874D01*
X09359Y-07959D01*
X09345Y-07988D01*
X09331Y-08002D01*
X09331Y-07688D02*
X09345Y-07673D01*
X09359Y-07688D01*
X09345Y-07702D01*
X09331Y-07688D01*
X09359Y-07688D01*
X09059Y-07416D02*
X09059Y-07473D01*
X09074Y-07502D01*
X09088Y-07516D01*
X09131Y-07545D01*
X09188Y-07559D01*
X09302Y-07559D01*
X09331Y-07545D01*
X09345Y-07530D01*
X09359Y-07502D01*
X09359Y-07445D01*
X09345Y-07416D01*
X09331Y-07402D01*
X09302Y-07387D01*
X09231Y-07387D01*
X09202Y-07402D01*
X09188Y-07416D01*
X09174Y-07445D01*
X09174Y-07502D01*
X09188Y-07530D01*
X09202Y-07545D01*
X09231Y-07559D01*
X09159Y-07287D02*
X09359Y-07216D01*
X09159Y-07144D01*
X09388Y-07101D02*
X09388Y-06872D01*
X09059Y-06829D02*
X09059Y-06629D01*
X09359Y-06829D01*
X09359Y-06629D01*
X09345Y-06400D02*
X09359Y-06429D01*
X09359Y-06486D01*
X09345Y-06515D01*
X09317Y-06529D01*
X09202Y-06529D01*
X09174Y-06515D01*
X09159Y-06486D01*
X09159Y-06429D01*
X09174Y-06400D01*
X09202Y-06386D01*
X09231Y-06386D01*
X09259Y-06529D01*
X09159Y-06258D02*
X09359Y-06258D01*
X09188Y-06258D02*
X09174Y-06243D01*
X09159Y-06215D01*
X09159Y-06172D01*
X09174Y-06143D01*
X09202Y-06129D01*
X09359Y-06129D01*
X22857Y-03215D02*
X22557Y-03215D01*
X22557Y-03143D01*
X22572Y-03100D01*
X22600Y-03072D01*
X22629Y-03057D01*
X22686Y-03043D01*
X22729Y-03043D01*
X22786Y-03057D01*
X22815Y-03072D01*
X22843Y-03100D01*
X22857Y-03143D01*
X22857Y-03215D01*
X22557Y-02943D02*
X22557Y-02743D01*
X22857Y-02872D01*
X20952Y-03129D02*
X20995Y-03143D01*
X21066Y-03143D01*
X21095Y-03129D01*
X21109Y-03115D01*
X21124Y-03086D01*
X21124Y-03058D01*
X21109Y-03029D01*
X21095Y-03015D01*
X21066Y-03001D01*
X21009Y-02986D01*
X20981Y-02972D01*
X20966Y-02958D01*
X20952Y-02929D01*
X20952Y-02901D01*
X20966Y-02872D01*
X20981Y-02858D01*
X21009Y-02843D01*
X21081Y-02843D01*
X21124Y-02858D01*
X21381Y-03129D02*
X21352Y-03143D01*
X21295Y-03143D01*
X21267Y-03129D01*
X21252Y-03115D01*
X21238Y-03086D01*
X21238Y-03001D01*
X21252Y-02972D01*
X21267Y-02958D01*
X21295Y-02943D01*
X21352Y-02943D01*
X21381Y-02958D01*
X21467Y-02943D02*
X21581Y-02943D01*
X21509Y-02843D02*
X21509Y-03101D01*
X21524Y-03129D01*
X21552Y-03143D01*
X21581Y-03143D01*
X21680Y-03143D02*
X21680Y-02843D01*
X21709Y-03029D02*
X21795Y-03143D01*
X21795Y-02943D02*
X21680Y-03058D01*
X21895Y-02943D02*
X21966Y-03143D01*
X22038Y-02943D02*
X21966Y-03143D01*
X21938Y-03215D01*
X21923Y-03229D01*
X21895Y-03243D01*
X22798Y-01608D02*
X22498Y-01608D01*
X22498Y-01536D01*
X22513Y-01493D01*
X22541Y-01465D01*
X22570Y-01450D01*
X22627Y-01436D01*
X22670Y-01436D01*
X22727Y-01450D01*
X22756Y-01465D01*
X22784Y-01493D01*
X22798Y-01536D01*
X22798Y-01608D01*
X22498Y-01179D02*
X22498Y-01236D01*
X22513Y-01265D01*
X22527Y-01279D01*
X22570Y-01308D01*
X22627Y-01322D01*
X22741Y-01322D01*
X22770Y-01308D01*
X22784Y-01293D01*
X22798Y-01265D01*
X22798Y-01208D01*
X22784Y-01179D01*
X22770Y-01165D01*
X22741Y-01150D01*
X22670Y-01150D01*
X22641Y-01165D01*
X22627Y-01179D01*
X22613Y-01208D01*
X22613Y-01265D01*
X22627Y-01293D01*
X22641Y-01308D01*
X22670Y-01322D01*
X21804Y-01630D02*
X21789Y-01659D01*
X21789Y-01702D01*
X21804Y-01745D01*
X21832Y-01773D01*
X21861Y-01788D01*
X21918Y-01802D01*
X21961Y-01802D01*
X22018Y-01788D01*
X22047Y-01773D01*
X22075Y-01745D01*
X22089Y-01702D01*
X22089Y-01673D01*
X22075Y-01630D01*
X22061Y-01616D01*
X21961Y-01616D01*
X21961Y-01673D01*
X22089Y-01316D02*
X21947Y-01416D01*
X22089Y-01488D02*
X21789Y-01488D01*
X21789Y-01373D01*
X21804Y-01345D01*
X21818Y-01330D01*
X21847Y-01316D01*
X21889Y-01316D01*
X21918Y-01330D01*
X21932Y-01345D01*
X21947Y-01373D01*
X21947Y-01488D01*
X22089Y-01188D02*
X21789Y-01188D01*
X22089Y-01016D01*
X21789Y-01016D01*
X19904Y-02393D02*
X19904Y-02093D01*
X19976Y-02093D01*
X20019Y-02108D01*
X20047Y-02136D01*
X20062Y-02165D01*
X20076Y-02222D01*
X20076Y-02265D01*
X20062Y-02322D01*
X20047Y-02351D01*
X20019Y-02379D01*
X19976Y-02393D01*
X19904Y-02393D01*
X20347Y-02093D02*
X20204Y-02093D01*
X20190Y-02236D01*
X20204Y-02222D01*
X20233Y-02208D01*
X20304Y-02208D01*
X20333Y-02222D01*
X20347Y-02236D01*
X20362Y-02265D01*
X20362Y-02336D01*
X20347Y-02365D01*
X20333Y-02379D01*
X20304Y-02393D01*
X20233Y-02393D01*
X20204Y-02379D01*
X20190Y-02365D01*
X21029Y-01594D02*
X20887Y-01694D01*
X21029Y-01766D02*
X20729Y-01766D01*
X20729Y-01651D01*
X20744Y-01623D01*
X20758Y-01608D01*
X20787Y-01594D01*
X20829Y-01594D01*
X20858Y-01608D01*
X20872Y-01623D01*
X20887Y-01651D01*
X20887Y-01766D01*
X20872Y-01466D02*
X20872Y-01366D01*
X21029Y-01323D02*
X21029Y-01466D01*
X20729Y-01466D01*
X20729Y-01323D01*
X21029Y-01195D02*
X20729Y-01195D01*
X20729Y-01123D01*
X20744Y-01080D01*
X20772Y-01052D01*
X20801Y-01037D01*
X20858Y-01023D01*
X20901Y-01023D01*
X20958Y-01037D01*
X20987Y-01052D01*
X21015Y-01080D01*
X21029Y-01123D01*
X21029Y-01195D01*
G54D13*
X22769Y-07087D02*
X22769Y-06858D01*
X23169Y-06973D02*
X22769Y-06973D01*
X23055Y-06744D02*
X23055Y-06553D01*
X23169Y-06782D02*
X22769Y-06649D01*
X23169Y-06515D01*
X23169Y-06153D02*
X22978Y-06287D01*
X23169Y-06382D02*
X22769Y-06382D01*
X22769Y-06229D01*
X22788Y-06191D01*
X22807Y-06172D01*
X22845Y-06153D01*
X22902Y-06153D01*
X22940Y-06172D01*
X22959Y-06191D01*
X22978Y-06229D01*
X22978Y-06382D01*
X22788Y-05772D02*
X22769Y-05810D01*
X22769Y-05867D01*
X22788Y-05925D01*
X22826Y-05963D01*
X22864Y-05982D01*
X22940Y-06001D01*
X22997Y-06001D01*
X23074Y-05982D01*
X23112Y-05963D01*
X23150Y-05925D01*
X23169Y-05867D01*
X23169Y-05829D01*
X23150Y-05772D01*
X23131Y-05753D01*
X22997Y-05753D01*
X22997Y-05829D01*
X22959Y-05582D02*
X22959Y-05448D01*
X23169Y-05391D02*
X23169Y-05582D01*
X22769Y-05582D01*
X22769Y-05391D01*
X22769Y-05277D02*
X22769Y-05048D01*
X23169Y-05163D02*
X22769Y-05163D01*
G54D16*
X09069Y-01452D02*
X09083Y-01466D01*
X09097Y-01509D01*
X09097Y-01538D01*
X09083Y-01581D01*
X09055Y-01609D01*
X09026Y-01624D01*
X08969Y-01638D01*
X08926Y-01638D01*
X08869Y-01624D01*
X08840Y-01609D01*
X08812Y-01581D01*
X08797Y-01538D01*
X08797Y-01509D01*
X08812Y-01466D01*
X08826Y-01452D01*
X08826Y-01338D02*
X08812Y-01324D01*
X08797Y-01295D01*
X08797Y-01224D01*
X08812Y-01195D01*
X08826Y-01181D01*
X08855Y-01166D01*
X08883Y-01166D01*
X08926Y-01181D01*
X09097Y-01352D01*
X09097Y-01166D01*
X07944Y-01766D02*
X07930Y-01752D01*
X07915Y-01723D01*
X07915Y-01652D01*
X07930Y-01623D01*
X07944Y-01609D01*
X07973Y-01594D01*
X08001Y-01594D01*
X08044Y-01609D01*
X08215Y-01780D01*
X08215Y-01594D01*
X07944Y-01480D02*
X07930Y-01466D01*
X07915Y-01437D01*
X07915Y-01366D01*
X07930Y-01337D01*
X07944Y-01323D01*
X07973Y-01308D01*
X08001Y-01308D01*
X08044Y-01323D01*
X08215Y-01494D01*
X08215Y-01308D01*
X08015Y-01051D02*
X08215Y-01051D01*
X08015Y-01180D02*
X08173Y-01180D01*
X08201Y-01165D01*
X08215Y-01137D01*
X08215Y-01094D01*
X08201Y-01065D01*
X08187Y-01051D01*
G54D13*
X21300Y-06281D02*
X21300Y-06564D01*
X21317Y-06597D01*
X21334Y-06614D01*
X21367Y-06631D01*
X21434Y-06631D01*
X21467Y-06614D01*
X21484Y-06597D01*
X21500Y-06564D01*
X21500Y-06281D01*
X21851Y-06631D02*
X21651Y-06631D01*
X21751Y-06631D02*
X21751Y-06281D01*
X21717Y-06331D01*
X21684Y-06364D01*
X21651Y-06381D01*
G54D16*
X20849Y-06211D02*
X20849Y-06011D01*
X21149Y-06140D01*
X20949Y-05768D02*
X21149Y-05768D01*
X20835Y-05839D02*
X21049Y-05911D01*
X21049Y-05725D01*
X21149Y-05611D02*
X20849Y-05611D01*
X20992Y-05611D02*
X20992Y-05439D01*
X21149Y-05439D02*
X20849Y-05439D01*
X21121Y-05125D02*
X21135Y-05139D01*
X21149Y-05182D01*
X21149Y-05211D01*
X21135Y-05254D01*
X21107Y-05282D01*
X21078Y-05297D01*
X21021Y-05311D01*
X20978Y-05311D01*
X20921Y-05297D01*
X20892Y-05282D01*
X20864Y-05254D01*
X20849Y-05211D01*
X20849Y-05182D01*
X20864Y-05139D01*
X20878Y-05125D01*
X21149Y-04839D02*
X21149Y-05011D01*
X21149Y-04925D02*
X20849Y-04925D01*
X20892Y-04954D01*
X20921Y-04982D01*
X20935Y-05011D01*
X20878Y-04725D02*
X20864Y-04711D01*
X20849Y-04682D01*
X20849Y-04611D01*
X20864Y-04582D01*
X20878Y-04568D01*
X20907Y-04553D01*
X20935Y-04553D01*
X20978Y-04568D01*
X21149Y-04739D01*
X21149Y-04553D01*
X20849Y-04282D02*
X20849Y-04425D01*
X20992Y-04439D01*
X20978Y-04425D01*
X20964Y-04396D01*
X20964Y-04325D01*
X20978Y-04296D01*
X20992Y-04282D01*
X21021Y-04267D01*
X21092Y-04267D01*
X21121Y-04282D01*
X21135Y-04296D01*
X21149Y-04325D01*
X21149Y-04396D01*
X21135Y-04425D01*
X21121Y-04439D01*
G54D13*
X17653Y-03104D02*
X17653Y-02604D01*
X18072Y-03057D02*
X18053Y-03081D01*
X17996Y-03104D01*
X17958Y-03104D01*
X17900Y-03081D01*
X17862Y-03033D01*
X17843Y-02985D01*
X17824Y-02890D01*
X17824Y-02819D01*
X17843Y-02723D01*
X17862Y-02676D01*
X17900Y-02628D01*
X17958Y-02604D01*
X17996Y-02604D01*
X18053Y-02628D01*
X18072Y-02652D01*
X18453Y-03104D02*
X18224Y-03104D01*
X18338Y-03104D02*
X18338Y-02604D01*
X18300Y-02676D01*
X18262Y-02723D01*
X18224Y-02747D01*
X16239Y-04147D02*
X16430Y-04147D01*
X16201Y-04289D02*
X16334Y-03789D01*
X16468Y-04289D01*
X16544Y-03789D02*
X16773Y-03789D01*
X16658Y-04289D02*
X16658Y-03789D01*
X16906Y-04289D02*
X16906Y-03956D01*
X16906Y-04004D02*
X16925Y-03980D01*
X16963Y-03956D01*
X17021Y-03956D01*
X17059Y-03980D01*
X17078Y-04027D01*
X17078Y-04289D01*
X17078Y-04027D02*
X17097Y-03980D01*
X17135Y-03956D01*
X17192Y-03956D01*
X17230Y-03980D01*
X17249Y-04027D01*
X17249Y-04289D01*
X17496Y-04004D02*
X17458Y-03980D01*
X17439Y-03956D01*
X17420Y-03908D01*
X17420Y-03885D01*
X17439Y-03837D01*
X17458Y-03813D01*
X17496Y-03789D01*
X17573Y-03789D01*
X17611Y-03813D01*
X17630Y-03837D01*
X17649Y-03885D01*
X17649Y-03908D01*
X17630Y-03956D01*
X17611Y-03980D01*
X17573Y-04004D01*
X17496Y-04004D01*
X17458Y-04027D01*
X17439Y-04051D01*
X17420Y-04099D01*
X17420Y-04194D01*
X17439Y-04242D01*
X17458Y-04266D01*
X17496Y-04289D01*
X17573Y-04289D01*
X17611Y-04266D01*
X17630Y-04242D01*
X17649Y-04194D01*
X17649Y-04099D01*
X17630Y-04051D01*
X17611Y-04027D01*
X17573Y-04004D01*
X17877Y-04004D02*
X17839Y-03980D01*
X17820Y-03956D01*
X17801Y-03908D01*
X17801Y-03885D01*
X17820Y-03837D01*
X17839Y-03813D01*
X17877Y-03789D01*
X17954Y-03789D01*
X17992Y-03813D01*
X18011Y-03837D01*
X18030Y-03885D01*
X18030Y-03908D01*
X18011Y-03956D01*
X17992Y-03980D01*
X17954Y-04004D01*
X17877Y-04004D01*
X17839Y-04027D01*
X17820Y-04051D01*
X17801Y-04099D01*
X17801Y-04194D01*
X17820Y-04242D01*
X17839Y-04266D01*
X17877Y-04289D01*
X17954Y-04289D01*
X17992Y-04266D01*
X18011Y-04242D01*
X18030Y-04194D01*
X18030Y-04099D01*
X18011Y-04051D01*
X17992Y-04027D01*
X17954Y-04004D01*
X18201Y-04289D02*
X18201Y-03789D01*
X18354Y-03789D01*
X18392Y-03813D01*
X18411Y-03837D01*
X18430Y-03885D01*
X18430Y-03956D01*
X18411Y-04004D01*
X18392Y-04027D01*
X18354Y-04051D01*
X18201Y-04051D01*
G54D20*
X18989Y-00794D02*
X18937Y-00679D01*
X18899Y-00794D02*
X18899Y-00553D01*
X18959Y-00553D01*
X18974Y-00565D01*
X18982Y-00576D01*
X18989Y-00599D01*
X18989Y-00633D01*
X18982Y-00656D01*
X18974Y-00668D01*
X18959Y-00679D01*
X18899Y-00679D01*
X19124Y-00633D02*
X19124Y-00794D01*
X19086Y-00542D02*
X19049Y-00714D01*
X19146Y-00714D01*
G54D21*
X19740Y-00755D02*
X19637Y-00755D01*
X19689Y-00755D02*
X19689Y-00475D01*
X19672Y-00515D01*
X19654Y-00542D01*
X19637Y-00555D01*
X19817Y-00755D02*
X19817Y-00475D01*
X19920Y-00755D02*
X19843Y-00595D01*
X19920Y-00475D02*
X19817Y-00635D01*
G54D20*
X19741Y-01787D02*
X19689Y-01672D01*
X19651Y-01787D02*
X19651Y-01546D01*
X19711Y-01546D01*
X19726Y-01558D01*
X19734Y-01569D01*
X19741Y-01592D01*
X19741Y-01626D01*
X19734Y-01649D01*
X19726Y-01661D01*
X19711Y-01672D01*
X19651Y-01672D01*
X19816Y-01787D02*
X19846Y-01787D01*
X19861Y-01776D01*
X19868Y-01764D01*
X19883Y-01730D01*
X19891Y-01684D01*
X19891Y-01592D01*
X19883Y-01569D01*
X19876Y-01558D01*
X19861Y-01546D01*
X19831Y-01546D01*
X19816Y-01558D01*
X19808Y-01569D01*
X19801Y-01592D01*
X19801Y-01649D01*
X19808Y-01672D01*
X19816Y-01684D01*
X19831Y-01695D01*
X19861Y-01695D01*
X19876Y-01684D01*
X19883Y-01672D01*
X19891Y-01649D01*
G54D21*
X19740Y-01325D02*
X19637Y-01325D01*
X19689Y-01325D02*
X19689Y-01045D01*
X19672Y-01085D01*
X19654Y-01112D01*
X19637Y-01125D01*
X19817Y-01325D02*
X19817Y-01045D01*
X19920Y-01325D02*
X19843Y-01165D01*
X19920Y-01045D02*
X19817Y-01205D01*
G54D20*
X06833Y-05881D02*
X06718Y-05933D01*
X06833Y-05971D02*
X06592Y-05971D01*
X06592Y-05911D01*
X06604Y-05896D01*
X06615Y-05888D01*
X06638Y-05881D01*
X06672Y-05881D01*
X06695Y-05888D01*
X06707Y-05896D01*
X06718Y-05911D01*
X06718Y-05971D01*
X06833Y-05731D02*
X06833Y-05821D01*
X06833Y-05776D02*
X06592Y-05776D01*
X06626Y-05791D01*
X06649Y-05806D01*
X06661Y-05821D01*
G54D21*
X06578Y-05399D02*
X06565Y-05390D01*
X06551Y-05373D01*
X06551Y-05330D01*
X06565Y-05313D01*
X06578Y-05304D01*
X06605Y-05296D01*
X06631Y-05296D01*
X06671Y-05304D01*
X06831Y-05407D01*
X06831Y-05296D01*
X06551Y-05236D02*
X06551Y-05116D01*
X06831Y-05193D01*
X06831Y-04945D02*
X06698Y-05005D01*
X06831Y-05048D02*
X06551Y-05048D01*
X06551Y-04980D01*
X06565Y-04962D01*
X06578Y-04954D01*
X06605Y-04945D01*
X06645Y-04945D01*
X06671Y-04954D01*
X06685Y-04962D01*
X06698Y-04980D01*
X06698Y-05048D01*
G54D20*
X06509Y-04188D02*
X06457Y-04073D01*
X06419Y-04188D02*
X06419Y-03947D01*
X06479Y-03947D01*
X06494Y-03959D01*
X06502Y-03970D01*
X06509Y-03993D01*
X06509Y-04027D01*
X06502Y-04050D01*
X06494Y-04062D01*
X06479Y-04073D01*
X06419Y-04073D01*
X06569Y-03970D02*
X06576Y-03959D01*
X06591Y-03947D01*
X06629Y-03947D01*
X06644Y-03959D01*
X06651Y-03970D01*
X06659Y-03993D01*
X06659Y-04016D01*
X06651Y-04050D01*
X06561Y-04188D01*
X06659Y-04188D01*
G54D21*
X07011Y-03812D02*
X07020Y-03799D01*
X07037Y-03785D01*
X07080Y-03785D01*
X07097Y-03799D01*
X07106Y-03812D01*
X07114Y-03839D01*
X07114Y-03865D01*
X07106Y-03905D01*
X07003Y-04065D01*
X07114Y-04065D01*
X07174Y-03785D02*
X07294Y-03785D01*
X07217Y-04065D01*
X07465Y-04065D02*
X07405Y-03932D01*
X07362Y-04065D02*
X07362Y-03785D01*
X07430Y-03785D01*
X07448Y-03799D01*
X07456Y-03812D01*
X07465Y-03839D01*
X07465Y-03879D01*
X07456Y-03905D01*
X07448Y-03919D01*
X07430Y-03932D01*
X07362Y-03932D01*
G54D20*
X09918Y-05602D02*
X09866Y-05487D01*
X09828Y-05602D02*
X09828Y-05361D01*
X09888Y-05361D01*
X09903Y-05373D01*
X09911Y-05384D01*
X09918Y-05407D01*
X09918Y-05441D01*
X09911Y-05464D01*
X09903Y-05476D01*
X09888Y-05487D01*
X09828Y-05487D01*
X10060Y-05361D02*
X09985Y-05361D01*
X09978Y-05476D01*
X09985Y-05464D01*
X10000Y-05453D01*
X10038Y-05453D01*
X10053Y-05464D01*
X10060Y-05476D01*
X10068Y-05499D01*
X10068Y-05556D01*
X10060Y-05579D01*
X10053Y-05591D01*
X10038Y-05602D01*
X10000Y-05602D01*
X09985Y-05591D01*
X09978Y-05579D01*
G54D21*
X09077Y-05409D02*
X09077Y-05595D01*
X09034Y-05302D02*
X08991Y-05502D01*
X09103Y-05502D01*
X09154Y-05315D02*
X09274Y-05315D01*
X09197Y-05595D01*
X09445Y-05595D02*
X09385Y-05462D01*
X09342Y-05595D02*
X09342Y-05315D01*
X09410Y-05315D01*
X09428Y-05329D01*
X09436Y-05342D01*
X09445Y-05369D01*
X09445Y-05409D01*
X09436Y-05435D01*
X09428Y-05449D01*
X09410Y-05462D01*
X09342Y-05462D01*
G54D20*
X08529Y-04818D02*
X08477Y-04703D01*
X08439Y-04818D02*
X08439Y-04577D01*
X08499Y-04577D01*
X08514Y-04589D01*
X08522Y-04600D01*
X08529Y-04623D01*
X08529Y-04657D01*
X08522Y-04680D01*
X08514Y-04692D01*
X08499Y-04703D01*
X08439Y-04703D01*
X08664Y-04577D02*
X08634Y-04577D01*
X08619Y-04589D01*
X08611Y-04600D01*
X08596Y-04634D01*
X08589Y-04680D01*
X08589Y-04772D01*
X08596Y-04795D01*
X08604Y-04807D01*
X08619Y-04818D01*
X08649Y-04818D01*
X08664Y-04807D01*
X08671Y-04795D01*
X08679Y-04772D01*
X08679Y-04715D01*
X08671Y-04692D01*
X08664Y-04680D01*
X08649Y-04669D01*
X08619Y-04669D01*
X08604Y-04680D01*
X08596Y-04692D01*
X08589Y-04715D01*
G54D21*
X07697Y-04579D02*
X07697Y-04765D01*
X07654Y-04472D02*
X07611Y-04672D01*
X07723Y-04672D01*
X07774Y-04485D02*
X07894Y-04485D01*
X07817Y-04765D01*
X08065Y-04765D02*
X08005Y-04632D01*
X07962Y-04765D02*
X07962Y-04485D01*
X08030Y-04485D01*
X08048Y-04499D01*
X08056Y-04512D01*
X08065Y-04539D01*
X08065Y-04579D01*
X08056Y-04605D01*
X08048Y-04619D01*
X08030Y-04632D01*
X07962Y-04632D01*
G54D20*
X12534Y-03456D02*
X12546Y-03463D01*
X12557Y-03486D01*
X12557Y-03501D01*
X12546Y-03523D01*
X12523Y-03538D01*
X12500Y-03546D01*
X12454Y-03553D01*
X12419Y-03553D01*
X12373Y-03546D01*
X12350Y-03538D01*
X12328Y-03523D01*
X12316Y-03501D01*
X12316Y-03486D01*
X12328Y-03463D01*
X12339Y-03456D01*
X12316Y-03404D02*
X12316Y-03306D01*
X12408Y-03359D01*
X12408Y-03336D01*
X12419Y-03321D01*
X12431Y-03314D01*
X12454Y-03306D01*
X12511Y-03306D01*
X12534Y-03314D01*
X12546Y-03321D01*
X12557Y-03336D01*
X12557Y-03381D01*
X12546Y-03396D01*
X12534Y-03404D01*
G54D21*
X12131Y-03537D02*
X12131Y-03640D01*
X12131Y-03588D02*
X11851Y-03588D01*
X11891Y-03605D01*
X11918Y-03623D01*
X11931Y-03640D01*
X11971Y-03434D02*
X11958Y-03452D01*
X11945Y-03460D01*
X11918Y-03469D01*
X11905Y-03469D01*
X11878Y-03460D01*
X11865Y-03452D01*
X11851Y-03434D01*
X11851Y-03400D01*
X11865Y-03383D01*
X11878Y-03374D01*
X11905Y-03366D01*
X11918Y-03366D01*
X11945Y-03374D01*
X11958Y-03383D01*
X11971Y-03400D01*
X11971Y-03434D01*
X11985Y-03452D01*
X11998Y-03460D01*
X12025Y-03469D01*
X12078Y-03469D01*
X12105Y-03460D01*
X12118Y-03452D01*
X12131Y-03434D01*
X12131Y-03400D01*
X12118Y-03383D01*
X12105Y-03374D01*
X12078Y-03366D01*
X12025Y-03366D01*
X11998Y-03374D01*
X11985Y-03383D01*
X11971Y-03400D01*
X11945Y-03289D02*
X12225Y-03289D01*
X11958Y-03289D02*
X11945Y-03272D01*
X11945Y-03238D01*
X11958Y-03221D01*
X11971Y-03212D01*
X11998Y-03203D01*
X12078Y-03203D01*
X12105Y-03212D01*
X12118Y-03221D01*
X12131Y-03238D01*
X12131Y-03272D01*
X12118Y-03289D01*
G54D20*
X08430Y-03516D02*
X08423Y-03528D01*
X08400Y-03539D01*
X08385Y-03539D01*
X08363Y-03528D01*
X08348Y-03505D01*
X08340Y-03482D01*
X08333Y-03436D01*
X08333Y-03401D01*
X08340Y-03355D01*
X08348Y-03332D01*
X08363Y-03310D01*
X08385Y-03298D01*
X08400Y-03298D01*
X08423Y-03310D01*
X08430Y-03321D01*
X08580Y-03539D02*
X08490Y-03539D01*
X08535Y-03539D02*
X08535Y-03298D01*
X08520Y-03332D01*
X08505Y-03355D01*
X08490Y-03367D01*
G54D21*
X07923Y-02805D02*
X07940Y-02805D01*
X07957Y-02819D01*
X07966Y-02832D01*
X07975Y-02859D01*
X07983Y-02912D01*
X07983Y-02979D01*
X07975Y-03032D01*
X07966Y-03059D01*
X07957Y-03072D01*
X07940Y-03085D01*
X07923Y-03085D01*
X07906Y-03072D01*
X07897Y-03059D01*
X07889Y-03032D01*
X07880Y-02979D01*
X07880Y-02912D01*
X07889Y-02859D01*
X07897Y-02832D01*
X07906Y-02819D01*
X07923Y-02805D01*
X08137Y-02899D02*
X08137Y-03085D01*
X08060Y-02899D02*
X08060Y-03045D01*
X08068Y-03072D01*
X08086Y-03085D01*
X08111Y-03085D01*
X08128Y-03072D01*
X08137Y-03059D01*
X08317Y-03085D02*
X08214Y-03085D01*
X08266Y-03085D02*
X08266Y-02805D01*
X08249Y-02845D01*
X08231Y-02872D01*
X08214Y-02885D01*
G54D20*
X07412Y-02948D02*
X07297Y-03000D01*
X07412Y-03038D02*
X07171Y-03038D01*
X07171Y-02978D01*
X07183Y-02963D01*
X07194Y-02955D01*
X07217Y-02948D01*
X07251Y-02948D01*
X07274Y-02955D01*
X07286Y-02963D01*
X07297Y-02978D01*
X07297Y-03038D01*
X07171Y-02896D02*
X07171Y-02798D01*
X07263Y-02851D01*
X07263Y-02828D01*
X07274Y-02813D01*
X07286Y-02806D01*
X07309Y-02798D01*
X07366Y-02798D01*
X07389Y-02806D01*
X07401Y-02813D01*
X07412Y-02828D01*
X07412Y-02873D01*
X07401Y-02888D01*
X07389Y-02896D01*
G54D21*
X06691Y-02967D02*
X06691Y-02856D01*
X06798Y-02916D01*
X06798Y-02890D01*
X06811Y-02873D01*
X06825Y-02864D01*
X06851Y-02856D01*
X06918Y-02856D01*
X06945Y-02864D01*
X06958Y-02873D01*
X06971Y-02890D01*
X06971Y-02942D01*
X06958Y-02959D01*
X06945Y-02967D01*
X06971Y-02779D02*
X06691Y-02779D01*
X06971Y-02676D02*
X06811Y-02753D01*
X06691Y-02676D02*
X06851Y-02779D01*
X06971Y-02591D02*
X06971Y-02556D01*
X06958Y-02539D01*
X06945Y-02531D01*
X06905Y-02513D01*
X06851Y-02505D01*
X06745Y-02505D01*
X06718Y-02513D01*
X06705Y-02522D01*
X06691Y-02539D01*
X06691Y-02573D01*
X06705Y-02591D01*
X06718Y-02599D01*
X06745Y-02608D01*
X06811Y-02608D01*
X06838Y-02599D01*
X06851Y-02591D01*
X06865Y-02573D01*
X06865Y-02539D01*
X06851Y-02522D01*
X06838Y-02513D01*
X06811Y-02505D01*
G54D20*
X12550Y-02271D02*
X12562Y-02278D01*
X12573Y-02301D01*
X12573Y-02316D01*
X12562Y-02338D01*
X12539Y-02353D01*
X12516Y-02361D01*
X12470Y-02368D01*
X12435Y-02368D01*
X12389Y-02361D01*
X12366Y-02353D01*
X12344Y-02338D01*
X12332Y-02316D01*
X12332Y-02301D01*
X12344Y-02278D01*
X12355Y-02271D01*
X12412Y-02136D02*
X12573Y-02136D01*
X12321Y-02174D02*
X12493Y-02211D01*
X12493Y-02114D01*
G54D21*
X12121Y-02347D02*
X12121Y-02450D01*
X12121Y-02398D02*
X11841Y-02398D01*
X11881Y-02415D01*
X11908Y-02433D01*
X11921Y-02450D01*
X11961Y-02244D02*
X11948Y-02262D01*
X11935Y-02270D01*
X11908Y-02279D01*
X11895Y-02279D01*
X11868Y-02270D01*
X11855Y-02262D01*
X11841Y-02244D01*
X11841Y-02210D01*
X11855Y-02193D01*
X11868Y-02184D01*
X11895Y-02176D01*
X11908Y-02176D01*
X11935Y-02184D01*
X11948Y-02193D01*
X11961Y-02210D01*
X11961Y-02244D01*
X11975Y-02262D01*
X11988Y-02270D01*
X12015Y-02279D01*
X12068Y-02279D01*
X12095Y-02270D01*
X12108Y-02262D01*
X12121Y-02244D01*
X12121Y-02210D01*
X12108Y-02193D01*
X12095Y-02184D01*
X12068Y-02176D01*
X12015Y-02176D01*
X11988Y-02184D01*
X11975Y-02193D01*
X11961Y-02210D01*
X11935Y-02099D02*
X12215Y-02099D01*
X11948Y-02099D02*
X11935Y-02082D01*
X11935Y-02048D01*
X11948Y-02031D01*
X11961Y-02022D01*
X11988Y-02013D01*
X12068Y-02013D01*
X12095Y-02022D01*
X12108Y-02031D01*
X12121Y-02048D01*
X12121Y-02082D01*
X12108Y-02099D01*
G54D20*
X12647Y-01739D02*
X12595Y-01624D01*
X12557Y-01739D02*
X12557Y-01498D01*
X12617Y-01498D01*
X12632Y-01510D01*
X12640Y-01521D01*
X12647Y-01544D01*
X12647Y-01578D01*
X12640Y-01601D01*
X12632Y-01613D01*
X12617Y-01624D01*
X12557Y-01624D01*
X12699Y-01498D02*
X12804Y-01498D01*
X12737Y-01739D01*
G54D21*
X13286Y-01455D02*
X13200Y-01455D01*
X13191Y-01589D01*
X13200Y-01575D01*
X13217Y-01562D01*
X13260Y-01562D01*
X13277Y-01575D01*
X13286Y-01589D01*
X13294Y-01615D01*
X13294Y-01682D01*
X13286Y-01709D01*
X13277Y-01722D01*
X13260Y-01735D01*
X13217Y-01735D01*
X13200Y-01722D01*
X13191Y-01709D01*
X13371Y-01735D02*
X13371Y-01455D01*
X13474Y-01735D02*
X13397Y-01575D01*
X13474Y-01455D02*
X13371Y-01615D01*
X13628Y-01455D02*
X13594Y-01455D01*
X13577Y-01469D01*
X13568Y-01482D01*
X13551Y-01522D01*
X13542Y-01575D01*
X13542Y-01682D01*
X13551Y-01709D01*
X13559Y-01722D01*
X13577Y-01735D01*
X13611Y-01735D01*
X13628Y-01722D01*
X13637Y-01709D01*
X13645Y-01682D01*
X13645Y-01615D01*
X13637Y-01589D01*
X13628Y-01575D01*
X13611Y-01562D01*
X13577Y-01562D01*
X13559Y-01575D01*
X13551Y-01589D01*
X13542Y-01615D01*
G54D20*
X20820Y-03991D02*
X20768Y-03876D01*
X20730Y-03991D02*
X20730Y-03750D01*
X20790Y-03750D01*
X20805Y-03762D01*
X20813Y-03773D01*
X20820Y-03796D01*
X20820Y-03830D01*
X20813Y-03853D01*
X20805Y-03865D01*
X20790Y-03876D01*
X20730Y-03876D01*
X20910Y-03853D02*
X20895Y-03842D01*
X20887Y-03830D01*
X20880Y-03807D01*
X20880Y-03796D01*
X20887Y-03773D01*
X20895Y-03762D01*
X20910Y-03750D01*
X20940Y-03750D01*
X20955Y-03762D01*
X20962Y-03773D01*
X20970Y-03796D01*
X20970Y-03807D01*
X20962Y-03830D01*
X20955Y-03842D01*
X20940Y-03853D01*
X20910Y-03853D01*
X20895Y-03865D01*
X20887Y-03876D01*
X20880Y-03899D01*
X20880Y-03945D01*
X20887Y-03968D01*
X20895Y-03980D01*
X20910Y-03991D01*
X20940Y-03991D01*
X20955Y-03980D01*
X20962Y-03968D01*
X20970Y-03945D01*
X20970Y-03899D01*
X20962Y-03876D01*
X20955Y-03865D01*
X20940Y-03853D01*
G54D21*
X21456Y-03705D02*
X21370Y-03705D01*
X21361Y-03839D01*
X21370Y-03825D01*
X21387Y-03812D01*
X21430Y-03812D01*
X21447Y-03825D01*
X21456Y-03839D01*
X21464Y-03865D01*
X21464Y-03932D01*
X21456Y-03959D01*
X21447Y-03972D01*
X21430Y-03985D01*
X21387Y-03985D01*
X21370Y-03972D01*
X21361Y-03959D01*
X21541Y-03985D02*
X21541Y-03705D01*
X21644Y-03985D02*
X21567Y-03825D01*
X21644Y-03705D02*
X21541Y-03865D01*
X21798Y-03705D02*
X21764Y-03705D01*
X21747Y-03719D01*
X21738Y-03732D01*
X21721Y-03772D01*
X21712Y-03825D01*
X21712Y-03932D01*
X21721Y-03959D01*
X21729Y-03972D01*
X21747Y-03985D01*
X21781Y-03985D01*
X21798Y-03972D01*
X21807Y-03959D01*
X21815Y-03932D01*
X21815Y-03865D01*
X21807Y-03839D01*
X21798Y-03825D01*
X21781Y-03812D01*
X21747Y-03812D01*
X21729Y-03825D01*
X21721Y-03839D01*
X21712Y-03865D01*
G54D20*
X14200Y-03755D02*
X14212Y-03762D01*
X14223Y-03785D01*
X14223Y-03800D01*
X14212Y-03822D01*
X14189Y-03837D01*
X14166Y-03845D01*
X14120Y-03852D01*
X14085Y-03852D01*
X14039Y-03845D01*
X14016Y-03837D01*
X13994Y-03822D01*
X13982Y-03800D01*
X13982Y-03785D01*
X13994Y-03762D01*
X14005Y-03755D01*
X13982Y-03613D02*
X13982Y-03688D01*
X14097Y-03695D01*
X14085Y-03688D01*
X14074Y-03673D01*
X14074Y-03635D01*
X14085Y-03620D01*
X14097Y-03613D01*
X14120Y-03605D01*
X14177Y-03605D01*
X14200Y-03613D01*
X14212Y-03620D01*
X14223Y-03635D01*
X14223Y-03673D01*
X14212Y-03688D01*
X14200Y-03695D01*
G54D21*
X13931Y-03147D02*
X13931Y-03130D01*
X13945Y-03113D01*
X13958Y-03104D01*
X13985Y-03095D01*
X14038Y-03087D01*
X14105Y-03087D01*
X14158Y-03095D01*
X14185Y-03104D01*
X14198Y-03113D01*
X14211Y-03130D01*
X14211Y-03147D01*
X14198Y-03164D01*
X14185Y-03173D01*
X14158Y-03181D01*
X14105Y-03190D01*
X14038Y-03190D01*
X13985Y-03181D01*
X13958Y-03173D01*
X13945Y-03164D01*
X13931Y-03147D01*
X14025Y-02933D02*
X14211Y-02933D01*
X14025Y-03010D02*
X14171Y-03010D01*
X14198Y-03002D01*
X14211Y-02984D01*
X14211Y-02959D01*
X14198Y-02942D01*
X14185Y-02933D01*
X14211Y-02753D02*
X14211Y-02856D01*
X14211Y-02804D02*
X13931Y-02804D01*
X13971Y-02821D01*
X13998Y-02839D01*
X14011Y-02856D01*
M02*
