G04 (created by PCBNEW-RS274X (2011-11-27 BZR 3249)-stable) date 13/09/2012 1:45:44 p.m.*
G01*
G70*
G90*
%MOIN*%
G04 Gerber Fmt 3.4, Leading zero omitted, Abs format*
%FSLAX34Y34*%
G04 APERTURE LIST*
%ADD10C,0.006000*%
%ADD11R,0.055000X0.017000*%
%ADD12C,0.035400*%
%ADD13R,0.078700X0.098400*%
%ADD14R,0.019700X0.090600*%
%ADD15C,0.088600*%
%ADD16C,0.157500*%
%ADD17C,0.133900*%
%ADD18C,0.056000*%
%ADD19R,0.060000X0.060000*%
%ADD20C,0.060000*%
%ADD21R,0.031500X0.025000*%
%ADD22R,0.080000X0.060000*%
%ADD23R,0.060000X0.080000*%
%ADD24R,0.100000X0.050000*%
%ADD25R,0.078700X0.017700*%
%ADD26R,0.017700X0.078700*%
%ADD27R,0.025000X0.031500*%
%ADD28C,0.035000*%
%ADD29C,0.031500*%
%ADD30C,0.030000*%
%ADD31C,0.015700*%
%ADD32C,0.030000*%
%ADD33C,0.008000*%
%ADD34C,0.010000*%
G04 APERTURE END LIST*
G54D10*
G54D11*
X20128Y-04472D03*
X20128Y-04722D03*
X20128Y-04982D03*
X20128Y-05232D03*
X20128Y-05492D03*
X20128Y-05747D03*
X20128Y-06002D03*
X22328Y-06002D03*
X22328Y-05747D03*
X22328Y-05492D03*
X22328Y-05232D03*
X22328Y-04977D03*
X22328Y-04722D03*
X22328Y-04467D03*
G54D12*
X03622Y-08169D03*
X01890Y-08169D03*
G54D13*
X04488Y-09350D03*
X01004Y-09350D03*
X04508Y-07185D03*
X01004Y-07185D03*
G54D14*
X02756Y-07185D03*
X02441Y-07185D03*
X02126Y-07185D03*
X03071Y-07185D03*
X03386Y-07185D03*
G54D15*
X02166Y-03053D03*
G54D16*
X23478Y-08982D03*
G54D17*
X10828Y-09232D03*
G54D18*
X10398Y-03932D03*
X10398Y-01932D03*
G54D19*
X11978Y-06092D03*
G54D20*
X11978Y-05092D03*
X12978Y-06092D03*
X12978Y-05092D03*
X13978Y-06092D03*
X13978Y-05092D03*
G54D19*
X05538Y-02352D03*
G54D20*
X05538Y-03352D03*
X05538Y-04352D03*
X05538Y-05352D03*
G54D15*
X02264Y-04726D03*
X03445Y-03742D03*
X03347Y-02167D03*
G54D21*
X06418Y-07842D03*
X06418Y-07242D03*
X07138Y-07842D03*
X07138Y-07242D03*
G54D22*
X08088Y-07702D03*
X08088Y-06402D03*
X09238Y-07702D03*
X09238Y-06402D03*
G54D23*
X20838Y-03022D03*
X22138Y-03022D03*
G54D22*
X21968Y-00752D03*
X21968Y-02052D03*
X20908Y-00752D03*
X20908Y-02052D03*
G54D19*
X24713Y-04984D03*
G54D20*
X23713Y-04984D03*
X24713Y-05984D03*
X23713Y-05984D03*
X24713Y-06984D03*
X23713Y-06984D03*
G54D24*
X08098Y-00822D03*
X08098Y-02022D03*
G54D25*
X15282Y-04215D03*
X15282Y-03900D03*
X15282Y-03585D03*
X15282Y-03270D03*
X15282Y-02955D03*
X15282Y-02640D03*
X15282Y-02325D03*
X15282Y-02010D03*
X19048Y-02012D03*
X19048Y-04222D03*
X19048Y-03902D03*
X19048Y-03582D03*
X19048Y-03272D03*
X19048Y-02952D03*
X19048Y-02642D03*
X19048Y-02322D03*
G54D26*
X16066Y-01222D03*
X16380Y-01222D03*
X16696Y-01222D03*
X17010Y-01222D03*
X17326Y-01222D03*
X17640Y-01222D03*
X17956Y-01222D03*
X18270Y-01222D03*
X16068Y-05002D03*
X16378Y-05002D03*
X16698Y-05002D03*
X17008Y-05002D03*
X17318Y-05002D03*
X17638Y-05002D03*
X17958Y-05002D03*
X18278Y-05002D03*
G54D27*
X20078Y-00642D03*
X19478Y-00642D03*
X20078Y-01212D03*
X19478Y-01212D03*
G54D21*
X06718Y-05472D03*
X06718Y-04872D03*
G54D27*
X07538Y-03952D03*
X06938Y-03952D03*
X09518Y-05482D03*
X08918Y-05482D03*
X08138Y-04652D03*
X07538Y-04652D03*
G54D21*
X12018Y-03722D03*
X12018Y-03122D03*
G54D27*
X07798Y-02972D03*
X08398Y-02972D03*
G54D21*
X06858Y-02432D03*
X06858Y-03032D03*
X12008Y-01932D03*
X12008Y-02532D03*
G54D27*
X13118Y-01622D03*
X13718Y-01622D03*
X21284Y-03858D03*
X20684Y-03858D03*
G54D21*
X14098Y-02672D03*
X14098Y-03272D03*
G54D28*
X18878Y-01282D03*
G54D29*
X16308Y-02972D03*
G54D28*
X11978Y-01302D03*
X19976Y-02898D03*
X16308Y-03902D03*
G54D29*
X19978Y-03962D03*
X17958Y-02082D03*
X17318Y-02592D03*
X17328Y-04232D03*
X18937Y-05984D03*
X21654Y-05157D03*
X17788Y-05772D03*
X21668Y-05842D03*
X13588Y-02172D03*
X17018Y-02082D03*
X14268Y-01612D03*
G54D30*
X20758Y-06342D03*
G54D29*
X21178Y-04732D03*
X14658Y-01362D03*
X10937Y-07264D03*
X19978Y-03452D03*
X18258Y-06292D03*
X14248Y-02132D03*
X08088Y-03712D03*
X19488Y-06002D03*
X17488Y-02062D03*
X16928Y-02952D03*
X17758Y-03542D03*
X05408Y-01582D03*
X10236Y-05032D03*
X15598Y-01362D03*
X08088Y-09552D03*
X06178Y-09542D03*
X06558Y-00792D03*
X05528Y-08862D03*
X09788Y-09532D03*
X05658Y-00812D03*
X08425Y-05221D03*
X05518Y-07472D03*
G54D28*
X13528Y-03262D03*
G54D29*
X15078Y-06282D03*
X08088Y-08462D03*
X07528Y-05212D03*
X07168Y-06202D03*
X20928Y-05092D03*
X21188Y-05862D03*
X12638Y-02323D03*
X12638Y-03543D03*
G54D31*
X15282Y-02955D02*
X16291Y-02955D01*
G54D32*
X06858Y-02432D02*
X05618Y-02432D01*
X08098Y-00822D02*
X11978Y-00822D01*
G54D31*
X16291Y-02955D02*
X16308Y-02972D01*
G54D32*
X18868Y-00442D02*
X18868Y-01272D01*
X05618Y-02432D02*
X05538Y-02352D01*
X15118Y-00822D02*
X15498Y-00442D01*
X07798Y-02972D02*
X07778Y-02972D01*
G54D31*
X13118Y-02304D02*
X13118Y-01622D01*
G54D32*
X19278Y-00442D02*
X19478Y-00642D01*
X19976Y-02898D02*
X20362Y-02898D01*
G54D31*
X15282Y-03585D02*
X15991Y-03585D01*
G54D32*
X07778Y-02972D02*
X07238Y-02432D01*
G54D31*
X13118Y-01622D02*
X13118Y-01543D01*
X13118Y-01543D02*
X12877Y-01302D01*
X13486Y-02672D02*
X13118Y-02304D01*
G54D33*
X16391Y-03819D02*
X16308Y-03902D01*
G54D31*
X12877Y-01302D02*
X11978Y-01302D01*
G54D33*
X17563Y-03902D02*
X17480Y-03819D01*
G54D31*
X15991Y-03585D02*
X16308Y-03902D01*
X14098Y-02672D02*
X13486Y-02672D01*
G54D33*
X19048Y-03902D02*
X17563Y-03902D01*
G54D32*
X20362Y-02898D02*
X20486Y-03022D01*
X06858Y-01262D02*
X07298Y-00822D01*
X19478Y-00642D02*
X19478Y-01212D01*
G54D33*
X17480Y-03819D02*
X16391Y-03819D01*
G54D32*
X11978Y-00822D02*
X15118Y-00822D01*
X15498Y-00442D02*
X18868Y-00442D01*
X07298Y-00822D02*
X08098Y-00822D01*
X06858Y-02432D02*
X06858Y-01262D01*
X11978Y-00822D02*
X11978Y-01302D01*
G54D31*
X14651Y-02955D02*
X15282Y-02955D01*
G54D32*
X18868Y-00442D02*
X19278Y-00442D01*
X07238Y-02432D02*
X06858Y-02432D01*
G54D31*
X14098Y-02672D02*
X14368Y-02672D01*
G54D32*
X18868Y-01272D02*
X18878Y-01282D01*
G54D31*
X14368Y-02672D02*
X14651Y-02955D01*
G54D32*
X20486Y-03022D02*
X20838Y-03022D01*
G54D33*
X21708Y-04652D02*
X21708Y-04582D01*
X21260Y-05492D02*
X21260Y-05079D01*
X20118Y-04102D02*
X20118Y-04102D01*
X17958Y-02082D02*
X17956Y-02080D01*
X21299Y-03873D02*
X21284Y-03858D01*
X20128Y-05232D02*
X20508Y-05232D01*
X20508Y-05232D02*
X20768Y-05492D01*
X20128Y-04472D02*
X21000Y-04472D01*
X21000Y-04472D02*
X21299Y-04173D01*
X21708Y-04582D02*
X21299Y-04173D01*
X21260Y-05492D02*
X22328Y-05492D01*
X20118Y-04102D02*
X19978Y-03962D01*
X21708Y-04631D02*
X21708Y-04652D01*
X20128Y-04472D02*
X20128Y-04112D01*
X17956Y-02080D02*
X17956Y-01222D01*
X21208Y-05492D02*
X21260Y-05492D01*
X20768Y-05492D02*
X21208Y-05492D01*
X20128Y-04112D02*
X20118Y-04102D01*
X21708Y-04652D02*
X21778Y-04722D01*
X21299Y-04173D02*
X21299Y-03873D01*
X21260Y-05079D02*
X21708Y-04631D01*
X21778Y-04722D02*
X22328Y-04722D01*
X21299Y-04173D02*
X21288Y-04162D01*
X16066Y-01620D02*
X17038Y-02592D01*
X17038Y-02592D02*
X17318Y-02592D01*
X17318Y-05602D02*
X17318Y-05002D01*
X14198Y-04402D02*
X11478Y-04402D01*
X17318Y-04242D02*
X17318Y-05002D01*
X14198Y-04402D02*
X15668Y-05872D01*
X15668Y-05872D02*
X17048Y-05872D01*
X11478Y-04402D02*
X10398Y-05482D01*
X17328Y-04232D02*
X17318Y-04242D01*
X17048Y-05872D02*
X17318Y-05602D01*
X16066Y-01222D02*
X16066Y-01620D01*
X09518Y-05482D02*
X10398Y-05482D01*
X14318Y-04152D02*
X11338Y-04152D01*
X08138Y-04652D02*
X10838Y-04652D01*
X16928Y-05662D02*
X17008Y-05582D01*
X15828Y-05662D02*
X16928Y-05662D01*
X15828Y-05662D02*
X14318Y-04152D01*
X11338Y-04152D02*
X10838Y-04652D01*
X17008Y-05582D02*
X17008Y-05002D01*
X17918Y-06082D02*
X18278Y-05722D01*
X14818Y-05942D02*
X15368Y-05942D01*
X21729Y-05232D02*
X22328Y-05232D01*
X21729Y-05232D02*
X21654Y-05157D01*
X15508Y-06082D02*
X17918Y-06082D01*
X18278Y-05732D02*
X18278Y-05722D01*
X18675Y-05722D02*
X18278Y-05722D01*
X14458Y-05582D02*
X12488Y-05582D01*
X22328Y-05232D02*
X22318Y-05242D01*
X14818Y-05942D02*
X14458Y-05582D01*
X18675Y-05722D02*
X18937Y-05984D01*
X15368Y-05942D02*
X15508Y-06082D01*
X11978Y-06092D02*
X12488Y-05582D01*
X18278Y-05722D02*
X18278Y-05002D01*
X21763Y-05747D02*
X21668Y-05842D01*
X22328Y-05747D02*
X21763Y-05747D01*
X17958Y-05602D02*
X17958Y-05002D01*
X17788Y-05772D02*
X17958Y-05602D01*
X14258Y-01622D02*
X13718Y-01622D01*
X17010Y-01222D02*
X17010Y-02074D01*
X14258Y-01622D02*
X14268Y-01612D01*
X17018Y-02082D02*
X17010Y-02074D01*
X13718Y-02042D02*
X13718Y-01622D01*
X13588Y-02172D02*
X13718Y-02042D01*
X17638Y-05002D02*
X17638Y-04412D01*
X19538Y-05492D02*
X20128Y-05492D01*
X17798Y-04252D02*
X18298Y-04252D01*
X18298Y-04252D02*
X19538Y-05492D01*
X17638Y-04412D02*
X17798Y-04252D01*
X20138Y-04732D02*
X20128Y-04722D01*
X19048Y-04252D02*
X19518Y-04722D01*
X19048Y-04252D02*
X19048Y-04222D01*
X20472Y-06592D02*
X20508Y-06592D01*
X20472Y-06592D02*
X13478Y-06592D01*
X21168Y-04722D02*
X21178Y-04732D01*
X21178Y-04732D02*
X20138Y-04732D01*
X20508Y-06592D02*
X20758Y-06342D01*
X12978Y-06092D02*
X13478Y-06592D01*
X20128Y-04722D02*
X19518Y-04722D01*
X19478Y-02952D02*
X19978Y-03452D01*
X05488Y-07442D02*
X05488Y-07422D01*
G54D31*
X14448Y-03272D02*
X15280Y-03272D01*
G54D33*
X19488Y-06222D02*
X19488Y-06002D01*
X07138Y-07842D02*
X07948Y-07842D01*
X13528Y-03262D02*
X13528Y-03272D01*
X18492Y-06292D02*
X18602Y-06402D01*
G54D31*
X16534Y-03346D02*
X16928Y-02952D01*
G54D33*
X05518Y-07472D02*
X05488Y-07442D01*
X10236Y-05032D02*
X10157Y-04953D01*
X24716Y-07984D02*
X24728Y-07972D01*
X19308Y-06402D02*
X19488Y-06222D01*
X13528Y-03272D02*
X13068Y-03272D01*
X20384Y-03858D02*
X19978Y-03452D01*
X15088Y-06292D02*
X15078Y-06282D01*
X08088Y-09552D02*
X08108Y-09532D01*
X16918Y-02962D02*
X16918Y-02942D01*
X05908Y-07842D02*
X05538Y-07472D01*
G54D31*
X16104Y-02520D02*
X16496Y-02520D01*
X15984Y-02640D02*
X16104Y-02520D01*
G54D33*
X19478Y-02952D02*
X19048Y-02952D01*
X13068Y-03272D02*
X12918Y-03122D01*
X08088Y-07702D02*
X07938Y-07852D01*
X08548Y-03122D02*
X08398Y-02972D01*
X06418Y-07842D02*
X07138Y-07842D01*
X18258Y-06292D02*
X18492Y-06292D01*
G54D31*
X16496Y-02520D02*
X16928Y-02952D01*
G54D33*
X11998Y-02542D02*
X12008Y-02532D01*
X12018Y-02542D02*
X12008Y-02532D01*
G54D31*
X14098Y-03272D02*
X14448Y-03272D01*
G54D33*
X19488Y-06002D02*
X20128Y-06002D01*
X10157Y-04953D02*
X08693Y-04953D01*
X09238Y-07702D02*
X10499Y-07702D01*
X05528Y-08892D02*
X05528Y-08862D01*
X08398Y-02322D02*
X08098Y-02022D01*
X06178Y-09542D02*
X05528Y-08892D01*
X12018Y-03122D02*
X08548Y-03122D01*
G54D31*
X15282Y-02640D02*
X15984Y-02640D01*
G54D33*
X16928Y-02952D02*
X16918Y-02942D01*
X08338Y-03462D02*
X08338Y-03032D01*
X23478Y-08982D02*
X23718Y-08982D01*
X10499Y-07702D02*
X10937Y-07264D01*
X24716Y-06987D02*
X24713Y-06984D01*
G54D31*
X15282Y-03270D02*
X16026Y-03270D01*
G54D33*
X08693Y-04953D02*
X08425Y-05221D01*
X14658Y-01722D02*
X14658Y-01362D01*
G54D31*
X16026Y-03270D02*
X16102Y-03346D01*
G54D33*
X09428Y-07702D02*
X09238Y-07702D01*
X20684Y-03858D02*
X20384Y-03858D01*
X12918Y-03122D02*
X12018Y-03122D01*
X23718Y-08982D02*
X24716Y-07984D01*
X12018Y-03122D02*
X12018Y-02542D01*
X10828Y-09232D02*
X10768Y-09232D01*
X24716Y-06987D02*
X24713Y-06984D01*
X05408Y-01582D02*
X05658Y-01332D01*
X05658Y-01332D02*
X05658Y-00812D01*
X08088Y-03712D02*
X08338Y-03462D01*
X08108Y-09532D02*
X09788Y-09532D01*
X14098Y-03272D02*
X13528Y-03272D01*
G54D31*
X15280Y-03272D02*
X15282Y-03270D01*
G54D33*
X08338Y-03032D02*
X08398Y-02972D01*
X18602Y-06402D02*
X19308Y-06402D01*
X18258Y-06292D02*
X15088Y-06292D01*
X24716Y-07984D02*
X24716Y-06987D01*
X14248Y-02132D02*
X14658Y-01722D01*
X06418Y-07842D02*
X05908Y-07842D01*
X08398Y-02972D02*
X08398Y-02322D01*
X08088Y-07702D02*
X08088Y-08462D01*
X07138Y-07842D02*
X07278Y-07702D01*
X07948Y-07842D02*
X08088Y-07702D01*
G54D31*
X16102Y-03346D02*
X16534Y-03346D01*
G54D33*
X10768Y-09232D02*
X09238Y-07702D01*
G54D31*
X19048Y-02952D02*
X16928Y-02952D01*
G54D33*
X08088Y-07702D02*
X09238Y-07702D01*
X20310Y-02052D02*
X20908Y-02052D01*
X19048Y-02322D02*
X20040Y-02322D01*
X20040Y-02322D02*
X20310Y-02052D01*
X07368Y-06402D02*
X08088Y-06402D01*
X07538Y-04652D02*
X07538Y-05202D01*
X07508Y-06402D02*
X08088Y-06402D01*
X07538Y-04652D02*
X07538Y-03952D01*
X07538Y-03712D02*
X06858Y-03032D01*
X07168Y-06202D02*
X07368Y-06402D01*
X07138Y-06772D02*
X07508Y-06402D01*
X07538Y-03952D02*
X07538Y-03712D01*
X07538Y-05202D02*
X07528Y-05212D01*
X07138Y-07242D02*
X07138Y-06772D01*
X06718Y-04872D02*
X06718Y-04762D01*
X06308Y-04352D02*
X05538Y-04352D01*
X06718Y-04762D02*
X06308Y-04352D01*
X06938Y-03952D02*
X06788Y-03952D01*
X06188Y-03352D02*
X05538Y-03352D01*
X06788Y-03952D02*
X06188Y-03352D01*
X23307Y-06578D02*
X23713Y-06984D01*
X23308Y-06562D02*
X23307Y-06562D01*
X20628Y-05747D02*
X20128Y-05747D01*
X23307Y-06562D02*
X23307Y-06578D01*
X23307Y-06562D02*
X21443Y-06562D01*
X21443Y-06562D02*
X20628Y-05747D01*
X22328Y-04977D02*
X23706Y-04977D01*
X23706Y-04977D02*
X23713Y-04984D01*
X22335Y-04984D02*
X22328Y-04977D01*
X20818Y-04982D02*
X20128Y-04982D01*
X22938Y-06352D02*
X21678Y-06352D01*
X21678Y-06352D02*
X21188Y-05862D01*
X23307Y-05983D02*
X23712Y-05983D01*
X20818Y-04982D02*
X20928Y-05092D01*
X23307Y-05983D02*
X22938Y-06352D01*
X23308Y-05982D02*
X23307Y-05983D01*
X23712Y-05983D02*
X23713Y-05984D01*
X22768Y-06002D02*
X23288Y-05482D01*
X22328Y-06002D02*
X22768Y-06002D01*
X24213Y-05484D02*
X24713Y-05984D01*
X24213Y-05482D02*
X24213Y-05484D01*
X24213Y-05482D02*
X24228Y-05482D01*
X23288Y-05482D02*
X24213Y-05482D01*
X08918Y-06082D02*
X09238Y-06402D01*
X08808Y-05592D02*
X08918Y-05482D01*
X08918Y-05482D02*
X08918Y-06082D01*
X06718Y-05472D02*
X07128Y-05472D01*
X07248Y-05592D02*
X08808Y-05592D01*
X06418Y-07242D02*
X06418Y-05772D01*
X07128Y-05472D02*
X07248Y-05592D01*
X06418Y-05772D02*
X06718Y-05472D01*
X20078Y-00642D02*
X20798Y-00642D01*
X20798Y-00642D02*
X20908Y-00752D01*
G54D32*
X01299Y-03920D02*
X02166Y-03053D01*
X01299Y-05748D02*
X01299Y-03920D01*
G54D33*
X02126Y-07185D02*
X02126Y-06575D01*
G54D32*
X02126Y-06575D02*
X01299Y-05748D01*
G54D33*
X03436Y-03751D02*
X03445Y-03742D01*
X03436Y-04932D02*
X03436Y-03751D01*
X02776Y-07165D02*
X02756Y-07185D01*
X03436Y-04932D02*
X02776Y-05592D01*
X02776Y-05592D02*
X02776Y-07165D01*
X03436Y-04932D02*
X03445Y-04923D01*
G54D32*
X03821Y-02167D02*
X03347Y-02167D01*
X04291Y-02637D02*
X03821Y-02167D01*
X04291Y-02913D02*
X04291Y-02637D01*
X04291Y-05827D02*
X04291Y-02913D01*
G54D33*
X03386Y-06732D02*
X03800Y-06318D01*
G54D32*
X04291Y-02874D02*
X04291Y-02913D01*
X03800Y-06318D02*
X04291Y-05827D01*
G54D33*
X03386Y-07185D02*
X03386Y-06732D01*
X14578Y-03692D02*
X12787Y-03692D01*
X12028Y-01952D02*
X12008Y-01932D01*
X12638Y-02048D02*
X12638Y-02323D01*
X12787Y-03692D02*
X12638Y-03543D01*
X12522Y-01932D02*
X12638Y-02048D01*
X15282Y-03900D02*
X14786Y-03900D01*
X10398Y-01932D02*
X12008Y-01932D01*
X14786Y-03900D02*
X14578Y-03692D01*
X12522Y-01932D02*
X12008Y-01932D01*
X02441Y-04903D02*
X02264Y-04726D01*
X02441Y-07185D02*
X02441Y-04903D01*
X21968Y-02052D02*
X21968Y-01752D01*
X19058Y-02022D02*
X19048Y-02012D01*
X21728Y-01512D02*
X21968Y-01752D01*
X19828Y-02022D02*
X19058Y-02022D01*
X20338Y-01512D02*
X21728Y-01512D01*
X20338Y-01512D02*
X19828Y-02022D01*
X21838Y-01312D02*
X21968Y-01182D01*
X21968Y-01182D02*
X21968Y-00752D01*
X20078Y-01212D02*
X20248Y-01212D01*
X20348Y-01312D02*
X21838Y-01312D01*
X20248Y-01212D02*
X20348Y-01312D01*
X14358Y-03912D02*
X12208Y-03912D01*
X10658Y-03672D02*
X11968Y-03672D01*
X12208Y-03912D02*
X12018Y-03722D01*
X11968Y-03672D02*
X12018Y-03722D01*
X15282Y-04215D02*
X14661Y-04215D01*
X14661Y-04215D02*
X14358Y-03912D01*
X10398Y-03932D02*
X10658Y-03672D01*
G54D32*
X22938Y-04213D02*
X22835Y-04213D01*
X22835Y-04213D02*
X22338Y-03716D01*
G54D33*
X22328Y-04467D02*
X22328Y-03882D01*
X22328Y-03882D02*
X22338Y-03872D01*
X22338Y-03872D02*
X22328Y-03882D01*
G54D32*
X22338Y-03872D02*
X22338Y-03716D01*
X22338Y-03716D02*
X22338Y-03222D01*
X22338Y-03222D02*
X22138Y-03022D01*
G54D33*
X22328Y-03882D02*
X22338Y-03872D01*
G54D32*
X24557Y-04242D02*
X24713Y-04398D01*
X22938Y-04242D02*
X22938Y-04213D01*
X22938Y-04213D02*
X22938Y-04212D01*
G54D33*
X22928Y-04242D02*
X22938Y-04242D01*
G54D32*
X22938Y-04242D02*
X24557Y-04242D01*
X24713Y-04398D02*
X24713Y-04984D01*
G54D10*
G36*
X10528Y-04942D02*
X10278Y-05192D01*
X09857Y-05192D01*
X09854Y-05184D01*
X09784Y-05114D01*
X09693Y-05076D01*
X09594Y-05076D01*
X09344Y-05076D01*
X09252Y-05114D01*
X09218Y-05148D01*
X09184Y-05114D01*
X09093Y-05076D01*
X08994Y-05076D01*
X08744Y-05076D01*
X08652Y-05114D01*
X08582Y-05184D01*
X08544Y-05275D01*
X08544Y-05302D01*
X07930Y-05302D01*
X07934Y-05293D01*
X07934Y-05132D01*
X07890Y-05027D01*
X07963Y-05058D01*
X08062Y-05058D01*
X08312Y-05058D01*
X08404Y-05020D01*
X08474Y-04950D01*
X08477Y-04942D01*
X10528Y-04942D01*
X10528Y-04942D01*
G37*
G54D34*
X10528Y-04942D02*
X10278Y-05192D01*
X09857Y-05192D01*
X09854Y-05184D01*
X09784Y-05114D01*
X09693Y-05076D01*
X09594Y-05076D01*
X09344Y-05076D01*
X09252Y-05114D01*
X09218Y-05148D01*
X09184Y-05114D01*
X09093Y-05076D01*
X08994Y-05076D01*
X08744Y-05076D01*
X08652Y-05114D01*
X08582Y-05184D01*
X08544Y-05275D01*
X08544Y-05302D01*
X07930Y-05302D01*
X07934Y-05293D01*
X07934Y-05132D01*
X07890Y-05027D01*
X07963Y-05058D01*
X08062Y-05058D01*
X08312Y-05058D01*
X08404Y-05020D01*
X08474Y-04950D01*
X08477Y-04942D01*
X10528Y-04942D01*
G54D10*
G36*
X11653Y-05543D02*
X11629Y-05543D01*
X11537Y-05581D01*
X11467Y-05651D01*
X11429Y-05742D01*
X11429Y-05841D01*
X11429Y-06441D01*
X11436Y-06459D01*
X11348Y-06518D01*
X11278Y-06624D01*
X11253Y-06748D01*
X11253Y-08431D01*
X10993Y-08328D01*
X10635Y-08333D01*
X10329Y-08461D01*
X10259Y-08592D01*
X10793Y-09126D01*
X10828Y-09161D01*
X10899Y-09232D01*
X10828Y-09303D01*
X10793Y-09338D01*
X10757Y-09374D01*
X10757Y-09232D01*
X10188Y-08663D01*
X10057Y-08733D01*
X09924Y-09067D01*
X09929Y-09425D01*
X10057Y-09731D01*
X10188Y-09801D01*
X10757Y-09232D01*
X10757Y-09374D01*
X10259Y-09872D01*
X10272Y-09897D01*
X09888Y-09897D01*
X09888Y-07814D01*
X09888Y-07590D01*
X09887Y-07353D01*
X09849Y-07261D01*
X09779Y-07191D01*
X09688Y-07153D01*
X09589Y-07153D01*
X09350Y-07152D01*
X09288Y-07214D01*
X09288Y-07652D01*
X09826Y-07652D01*
X09888Y-07590D01*
X09888Y-07814D01*
X09826Y-07752D01*
X09288Y-07752D01*
X09288Y-08190D01*
X09350Y-08252D01*
X09589Y-08251D01*
X09688Y-08251D01*
X09779Y-08213D01*
X09849Y-08143D01*
X09887Y-08051D01*
X09888Y-07814D01*
X09888Y-09897D01*
X09188Y-09897D01*
X09188Y-08190D01*
X09188Y-07752D01*
X09188Y-07652D01*
X09188Y-07214D01*
X09126Y-07152D01*
X08887Y-07153D01*
X08788Y-07153D01*
X08697Y-07191D01*
X08663Y-07225D01*
X08629Y-07191D01*
X08538Y-07153D01*
X08439Y-07153D01*
X08200Y-07152D01*
X08138Y-07214D01*
X08138Y-07652D01*
X08650Y-07652D01*
X08676Y-07652D01*
X09188Y-07652D01*
X09188Y-07752D01*
X08676Y-07752D01*
X08650Y-07752D01*
X08138Y-07752D01*
X08138Y-08190D01*
X08200Y-08252D01*
X08439Y-08251D01*
X08538Y-08251D01*
X08629Y-08213D01*
X08663Y-08179D01*
X08697Y-08213D01*
X08788Y-08251D01*
X08887Y-08251D01*
X09126Y-08252D01*
X09188Y-08190D01*
X09188Y-09897D01*
X07088Y-09897D01*
X07088Y-08155D01*
X07088Y-07892D01*
X06793Y-07892D01*
X06778Y-07907D01*
X06763Y-07892D01*
X06468Y-07892D01*
X06468Y-08155D01*
X06529Y-08216D01*
X06625Y-08216D01*
X06716Y-08178D01*
X06778Y-08116D01*
X06840Y-08178D01*
X06931Y-08216D01*
X07027Y-08216D01*
X07088Y-08155D01*
X07088Y-09897D01*
X06368Y-09897D01*
X06368Y-08155D01*
X06368Y-07892D01*
X06073Y-07892D01*
X06011Y-07954D01*
X06012Y-08016D01*
X06050Y-08108D01*
X06120Y-08178D01*
X06211Y-08216D01*
X06307Y-08216D01*
X06368Y-08155D01*
X06368Y-09897D01*
X05846Y-09897D01*
X05846Y-05730D01*
X05538Y-05423D01*
X05467Y-05493D01*
X05467Y-05352D01*
X05160Y-05044D01*
X05066Y-05071D01*
X04995Y-05273D01*
X05006Y-05486D01*
X05066Y-05633D01*
X05160Y-05660D01*
X05467Y-05352D01*
X05467Y-05493D01*
X05230Y-05730D01*
X05257Y-05824D01*
X05459Y-05895D01*
X05672Y-05884D01*
X05819Y-05824D01*
X05846Y-05730D01*
X05846Y-09897D01*
X05448Y-09897D01*
X05130Y-09578D01*
X05130Y-08809D01*
X05092Y-08717D01*
X05022Y-08647D01*
X04931Y-08609D01*
X04832Y-08609D01*
X04778Y-08609D01*
X04778Y-07926D01*
X04950Y-07926D01*
X05042Y-07888D01*
X05112Y-07818D01*
X05150Y-07727D01*
X05150Y-07628D01*
X05150Y-06644D01*
X05112Y-06552D01*
X05042Y-06482D01*
X04951Y-06444D01*
X04852Y-06444D01*
X04778Y-06444D01*
X04778Y-00775D01*
X04836Y-00745D01*
X05038Y-00557D01*
X06997Y-00557D01*
X06575Y-00979D01*
X06488Y-01109D01*
X06458Y-01262D01*
X06458Y-02032D01*
X06087Y-02032D01*
X06087Y-02003D01*
X06049Y-01911D01*
X05979Y-01841D01*
X05888Y-01803D01*
X05789Y-01803D01*
X05189Y-01803D01*
X05097Y-01841D01*
X05027Y-01911D01*
X04989Y-02002D01*
X04989Y-02101D01*
X04989Y-02701D01*
X05027Y-02793D01*
X05097Y-02863D01*
X05188Y-02901D01*
X05213Y-02901D01*
X05073Y-03041D01*
X04989Y-03243D01*
X04989Y-03461D01*
X05073Y-03663D01*
X05227Y-03817D01*
X05311Y-03852D01*
X05227Y-03887D01*
X05073Y-04041D01*
X04989Y-04243D01*
X04989Y-04461D01*
X05073Y-04663D01*
X05227Y-04817D01*
X05318Y-04854D01*
X05257Y-04880D01*
X05230Y-04974D01*
X05538Y-05281D01*
X05846Y-04974D01*
X05819Y-04880D01*
X05753Y-04856D01*
X05849Y-04817D01*
X06003Y-04663D01*
X06011Y-04642D01*
X06188Y-04642D01*
X06312Y-04766D01*
X06312Y-04796D01*
X06312Y-05046D01*
X06350Y-05138D01*
X06384Y-05172D01*
X06350Y-05206D01*
X06312Y-05297D01*
X06312Y-05396D01*
X06312Y-05468D01*
X06213Y-05567D01*
X06150Y-05661D01*
X06128Y-05772D01*
X06128Y-06902D01*
X06120Y-06906D01*
X06081Y-06945D01*
X06081Y-05431D01*
X06070Y-05218D01*
X06010Y-05071D01*
X05916Y-05044D01*
X05609Y-05352D01*
X05916Y-05660D01*
X06010Y-05633D01*
X06081Y-05431D01*
X06081Y-06945D01*
X06050Y-06976D01*
X06012Y-07067D01*
X06012Y-07166D01*
X06012Y-07416D01*
X06050Y-07508D01*
X06084Y-07542D01*
X06050Y-07576D01*
X06012Y-07668D01*
X06011Y-07730D01*
X06073Y-07792D01*
X06318Y-07792D01*
X06368Y-07792D01*
X06468Y-07792D01*
X06518Y-07792D01*
X06763Y-07792D01*
X06778Y-07777D01*
X06793Y-07792D01*
X07038Y-07792D01*
X07088Y-07792D01*
X07188Y-07792D01*
X07188Y-07892D01*
X07188Y-07942D01*
X07188Y-08155D01*
X07249Y-08216D01*
X07345Y-08216D01*
X07436Y-08178D01*
X07475Y-08138D01*
X07477Y-08143D01*
X07547Y-08213D01*
X07638Y-08251D01*
X07737Y-08251D01*
X07976Y-08252D01*
X08038Y-08190D01*
X08038Y-07802D01*
X08038Y-07752D01*
X08038Y-07652D01*
X08038Y-07602D01*
X08038Y-07214D01*
X07976Y-07152D01*
X07737Y-07153D01*
X07638Y-07153D01*
X07547Y-07191D01*
X07544Y-07194D01*
X07544Y-07068D01*
X07506Y-06976D01*
X07436Y-06906D01*
X07428Y-06902D01*
X07428Y-06892D01*
X07477Y-06843D01*
X07547Y-06913D01*
X07638Y-06951D01*
X07737Y-06951D01*
X08537Y-06951D01*
X08629Y-06913D01*
X08663Y-06879D01*
X08697Y-06913D01*
X08788Y-06951D01*
X08887Y-06951D01*
X09687Y-06951D01*
X09779Y-06913D01*
X09849Y-06843D01*
X09887Y-06752D01*
X09887Y-06653D01*
X09887Y-06053D01*
X09849Y-05961D01*
X09779Y-05891D01*
X09732Y-05871D01*
X09784Y-05850D01*
X09854Y-05780D01*
X09857Y-05772D01*
X10398Y-05772D01*
X10509Y-05750D01*
X10603Y-05687D01*
X11598Y-04692D01*
X11602Y-04692D01*
X11513Y-04781D01*
X11429Y-04983D01*
X11429Y-05201D01*
X11513Y-05403D01*
X11653Y-05543D01*
X11653Y-05543D01*
G37*
G54D34*
X11653Y-05543D02*
X11629Y-05543D01*
X11537Y-05581D01*
X11467Y-05651D01*
X11429Y-05742D01*
X11429Y-05841D01*
X11429Y-06441D01*
X11436Y-06459D01*
X11348Y-06518D01*
X11278Y-06624D01*
X11253Y-06748D01*
X11253Y-08431D01*
X10993Y-08328D01*
X10635Y-08333D01*
X10329Y-08461D01*
X10259Y-08592D01*
X10793Y-09126D01*
X10828Y-09161D01*
X10899Y-09232D01*
X10828Y-09303D01*
X10793Y-09338D01*
X10757Y-09374D01*
X10757Y-09232D01*
X10188Y-08663D01*
X10057Y-08733D01*
X09924Y-09067D01*
X09929Y-09425D01*
X10057Y-09731D01*
X10188Y-09801D01*
X10757Y-09232D01*
X10757Y-09374D01*
X10259Y-09872D01*
X10272Y-09897D01*
X09888Y-09897D01*
X09888Y-07814D01*
X09888Y-07590D01*
X09887Y-07353D01*
X09849Y-07261D01*
X09779Y-07191D01*
X09688Y-07153D01*
X09589Y-07153D01*
X09350Y-07152D01*
X09288Y-07214D01*
X09288Y-07652D01*
X09826Y-07652D01*
X09888Y-07590D01*
X09888Y-07814D01*
X09826Y-07752D01*
X09288Y-07752D01*
X09288Y-08190D01*
X09350Y-08252D01*
X09589Y-08251D01*
X09688Y-08251D01*
X09779Y-08213D01*
X09849Y-08143D01*
X09887Y-08051D01*
X09888Y-07814D01*
X09888Y-09897D01*
X09188Y-09897D01*
X09188Y-08190D01*
X09188Y-07752D01*
X09188Y-07652D01*
X09188Y-07214D01*
X09126Y-07152D01*
X08887Y-07153D01*
X08788Y-07153D01*
X08697Y-07191D01*
X08663Y-07225D01*
X08629Y-07191D01*
X08538Y-07153D01*
X08439Y-07153D01*
X08200Y-07152D01*
X08138Y-07214D01*
X08138Y-07652D01*
X08650Y-07652D01*
X08676Y-07652D01*
X09188Y-07652D01*
X09188Y-07752D01*
X08676Y-07752D01*
X08650Y-07752D01*
X08138Y-07752D01*
X08138Y-08190D01*
X08200Y-08252D01*
X08439Y-08251D01*
X08538Y-08251D01*
X08629Y-08213D01*
X08663Y-08179D01*
X08697Y-08213D01*
X08788Y-08251D01*
X08887Y-08251D01*
X09126Y-08252D01*
X09188Y-08190D01*
X09188Y-09897D01*
X07088Y-09897D01*
X07088Y-08155D01*
X07088Y-07892D01*
X06793Y-07892D01*
X06778Y-07907D01*
X06763Y-07892D01*
X06468Y-07892D01*
X06468Y-08155D01*
X06529Y-08216D01*
X06625Y-08216D01*
X06716Y-08178D01*
X06778Y-08116D01*
X06840Y-08178D01*
X06931Y-08216D01*
X07027Y-08216D01*
X07088Y-08155D01*
X07088Y-09897D01*
X06368Y-09897D01*
X06368Y-08155D01*
X06368Y-07892D01*
X06073Y-07892D01*
X06011Y-07954D01*
X06012Y-08016D01*
X06050Y-08108D01*
X06120Y-08178D01*
X06211Y-08216D01*
X06307Y-08216D01*
X06368Y-08155D01*
X06368Y-09897D01*
X05846Y-09897D01*
X05846Y-05730D01*
X05538Y-05423D01*
X05467Y-05493D01*
X05467Y-05352D01*
X05160Y-05044D01*
X05066Y-05071D01*
X04995Y-05273D01*
X05006Y-05486D01*
X05066Y-05633D01*
X05160Y-05660D01*
X05467Y-05352D01*
X05467Y-05493D01*
X05230Y-05730D01*
X05257Y-05824D01*
X05459Y-05895D01*
X05672Y-05884D01*
X05819Y-05824D01*
X05846Y-05730D01*
X05846Y-09897D01*
X05448Y-09897D01*
X05130Y-09578D01*
X05130Y-08809D01*
X05092Y-08717D01*
X05022Y-08647D01*
X04931Y-08609D01*
X04832Y-08609D01*
X04778Y-08609D01*
X04778Y-07926D01*
X04950Y-07926D01*
X05042Y-07888D01*
X05112Y-07818D01*
X05150Y-07727D01*
X05150Y-07628D01*
X05150Y-06644D01*
X05112Y-06552D01*
X05042Y-06482D01*
X04951Y-06444D01*
X04852Y-06444D01*
X04778Y-06444D01*
X04778Y-00775D01*
X04836Y-00745D01*
X05038Y-00557D01*
X06997Y-00557D01*
X06575Y-00979D01*
X06488Y-01109D01*
X06458Y-01262D01*
X06458Y-02032D01*
X06087Y-02032D01*
X06087Y-02003D01*
X06049Y-01911D01*
X05979Y-01841D01*
X05888Y-01803D01*
X05789Y-01803D01*
X05189Y-01803D01*
X05097Y-01841D01*
X05027Y-01911D01*
X04989Y-02002D01*
X04989Y-02101D01*
X04989Y-02701D01*
X05027Y-02793D01*
X05097Y-02863D01*
X05188Y-02901D01*
X05213Y-02901D01*
X05073Y-03041D01*
X04989Y-03243D01*
X04989Y-03461D01*
X05073Y-03663D01*
X05227Y-03817D01*
X05311Y-03852D01*
X05227Y-03887D01*
X05073Y-04041D01*
X04989Y-04243D01*
X04989Y-04461D01*
X05073Y-04663D01*
X05227Y-04817D01*
X05318Y-04854D01*
X05257Y-04880D01*
X05230Y-04974D01*
X05538Y-05281D01*
X05846Y-04974D01*
X05819Y-04880D01*
X05753Y-04856D01*
X05849Y-04817D01*
X06003Y-04663D01*
X06011Y-04642D01*
X06188Y-04642D01*
X06312Y-04766D01*
X06312Y-04796D01*
X06312Y-05046D01*
X06350Y-05138D01*
X06384Y-05172D01*
X06350Y-05206D01*
X06312Y-05297D01*
X06312Y-05396D01*
X06312Y-05468D01*
X06213Y-05567D01*
X06150Y-05661D01*
X06128Y-05772D01*
X06128Y-06902D01*
X06120Y-06906D01*
X06081Y-06945D01*
X06081Y-05431D01*
X06070Y-05218D01*
X06010Y-05071D01*
X05916Y-05044D01*
X05609Y-05352D01*
X05916Y-05660D01*
X06010Y-05633D01*
X06081Y-05431D01*
X06081Y-06945D01*
X06050Y-06976D01*
X06012Y-07067D01*
X06012Y-07166D01*
X06012Y-07416D01*
X06050Y-07508D01*
X06084Y-07542D01*
X06050Y-07576D01*
X06012Y-07668D01*
X06011Y-07730D01*
X06073Y-07792D01*
X06318Y-07792D01*
X06368Y-07792D01*
X06468Y-07792D01*
X06518Y-07792D01*
X06763Y-07792D01*
X06778Y-07777D01*
X06793Y-07792D01*
X07038Y-07792D01*
X07088Y-07792D01*
X07188Y-07792D01*
X07188Y-07892D01*
X07188Y-07942D01*
X07188Y-08155D01*
X07249Y-08216D01*
X07345Y-08216D01*
X07436Y-08178D01*
X07475Y-08138D01*
X07477Y-08143D01*
X07547Y-08213D01*
X07638Y-08251D01*
X07737Y-08251D01*
X07976Y-08252D01*
X08038Y-08190D01*
X08038Y-07802D01*
X08038Y-07752D01*
X08038Y-07652D01*
X08038Y-07602D01*
X08038Y-07214D01*
X07976Y-07152D01*
X07737Y-07153D01*
X07638Y-07153D01*
X07547Y-07191D01*
X07544Y-07194D01*
X07544Y-07068D01*
X07506Y-06976D01*
X07436Y-06906D01*
X07428Y-06902D01*
X07428Y-06892D01*
X07477Y-06843D01*
X07547Y-06913D01*
X07638Y-06951D01*
X07737Y-06951D01*
X08537Y-06951D01*
X08629Y-06913D01*
X08663Y-06879D01*
X08697Y-06913D01*
X08788Y-06951D01*
X08887Y-06951D01*
X09687Y-06951D01*
X09779Y-06913D01*
X09849Y-06843D01*
X09887Y-06752D01*
X09887Y-06653D01*
X09887Y-06053D01*
X09849Y-05961D01*
X09779Y-05891D01*
X09732Y-05871D01*
X09784Y-05850D01*
X09854Y-05780D01*
X09857Y-05772D01*
X10398Y-05772D01*
X10509Y-05750D01*
X10603Y-05687D01*
X11598Y-04692D01*
X11602Y-04692D01*
X11513Y-04781D01*
X11429Y-04983D01*
X11429Y-05201D01*
X11513Y-05403D01*
X11653Y-05543D01*
G54D10*
G36*
X14049Y-05092D02*
X13978Y-05163D01*
X13907Y-05092D01*
X13872Y-05057D01*
X13600Y-04784D01*
X13506Y-04811D01*
X13482Y-04876D01*
X13443Y-04781D01*
X13354Y-04692D01*
X13676Y-04692D01*
X13670Y-04714D01*
X13943Y-04986D01*
X13978Y-05021D01*
X14049Y-05092D01*
X14049Y-05092D01*
G37*
G54D34*
X14049Y-05092D02*
X13978Y-05163D01*
X13907Y-05092D01*
X13872Y-05057D01*
X13600Y-04784D01*
X13506Y-04811D01*
X13482Y-04876D01*
X13443Y-04781D01*
X13354Y-04692D01*
X13676Y-04692D01*
X13670Y-04714D01*
X13943Y-04986D01*
X13978Y-05021D01*
X14049Y-05092D01*
G54D10*
G36*
X14645Y-03370D02*
X14640Y-03375D01*
X14640Y-03408D01*
X14642Y-03414D01*
X14578Y-03402D01*
X14504Y-03402D01*
X14505Y-03384D01*
X14443Y-03322D01*
X14198Y-03322D01*
X14148Y-03322D01*
X14048Y-03322D01*
X13998Y-03322D01*
X13753Y-03322D01*
X13691Y-03384D01*
X13691Y-03402D01*
X13018Y-03402D01*
X12982Y-03314D01*
X12869Y-03199D01*
X12719Y-03137D01*
X12558Y-03137D01*
X12409Y-03199D01*
X12399Y-03208D01*
X12363Y-03172D01*
X12118Y-03172D01*
X12068Y-03172D01*
X11968Y-03172D01*
X11968Y-03072D01*
X11968Y-02809D01*
X11958Y-02799D01*
X11958Y-02582D01*
X11663Y-02582D01*
X11601Y-02644D01*
X11602Y-02706D01*
X11640Y-02798D01*
X11674Y-02832D01*
X11650Y-02856D01*
X11612Y-02948D01*
X11611Y-03010D01*
X11673Y-03072D01*
X11968Y-03072D01*
X11968Y-03172D01*
X11918Y-03172D01*
X11673Y-03172D01*
X11611Y-03234D01*
X11612Y-03296D01*
X11647Y-03382D01*
X10658Y-03382D01*
X10564Y-03400D01*
X10546Y-03404D01*
X10532Y-03413D01*
X10531Y-03413D01*
X10504Y-03402D01*
X10293Y-03402D01*
X10098Y-03483D01*
X09949Y-03631D01*
X09868Y-03826D01*
X09868Y-04037D01*
X09949Y-04232D01*
X10078Y-04362D01*
X08848Y-04362D01*
X08848Y-02134D01*
X08848Y-01910D01*
X08847Y-01723D01*
X08809Y-01631D01*
X08739Y-01561D01*
X08648Y-01523D01*
X08549Y-01523D01*
X08210Y-01522D01*
X08148Y-01584D01*
X08148Y-01972D01*
X08786Y-01972D01*
X08848Y-01910D01*
X08848Y-02134D01*
X08786Y-02072D01*
X08148Y-02072D01*
X08148Y-02460D01*
X08210Y-02522D01*
X08549Y-02521D01*
X08648Y-02521D01*
X08739Y-02483D01*
X08809Y-02413D01*
X08847Y-02321D01*
X08848Y-02134D01*
X08848Y-04362D01*
X08772Y-04362D01*
X08772Y-03179D01*
X08772Y-03083D01*
X08772Y-02861D01*
X08772Y-02765D01*
X08734Y-02674D01*
X08664Y-02604D01*
X08572Y-02566D01*
X08510Y-02565D01*
X08448Y-02627D01*
X08448Y-02922D01*
X08711Y-02922D01*
X08772Y-02861D01*
X08772Y-03083D01*
X08711Y-03022D01*
X08448Y-03022D01*
X08448Y-03317D01*
X08510Y-03379D01*
X08572Y-03378D01*
X08664Y-03340D01*
X08734Y-03270D01*
X08772Y-03179D01*
X08772Y-04362D01*
X08477Y-04362D01*
X08474Y-04354D01*
X08404Y-04284D01*
X08313Y-04246D01*
X08214Y-04246D01*
X07964Y-04246D01*
X07872Y-04284D01*
X07838Y-04318D01*
X07828Y-04308D01*
X07828Y-04296D01*
X07874Y-04250D01*
X07912Y-04159D01*
X07912Y-04060D01*
X07912Y-03746D01*
X07874Y-03654D01*
X07804Y-03584D01*
X07791Y-03578D01*
X07790Y-03578D01*
X07743Y-03507D01*
X07743Y-03506D01*
X07608Y-03372D01*
X07623Y-03378D01*
X07722Y-03378D01*
X07972Y-03378D01*
X08064Y-03340D01*
X08098Y-03306D01*
X08132Y-03340D01*
X08224Y-03378D01*
X08286Y-03379D01*
X08348Y-03317D01*
X08348Y-03072D01*
X08348Y-03022D01*
X08348Y-02922D01*
X08348Y-02872D01*
X08348Y-02627D01*
X08286Y-02565D01*
X08224Y-02566D01*
X08132Y-02604D01*
X08098Y-02638D01*
X08064Y-02604D01*
X07973Y-02566D01*
X07937Y-02566D01*
X07893Y-02521D01*
X07986Y-02522D01*
X08048Y-02460D01*
X08048Y-02072D01*
X08048Y-01972D01*
X08048Y-01584D01*
X07986Y-01522D01*
X07647Y-01523D01*
X07548Y-01523D01*
X07457Y-01561D01*
X07387Y-01631D01*
X07349Y-01723D01*
X07348Y-01910D01*
X07410Y-01972D01*
X08048Y-01972D01*
X08048Y-02072D01*
X07410Y-02072D01*
X07408Y-02073D01*
X07391Y-02062D01*
X07258Y-02035D01*
X07258Y-01428D01*
X07430Y-01256D01*
X07457Y-01283D01*
X07548Y-01321D01*
X07647Y-01321D01*
X08647Y-01321D01*
X08739Y-01283D01*
X08800Y-01222D01*
X11553Y-01222D01*
X11553Y-01386D01*
X11617Y-01542D01*
X11690Y-01615D01*
X11664Y-01642D01*
X10851Y-01642D01*
X10847Y-01632D01*
X10699Y-01483D01*
X10504Y-01402D01*
X10293Y-01402D01*
X10098Y-01483D01*
X09949Y-01631D01*
X09868Y-01826D01*
X09868Y-02037D01*
X09949Y-02232D01*
X10097Y-02381D01*
X10292Y-02462D01*
X10503Y-02462D01*
X10698Y-02381D01*
X10847Y-02233D01*
X10851Y-02222D01*
X11664Y-02222D01*
X11674Y-02232D01*
X11640Y-02266D01*
X11602Y-02358D01*
X11601Y-02420D01*
X11663Y-02482D01*
X11908Y-02482D01*
X11958Y-02482D01*
X12058Y-02482D01*
X12058Y-02582D01*
X12058Y-02632D01*
X12058Y-02845D01*
X12068Y-02855D01*
X12068Y-03072D01*
X12363Y-03072D01*
X12425Y-03010D01*
X12424Y-02948D01*
X12386Y-02856D01*
X12352Y-02822D01*
X12376Y-02798D01*
X12414Y-02706D01*
X12414Y-02670D01*
X12557Y-02729D01*
X12718Y-02729D01*
X12867Y-02667D01*
X12942Y-02592D01*
X13254Y-02904D01*
X13360Y-02975D01*
X13361Y-02975D01*
X13486Y-03000D01*
X13736Y-03000D01*
X13730Y-03006D01*
X13692Y-03098D01*
X13691Y-03160D01*
X13753Y-03222D01*
X13998Y-03222D01*
X14048Y-03222D01*
X14148Y-03222D01*
X14198Y-03222D01*
X14443Y-03222D01*
X14454Y-03210D01*
X14525Y-03258D01*
X14526Y-03258D01*
X14639Y-03280D01*
X14639Y-03370D01*
X14645Y-03370D01*
X14645Y-03370D01*
G37*
G54D34*
X14645Y-03370D02*
X14640Y-03375D01*
X14640Y-03408D01*
X14642Y-03414D01*
X14578Y-03402D01*
X14504Y-03402D01*
X14505Y-03384D01*
X14443Y-03322D01*
X14198Y-03322D01*
X14148Y-03322D01*
X14048Y-03322D01*
X13998Y-03322D01*
X13753Y-03322D01*
X13691Y-03384D01*
X13691Y-03402D01*
X13018Y-03402D01*
X12982Y-03314D01*
X12869Y-03199D01*
X12719Y-03137D01*
X12558Y-03137D01*
X12409Y-03199D01*
X12399Y-03208D01*
X12363Y-03172D01*
X12118Y-03172D01*
X12068Y-03172D01*
X11968Y-03172D01*
X11968Y-03072D01*
X11968Y-02809D01*
X11958Y-02799D01*
X11958Y-02582D01*
X11663Y-02582D01*
X11601Y-02644D01*
X11602Y-02706D01*
X11640Y-02798D01*
X11674Y-02832D01*
X11650Y-02856D01*
X11612Y-02948D01*
X11611Y-03010D01*
X11673Y-03072D01*
X11968Y-03072D01*
X11968Y-03172D01*
X11918Y-03172D01*
X11673Y-03172D01*
X11611Y-03234D01*
X11612Y-03296D01*
X11647Y-03382D01*
X10658Y-03382D01*
X10564Y-03400D01*
X10546Y-03404D01*
X10532Y-03413D01*
X10531Y-03413D01*
X10504Y-03402D01*
X10293Y-03402D01*
X10098Y-03483D01*
X09949Y-03631D01*
X09868Y-03826D01*
X09868Y-04037D01*
X09949Y-04232D01*
X10078Y-04362D01*
X08848Y-04362D01*
X08848Y-02134D01*
X08848Y-01910D01*
X08847Y-01723D01*
X08809Y-01631D01*
X08739Y-01561D01*
X08648Y-01523D01*
X08549Y-01523D01*
X08210Y-01522D01*
X08148Y-01584D01*
X08148Y-01972D01*
X08786Y-01972D01*
X08848Y-01910D01*
X08848Y-02134D01*
X08786Y-02072D01*
X08148Y-02072D01*
X08148Y-02460D01*
X08210Y-02522D01*
X08549Y-02521D01*
X08648Y-02521D01*
X08739Y-02483D01*
X08809Y-02413D01*
X08847Y-02321D01*
X08848Y-02134D01*
X08848Y-04362D01*
X08772Y-04362D01*
X08772Y-03179D01*
X08772Y-03083D01*
X08772Y-02861D01*
X08772Y-02765D01*
X08734Y-02674D01*
X08664Y-02604D01*
X08572Y-02566D01*
X08510Y-02565D01*
X08448Y-02627D01*
X08448Y-02922D01*
X08711Y-02922D01*
X08772Y-02861D01*
X08772Y-03083D01*
X08711Y-03022D01*
X08448Y-03022D01*
X08448Y-03317D01*
X08510Y-03379D01*
X08572Y-03378D01*
X08664Y-03340D01*
X08734Y-03270D01*
X08772Y-03179D01*
X08772Y-04362D01*
X08477Y-04362D01*
X08474Y-04354D01*
X08404Y-04284D01*
X08313Y-04246D01*
X08214Y-04246D01*
X07964Y-04246D01*
X07872Y-04284D01*
X07838Y-04318D01*
X07828Y-04308D01*
X07828Y-04296D01*
X07874Y-04250D01*
X07912Y-04159D01*
X07912Y-04060D01*
X07912Y-03746D01*
X07874Y-03654D01*
X07804Y-03584D01*
X07791Y-03578D01*
X07790Y-03578D01*
X07743Y-03507D01*
X07743Y-03506D01*
X07608Y-03372D01*
X07623Y-03378D01*
X07722Y-03378D01*
X07972Y-03378D01*
X08064Y-03340D01*
X08098Y-03306D01*
X08132Y-03340D01*
X08224Y-03378D01*
X08286Y-03379D01*
X08348Y-03317D01*
X08348Y-03072D01*
X08348Y-03022D01*
X08348Y-02922D01*
X08348Y-02872D01*
X08348Y-02627D01*
X08286Y-02565D01*
X08224Y-02566D01*
X08132Y-02604D01*
X08098Y-02638D01*
X08064Y-02604D01*
X07973Y-02566D01*
X07937Y-02566D01*
X07893Y-02521D01*
X07986Y-02522D01*
X08048Y-02460D01*
X08048Y-02072D01*
X08048Y-01972D01*
X08048Y-01584D01*
X07986Y-01522D01*
X07647Y-01523D01*
X07548Y-01523D01*
X07457Y-01561D01*
X07387Y-01631D01*
X07349Y-01723D01*
X07348Y-01910D01*
X07410Y-01972D01*
X08048Y-01972D01*
X08048Y-02072D01*
X07410Y-02072D01*
X07408Y-02073D01*
X07391Y-02062D01*
X07258Y-02035D01*
X07258Y-01428D01*
X07430Y-01256D01*
X07457Y-01283D01*
X07548Y-01321D01*
X07647Y-01321D01*
X08647Y-01321D01*
X08739Y-01283D01*
X08800Y-01222D01*
X11553Y-01222D01*
X11553Y-01386D01*
X11617Y-01542D01*
X11690Y-01615D01*
X11664Y-01642D01*
X10851Y-01642D01*
X10847Y-01632D01*
X10699Y-01483D01*
X10504Y-01402D01*
X10293Y-01402D01*
X10098Y-01483D01*
X09949Y-01631D01*
X09868Y-01826D01*
X09868Y-02037D01*
X09949Y-02232D01*
X10097Y-02381D01*
X10292Y-02462D01*
X10503Y-02462D01*
X10698Y-02381D01*
X10847Y-02233D01*
X10851Y-02222D01*
X11664Y-02222D01*
X11674Y-02232D01*
X11640Y-02266D01*
X11602Y-02358D01*
X11601Y-02420D01*
X11663Y-02482D01*
X11908Y-02482D01*
X11958Y-02482D01*
X12058Y-02482D01*
X12058Y-02582D01*
X12058Y-02632D01*
X12058Y-02845D01*
X12068Y-02855D01*
X12068Y-03072D01*
X12363Y-03072D01*
X12425Y-03010D01*
X12424Y-02948D01*
X12386Y-02856D01*
X12352Y-02822D01*
X12376Y-02798D01*
X12414Y-02706D01*
X12414Y-02670D01*
X12557Y-02729D01*
X12718Y-02729D01*
X12867Y-02667D01*
X12942Y-02592D01*
X13254Y-02904D01*
X13360Y-02975D01*
X13361Y-02975D01*
X13486Y-03000D01*
X13736Y-03000D01*
X13730Y-03006D01*
X13692Y-03098D01*
X13691Y-03160D01*
X13753Y-03222D01*
X13998Y-03222D01*
X14048Y-03222D01*
X14148Y-03222D01*
X14198Y-03222D01*
X14443Y-03222D01*
X14454Y-03210D01*
X14525Y-03258D01*
X14526Y-03258D01*
X14639Y-03280D01*
X14639Y-03370D01*
X14645Y-03370D01*
G54D10*
G36*
X15325Y-06302D02*
X14485Y-06302D01*
X14527Y-06201D01*
X14527Y-06061D01*
X14613Y-06147D01*
X14707Y-06210D01*
X14818Y-06232D01*
X15248Y-06232D01*
X15302Y-06286D01*
X15303Y-06287D01*
X15325Y-06302D01*
X15325Y-06302D01*
G37*
G54D34*
X15325Y-06302D02*
X14485Y-06302D01*
X14527Y-06201D01*
X14527Y-06061D01*
X14613Y-06147D01*
X14707Y-06210D01*
X14818Y-06232D01*
X15248Y-06232D01*
X15302Y-06286D01*
X15303Y-06287D01*
X15325Y-06302D01*
G54D10*
G36*
X15734Y-01676D02*
X15725Y-01673D01*
X15626Y-01673D01*
X14840Y-01673D01*
X14748Y-01711D01*
X14678Y-01781D01*
X14640Y-01872D01*
X14640Y-01971D01*
X14640Y-02147D01*
X14648Y-02167D01*
X14640Y-02187D01*
X14640Y-02286D01*
X14640Y-02462D01*
X14648Y-02482D01*
X14646Y-02486D01*
X14600Y-02440D01*
X14494Y-02369D01*
X14413Y-02353D01*
X14412Y-02352D01*
X14396Y-02336D01*
X14305Y-02298D01*
X14206Y-02298D01*
X13975Y-02298D01*
X13994Y-02253D01*
X13994Y-02112D01*
X13994Y-02108D01*
X14007Y-02043D01*
X14008Y-02042D01*
X14008Y-01966D01*
X14027Y-01946D01*
X14037Y-01956D01*
X14187Y-02018D01*
X14348Y-02018D01*
X14497Y-01956D01*
X14612Y-01843D01*
X14674Y-01693D01*
X14674Y-01532D01*
X14612Y-01383D01*
X14499Y-01268D01*
X14387Y-01222D01*
X15118Y-01222D01*
X15271Y-01192D01*
X15401Y-01105D01*
X15664Y-00842D01*
X15729Y-00842D01*
X15729Y-00878D01*
X15729Y-01664D01*
X15734Y-01676D01*
X15734Y-01676D01*
G37*
G54D34*
X15734Y-01676D02*
X15725Y-01673D01*
X15626Y-01673D01*
X14840Y-01673D01*
X14748Y-01711D01*
X14678Y-01781D01*
X14640Y-01872D01*
X14640Y-01971D01*
X14640Y-02147D01*
X14648Y-02167D01*
X14640Y-02187D01*
X14640Y-02286D01*
X14640Y-02462D01*
X14648Y-02482D01*
X14646Y-02486D01*
X14600Y-02440D01*
X14494Y-02369D01*
X14413Y-02353D01*
X14412Y-02352D01*
X14396Y-02336D01*
X14305Y-02298D01*
X14206Y-02298D01*
X13975Y-02298D01*
X13994Y-02253D01*
X13994Y-02112D01*
X13994Y-02108D01*
X14007Y-02043D01*
X14008Y-02042D01*
X14008Y-01966D01*
X14027Y-01946D01*
X14037Y-01956D01*
X14187Y-02018D01*
X14348Y-02018D01*
X14497Y-01956D01*
X14612Y-01843D01*
X14674Y-01693D01*
X14674Y-01532D01*
X14612Y-01383D01*
X14499Y-01268D01*
X14387Y-01222D01*
X15118Y-01222D01*
X15271Y-01192D01*
X15401Y-01105D01*
X15664Y-00842D01*
X15729Y-00842D01*
X15729Y-00878D01*
X15729Y-01664D01*
X15734Y-01676D01*
G54D10*
G36*
X18552Y-02957D02*
X18514Y-02973D01*
X18491Y-02996D01*
X18467Y-02996D01*
X18406Y-03057D01*
X18406Y-03090D01*
X18415Y-03112D01*
X18406Y-03134D01*
X18406Y-03233D01*
X18406Y-03409D01*
X18413Y-03426D01*
X18406Y-03444D01*
X18406Y-03543D01*
X18406Y-03612D01*
X17682Y-03612D01*
X17591Y-03551D01*
X17480Y-03529D01*
X16517Y-03529D01*
X16393Y-03477D01*
X16347Y-03477D01*
X16248Y-03378D01*
X16388Y-03378D01*
X16537Y-03316D01*
X16652Y-03203D01*
X16714Y-03053D01*
X16714Y-02892D01*
X16652Y-02743D01*
X16539Y-02628D01*
X16389Y-02566D01*
X16228Y-02566D01*
X16081Y-02627D01*
X15925Y-02627D01*
X15925Y-02540D01*
X15919Y-02540D01*
X15924Y-02535D01*
X15924Y-02502D01*
X15915Y-02482D01*
X15924Y-02463D01*
X15924Y-02364D01*
X15924Y-02188D01*
X15915Y-02167D01*
X15924Y-02148D01*
X15924Y-02049D01*
X15924Y-01888D01*
X16833Y-02797D01*
X16927Y-02860D01*
X17032Y-02881D01*
X17087Y-02936D01*
X17237Y-02998D01*
X17398Y-02998D01*
X17547Y-02936D01*
X17662Y-02823D01*
X17724Y-02673D01*
X17724Y-02512D01*
X17662Y-02363D01*
X17549Y-02248D01*
X17412Y-02191D01*
X17424Y-02163D01*
X17424Y-02002D01*
X17366Y-01864D01*
X17463Y-01864D01*
X17482Y-01855D01*
X17502Y-01864D01*
X17601Y-01864D01*
X17608Y-01864D01*
X17552Y-02001D01*
X17552Y-02162D01*
X17614Y-02311D01*
X17727Y-02426D01*
X17877Y-02488D01*
X18038Y-02488D01*
X18187Y-02426D01*
X18302Y-02313D01*
X18364Y-02163D01*
X18364Y-02002D01*
X18306Y-01864D01*
X18407Y-01864D01*
X18410Y-01862D01*
X18406Y-01874D01*
X18406Y-01973D01*
X18406Y-02149D01*
X18413Y-02166D01*
X18406Y-02184D01*
X18406Y-02283D01*
X18406Y-02459D01*
X18415Y-02481D01*
X18406Y-02504D01*
X18406Y-02603D01*
X18406Y-02779D01*
X18413Y-02796D01*
X18406Y-02814D01*
X18406Y-02847D01*
X18467Y-02908D01*
X18481Y-02908D01*
X18514Y-02941D01*
X18552Y-02957D01*
X18552Y-02957D01*
G37*
G54D34*
X18552Y-02957D02*
X18514Y-02973D01*
X18491Y-02996D01*
X18467Y-02996D01*
X18406Y-03057D01*
X18406Y-03090D01*
X18415Y-03112D01*
X18406Y-03134D01*
X18406Y-03233D01*
X18406Y-03409D01*
X18413Y-03426D01*
X18406Y-03444D01*
X18406Y-03543D01*
X18406Y-03612D01*
X17682Y-03612D01*
X17591Y-03551D01*
X17480Y-03529D01*
X16517Y-03529D01*
X16393Y-03477D01*
X16347Y-03477D01*
X16248Y-03378D01*
X16388Y-03378D01*
X16537Y-03316D01*
X16652Y-03203D01*
X16714Y-03053D01*
X16714Y-02892D01*
X16652Y-02743D01*
X16539Y-02628D01*
X16389Y-02566D01*
X16228Y-02566D01*
X16081Y-02627D01*
X15925Y-02627D01*
X15925Y-02540D01*
X15919Y-02540D01*
X15924Y-02535D01*
X15924Y-02502D01*
X15915Y-02482D01*
X15924Y-02463D01*
X15924Y-02364D01*
X15924Y-02188D01*
X15915Y-02167D01*
X15924Y-02148D01*
X15924Y-02049D01*
X15924Y-01888D01*
X16833Y-02797D01*
X16927Y-02860D01*
X17032Y-02881D01*
X17087Y-02936D01*
X17237Y-02998D01*
X17398Y-02998D01*
X17547Y-02936D01*
X17662Y-02823D01*
X17724Y-02673D01*
X17724Y-02512D01*
X17662Y-02363D01*
X17549Y-02248D01*
X17412Y-02191D01*
X17424Y-02163D01*
X17424Y-02002D01*
X17366Y-01864D01*
X17463Y-01864D01*
X17482Y-01855D01*
X17502Y-01864D01*
X17601Y-01864D01*
X17608Y-01864D01*
X17552Y-02001D01*
X17552Y-02162D01*
X17614Y-02311D01*
X17727Y-02426D01*
X17877Y-02488D01*
X18038Y-02488D01*
X18187Y-02426D01*
X18302Y-02313D01*
X18364Y-02163D01*
X18364Y-02002D01*
X18306Y-01864D01*
X18407Y-01864D01*
X18410Y-01862D01*
X18406Y-01874D01*
X18406Y-01973D01*
X18406Y-02149D01*
X18413Y-02166D01*
X18406Y-02184D01*
X18406Y-02283D01*
X18406Y-02459D01*
X18415Y-02481D01*
X18406Y-02504D01*
X18406Y-02603D01*
X18406Y-02779D01*
X18413Y-02796D01*
X18406Y-02814D01*
X18406Y-02847D01*
X18467Y-02908D01*
X18481Y-02908D01*
X18514Y-02941D01*
X18552Y-02957D01*
G54D10*
G36*
X18680Y-06302D02*
X18100Y-06302D01*
X18123Y-06287D01*
X18398Y-06012D01*
X18531Y-06012D01*
X18531Y-06064D01*
X18593Y-06213D01*
X18680Y-06302D01*
X18680Y-06302D01*
G37*
G54D34*
X18680Y-06302D02*
X18100Y-06302D01*
X18123Y-06287D01*
X18398Y-06012D01*
X18531Y-06012D01*
X18531Y-06064D01*
X18593Y-06213D01*
X18680Y-06302D01*
G54D10*
G36*
X19721Y-06302D02*
X19192Y-06302D01*
X19281Y-06215D01*
X19343Y-06065D01*
X19343Y-05904D01*
X19281Y-05755D01*
X19168Y-05640D01*
X19018Y-05578D01*
X18941Y-05578D01*
X18880Y-05517D01*
X18786Y-05454D01*
X18675Y-05432D01*
X18615Y-05432D01*
X18615Y-05346D01*
X18615Y-04979D01*
X19332Y-05697D01*
X19333Y-05697D01*
X19427Y-05760D01*
X19538Y-05782D01*
X19604Y-05782D01*
X19604Y-05868D01*
X19603Y-05898D01*
X19616Y-05911D01*
X19642Y-05973D01*
X19712Y-06043D01*
X19714Y-06044D01*
X19665Y-06044D01*
X19603Y-06106D01*
X19604Y-06136D01*
X19642Y-06228D01*
X19712Y-06298D01*
X19721Y-06302D01*
X19721Y-06302D01*
G37*
G54D34*
X19721Y-06302D02*
X19192Y-06302D01*
X19281Y-06215D01*
X19343Y-06065D01*
X19343Y-05904D01*
X19281Y-05755D01*
X19168Y-05640D01*
X19018Y-05578D01*
X18941Y-05578D01*
X18880Y-05517D01*
X18786Y-05454D01*
X18675Y-05432D01*
X18615Y-05432D01*
X18615Y-05346D01*
X18615Y-04979D01*
X19332Y-05697D01*
X19333Y-05697D01*
X19427Y-05760D01*
X19538Y-05782D01*
X19604Y-05782D01*
X19604Y-05868D01*
X19603Y-05898D01*
X19616Y-05911D01*
X19642Y-05973D01*
X19712Y-06043D01*
X19714Y-06044D01*
X19665Y-06044D01*
X19603Y-06106D01*
X19604Y-06136D01*
X19642Y-06228D01*
X19712Y-06298D01*
X19721Y-06302D01*
G54D10*
G36*
X20340Y-03576D02*
X20310Y-03651D01*
X20310Y-03720D01*
X20209Y-03618D01*
X20059Y-03556D01*
X19898Y-03556D01*
X19749Y-03618D01*
X19690Y-03675D01*
X19690Y-03621D01*
X19690Y-03445D01*
X19682Y-03427D01*
X19690Y-03410D01*
X19690Y-03311D01*
X19690Y-03213D01*
X19735Y-03258D01*
X19891Y-03323D01*
X20060Y-03323D01*
X20120Y-03298D01*
X20196Y-03298D01*
X20203Y-03305D01*
X20289Y-03363D01*
X20289Y-03471D01*
X20327Y-03563D01*
X20340Y-03576D01*
X20340Y-03576D01*
G37*
G54D34*
X20340Y-03576D02*
X20310Y-03651D01*
X20310Y-03720D01*
X20209Y-03618D01*
X20059Y-03556D01*
X19898Y-03556D01*
X19749Y-03618D01*
X19690Y-03675D01*
X19690Y-03621D01*
X19690Y-03445D01*
X19682Y-03427D01*
X19690Y-03410D01*
X19690Y-03311D01*
X19690Y-03213D01*
X19735Y-03258D01*
X19891Y-03323D01*
X20060Y-03323D01*
X20120Y-03298D01*
X20196Y-03298D01*
X20203Y-03305D01*
X20289Y-03363D01*
X20289Y-03471D01*
X20327Y-03563D01*
X20340Y-03576D01*
G54D10*
G36*
X20734Y-03908D02*
X20634Y-03908D01*
X20634Y-03808D01*
X20734Y-03808D01*
X20734Y-03908D01*
X20734Y-03908D01*
G37*
G54D34*
X20734Y-03908D02*
X20634Y-03908D01*
X20634Y-03808D01*
X20734Y-03808D01*
X20734Y-03908D01*
G54D10*
G36*
X24903Y-08597D02*
X24494Y-09006D01*
X24492Y-08771D01*
X24344Y-08414D01*
X24201Y-08329D01*
X24131Y-08399D01*
X23549Y-08982D01*
X23478Y-09053D01*
X23407Y-08982D01*
X23478Y-08911D01*
X23513Y-08876D01*
X24131Y-08259D01*
X24046Y-08116D01*
X23671Y-07964D01*
X23267Y-07968D01*
X22910Y-08116D01*
X22851Y-08214D01*
X22809Y-08172D01*
X22809Y-06852D01*
X23171Y-06852D01*
X23172Y-06853D01*
X23164Y-06875D01*
X23164Y-07093D01*
X23248Y-07295D01*
X23402Y-07449D01*
X23604Y-07533D01*
X23822Y-07533D01*
X24024Y-07449D01*
X24178Y-07295D01*
X24215Y-07203D01*
X24241Y-07265D01*
X24335Y-07292D01*
X24642Y-06984D01*
X24335Y-06676D01*
X24241Y-06703D01*
X24217Y-06768D01*
X24178Y-06673D01*
X24024Y-06519D01*
X23939Y-06484D01*
X24024Y-06449D01*
X24178Y-06295D01*
X24213Y-06210D01*
X24248Y-06295D01*
X24402Y-06449D01*
X24493Y-06486D01*
X24432Y-06512D01*
X24405Y-06606D01*
X24678Y-06878D01*
X24713Y-06913D01*
X24784Y-06984D01*
X24713Y-07055D01*
X24405Y-07362D01*
X24432Y-07456D01*
X24634Y-07527D01*
X24847Y-07516D01*
X24903Y-07493D01*
X24903Y-08597D01*
X24903Y-08597D01*
G37*
G54D34*
X24903Y-08597D02*
X24494Y-09006D01*
X24492Y-08771D01*
X24344Y-08414D01*
X24201Y-08329D01*
X24131Y-08399D01*
X23549Y-08982D01*
X23478Y-09053D01*
X23407Y-08982D01*
X23478Y-08911D01*
X23513Y-08876D01*
X24131Y-08259D01*
X24046Y-08116D01*
X23671Y-07964D01*
X23267Y-07968D01*
X22910Y-08116D01*
X22851Y-08214D01*
X22809Y-08172D01*
X22809Y-06852D01*
X23171Y-06852D01*
X23172Y-06853D01*
X23164Y-06875D01*
X23164Y-07093D01*
X23248Y-07295D01*
X23402Y-07449D01*
X23604Y-07533D01*
X23822Y-07533D01*
X24024Y-07449D01*
X24178Y-07295D01*
X24215Y-07203D01*
X24241Y-07265D01*
X24335Y-07292D01*
X24642Y-06984D01*
X24335Y-06676D01*
X24241Y-06703D01*
X24217Y-06768D01*
X24178Y-06673D01*
X24024Y-06519D01*
X23939Y-06484D01*
X24024Y-06449D01*
X24178Y-06295D01*
X24213Y-06210D01*
X24248Y-06295D01*
X24402Y-06449D01*
X24493Y-06486D01*
X24432Y-06512D01*
X24405Y-06606D01*
X24678Y-06878D01*
X24713Y-06913D01*
X24784Y-06984D01*
X24713Y-07055D01*
X24405Y-07362D01*
X24432Y-07456D01*
X24634Y-07527D01*
X24847Y-07516D01*
X24903Y-07493D01*
X24903Y-08597D01*
M02*
