G04 (created by PCBNEW-RS274X (2011-11-27 BZR 3249)-stable) date 13/09/2012 1:45:44 p.m.*
G01*
G70*
G90*
%MOIN*%
G04 Gerber Fmt 3.4, Leading zero omitted, Abs format*
%FSLAX34Y34*%
G04 APERTURE LIST*
%ADD10C,0.006000*%
%ADD11R,0.075000X0.037000*%
%ADD12C,0.055400*%
%ADD13R,0.098700X0.118400*%
%ADD14R,0.039700X0.110600*%
%ADD15C,0.108600*%
%ADD16C,0.197500*%
%ADD17C,0.173900*%
%ADD18C,0.076000*%
%ADD19R,0.080000X0.080000*%
%ADD20C,0.080000*%
%ADD21R,0.051500X0.045000*%
%ADD22R,0.100000X0.080000*%
%ADD23R,0.080000X0.100000*%
%ADD24R,0.120000X0.070000*%
%ADD25R,0.098700X0.037700*%
%ADD26R,0.037700X0.098700*%
%ADD27R,0.045000X0.051500*%
G04 APERTURE END LIST*
G54D10*
G54D11*
X20128Y-04472D03*
X20128Y-04722D03*
X20128Y-04982D03*
X20128Y-05232D03*
X20128Y-05492D03*
X20128Y-05747D03*
X20128Y-06002D03*
X22328Y-06002D03*
X22328Y-05747D03*
X22328Y-05492D03*
X22328Y-05232D03*
X22328Y-04977D03*
X22328Y-04722D03*
X22328Y-04467D03*
G54D12*
X03622Y-08169D03*
X01890Y-08169D03*
G54D13*
X04488Y-09350D03*
X01004Y-09350D03*
X04508Y-07185D03*
X01004Y-07185D03*
G54D14*
X02756Y-07185D03*
X02441Y-07185D03*
X02126Y-07185D03*
X03071Y-07185D03*
X03386Y-07185D03*
G54D15*
X02166Y-03053D03*
G54D16*
X23478Y-08982D03*
G54D17*
X10828Y-09232D03*
G54D18*
X10398Y-03932D03*
X10398Y-01932D03*
G54D19*
X11978Y-06092D03*
G54D20*
X11978Y-05092D03*
X12978Y-06092D03*
X12978Y-05092D03*
X13978Y-06092D03*
X13978Y-05092D03*
G54D19*
X05538Y-02352D03*
G54D20*
X05538Y-03352D03*
X05538Y-04352D03*
X05538Y-05352D03*
G54D15*
X02264Y-04726D03*
X03445Y-03742D03*
X03347Y-02167D03*
G54D21*
X06418Y-07842D03*
X06418Y-07242D03*
X07138Y-07842D03*
X07138Y-07242D03*
G54D22*
X08088Y-07702D03*
X08088Y-06402D03*
X09238Y-07702D03*
X09238Y-06402D03*
G54D23*
X20838Y-03022D03*
X22138Y-03022D03*
G54D22*
X21968Y-00752D03*
X21968Y-02052D03*
X20908Y-00752D03*
X20908Y-02052D03*
G54D19*
X24713Y-04984D03*
G54D20*
X23713Y-04984D03*
X24713Y-05984D03*
X23713Y-05984D03*
X24713Y-06984D03*
X23713Y-06984D03*
G54D24*
X08098Y-00822D03*
X08098Y-02022D03*
G54D25*
X15282Y-04215D03*
X15282Y-03900D03*
X15282Y-03585D03*
X15282Y-03270D03*
X15282Y-02955D03*
X15282Y-02640D03*
X15282Y-02325D03*
X15282Y-02010D03*
X19048Y-02012D03*
X19048Y-04222D03*
X19048Y-03902D03*
X19048Y-03582D03*
X19048Y-03272D03*
X19048Y-02952D03*
X19048Y-02642D03*
X19048Y-02322D03*
G54D26*
X16066Y-01222D03*
X16380Y-01222D03*
X16696Y-01222D03*
X17010Y-01222D03*
X17326Y-01222D03*
X17640Y-01222D03*
X17956Y-01222D03*
X18270Y-01222D03*
X16068Y-05002D03*
X16378Y-05002D03*
X16698Y-05002D03*
X17008Y-05002D03*
X17318Y-05002D03*
X17638Y-05002D03*
X17958Y-05002D03*
X18278Y-05002D03*
G54D27*
X20078Y-00642D03*
X19478Y-00642D03*
X20078Y-01212D03*
X19478Y-01212D03*
G54D21*
X06718Y-05472D03*
X06718Y-04872D03*
G54D27*
X07538Y-03952D03*
X06938Y-03952D03*
X09518Y-05482D03*
X08918Y-05482D03*
X08138Y-04652D03*
X07538Y-04652D03*
G54D21*
X12018Y-03722D03*
X12018Y-03122D03*
G54D27*
X07798Y-02972D03*
X08398Y-02972D03*
G54D21*
X06858Y-02432D03*
X06858Y-03032D03*
X12008Y-01932D03*
X12008Y-02532D03*
G54D27*
X13118Y-01622D03*
X13718Y-01622D03*
X21284Y-03858D03*
X20684Y-03858D03*
G54D21*
X14098Y-02672D03*
X14098Y-03272D03*
M02*
