G04 (created by PCBNEW-RS274X (2011-11-27 BZR 3249)-stable) date 1/02/2012 11:26:42 p.m.*
G01*
G70*
G90*
%MOIN*%
G04 Gerber Fmt 3.4, Leading zero omitted, Abs format*
%FSLAX34Y34*%
G04 APERTURE LIST*
%ADD10C,0.006000*%
%ADD11C,0.015000*%
%ADD12C,0.173900*%
%ADD13C,0.197500*%
%ADD14C,0.108600*%
%ADD15C,0.076000*%
%ADD16C,0.080000*%
%ADD17R,0.080000X0.080000*%
%ADD18C,0.055400*%
%ADD19C,0.055000*%
%ADD20C,0.051500*%
%ADD21C,0.050000*%
G04 APERTURE END LIST*
G54D10*
G54D11*
X00787Y-10236D02*
X00787Y-00232D01*
X11578Y-06748D02*
X11578Y-10193D01*
X22484Y-06748D02*
X11578Y-06748D01*
X22484Y-09982D02*
X22484Y-06748D01*
X22978Y-00732D02*
X22478Y-00232D01*
X22978Y-03982D02*
X25228Y-03982D01*
X22978Y-00732D02*
X22978Y-03982D01*
X23978Y-09982D02*
X25228Y-08732D01*
X22478Y-09982D02*
X23978Y-09982D01*
X11578Y-10222D02*
X00787Y-10222D01*
X25228Y-03982D02*
X25228Y-08732D01*
X00787Y-00232D02*
X22478Y-00232D01*
%LPC*%
G54D12*
X10828Y-09232D03*
G54D13*
X23478Y-08982D03*
G54D14*
X02166Y-03053D03*
G54D15*
X10398Y-03932D03*
X10398Y-01932D03*
G54D16*
X11978Y-05092D03*
X12978Y-05092D03*
X13978Y-06092D03*
X13978Y-05092D03*
G54D17*
X05538Y-02352D03*
G54D16*
X05538Y-03352D03*
X05538Y-04352D03*
X05538Y-05352D03*
G54D18*
X03622Y-08169D03*
X01890Y-08169D03*
G54D14*
X02264Y-04726D03*
X03445Y-03742D03*
X03347Y-02167D03*
G54D17*
X23728Y-04982D03*
G54D16*
X24728Y-04982D03*
X23728Y-05982D03*
X24728Y-05982D03*
X23728Y-06982D03*
X24728Y-06982D03*
G54D19*
X16308Y-03902D03*
G54D20*
X16308Y-02972D03*
G54D19*
X19976Y-02898D03*
X11978Y-01302D03*
X18878Y-01282D03*
G54D20*
X19978Y-03962D03*
X17958Y-02082D03*
X17318Y-02592D03*
X17328Y-04232D03*
X21654Y-05157D03*
X18937Y-05984D03*
X17788Y-05772D03*
X21668Y-05842D03*
X17018Y-02082D03*
X13588Y-02172D03*
X14268Y-01612D03*
X21178Y-04732D03*
G54D21*
X20758Y-06342D03*
G54D20*
X06558Y-00792D03*
X09788Y-09532D03*
X05528Y-08862D03*
X15078Y-06282D03*
X08088Y-09552D03*
X05518Y-07472D03*
X08088Y-03712D03*
X17758Y-03542D03*
X14248Y-02132D03*
X18258Y-06292D03*
X05658Y-00812D03*
X19488Y-06002D03*
X19978Y-03452D03*
X16928Y-02952D03*
X06178Y-09542D03*
X15598Y-01362D03*
X08088Y-08462D03*
X05408Y-01582D03*
G54D19*
X13528Y-03262D03*
G54D20*
X10937Y-07264D03*
X14658Y-01362D03*
X08425Y-05221D03*
X17488Y-02062D03*
X10236Y-05032D03*
X12638Y-03543D03*
X12638Y-02323D03*
X21188Y-05862D03*
X20928Y-05092D03*
X07528Y-05212D03*
X07168Y-06202D03*
M02*
