M48
;DRILL file {Pcbnew (2011-11-27 BZR 3249)-stable} date 13/09/2012 9:55:47 a.m.
;FORMAT={-:-/ absolute / metric / decimal}
FMAT,2
METRIC,TZ
T1C0.399
T2C0.508
T3C0.762
T4C0.899
T5C1.001
T6C1.016
T7C2.601
T8C3.099
%
G90
G05
M71
T1
X13.736Y-4.018
X14.016Y-18.979
X14.041Y-22.509
X14.371Y-2.062
X15.692Y-24.237
X16.657Y-2.012
X18.207Y-15.753
X19.121Y-13.238
X20.544Y-9.428
X20.544Y-21.493
X20.544Y-24.262
X21.400Y-13.261
X24.862Y-24.211
X25.999Y-12.781
X27.780Y-18.451
X30.424Y-3.307
X32.101Y-5.900
X32.101Y-8.999
X34.361Y-8.285
X34.514Y-5.517
X36.190Y-5.415
X36.241Y-4.094
X37.231Y-3.459
X38.298Y-15.956
X39.619Y-3.459
X41.422Y-7.549
X41.422Y-9.911
X42.997Y-7.498
X43.226Y-5.288
X43.988Y-6.584
X44.013Y-10.749
X44.420Y-5.237
X45.105Y-8.997
X45.182Y-14.661
X45.613Y-5.288
X46.375Y-15.982
X47.950Y-3.256
X48.100Y-15.199
X49.500Y-15.245
X50.739Y-7.361
X50.744Y-8.768
X50.744Y-10.063
X52.725Y-16.109
X53.157Y-12.934
X53.792Y-12.019
X53.818Y-14.889
X55.001Y-13.099
X55.037Y-14.839
T2
X30.424Y-12.934
X32.964Y-12.934
X35.504Y-12.934
X35.504Y-15.474
T3
X26.411Y-4.907
X26.411Y-9.987
T4
X4.801Y-20.749
X9.200Y-20.749
T5
X5.502Y-7.755
X5.751Y-12.004
X8.501Y-5.504
X8.750Y-9.505
X14.067Y-5.974
X14.067Y-8.514
X14.067Y-11.054
X14.067Y-13.594
T6
X60.231Y-12.659
X60.231Y-15.199
X60.231Y-17.739
X62.771Y-12.659
X62.771Y-15.199
X62.771Y-17.739
T7
X27.503Y-23.449
T8
X59.634Y-22.814
T0
M30
