G04 (created by PCBNEW-RS274X (2011-11-27 BZR 3249)-stable) date 22/12/2011 5:08:56 p.m.*
G01*
G70*
G90*
%MOIN*%
G04 Gerber Fmt 3.4, Leading zero omitted, Abs format*
%FSLAX34Y34*%
G04 APERTURE LIST*
%ADD10C,0.006000*%
%ADD11C,0.035400*%
%ADD12R,0.065600X0.098400*%
%ADD13R,0.019700X0.090600*%
%ADD14C,0.088600*%
%ADD15R,0.031500X0.025000*%
%ADD16R,0.080000X0.060000*%
%ADD17R,0.060000X0.080000*%
%ADD18R,0.055000X0.055000*%
%ADD19C,0.055000*%
%ADD20C,0.100000*%
%ADD21R,0.060000X0.060000*%
%ADD22C,0.060000*%
%ADD23C,0.056000*%
%ADD24R,0.100000X0.050000*%
%ADD25R,0.055000X0.017000*%
%ADD26R,0.078700X0.017700*%
%ADD27R,0.017700X0.078700*%
%ADD28R,0.025000X0.031500*%
%ADD29C,0.035000*%
%ADD30C,0.008000*%
%ADD31C,0.030000*%
%ADD32C,0.010000*%
G04 APERTURE END LIST*
G54D10*
G54D11*
X03622Y-08169D03*
X01890Y-08169D03*
G54D12*
X04488Y-09350D03*
X01004Y-09350D03*
X04508Y-07185D03*
X01004Y-07185D03*
G54D13*
X02756Y-07185D03*
X02441Y-07185D03*
X02126Y-07185D03*
X03071Y-07185D03*
X03386Y-07185D03*
G54D14*
X02166Y-03053D03*
X02264Y-04726D03*
X03445Y-03742D03*
X03347Y-02167D03*
G54D15*
X06418Y-07842D03*
X06418Y-07242D03*
X07138Y-07842D03*
X07138Y-07242D03*
G54D16*
X08088Y-07702D03*
X08088Y-06402D03*
X09238Y-07702D03*
X09238Y-06402D03*
G54D17*
X20838Y-03022D03*
X22138Y-03022D03*
G54D16*
X21968Y-00752D03*
X21968Y-02052D03*
X20908Y-00752D03*
X20908Y-02052D03*
G54D18*
X05538Y-02352D03*
G54D19*
X05538Y-03352D03*
X05538Y-04352D03*
X05538Y-05352D03*
G54D20*
X10828Y-09232D03*
X23478Y-08982D03*
G54D21*
X11978Y-06092D03*
G54D22*
X11978Y-05092D03*
X12978Y-06092D03*
X12978Y-05092D03*
X13978Y-06092D03*
X13978Y-05092D03*
G54D21*
X23728Y-04982D03*
G54D22*
X24728Y-04982D03*
X23728Y-05982D03*
X24728Y-05982D03*
X23728Y-06982D03*
X24728Y-06982D03*
G54D23*
X10398Y-03932D03*
X10398Y-01932D03*
G54D24*
X08098Y-00822D03*
X08098Y-02022D03*
G54D25*
X20128Y-04472D03*
X20128Y-04722D03*
X20128Y-04982D03*
X20128Y-05232D03*
X20128Y-05492D03*
X20128Y-05747D03*
X20128Y-06002D03*
X22328Y-06002D03*
X22328Y-05747D03*
X22328Y-05492D03*
X22328Y-05232D03*
X22328Y-04977D03*
X22328Y-04722D03*
X22328Y-04467D03*
G54D26*
X15282Y-04215D03*
X15282Y-03900D03*
X15282Y-03585D03*
X15282Y-03270D03*
X15282Y-02955D03*
X15282Y-02640D03*
X15282Y-02325D03*
X15282Y-02010D03*
X19048Y-02012D03*
X19048Y-04222D03*
X19048Y-03902D03*
X19048Y-03582D03*
X19048Y-03272D03*
X19048Y-02952D03*
X19048Y-02642D03*
X19048Y-02322D03*
G54D27*
X16066Y-01222D03*
X16380Y-01222D03*
X16696Y-01222D03*
X17010Y-01222D03*
X17326Y-01222D03*
X17640Y-01222D03*
X17956Y-01222D03*
X18270Y-01222D03*
X16068Y-05002D03*
X16378Y-05002D03*
X16698Y-05002D03*
X17008Y-05002D03*
X17318Y-05002D03*
X17638Y-05002D03*
X17958Y-05002D03*
X18278Y-05002D03*
G54D28*
X20078Y-00642D03*
X19478Y-00642D03*
X20078Y-01212D03*
X19478Y-01212D03*
G54D15*
X06718Y-05472D03*
X06718Y-04872D03*
G54D28*
X07538Y-03952D03*
X06938Y-03952D03*
X09518Y-05482D03*
X08918Y-05482D03*
X08138Y-04652D03*
X07538Y-04652D03*
G54D15*
X12018Y-03722D03*
X12018Y-03122D03*
G54D28*
X07798Y-02972D03*
X08398Y-02972D03*
G54D15*
X06858Y-02432D03*
X06858Y-03032D03*
X12008Y-01932D03*
X12008Y-02532D03*
G54D28*
X13118Y-01622D03*
X13718Y-01622D03*
X21288Y-03872D03*
X21888Y-03872D03*
G54D15*
X14098Y-02672D03*
X14098Y-03272D03*
G54D29*
X18878Y-01282D03*
X19976Y-02898D03*
X11978Y-01302D03*
X16308Y-03902D03*
X16308Y-02972D03*
X19978Y-03962D03*
X17958Y-02082D03*
X17318Y-02592D03*
X17328Y-04232D03*
X19048Y-06112D03*
X21638Y-05232D03*
X17788Y-05772D03*
X21668Y-05842D03*
X17018Y-02082D03*
X13588Y-02172D03*
X14268Y-01612D03*
X20758Y-06342D03*
X21178Y-04732D03*
X05518Y-07472D03*
X18258Y-06292D03*
X13528Y-03262D03*
X05528Y-08862D03*
X15598Y-01362D03*
X08088Y-08462D03*
X05658Y-00812D03*
X06558Y-00792D03*
X16928Y-02952D03*
X08088Y-03712D03*
X17758Y-03542D03*
X14248Y-02132D03*
X17488Y-02062D03*
X08425Y-05221D03*
X10236Y-05032D03*
X10937Y-07264D03*
X19978Y-03452D03*
X06178Y-09542D03*
X05408Y-01582D03*
X14658Y-01362D03*
X15078Y-06282D03*
X08088Y-09552D03*
X19488Y-06002D03*
X09788Y-09532D03*
X12858Y-03582D03*
X12858Y-02322D03*
X21188Y-05862D03*
X20928Y-05092D03*
X07168Y-06202D03*
X07528Y-05212D03*
G54D30*
X20928Y-00792D02*
X20928Y-00992D01*
X07113Y-07252D02*
X07238Y-07252D01*
X19478Y-01172D02*
X19478Y-01282D01*
X19478Y-01172D02*
X19478Y-01262D01*
X20898Y-02322D02*
X20928Y-02292D01*
G54D31*
X18868Y-00442D02*
X18868Y-01272D01*
X18868Y-01272D02*
X18878Y-01282D01*
X20486Y-03022D02*
X20838Y-03022D01*
X20362Y-02898D02*
X20486Y-03022D01*
X19976Y-02898D02*
X20362Y-02898D01*
X08098Y-00822D02*
X11978Y-00822D01*
G54D30*
X16308Y-03902D02*
X19048Y-03902D01*
G54D31*
X05618Y-02432D02*
X05538Y-02352D01*
X06858Y-02432D02*
X05618Y-02432D01*
G54D30*
X14651Y-02955D02*
X15282Y-02955D01*
X15991Y-03585D02*
X16308Y-03902D01*
X15282Y-03585D02*
X15991Y-03585D01*
G54D31*
X11978Y-00822D02*
X11978Y-01302D01*
X19478Y-00942D02*
X19478Y-00642D01*
X11978Y-00822D02*
X15118Y-00822D01*
X15118Y-00822D02*
X15498Y-00442D01*
X15498Y-00442D02*
X18868Y-00442D01*
X18868Y-00442D02*
X19278Y-00442D01*
X19278Y-00442D02*
X19478Y-00642D01*
X07238Y-02432D02*
X06858Y-02432D01*
X07798Y-02972D02*
X07778Y-02972D01*
X07778Y-02972D02*
X07238Y-02432D01*
X19478Y-01212D02*
X19478Y-00942D01*
G54D30*
X12298Y-01622D02*
X11978Y-01302D01*
X14098Y-02672D02*
X13328Y-02672D01*
G54D31*
X06858Y-02432D02*
X06858Y-01262D01*
X07298Y-00822D02*
X08098Y-00822D01*
X06858Y-01262D02*
X07298Y-00822D01*
G54D30*
X13328Y-02672D02*
X13118Y-02462D01*
X14368Y-02672D02*
X14651Y-02955D01*
X14098Y-02672D02*
X14368Y-02672D01*
X16291Y-02955D02*
X16308Y-02972D01*
X13118Y-01622D02*
X12298Y-01622D01*
X15282Y-02955D02*
X16291Y-02955D01*
X13118Y-02462D02*
X13118Y-01622D01*
X20888Y-04472D02*
X21216Y-04472D01*
X21208Y-05492D02*
X22328Y-05492D01*
X20128Y-04472D02*
X20128Y-04112D01*
X20128Y-04112D02*
X19978Y-03962D01*
X21208Y-05492D02*
X21208Y-05152D01*
X21708Y-04652D02*
X21778Y-04722D01*
X21778Y-04722D02*
X22328Y-04722D01*
X21528Y-04472D02*
X21708Y-04652D01*
X21288Y-04400D02*
X21216Y-04472D01*
X21288Y-03872D02*
X21288Y-04400D01*
X21208Y-05152D02*
X21708Y-04652D01*
X20668Y-05232D02*
X20928Y-05492D01*
X17956Y-02080D02*
X17956Y-01222D01*
X17958Y-02082D02*
X17956Y-02080D01*
X20128Y-05232D02*
X20668Y-05232D01*
X20928Y-05492D02*
X21208Y-05492D01*
X20128Y-04472D02*
X20718Y-04472D01*
X20718Y-04472D02*
X20888Y-04472D01*
X21216Y-04472D02*
X21528Y-04472D01*
X09518Y-05482D02*
X10398Y-05482D01*
X17328Y-04232D02*
X17318Y-04242D01*
X17318Y-04242D02*
X17318Y-05002D01*
X16066Y-01222D02*
X16066Y-01620D01*
X17038Y-02592D02*
X17318Y-02592D01*
X15668Y-05872D02*
X17048Y-05872D01*
X17048Y-05872D02*
X17318Y-05602D01*
X17318Y-05602D02*
X17318Y-05002D01*
X14198Y-04402D02*
X11478Y-04402D01*
X14198Y-04402D02*
X15668Y-05872D01*
X11478Y-04402D02*
X10398Y-05482D01*
X16066Y-01620D02*
X17038Y-02592D01*
X11338Y-04152D02*
X10838Y-04652D01*
X15828Y-05662D02*
X14318Y-04152D01*
X16928Y-05662D02*
X17008Y-05582D01*
X15828Y-05662D02*
X16928Y-05662D01*
X14318Y-04152D02*
X11338Y-04152D01*
X17008Y-05582D02*
X17008Y-05002D01*
X08138Y-04652D02*
X10838Y-04652D01*
X15368Y-05942D02*
X15508Y-06082D01*
X18578Y-06112D02*
X18578Y-06032D01*
X18578Y-06112D02*
X19048Y-06112D01*
X11978Y-06092D02*
X12488Y-05582D01*
X21738Y-05242D02*
X22318Y-05242D01*
X14818Y-05942D02*
X15368Y-05942D01*
X17918Y-06082D02*
X18278Y-05722D01*
X21638Y-05232D02*
X21738Y-05242D01*
X14458Y-05582D02*
X12488Y-05582D01*
X18578Y-06032D02*
X18278Y-05732D01*
X18278Y-05722D02*
X18278Y-05002D01*
X14818Y-05942D02*
X14458Y-05582D01*
X15508Y-06082D02*
X17918Y-06082D01*
X18278Y-05732D02*
X18278Y-05722D01*
X22328Y-05232D02*
X22318Y-05242D01*
X17958Y-05602D02*
X17958Y-05002D01*
X17788Y-05772D02*
X17958Y-05602D01*
X22328Y-05747D02*
X21763Y-05747D01*
X21763Y-05747D02*
X21668Y-05842D01*
X13588Y-02172D02*
X13718Y-02042D01*
X17010Y-01222D02*
X17010Y-02074D01*
X13718Y-02042D02*
X13718Y-01622D01*
X17018Y-02082D02*
X17010Y-02074D01*
X14258Y-01622D02*
X14268Y-01612D01*
X14258Y-01622D02*
X13718Y-01622D01*
X17798Y-04252D02*
X18298Y-04252D01*
X17638Y-05002D02*
X17638Y-04412D01*
X17638Y-04412D02*
X17798Y-04252D01*
X18298Y-04252D02*
X19538Y-05492D01*
X19538Y-05492D02*
X20128Y-05492D01*
X21168Y-04722D02*
X21178Y-04732D01*
X19518Y-04722D02*
X20128Y-04722D01*
X20508Y-06592D02*
X13478Y-06592D01*
X20077Y-04671D02*
X20128Y-04722D01*
X19048Y-04252D02*
X19518Y-04722D01*
X21168Y-04722D02*
X20128Y-04722D01*
X20508Y-06592D02*
X20758Y-06342D01*
X12978Y-06092D02*
X13478Y-06592D01*
X19048Y-04222D02*
X19048Y-04252D01*
X12918Y-03122D02*
X12018Y-03122D01*
X14098Y-03272D02*
X14448Y-03272D01*
X05518Y-07472D02*
X05488Y-07442D01*
X15280Y-03272D02*
X15282Y-03270D01*
X10768Y-09232D02*
X09238Y-07702D01*
X18688Y-06292D02*
X18798Y-06402D01*
X08088Y-09552D02*
X08108Y-09532D01*
X10828Y-09232D02*
X10768Y-09232D01*
X19308Y-06402D02*
X19488Y-06222D01*
X07138Y-07842D02*
X07278Y-07702D01*
X08338Y-03032D02*
X08398Y-02972D01*
X05528Y-08892D02*
X05528Y-08862D01*
X18258Y-06292D02*
X18688Y-06292D01*
X13068Y-03272D02*
X12918Y-03122D01*
X08338Y-03462D02*
X08338Y-03032D01*
X12018Y-03122D02*
X12018Y-02542D01*
X08548Y-03122D02*
X08398Y-02972D01*
X08398Y-02322D02*
X08098Y-02022D01*
X05908Y-07842D02*
X05538Y-07472D01*
X13528Y-03272D02*
X13068Y-03272D01*
X14098Y-03272D02*
X13528Y-03272D01*
X14448Y-03272D02*
X15280Y-03272D01*
X07948Y-07842D02*
X08088Y-07702D01*
X24728Y-07972D02*
X24728Y-06982D01*
X23478Y-08982D02*
X23718Y-08982D01*
X08088Y-03712D02*
X08338Y-03462D01*
X07138Y-07842D02*
X07948Y-07842D01*
X14658Y-01722D02*
X14658Y-01362D01*
X06418Y-07842D02*
X07138Y-07842D01*
X11998Y-02542D02*
X12008Y-02532D01*
X05488Y-07442D02*
X05488Y-07422D01*
X05408Y-01582D02*
X05658Y-01332D01*
X19488Y-06002D02*
X20128Y-06002D01*
X08398Y-02972D02*
X08398Y-02322D01*
X12018Y-02542D02*
X12008Y-02532D01*
X16610Y-03270D02*
X16918Y-02962D01*
X14248Y-02132D02*
X14658Y-01722D01*
X05658Y-01332D02*
X05658Y-00812D01*
X09238Y-07702D02*
X10499Y-07702D01*
X08693Y-04953D02*
X08425Y-05221D01*
X10157Y-04953D02*
X08693Y-04953D01*
X10236Y-05032D02*
X10157Y-04953D01*
X10499Y-07702D02*
X10937Y-07264D01*
X19478Y-02952D02*
X19978Y-03452D01*
X19478Y-02952D02*
X19048Y-02952D01*
G54D31*
X03347Y-02167D02*
X03584Y-02167D01*
X04291Y-05827D02*
X03425Y-06693D01*
X04291Y-02874D02*
X04291Y-05827D01*
X03584Y-02167D02*
X04291Y-02874D01*
G54D30*
X12018Y-03122D02*
X08548Y-03122D01*
X19488Y-06222D02*
X19488Y-06002D01*
X06418Y-07842D02*
X05908Y-07842D01*
X08088Y-07702D02*
X08088Y-08462D01*
X16928Y-02952D02*
X16918Y-02942D01*
X15282Y-03270D02*
X16610Y-03270D01*
X16616Y-02640D02*
X15282Y-02640D01*
X16918Y-02962D02*
X16918Y-02942D01*
X18798Y-06402D02*
X19308Y-06402D01*
X08088Y-07702D02*
X09238Y-07702D01*
X09428Y-07702D02*
X09238Y-07702D01*
X18258Y-06292D02*
X15088Y-06292D01*
X19048Y-02952D02*
X16928Y-02952D01*
X06178Y-09542D02*
X05528Y-08892D01*
X08108Y-09532D02*
X09788Y-09532D01*
X16918Y-02942D02*
X16616Y-02640D01*
X08088Y-07702D02*
X07938Y-07852D01*
X23718Y-08982D02*
X24728Y-07972D01*
X15088Y-06292D02*
X15078Y-06282D01*
X13528Y-03262D02*
X13528Y-03272D01*
X18258Y-06292D02*
X18238Y-06272D01*
X19828Y-02022D02*
X19058Y-02022D01*
X19058Y-02022D02*
X19048Y-02012D01*
X20338Y-01512D02*
X19828Y-02022D01*
X20338Y-01512D02*
X21728Y-01512D01*
X21728Y-01512D02*
X21968Y-01752D01*
X21968Y-02052D02*
X21968Y-01752D01*
X12028Y-01952D02*
X12008Y-01932D01*
X10398Y-01932D02*
X12008Y-01932D01*
X14786Y-03900D02*
X14578Y-03692D01*
X14578Y-03692D02*
X12958Y-03692D01*
X12958Y-03692D02*
X12858Y-03582D01*
X12488Y-01952D02*
X12858Y-02322D01*
X12028Y-01952D02*
X12488Y-01952D01*
X15282Y-03900D02*
X14786Y-03900D01*
X14358Y-03912D02*
X12208Y-03912D01*
X14661Y-04215D02*
X14358Y-03912D01*
X12208Y-03912D02*
X12018Y-03722D01*
X11968Y-03672D02*
X12018Y-03722D01*
X15282Y-04215D02*
X14661Y-04215D01*
X10398Y-03932D02*
X10658Y-03672D01*
X10658Y-03672D02*
X11968Y-03672D01*
X06188Y-03352D02*
X05538Y-03352D01*
X06788Y-03952D02*
X06188Y-03352D01*
X06938Y-03952D02*
X06788Y-03952D01*
X02461Y-04923D02*
X02264Y-04726D01*
X02461Y-07089D02*
X02461Y-04923D01*
X02776Y-07089D02*
X02776Y-05592D01*
X03445Y-04923D02*
X03445Y-03742D01*
X02776Y-05592D02*
X03445Y-04923D01*
X06718Y-04762D02*
X06308Y-04352D01*
X06308Y-04352D02*
X05538Y-04352D01*
X06718Y-04872D02*
X06718Y-04762D01*
X21388Y-06562D02*
X20573Y-05747D01*
X23728Y-06982D02*
X23308Y-06562D01*
X23308Y-06562D02*
X21388Y-06562D01*
X20573Y-05747D02*
X20128Y-05747D01*
X22328Y-06002D02*
X22768Y-06002D01*
X24228Y-05482D02*
X24728Y-05982D01*
X22768Y-06002D02*
X23288Y-05482D01*
X23288Y-05482D02*
X24228Y-05482D01*
X23723Y-04977D02*
X23728Y-04982D01*
X22328Y-04977D02*
X23723Y-04977D01*
X20818Y-04982D02*
X20128Y-04982D01*
X22938Y-06352D02*
X21678Y-06352D01*
X23308Y-05982D02*
X22938Y-06352D01*
X21678Y-06352D02*
X21188Y-05862D01*
X23728Y-05982D02*
X23308Y-05982D01*
X20818Y-04982D02*
X20928Y-05092D01*
X06418Y-05772D02*
X06718Y-05472D01*
X06418Y-07242D02*
X06418Y-05772D01*
X09238Y-05802D02*
X08918Y-05482D01*
X09238Y-06402D02*
X09238Y-05802D01*
X07128Y-05472D02*
X07248Y-05592D01*
X06718Y-05472D02*
X07128Y-05472D01*
X07248Y-05592D02*
X08808Y-05592D01*
X08808Y-05592D02*
X08918Y-05482D01*
X07368Y-06402D02*
X08088Y-06402D01*
X07168Y-06202D02*
X07368Y-06402D01*
X07538Y-04652D02*
X07538Y-03952D01*
X07538Y-04652D02*
X07538Y-05202D01*
X07538Y-05202D02*
X07528Y-05212D01*
X07138Y-07242D02*
X07138Y-06772D01*
X07508Y-06402D02*
X08088Y-06402D01*
X07138Y-06772D02*
X07508Y-06402D01*
X07538Y-03952D02*
X07538Y-03712D01*
X07538Y-03712D02*
X06858Y-03032D01*
X20248Y-01212D02*
X20348Y-01312D01*
X20348Y-01312D02*
X21838Y-01312D01*
X21838Y-01312D02*
X21968Y-01182D01*
X21968Y-01182D02*
X21968Y-00752D01*
X20078Y-01212D02*
X20248Y-01212D01*
X20798Y-00642D02*
X20908Y-00752D01*
X20078Y-00642D02*
X20798Y-00642D01*
X19048Y-02322D02*
X19938Y-02322D01*
X20208Y-02052D02*
X20908Y-02052D01*
X19938Y-02322D02*
X20208Y-02052D01*
G54D31*
X22338Y-03872D02*
X22338Y-03222D01*
X22338Y-03222D02*
X22138Y-03022D01*
G54D30*
X21888Y-03872D02*
X22338Y-03872D01*
X22338Y-03872D02*
X22328Y-03882D01*
X22328Y-03882D02*
X22338Y-03872D01*
G54D31*
X24528Y-04242D02*
X24728Y-04442D01*
X24728Y-04442D02*
X24728Y-04982D01*
X22938Y-04242D02*
X24528Y-04242D01*
G54D30*
X22928Y-04242D02*
X22938Y-04242D01*
G54D31*
X22938Y-04212D02*
X22598Y-03872D01*
X22598Y-03872D02*
X22338Y-03872D01*
X22938Y-04242D02*
X22938Y-04212D01*
G54D30*
X22328Y-03882D02*
X22338Y-03872D01*
X22328Y-04467D02*
X22328Y-03882D01*
G54D31*
X02126Y-06575D02*
X01299Y-05748D01*
X01299Y-05748D02*
X01299Y-03920D01*
X01299Y-03920D02*
X02166Y-03053D01*
X02126Y-06654D02*
X02126Y-06575D01*
G54D10*
G36*
X10528Y-04942D02*
X10278Y-05192D01*
X09857Y-05192D01*
X09854Y-05184D01*
X09784Y-05114D01*
X09693Y-05076D01*
X09594Y-05076D01*
X09344Y-05076D01*
X09252Y-05114D01*
X09218Y-05148D01*
X09184Y-05114D01*
X09093Y-05076D01*
X08994Y-05076D01*
X08744Y-05076D01*
X08652Y-05114D01*
X08582Y-05184D01*
X08544Y-05275D01*
X08544Y-05302D01*
X07950Y-05302D01*
X07953Y-05297D01*
X07953Y-05128D01*
X07916Y-05038D01*
X07963Y-05058D01*
X08062Y-05058D01*
X08312Y-05058D01*
X08404Y-05020D01*
X08474Y-04950D01*
X08477Y-04942D01*
X10528Y-04942D01*
X10528Y-04942D01*
G37*
G54D32*
X10528Y-04942D02*
X10278Y-05192D01*
X09857Y-05192D01*
X09854Y-05184D01*
X09784Y-05114D01*
X09693Y-05076D01*
X09594Y-05076D01*
X09344Y-05076D01*
X09252Y-05114D01*
X09218Y-05148D01*
X09184Y-05114D01*
X09093Y-05076D01*
X08994Y-05076D01*
X08744Y-05076D01*
X08652Y-05114D01*
X08582Y-05184D01*
X08544Y-05275D01*
X08544Y-05302D01*
X07950Y-05302D01*
X07953Y-05297D01*
X07953Y-05128D01*
X07916Y-05038D01*
X07963Y-05058D01*
X08062Y-05058D01*
X08312Y-05058D01*
X08404Y-05020D01*
X08474Y-04950D01*
X08477Y-04942D01*
X10528Y-04942D01*
G54D10*
G36*
X11653Y-05543D02*
X11629Y-05543D01*
X11537Y-05581D01*
X11467Y-05651D01*
X11429Y-05742D01*
X11429Y-05841D01*
X11429Y-06441D01*
X11436Y-06459D01*
X11348Y-06518D01*
X11278Y-06624D01*
X11253Y-06748D01*
X11253Y-08655D01*
X11228Y-08598D01*
X10955Y-08493D01*
X10663Y-08501D01*
X10428Y-08598D01*
X10378Y-08712D01*
X10793Y-09126D01*
X10828Y-09161D01*
X10899Y-09232D01*
X10828Y-09303D01*
X10757Y-09373D01*
X10757Y-09232D01*
X10308Y-08782D01*
X10194Y-08832D01*
X10089Y-09105D01*
X10097Y-09397D01*
X10194Y-09632D01*
X10308Y-09682D01*
X10757Y-09232D01*
X10757Y-09373D01*
X10378Y-09752D01*
X10428Y-09866D01*
X10508Y-09897D01*
X09888Y-09897D01*
X09888Y-07814D01*
X09888Y-07590D01*
X09887Y-07353D01*
X09849Y-07261D01*
X09779Y-07191D01*
X09688Y-07153D01*
X09589Y-07153D01*
X09350Y-07152D01*
X09288Y-07214D01*
X09288Y-07652D01*
X09826Y-07652D01*
X09888Y-07590D01*
X09888Y-07814D01*
X09826Y-07752D01*
X09288Y-07752D01*
X09288Y-08190D01*
X09350Y-08252D01*
X09589Y-08251D01*
X09688Y-08251D01*
X09779Y-08213D01*
X09849Y-08143D01*
X09887Y-08051D01*
X09888Y-07814D01*
X09888Y-09897D01*
X09188Y-09897D01*
X09188Y-08190D01*
X09188Y-07752D01*
X09188Y-07652D01*
X09188Y-07214D01*
X09126Y-07152D01*
X08887Y-07153D01*
X08788Y-07153D01*
X08697Y-07191D01*
X08663Y-07225D01*
X08629Y-07191D01*
X08538Y-07153D01*
X08439Y-07153D01*
X08200Y-07152D01*
X08138Y-07214D01*
X08138Y-07652D01*
X08650Y-07652D01*
X08676Y-07652D01*
X09188Y-07652D01*
X09188Y-07752D01*
X08676Y-07752D01*
X08650Y-07752D01*
X08138Y-07752D01*
X08138Y-08190D01*
X08200Y-08252D01*
X08439Y-08251D01*
X08538Y-08251D01*
X08629Y-08213D01*
X08663Y-08179D01*
X08697Y-08213D01*
X08788Y-08251D01*
X08887Y-08251D01*
X09126Y-08252D01*
X09188Y-08190D01*
X09188Y-09897D01*
X07088Y-09897D01*
X07088Y-08155D01*
X07088Y-07892D01*
X06793Y-07892D01*
X06778Y-07907D01*
X06763Y-07892D01*
X06468Y-07892D01*
X06468Y-08155D01*
X06529Y-08216D01*
X06625Y-08216D01*
X06716Y-08178D01*
X06778Y-08116D01*
X06840Y-08178D01*
X06931Y-08216D01*
X07027Y-08216D01*
X07088Y-08155D01*
X07088Y-09897D01*
X06368Y-09897D01*
X06368Y-08155D01*
X06368Y-07892D01*
X06073Y-07892D01*
X06011Y-07954D01*
X06012Y-08016D01*
X06050Y-08108D01*
X06120Y-08178D01*
X06211Y-08216D01*
X06307Y-08216D01*
X06368Y-08155D01*
X06368Y-09897D01*
X05828Y-09897D01*
X05828Y-05713D01*
X05538Y-05423D01*
X05467Y-05494D01*
X05467Y-05352D01*
X05177Y-05062D01*
X05086Y-05085D01*
X05019Y-05278D01*
X05030Y-05482D01*
X05086Y-05619D01*
X05177Y-05642D01*
X05467Y-05352D01*
X05467Y-05494D01*
X05248Y-05713D01*
X05271Y-05804D01*
X05464Y-05871D01*
X05668Y-05860D01*
X05805Y-05804D01*
X05828Y-05713D01*
X05828Y-09897D01*
X05448Y-09897D01*
X05065Y-09513D01*
X05065Y-08809D01*
X05027Y-08717D01*
X04957Y-08647D01*
X04866Y-08609D01*
X04778Y-08609D01*
X04778Y-07926D01*
X04885Y-07926D01*
X04977Y-07888D01*
X05047Y-07818D01*
X05085Y-07727D01*
X05085Y-07628D01*
X05085Y-06644D01*
X05047Y-06552D01*
X04977Y-06482D01*
X04886Y-06444D01*
X04787Y-06444D01*
X04778Y-06444D01*
X04778Y-00775D01*
X04836Y-00745D01*
X05038Y-00557D01*
X06997Y-00557D01*
X06575Y-00979D01*
X06488Y-01109D01*
X06458Y-01262D01*
X06458Y-02032D01*
X06062Y-02032D01*
X06062Y-02028D01*
X06024Y-01936D01*
X05954Y-01866D01*
X05863Y-01828D01*
X05764Y-01828D01*
X05214Y-01828D01*
X05122Y-01866D01*
X05052Y-01936D01*
X05014Y-02027D01*
X05014Y-02126D01*
X05014Y-02676D01*
X05052Y-02768D01*
X05122Y-02838D01*
X05213Y-02876D01*
X05312Y-02876D01*
X05241Y-02907D01*
X05093Y-03054D01*
X05013Y-03247D01*
X05013Y-03456D01*
X05093Y-03649D01*
X05240Y-03797D01*
X05373Y-03852D01*
X05241Y-03907D01*
X05093Y-04054D01*
X05013Y-04247D01*
X05013Y-04456D01*
X05093Y-04649D01*
X05240Y-04797D01*
X05380Y-04855D01*
X05271Y-04900D01*
X05248Y-04991D01*
X05538Y-05281D01*
X05828Y-04991D01*
X05805Y-04900D01*
X05686Y-04858D01*
X05835Y-04797D01*
X05983Y-04650D01*
X05986Y-04642D01*
X06188Y-04642D01*
X06312Y-04766D01*
X06312Y-04796D01*
X06312Y-05046D01*
X06350Y-05138D01*
X06384Y-05172D01*
X06350Y-05206D01*
X06312Y-05297D01*
X06312Y-05396D01*
X06312Y-05468D01*
X06213Y-05567D01*
X06150Y-05661D01*
X06128Y-05772D01*
X06128Y-06902D01*
X06120Y-06906D01*
X06057Y-06969D01*
X06057Y-05426D01*
X06046Y-05222D01*
X05990Y-05085D01*
X05899Y-05062D01*
X05609Y-05352D01*
X05899Y-05642D01*
X05990Y-05619D01*
X06057Y-05426D01*
X06057Y-06969D01*
X06050Y-06976D01*
X06012Y-07067D01*
X06012Y-07166D01*
X06012Y-07416D01*
X06050Y-07508D01*
X06084Y-07542D01*
X06050Y-07576D01*
X06012Y-07668D01*
X06011Y-07730D01*
X06073Y-07792D01*
X06318Y-07792D01*
X06368Y-07792D01*
X06468Y-07792D01*
X06518Y-07792D01*
X06763Y-07792D01*
X06778Y-07777D01*
X06793Y-07792D01*
X07038Y-07792D01*
X07088Y-07792D01*
X07188Y-07792D01*
X07188Y-07892D01*
X07188Y-07942D01*
X07188Y-08155D01*
X07249Y-08216D01*
X07345Y-08216D01*
X07436Y-08178D01*
X07475Y-08138D01*
X07477Y-08143D01*
X07547Y-08213D01*
X07638Y-08251D01*
X07737Y-08251D01*
X07976Y-08252D01*
X08038Y-08190D01*
X08038Y-07802D01*
X08038Y-07752D01*
X08038Y-07652D01*
X08038Y-07602D01*
X08038Y-07214D01*
X07976Y-07152D01*
X07737Y-07153D01*
X07638Y-07153D01*
X07547Y-07191D01*
X07544Y-07194D01*
X07544Y-07068D01*
X07506Y-06976D01*
X07436Y-06906D01*
X07428Y-06902D01*
X07428Y-06892D01*
X07477Y-06843D01*
X07547Y-06913D01*
X07638Y-06951D01*
X07737Y-06951D01*
X08537Y-06951D01*
X08629Y-06913D01*
X08663Y-06879D01*
X08697Y-06913D01*
X08788Y-06951D01*
X08887Y-06951D01*
X09687Y-06951D01*
X09779Y-06913D01*
X09849Y-06843D01*
X09887Y-06752D01*
X09887Y-06653D01*
X09887Y-06053D01*
X09849Y-05961D01*
X09779Y-05891D01*
X09732Y-05871D01*
X09784Y-05850D01*
X09854Y-05780D01*
X09857Y-05772D01*
X10398Y-05772D01*
X10509Y-05750D01*
X10603Y-05687D01*
X11598Y-04692D01*
X11602Y-04692D01*
X11513Y-04781D01*
X11429Y-04983D01*
X11429Y-05201D01*
X11513Y-05403D01*
X11653Y-05543D01*
X11653Y-05543D01*
G37*
G54D32*
X11653Y-05543D02*
X11629Y-05543D01*
X11537Y-05581D01*
X11467Y-05651D01*
X11429Y-05742D01*
X11429Y-05841D01*
X11429Y-06441D01*
X11436Y-06459D01*
X11348Y-06518D01*
X11278Y-06624D01*
X11253Y-06748D01*
X11253Y-08655D01*
X11228Y-08598D01*
X10955Y-08493D01*
X10663Y-08501D01*
X10428Y-08598D01*
X10378Y-08712D01*
X10793Y-09126D01*
X10828Y-09161D01*
X10899Y-09232D01*
X10828Y-09303D01*
X10757Y-09373D01*
X10757Y-09232D01*
X10308Y-08782D01*
X10194Y-08832D01*
X10089Y-09105D01*
X10097Y-09397D01*
X10194Y-09632D01*
X10308Y-09682D01*
X10757Y-09232D01*
X10757Y-09373D01*
X10378Y-09752D01*
X10428Y-09866D01*
X10508Y-09897D01*
X09888Y-09897D01*
X09888Y-07814D01*
X09888Y-07590D01*
X09887Y-07353D01*
X09849Y-07261D01*
X09779Y-07191D01*
X09688Y-07153D01*
X09589Y-07153D01*
X09350Y-07152D01*
X09288Y-07214D01*
X09288Y-07652D01*
X09826Y-07652D01*
X09888Y-07590D01*
X09888Y-07814D01*
X09826Y-07752D01*
X09288Y-07752D01*
X09288Y-08190D01*
X09350Y-08252D01*
X09589Y-08251D01*
X09688Y-08251D01*
X09779Y-08213D01*
X09849Y-08143D01*
X09887Y-08051D01*
X09888Y-07814D01*
X09888Y-09897D01*
X09188Y-09897D01*
X09188Y-08190D01*
X09188Y-07752D01*
X09188Y-07652D01*
X09188Y-07214D01*
X09126Y-07152D01*
X08887Y-07153D01*
X08788Y-07153D01*
X08697Y-07191D01*
X08663Y-07225D01*
X08629Y-07191D01*
X08538Y-07153D01*
X08439Y-07153D01*
X08200Y-07152D01*
X08138Y-07214D01*
X08138Y-07652D01*
X08650Y-07652D01*
X08676Y-07652D01*
X09188Y-07652D01*
X09188Y-07752D01*
X08676Y-07752D01*
X08650Y-07752D01*
X08138Y-07752D01*
X08138Y-08190D01*
X08200Y-08252D01*
X08439Y-08251D01*
X08538Y-08251D01*
X08629Y-08213D01*
X08663Y-08179D01*
X08697Y-08213D01*
X08788Y-08251D01*
X08887Y-08251D01*
X09126Y-08252D01*
X09188Y-08190D01*
X09188Y-09897D01*
X07088Y-09897D01*
X07088Y-08155D01*
X07088Y-07892D01*
X06793Y-07892D01*
X06778Y-07907D01*
X06763Y-07892D01*
X06468Y-07892D01*
X06468Y-08155D01*
X06529Y-08216D01*
X06625Y-08216D01*
X06716Y-08178D01*
X06778Y-08116D01*
X06840Y-08178D01*
X06931Y-08216D01*
X07027Y-08216D01*
X07088Y-08155D01*
X07088Y-09897D01*
X06368Y-09897D01*
X06368Y-08155D01*
X06368Y-07892D01*
X06073Y-07892D01*
X06011Y-07954D01*
X06012Y-08016D01*
X06050Y-08108D01*
X06120Y-08178D01*
X06211Y-08216D01*
X06307Y-08216D01*
X06368Y-08155D01*
X06368Y-09897D01*
X05828Y-09897D01*
X05828Y-05713D01*
X05538Y-05423D01*
X05467Y-05494D01*
X05467Y-05352D01*
X05177Y-05062D01*
X05086Y-05085D01*
X05019Y-05278D01*
X05030Y-05482D01*
X05086Y-05619D01*
X05177Y-05642D01*
X05467Y-05352D01*
X05467Y-05494D01*
X05248Y-05713D01*
X05271Y-05804D01*
X05464Y-05871D01*
X05668Y-05860D01*
X05805Y-05804D01*
X05828Y-05713D01*
X05828Y-09897D01*
X05448Y-09897D01*
X05065Y-09513D01*
X05065Y-08809D01*
X05027Y-08717D01*
X04957Y-08647D01*
X04866Y-08609D01*
X04778Y-08609D01*
X04778Y-07926D01*
X04885Y-07926D01*
X04977Y-07888D01*
X05047Y-07818D01*
X05085Y-07727D01*
X05085Y-07628D01*
X05085Y-06644D01*
X05047Y-06552D01*
X04977Y-06482D01*
X04886Y-06444D01*
X04787Y-06444D01*
X04778Y-06444D01*
X04778Y-00775D01*
X04836Y-00745D01*
X05038Y-00557D01*
X06997Y-00557D01*
X06575Y-00979D01*
X06488Y-01109D01*
X06458Y-01262D01*
X06458Y-02032D01*
X06062Y-02032D01*
X06062Y-02028D01*
X06024Y-01936D01*
X05954Y-01866D01*
X05863Y-01828D01*
X05764Y-01828D01*
X05214Y-01828D01*
X05122Y-01866D01*
X05052Y-01936D01*
X05014Y-02027D01*
X05014Y-02126D01*
X05014Y-02676D01*
X05052Y-02768D01*
X05122Y-02838D01*
X05213Y-02876D01*
X05312Y-02876D01*
X05241Y-02907D01*
X05093Y-03054D01*
X05013Y-03247D01*
X05013Y-03456D01*
X05093Y-03649D01*
X05240Y-03797D01*
X05373Y-03852D01*
X05241Y-03907D01*
X05093Y-04054D01*
X05013Y-04247D01*
X05013Y-04456D01*
X05093Y-04649D01*
X05240Y-04797D01*
X05380Y-04855D01*
X05271Y-04900D01*
X05248Y-04991D01*
X05538Y-05281D01*
X05828Y-04991D01*
X05805Y-04900D01*
X05686Y-04858D01*
X05835Y-04797D01*
X05983Y-04650D01*
X05986Y-04642D01*
X06188Y-04642D01*
X06312Y-04766D01*
X06312Y-04796D01*
X06312Y-05046D01*
X06350Y-05138D01*
X06384Y-05172D01*
X06350Y-05206D01*
X06312Y-05297D01*
X06312Y-05396D01*
X06312Y-05468D01*
X06213Y-05567D01*
X06150Y-05661D01*
X06128Y-05772D01*
X06128Y-06902D01*
X06120Y-06906D01*
X06057Y-06969D01*
X06057Y-05426D01*
X06046Y-05222D01*
X05990Y-05085D01*
X05899Y-05062D01*
X05609Y-05352D01*
X05899Y-05642D01*
X05990Y-05619D01*
X06057Y-05426D01*
X06057Y-06969D01*
X06050Y-06976D01*
X06012Y-07067D01*
X06012Y-07166D01*
X06012Y-07416D01*
X06050Y-07508D01*
X06084Y-07542D01*
X06050Y-07576D01*
X06012Y-07668D01*
X06011Y-07730D01*
X06073Y-07792D01*
X06318Y-07792D01*
X06368Y-07792D01*
X06468Y-07792D01*
X06518Y-07792D01*
X06763Y-07792D01*
X06778Y-07777D01*
X06793Y-07792D01*
X07038Y-07792D01*
X07088Y-07792D01*
X07188Y-07792D01*
X07188Y-07892D01*
X07188Y-07942D01*
X07188Y-08155D01*
X07249Y-08216D01*
X07345Y-08216D01*
X07436Y-08178D01*
X07475Y-08138D01*
X07477Y-08143D01*
X07547Y-08213D01*
X07638Y-08251D01*
X07737Y-08251D01*
X07976Y-08252D01*
X08038Y-08190D01*
X08038Y-07802D01*
X08038Y-07752D01*
X08038Y-07652D01*
X08038Y-07602D01*
X08038Y-07214D01*
X07976Y-07152D01*
X07737Y-07153D01*
X07638Y-07153D01*
X07547Y-07191D01*
X07544Y-07194D01*
X07544Y-07068D01*
X07506Y-06976D01*
X07436Y-06906D01*
X07428Y-06902D01*
X07428Y-06892D01*
X07477Y-06843D01*
X07547Y-06913D01*
X07638Y-06951D01*
X07737Y-06951D01*
X08537Y-06951D01*
X08629Y-06913D01*
X08663Y-06879D01*
X08697Y-06913D01*
X08788Y-06951D01*
X08887Y-06951D01*
X09687Y-06951D01*
X09779Y-06913D01*
X09849Y-06843D01*
X09887Y-06752D01*
X09887Y-06653D01*
X09887Y-06053D01*
X09849Y-05961D01*
X09779Y-05891D01*
X09732Y-05871D01*
X09784Y-05850D01*
X09854Y-05780D01*
X09857Y-05772D01*
X10398Y-05772D01*
X10509Y-05750D01*
X10603Y-05687D01*
X11598Y-04692D01*
X11602Y-04692D01*
X11513Y-04781D01*
X11429Y-04983D01*
X11429Y-05201D01*
X11513Y-05403D01*
X11653Y-05543D01*
G54D10*
G36*
X14049Y-05092D02*
X13978Y-05163D01*
X13907Y-05092D01*
X13872Y-05057D01*
X13600Y-04784D01*
X13506Y-04811D01*
X13482Y-04876D01*
X13443Y-04781D01*
X13354Y-04692D01*
X13676Y-04692D01*
X13670Y-04714D01*
X13943Y-04986D01*
X13978Y-05021D01*
X14049Y-05092D01*
X14049Y-05092D01*
G37*
G54D32*
X14049Y-05092D02*
X13978Y-05163D01*
X13907Y-05092D01*
X13872Y-05057D01*
X13600Y-04784D01*
X13506Y-04811D01*
X13482Y-04876D01*
X13443Y-04781D01*
X13354Y-04692D01*
X13676Y-04692D01*
X13670Y-04714D01*
X13943Y-04986D01*
X13978Y-05021D01*
X14049Y-05092D01*
G54D10*
G36*
X14786Y-03270D02*
X14748Y-03286D01*
X14720Y-03314D01*
X14701Y-03314D01*
X14640Y-03375D01*
X14640Y-03408D01*
X14642Y-03414D01*
X14578Y-03402D01*
X14504Y-03402D01*
X14505Y-03384D01*
X14443Y-03322D01*
X14198Y-03322D01*
X14148Y-03322D01*
X14048Y-03322D01*
X13998Y-03322D01*
X13753Y-03322D01*
X13691Y-03384D01*
X13691Y-03402D01*
X13243Y-03402D01*
X13219Y-03342D01*
X13099Y-03222D01*
X12943Y-03157D01*
X12774Y-03157D01*
X12618Y-03221D01*
X12498Y-03341D01*
X12433Y-03497D01*
X12433Y-03622D01*
X12424Y-03622D01*
X12424Y-03548D01*
X12386Y-03456D01*
X12352Y-03422D01*
X12386Y-03388D01*
X12424Y-03296D01*
X12425Y-03234D01*
X12425Y-03010D01*
X12424Y-02948D01*
X12386Y-02856D01*
X12352Y-02822D01*
X12376Y-02798D01*
X12414Y-02706D01*
X12415Y-02644D01*
X12353Y-02582D01*
X12058Y-02582D01*
X12058Y-02845D01*
X12068Y-02855D01*
X12068Y-03072D01*
X12363Y-03072D01*
X12425Y-03010D01*
X12425Y-03234D01*
X12363Y-03172D01*
X12118Y-03172D01*
X12068Y-03172D01*
X11968Y-03172D01*
X11968Y-03072D01*
X11968Y-02809D01*
X11958Y-02799D01*
X11958Y-02582D01*
X11663Y-02582D01*
X11601Y-02644D01*
X11602Y-02706D01*
X11640Y-02798D01*
X11674Y-02832D01*
X11650Y-02856D01*
X11612Y-02948D01*
X11611Y-03010D01*
X11673Y-03072D01*
X11968Y-03072D01*
X11968Y-03172D01*
X11918Y-03172D01*
X11673Y-03172D01*
X11611Y-03234D01*
X11612Y-03296D01*
X11647Y-03382D01*
X10658Y-03382D01*
X10564Y-03400D01*
X10546Y-03404D01*
X10532Y-03413D01*
X10531Y-03413D01*
X10504Y-03402D01*
X10293Y-03402D01*
X10098Y-03483D01*
X09949Y-03631D01*
X09868Y-03826D01*
X09868Y-04037D01*
X09949Y-04232D01*
X10078Y-04362D01*
X08848Y-04362D01*
X08848Y-02134D01*
X08848Y-01910D01*
X08847Y-01723D01*
X08809Y-01631D01*
X08739Y-01561D01*
X08648Y-01523D01*
X08549Y-01523D01*
X08210Y-01522D01*
X08148Y-01584D01*
X08148Y-01972D01*
X08786Y-01972D01*
X08848Y-01910D01*
X08848Y-02134D01*
X08786Y-02072D01*
X08148Y-02072D01*
X08148Y-02460D01*
X08210Y-02522D01*
X08549Y-02521D01*
X08648Y-02521D01*
X08739Y-02483D01*
X08809Y-02413D01*
X08847Y-02321D01*
X08848Y-02134D01*
X08848Y-04362D01*
X08772Y-04362D01*
X08772Y-03179D01*
X08772Y-03083D01*
X08772Y-02861D01*
X08772Y-02765D01*
X08734Y-02674D01*
X08664Y-02604D01*
X08572Y-02566D01*
X08510Y-02565D01*
X08448Y-02627D01*
X08448Y-02922D01*
X08711Y-02922D01*
X08772Y-02861D01*
X08772Y-03083D01*
X08711Y-03022D01*
X08448Y-03022D01*
X08448Y-03317D01*
X08510Y-03379D01*
X08572Y-03378D01*
X08664Y-03340D01*
X08734Y-03270D01*
X08772Y-03179D01*
X08772Y-04362D01*
X08477Y-04362D01*
X08474Y-04354D01*
X08404Y-04284D01*
X08313Y-04246D01*
X08214Y-04246D01*
X07964Y-04246D01*
X07872Y-04284D01*
X07838Y-04318D01*
X07828Y-04308D01*
X07828Y-04296D01*
X07874Y-04250D01*
X07912Y-04159D01*
X07912Y-04060D01*
X07912Y-03746D01*
X07874Y-03654D01*
X07804Y-03584D01*
X07791Y-03578D01*
X07790Y-03578D01*
X07743Y-03507D01*
X07743Y-03506D01*
X07608Y-03372D01*
X07623Y-03378D01*
X07722Y-03378D01*
X07972Y-03378D01*
X08064Y-03340D01*
X08098Y-03306D01*
X08132Y-03340D01*
X08224Y-03378D01*
X08286Y-03379D01*
X08348Y-03317D01*
X08348Y-03072D01*
X08348Y-03022D01*
X08348Y-02922D01*
X08348Y-02872D01*
X08348Y-02627D01*
X08286Y-02565D01*
X08224Y-02566D01*
X08132Y-02604D01*
X08098Y-02638D01*
X08064Y-02604D01*
X07973Y-02566D01*
X07937Y-02566D01*
X07893Y-02521D01*
X07986Y-02522D01*
X08048Y-02460D01*
X08048Y-02072D01*
X08048Y-01972D01*
X08048Y-01584D01*
X07986Y-01522D01*
X07647Y-01523D01*
X07548Y-01523D01*
X07457Y-01561D01*
X07387Y-01631D01*
X07349Y-01723D01*
X07348Y-01910D01*
X07410Y-01972D01*
X08048Y-01972D01*
X08048Y-02072D01*
X07410Y-02072D01*
X07408Y-02073D01*
X07391Y-02062D01*
X07258Y-02035D01*
X07258Y-01428D01*
X07430Y-01256D01*
X07457Y-01283D01*
X07548Y-01321D01*
X07647Y-01321D01*
X08647Y-01321D01*
X08739Y-01283D01*
X08800Y-01222D01*
X11553Y-01222D01*
X11553Y-01386D01*
X11617Y-01542D01*
X11690Y-01615D01*
X11664Y-01642D01*
X10851Y-01642D01*
X10847Y-01632D01*
X10699Y-01483D01*
X10504Y-01402D01*
X10293Y-01402D01*
X10098Y-01483D01*
X09949Y-01631D01*
X09868Y-01826D01*
X09868Y-02037D01*
X09949Y-02232D01*
X10097Y-02381D01*
X10292Y-02462D01*
X10503Y-02462D01*
X10698Y-02381D01*
X10847Y-02233D01*
X10851Y-02222D01*
X11664Y-02222D01*
X11674Y-02232D01*
X11640Y-02266D01*
X11602Y-02358D01*
X11601Y-02420D01*
X11663Y-02482D01*
X11908Y-02482D01*
X11958Y-02482D01*
X12058Y-02482D01*
X12108Y-02482D01*
X12353Y-02482D01*
X12415Y-02420D01*
X12414Y-02358D01*
X12376Y-02266D01*
X12352Y-02242D01*
X12368Y-02242D01*
X12433Y-02307D01*
X12433Y-02406D01*
X12497Y-02562D01*
X12617Y-02682D01*
X12773Y-02747D01*
X12942Y-02747D01*
X12978Y-02732D01*
X13122Y-02876D01*
X13123Y-02877D01*
X13216Y-02939D01*
X13217Y-02940D01*
X13327Y-02961D01*
X13328Y-02962D01*
X13754Y-02962D01*
X13764Y-02972D01*
X13730Y-03006D01*
X13692Y-03098D01*
X13691Y-03160D01*
X13753Y-03222D01*
X13998Y-03222D01*
X14048Y-03222D01*
X14148Y-03222D01*
X14198Y-03222D01*
X14443Y-03222D01*
X14481Y-03183D01*
X14540Y-03223D01*
X14651Y-03245D01*
X14739Y-03245D01*
X14748Y-03254D01*
X14786Y-03270D01*
X14786Y-03270D01*
G37*
G54D32*
X14786Y-03270D02*
X14748Y-03286D01*
X14720Y-03314D01*
X14701Y-03314D01*
X14640Y-03375D01*
X14640Y-03408D01*
X14642Y-03414D01*
X14578Y-03402D01*
X14504Y-03402D01*
X14505Y-03384D01*
X14443Y-03322D01*
X14198Y-03322D01*
X14148Y-03322D01*
X14048Y-03322D01*
X13998Y-03322D01*
X13753Y-03322D01*
X13691Y-03384D01*
X13691Y-03402D01*
X13243Y-03402D01*
X13219Y-03342D01*
X13099Y-03222D01*
X12943Y-03157D01*
X12774Y-03157D01*
X12618Y-03221D01*
X12498Y-03341D01*
X12433Y-03497D01*
X12433Y-03622D01*
X12424Y-03622D01*
X12424Y-03548D01*
X12386Y-03456D01*
X12352Y-03422D01*
X12386Y-03388D01*
X12424Y-03296D01*
X12425Y-03234D01*
X12425Y-03010D01*
X12424Y-02948D01*
X12386Y-02856D01*
X12352Y-02822D01*
X12376Y-02798D01*
X12414Y-02706D01*
X12415Y-02644D01*
X12353Y-02582D01*
X12058Y-02582D01*
X12058Y-02845D01*
X12068Y-02855D01*
X12068Y-03072D01*
X12363Y-03072D01*
X12425Y-03010D01*
X12425Y-03234D01*
X12363Y-03172D01*
X12118Y-03172D01*
X12068Y-03172D01*
X11968Y-03172D01*
X11968Y-03072D01*
X11968Y-02809D01*
X11958Y-02799D01*
X11958Y-02582D01*
X11663Y-02582D01*
X11601Y-02644D01*
X11602Y-02706D01*
X11640Y-02798D01*
X11674Y-02832D01*
X11650Y-02856D01*
X11612Y-02948D01*
X11611Y-03010D01*
X11673Y-03072D01*
X11968Y-03072D01*
X11968Y-03172D01*
X11918Y-03172D01*
X11673Y-03172D01*
X11611Y-03234D01*
X11612Y-03296D01*
X11647Y-03382D01*
X10658Y-03382D01*
X10564Y-03400D01*
X10546Y-03404D01*
X10532Y-03413D01*
X10531Y-03413D01*
X10504Y-03402D01*
X10293Y-03402D01*
X10098Y-03483D01*
X09949Y-03631D01*
X09868Y-03826D01*
X09868Y-04037D01*
X09949Y-04232D01*
X10078Y-04362D01*
X08848Y-04362D01*
X08848Y-02134D01*
X08848Y-01910D01*
X08847Y-01723D01*
X08809Y-01631D01*
X08739Y-01561D01*
X08648Y-01523D01*
X08549Y-01523D01*
X08210Y-01522D01*
X08148Y-01584D01*
X08148Y-01972D01*
X08786Y-01972D01*
X08848Y-01910D01*
X08848Y-02134D01*
X08786Y-02072D01*
X08148Y-02072D01*
X08148Y-02460D01*
X08210Y-02522D01*
X08549Y-02521D01*
X08648Y-02521D01*
X08739Y-02483D01*
X08809Y-02413D01*
X08847Y-02321D01*
X08848Y-02134D01*
X08848Y-04362D01*
X08772Y-04362D01*
X08772Y-03179D01*
X08772Y-03083D01*
X08772Y-02861D01*
X08772Y-02765D01*
X08734Y-02674D01*
X08664Y-02604D01*
X08572Y-02566D01*
X08510Y-02565D01*
X08448Y-02627D01*
X08448Y-02922D01*
X08711Y-02922D01*
X08772Y-02861D01*
X08772Y-03083D01*
X08711Y-03022D01*
X08448Y-03022D01*
X08448Y-03317D01*
X08510Y-03379D01*
X08572Y-03378D01*
X08664Y-03340D01*
X08734Y-03270D01*
X08772Y-03179D01*
X08772Y-04362D01*
X08477Y-04362D01*
X08474Y-04354D01*
X08404Y-04284D01*
X08313Y-04246D01*
X08214Y-04246D01*
X07964Y-04246D01*
X07872Y-04284D01*
X07838Y-04318D01*
X07828Y-04308D01*
X07828Y-04296D01*
X07874Y-04250D01*
X07912Y-04159D01*
X07912Y-04060D01*
X07912Y-03746D01*
X07874Y-03654D01*
X07804Y-03584D01*
X07791Y-03578D01*
X07790Y-03578D01*
X07743Y-03507D01*
X07743Y-03506D01*
X07608Y-03372D01*
X07623Y-03378D01*
X07722Y-03378D01*
X07972Y-03378D01*
X08064Y-03340D01*
X08098Y-03306D01*
X08132Y-03340D01*
X08224Y-03378D01*
X08286Y-03379D01*
X08348Y-03317D01*
X08348Y-03072D01*
X08348Y-03022D01*
X08348Y-02922D01*
X08348Y-02872D01*
X08348Y-02627D01*
X08286Y-02565D01*
X08224Y-02566D01*
X08132Y-02604D01*
X08098Y-02638D01*
X08064Y-02604D01*
X07973Y-02566D01*
X07937Y-02566D01*
X07893Y-02521D01*
X07986Y-02522D01*
X08048Y-02460D01*
X08048Y-02072D01*
X08048Y-01972D01*
X08048Y-01584D01*
X07986Y-01522D01*
X07647Y-01523D01*
X07548Y-01523D01*
X07457Y-01561D01*
X07387Y-01631D01*
X07349Y-01723D01*
X07348Y-01910D01*
X07410Y-01972D01*
X08048Y-01972D01*
X08048Y-02072D01*
X07410Y-02072D01*
X07408Y-02073D01*
X07391Y-02062D01*
X07258Y-02035D01*
X07258Y-01428D01*
X07430Y-01256D01*
X07457Y-01283D01*
X07548Y-01321D01*
X07647Y-01321D01*
X08647Y-01321D01*
X08739Y-01283D01*
X08800Y-01222D01*
X11553Y-01222D01*
X11553Y-01386D01*
X11617Y-01542D01*
X11690Y-01615D01*
X11664Y-01642D01*
X10851Y-01642D01*
X10847Y-01632D01*
X10699Y-01483D01*
X10504Y-01402D01*
X10293Y-01402D01*
X10098Y-01483D01*
X09949Y-01631D01*
X09868Y-01826D01*
X09868Y-02037D01*
X09949Y-02232D01*
X10097Y-02381D01*
X10292Y-02462D01*
X10503Y-02462D01*
X10698Y-02381D01*
X10847Y-02233D01*
X10851Y-02222D01*
X11664Y-02222D01*
X11674Y-02232D01*
X11640Y-02266D01*
X11602Y-02358D01*
X11601Y-02420D01*
X11663Y-02482D01*
X11908Y-02482D01*
X11958Y-02482D01*
X12058Y-02482D01*
X12108Y-02482D01*
X12353Y-02482D01*
X12415Y-02420D01*
X12414Y-02358D01*
X12376Y-02266D01*
X12352Y-02242D01*
X12368Y-02242D01*
X12433Y-02307D01*
X12433Y-02406D01*
X12497Y-02562D01*
X12617Y-02682D01*
X12773Y-02747D01*
X12942Y-02747D01*
X12978Y-02732D01*
X13122Y-02876D01*
X13123Y-02877D01*
X13216Y-02939D01*
X13217Y-02940D01*
X13327Y-02961D01*
X13328Y-02962D01*
X13754Y-02962D01*
X13764Y-02972D01*
X13730Y-03006D01*
X13692Y-03098D01*
X13691Y-03160D01*
X13753Y-03222D01*
X13998Y-03222D01*
X14048Y-03222D01*
X14148Y-03222D01*
X14198Y-03222D01*
X14443Y-03222D01*
X14481Y-03183D01*
X14540Y-03223D01*
X14651Y-03245D01*
X14739Y-03245D01*
X14748Y-03254D01*
X14786Y-03270D01*
G54D10*
G36*
X15325Y-06302D02*
X14485Y-06302D01*
X14527Y-06201D01*
X14527Y-06061D01*
X14613Y-06147D01*
X14707Y-06210D01*
X14818Y-06232D01*
X15248Y-06232D01*
X15302Y-06286D01*
X15303Y-06287D01*
X15325Y-06302D01*
X15325Y-06302D01*
G37*
G54D32*
X15325Y-06302D02*
X14485Y-06302D01*
X14527Y-06201D01*
X14527Y-06061D01*
X14613Y-06147D01*
X14707Y-06210D01*
X14818Y-06232D01*
X15248Y-06232D01*
X15302Y-06286D01*
X15303Y-06287D01*
X15325Y-06302D01*
G54D10*
G36*
X15734Y-01676D02*
X15725Y-01673D01*
X15626Y-01673D01*
X14840Y-01673D01*
X14748Y-01711D01*
X14678Y-01781D01*
X14640Y-01872D01*
X14640Y-01971D01*
X14640Y-02147D01*
X14648Y-02167D01*
X14640Y-02187D01*
X14640Y-02286D01*
X14640Y-02462D01*
X14648Y-02482D01*
X14640Y-02502D01*
X14640Y-02534D01*
X14573Y-02467D01*
X14479Y-02404D01*
X14460Y-02400D01*
X14396Y-02336D01*
X14305Y-02298D01*
X14206Y-02298D01*
X13995Y-02298D01*
X14013Y-02257D01*
X14013Y-02088D01*
X14003Y-02064D01*
X14007Y-02043D01*
X14008Y-02042D01*
X14008Y-01966D01*
X14014Y-01959D01*
X14027Y-01972D01*
X14183Y-02037D01*
X14352Y-02037D01*
X14508Y-01973D01*
X14628Y-01853D01*
X14693Y-01697D01*
X14693Y-01528D01*
X14629Y-01372D01*
X14509Y-01252D01*
X14437Y-01222D01*
X15118Y-01222D01*
X15271Y-01192D01*
X15401Y-01105D01*
X15664Y-00842D01*
X15729Y-00842D01*
X15729Y-00878D01*
X15729Y-01664D01*
X15734Y-01676D01*
X15734Y-01676D01*
G37*
G54D32*
X15734Y-01676D02*
X15725Y-01673D01*
X15626Y-01673D01*
X14840Y-01673D01*
X14748Y-01711D01*
X14678Y-01781D01*
X14640Y-01872D01*
X14640Y-01971D01*
X14640Y-02147D01*
X14648Y-02167D01*
X14640Y-02187D01*
X14640Y-02286D01*
X14640Y-02462D01*
X14648Y-02482D01*
X14640Y-02502D01*
X14640Y-02534D01*
X14573Y-02467D01*
X14479Y-02404D01*
X14460Y-02400D01*
X14396Y-02336D01*
X14305Y-02298D01*
X14206Y-02298D01*
X13995Y-02298D01*
X14013Y-02257D01*
X14013Y-02088D01*
X14003Y-02064D01*
X14007Y-02043D01*
X14008Y-02042D01*
X14008Y-01966D01*
X14014Y-01959D01*
X14027Y-01972D01*
X14183Y-02037D01*
X14352Y-02037D01*
X14508Y-01973D01*
X14628Y-01853D01*
X14693Y-01697D01*
X14693Y-01528D01*
X14629Y-01372D01*
X14509Y-01252D01*
X14437Y-01222D01*
X15118Y-01222D01*
X15271Y-01192D01*
X15401Y-01105D01*
X15664Y-00842D01*
X15729Y-00842D01*
X15729Y-00878D01*
X15729Y-01664D01*
X15734Y-01676D01*
G54D10*
G36*
X17588Y-01864D02*
X17533Y-01997D01*
X17533Y-02166D01*
X17559Y-02232D01*
X17437Y-02181D01*
X17443Y-02167D01*
X17443Y-01998D01*
X17388Y-01864D01*
X17463Y-01864D01*
X17482Y-01855D01*
X17502Y-01864D01*
X17588Y-01864D01*
X17588Y-01864D01*
G37*
G54D32*
X17588Y-01864D02*
X17533Y-01997D01*
X17533Y-02166D01*
X17559Y-02232D01*
X17437Y-02181D01*
X17443Y-02167D01*
X17443Y-01998D01*
X17388Y-01864D01*
X17463Y-01864D01*
X17482Y-01855D01*
X17502Y-01864D01*
X17588Y-01864D01*
G54D10*
G36*
X18362Y-06302D02*
X18100Y-06302D01*
X18123Y-06287D01*
X18273Y-06137D01*
X18297Y-06161D01*
X18310Y-06223D01*
X18362Y-06302D01*
X18362Y-06302D01*
G37*
G54D32*
X18362Y-06302D02*
X18100Y-06302D01*
X18123Y-06287D01*
X18273Y-06137D01*
X18297Y-06161D01*
X18310Y-06223D01*
X18362Y-06302D01*
G54D10*
G36*
X18552Y-02957D02*
X18514Y-02973D01*
X18491Y-02996D01*
X18467Y-02996D01*
X18406Y-03057D01*
X18406Y-03090D01*
X18415Y-03112D01*
X18406Y-03134D01*
X18406Y-03233D01*
X18406Y-03409D01*
X18413Y-03426D01*
X18406Y-03444D01*
X18406Y-03543D01*
X18406Y-03612D01*
X16619Y-03612D01*
X16549Y-03542D01*
X16393Y-03477D01*
X16293Y-03477D01*
X16205Y-03389D01*
X16223Y-03397D01*
X16392Y-03397D01*
X16548Y-03333D01*
X16668Y-03213D01*
X16733Y-03057D01*
X16733Y-02888D01*
X16669Y-02732D01*
X16549Y-02612D01*
X16393Y-02547D01*
X16224Y-02547D01*
X16068Y-02611D01*
X16014Y-02665D01*
X15825Y-02665D01*
X15816Y-02656D01*
X15777Y-02639D01*
X15816Y-02624D01*
X15844Y-02596D01*
X15863Y-02596D01*
X15924Y-02535D01*
X15924Y-02502D01*
X15915Y-02482D01*
X15924Y-02463D01*
X15924Y-02364D01*
X15924Y-02188D01*
X15915Y-02167D01*
X15924Y-02148D01*
X15924Y-02049D01*
X15924Y-01888D01*
X16833Y-02797D01*
X16927Y-02860D01*
X16999Y-02874D01*
X17077Y-02952D01*
X17233Y-03017D01*
X17402Y-03017D01*
X17558Y-02953D01*
X17678Y-02833D01*
X17743Y-02677D01*
X17743Y-02508D01*
X17715Y-02440D01*
X17717Y-02442D01*
X17873Y-02507D01*
X18042Y-02507D01*
X18198Y-02443D01*
X18318Y-02323D01*
X18383Y-02167D01*
X18383Y-01998D01*
X18328Y-01864D01*
X18407Y-01864D01*
X18410Y-01862D01*
X18406Y-01874D01*
X18406Y-01973D01*
X18406Y-02149D01*
X18413Y-02166D01*
X18406Y-02184D01*
X18406Y-02283D01*
X18406Y-02459D01*
X18415Y-02481D01*
X18406Y-02504D01*
X18406Y-02603D01*
X18406Y-02779D01*
X18413Y-02796D01*
X18406Y-02814D01*
X18406Y-02847D01*
X18467Y-02908D01*
X18481Y-02908D01*
X18514Y-02941D01*
X18552Y-02957D01*
X18552Y-02957D01*
G37*
G54D32*
X18552Y-02957D02*
X18514Y-02973D01*
X18491Y-02996D01*
X18467Y-02996D01*
X18406Y-03057D01*
X18406Y-03090D01*
X18415Y-03112D01*
X18406Y-03134D01*
X18406Y-03233D01*
X18406Y-03409D01*
X18413Y-03426D01*
X18406Y-03444D01*
X18406Y-03543D01*
X18406Y-03612D01*
X16619Y-03612D01*
X16549Y-03542D01*
X16393Y-03477D01*
X16293Y-03477D01*
X16205Y-03389D01*
X16223Y-03397D01*
X16392Y-03397D01*
X16548Y-03333D01*
X16668Y-03213D01*
X16733Y-03057D01*
X16733Y-02888D01*
X16669Y-02732D01*
X16549Y-02612D01*
X16393Y-02547D01*
X16224Y-02547D01*
X16068Y-02611D01*
X16014Y-02665D01*
X15825Y-02665D01*
X15816Y-02656D01*
X15777Y-02639D01*
X15816Y-02624D01*
X15844Y-02596D01*
X15863Y-02596D01*
X15924Y-02535D01*
X15924Y-02502D01*
X15915Y-02482D01*
X15924Y-02463D01*
X15924Y-02364D01*
X15924Y-02188D01*
X15915Y-02167D01*
X15924Y-02148D01*
X15924Y-02049D01*
X15924Y-01888D01*
X16833Y-02797D01*
X16927Y-02860D01*
X16999Y-02874D01*
X17077Y-02952D01*
X17233Y-03017D01*
X17402Y-03017D01*
X17558Y-02953D01*
X17678Y-02833D01*
X17743Y-02677D01*
X17743Y-02508D01*
X17715Y-02440D01*
X17717Y-02442D01*
X17873Y-02507D01*
X18042Y-02507D01*
X18198Y-02443D01*
X18318Y-02323D01*
X18383Y-02167D01*
X18383Y-01998D01*
X18328Y-01864D01*
X18407Y-01864D01*
X18410Y-01862D01*
X18406Y-01874D01*
X18406Y-01973D01*
X18406Y-02149D01*
X18413Y-02166D01*
X18406Y-02184D01*
X18406Y-02283D01*
X18406Y-02459D01*
X18415Y-02481D01*
X18406Y-02504D01*
X18406Y-02603D01*
X18406Y-02779D01*
X18413Y-02796D01*
X18406Y-02814D01*
X18406Y-02847D01*
X18467Y-02908D01*
X18481Y-02908D01*
X18514Y-02941D01*
X18552Y-02957D01*
G54D10*
G36*
X19721Y-06302D02*
X19429Y-06302D01*
X19473Y-06197D01*
X19473Y-06028D01*
X19409Y-05872D01*
X19289Y-05752D01*
X19133Y-05687D01*
X18964Y-05687D01*
X18808Y-05751D01*
X18757Y-05801D01*
X18568Y-05612D01*
X18568Y-05545D01*
X18577Y-05536D01*
X18615Y-05445D01*
X18615Y-05346D01*
X18615Y-04979D01*
X19332Y-05697D01*
X19333Y-05697D01*
X19427Y-05760D01*
X19538Y-05782D01*
X19604Y-05782D01*
X19604Y-05868D01*
X19603Y-05898D01*
X19616Y-05911D01*
X19642Y-05973D01*
X19712Y-06043D01*
X19714Y-06044D01*
X19665Y-06044D01*
X19603Y-06106D01*
X19604Y-06136D01*
X19642Y-06228D01*
X19712Y-06298D01*
X19721Y-06302D01*
X19721Y-06302D01*
G37*
G54D32*
X19721Y-06302D02*
X19429Y-06302D01*
X19473Y-06197D01*
X19473Y-06028D01*
X19409Y-05872D01*
X19289Y-05752D01*
X19133Y-05687D01*
X18964Y-05687D01*
X18808Y-05751D01*
X18757Y-05801D01*
X18568Y-05612D01*
X18568Y-05545D01*
X18577Y-05536D01*
X18615Y-05445D01*
X18615Y-05346D01*
X18615Y-04979D01*
X19332Y-05697D01*
X19333Y-05697D01*
X19427Y-05760D01*
X19538Y-05782D01*
X19604Y-05782D01*
X19604Y-05868D01*
X19603Y-05898D01*
X19616Y-05911D01*
X19642Y-05973D01*
X19712Y-06043D01*
X19714Y-06044D01*
X19665Y-06044D01*
X19603Y-06106D01*
X19604Y-06136D01*
X19642Y-06228D01*
X19712Y-06298D01*
X19721Y-06302D01*
G54D10*
G36*
X20964Y-04182D02*
X20888Y-04182D01*
X20718Y-04182D01*
X20550Y-04182D01*
X20544Y-04176D01*
X20453Y-04138D01*
X20418Y-04138D01*
X20418Y-04112D01*
X20403Y-04036D01*
X20403Y-03878D01*
X20339Y-03722D01*
X20219Y-03602D01*
X20063Y-03537D01*
X19894Y-03537D01*
X19738Y-03601D01*
X19690Y-03649D01*
X19690Y-03621D01*
X19690Y-03445D01*
X19682Y-03427D01*
X19690Y-03410D01*
X19690Y-03311D01*
X19690Y-03213D01*
X19735Y-03258D01*
X19891Y-03323D01*
X20060Y-03323D01*
X20120Y-03298D01*
X20196Y-03298D01*
X20203Y-03305D01*
X20289Y-03363D01*
X20289Y-03471D01*
X20327Y-03563D01*
X20397Y-03633D01*
X20488Y-03671D01*
X20587Y-03671D01*
X20914Y-03671D01*
X20914Y-03764D01*
X20914Y-04078D01*
X20952Y-04170D01*
X20964Y-04182D01*
X20964Y-04182D01*
G37*
G54D32*
X20964Y-04182D02*
X20888Y-04182D01*
X20718Y-04182D01*
X20550Y-04182D01*
X20544Y-04176D01*
X20453Y-04138D01*
X20418Y-04138D01*
X20418Y-04112D01*
X20403Y-04036D01*
X20403Y-03878D01*
X20339Y-03722D01*
X20219Y-03602D01*
X20063Y-03537D01*
X19894Y-03537D01*
X19738Y-03601D01*
X19690Y-03649D01*
X19690Y-03621D01*
X19690Y-03445D01*
X19682Y-03427D01*
X19690Y-03410D01*
X19690Y-03311D01*
X19690Y-03213D01*
X19735Y-03258D01*
X19891Y-03323D01*
X20060Y-03323D01*
X20120Y-03298D01*
X20196Y-03298D01*
X20203Y-03305D01*
X20289Y-03363D01*
X20289Y-03471D01*
X20327Y-03563D01*
X20397Y-03633D01*
X20488Y-03671D01*
X20587Y-03671D01*
X20914Y-03671D01*
X20914Y-03764D01*
X20914Y-04078D01*
X20952Y-04170D01*
X20964Y-04182D01*
G54D10*
G36*
X24903Y-08597D02*
X24217Y-09283D01*
X24068Y-09431D01*
X24047Y-09410D01*
X24112Y-09382D01*
X24217Y-09109D01*
X24209Y-08817D01*
X24112Y-08582D01*
X23998Y-08532D01*
X23928Y-08602D01*
X23928Y-08462D01*
X23878Y-08348D01*
X23605Y-08243D01*
X23313Y-08251D01*
X23078Y-08348D01*
X23028Y-08462D01*
X23478Y-08911D01*
X23928Y-08462D01*
X23928Y-08602D01*
X23549Y-08982D01*
X23478Y-09053D01*
X23028Y-09502D01*
X23078Y-09616D01*
X23184Y-09657D01*
X22809Y-09657D01*
X22809Y-09297D01*
X22844Y-09382D01*
X22958Y-09432D01*
X23407Y-08982D01*
X22958Y-08532D01*
X22844Y-08582D01*
X22809Y-08673D01*
X22809Y-06852D01*
X23187Y-06852D01*
X23179Y-06873D01*
X23179Y-07091D01*
X23263Y-07293D01*
X23417Y-07447D01*
X23619Y-07531D01*
X23837Y-07531D01*
X24039Y-07447D01*
X24193Y-07293D01*
X24230Y-07201D01*
X24256Y-07263D01*
X24350Y-07290D01*
X24657Y-06982D01*
X24350Y-06674D01*
X24256Y-06701D01*
X24232Y-06766D01*
X24193Y-06671D01*
X24039Y-06517D01*
X23954Y-06482D01*
X24039Y-06447D01*
X24193Y-06293D01*
X24228Y-06208D01*
X24263Y-06293D01*
X24417Y-06447D01*
X24508Y-06484D01*
X24447Y-06510D01*
X24420Y-06604D01*
X24693Y-06876D01*
X24728Y-06911D01*
X24799Y-06982D01*
X24728Y-07053D01*
X24420Y-07360D01*
X24447Y-07454D01*
X24649Y-07525D01*
X24862Y-07514D01*
X24903Y-07497D01*
X24903Y-08597D01*
X24903Y-08597D01*
G37*
G54D32*
X24903Y-08597D02*
X24217Y-09283D01*
X24068Y-09431D01*
X24047Y-09410D01*
X24112Y-09382D01*
X24217Y-09109D01*
X24209Y-08817D01*
X24112Y-08582D01*
X23998Y-08532D01*
X23928Y-08602D01*
X23928Y-08462D01*
X23878Y-08348D01*
X23605Y-08243D01*
X23313Y-08251D01*
X23078Y-08348D01*
X23028Y-08462D01*
X23478Y-08911D01*
X23928Y-08462D01*
X23928Y-08602D01*
X23549Y-08982D01*
X23478Y-09053D01*
X23028Y-09502D01*
X23078Y-09616D01*
X23184Y-09657D01*
X22809Y-09657D01*
X22809Y-09297D01*
X22844Y-09382D01*
X22958Y-09432D01*
X23407Y-08982D01*
X22958Y-08532D01*
X22844Y-08582D01*
X22809Y-08673D01*
X22809Y-06852D01*
X23187Y-06852D01*
X23179Y-06873D01*
X23179Y-07091D01*
X23263Y-07293D01*
X23417Y-07447D01*
X23619Y-07531D01*
X23837Y-07531D01*
X24039Y-07447D01*
X24193Y-07293D01*
X24230Y-07201D01*
X24256Y-07263D01*
X24350Y-07290D01*
X24657Y-06982D01*
X24350Y-06674D01*
X24256Y-06701D01*
X24232Y-06766D01*
X24193Y-06671D01*
X24039Y-06517D01*
X23954Y-06482D01*
X24039Y-06447D01*
X24193Y-06293D01*
X24228Y-06208D01*
X24263Y-06293D01*
X24417Y-06447D01*
X24508Y-06484D01*
X24447Y-06510D01*
X24420Y-06604D01*
X24693Y-06876D01*
X24728Y-06911D01*
X24799Y-06982D01*
X24728Y-07053D01*
X24420Y-07360D01*
X24447Y-07454D01*
X24649Y-07525D01*
X24862Y-07514D01*
X24903Y-07497D01*
X24903Y-08597D01*
M02*
