M48
;DRILL file {Pcbnew (2011-11-27 BZR 3249)-stable} date 23/01/2012 5:01:26 p.m.
;FORMAT={-:-/ absolute / inch / decimal}
FMAT,2
INCH,TZ
T1C0.020
T2C0.025
T3C0.030
T4C0.035
T5C0.039
T6C0.040
T7C0.102
T8C0.122
%
G90
G05
M72
T1
X0.541Y-0.158
X0.552Y-0.747
X0.553Y-0.886
X0.566Y-0.081
X0.618Y-0.954
X0.656Y-0.079
X0.717Y-0.620
X0.753Y-0.521
X0.809Y-0.371
X0.809Y-0.846
X0.809Y-0.955
X0.843Y-0.522
X0.979Y-0.953
X1.024Y-0.503
X1.094Y-0.726
X1.264Y-0.232
X1.264Y-0.354
X1.353Y-0.326
X1.359Y-0.217
X1.425Y-0.213
X1.427Y-0.161
X1.466Y-0.136
X1.508Y-0.628
X1.560Y-0.136
X1.693Y-0.295
X1.702Y-0.208
X1.732Y-0.259
X1.733Y-0.423
X1.749Y-0.206
X1.776Y-0.354
X1.779Y-0.577
X1.796Y-0.208
X1.826Y-0.629
X1.905Y-0.611
X1.949Y-0.600
X1.998Y-0.345
X1.998Y-0.396
X2.076Y-0.634
X2.093Y-0.509
X2.118Y-0.473
X2.119Y-0.586
X2.164Y-0.523
X2.167Y-0.584
T2
X1.198Y-0.130
X1.198Y-0.509
X1.298Y-0.509
X1.398Y-0.509
X1.398Y-0.609
X1.631Y-0.297
X1.631Y-0.390
X1.888Y-0.128
X1.998Y-0.290
T3
X1.040Y-0.193
X1.040Y-0.393
T4
X0.189Y-0.817
X0.362Y-0.817
T5
X0.217Y-0.305
X0.226Y-0.473
X0.335Y-0.217
X0.345Y-0.374
X0.554Y-0.235
X0.554Y-0.335
X0.554Y-0.435
X0.554Y-0.535
T6
X2.373Y-0.498
X2.373Y-0.598
X2.373Y-0.698
X2.473Y-0.498
X2.473Y-0.598
X2.473Y-0.698
T7
X1.083Y-0.923
T8
X2.348Y-0.898
T0
M30
