G04 (created by PCBNEW-RS274X (2011-11-27 BZR 3249)-stable) date 13/09/2012 10:30:00 a.m.*
G01*
G70*
G90*
%MOIN*%
G04 Gerber Fmt 3.4, Leading zero omitted, Abs format*
%FSLAX34Y34*%
G04 APERTURE LIST*
%ADD10C,0.006000*%
%ADD11C,0.012000*%
%ADD12C,0.015000*%
%ADD13C,0.055400*%
%ADD14C,0.108600*%
%ADD15C,0.197500*%
%ADD16C,0.173900*%
%ADD17C,0.076000*%
%ADD18C,0.080000*%
%ADD19R,0.080000X0.080000*%
G04 APERTURE END LIST*
G54D10*
G54D11*
X05068Y-11453D02*
X05268Y-12253D01*
X05468Y-11453D01*
X05668Y-11948D02*
X06125Y-11948D01*
X06668Y-12215D02*
X06611Y-12253D01*
X06497Y-12253D01*
X06439Y-12215D01*
X06411Y-12177D01*
X06382Y-12100D01*
X06382Y-11872D01*
X06411Y-11796D01*
X06439Y-11758D01*
X06497Y-11719D01*
X06611Y-11719D01*
X06668Y-11758D01*
X07182Y-11719D02*
X07182Y-12253D01*
X06925Y-11719D02*
X06925Y-12139D01*
X06953Y-12215D01*
X07011Y-12253D01*
X07096Y-12253D01*
X07153Y-12215D01*
X07182Y-12177D01*
X07382Y-11719D02*
X07611Y-11719D01*
X07468Y-11453D02*
X07468Y-12139D01*
X07496Y-12215D01*
X07554Y-12253D01*
X07611Y-12253D01*
X04083Y05082D02*
X04283Y04282D01*
X04483Y05082D01*
X04683Y04587D02*
X05140Y04587D01*
X05683Y04320D02*
X05626Y04282D01*
X05512Y04282D01*
X05454Y04320D01*
X05426Y04358D01*
X05397Y04435D01*
X05397Y04663D01*
X05426Y04739D01*
X05454Y04777D01*
X05512Y04816D01*
X05626Y04816D01*
X05683Y04777D01*
X06197Y04816D02*
X06197Y04282D01*
X05940Y04816D02*
X05940Y04396D01*
X05968Y04320D01*
X06026Y04282D01*
X06111Y04282D01*
X06168Y04320D01*
X06197Y04358D01*
X06397Y04816D02*
X06626Y04816D01*
X06483Y05082D02*
X06483Y04396D01*
X06511Y04320D01*
X06569Y04282D01*
X06626Y04282D01*
G54D12*
X04784Y-12283D02*
X04784Y04213D01*
%LPC*%
G54D13*
X03622Y-08169D03*
X01890Y-08169D03*
G54D14*
X02166Y-03053D03*
G54D15*
X23478Y-08982D03*
G54D16*
X10828Y-09232D03*
G54D17*
X10398Y-03932D03*
X10398Y-01932D03*
G54D18*
X11978Y-05092D03*
X12978Y-05092D03*
X13978Y-06092D03*
X13978Y-05092D03*
G54D19*
X05538Y-02352D03*
G54D18*
X05538Y-03352D03*
X05538Y-04352D03*
X05538Y-05352D03*
G54D14*
X02264Y-04726D03*
X03445Y-03742D03*
X03347Y-02167D03*
G54D19*
X24713Y-04984D03*
G54D18*
X23713Y-04984D03*
X24713Y-05984D03*
X23713Y-05984D03*
X24713Y-06984D03*
X23713Y-06984D03*
M02*
