G04 (created by PCBNEW-RS274X (2011-11-27 BZR 3249)-stable) date 13/09/2012 10:30:00 a.m.*
G01*
G70*
G90*
%MOIN*%
G04 Gerber Fmt 3.4, Leading zero omitted, Abs format*
%FSLAX34Y34*%
G04 APERTURE LIST*
%ADD10C,0.006000*%
%ADD11C,0.015000*%
%ADD12C,0.055400*%
%ADD13C,0.108600*%
%ADD14C,0.197500*%
%ADD15C,0.173900*%
%ADD16C,0.076000*%
%ADD17C,0.080000*%
%ADD18R,0.080000X0.080000*%
G04 APERTURE END LIST*
G54D10*
G54D11*
X00787Y-10236D02*
X00787Y-00232D01*
X11578Y-06748D02*
X11578Y-10193D01*
X22484Y-06748D02*
X11578Y-06748D01*
X22484Y-09982D02*
X22484Y-06748D01*
X22978Y-00732D02*
X22478Y-00232D01*
X22978Y-03982D02*
X25228Y-03982D01*
X22978Y-00732D02*
X22978Y-03982D01*
X23978Y-09982D02*
X25228Y-08732D01*
X22478Y-09982D02*
X23978Y-09982D01*
X11578Y-10222D02*
X00787Y-10222D01*
X25228Y-03982D02*
X25228Y-08732D01*
X00787Y-00232D02*
X22478Y-00232D01*
%LPC*%
G54D12*
X03622Y-08169D03*
X01890Y-08169D03*
G54D13*
X02166Y-03053D03*
G54D14*
X23478Y-08982D03*
G54D15*
X10828Y-09232D03*
G54D16*
X10398Y-03932D03*
X10398Y-01932D03*
G54D17*
X11978Y-05092D03*
X12978Y-05092D03*
X13978Y-06092D03*
X13978Y-05092D03*
G54D18*
X05538Y-02352D03*
G54D17*
X05538Y-03352D03*
X05538Y-04352D03*
X05538Y-05352D03*
G54D13*
X02264Y-04726D03*
X03445Y-03742D03*
X03347Y-02167D03*
G54D18*
X24713Y-04984D03*
G54D17*
X23713Y-04984D03*
X24713Y-05984D03*
X23713Y-05984D03*
X24713Y-06984D03*
X23713Y-06984D03*
M02*
